<?xml version="1.0" encoding="UTF-8"?>
<!DOCTYPE svg PUBLIC "-//W3C//DTD SVG 1.1//EN" "http://www.w3.org/Graphics/SVG/1.1/DTD/svg11.dtd">
<!-- Creator: CorelDRAW -->
<svg xmlns="http://www.w3.org/2000/svg" xml:space="preserve" width="50.8mm" height="40.64mm" version="1.1" style="shape-rendering:geometricPrecision; text-rendering:geometricPrecision; image-rendering:optimizeQuality; fill-rule:evenodd; clip-rule:evenodd"
viewBox="0 0 5080 4064"
 xmlns:xlink="http://www.w3.org/1999/xlink"
 xmlns:xodm="http://www.corel.com/coreldraw/odm/2003">
 <defs>
  <style type="text/css">
   <![CDATA[
    .fil3 {fill:white;fill-rule:nonzero}
    .fil8 {fill:#F9C4A6;fill-rule:nonzero}
    .fil9 {fill:#EC9D71;fill-rule:nonzero}
    .fil5 {fill:#E8E7E7;fill-rule:nonzero}
    .fil2 {fill:#D8EAE8;fill-rule:nonzero}
    .fil10 {fill:#BDBABA;fill-rule:nonzero}
    .fil1 {fill:#6EAFAB;fill-rule:nonzero}
    .fil6 {fill:#4E5E69;fill-rule:nonzero}
    .fil12 {fill:#313334;fill-rule:nonzero}
    .fil4 {fill:#383E42;fill-rule:nonzero}
    .fil0 {fill:#137B71;fill-rule:nonzero}
    .fil7 {fill:#17665D;fill-rule:nonzero}
    .fil11 {fill:#1E5953;fill-rule:nonzero}
   ]]>
  </style>
 </defs>
 <g id="Layer_x0020_1">
  <metadata id="CorelCorpID_0Corel-Layer"/>
  <g id="_105553333532160">
   <path class="fil0" d="M4568.5 1493.16c-68.38,70.99 -181.34,73.11 -252.33,4.75 -70.99,-68.37 -73.11,-181.35 -4.75,-252.33 68.37,-70.99 181.35,-73.11 252.33,-4.74l0.37 0.35c70.65,68.44 72.61,181.13 4.38,251.97zm264.34 -20.08l97.68 -23.94 -2.96 -166.3 -98.42 -20.52c-9.93,-34.93 -24.49,-68.39 -43.28,-99.46l51.87 -85.97 -119.68 -115.53 -84.12 55.06c-31.64,-17.53 -65.49,-30.74 -100.64,-39.28l-23.92 -97.67 -166.31 2.89 -20.52 98.49c-34.95,9.87 -68.41,24.4 -99.46,43.21l-85.97 -51.88 -115.54 119.09 55.07 84.04c-17.67,31.73 -31.01,65.67 -39.65,100.94l-97.67 23.94 2.88 166.37 98.42 20.45c9.93,34.93 24.48,68.38 43.28,99.46l-51.88 85.96 119.69 115.54 83.81 -54.91c31.74,17.66 65.69,31.02 100.94,39.72l24.16 97.53 166.38 -2.97 20.45 -98.41c34.85,-9.96 68.22,-24.51 99.23,-43.29l85.97 51.88 115.53 -119.69 -55.05 -84.11c17.64,-31.64 31,-65.47 39.71,-100.64z"/>
   <path class="fil1" d="M4360.62 1870.31l-24.16 -97.53c-7.74,-1.91 -15.41,-4.05 -23,-6.4 0.08,-85.76 0.16,-176.18 0.26,-270.88 0.8,0.81 1.62,1.61 2.45,2.41 34.62,33.34 79.22,49.92 123.77,49.92 46.79,0 93.53,-18.3 128.56,-54.67 33.32,-34.59 49.9,-79.16 49.92,-123.68 0.02,-46.65 -18.15,-93.27 -54.3,-128.29l-0.37 -0.35c-34.62,-33.35 -79.22,-49.92 -123.77,-49.92 -45.67,0 -91.29,17.43 -126.01,52.08 0.08,-83.79 0.17,-170.41 0.26,-259.71 2.76,-0.84 5.53,-1.65 8.31,-2.44l20.52 -98.49 166.31 -2.89 23.92 97.67c35.15,8.54 69,21.75 100.64,39.28l84.12 -55.06 119.68 115.53 -51.87 85.97c18.79,31.07 33.35,64.53 43.28,99.46l98.42 20.52 2.96 166.3 -97.68 23.94c-8.71,35.17 -22.07,69 -39.71,100.64l55.05 84.11 -115.53 119.69 -85.97 -51.88c-31.01,18.78 -64.38,33.33 -99.23,43.29l-20.45 98.41 -166.38 2.97zm-48.84 -104.45c-0.35,-0.11 -0.69,-0.22 -1.03,-0.33l0 -273.08c0.27,0.29 0.55,0.59 0.83,0.88 0.07,95.32 0.14,186.24 0.2,272.53zm-1.03 -519.57l0 -261.91c0.14,-0.06 0.3,-0.1 0.45,-0.15 0.06,89.86 0.13,177.11 0.2,261.38 -0.22,0.23 -0.44,0.45 -0.65,0.68z"/>
   <path class="fil0" d="M3678.82 563.54c-49.04,50.79 -47.62,131.72 3.18,180.76 50.78,49.04 131.72,47.62 180.76,-3.17 49.04,-50.8 47.61,-131.72 -3.18,-180.77l-0.01 -0.01c-50.8,-49.03 -131.72,-47.6 -180.75,3.19zm-63.52 -158.74c22.17,-13.4 46.03,-23.79 70.93,-30.9l14.82 -70.56 119.17 -2.07 17.12 69.96c25.26,6.22 49.57,15.76 72.33,28.38l60.17 -39.43 85.75 82.79 -37.06 61.51c13.42,22.28 23.78,46.26 30.83,71.29l70.55 14.82 2.08 119.17 -69.95 17.12c-6.22,25.25 -15.8,49.55 -28.47,72.25l39.5 60.25 -82.78 85.75 -61.51 -37.06c-22.28,13.45 -46.25,23.87 -71.29,30.98l-14.82 70.48 -119.17 2.15 -17.12 -69.96c-25.25,-6.22 -49.55,-15.79 -72.26,-28.46l-60.25 39.43 -85.74 -82.71 37.05 -61.58c-13.45,-22.28 -23.87,-46.25 -30.97,-71.3l-70.48 -14.82 -1.71 -119.39 69.97 -17.19c6.22,-25.24 15.79,-49.54 28.45,-72.26l-39.13 -60.25 82.78 -85.67 61.59 37.06 -0.38 0.22z"/>
   <path class="fil2" d="M4035.99 774.12l-226.17 -0.03c19.47,-6.22 37.74,-17.22 52.94,-32.96 23.94,-24.81 35.86,-56.79 35.86,-88.74 0.02,-33.49 -13.05,-66.93 -39.04,-92.03l-0.01 -0.01c-24.81,-23.94 -56.81,-35.86 -88.77,-35.86 -33.48,0 -66.9,13.07 -91.98,39.05 -23.95,24.8 -35.86,56.79 -35.87,88.74 -0.01,33.48 13.06,66.93 39.05,92.02 14.57,14.08 31.64,24 49.72,29.78l-234.29 -0.02c-5.23,-12 -9.65,-24.34 -13.22,-36.96l-70.48 -14.82 -1.71 -119.39 69.97 -17.19c6.22,-25.24 15.79,-49.54 28.45,-72.26l-39.13 -60.25 82.78 -85.67 61.59 37.06c22.06,-13.3 45.79,-23.62 70.55,-30.68l14.82 -70.56 119.17 -2.07 17.12 69.96c25.26,6.22 49.57,15.76 72.33,28.38l60.17 -39.43 85.75 82.79 -37.06 61.51c13.42,22.28 23.78,46.26 30.83,71.29l70.55 14.82 2.08 119.17 -69.95 17.12c-4,16.19 -9.36,32 -16.05,47.24z"/>
   <path class="fil3" d="M4530.26 462.98c-36.03,37.46 -34.86,97.04 2.6,133.07 37.47,36.03 97.05,34.86 133.07,-2.6 35.92,-37.34 34.9,-96.69 -2.28,-132.77 -37.29,-36.21 -96.88,-35.32 -133.08,1.98l-0.31 0.32zm-46.69 -116.8c16.36,-9.93 33.98,-17.61 52.39,-22.83l10.82 -51.87 88.05 -1.56 12.67 51.88c18.58,4.58 36.47,11.6 53.21,20.9l44.46 -29.06 63.08 60.92 -27.43 45.36c9.86,16.38 17.52,34 22.75,52.39l51.88 10.82 1.56 87.75 -51.73 12.23c-4.67,18.57 -11.8,36.44 -21.2,53.13l29.05 44.47 -60.92 63.06 -45.35 -27.42c-16.38,9.87 -33.99,17.53 -52.39,22.76l-10.82 51.87 -87.67 1.48 -12.67 -51.43c-18.58,-4.64 -36.47,-11.68 -53.22,-20.97l-44.47 29.05 -62.77 -60.99 27.42 -45.28c-9.87,-16.41 -17.52,-34.06 -22.75,-52.47l-51.87 -10.82 -1.56 -87.67 51.88 -12.68c4.58,-18.58 11.61,-36.47 20.89,-53.21l-29.05 -44.46 60.92 -63.07 45.36 27.5 -0.52 0.22z"/>
   <path class="fil0" d="M4530.26 462.98c4.99,-6.03 10.91,-11.21 17.56,-15.35 31.37,-20.27 71.72,-20.27 103.09,0 14.43,9.43 26.08,22.55 33.72,38.02 8.68,17.18 11.98,36.57 9.48,55.66 -5.44,41.94 -37.72,75.35 -79.44,82.26 -18.88,3.11 -38.26,0.52 -55.66,-7.41 -15.78,-6.9 -29.44,-17.88 -39.57,-31.79 -8.58,-12.27 -14.14,-26.39 -16.23,-41.21 -3.17,-21.4 1.18,-43.24 12.31,-61.81 3.91,-6.79 8.92,-12.9 14.82,-18.08 0.51,0.44 -5.64,6.15 -12.9,19.12 -10.13,18.35 -13.78,39.58 -10.38,60.25 5.06,30.67 25.23,56.73 53.66,69.29 8.02,3.73 16.57,6.24 25.34,7.42 9.12,1.28 18.38,1.08 27.42,-0.6 39.36,-6.72 69.78,-38.24 75.07,-77.81 1.49,-9.06 1.49,-18.29 0,-27.35 -1.43,-8.91 -4.27,-17.53 -8.37,-25.57 -13.56,-28.11 -40.47,-47.4 -71.44,-51.21 -20.77,-2.63 -41.84,1.78 -59.81,12.53 -12.67,7.78 -17.86,14.15 -18.67,13.64z"/>
   <path class="fil0" d="M4483.57 346.18c-1.04,-0.43 -2.02,-0.95 -2.96,-1.56l-8.82 -4.81 -34.17 -20.16 1.04 0 -60.54 63.43 0 -1.7 29.19 44.46 0.52 0.82 -0.44 0.82c-9.18,16.62 -16.11,34.39 -20.61,52.84l0 1.03 -1.04 0 -51.43 12.75 1.49 -1.93c0.54,27.67 1.11,56.92 1.7,87.75l-1.7 -2.08 51.88 10.67 1.32 0 0 1.34c5.22,18.21 12.83,35.65 22.61,51.88l0.75 1.25 -0.75 1.19 -27.34 45.36 -0.45 -2.97 63.21 60.85 -3.11 0 44.47 -29.13 1.33 -0.81 1.33 0.74c16.54,9.17 34.25,16.1 52.62,20.6l1.49 0 0 1.55c4,16.16 8.29,33.72 12.67,51.88l-2.6 -2 87.67 -1.63 -2.52 2.15c3.41,-16.38 7.04,-34.09 10.75,-51.88l0.37 -1.63 1.56 -0.44c18.2,-5.06 35.66,-12.54 51.87,-22.23l1.42 -0.9 1.32 0.9 45.36 27.41 -3.34 0.45 60.92 -63.07 0 3.34 -29.05 -44.47 -0.89 -1.33 0.82 -1.33c9.18,-16.55 16.14,-34.24 20.67,-52.62l0 -1.48 1.56 -0.38 51.88 -12.59 -1.93 2.52c-0.54,-29.95 -1.04,-59.17 -1.48,-87.68l2 2.38 -51.88 -10.9 -1.41 0 -0.36 -1.41c-5.11,-18.19 -12.58,-35.63 -22.23,-51.87l-0.75 -1.19 0.75 -1.26 27.49 -45.2 0 2.74 -63 -61.07 2.6 0 -44.47 28.9 -0.96 0.67 -1.03 -0.59c-16.58,-9.26 -34.29,-16.28 -52.7,-20.9l-1.03 0 0 -1.04c-4.61,-18.67 -8.67,-35.57 -12.53,-51.87l1.63 1.18 -87.75 1.19 1.19 -0.97c-4.44,20.68 -8.08,37.73 -11.12,51.88l0 0.52 -0.52 0c-13.8,3.78 -27.2,8.9 -40.02,15.27l-9.41 4.89 -3.11 1.63c0.9,-0.77 1.87,-1.43 2.9,-2 1.99,-1.26 5.03,-3.12 9.26,-5.34 12.73,-6.8 26.15,-12.27 40.01,-16.3l-0.59 0.66c2.81,-14.23 6.3,-31.2 10.45,-51.87l0 -0.89 0.96 0 88.27 -2.3 1.25 0 0 1.26c4.01,15.93 8.16,32.76 12.83,51.43l-1.34 -1.26c18.84,4.53 36.98,11.56 53.95,20.9l-1.99 0 44.46 -29.12 1.33 -0.89 1.19 1.11 63.21 60.84 1.34 1.19 -0.96 1.55 -27.43 45.36 0 -2.45c9.85,16.63 17.46,34.5 22.61,53.14l-1.78 -1.7 51.87 10.67 1.78 0.29 0 2c0.54,28.46 1.09,57.68 1.63,87.67l0 2.08 -1.92 0.44 -51.88 12.68 1.93 -1.93c-4.64,18.82 -11.77,36.94 -21.19,53.88l0 -2.75c9.53,14.83 19.21,29.65 29.04,44.47l1.19 1.78 -1.48 1.55 -60.92 63.15 -1.49 1.55 -1.85 -1.11 -45.28 -27.49 2.74 0c-16.57,10.01 -34.42,17.76 -53.06,23.04l2.45 -1.63 -10.82 51.88 0 2.08 -2.15 0 -87.75 1.48 -2.07 0 -0.52 -2.08c-4.37,-17.78 -8.67,-35.35 -12.59,-51.87l1.92 1.92c-18.8,-4.66 -36.89,-11.81 -53.8,-21.27l2.59 0 -46.17 30.09 -1.41 -1.33 -63.07 -61.07 -1.33 -1.33 0.96 -1.63 27.57 -45.28 0 2.44c-10,-16.57 -17.72,-34.43 -22.97,-53.06l1.7 1.56 -51.87 -10.9 -1.71 0 0 -1.63c-0.44,-30.83 -0.89,-60.08 -1.33,-87.74l0 -1.56 1.48 0 51.5 -12.52 -1.33 1.33c4.64,-18.92 11.76,-37.14 21.2,-54.17l0 1.63 -28.83 -44.47 -0.6 -0.96 0.75 -0.74 61.29 -62.77 0.44 -0.52 0.59 0 33.42 20.75 8.53 5.48 2.89 2.45z"/>
   <polygon class="fil3" points="799.67,775.27 4310.75,775.27 4310.75,2836.91 799.67,2836.91 "/>
   <polygon class="fil4" points="801.53,775.79 4312.6,775.79 4312.6,999.89 801.53,999.89 "/>
   <path class="fil4" d="M2059.9 1230.82c0.33,-20.79 -16.26,-37.91 -37.05,-38.24 -20.79,-0.33 -37.9,16.27 -38.24,37.05 -0.32,20.79 16.27,37.91 37.06,38.24l0.73 0c20.05,0.66 36.83,-15.06 37.49,-35.09l0.01 -1.96zm-84.63 0c-0.82,-25.98 19.58,-47.7 45.55,-48.52 25.98,-0.82 47.71,19.58 48.52,45.56 0.82,25.97 -19.58,47.69 -45.55,48.51l-1.39 0.03c-24.9,1.1 -45.98,-18.19 -47.09,-43.08 -0.03,-0.84 -0.05,-1.67 -0.04,-2.5z"/>
   <path class="fil4" d="M2147.87 1241.93c-0.61,-13.86 -12.35,-24.6 -26.21,-23.98 -13.86,0.61 -24.6,12.35 -23.99,26.21 0.6,13.42 11.64,24 25.08,24.01 13.7,0.19 24.97,-10.78 25.16,-24.49l-0.04 -1.75zm9.04 0c0.99,17.95 -12.75,33.29 -30.69,34.29 -0.93,0.04 -1.87,0.06 -2.81,0.03 -10.26,0.32 -19.97,-4.7 -25.64,-13.27l0 37.5 -9.04 0 0 -92.19 8.67 0 0 13.41c5.59,-8.9 15.49,-14.17 26.01,-13.85 17.97,-0.56 32.97,13.56 33.52,31.51 0.03,0.86 0.02,1.72 -0.02,2.57z"/>
   <path class="fil4" d="M2177.81 1238.01l47.72 0c-1.03,-13.18 -12.56,-23.02 -25.74,-21.98 -11.73,0.92 -21.06,10.24 -21.98,21.98zm56.32 6.74l-56.32 0c0.83,13.77 12.66,24.26 26.43,23.43l0.1 -0.01c7.83,0.26 15.38,-2.97 20.6,-8.82l5.11 5.93c-13.56,14.21 -36.07,14.74 -50.28,1.18 -6.74,-6.43 -10.68,-15.23 -11,-24.53 -0.99,-17.86 12.69,-33.13 30.55,-34.12 0.76,-0.04 1.52,-0.05 2.28,-0.04 17.72,-0.36 32.37,13.7 32.75,31.42 0.01,0.92 -0.01,1.83 -0.07,2.74 0,0.82 -0.15,2.01 -0.15,2.82z"/>
   <path class="fil4" d="M2286.75 1207.77l0 8.82 -2.15 0c-14.08,0 -22.68,8.97 -22.68,24.83l0 34.31 -9.04 0 0 -67.37 8.67 0 0 13.34c4.71,-9.41 14.73,-14.94 25.2,-13.93z"/>
   <path class="fil4" d="M2344.78 1255.42l0 -11.04 -21.12 0c-13.05,0 -17.27,5.11 -17.27,12.08 0,6.97 6.22,12.67 17.04,12.67 9.37,0.6 18.04,-4.95 21.42,-13.71l-0.07 0zm9.11 -21.49l0 41.73 -9.04 0 0 -10.53c-5.1,7.65 -13.96,11.9 -23.12,11.12 -15.27,0 -24.61,-7.93 -24.61,-19.57 0,-10.37 6.67,-19.04 26.02,-19.04l21.71 0 0 -4.15c0,-11.49 -6.52,-17.79 -19.05,-17.79 -8.1,-0.03 -15.97,2.77 -22.23,7.93l-4.08 -6.74c7.81,-6.13 17.5,-9.36 27.43,-9.12 17.11,0 26.97,8.75 26.97,26.16z"/>
   <path class="fil4" d="M2414.07 1271.5c-4.02,3.25 -9.07,4.93 -14.23,4.75 -9.76,1.12 -18.58,-5.89 -19.7,-15.65 -0.15,-1.3 -0.15,-2.61 -0.01,-3.92l0 -40.68 -12.01 0 0 -7.41 12.01 0 0 -14.83 9.19 0 0 14.83 20.45 0 0 7.41 -20.45 0 0 40.16c-0.84,5.92 3.27,11.4 9.18,12.24 0.82,0.12 1.64,0.13 2.45,0.07 3.65,0.07 7.2,-1.17 10.01,-3.49l3.11 6.52z"/>
   <path class="fil4" d="M2430.6 1208.29l9.11 0 0 67.37 -9.11 0 0 -67.37zm-2.08 -21.27c0.12,-3.58 3.08,-6.42 6.67,-6.37 3.56,0 6.45,2.89 6.45,6.44 0,3.57 -2.89,6.45 -6.45,6.45 -3.65,0.05 -6.63,-2.87 -6.67,-6.52z"/>
   <path class="fil4" d="M2527.01 1236.53l0 39.05 -9.11 0 0 -38.17c0,-14.22 -7.42,-21.49 -20.24,-21.49 -12.25,-0.79 -22.82,8.5 -23.62,20.75 -0.08,1.19 -0.05,2.38 0.06,3.56l0 35.35 -9.04 0 0 -67.36 8.67 0 0 12.45c5.55,-8.67 15.37,-13.63 25.64,-12.97 16.38,0.07 27.64,9.56 27.64,28.83z"/>
   <path class="fil4" d="M2605.49 1240.3c0.49,-14.11 -10.55,-25.95 -24.66,-26.44 -14.11,-0.49 -25.95,10.56 -26.44,24.67 -0.49,14.11 10.55,25.95 24.67,26.44l0.79 0.01c13.27,0.87 24.74,-9.19 25.6,-22.47 0.05,-0.73 0.06,-1.47 0.04,-2.21zm8.82 -32.01l0 59.29c0,23.19 -11.41,33.64 -33.64,33.64 -11.39,0.46 -22.56,-3.22 -31.43,-10.37l4.67 -6.89c7.41,6.19 16.81,9.48 26.46,9.26 17.04,0 24.83,-7.86 24.83,-24.46l0 -8.59c-5.91,8.58 -15.83,13.51 -26.24,13.04 -18.03,0.86 -33.34,-13.06 -34.2,-31.09 -0.85,-18.03 13.06,-33.34 31.09,-34.2 1.04,-0.05 2.07,-0.05 3.11,0 10.63,-0.5 20.73,4.62 26.61,13.49l0 -12.97 8.74 -0.15z"/>
   <path class="fil4" d="M2665.15 1266.17l5.78 -12.97c8.56,6.4 18.96,9.86 29.65,9.86 13.93,0 19.86,-4.97 19.86,-11.64 0,-19.34 -53.29,-6.67 -53.29,-39.94 0,-14.82 11.49,-26.76 36.09,-26.76 10.42,-0.12 20.68,2.63 29.65,7.93l-5.26 12.97c-7.46,-4.6 -16,-7.16 -24.76,-7.41 -13.78,0 -19.41,5.34 -19.41,12.15 0,19.05 53.13,6.67 53.13,39.58 0,14.3 -11.63,26.6 -36.24,26.6 -12.55,0.45 -24.9,-3.19 -35.2,-10.37z"/>
   <path class="fil4" d="M2814.41 1207.25l-31.94 74.11c-6.3,15.49 -14.83,20.23 -26.39,20.23 -6.65,0.14 -13.14,-2.09 -18.3,-6.3l6.37 -11.78c3.19,3.03 7.4,4.71 11.78,4.74 5.64,0 8.97,-2.66 12.01,-9.48l1.19 -2.67 -29.65 -68.63 16.6 0 21.49 50.62 21.64 -50.62 15.2 -0.22z"/>
   <path class="fil4" d="M2815.74 1268.84l6.15 -12.16c7.14,4.43 15.38,6.79 23.79,6.82 10.15,0 14.38,-2.81 14.38,-7.41 0,-13.12 -42.25,-0.82 -42.25,-28.09 0,-12.89 11.64,-21.34 30.09,-21.34 8.88,-0.16 17.66,1.85 25.57,5.85l-6.15 12.16c-5.94,-3.45 -12.7,-5.21 -19.57,-5.12 -9.7,0 -14.37,3.27 -14.37,7.41 0,13.86 42.24,1.56 42.24,28.31 0,12.75 -11.78,21.13 -30.97,21.13 -10.16,0.23 -20.17,-2.38 -28.91,-7.56z"/>
   <path class="fil4" d="M2930.31 1271.95c-4.5,3.16 -9.91,4.76 -15.41,4.59 -11.5,1.46 -21.99,-6.67 -23.45,-18.16 -0.2,-1.62 -0.21,-3.26 -0.04,-4.88l0 -32.91 -11.26 0 0 -12.82 11.26 0 0 -15.71 15.94 0 0 15.64 18.29 0 0 12.82 -18.29 0 0 32.53c0,6.6 3.32,10.23 9.47,10.23 3.22,0.09 6.39,-0.91 8.97,-2.82l4.52 11.49z"/>
   <path class="fil4" d="M2951.73 1235.93l38.76 0c-1.01,-9.8 -9.51,-17.09 -19.34,-16.6 -9.81,-0.38 -18.26,6.85 -19.42,16.6zm53.73 10.67l-53.58 0c2.14,10.34 11.72,17.4 22.23,16.38 6.98,0.3 13.75,-2.4 18.6,-7.41l8.6 9.86c-7.04,7.68 -17.16,11.79 -27.57,11.19 -22.9,0 -37.72,-14.82 -37.72,-35.13 -0.55,-18.74 14.21,-34.37 32.94,-34.92 0.77,-0.02 1.56,-0.01 2.33,0.02 18.41,-0.74 33.93,13.59 34.65,32 0.05,1.12 0.03,2.23 -0.04,3.34 -0.14,1.19 -0.29,3.12 -0.44,4.67z"/>
   <path class="fil4" d="M3135.45 1236.53l0 39.2 -16.01 0 0 -37.06c0,-12.15 -5.63,-18.08 -15.34,-18.08 -9.71,0 -17.79,6.89 -17.79,20.53l0 34.68 -16 0 0 -37.05c0,-12.16 -5.64,-18.08 -15.42,-18.08 -9.78,0 -17.79,6.89 -17.79,20.52l0 34.69 -16 0 0 -68.41 15.26 0 0 8.75c5.62,-6.34 13.78,-9.82 22.24,-9.49 9.17,-0.61 17.97,3.74 23.04,11.42 6.39,-7.55 15.92,-11.71 25.8,-11.27 16.45,0 28.01,8.97 28.01,29.65z"/>
   <path class="fil0" d="M2829.38 2652.01l4.81 -0.45c4.8,-0.13 9.57,-0.57 14.31,-1.33 18.34,-2.41 35.99,-8.53 51.87,-18.01 67.52,-39.17 90.5,-125.64 51.34,-193.15 -20.06,-34.58 -53.81,-59.04 -92.91,-67.34 -12.51,-2.37 -25.23,-3.39 -37.94,-3.04l-491.65 0c-65.25,0.07 -121.9,44.98 -136.88,108.49 -3.34,14.73 -4.41,29.87 -3.18,44.92 1.49,14.74 5.16,29.17 10.89,42.83 11.51,26.5 30.85,48.85 55.43,64.03 5.9,3.65 12.05,6.89 18.38,9.71 12.63,5.18 25.89,8.66 39.43,10.38 6.74,0.59 13.34,0.96 20.08,0.96l218.4 0 203.14 0.59 55.21 0.37 14.37 0c3.2,0 4.9,0 4.9,0l-19.27 0 -55.21 0.37 -203.14 0.67 -218.4 0c-6.67,0 -13.63,-0.37 -20.45,-0.96 -6.9,-0.81 -13.73,-2.1 -20.45,-3.86 -6.79,-1.78 -13.45,-4.01 -19.94,-6.67 -6.54,-2.89 -12.89,-6.23 -18.97,-10 -25.21,-15.52 -45.08,-38.38 -56.92,-65.51 -5.89,-14.02 -9.67,-28.83 -11.19,-43.95 -1.31,-15.47 -0.21,-31.04 3.26,-46.17 7.31,-31.2 24.78,-59.1 49.65,-79.3 25.8,-20.67 57.82,-32.01 90.86,-32.16l491.35 0c12.94,-0.25 25.88,0.81 38.62,3.19 77.61,16.52 127.14,92.85 110.6,170.47 -2.26,10.65 -5.73,21.01 -10.34,30.88 -12.46,26.8 -32.94,49.04 -58.62,63.66 -15.91,9.32 -33.57,15.24 -51.88,17.42 -4.91,1.31 -9.91,2.31 -14.97,2.96l-4.59 0z"/>
   <path class="fil0" d="M2466.02 2529.51l4.15 -9.34c6.16,4.71 13.67,7.31 21.42,7.41 10.08,0 14.3,-3.56 14.3,-8.37 0,-14.01 -38.46,-4.82 -38.46,-28.91 0,-10.45 8.3,-19.34 26.08,-19.34 7.59,-0.1 15.06,1.9 21.57,5.78l-3.85 9.34c-5.41,-3.25 -11.56,-5 -17.86,-5.11 -9.94,0 -14.01,3.92 -14.01,8.82 0,13.78 38.39,4.81 38.39,28.6 0,10.3 -8.45,19.2 -26.16,19.2 -9.19,0.22 -18.18,-2.63 -25.57,-8.08z"/>
   <path class="fil0" d="M2558.21 2533.43c-3.23,2.32 -7.14,3.49 -11.12,3.34 -8.09,1.26 -15.66,-4.28 -16.92,-12.37 -0.22,-1.4 -0.23,-2.82 -0.05,-4.23l0 -23.79 -8.14 0 0 -9.26 8.14 0 0 -11.27 11.56 0 0 11.27 13.2 0 0 9.26 -13.2 0 0 23.49c0,4.82 2.38,7.41 6.83,7.41 2.34,0.07 4.64,-0.66 6.51,-2.07l3.19 8.22z"/>
   <path class="fil0" d="M2597.56 2520.91l0 -5.71 -12 0c-7.86,0 -9.93,2.97 -9.93,6.6 0,3.63 3.48,6.82 9.41,6.82 5.39,0.37 10.42,-2.73 12.52,-7.71zm11.56 -13.49l0 28.98 -10.96 0 0 -6c-3.7,4.7 -9.54,7.19 -15.49,6.59 -11.34,0 -18.46,-6.15 -18.46,-14.82 0,-8.67 5.56,-14.82 20.53,-14.82l12.82 0 0 -0.74c0,-6.75 -4.07,-10.75 -12.29,-10.75 -5.36,-0.02 -10.57,1.72 -14.82,4.97l-4.53 -8.45c6.13,-4.22 13.46,-6.34 20.9,-6.08 14,0.15 22.3,6.89 22.3,21.12z"/>
   <path class="fil0" d="M2652.48 2486.45l0 10.97c-0.88,-0.06 -1.78,-0.06 -2.66,0 -7.44,-0.56 -13.91,5.01 -14.48,12.43 -0.06,0.94 -0.03,1.89 0.09,2.83l0 24.01 -11.55 0 0 -49.43 11.03 0 0 7.42c3.96,-5.7 10.66,-8.84 17.57,-8.23z"/>
   <path class="fil0" d="M2693.76 2533.43c-3.21,2.3 -7.1,3.47 -11.05,3.34 -8.08,1.3 -15.69,-4.2 -16.98,-12.28 -0.23,-1.43 -0.25,-2.89 -0.06,-4.32l0 -23.79 -8.15 0 0 -9.26 8.15 0 0 -11.27 11.56 0 0 11.27 13.27 0 0 9.26 -13.27 0 0 23.49c0,4.82 2.44,7.41 6.82,7.41 2.35,0.07 4.65,-0.66 6.53,-2.07l3.18 8.22z"/>
   <path class="fil0" d="M1725.67 1551.34c7.41,40.76 -37.87,94.71 -76.26,87.3 -8.6,-47.28 45.65,-92.41 76.26,-87.3z"/>
   <path class="fil0" d="M1927.24 2151.48c9.13,-0.3 18.15,-2.21 26.61,-5.64 24.6,-10.28 41.32,-33.51 43.28,-60.1 0,-68.4 0,-167.26 -0.37,-289.02 0,-61.14 0,-127.99 0,-200.1 0,-17.93 0,-36.16 0,-54.76 0,-9.27 0,-18.68 0,-27.94 -1.24,-29.1 -20.55,-54.3 -48.32,-63.07 -9.38,-2.68 -19.16,-3.74 -28.9,-3.11l-555.6 0c-23.02,-0.03 -44.53,11.42 -57.36,30.53 -6.16,9.34 -10.03,20 -11.27,31.13 -0.81,11.04 0,22.75 -0.44,34.01l0 134.06c0,87.9 0,172.68 0,253.46 0,40.39 0,79.81 0,118.05l0 28.53c-0.23,9.16 1.22,18.28 4.3,26.91 6.27,16.93 18.86,30.77 35.13,38.61 7.88,3.75 16.4,5.97 25.12,6.52 8.6,0.52 17.49,0 26.09,0l146.88 0 289.03 0.67 78.7 0.37 27.42 0 -27.42 0 -78.7 0.37 -289.03 0.59 -146.88 0c-8.67,0 -17.27,0 -26.31,0 -28.5,-1.88 -53.23,-20.34 -63.14,-47.14 -3.24,-8.99 -4.78,-18.52 -4.52,-28.09 0,-9.48 0,-18.96 0,-28.52 0,-38.24 0,-77.67 0,-118.06 0,-80.78 0,-165.56 0,-253.45 0,-43.93 0,-88.61 0,-134.06l0 -17.12c0,-5.64 0,-11.34 0.44,-17.27 3.94,-37.06 35.22,-65.17 72.48,-65.14l555.6 0c9.99,-0.57 20.01,0.56 29.64,3.33 19.17,6.19 34.96,19.99 43.65,38.17 4.21,8.79 6.58,18.35 6.97,28.09 0,9.56 0,18.82 0,28.08 0,18.58 0,36.83 0,54.77 0,71.89 0,138.73 0,200.09 0,122.21 0,221 -0.89,289.4 -2.09,27.05 -19.32,50.59 -44.47,60.77 -6.39,2.53 -13.09,4.12 -19.93,4.74l-7.79 1.34z"/>
   <path class="fil0" d="M1687.43 1860.15c0.06,-38.32 25.92,-71.79 62.99,-81.52 -10.38,-14.82 -20.45,-27.56 -20.45,-34.75 0,-45.36 -37.87,-86.56 -84.64,-86.56 -46.91,1.39 -84.32,39.62 -84.7,86.56 0,12.45 -30.02,41.65 -39.73,68.32 -9.13,18.86 -13.92,39.53 -14,60.48 0,74.11 61.95,127.24 138.43,127.24 45.39,1.09 88.51,-19.77 115.84,-56.02 -42.16,-5.38 -73.75,-41.25 -73.74,-83.75z"/>
   <path class="fil5" d="M2849.46 2151.48c9.13,-0.29 18.14,-2.2 26.61,-5.64 10.24,-4.2 19.3,-10.82 26.45,-19.26 9.87,-11.44 15.77,-25.77 16.83,-40.84 0,-68.41 0,-167.26 0,-289.02 0,-61.14 0,-127.99 0,-200.1 0,-17.93 0,-36.19 0,-54.76 0,-9.27 0,-18.68 0,-27.94 -0.37,-9.31 -2.64,-18.44 -6.67,-26.83 -8.33,-17.28 -23.39,-30.38 -41.65,-36.24 -9.36,-2.68 -19.12,-3.74 -28.83,-3.11l-555.67 0c-35.26,0.02 -64.84,26.59 -68.63,61.66 -0.81,11.04 0,22.75 -0.37,34.01 0,45.36 0,90.04 0,134.06 0,87.9 0,172.68 0,253.46 0,40.39 0,79.81 0,118.05 0,9.56 0,19.05 0,28.53 -0.24,9.17 1.24,18.29 4.37,26.91 6.26,16.95 18.85,30.79 35.13,38.61 7.86,3.77 16.36,5.99 25.05,6.52 8.6,0.52 17.49,0 26.16,0l146.89 0 289.02 0.67 78.7 0.37 27.43 0 -27.43 0 -78.7 0.37 -289.02 0.59 -146.89 0c-8.75,0 -17.34,0 -26.38,0 -28.49,-1.88 -53.21,-20.34 -63.07,-47.14 -3.26,-8.99 -4.82,-18.52 -4.59,-28.09l0 -28.52c0,-38.24 0,-77.67 0,-118.06 0,-80.78 0,-165.56 0,-253.45l0 -151.18c0,-5.64 0,-11.34 0.37,-17.27 2.52,-24 16.8,-45.19 38.09,-56.55 10.27,-4.88 21.53,-7.37 32.9,-7.26l555.82 0c10.01,-0.56 20.02,0.56 29.65,3.33 29.16,9.2 49.4,35.71 50.61,66.26 0,9.56 0,18.82 0,28.09 0,18.58 0,36.83 0,54.76 0,71.89 0,138.73 0,200.1 0,122.2 0,220.99 -0.89,289.39 -2.48,34.69 -29.77,62.44 -64.4,65.52l-6.89 0z"/>
   <path class="fil0" d="M2521.82 1664.58c10.61,0 19.2,8.6 19.2,19.19 0,10.6 -8.59,19.2 -19.2,19.2 -10.59,0 -19.19,-8.6 -19.19,-19.2 0.08,-10.54 8.65,-19.04 19.19,-19.04l0 -0.15zm72.26 53.66c2.04,0 3.7,1.65 3.7,3.7 0,2.04 -1.66,3.7 -3.7,3.7l-53.06 0c-2.06,0 -3.71,-1.66 -3.71,-3.7 0,-2.05 1.65,-3.7 3.71,-3.7l53.06 0zm19.19 -53.51c10.61,0 19.2,8.59 19.2,19.19 0,10.6 -8.59,19.2 -19.2,19.2 -10.59,0 -19.19,-8.6 -19.19,-19.2 0.04,-10.58 8.61,-19.15 19.19,-19.19zm-45.72 122.35c54.08,0.05 105.2,-24.7 138.73,-67.14 0,-45.8 -28.97,-76.04 -64.18,-93.16 0,-6.67 0,-13.34 0,-20.01 0.19,-5.23 -3.91,-9.63 -9.15,-9.81 -5.24,-0.19 -9.63,3.91 -9.82,9.15 0,4.29 0,8.67 0,13.04 -17.87,-6.15 -36.61,-9.38 -55.51,-9.56 -19.27,0.05 -38.42,2.94 -56.84,8.6 0,-4.08 0,-8.08 0,-12.08 0.59,-5.01 -3,-9.53 -8,-10.11l-1.63 -0.05c-5.19,0 -8.53,2.45 -8.75,8.75 -0.22,6.3 -0.44,13.86 -0.52,20.75 -34.61,15.86 -62.77,45.21 -62.77,94.56 33.46,42.36 84.46,67.06 138.44,67.07z"/>
   <path class="fil0" d="M2567.55 1808.28c-53.15,0.05 -103.48,-23.85 -137.03,-65.07 0,1.41 0,2.82 0,4.3 0,132.36 61.36,239.67 137.1,239.67 75.74,0 137.1,-107.31 137.1,-239.67 0,-1.48 0,-2.89 0,-4.3 -33.57,41.28 -83.97,65.19 -137.17,65.07z"/>
   <path class="fil5" d="M3771.67 2151.48c9.14,-0.28 18.15,-2.2 26.61,-5.64 24.63,-10.23 41.39,-33.49 43.28,-60.1 0,-68.4 0,-167.26 0,-289.02 0,-61.14 0,-127.99 0,-200.1l0 -54.76c0,-9.27 0,-18.68 0,-27.94 -1.15,-29.13 -20.5,-54.39 -48.31,-63.07 -9.36,-2.69 -19.12,-3.74 -28.84,-3.11l-555.59 0c-35.3,-0.02 -64.92,26.57 -68.7,61.66 -0.75,11.04 0,22.75 -0.37,34.01l0 134.06c0,87.9 0,172.68 0,253.46 0,40.39 0,79.81 0,118.05l0 28.53c-0.27,9.17 1.18,18.29 4.29,26.91 6.27,16.93 18.86,30.77 35.13,38.61 7.86,3.75 16.36,5.97 25.05,6.52 8.67,0.52 17.56,0 26.16,0l146.89 0 289.39 0.67 78.63 0.37 20.46 0c4.67,0 6.96,0 6.96,0 0,0 -2.29,0 -6.96,0l-20.46 0 -78.63 0.37 -289.39 0.59 -146.89 0c-8.74,0 -17.33,0 -26.3,0 -28.52,-1.85 -53.27,-20.32 -63.15,-47.13 -3.22,-9.01 -4.78,-18.53 -4.59,-28.09l0 -28.53c0,-38.24 0,-77.67 0,-118.06 0,-80.78 0,-165.56 0,-253.45 0,-43.93 0,-88.61 0,-134.06l0 -17.12c0,-5.64 0,-11.34 0.44,-17.27 2.54,-23.98 16.77,-45.15 38.02,-56.55 10.64,-5.57 22.45,-8.52 34.46,-8.59l555.6 0c9.99,-0.57 20.02,0.56 29.64,3.33 29.09,9.29 49.3,35.74 50.62,66.26 0,9.56 0,18.82 0,28.08l0 54.77c0,71.89 0,138.73 0,200.09 0,122.21 0,221 -0.82,289.4 -2.54,34.65 -29.79,62.38 -64.4,65.51l-8.23 1.34z"/>
   <polygon class="fil0" points="3501.77,1664.73 3652.51,1664.73 3652.51,1933.97 3501.77,1933.97 "/>
   <polygon class="fil0" points="3328.8,1664.73 3479.54,1664.73 3479.54,1933.97 3328.8,1933.97 "/>
   <polygon class="fil4" points="3013.98,2629.63 2942.76,2588.28 2871.62,2547 2871.17,2711.59 2919.86,2683.65 2961.74,2756.65 3007.24,2730.56 2965.29,2657.57 "/>
   <path class="fil3" d="M938.93 850.05c21.23,0 38.46,17.21 38.46,38.46 0,21.24 -17.23,38.46 -38.46,38.46 -21.25,0 -38.47,-17.22 -38.47,-38.46 0,-21.25 17.22,-38.46 38.47,-38.46z"/>
   <path class="fil3" d="M1098.11 888.21c0.04,21.24 -17.14,38.5 -38.39,38.54 -21.24,0.04 -38.49,-17.15 -38.53,-38.39 -0.05,-21.25 17.14,-38.5 38.38,-38.54l0.08 0c21.22,0 38.42,17.18 38.46,38.39z"/>
   <path class="fil3" d="M1180.37 850.05c21.24,0 38.47,17.21 38.47,38.46 0,21.24 -17.23,38.46 -38.47,38.46 -21.24,0 -38.46,-17.22 -38.46,-38.46 0,-21.25 17.22,-38.46 38.46,-38.46z"/>
   <path class="fil4" d="M4312.52 2837.28c0,-12.08 -0.51,-797.04 -1.48,-2061.64l1.48 1.48 -3510.77 0.45 1.93 -1.93c0,729.98 0,1427.05 0,2061.64l-1.78 -1.78 3510.99 1.78 -3510.99 1.78 -1.86 0 0 -1.78c0,-634.59 0,-1331.66 0,-2061.64l0 -1.93 2.15 0 3510.79 0.45 1.47 0 0 1.48c-1.33,1264.75 -1.93,2049.71 -1.93,2061.64z"/>
   <polygon class="fil4" points="4076.25,3232.97 4746.07,3232.97 4746.07,3325.01 4076.25,3325.01 "/>
   <path class="fil4" d="M4077.44 3323.45l667.52 0 0 -89.75 -667.52 0 0 89.75zm-2.29 -91.58l672.1 0 0 94.23 -672.1 0 0 -94.23z"/>
   <polygon class="fil4" points="4138.43,3294.33 4234.79,3769.99 4591.57,3769.99 4684.79,3325.01 "/>
   <polygon class="fil6" points="4138.43,3725.02 4189.81,3795.72 4623.44,3795.72 4684.79,3725.02 "/>
   <path class="fil4" d="M4386.06 3308.25c-1.36,0 -3.02,-220.34 -3.75,-492.15 -0.73,-271.8 0,-492.14 1.01,-492.14 1.01,0 2.94,220.25 3.75,492.14 0.83,271.9 0.28,492.15 -1.01,492.15z"/>
   <path class="fil4" d="M4535.25 2756.76c-0.37,1.79 -0.98,3.52 -1.84,5.13 -1.55,3.75 -3.47,8.52 -5.95,14.28l-4.39 10.26 -4.39 12.55 -5.23 14.37c-1.74,5.04 -3.2,10.63 -4.94,16.3 -7.85,27.06 -13.97,54.59 -18.32,82.43 -5.19,33.99 -8.68,68.22 -10.43,102.57 -2.44,62.47 -0.67,125.04 5.31,187.27 2.19,23.91 4.3,43.23 5.95,56.6 0.66,6.1 1.22,11.24 1.64,15.38 0.25,1.8 0.25,3.61 0,5.41 -0.62,-1.69 -1.02,-3.44 -1.19,-5.22 -0.64,-4.03 -1.56,-9.16 -2.55,-15.3 -2.21,-13.27 -4.87,-32.6 -7.43,-56.5 -7.02,-62.38 -9.29,-125.2 -6.78,-187.92 1.71,-34.51 5.29,-68.9 10.73,-103.03 4.72,-27.89 11.36,-55.43 19.87,-82.42 1.82,-5.67 3.38,-11.26 5.31,-16.3 1.92,-5.03 3.85,-9.8 5.58,-14.29 1.74,-4.48 3.3,-8.6 4.77,-12.45 1.46,-3.85 3.39,-7.14 4.84,-10.16l6.78 -13.92c0.71,-1.77 1.6,-3.46 2.66,-5.04z"/>
   <path class="fil4" d="M4518.12 2578.55c-0.46,2.51 -1.16,4.95 -2.11,7.32l-6.96 20.43c-1.55,4.48 -3.29,9.15 -5.12,14.83l-5.41 17.77c-3.93,12.73 -8.42,27.47 -12.54,43.5 -2.11,8.15 -4.31,16.66 -6.69,25.55 -2.38,8.88 -4.11,18.31 -6.23,27.47 -4.75,19.14 -8.05,40.02 -12.45,61.73 -7.33,43.77 -13.83,92.22 -18.32,143.22 -4.48,51.01 -6.03,99.92 -6.77,144.24 -0.74,44.32 0.46,84.44 2.29,117.96 0.64,16.85 1.64,31.96 2.57,45.78 0.91,13.83 1.56,24.73 2.46,34.16 0.92,9.44 1.19,16.21 1.56,21.52 0.25,2.53 0.25,5.08 0,7.6 -0.61,-2.46 -1,-4.98 -1.19,-7.5 -0.64,-5.31 -1.47,-12.46 -2.56,-21.53 -1.1,-9.06 -2.2,-20.78 -3.21,-34.06 -1.01,-13.28 -2.47,-28.48 -3.3,-45.33 -2.2,-33.52 -3.11,-73.27 -3.28,-118.14 -0.2,-44.87 2.19,-93.41 6.4,-144.6 4.21,-51.2 11.18,-99.73 18.31,-143.6 4.49,-21.79 7.97,-42.67 12.82,-61.91l6.6 -27.47c2.48,-9.16 4.77,-17.4 7.06,-25.46 4.2,-16.3 9.16,-30.77 13.18,-43.5 2.1,-6.32 4.03,-12.27 5.77,-17.67 1.74,-5.41 3.84,-10.26 5.58,-14.66 3.21,-8.51 5.86,-15.2 7.79,-20.24 1.03,-2.57 2.29,-5.06 3.75,-7.41z"/>
   <path class="fil4" d="M4343.66 3347.26c-0.09,-0.85 -0.09,-1.71 0,-2.56 0,-2.02 0,-4.49 -0.64,-7.61 0,-7.05 -1.1,-16.85 -1.92,-29.21 -1.65,-25.73 -3.94,-62.27 -6.77,-107.33 -5.78,-90.57 -14.2,-215.76 -29.5,-353.49 -7.78,-68.78 -16.75,-134.17 -26.18,-193.42 -4.94,-29.58 -9.16,-57.79 -14.66,-83.98 -5.5,-26.19 -9.79,-50.55 -14.47,-72.8 -4.67,-22.25 -9.16,-42.13 -13.28,-59.8 -4.12,-17.68 -7.59,-32.6 -10.71,-44.97 -3.12,-12.36 -5.32,-21.52 -6.96,-28.39 -0.74,-3.02 -1.29,-5.49 -1.74,-7.41 -0.14,-0.86 -0.14,-1.73 0,-2.57 0.38,0.78 0.66,1.61 0.82,2.47 0.65,1.93 1.28,4.31 2.21,7.33 1.92,6.78 4.48,16.21 7.77,28.12 3.31,11.9 7.52,27.47 11.63,44.87 4.12,17.4 9.16,37.46 13.92,59.71 4.77,22.25 10.18,46.43 15.12,72.7 4.95,26.29 9.99,54.41 15.1,83.99 9.16,59.34 18.32,124.73 26.56,193.69 15.3,137.37 23.18,263.1 28.13,353.77 2.46,45.33 4.21,82.42 5.21,107.42 0,12.45 0.82,22.16 1.1,29.21 0,3.12 0,5.68 0,7.6 -0.14,0.91 -0.39,1.81 -0.74,2.66z"/>
   <path class="fil0" d="M4380.57 2429.91c-2.93,-31.22 -34.43,-54.94 -65.75,-54.94 -31.32,0 -60.62,18.31 -79.77,43.31 -18.1,25.7 -31.15,54.6 -38.45,85.17 -21.07,73.26 -32.61,150.83 -23.63,226.84 8.96,76.01 39.92,150.74 94.41,204.5 9.16,8.7 20.33,17.4 32.51,14.83 6.54,-1.98 12.44,-5.65 17.12,-10.62 108.07,-98.82 168.15,-239.52 164.85,-385.91 -0.83,-28.94 -4.67,-58.98 -20.61,-83.06 -15.93,-24.09 -53.3,-49.64 -80.59,-39.93l-0.09 -0.19z"/>
   <path class="fil0" d="M4146.5 2179.81c-14.72,26.62 -29.43,53.27 -44.15,79.95 -1.1,1.93 -2.47,4.03 -4.58,4.12 -2.1,0.09 -4.02,-1.92 -5.31,-3.94l-116.76 -179.12 26.92 -15.3 143.88 114.29z"/>
   <path class="fil7" d="M4097.64 2263.88c-2.05,0 -3.92,-1.97 -5.18,-3.94l-116.76 -179.12 26.92 -15.3 143.88 114.29c-14.72,26.62 -29.43,53.27 -44.15,79.95 -1.1,1.93 -2.47,4.03 -4.58,4.12 -0.04,0 -0.09,0 -0.13,0z"/>
   <path class="fil0" d="M4383.32 2323.96l-398.28 -234.99c-4.34,-1.95 -7.8,-5.44 -9.71,-9.8 -0.48,-6.17 2.17,-12.15 7.06,-15.94 55.42,-57.47 133.1,-88 212.82,-83.61 79.92,5.71 151.86,50.46 192.32,119.6 38.46,68.69 39.74,159.53 -4.3,224.74l0.09 0z"/>
   <path class="fil4" d="M4042.47 2013.87c1.69,-0.49 3.44,-0.74 5.21,-0.73 3.39,0 8.53,-0.73 15.02,-0.64 18.42,-0.3 36.81,1.17 54.95,4.39 27.17,4.54 53.64,12.57 78.75,23.91 87.98,39.48 153.65,116.25 179.04,209.25 4.99,17.97 8.3,36.37 9.89,54.95 0.45,3.87 0.62,7.75 0.56,11.63 -0.24,3.25 -1.27,6.4 -3.03,9.16 1.19,-6.65 1.41,-13.43 0.64,-20.15 -2.33,-18.21 -6.11,-36.23 -11.26,-53.85 -33.93,-119.55 -132.94,-209.38 -255.23,-231.51 -18.13,-3.42 -36.51,-5.38 -54.95,-5.86 -12.36,-0.55 -19.59,-0.09 -19.59,-0.55z"/>
   <path class="fil4" d="M4329.39 2161.77c-6.38,3.77 -13.14,6.84 -20.16,9.16 -12.63,4.94 -30.4,11.36 -50.28,17.67 -19.87,6.32 -38,11.27 -51.19,14.57 -7.05,2.18 -14.33,3.58 -21.7,4.12 6.65,-3.21 13.61,-5.7 20.79,-7.42l50.73 -15.84 50.55 -16.3c6.84,-2.75 13.98,-4.75 21.26,-5.96z"/>
   <path class="fil4" d="M4266.65 1993.27c5.57,29.35 6.35,59.4 2.29,89.01 -1.96,-14.72 -2.73,-29.58 -2.29,-44.41 -1.16,-14.85 -1.16,-29.76 0,-44.6z"/>
   <path class="fil4" d="M3981.56 2084.48c9.33,-4.22 19.01,-7.63 28.94,-10.17 18.32,-5.58 43.32,-12.63 71.34,-19.41 28.02,-6.78 53.75,-12 72.44,-15.2 9.99,-2.26 20.17,-3.65 30.4,-4.12 -9.73,3.16 -19.69,5.63 -29.76,7.41 -18.32,4.13 -43.87,9.8 -71.89,16.58 -28.01,6.78 -53.3,13.28 -71.61,18.32 -9.79,2.9 -19.76,5.11 -29.86,6.59z"/>
   <path class="fil0" d="M4215.28 2361.87c-34.26,-26.01 -70.43,-31.14 -113.39,-29.4 -43.02,2.87 -85.14,13.73 -124.17,32.06 -67.13,29.39 -130.23,72.71 -170.33,134.07 -40.12,61.36 -54.14,142.59 -24.1,209.44 2.35,7.02 7.22,12.92 13.65,16.58 7.44,2.11 15.41,1.5 22.43,-1.74 76.38,-24.91 153.31,-50.1 223.55,-89.11 70.24,-39.01 134.16,-93.23 171.8,-164.2 9.82,-16.86 16.05,-35.57 18.32,-54.95 2.11,-19.44 -4.31,-38.85 -17.59,-53.21l-0.17 0.46z"/>
   <path class="fil4" d="M4216 2354.09c-1.76,0.91 -3.59,1.65 -5.49,2.2l-16.03 5.49 -11.62 3.94c-4.13,1.46 -8.62,3.39 -13.47,5.22 -9.71,3.94 -20.87,7.78 -32.69,13.55l-18.31 8.52c-6.5,3.02 -13.01,6.68 -19.88,10.16 -13.83,6.87 -27.47,15.57 -42.76,24.36 -64.01,39.66 -120.93,89.74 -168.43,148.18 -10.71,13.74 -21.06,26.46 -29.57,39.38 -4.31,6.32 -9.15,12.27 -12.63,18.31l-10.82 17.4c-7.23,10.99 -12.54,21.71 -17.67,30.77l-6.96 12.73 -5.22 10.99 -7.51 15.2c-0.85,1.79 -1.83,3.49 -2.92,5.13 0.45,-1.89 1.14,-3.73 2,-5.49l6.69 -15.57 4.94 -11.26c1.93,-4.03 4.31,-8.34 6.69,-13.01 4.86,-9.16 9.98,-20.05 17.03,-31.14l10.62 -17.76c3.76,-6.14 8.16,-12.18 12.46,-18.32 8.42,-13 18.77,-26.01 29.4,-39.83 47.31,-59.19 104.51,-109.75 169.05,-149.46 15.12,-9.16 29.31,-17.4 43.33,-24.09 6.86,-3.48 13.45,-7.05 20.04,-9.98l18.96 -8.33c11.9,-5.5 23.26,-9.16 33.06,-12.91 4.95,-1.75 9.16,-3.58 13.74,-4.95l11.81 -3.48 16.3 -4.67c1.9,-0.67 3.87,-1.1 5.86,-1.28z"/>
   <path class="fil4" d="M3958.58 2499.24c-58.49,19.42 -117.95,35.81 -178.13,49.09 28.96,-10.51 58.47,-19.46 88.39,-26.84 29.49,-8.96 59.46,-16.39 89.74,-22.25z"/>
   <path class="fil4" d="M3944.93 2677.27c-1.44,-8.29 -2.05,-16.7 -1.83,-25.09 0,-15.57 0,-37.09 0,-60.81 0,-23.72 2.02,-45.15 3.39,-60.72 0.22,-8.42 1.3,-16.79 3.21,-25 0.83,8.37 0.83,16.8 0,25.18 0,17.04 -1.2,37.74 -1.93,60.63 -0.73,22.89 -1.09,43.68 -1.56,60.72 0.41,8.38 -0.02,16.78 -1.28,25.09z"/>
   <path class="fil4" d="M4104.09 2594.21c-5.24,-31.43 -8.72,-63.15 -10.44,-94.97 -3.48,-31.53 -5.19,-63.24 -5.12,-94.97 5.14,31.45 8.54,63.16 10.16,94.97 3.57,31.52 5.37,63.24 5.4,94.97z"/>
   <path class="fil4" d="M3914.63 2398.5c8.67,-0.75 17.39,-0.92 26.09,-0.55 16.21,0 38.46,0.46 63,1.01 24.55,0.55 46.8,1.19 62.92,1.92 8.72,0.02 17.44,0.6 26.1,1.74 -8.71,0.64 -17.46,0.81 -26.19,0.55 -16.11,0 -38.37,0 -63,-1 -24.65,-1.01 -46.81,-1.29 -62.93,-1.93 -8.69,-0.01 -17.38,-0.59 -25.99,-1.74z"/>
   <path class="fil4" d="M4284.41 2945.04c-0.3,-1.75 -0.48,-3.53 -0.55,-5.31 0,-4.03 0,-9.15 -0.63,-15.29 -0.65,-13.37 -0.74,-32.6 0,-56.41 0.73,-23.81 2.1,-52.2 4.95,-83.52 2.83,-31.32 7.59,-65.76 14,-101.56 6.41,-35.81 14.47,-69.6 22.63,-100.1 8.14,-30.5 16.84,-57.6 24.9,-80.04 8.06,-22.44 14.83,-40.57 20.05,-52.84 2.48,-5.77 4.49,-10.44 6.05,-14.19 0.59,-1.7 1.43,-3.3 2.47,-4.77 -0.35,1.75 -0.87,3.48 -1.55,5.13 -1.38,3.76 -3.12,8.52 -5.23,14.47 -4.67,12.46 -11.17,30.59 -18.31,53.21 -7.15,22.62 -15.75,49.73 -23.8,80.13 -8.07,30.4 -15.66,64.11 -22.27,99.82 -6.59,35.72 -10.99,69.88 -14.28,100.74 -3.3,30.86 -5.13,59.52 -5.96,83.24 -0.82,23.72 -1.28,42.95 -1.28,56.23 0,6.23 0,11.36 0,15.39 -0.09,1.95 -0.48,3.86 -1.19,5.67z"/>
   <path class="fil4" d="M4305.48 2684.32c-4.67,6.36 -10.01,12.2 -15.94,17.4 -10.26,10.26 -24.91,24.08 -41.58,38.74 -16.66,14.65 -32.32,27.47 -43.86,36.63 -5.94,5.17 -12.41,9.7 -19.32,13.46 5.19,-5.91 10.95,-11.27 17.21,-16.03l43.23 -37.18 42.4 -37.64c5.45,-5.67 11.43,-10.83 17.86,-15.38z"/>
   <path class="fil4" d="M4431.49 2785.88c-6.21,-7.37 -11.84,-15.21 -16.85,-23.44l-39.38 -57.42 -40.21 -56.87c-5.96,-7.62 -11.35,-15.67 -16.11,-24.09 6.95,6.76 13.26,14.16 18.87,22.07 10.98,14.01 25.82,33.79 41.39,56.14 15.57,22.35 28.93,43.04 38.18,58.34 5.48,7.96 10.2,16.43 14.11,25.27z"/>
   <path class="fil4" d="M4365.46 2466.55c0.73,1.09 -41.12,29.3 -93.5,62.91 -52.39,33.61 -95.34,60.08 -96.07,58.98 -0.73,-1.1 41.12,-29.31 93.5,-63.01 52.4,-33.7 95.34,-59.98 96.07,-58.88z"/>
   <path class="fil4" d="M4483.32 2593.93c-22.2,-18.31 -43.35,-37.85 -63.37,-58.52 -21.11,-19.52 -41.15,-40.18 -59.99,-61.9 22.16,18.32 43.29,37.85 63.29,58.52 21.13,19.53 41.19,40.2 60.07,61.9z"/>
   <path class="fil0" d="M4513.27 2591.37l35.9 -2.93c25.53,-2.11 50.29,-9.7 72.62,-22.26 10.87,-6.41 22.15,-12.07 33.79,-16.94 44.51,-17.86 94.05,-14.65 141.86,-17.12 78.32,-3.92 155.06,-23.54 225.66,-57.7 4.18,-1.92 7.64,-5.13 9.88,-9.16 7.33,-13.46 -6.32,-25.45 -18.32,-32.69 -60.62,-37.36 -122.26,-75.09 -190.94,-93.68 -68.69,-18.6 -146.53,-15.39 -205.23,25 -68.77,47.34 -93.77,144.51 -105.41,227.2l0.19 0.28z"/>
   <path class="fil4" d="M5033.81 2461.14c-2.13,-0.77 -4.18,-1.72 -6.13,-2.84l-17.05 -9.15c-14.74,-7.79 -36.08,-19.24 -62.91,-32.15 -31.32,-15.35 -63.92,-27.9 -97.44,-37.55 -40.97,-11.7 -83.88,-15.15 -126.2,-10.16 -42.42,4.69 -82.47,21.87 -115.11,49.36 -25.49,23.73 -45.9,52.39 -59.99,84.25 -12.54,26.93 -20.33,49.82 -26.01,65.48l-6.41 18.32c-0.59,2.17 -1.45,4.26 -2.56,6.22 0.42,-2.19 0.96,-4.36 1.65,-6.5l5.49 -18.31c6.99,-22.6 15.27,-44.77 24.82,-66.4 13.86,-32.53 34.32,-61.85 60.09,-86.08 33.17,-28.3 74.06,-46 117.39,-50.83 43.02,-5.09 86.63,-1.45 128.21,10.72 33.7,9.88 66.4,22.85 97.72,38.73 26.74,13.38 47.8,25.28 62.36,33.52l16.58 9.72c1.93,1.05 3.77,2.28 5.5,3.65z"/>
   <path class="fil4" d="M4947.44 2507.48c-0.73,1.1 -47.71,-29.3 -105.04,-67.95 -57.33,-38.65 -102.66,-70.79 -102.66,-71.8 0,-1.01 47.72,29.31 105.04,67.86 57.33,38.56 103.4,70.79 102.66,71.89z"/>
   <path class="fil4" d="M4897.26 2365.17c-10.98,3.87 -22.52,5.98 -34.16,6.22 -11.62,1.55 -23.41,1.4 -34.97,-0.45 11.39,-2.07 22.93,-3.27 34.51,-3.57 11.47,-1.61 23.04,-2.34 34.62,-2.2z"/>
   <path class="fil4" d="M4691.49 2338.43c-3.84,8.79 -9.04,16.9 -15.39,24.08 -5.44,8.3 -12.04,15.76 -19.6,22.17 3.86,-8.8 9.09,-16.92 15.47,-24.09 5.39,-8.31 11.95,-15.77 19.52,-22.16z"/>
   <path class="fil4" d="M4733.61 2535.14c-7.95,-3.23 -15.54,-7.33 -22.62,-12.18 -13.56,-8.24 -31.96,-20.33 -51.55,-34.62 -19.61,-14.28 -36.63,-27.47 -49.28,-37.55 -7.03,-4.98 -13.59,-10.58 -19.6,-16.76 7.63,4.02 14.86,8.74 21.61,14.11l50.1 36.63c19.5,14.19 37.45,26.65 50.55,35.62 7.33,4.33 14.27,9.26 20.79,14.75z"/>
   <path class="fil0" d="M4566.2 2744.12c-34.34,-9.16 -75.18,24.27 -82.42,59.07 -7.23,34.8 5.95,70.24 21.25,102.29 32.61,71.75 81.08,135.15 141.76,185.45 61.36,48.9 138.28,80.22 216.77,79.86 -14.47,-67.31 3.84,-137.37 -4.22,-206.06 -14.68,-124.1 -113.13,-221.61 -237.37,-235.08 -21.89,-2.29 -47.24,-5.77 -55.95,14.47l0.18 0z"/>
   <path class="fil4" d="M4863.74 3170.79c-1.69,-0.6 -3.32,-1.36 -4.85,-2.29 -4.54,-2.46 -8.83,-5.34 -12.82,-8.61 -14.43,-12.47 -25.98,-27.89 -33.89,-45.24 -5.49,-10.62 -11.53,-22.16 -17.58,-34.98l-18.32 -40.76c-6.62,-15 -14.21,-29.56 -22.71,-43.59 -9.28,-14.91 -19.69,-29.08 -31.13,-42.4 -23.45,-27.47 -48.63,-51.37 -70.52,-74.18 -19.72,-19.8 -37.7,-41.24 -53.76,-64.1 -10.71,-15.63 -19.54,-32.48 -26.28,-50.19 -2.2,-6.32 -3.76,-11.26 -4.58,-14.74 -0.56,-1.7 -0.9,-3.44 -1.01,-5.22 0.47,0 2.38,6.96 7.34,19.23 7.32,17.29 16.54,33.72 27.47,48.99 16.28,22.54 34.38,43.7 54.12,63.28 21.88,22.53 47.25,46.34 70.97,74.18 11.63,13.52 22.16,27.94 31.5,43.14 8.51,14.21 16.09,28.96 22.71,44.14l18.32 40.93c5.68,12.73 11.63,24.36 16.94,35.07 7.41,17.32 18.33,32.9 32.05,45.79 9.53,7.88 16.3,11.09 16.03,11.55z"/>
   <path class="fil4" d="M4686.44 3114.83c0.15,-7.78 1.2,-15.52 3.12,-23.08 2.74,-14.1 7.14,-33.51 13.09,-54.94 5.96,-21.43 12.28,-39.93 17.4,-53.39 2.21,-7.45 5.29,-14.61 9.16,-21.34 -1.35,7.66 -3.42,15.17 -6.23,22.44 -4.21,13.73 -9.98,32.6 -15.93,53.66 -5.95,21.06 -10.81,40.11 -14.37,54.03 -1.39,7.71 -3.47,15.29 -6.24,22.62z"/>
   <path class="fil4" d="M4857.24 2949.53c-8.2,-1.12 -16.3,-2.96 -24.17,-5.49 -14.75,-3.85 -35.18,-9.16 -57.89,-14.29 -22.71,-5.13 -43.4,-9.16 -58.33,-11.9 -8.22,-1.1 -16.34,-2.87 -24.27,-5.31 8.31,-0.24 16.64,0.4 24.82,1.92 15.11,2.01 36.08,5.49 58.88,10.62 22.81,5.13 43.14,10.99 57.79,15.66 7.99,2.15 15.76,5.1 23.17,8.79z"/>
   <path class="fil4" d="M4559.24 2997.61c0.32,-9.01 1.55,-17.98 3.67,-26.74 3.02,-16.39 7.87,-38.83 14.28,-63.46 6.41,-24.64 13.19,-46.53 18.31,-62.28 2.42,-8.71 5.7,-17.13 9.8,-25.18 -1.5,8.89 -3.71,17.65 -6.59,26.19 -4.58,15.94 -10.81,38.01 -17.22,62.46 -6.41,24.45 -11.71,46.79 -15.56,63 -1.56,8.83 -3.8,17.52 -6.69,26.01z"/>
   <path class="fil4" d="M4778.57 2805.57c0,1.28 -42.95,-2.2 -95.61,-7.78 -52.65,-5.59 -95.23,-11.18 -95.06,-12.46 0.2,-1.28 42.96,2.2 95.62,7.69 31.88,2.55 63.6,6.73 95.05,12.55z"/>
   <path class="fil6" d="M4747.25 3324.64c0,1.28 -150.46,2.38 -336,2.38 -185.54,0 -336.1,-1.1 -336.1,-2.38 0,-1.28 150.48,-2.47 336.1,-2.47 185.64,0 336,1.28 336,2.47z"/>
   <path class="fil6" d="M4642.58 3518.24c0,1.28 -101.38,2.38 -226.39,2.38 -124.99,0 -226.46,-1.1 -226.46,-2.38 0,-1.29 101.28,-2.47 226.46,-2.47 125.19,0 226.39,1.09 226.39,2.47z"/>
   <path class="fil6" d="M4639 3545.89c0,1.29 -99.63,2.38 -222.44,2.38 -122.81,0 -222.54,-1.09 -222.54,-2.38 0,-1.28 99.64,-2.38 222.54,-2.38 122.9,0 222.44,1.1 222.44,2.38z"/>
   <path class="fil6" d="M4646.51 3495.43c0,1.29 -104.85,2.38 -234.16,2.38 -129.31,0 -234.17,-1.09 -234.17,-2.38 0,-1.28 104.77,-2.38 234.17,-2.38 129.4,0 234.16,1.01 234.16,2.38z"/>
   <path class="fil8" d="M1626.51 2750.87c0,0 77.07,-57.28 90.49,-59.73 13.41,-2.45 115.83,10.45 121.98,16.6 6.15,6.15 101.23,77.81 82.86,83.96 -18.38,6.16 -84.12,-44.83 -84.12,-44.83l-12.3 0c0,0 57.66,42.46 66.7,56.99 8.52,13.27 -3.34,26.01 -14.23,18.9 -10.9,-7.12 -60.03,-45.88 -64.4,-45.36 -4.38,0.52 51.87,45.43 56.39,52.92 6.3,10 -1.11,26.6 -12.15,19.93 -6.52,-4 -57.66,-49.73 -57.66,-49.73 0,0 37.5,42.25 39.73,48.54 3.55,10.38 -7.41,17.64 -16.31,10.16 -6.15,-5.12 -31.05,-37.95 -39.35,-44.84 0,0 -9.93,-2.15 -26.97,11.41 -17.05,13.57 -97.01,28.83 -97.01,28.83l-33.65 -103.75z"/>
   <path class="fil9" d="M1921.46 2791.85c-7.47,0.02 -14.87,-1.51 -21.71,-4.52 -7.71,-2.72 -15.15,-6.14 -22.23,-10.22 -7.41,-5.04 -15.57,-10.75 -24.09,-16.75l-17.93 -12.9 1.18 0.52c-30.46,-4.15 -52.39,-7.93 -52.24,-9.19 0.14,-1.26 22.23,0.52 52.91,3.93l0.67 0 0.59 0.44 17.93 12.6 23.65 16.9c6.61,4.2 13.55,7.87 20.75,10.97 12.6,5.33 20.75,7.41 20.52,8.22z"/>
   <g>
    <path class="fil0" d="M1431.24 2295.37c0,0 113.52,28.06 132.54,262.11 11.18,136.89 24.4,276.43 24.4,276.43l249.65 58.93 43.92 136.47 -327.01 64.31c-90.49,0 -189.94,-78.12 -187.64,-168.62l-3.84 -314.9 67.98 -314.73z"/>
    <path class="fil0" d="M831.63 2297.33l-50.66 351.58c-7.32,50.84 -3.68,102.67 10.66,151.99l62.52 214.25c0,0 -84.86,108.75 -14.84,150.8 13.82,8.53 389.1,25.59 389.1,25.59l181.93 -12.54 24.31 -520.72 -3.41 -362.65c0,0 -126.32,-45.98 -175.79,-51.18 -91.88,-5.99 -184.07,-5.23 -275.83,2.31l-147.99 50.57z"/>
    <path class="fil3" d="M1412.99 2654.79c-4.4,-0.98 -8.94,-1.16 -13.4,-0.51 -18.08,0.08 -34.4,-10.82 -41.28,-27.55 -2.23,8.8 -6.24,17.03 -11.77,24.22 -5.74,7.29 -15.28,10.41 -24.22,7.94 -9.13,-3.5 -13.39,-13.65 -20.04,-20.64 -15.06,-13.41 -38.14,-12.07 -51.54,2.98 -2.61,2.94 -4.74,6.28 -6.29,9.9 -3.41,10.15 -5.55,24.9 -16.29,24.73 -12.29,0 -12.11,-19.96 -21.67,-27.64 -9.55,-7.67 -24.13,0 -32.49,9.64 -8.36,9.64 -17.06,21.07 -29.69,20.82 -12.62,-0.26 -20.38,-11.35 -23.79,-22.52 -3.41,-11.17 -3.41,-23.2 -7.51,-34.12 -4.09,-10.92 -14.33,-21.15 -25.58,-19.36 -14.33,2.22 -19.62,19.45 -23.37,33.35 -3.76,13.9 -14.16,30.46 -28.15,26.87 -20.04,-5.12 -11.94,-40.6 -29.6,-51.18 -12.45,-7.5 -28.74,3.24 -35.4,16.21 -6.65,12.96 -8.52,28.31 -16.29,40.51 -7.76,12.2 -27.8,18.42 -36.33,7.34 -3.15,-3.84 -4.44,-9.13 -7.85,-12.71 -7.42,-5.81 -17.72,-6.22 -25.58,-1.03 -8.53,4.45 -15.02,11.43 -23.55,15.1 -8.52,3.67 -27.72,0 -31.98,-8.53l-25.59 45.29c-4.18,9.47 -15.43,21.24 -8.53,25.16 6.33,3.25 14.09,0.75 17.34,-5.58l0.75 -1.75c10.15,5.88 22.9,4.8 31.89,-2.74 6.15,-5.79 11.95,-15.43 20.05,-13.21 4.18,1.11 6.82,5.11 9.72,8.53 11.06,11.28 28.68,12.84 41.54,3.66 6.11,-5.65 11.8,-11.72 17.06,-18.16 5.41,-6.48 14.12,-9.18 22.26,-6.91 9.04,3.84 10.92,15.86 10.06,25.59 -0.85,9.72 -2.9,20.64 2.48,28.83 7.08,10.74 23.45,10.91 34.71,4.6 10.42,-7.28 19.86,-15.88 28.06,-25.59 9.21,-8.95 21.58,-17.06 34.12,-14.16 14.67,2.99 25.59,19.36 40.68,17.58 10.32,-1.29 18.17,-11.01 28.58,-11.6 10.4,-0.6 20.21,10.15 31.21,13.56 13.34,4.17 26.01,-2.87 38.9,-9.9 11.1,-6.05 22.37,-12.11 34.37,-11 23.71,2.22 42.64,31.9 65.16,23.63 19.71,-7.25 19.88,-37.19 37.19,-49.05 10.41,-7.26 24.31,-5.97 36.93,-4.43 12.62,1.53 26.53,2.73 36.93,-4.52 10.41,-7.25 10.15,-27.38 -2.21,-31.65z"/>
    <path class="fil3" d="M1432.43 2634.15c-3.31,-7.09 -0.25,-15.51 6.83,-18.82 4.87,-2.28 10.63,-1.6 14.84,1.76 5.11,5.09 7.83,12.08 7.5,19.28 -0.4,7.11 0.77,14.21 3.41,20.81 2.89,6.4 10.42,9.25 16.82,6.36l0.92 -0.47c4.44,-3.5 4.61,-9.9 5.21,-15.53 0.59,-5.63 3.41,-12.19 9.04,-12.45 5.63,-0.25 9.12,6.06 10.15,11.6 1.02,5.55 1.36,11.94 5.8,15.44 6.23,-1.88 7.59,-9.81 8.95,-16.21 1.37,-6.39 7.42,-13.64 13.05,-10.49 2.82,1.54 3.84,5.03 5.29,7.94 1.45,2.89 4.52,5.71 7.51,4.51 5.03,-1.87 2.39,-11.51 7.42,-13.47 3.32,-1.19 6.4,2.3 8.53,5.37 3.87,5.28 6.28,11.49 6.99,18 0.51,6.72 -4.12,12.74 -10.74,13.99 -3.83,-0.45 -7.58,-1.37 -11.18,-2.73 -8.31,-0.9 -16.36,3.18 -20.55,10.4 -4,7.07 -6.55,14.88 -7.51,22.95 -10.54,-9.42 -26.71,-8.51 -36.13,2.04l-0.38 0.43c-7.16,9.38 -9.03,24.99 -20.64,27.38 -8,0.62 -15.35,-4.43 -17.65,-12.11 -1.83,-7.59 -1.83,-15.53 0,-23.12l-15.86 13.05 -3.59 -20.81 5.97 -55.1z"/>
    <path class="fil10" d="M811.79 3121.47l-4.71 -32.81 9.54 -2.7c-3.57,11.82 -5.63,23.98 -4.83,35.51z"/>
    <path class="fil11" d="M1304.68 3155.13c-29.88,0 -41.3,-62.18 -41.3,-62.18 -16.76,9.46 -35.32,15.28 -54.5,17.06 -0.74,0.06 -1.48,0.09 -2.23,0.09 -31.83,0 -66.6,-60.66 -66.6,-60.66l-127.51 11.69 -200.52 61.92 -0.23 -1.58c-0.8,-11.53 1.26,-23.69 4.83,-35.51l32.09 -9.05 166.64 -45.04 1.37 0 0 -1.45c3.24,-19.62 6.65,-40.26 10.15,-61.24 4.25,-26 8.44,-51.58 12.5,-76.4l284.49 57.38c0,0 16.63,199.75 -15.78,204.7 -1.16,0.18 -2.29,0.27 -3.4,0.27z"/>
    <path class="fil0" d="M831.63 2297.33c0,0 -104.39,36.59 -143.63,95.36 -51.77,77.87 -198.05,301.68 -266.62,476.87 -21.5,54.84 -3.59,139.11 28.14,188.67 42.48,66.27 123.4,96.82 199.08,75.14l365.81 -103.21 34.12 -205.63 -318.65 13.3 89.3 -146.45 12.45 -394.05z"/>
    <path class="fil3" d="M546.59 2622.3c7.34,-8.47 20.17,-9.38 28.63,-2.03 1.19,1.03 2.26,2.2 3.18,3.48 5.63,8.53 5.63,23.71 15.95,25.58 7.5,1.46 13.48,-5.8 18.51,-11.68 5.03,-5.88 14.07,-11.17 19.7,-5.88 5.63,5.28 2.47,15.35 8.53,19.27 6.06,3.92 12.37,-1.96 16.12,-7.33 3.75,-5.38 8.53,-11.94 14.67,-11.35 13.31,1.2 10.49,28.66 23.88,28.92 6.82,0 10.92,-7.77 17.06,-10.33 8.53,-3.41 17.06,2.91 23.63,8.53 4.59,3.54 8.44,7.95 11.34,12.97 2.88,5.23 2.39,11.67 -1.28,16.38 -5.88,6.39 -16.46,3.75 -24.05,-0.52 -7.59,-4.26 -15.78,-9.72 -24.22,-7.59 -14.25,3.58 -19.45,27.04 -34.12,25.59 -13.31,-1.53 -17.06,-23.2 -30.19,-24.65 -13.14,-1.45 -23.97,20.73 -36.85,15.44 -5.97,-2.39 -8.53,-9.9 -13.99,-13.21 -5.71,-2.6 -12.33,-2.25 -17.74,0.93 -5.26,3.25 -10.76,6.1 -16.46,8.52 -5.96,2.5 -12.84,0.88 -17.06,-4 -3.5,-5.12 0.68,-14.08 6.74,-12.71l-14.59 -2.39 0 -11.6 22.61 -40.34z"/>
    <path class="fil4" d="M1430.05 2501.01c0.77,5.43 1.15,10.89 1.1,16.38 0,10.57 0.68,25.59 0.77,44.78 0,37.87 -0.43,90.07 -3.07,147.72 -2.64,57.66 -7.33,109.86 -10.83,147.56 -1.88,18.76 -3.58,34.11 -4.95,44.52 3.33,147.56 -2.22,16.21 -2.56,16.21 -0.21,-5.5 -0.01,-11.01 0.6,-16.47 0.85,-11.34 1.96,-26.44 3.33,-44.6 2.81,-37.7 6.39,-89.73 9.04,-147.3 2.64,-57.57 3.92,-109.77 4.52,-147.56 0,-18.25 0.59,-33.35 0.85,-44.78 -0.08,-5.51 0.32,-11.02 1.2,-16.46z"/>
    <path class="fil4" d="M1450.26 2306.63c1.28,0.94 -13.22,19.87 -23.29,47 -10.06,27.12 -12.02,51.17 -13.64,50.74 -1.27,-17.97 1.81,-35.99 8.95,-52.53 5.55,-17.11 15.14,-32.61 27.98,-45.21z"/>
    <path class="fil4" d="M870.36 2488.56c-0.77,0 -1.54,-9.47 -5.04,-24.31 -4.67,-19.25 -12.18,-37.7 -22.26,-54.76 -10.19,-16.98 -22.8,-32.37 -37.44,-45.71 -11.34,-10.15 -19.36,-15.36 -18.94,-16.04 2.18,0.68 4.23,1.73 6.06,3.07 5.25,3.16 10.24,6.72 14.93,10.66 31.5,26.04 52.96,62.23 60.72,102.35 1.15,6.01 1.89,12.07 2.22,18.17 0.27,2.18 0.18,4.4 -0.25,6.57z"/>
    <path class="fil4" d="M725.7 2839.62c-19.97,6.63 -39.43,14.66 -58.25,24.05 -18.07,10.76 -35.38,22.76 -51.78,35.91 3.53,-5.18 7.82,-9.81 12.71,-13.73 11.31,-10.07 23.73,-18.83 37.02,-26.1 13.23,-7.32 27.29,-13.04 41.88,-17.06 5.92,-2.07 12.15,-3.11 18.42,-3.07z"/>
    <path class="fil4" d="M877.44 2569.16c-1.17,3.84 -2.71,7.55 -4.61,11.09 -3.16,7.08 -8.02,17.06 -14.16,29.42 -12.28,24.65 -29.94,58.43 -50.58,95.02 -20.64,36.59 -40.43,69.26 -55.18,92.46 -7.42,11.68 -13.56,20.98 -17.91,27.38 -2.04,3.43 -4.41,6.66 -7.08,9.63 1.54,-3.69 3.44,-7.23 5.63,-10.57l17.06 -28.06c14.07,-23.63 33.43,-56.38 54.07,-92.97 20.64,-36.59 38.64,-70.03 51.6,-94.34 6.23,-11.51 11.43,-21.15 15.44,-28.74 1.6,-3.61 3.52,-7.05 5.72,-10.32z"/>
    <path class="fil4" d="M615.67 3139.51l1.97 -0.77 5.88 -1.79 22.6 -6.65 84.1 -23.71 283.6 -78.56 -1.54 1.79c3.16,-19.61 6.57,-40.25 9.98,-61.24 8.53,-50.74 16.55,-99.53 23.97,-144.39l1.96 2.47c-78.71,-1.57 -157.44,1.28 -235.83,8.53l-68.24 5.71 -18.16 1.45 -6.32 0 1.62 0 4.61 -0.68 18.17 -2.05c15.78,-1.79 38.81,-4.18 68.23,-6.99 78.48,-8.17 157.38,-11.59 236.26,-10.24l2.39 0 -0.43 2.39c-7.33,44.87 -15.35,93.82 -23.62,144.4 -3.5,20.98 -6.91,41.62 -10.15,61.24l0 1.45 -1.37 0 -284.02 76.76 -84.44 22.52 -22.86 5.8 -5.88 1.45c-0.77,0.49 -1.6,0.86 -2.48,1.11z"/>
    <path class="fil0" d="M1214.94 3503.37c0,0 371.61,102.86 386.54,108.15 22.35,7.84 18.59,89.9 -16.2,88.61 -7.7,-0.28 -70.7,1.89 -139.05,4.06 -77.72,2.46 -162.35,4.93 -180.46,3.79 -34.03,-2.13 -136.47,-42.64 -136.47,-42.64l85.64 -161.97z"/>
    <path class="fil4" d="M1369.74 3645.21c1.88,0 4.35,-19.45 16.38,-39.92 12.03,-20.47 27.46,-32.75 26.27,-34.12 -1.2,-1.36 -19.11,9.04 -31.64,31.14 -12.54,22.09 -12.54,43.07 -11.01,42.9z"/>
    <path class="fil4" d="M1331.02 3627.64c1.79,0 5.54,-17.06 15.44,-36.68 9.89,-19.62 21.58,-33.01 20.21,-34.11 -1.36,-1.11 -15.52,10.91 -25.59,31.47 -10.06,20.55 -11.68,39.23 -10.06,39.32z"/>
    <path class="fil4" d="M1294.6 3617.91c1.88,0 0.51,-18.67 8.53,-39.31 8.02,-20.65 21.58,-33.36 20.3,-34.72 -1.28,-1.36 -17.06,10.06 -26.1,32.5 -9.04,22.43 -3.75,42.04 -2.73,41.53z"/>
    <path class="fil4" d="M1301.25 3569.89c3.29,-8.82 4.65,-18.24 4.01,-27.63 -0.08,-10.24 -1.37,-20.43 -3.84,-30.37 -1.44,-5.8 -3.26,-11.49 -5.46,-17.05 -1.22,-3.49 -3.26,-6.62 -5.97,-9.13 -3.85,-2.93 -9.27,-2.64 -12.79,0.68 -2.82,2.81 -4.57,6.53 -4.95,10.49 -0.37,3.26 -0.54,6.53 -0.51,9.81 0.09,6.13 0.86,12.22 2.31,18.17 2.49,9.97 6.34,19.56 11.42,28.49 4.27,8.43 10.05,16.01 17.06,22.34 0.85,-0.59 -5.37,-9.29 -12.79,-24.39 -4.33,-8.79 -7.6,-18.06 -9.72,-27.63 -1.22,-5.61 -1.82,-11.33 -1.8,-17.05 0,-5.73 0,-12.89 3.41,-15.62 1.39,-1.32 3.57,-1.32 4.95,0 1.84,1.8 3.22,4.02 4.01,6.48 2.22,5.33 4.1,10.81 5.63,16.38 2.62,9.5 4.28,19.25 4.95,29.08 0.94,16.29 -0.94,26.78 0.08,26.95z"/>
    <path class="fil4" d="M1300.74 3566.14c-7.57,-3.16 -15.78,-4.5 -23.97,-3.92 -8.88,-0.01 -17.74,1.08 -26.35,3.24 -5.3,1.15 -10.42,3.04 -15.18,5.63 -6.42,3.06 -9.93,10.09 -8.53,17.06 1.67,6.55 6.82,11.62 13.39,13.22 5.46,1.4 11.18,1.4 16.63,0 8.8,-2.2 17.03,-6.25 24.14,-11.86 6.69,-4.59 12.47,-10.38 17.06,-17.06 -6.89,4.01 -13.5,8.48 -19.79,13.39 -6.93,4.72 -14.68,8.08 -22.86,9.9 -4.51,1.06 -9.22,1.06 -13.73,0 -4.31,-1.04 -7.75,-4.28 -9.04,-8.53 -0.75,-4.28 1.51,-8.52 5.46,-10.32 4.27,-2.34 8.83,-4.12 13.56,-5.29 8.15,-2.33 16.54,-3.79 24.99,-4.35 8.63,-1.08 15.32,-0.97 19.45,-0.87 3.07,0.09 4.74,0.16 4.77,-0.24z"/>
    <path class="fil4" d="M1426.8 3649.22c1.88,0 0,-16.12 7.34,-33.52 7.33,-17.4 19.36,-27.73 18.25,-29.17 -1.11,-1.45 -16.2,7.33 -23.97,26.78 -7.76,19.44 -3.07,36.5 -1.62,35.91z"/>
    <path class="fil4" d="M1167.52 3666.36c4.57,2.69 9.4,4.95 14.41,6.74 13.47,5.22 27.3,9.5 41.36,12.79 46.57,10.22 94.2,14.74 141.85,13.48 55.69,-0.6 105.84,-3.16 142.27,-4.61l43.07 -2.3c5.3,-0.03 10.59,-0.61 15.78,-1.71 -5.26,-0.74 -10.57,-0.96 -15.87,-0.68l-43.07 0 -142.18 2.82c-47.25,1.19 -94.48,-2.67 -140.91,-11.52 -35.56,-7.08 -56.29,-16.21 -56.71,-15.01z"/>
    <path class="fil4" d="M1156.51 3674.8c0.51,0.86 10.66,-5.11 27.89,-12.62 21.87,-10.4 46.22,-14.45 70.28,-11.68 28.06,4.26 47.85,23.11 60.82,36.16 6.62,7.79 13.78,15.1 21.4,21.92 -4.87,-9.09 -10.99,-17.48 -18.16,-24.91 -7.32,-8.59 -15.58,-16.31 -24.65,-23.02 -11.32,-8.42 -24.47,-14.01 -38.38,-16.29 -25.23,-3.06 -50.79,1.77 -73.19,13.81 -9.46,4.19 -18.24,9.79 -26.01,16.63z"/>
    <path class="fil11" d="M1280.7 3708.26c-6.71,0 -11.8,-0.08 -14.93,-0.28 -34.03,-2.13 -136.47,-42.64 -136.47,-42.64l85.64 -161.97c0,0 23.09,6.38 57.99,16.07 0.3,1.81 0.68,3.62 1.12,5.42 2.49,9.97 6.34,19.56 11.42,28.49 1.74,3.44 3.74,6.75 5.97,9.88 -3.59,-0.76 -7.25,-1.15 -10.93,-1.15 -1.24,0 -2.49,0.05 -3.74,0.14 -0.02,0 -0.06,0 -0.08,0 -8.86,0 -17.68,1.09 -26.27,3.24 -5.3,1.15 -10.42,3.04 -15.18,5.63 -6.42,3.06 -9.93,10.09 -8.53,17.06 1.67,6.55 6.82,11.62 13.39,13.22 2.73,0.7 5.53,1.05 8.32,1.05 2.79,0 5.59,-0.35 8.31,-1.05 8.8,-2.2 17.03,-6.25 24.14,-11.86 6.69,-4.59 12.47,-10.38 17.06,-17.06 -6.89,4.01 -13.5,8.48 -19.79,13.39 -6.93,4.72 -14.68,8.08 -22.86,9.9 -2.26,0.53 -4.56,0.79 -6.86,0.79 -2.31,0 -4.61,-0.26 -6.87,-0.79 -4.31,-1.04 -7.75,-4.28 -9.04,-8.53 -0.75,-4.28 1.51,-8.52 5.46,-10.32 4.27,-2.34 8.83,-4.12 13.56,-5.29 8.15,-2.33 16.54,-3.79 24.99,-4.35 6.04,-0.76 11.13,-0.93 15.06,-0.93 0.78,0 1.51,0.01 2.19,0.02 1.66,2.1 3.43,4.11 5.3,6.03 -0.61,1.29 -1.19,2.63 -1.74,4.01 -8.93,22.15 -3.88,41.54 -2.77,41.54 0.01,0 0.03,0 0.04,-0.01 1.88,0 0.51,-18.67 8.53,-39.31 8.02,-20.65 21.58,-33.36 20.3,-34.72 -0.07,-0.08 -0.18,-0.11 -0.33,-0.11 -2.11,0 -12.06,7.44 -20.32,21.52 2.17,-7.47 3.01,-15.26 2.48,-23.03 -0.03,-4.72 -0.33,-9.43 -0.88,-14.1 110.97,30.8 286.93,79.75 297.1,83.36 9.2,3.23 13.98,19.05 13.99,36.44 0,24.52 -9.47,52.19 -29.39,52.19 -0.27,0 -0.53,-0.01 -0.8,-0.02 -0.46,-0.01 -1.11,-0.02 -1.95,-0.02 -13.24,0 -72.8,2.04 -137.1,4.08 -37.84,1.2 -77.33,2.39 -109.98,3.18 -1.53,-2.76 -3.18,-5.45 -4.92,-8.07 6.05,0.18 12.11,0.27 18.17,0.27 5.21,0 10.43,-0.07 15.64,-0.2 55.69,-0.6 105.84,-3.16 142.27,-4.61l43.07 -2.3c5.3,-0.03 10.59,-0.61 15.78,-1.71 -3.79,-0.53 -7.62,-0.8 -11.44,-0.8 -1.48,0 -2.95,0.04 -4.43,0.12l-43.07 0 -142.18 2.82c-5.57,0.14 -11.14,0.21 -16.71,0.21 -7.28,0 -14.56,-0.12 -21.84,-0.36 -2.44,-3.16 -5.07,-6.18 -7.85,-9.07 -7.32,-8.59 -15.58,-16.31 -24.65,-23.02 -11.32,-8.42 -24.47,-14.01 -38.38,-16.29 -4.93,-0.6 -9.86,-0.89 -14.79,-0.89 -20.3,0 -40.38,5.01 -58.4,14.7 -5.15,2.29 -10.11,4.99 -14.81,8.09 -0.11,0.01 -0.17,0.04 -0.19,0.1 0,0 0.01,0.01 0.02,0.01 -3.86,2.56 -7.54,5.37 -11.03,8.43 0.04,0.06 0.11,0.09 0.22,0.09 1.1,0 6.09,-2.66 14.29,-6.58 3.52,1.84 7.16,3.45 10.91,4.79 13.47,5.22 27.3,9.5 41.36,12.79 34.12,7.49 68.82,11.92 103.68,13.26 2.8,2.82 5.67,5.57 8.61,8.24 -22.54,0.53 -41.77,0.87 -54.88,0.87zm171.25 -121.89c-2.76,0 -16.31,8.86 -23.53,26.94 -7.63,19.11 -3.22,35.92 -1.69,35.92 0.02,0 0.05,-0.01 0.07,-0.01 1.88,0 0,-16.12 7.34,-33.52 7.33,-17.4 19.36,-27.73 18.25,-29.17 -0.07,-0.11 -0.22,-0.16 -0.44,-0.16zm-39.93 -15.32c-2.88,0 -19.46,10.44 -31.27,31.26 -12.49,22 -12.54,42.9 -11.02,42.91 0,0 0.01,-0.01 0.01,-0.01 1.88,0 4.35,-19.45 16.38,-39.92 12.03,-20.47 27.46,-32.75 26.27,-34.12 -0.07,-0.07 -0.2,-0.12 -0.37,-0.12zm-45.59 -14.27c-2.32,0 -15.71,11.86 -25.35,31.54 -10.06,20.55 -11.68,39.23 -10.06,39.32 1.79,0 5.54,-17.06 15.44,-36.68 9.89,-19.62 21.58,-33.01 20.21,-34.11 -0.06,-0.05 -0.13,-0.07 -0.24,-0.07zm-66.39 13.56c-0.65,-1.14 -1.4,-2.44 -2.23,-3.91 0.44,0.01 0.83,0.02 1.18,0.02 1.13,0 1.73,-0.07 1.75,-0.31 -1.3,-0.54 -2.6,-1.02 -3.93,-1.46 -2.05,-3.64 -4.49,-8.12 -7.07,-13.38 -4.33,-8.79 -7.6,-18.06 -9.72,-27.63 -0.18,-0.8 -0.34,-1.6 -0.49,-2.4 6.23,1.72 12.79,3.54 19.62,5.44 0.98,5.37 1.65,10.78 2.02,16.23 0.75,13.03 -0.3,22.35 -0.23,25.65 -0.3,0.57 -0.6,1.15 -0.9,1.75z"/>
    <path class="fil12" d="M1369.73 3645.22c-1.52,-0.01 -1.47,-20.91 11.02,-42.91 11.81,-20.82 28.39,-31.26 31.27,-31.26 0.17,0 0.3,0.05 0.37,0.12 1.19,1.37 -14.24,13.65 -26.27,34.12 -12.03,20.47 -14.5,39.92 -16.38,39.92 0,0 -0.01,0.01 -0.01,0.01z"/>
    <path class="fil12" d="M1331.02 3627.64c-1.62,-0.09 0,-18.77 10.06,-39.32 9.64,-19.68 23.03,-31.54 25.35,-31.54 0.11,0 0.18,0.02 0.24,0.07 1.37,1.1 -10.32,14.49 -20.21,34.11 -9.9,19.62 -13.65,36.68 -15.44,36.68z"/>
    <path class="fil12" d="M1294.56 3617.92c-1.11,0 -6.16,-19.39 2.77,-41.54 0.55,-1.38 1.13,-2.72 1.74,-4.01 1.12,1.14 2.27,2.25 3.46,3.32 0.38,-0.26 -0.62,-2.09 -2.49,-5.35 0.3,-0.6 0.6,-1.18 0.9,-1.75 0.02,0.83 0.11,1.27 0.31,1.3 0.57,-1.51 1.08,-3.05 1.53,-4.6 8.26,-14.08 18.21,-21.52 20.32,-21.52 0.15,0 0.26,0.03 0.33,0.11 1.28,1.36 -12.28,14.07 -20.3,34.72 -8.02,20.64 -6.65,39.31 -8.53,39.31 -0.01,0.01 -0.03,0.01 -0.04,0.01z"/>
    <path class="fil12" d="M1302.53 3575.69c-1.19,-1.07 -2.34,-2.18 -3.46,-3.32 -1.87,-1.92 -3.64,-3.93 -5.3,-6.03 0.8,0.01 1.54,0.02 2.2,0.04 0.69,0.02 1.29,0.03 1.84,0.05 0.83,1.47 1.58,2.77 2.23,3.91 1.87,3.26 2.87,5.09 2.49,5.35zm-1.28 -5.8c-0.2,-0.03 -0.29,-0.47 -0.31,-1.3 -0.07,-3.3 0.98,-12.62 0.23,-25.65 -0.37,-5.45 -1.04,-10.86 -2.02,-16.23 1.73,0.48 3.48,0.97 5.23,1.45 0.55,4.67 0.85,9.38 0.88,14.1 0.53,7.77 -0.31,15.56 -2.48,23.03 -0.45,1.55 -0.96,3.09 -1.53,4.6zm-4.44 -5.21c-1.77,-0.58 -3.56,-1.06 -5.37,-1.45 -2.23,-3.13 -4.23,-6.44 -5.97,-9.88 -5.08,-8.93 -8.93,-18.52 -11.42,-28.49 -0.44,-1.8 -0.82,-3.61 -1.12,-5.42 2.15,0.59 4.37,1.21 6.6,1.83 0.15,0.8 0.31,1.6 0.49,2.4 2.12,9.57 5.39,18.84 9.72,27.63 2.58,5.26 5.02,9.74 7.07,13.38z"/>
    <path class="fil11" d="M1320.66 3692.52c-32.34,-1.36 -64.58,-5.09 -96.43,-11.15 -25.5,-5.08 -43.38,-11.21 -51.61,-13.82 3.44,-1.63 7.38,-3.45 11.78,-5.37 17.41,-8.27 36.4,-12.53 55.54,-12.53 4.92,0 9.84,0.28 14.74,0.85 28.06,4.26 47.85,23.11 60.82,36.16 1.69,1.98 3.41,3.93 5.16,5.86z"/>
    <path class="fil12" d="M1248.42 3602.42c-2.79,0 -5.59,-0.35 -8.32,-1.05 -6.57,-1.6 -11.72,-6.67 -13.39,-13.22 -1.4,-6.97 2.11,-14 8.53,-17.06 4.76,-2.59 9.88,-4.48 15.18,-5.63 8.59,-2.15 17.41,-3.24 26.27,-3.24 0.02,0 0.06,0 0.08,0 1.25,-0.09 2.5,-0.14 3.74,-0.14 3.68,0 7.34,0.39 10.93,1.15 1.81,0.39 3.6,0.87 5.37,1.45 1.33,0.44 2.63,0.92 3.93,1.46 -0.02,0.24 -0.62,0.31 -1.75,0.31 -0.35,0 -0.74,-0.01 -1.18,-0.02 -0.55,-0.02 -1.15,-0.03 -1.84,-0.05 -0.66,-0.02 -1.4,-0.03 -2.2,-0.04 -0.68,-0.01 -1.41,-0.02 -2.19,-0.02 -3.93,0 -9.02,0.17 -15.06,0.93 -8.45,0.56 -16.84,2.02 -24.99,4.35 -4.73,1.17 -9.29,2.95 -13.56,5.29 -3.95,1.8 -6.21,6.04 -5.46,10.32 1.29,4.25 4.73,7.49 9.04,8.53 2.26,0.53 4.56,0.79 6.87,0.79 2.3,0 4.6,-0.26 6.86,-0.79 8.18,-1.82 15.93,-5.18 22.86,-9.9 6.29,-4.91 12.9,-9.38 19.79,-13.39 -4.59,6.68 -10.37,12.47 -17.06,17.06 -7.11,5.61 -15.34,9.66 -24.14,11.86 -2.72,0.7 -5.52,1.05 -8.31,1.05z"/>
    <path class="fil12" d="M1426.73 3649.23c-1.53,0 -5.94,-16.81 1.69,-35.92 7.22,-18.08 20.77,-26.94 23.53,-26.94 0.22,0 0.37,0.05 0.44,0.16 1.11,1.44 -10.92,11.77 -18.25,29.17 -7.34,17.4 -5.46,33.52 -7.34,33.52 -0.02,0 -0.05,0.01 -0.07,0.01z"/>
    <path class="fil12" d="M1349.5 3699.57c-6.06,0 -12.12,-0.09 -18.17,-0.27 -1.5,-2.24 -3.07,-4.44 -4.74,-6.56 7.28,0.24 14.56,0.36 21.84,0.36 5.57,0 11.14,-0.07 16.71,-0.21l142.18 -2.82 43.07 0c1.48,-0.08 2.95,-0.12 4.43,-0.12 3.82,0 7.65,0.27 11.44,0.8 -5.19,1.1 -10.48,1.68 -15.78,1.71l-43.07 2.3c-36.43,1.45 -86.58,4.01 -142.27,4.61 -5.21,0.13 -10.43,0.2 -15.64,0.2zm-22.53 -0.42c-34.86,-1.34 -69.56,-5.77 -103.68,-13.26 -14.06,-3.29 -27.89,-7.57 -41.36,-12.79 -3.75,-1.34 -7.39,-2.95 -10.91,-4.79 0.52,-0.25 1.06,-0.51 1.6,-0.76 8.23,2.61 26.11,8.74 51.61,13.82 31.85,6.06 64.09,9.79 96.43,11.15 2.06,2.25 4.16,4.46 6.31,6.63zm-159.43 -32.78c-0.01,0 -0.02,-0.01 -0.02,-0.01 0.02,-0.06 0.08,-0.09 0.19,-0.1 -0.06,0.03 -0.12,0.07 -0.17,0.11z"/>
    <path class="fil12" d="M1335.58 3707.39l0 0c-2.94,-2.67 -5.81,-5.42 -8.61,-8.24 -2.15,-2.17 -4.25,-4.38 -6.31,-6.63 -1.75,-1.93 -3.47,-3.88 -5.16,-5.86 -12.97,-13.05 -32.76,-31.9 -60.82,-36.16 -4.9,-0.57 -9.82,-0.85 -14.74,-0.85 -19.14,0 -38.13,4.26 -55.54,12.53 -4.4,1.92 -8.34,3.74 -11.78,5.37 -0.54,0.25 -1.08,0.51 -1.6,0.76 -8.2,3.92 -13.19,6.58 -14.29,6.58 -0.11,0 -0.18,-0.03 -0.22,-0.09 3.49,-3.06 7.17,-5.87 11.03,-8.43 0.05,-0.04 0.11,-0.08 0.17,-0.11 4.7,-3.1 9.66,-5.8 14.81,-8.09 18.02,-9.69 38.1,-14.7 58.4,-14.7 4.93,0 9.86,0.29 14.79,0.89 13.91,2.28 27.06,7.87 38.38,16.29 9.07,6.71 17.33,14.43 24.65,23.02 2.78,2.89 5.41,5.91 7.85,9.07 1.67,2.12 3.24,4.32 4.74,6.56 1.74,2.62 3.39,5.31 4.92,8.07 -0.22,0.01 -0.45,0.02 -0.67,0.02z"/>
    <path class="fil4" d="M839.31 3165.95l-75.31 154.81c0,0 -402.84,-122.14 -504.34,-116.86 -101.5,5.29 -184.57,46.32 -204.7,128.71 -4.87,19.92 -8.68,41.67 -10.01,64.33l0 33.69c3.85,61.73 30.16,126.56 105.97,177.14 118.38,78.98 707.66,122.47 707.66,122.47l232.85 0 380.66 -501.77 -61.32 -49.73 -571.46 -12.79z"/>
    <path class="fil6" d="M966.05 3505.67c-2.56,0.21 -5.11,0.21 -7.67,0 -5.03,-0.43 -12.45,0 -21.84,-1.71 -26.75,-3.05 -53.19,-8.5 -78.98,-16.29 -38.04,-11.57 -75.11,-26.11 -110.88,-43.5 -40.77,-19.19 -84.18,-42.64 -129.81,-67.38 -42.67,-23.38 -86.58,-44.45 -131.52,-63.11 -36.68,-15.18 -74.81,-26.62 -113.78,-34.12 -26.28,-5.02 -53,-7.35 -79.75,-6.99 -9.47,0 -17.06,0.76 -21.75,0.85 -2.55,0.25 -5.12,0.25 -7.68,0 2.5,-0.57 5.04,-0.94 7.59,-1.11 4.95,0 12.29,-1.71 21.84,-1.79 26.93,-1.09 53.89,0.71 80.43,5.37 39.2,7.17 77.54,18.43 114.38,33.61 45.23,18.44 89.37,39.45 132.2,62.94 45.63,24.48 88.96,48.19 129.39,67.55 35.62,17.55 72.51,32.37 110.36,44.36 25.56,8.01 51.72,13.94 78.22,17.74 9.29,1.62 17.06,1.96 21.66,2.64 2.55,0.1 5.1,0.41 7.59,0.94z"/>
    <path class="fil4" d="M1241.29 3689.3c74.8,-29.34 486.17,-160.26 631.85,-328.63 121.28,-140.13 -71.65,-265.6 -71.65,-265.6 0,0 -135.27,-4.26 -180.39,0 -45.12,4.27 -690.87,440.71 -690.87,440.71 0,0 112.76,219.88 109.94,228.33l201.12 -74.81z"/>
    <path class="fil6" d="M1443.86 3201.35c0,0 -0.51,0.51 -1.7,1.36l-5.46 3.67 -21.07 13.82 -78.21 49.72 -258.78 162.74 -140.65 87.68 0.94 -2.9 73.69 177.32c8.53,21.5 15.78,38.72 20.73,51.18l5.37 13.64c0.7,1.53 1.21,3.14 1.54,4.78 -0.9,-1.44 -1.67,-2.95 -2.3,-4.52 -1.54,-3.33 -3.5,-7.76 -5.98,-13.31l-22 -50.4c-18.59,-43.67 -44.78,-104.91 -75.4,-176.64l-0.77 -1.8 1.71 -1.1 140.39 -88.02 259.63 -161.72 78.98 -48.45 21.67 -12.96 5.71 -3.24 1.96 -0.85z"/>
    <path class="fil6" d="M875.64 3395.39c-6.7,-1.39 -13.14,-3.81 -19.1,-7.17 -14.85,-7.16 -28.99,-15.73 -42.22,-25.59 -13.29,-9.68 -25.66,-20.59 -36.93,-32.58 -5.04,-4.67 -9.3,-10.1 -12.63,-16.12 1.2,-1.02 21.75,22.26 52.54,44.61 30.79,22.35 58.77,35.4 58.34,36.85z"/>
    <path class="fil6" d="M1099.45 3212.95c1.05,8.48 1.39,17.05 1.02,25.58 0,15.87 0.86,37.79 2.99,61.84 2.13,24.05 5.54,45.8 8.53,61.41 1.91,8.42 3.13,16.97 3.67,25.59 -3.41,-7.95 -5.8,-16.28 -7.17,-24.82 -4.59,-20.29 -7.84,-40.87 -9.72,-61.58 -1.83,-20.74 -2.34,-41.56 -1.54,-62.35 -0.19,-8.62 0.55,-17.22 2.22,-25.67z"/>
    <path class="fil6" d="M1147.64 3207.66c0,0 1.88,-0.51 5.03,0.68 4.42,1.78 8.15,4.91 10.67,8.96 4.09,6.09 5.22,13.7 3.07,20.72 -3.23,8.79 -11.54,14.66 -20.9,14.76 -9.34,0.88 -18.2,-4.31 -22.01,-12.88 -2.44,-6.99 -1.39,-14.73 2.82,-20.81 2.6,-4.1 6.6,-7.13 11.26,-8.53 3.32,-0.77 5.2,0 5.2,0 -5.57,1.7 -10.33,5.35 -13.39,10.31 -3.13,5.14 -3.72,11.43 -1.62,17.06 3.29,6.56 10.28,10.39 17.57,9.64 7.46,0.13 14.24,-4.34 17.06,-11.25 1.76,-5.69 1.11,-11.87 -1.79,-17.06 -3.11,-5.04 -7.61,-9.07 -12.97,-11.6z"/>
    <path class="fil6" d="M948.57 3191.37c1.66,2.27 2.85,4.85 3.5,7.59 2.36,7.35 3.52,15.04 3.41,22.77 -0.12,11.55 -2.68,22.94 -7.51,33.44 -11.67,26.71 -37.73,44.25 -66.87,45.03 -11.65,0.59 -23.29,-1.37 -34.11,-5.72 -7.21,-2.74 -13.91,-6.7 -19.79,-11.68 -2.28,-1.7 -4.24,-3.77 -5.8,-6.14 8.31,5.88 17.3,10.76 26.78,14.5 10.39,3.55 21.37,5.04 32.33,4.35 27.34,-1.21 51.68,-17.7 62.94,-42.65 4.74,-9.89 7.49,-20.61 8.1,-31.56 0.25,-10.06 -0.75,-20.12 -2.98,-29.93z"/>
    <path class="fil6" d="M1332.47 3267.96c-5.19,0.88 -10.52,0.14 -15.27,-2.13 -24.79,-8.67 -40.65,-32.92 -38.64,-59.11 -0.05,-5.25 1.39,-10.39 4.18,-14.84 0.07,4.98 -0.13,9.96 -0.59,14.93 -0.01,24.12 14.24,45.98 36.33,55.69 8.36,3.84 14.07,4.35 13.99,5.46z"/>
    <path class="fil8" d="M1866.83 2918.35c5.27,10.26 16.47,16.05 27.89,14.41 11.26,-0.77 21.92,-5.2 33,-6.74 33.27,-4.6 66.36,17.66 99.37,11.43 4.61,-0.85 10.07,-3.32 10.15,-8.02 0.08,-4.69 -4.35,-7.16 -8.53,-9.04l-100.05 -48.7 -61.83 46.66z"/>
    <path class="fil9" d="M1928.92 2871.69c3.95,0.85 7.77,2.23 11.34,4.1 7.17,3.07 17.06,7.67 29.94,13.47l44.1 20.73 12.71 6.05c3.83,2.22 9.89,3.42 12.96,10.5 1.04,3.68 -0.2,7.63 -3.16,10.06 -2.5,1.93 -5.42,3.24 -8.53,3.84 -5.39,1 -10.89,1.4 -16.37,1.19 -22.09,-0.94 -41.11,-8.53 -58.77,-11.77 -8.25,-1.67 -16.7,-2.11 -25.07,-1.28 -7.77,0.94 -15.01,3.24 -21.92,4.61 -11.08,3.43 -23.11,1.78 -32.84,-4.52 -6.65,-5.21 -7,-10.41 -6.74,-10.32 0.26,0.09 1.79,4.26 8.53,8.53 9.39,4.96 20.44,5.76 30.45,2.22 6.65,-1.63 13.82,-4.18 22.26,-5.47 8.88,-1.17 17.89,-0.93 26.7,0.69 18.51,2.81 37.61,10.4 58,11.25 4.89,0.1 9.79,-0.36 14.58,-1.36 4.52,-0.85 7.85,-3.58 6.82,-5.8 -1.02,-2.22 -5.37,-4.86 -9.63,-6.91l-12.63 -6.31 -43.5 -21.92c-12.28,-6.31 -22.26,-11.51 -29.08,-15.27 -3.63,-1.66 -7.05,-3.78 -10.15,-6.31z"/>
    <path class="fil0" d="M952.92 3565.37c0,0 -371.62,102.86 -386.55,108.07 -22.43,7.93 -18.59,89.9 16.21,88.62 13.35,-0.49 192.73,6.43 278.22,7.93l41.2 0c33.94,-2.13 125.46,-38.3 125.46,-38.3l-74.54 -166.32z"/>
    <path class="fil4" d="M798.11 3707.13c-1.87,0 -4.35,-19.36 -16.37,-39.92 -12.03,-20.55 -27.47,-32.66 -26.27,-34.11 1.19,-1.46 19.1,9.04 31.64,31.13 12.54,22.09 12.54,43.07 11,42.9z"/>
    <path class="fil4" d="M836.84 3689.56c-1.79,0 -5.55,-17.06 -15.44,-36.68 -9.9,-19.61 -21.58,-33 -20.3,-34.11 1.28,-1.11 15.61,11 25.59,31.47 9.98,20.47 11.77,39.23 10.15,39.32z"/>
    <path class="fil4" d="M873.17 3679.84c-1.88,0 -0.42,-18.68 -8.53,-39.24 -8.1,-20.55 -21.49,-33.43 -20.21,-34.8 1.28,-1.36 17.06,10.07 26.01,32.5 8.96,22.43 4.27,42.05 2.73,41.54z"/>
    <path class="fil4" d="M866.6 3631.82c-3.29,-8.82 -4.65,-18.25 -4,-27.64 0.09,-10.2 1.35,-20.37 3.75,-30.28 1.47,-5.81 3.31,-11.5 5.54,-17.05 1.14,-3.5 3.21,-6.62 5.97,-9.05 3.84,-2.96 9.26,-2.71 12.8,0.6 2.82,2.81 4.57,6.53 4.94,10.49 0.21,3.27 0.21,6.54 0,9.81 -0.06,6.14 -0.81,12.26 -2.21,18.25 -2.55,9.95 -6.42,19.51 -11.52,28.4 -4.08,8.44 -9.72,16.02 -16.63,22.35 -0.86,-0.6 5.37,-9.2 12.79,-24.39 4.34,-8.79 7.6,-18.07 9.72,-27.64 1.18,-5.61 1.79,-11.32 1.8,-17.06 0,-5.71 0,-12.87 -3.42,-15.6 -1.41,-1.25 -3.53,-1.25 -4.94,0 -1.83,1.82 -3.23,4.04 -4.1,6.48 -2.22,5.36 -4.11,10.86 -5.63,16.46 -2.55,9.49 -4.18,19.2 -4.86,29 -0.68,16.2 1.03,26.69 0,26.87z"/>
    <path class="fil4" d="M867.11 3628.06c7.58,-3.14 15.79,-4.46 23.97,-3.84 8.92,-0.04 17.79,1.02 26.44,3.16 5.29,1.19 10.4,3.08 15.18,5.63 6.38,3.11 9.87,10.1 8.53,17.06 -1.73,6.52 -6.84,11.62 -13.39,13.31 -5.59,1.44 -11.46,1.44 -17.06,0 -8.81,-2.16 -17.04,-6.21 -24.13,-11.86 -6.68,-4.6 -12.46,-10.38 -17.06,-17.06 6.94,3.93 13.56,8.41 19.79,13.39 6.9,4.67 14.63,8 22.77,9.81 4.54,1.15 9.29,1.15 13.82,0 4.3,-1.05 7.75,-4.29 9.04,-8.53 0.77,-4.32 -1.52,-8.62 -5.55,-10.41 -4.24,-2.35 -8.76,-4.13 -13.47,-5.28 -8.17,-2.29 -16.53,-3.75 -24.99,-4.35 -14.67,-1.54 -23.89,0 -23.89,-1.03z"/>
    <path class="fil4" d="M740.97 3711.14c-1.79,0 0,-16.12 -7.34,-33.52 -7.33,-17.4 -19.36,-27.64 -18.17,-29.09 1.2,-1.45 16.21,7.25 23.97,26.7 7.76,19.45 3.07,36.59 1.54,35.91z"/>
    <path class="fil4" d="M1000.34 3728.28c-4.54,2.78 -9.37,5.04 -14.41,6.74 -13.48,5.25 -27.3,9.55 -41.37,12.88 -46.55,10.27 -94.18,14.85 -141.84,13.64 -55.7,-0.59 -105.93,-3.15 -142.27,-4.6l-42.65 -2.3c-5.29,0.01 -10.59,-0.52 -15.77,-1.62 5.24,-0.81 10.56,-1.06 15.86,-0.77l42.65 0 142.18 2.73c47.33,1.23 94.65,-2.59 141.16,-11.43 35.22,-7.59 56.04,-16.12 56.46,-15.27z"/>
    <path class="fil4" d="M1011.34 3736.73c-9.5,-3.73 -18.81,-7.95 -27.89,-12.63 -21.88,-10.35 -46.22,-14.4 -70.28,-11.68 -28.06,4.35 -47.85,23.11 -60.81,36.16 -6.46,7.59 -13.43,14.75 -20.84,21.41l-0.29 0c4.86,-8.89 10.88,-17.09 17.89,-24.39 7.34,-8.57 15.61,-16.3 24.65,-23.03 11.32,-8.42 24.48,-14 38.38,-16.29 25.25,-3.02 50.8,1.83 73.18,13.9 9.48,4.14 18.25,9.72 26.01,16.55z"/>
    <path class="fil4" d="M638.45 3753.02c-0.6,-0.51 2.56,-5.38 5.45,-14.08 8,-22.81 3.33,-48.15 -12.28,-66.61 -5.8,-6.99 -10.57,-10.49 -10.06,-11.17 4.92,1.66 9.3,4.6 12.71,8.53 8.83,9.13 14.77,20.67 17.05,33.17 2.3,12.53 0.79,25.46 -4.35,37.11 -3.75,8.95 -8.01,13.05 -8.52,13.05z"/>
    <path class="fil8" d="M1337.67 2929.01c-31.21,-9.55 -17.06,-44.1 -74.54,-63.2 -42.65,-14.25 -88.71,-40.86 -214.85,-26.53l-28.66 174 121.2 -32.24 34.97 78.12c7.05,15.78 25.57,22.86 41.35,15.8l0.78 -0.36 61.5 -29.42c0,0 17.06,84.52 22.51,87.85 8.42,5.37 19.6,2.9 24.98,-5.51 2.19,-3.43 3.15,-7.51 2.75,-11.55 -2.39,-11.34 -8.53,-158.13 -8.53,-158.13 0,0 46.57,13.22 43.67,-5.38 -0.35,0.34 4.09,-13.9 -27.13,-23.45z"/>
    <path class="fil9" d="M1206.75 3082.11c1.17,-3.25 2.51,-6.44 4.01,-9.56 2.81,-7.74 3.86,-16.01 3.07,-24.22 -0.85,-8.17 -3.53,-16.04 -7.85,-23.03 -3.33,-5.37 -6.22,-8.53 -5.8,-8.53 3.17,1.72 5.85,4.21 7.76,7.25 5.14,7.09 8.29,15.43 9.13,24.14 1,8.75 -0.44,17.61 -4.18,25.59 -2.9,5.46 -5.89,8.61 -6.14,8.36z"/>
    <path class="fil9" d="M1245.3 3061.13c4.72,-19.5 0.87,-40.07 -10.58,-56.55 0,0 2.99,1.87 6.32,6.48 4.22,6.01 7.12,12.83 8.53,20.04 1.33,7.21 1.16,14.61 -0.52,21.75 -0.58,3.01 -1.86,5.85 -3.75,8.28z"/>
    <path class="fil9" d="M1272.34 2993.91c0,0 2.3,1.97 4.35,6.15 5.27,11.15 5.7,23.99 1.19,35.48 -1.79,4.35 -3.58,6.57 -3.92,6.4 2.18,-7.88 3.41,-15.98 3.67,-24.14 -0.75,-8.16 -2.53,-16.18 -5.29,-23.89z"/>
    <path class="fil6" d="M1674.15 3180.02l-625.79 -15.52c-6.49,-0.14 -11.69,-5.45 -11.69,-11.94 -0.04,-6.59 5.27,-11.99 11.86,-12.03l345.18 -4.35 136.47 -422.53c4.56,-14.24 17.99,-23.73 32.92,-23.29l523.69 14.5c18.83,0.88 33.37,16.85 32.48,35.68 -0.15,3.37 -0.81,6.68 -1.94,9.87l-164.61 436.61 -278.66 -7 0.09 0z"/>
    <path class="fil3" d="M1810.79 2926.62c-6.14,-11.34 -32.07,-15.1 -44.52,-5.71 -7.98,4.53 -13.84,12.05 -16.29,20.89 -3.55,14.49 4.18,29.37 18.08,34.8 13.96,3.19 28.47,-2.29 36.84,-13.9 8.79,-9.87 11.08,-23.93 5.89,-36.08z"/>
    <path class="fil4" d="M1304.41 1647.92c6.65,-9.04 21.49,-0.77 26.27,9.47 4.78,10.23 6.99,23.2 17.06,28.06 13.3,6.39 33.69,-5.12 41.96,7.16 6.31,9.38 -2.99,22.18 0,33.18 4.78,19.7 38.72,14.93 48.36,32.75 5.8,10.67 0,23.46 -4.77,34.63 -4.78,11.17 -6.32,26.7 3.92,33.01 10.23,6.31 25.59,-0.94 34.12,7.25 11.26,11.09 -5.63,29.94 -2.14,45.29 2.56,11.34 15.19,17.06 26.53,19.36 11.34,2.3 23.97,4.26 31.47,13.14 16.55,19.53 -7.67,49.64 -0.94,74.37 4.1,14.93 19.62,27.55 15.95,42.65 -4.6,19.19 -35.9,21.83 -40.34,41.11 -3.84,16.37 14.84,35.14 4.52,48.44 -10.32,13.31 -32.32,0.86 -46.57,8.53 -16.38,9.3 -13.3,40 -31.64,44.53 -8.53,1.96 -17.06,-2.91 -25.08,-1.71 -20.21,2.99 -25.59,37.96 -46.06,36.59 -11.94,-0.77 -21.32,-14.93 -32.92,-12.03 -11.6,2.9 -13.13,19.11 -22.94,25.59 -15.35,9.81 -33.18,-10.57 -51.18,-11.34 -11.34,-0.51 -22.35,6.82 -33.52,4.77 -10.69,-3.05 -18.65,-12.04 -20.38,-23.03 -1.49,-10.78 -1.23,-21.72 0.76,-32.4 6.61,-59.68 -3.7,-120 -29.76,-174.09l137.32 -335.28z"/>
    <path class="fil8" d="M1246.58 2285.99l-1.7 -93.39c0,0 92.79,-13.74 114.12,-134.17 10.57,-59.7 9.46,-158.39 5.71,-238.82 -4.18,-88.96 -100.64,-182.35 -172.89,-176.04l-214.34 76.76 0 38.98 6.49 531.03c0.84,71.9 59.36,129.74 131.26,129.73 72.54,0.02 131.37,-58.78 131.38,-131.33 0,-0.91 -0.01,-1.83 -0.03,-2.75z"/>
    <path class="fil4" d="M1327.69 1903.28c-0.04,8.4 -6.79,15.21 -15.18,15.36 -8.22,0.47 -15.29,-5.81 -15.77,-14.04l-0.01 -0.21c0.1,-8.37 6.81,-15.16 15.18,-15.35 8.18,-0.52 15.24,5.68 15.77,13.86l0.01 0.38z"/>
    <path class="fil4" d="M1342.45 1870.45c-1.96,1.96 -13.56,-6.91 -30.19,-7.17 -16.64,-0.25 -29.09,7.85 -30.79,5.8 -1.71,-2.05 1.1,-4.52 6.48,-8.53 7.32,-4.85 15.95,-7.32 24.73,-7.08 8.69,0.22 17.09,3.2 23.97,8.53 5.03,3.84 6.74,7.51 5.8,8.45z"/>
    <path class="fil4" d="M1174.17 1898.93c-0.04,8.4 -6.79,15.21 -15.18,15.36 -8.13,0.53 -15.15,-5.65 -15.67,-13.78l-0.03 -0.47c0.04,-8.39 6.79,-15.21 15.18,-15.35 8.13,-0.52 15.15,5.65 15.68,13.78l0.02 0.46z"/>
    <path class="fil4" d="M1178.6 1870.62c-1.96,1.96 -13.56,-6.91 -30.19,-7.17 -16.63,-0.25 -29.08,7.85 -30.79,5.8 -1.71,-2.04 1.11,-4.52 6.48,-8.53 7.31,-4.88 15.95,-7.38 24.74,-7.16 8.69,0.25 17.07,3.23 23.96,8.53 5.03,4.01 6.74,7.67 5.8,8.53z"/>
    <path class="fil4" d="M1236.86 1995.31c8.81,-2.65 17.93,-4.13 27.12,-4.43 4.27,0 8.53,-1.11 9.13,-4.01 0.4,-4.41 -0.52,-8.83 -2.65,-12.71 -3.84,-10.32 -7.76,-21.24 -12.02,-32.58 -16.63,-46.48 -28.58,-84.61 -26.7,-85.29 1.88,-0.68 17.06,36.5 33.52,82.9l11.51 32.84c2.63,5.29 3.3,11.34 1.88,17.06 -1.3,3.02 -3.9,5.29 -7.08,6.14 -2.37,0.58 -4.8,0.86 -7.25,0.85 -9.15,0.88 -18.37,0.62 -27.46,-0.77z"/>
    <path class="fil9" d="M1244.88 2192.68c-56.88,-0.18 -112.59,-16.12 -160.95,-46.06 0,0 40.43,84.36 161.46,75.23l-0.51 -29.17z"/>
    <path class="fil0" d="M1229.1 2035.32c-6.32,-8.2 -16.4,-12.58 -26.7,-11.6 -7.44,0.52 -14.35,4.06 -19.11,9.81 -4.74,5.55 -5.43,13.51 -1.7,19.78 5.37,6.2 13.96,8.57 21.75,5.97 7.92,-2.65 15.22,-6.85 21.49,-12.36 1.93,-1.29 3.58,-2.94 4.86,-4.87 1.29,-1.84 1.29,-4.29 0,-6.14l-0.59 -0.59z"/>
    <path class="fil4" d="M1187.64 2005.98c2.73,0 2.39,17.91 17.66,31.04 15.27,13.14 34.12,11.43 34.63,13.99 0,1.19 -4.35,3.41 -12.45,3.5 -10.62,-0.02 -20.9,-3.81 -29.01,-10.66 -7.74,-6.58 -12.64,-15.91 -13.64,-26.02 -0.51,-7.59 1.53,-12.03 2.81,-11.85z"/>
    <path class="fil4" d="M1184.06 1805.37c-1.7,4.52 -18.34,2.13 -37.95,4.09 -19.62,1.96 -35.49,7.08 -37.96,2.99 -1.19,-1.96 1.71,-6.23 8.53,-10.49 17.44,-10.55 38.77,-12.49 57.83,-5.29 6.74,3.15 10.32,6.57 9.55,8.7z"/>
    <path class="fil4" d="M1337.16 1822.09c-2.99,3.75 -14.41,-0.43 -28.23,-0.86 -13.82,-0.42 -25.59,2.13 -28.15,-1.87 -1.11,-1.96 0.77,-5.72 5.97,-9.22 14.18,-8.53 32.11,-7.65 45.38,2.22 4.86,4.01 6.4,7.93 5.03,9.73z"/>
    <path class="fil4" d="M1298.78 1666.51c0,1.37 -4.09,2.56 -9.21,2.56 -5.12,0 -9.3,-1.19 -9.3,-2.56 0,-1.36 4.09,-2.56 9.3,-2.56 5.2,0 9.21,1.2 9.21,2.56z"/>
    <path class="fil4" d="M1290.93 1689.8c31.13,-61.75 -39.66,-113.44 -73.35,-130.33 -34.14,-17.67 -74.83,-17.23 -108.58,1.2 -14.84,8.52 -27.8,21.57 -44.43,25.58 -38.55,9.81 -80.09,-29.68 -115.92,-12.45 -29.51,14.07 -34.11,58.25 -64.05,72.07 -14.24,6.74 -30.88,4.61 -46.48,6.23 -15.61,1.62 -33.35,10.23 -35.32,25.59 -2.3,17.05 16.04,35.65 6.83,50.57 -11.35,18.34 -45.04,1.28 -59.71,17.06 -14.67,15.78 2.39,44.95 -14.16,56.38 -12.19,8.53 -32.66,-1.71 -41.62,9.98 -8.95,11.68 8.53,28.23 10.07,43.93 1.53,15.69 -13.31,28.4 -26.27,38.21 -12.97,9.8 -26.53,25.58 -20.3,40.26 7.25,17.05 35.56,18.76 40.43,36.84 4.86,18.08 -19.96,39.06 -8.53,54.76 7.5,10.4 24.73,7.42 34.11,16.03 15.87,14.25 -3.41,41.71 4.44,61.58 10.74,27.47 57.83,15.44 75.91,38.73 9.98,12.96 8.53,34.11 22.77,42.64 14.24,8.53 32.75,-4.69 49.47,-2.73 27.21,3.16 44.01,44.53 70.2,36.42 13.39,-4.09 23.28,-20.98 36.93,-17.65 11.77,2.9 16.37,19.7 28.32,21.58 16.2,2.56 20.72,-21.07 30.36,-34.12 12.96,-17.65 41.2,-18.59 53.14,-36.85 10.74,-16.46 2.98,-38.38 -6.49,-55.61 -9.46,-17.23 -20.72,-36.07 -16.12,-55.18 5.29,-21.75 30.28,-40.6 21.5,-61.16 -9.56,-22.43 -51.61,-20.12 -54.5,-44.43 -2.82,-22.95 35.65,-35.91 31.3,-58.6 -2.9,-15.27 -23.8,-21.24 -27.72,-36.25 -4.61,-17.06 16.54,-32.32 16.29,-50.41 0,-11.51 -8.96,-20.72 -15.27,-30.45 -6.31,-9.72 -9.72,-24.13 -0.94,-31.55 14.08,-11.94 35.14,9.8 52.72,4.52 12.36,-3.67 17.05,-18.25 21.15,-30.37 0,0 32.58,-49.38 90.83,-42.64 58.26,6.73 82.99,30.62 82.99,30.62z"/>
    <path class="fil4" d="M1291.78 1667.54c9.37,10.58 8.38,26.75 -2.2,36.12 -2.13,1.87 -4.55,3.39 -7.18,4.48 -14.5,5.11 -29.85,-4.01 -42.64,-12.54 -12.8,-8.53 -28.75,-17.06 -42.65,-11.09 -25.59,11.09 -18.59,58.08 -44.95,68.23 -10.83,4.18 -22.77,0 -34.12,-2.47 -11.34,-2.47 -25.58,-2.05 -31.72,7.68 -8.53,13.05 2.98,34.11 -8.53,44.52 -4.69,4.43 -12.11,5.29 -16.38,10.15 -6.91,7.76 -1.45,20.38 6.14,27.55 7.59,7.16 17.57,12.71 21.32,22.43 5.98,15.52 -7.08,31.64 -20.38,41.71 -13.31,10.06 -29.25,20.04 -32.16,36.5 -4.6,26.36 28.15,51.86 17.06,76.25 -7.91,13.51 -24.56,19.15 -39.06,13.22 -13.89,-6.31 -25.11,-17.34 -31.64,-31.13 -30.28,-54.33 -21.75,-120.69 -11.69,-181.84 6.57,-40.09 14.24,-81.54 37.7,-114.72 23.46,-33.18 63.03,-56.04 102.86,-69.94 30.15,-11.76 62.62,-16.4 94.85,-13.56 32.52,3.09 62.06,20.3 80.77,47.08l4.6 1.37z"/>
    <path class="fil6" d="M944.99 2215.11c-0.61,0.58 -1.34,1.02 -2.14,1.28 -2.37,0.82 -5,0.53 -7.16,-0.77 -3.46,-2.04 -6.09,-5.24 -7.42,-9.04 -0.95,-2.44 -1.24,-5.08 -0.85,-7.67 0.58,-2.89 1.81,-5.59 3.58,-7.94 4.21,-5.29 9.5,-9.62 15.52,-12.7 6.89,-3.47 13.08,-8.18 18.25,-13.91 2.68,-3.16 4.24,-7.12 4.44,-11.26 -0.16,-4.37 -1.82,-8.55 -4.69,-11.85 -3.24,-3.64 -6.71,-7.06 -10.41,-10.24 -4.16,-3.42 -7.59,-7.66 -10.06,-12.45 -2.53,-5.55 -1.97,-12.02 1.45,-17.06 3.72,-4.7 8.4,-8.53 13.73,-11.26 5.03,-2.9 10.41,-5.45 15.18,-8.52 4.97,-2.9 8.61,-7.61 10.15,-13.14 0.95,-5.83 -1.17,-11.73 -5.63,-15.61 -4.67,-4.51 -9.59,-8.76 -14.75,-12.71 -5.69,-4.23 -10.36,-9.67 -13.65,-15.95 -2.96,-7.08 -2.49,-15.14 1.28,-21.83 3.62,-6.6 8.52,-12.39 14.41,-17.06 5.72,-4.78 11.86,-8.53 17.06,-13.39 5.57,-4.38 9.95,-10.11 12.71,-16.63 2.22,-6.74 1.25,-14.12 -2.64,-20.05 -4.16,-6.33 -8.94,-12.24 -14.25,-17.65 -5.94,-5.72 -10.34,-12.85 -12.79,-20.73 -0.85,-4.32 -0.53,-8.8 0.94,-12.96 1.65,-4.03 4.19,-7.64 7.42,-10.58 6.4,-5.16 13.29,-9.7 20.55,-13.56 7.06,-3.3 13,-8.61 17.06,-15.27 2.94,-6.8 2.23,-14.63 -1.87,-20.81 -4.13,-6.52 -8.85,-12.66 -14.08,-18.34 -5.38,-6.1 -9.19,-13.41 -11.09,-21.32 -0.83,-4.16 -0.51,-8.47 0.94,-12.45 1.67,-3.91 4.46,-7.24 8.02,-9.55 6.96,-3.59 14.69,-5.43 22.52,-5.38 7.13,-0.04 14.22,-0.89 21.15,-2.56 6.43,-1.58 11.58,-6.38 13.56,-12.71 1.96,-6.31 1.79,-13.39 3.58,-20.38 1.66,-7.34 6.47,-13.58 13.14,-17.06 12.79,-6.82 26.86,-4.86 38.98,-4.52 5.97,0.28 11.95,-0.32 17.74,-1.79 5.47,-1.65 10.57,-4.35 15.01,-7.93 8.29,-7.35 16.04,-15.27 23.2,-23.71 6.74,-7.89 15.12,-14.21 24.56,-18.51 8.59,-3.51 17.9,-4.86 27.13,-3.93 14.9,1.34 28.53,8.93 37.53,20.9 5.73,7.45 9.43,16.27 10.74,25.59 0.42,3.2 0.42,6.44 0,9.64 0,0 0,-3.33 -1.19,-9.47 -1.7,-8.93 -5.56,-17.31 -11.26,-24.4 -8.85,-11.28 -22.03,-18.33 -36.33,-19.44 -8.74,-0.7 -17.51,0.71 -25.59,4.09 -8.97,4.25 -16.92,10.39 -23.29,18 -7.2,8.61 -15.01,16.71 -23.37,24.22 -4.76,3.87 -10.24,6.78 -16.12,8.53 -6.15,1.61 -12.49,2.3 -18.85,2.05 -12.45,0 -25.59,-1.88 -37.1,4.26 -5.61,2.9 -9.65,8.16 -11,14.33 -1.62,6.31 -1.45,13.39 -3.67,20.56 -2.29,7.61 -8.41,13.47 -16.12,15.44 -7.22,1.84 -14.64,2.81 -22.09,2.89 -7.12,-0.03 -14.15,1.58 -20.56,4.7 -2.77,1.86 -4.94,4.5 -6.22,7.59 -1.27,3.2 -1.54,6.7 -0.77,10.06 1.85,7.17 5.35,13.8 10.23,19.36 5.42,5.85 10.27,12.18 14.5,18.94 2.11,3.69 3.54,7.74 4.18,11.94 0.5,4.41 -0.24,8.87 -2.13,12.88 -4.31,7.37 -10.68,13.3 -18.34,17.06 -7.05,3.78 -13.73,8.19 -19.96,13.22 -2.72,2.33 -4.88,5.23 -6.31,8.53 -1.17,3.37 -1.46,6.97 -0.85,10.49 2.36,7.11 6.4,13.54 11.77,18.76 5.49,5.63 10.43,11.77 14.76,18.34 4.52,7.01 5.62,15.7 2.98,23.63 -3.01,7.25 -7.83,13.62 -13.99,18.5 -5.71,4.95 -12.02,8.53 -17.06,13.31 -5.41,4.23 -9.96,9.48 -13.39,15.44 -3.28,5.53 -3.76,12.31 -1.28,18.25 3.01,5.73 7.26,10.71 12.46,14.58 5.27,4.07 10.3,8.43 15.09,13.06 5.15,4.86 7.55,11.94 6.4,18.93 -1.72,6.47 -5.92,12.02 -11.68,15.44 -5.21,3.49 -10.58,6.05 -15.53,8.53 -4.93,2.37 -9.26,5.81 -12.71,10.06 -2.83,4.12 -3.35,9.4 -1.36,13.99 4.26,9.12 13.82,14.41 19.87,22.26 3.26,3.8 5.07,8.63 5.12,13.65 -0.29,4.67 -2.08,9.13 -5.12,12.71 -5.43,5.9 -11.95,10.7 -19.19,14.15 -5.81,2.91 -10.98,6.97 -15.18,11.95 -3.44,3.85 -4.51,9.27 -2.81,14.15 1.13,3.53 3.45,6.55 6.56,8.53 1.96,1.25 4.33,1.65 6.57,1.11l1.88 0.17z"/>
    <path class="fil6" d="M740.97 2109.52c0,0 0.93,0 2.64,-0.68 2.38,-1.17 4.09,-3.38 4.61,-5.97 1,-4.2 0.58,-8.61 -1.2,-12.54 -3.17,-5.05 -6.7,-9.88 -10.57,-14.41 -2.28,-2.99 -3.76,-6.51 -4.27,-10.24 -0.43,-4.23 0.89,-8.46 3.67,-11.69 5.37,-6.82 14.16,-10.57 19.62,-18.08 2.72,-3.8 3.56,-8.63 2.3,-13.13 -1.61,-4.89 -4.22,-9.4 -7.68,-13.22 -3.32,-4.18 -7.16,-8.53 -10.49,-13.22 -3.89,-4.99 -5.96,-11.16 -5.88,-17.49 0.63,-6.77 4.42,-12.84 10.23,-16.37 5.72,-3.56 12.05,-5.99 18.68,-7.17 6.74,-1.19 13.39,-1.7 19.96,-3.24 6.4,-1.1 12.33,-4.07 17.06,-8.53 4.32,-5.26 6.17,-12.12 5.12,-18.85 -1.17,-7.29 -3,-14.45 -5.46,-21.41 -2.81,-7.46 -4.14,-15.4 -3.93,-23.37 0.55,-8.8 5.85,-16.61 13.82,-20.38 15.35,-7.85 33.35,-4.27 46.83,-13.31 3.23,-2.05 5.78,-5.02 7.33,-8.53 1.31,-3.64 1.52,-7.59 0.6,-11.34 -2.63,-8.09 -6.06,-15.88 -10.24,-23.28 -2.07,-4.19 -3.31,-8.74 -3.66,-13.4 -0.26,-5.04 1.56,-9.97 5.03,-13.64 7.38,-5.76 16.26,-9.28 25.59,-10.15 8.53,-1.71 17.91,-4.52 19.87,-12.54 1.96,-8.02 -3.33,-17.06 -2.73,-26.78 0.86,-19.72 13.62,-36.94 32.24,-43.5 18.68,-6.06 36.85,2.56 53.05,-1.45 8.03,-1.19 14.88,-6.41 18.17,-13.82 1.66,-8.13 2.26,-16.44 1.79,-24.73 0.2,-4.55 1.51,-8.97 3.84,-12.88 2.53,-3.89 6.23,-6.88 10.58,-8.53 8.32,-2.67 17.26,-2.67 25.58,0 7.93,2.05 15.27,5.12 22.69,6.48 7.21,1.64 14.75,0.89 21.49,-2.13 13.31,-6.14 22.86,-18 34.12,-26.95 21.78,-16.83 49.91,-23.08 76.76,-17.06 21.99,4.2 41.67,16.34 55.27,34.11 10.2,13.27 17.11,28.76 20.13,45.21 1.96,10.32 2.33,20.87 1.11,31.3 -0.36,3.64 -1.07,7.24 -2.13,10.75 0,0 0.68,-3.75 1.19,-10.83 0.85,-10.33 0.21,-20.73 -1.87,-30.88 -3.26,-16.06 -10.25,-31.13 -20.39,-44.01 -31.13,-38.96 -87.68,-45.93 -127.34,-15.69 -10.92,8.53 -20.38,20.81 -34.97,27.63 -7.42,3.39 -15.73,4.32 -23.71,2.65 -8.02,-1.54 -15.44,-4.61 -23.03,-6.57 -7.38,-2.35 -15.3,-2.35 -22.69,0 -3.49,1.23 -6.48,3.56 -8.53,6.65 -1.91,3.33 -2.96,7.08 -3.07,10.92 0.5,8.58 -0.2,17.18 -2.04,25.59 -3.73,8.79 -11.72,15.03 -21.16,16.54 -18.25,4.27 -36.25,-4.26 -52.71,1.45 -16.84,6.01 -28.37,21.62 -29.17,39.49 -0.05,4.44 0.52,8.86 1.71,13.14 1.49,4.71 1.78,9.73 0.85,14.58 -1.43,5.06 -4.97,9.26 -9.72,11.52 -4.31,1.96 -8.83,3.39 -13.48,4.26 -8.48,0.59 -16.65,3.54 -23.54,8.53 -2.63,2.84 -4.02,6.62 -3.84,10.49 0.34,4.1 1.47,8.09 3.33,11.77 4.25,7.71 7.75,15.78 10.49,24.14 1.06,4.63 0.73,9.46 -0.94,13.9 -1.75,4.24 -4.71,7.86 -8.53,10.41 -7.45,4.36 -15.78,6.97 -24.39,7.67 -7.87,0.62 -15.6,2.53 -22.86,5.63 -6.68,3.17 -11.14,9.69 -11.68,17.06 -0.2,7.47 1.05,14.92 3.66,21.92 2.5,7.18 4.35,14.58 5.55,22.09 1.09,7.81 -1.17,15.71 -6.23,21.75 -5.3,5.22 -12.1,8.68 -19.45,9.9 -6.82,1.53 -13.73,2.04 -20.04,3.15 -6.2,1 -12.14,3.19 -17.48,6.48 -5.05,2.95 -8.41,8.1 -9.04,13.91 -0.01,5.6 1.81,11.06 5.2,15.52 3.24,4.69 6.99,8.53 10.32,13.22 3.64,4.14 6.37,8.99 8.01,14.24 1.38,5.26 0.35,10.85 -2.81,15.27 -6.23,8.1 -15.1,11.69 -20.04,17.91 -2.46,2.82 -3.69,6.5 -3.41,10.24 0.45,3.43 1.77,6.69 3.83,9.47 3.84,4.65 7.29,9.62 10.32,14.84 1.77,4.21 2.08,8.9 0.86,13.3 -0.63,2.82 -2.65,5.15 -5.38,6.14 -0.96,0.69 -2.15,0.96 -3.32,0.77z"/>
    <path class="fil6" d="M1450.6 2115.41c1.5,1.1 3.27,1.81 5.12,2.04 5.48,-0.29 10.36,-3.56 12.71,-8.53 3.58,-6.05 1.53,-15.09 0.51,-25.58 -0.42,-5.64 0.34,-11.31 2.21,-16.64 2.17,-5.58 4.03,-11.26 5.55,-17.05 1.68,-6.17 -0.23,-12.76 -4.95,-17.06 -5.72,-4.11 -12.22,-7.01 -19.1,-8.53 -8.1,-1.55 -15.64,-5.23 -21.84,-10.66 -3.03,-3.62 -4.32,-8.4 -3.49,-13.05 1.01,-4.52 3.3,-8.67 6.56,-11.94 5.72,-6.49 13.39,-11.69 16.21,-19.28 2.08,-8.21 -2.42,-16.67 -10.41,-19.53 -7.59,-4.35 -17.06,-5.12 -26.52,-9.3 -4.86,-2.01 -9.05,-5.35 -12.12,-9.64 -2.99,-4.45 -4.52,-9.74 -4.34,-15.1 0.61,-10.1 3.52,-19.93 8.52,-28.74 4.53,-7.96 7.73,-16.59 9.47,-25.59 0.96,-8.61 -2.2,-17.17 -8.53,-23.11 -5.88,-6.23 -13.3,-11.09 -19.61,-17.06 -6.55,-5.77 -11.22,-13.37 -13.4,-21.83 -1.78,-7.83 -2.49,-15.87 -2.13,-23.88 1.43,-13.86 0.42,-27.86 -2.98,-41.37 -3.69,-10.8 -10.12,-20.44 -18.68,-27.98 -6.4,-5.82 -13.84,-10.39 -21.92,-13.47 -7.01,-2.46 -14.33,-3.95 -21.75,-4.44 1.96,-0.2 3.93,-0.2 5.88,0 5.58,0.29 11.09,1.36 16.38,3.16 19.96,6.85 35.78,22.33 43.07,42.13 3.77,13.89 5.02,28.33 3.67,42.65 -0.27,7.68 0.47,15.37 2.22,22.86 2.06,7.72 6.4,14.65 12.45,19.87 6.06,5.71 13.48,10.49 19.87,17.06 7.13,6.87 10.63,16.69 9.47,26.52 -2.47,19.79 -17.82,34.89 -17.66,53.99 -0.11,4.51 1.14,8.93 3.59,12.71 2.57,3.61 6.12,6.42 10.23,8.11 8.53,3.83 18.17,4.6 26.87,9.55 4.44,2.25 8.19,5.67 10.83,9.89 2.74,4.46 3.28,9.93 1.45,14.84 -4.37,7.85 -10.15,14.82 -17.06,20.56 -2.73,2.74 -4.67,6.15 -5.63,9.89 -0.64,3.52 0.29,7.13 2.56,9.9 5.72,4.81 12.55,8.13 19.88,9.63 7.42,1.74 14.36,5.05 20.38,9.73 2.76,2.55 4.74,5.83 5.72,9.47 0.81,3.47 0.81,7.09 0,10.57 -1.59,5.98 -3.56,11.85 -5.89,17.57 -1.93,4.96 -2.74,10.29 -2.39,15.6 0.6,9.9 2.64,19.54 -1.62,26.45 -2.7,5.36 -8.25,8.68 -14.24,8.53 -2.28,-0.31 -4.23,-1.8 -5.12,-3.92z"/>
    <path class="fil10" d="M782.67 2762.32l-2.03 -7.72 0.62 -1.02c0.44,2.92 0.9,5.83 1.41,8.74z"/>
    <path class="fil11" d="M801.53 2833.66l-18.86 -71.34c-0.51,-2.91 -0.97,-5.82 -1.41,-8.74l11.88 -19.48c-0.38,2.12 0.12,3.85 2.07,4.96 1.89,0.97 3.89,1.43 5.87,1.43 4.68,0 9.19,-2.56 11.47,-7.01l0.75 -1.75c4.35,2.52 9.19,3.77 14,3.77 6.4,0 12.76,-2.2 17.89,-6.51 4.94,-4.66 9.66,-11.8 15.53,-13.27l0 112.47c-16.17,1.28 -32.32,2.76 -48.45,4.44 -3.68,0.35 -7.26,0.7 -10.74,1.03zm17.81 -147.37l0.06 -1.89c15.78,-28.68 29.3,-54.71 39.27,-74.73 0.7,-1.4 1.38,-2.78 2.05,-4.12l0 71.83c-2.15,0.8 -4.87,1.18 -7.82,1.18 -9.13,0 -20.42,-3.65 -23.57,-9.95l-9.99 17.68z"/>
    <path class="fil10" d="M801.08 2740.49c-1.98,0 -3.98,-0.46 -5.87,-1.43 -1.95,-1.11 -2.45,-2.84 -2.07,-4.96l26.04 -42.72 0.16 -5.09 9.99 -17.68c3.15,6.3 14.44,9.95 23.57,9.95 2.95,0 5.67,-0.38 7.82,-1.18l0 38.34c-5.87,1.47 -10.59,8.61 -15.53,13.27 -5.13,4.31 -11.49,6.51 -17.89,6.51 -4.81,0 -9.65,-1.25 -14,-3.77l-0.75 1.75c-2.28,4.45 -6.79,7.01 -11.47,7.01z"/>
    <path class="fil11" d="M780.64 2754.6l-0.44 -1.63 1.13 -2.1c8.5,-14.29 17.55,-29.84 26.76,-46.18 3.88,-6.87 7.66,-13.66 11.31,-20.29l-0.22 6.98 -37.92 62.2 -0.62 1.02z"/>
    <path class="fil12" d="M781.33 2750.87l79.39 -148.53 0 3.21c-0.67,1.34 -1.35,2.72 -2.05,4.12 -9.97,20.02 -23.49,46.05 -39.27,74.73 -3.65,6.63 -7.43,13.42 -11.31,20.29 -9.21,16.34 -18.26,31.89 -26.76,46.18z"/>
    <path class="fil12" d="M801.78 2834.59l-0.25 -0.93c3.48,-0.33 7.06,-0.68 10.74,-1.03 16.13,-1.68 32.28,-3.16 48.45,-4.44l0 1.79 -58.94 4.61z"/>
   </g>
  </g>
 </g>
</svg>
