<?xml version="1.0" encoding="UTF-8"?>
<!DOCTYPE svg PUBLIC "-//W3C//DTD SVG 1.1//EN" "http://www.w3.org/Graphics/SVG/1.1/DTD/svg11.dtd">
<!-- Creator: CorelDRAW -->
<svg xmlns="http://www.w3.org/2000/svg" xml:space="preserve" width="48.2854mm" height="14.097mm" version="1.1" style="shape-rendering:geometricPrecision; text-rendering:geometricPrecision; image-rendering:optimizeQuality; fill-rule:evenodd; clip-rule:evenodd"
viewBox="0 0 4828.54 1409.7"
 xmlns:xlink="http://www.w3.org/1999/xlink"
 xmlns:xodm="http://www.corel.com/coreldraw/odm/2003">
 <defs>
  <style type="text/css">
   <![CDATA[
    .fil2 {fill:#65231C}
    .fil0 {fill:#996633}
    .fil3 {fill:#1C1B18;fill-rule:nonzero}
    .fil4 {fill:#65231C;fill-rule:nonzero}
    .fil1 {fill:#996633;fill-rule:nonzero}
   ]]>
  </style>
 </defs>
 <g id="Layer_x0020_1">
  <metadata id="CorelCorpID_0Corel-Layer"/>
  <g id="_105553378306976">
   <g>
    <path class="fil0" d="M501.49 235.16c177.18,0 331.75,96.68 413.81,240.12l-39.9 39.87c-70.64,-134.28 -211.56,-225.87 -373.91,-225.87 -233.16,0 -422.18,188.91 -422.18,421.92 0,233.02 189.02,421.92 422.18,421.92 163.5,0 305.27,-92.88 375.41,-228.71l39.95 39.93c-81.64,144.97 -237.04,242.9 -415.36,242.9 -263.07,0 -476.33,-213.13 -476.33,-476.04 0,-262.9 213.26,-476.04 476.33,-476.04z"/>
    <path class="fil1" d="M555.46 767.63l-24.62 0 0 -93.45 -52.06 0 0 -19.6 128.74 0 0 19.6 -52.06 0 0 93.45zm131.54 1.39c-15.08,0 -27.26,-0.62 -36.54,-1.9 -9.27,-1.26 -16.44,-3.89 -21.51,-7.89 -5.08,-4.01 -8.45,-9.67 -10.11,-17.02 -1.67,-7.34 -2.52,-17.13 -2.52,-29.41l0 -3.2c0,-8.14 0.35,-15.17 1.01,-21.11 0.67,-5.94 1.94,-10.97 3.8,-15.11 1.87,-4.13 4.44,-7.5 7.71,-10.1 3.27,-2.6 7.51,-4.63 12.72,-6.11 5.21,-1.46 11.54,-2.46 19.01,-3 7.48,-0.53 16.29,-0.79 26.43,-0.79l5.01 0c13.74,0 24.8,0.5 33.13,1.5 8.35,1 14.79,2.79 19.32,5.4 4.54,2.6 7.54,6.23 9.02,10.9 1.47,4.68 2.2,10.61 2.2,17.81l0 4.4 -24.03 0 0 -2.2c0,-3.73 -0.37,-6.83 -1.1,-9.3 -0.74,-2.47 -2.46,-4.37 -5.2,-5.7 -2.78,-1.33 -6.82,-2.28 -12.15,-2.81 -5.38,-0.52 -12.71,-0.8 -22.09,-0.8l-3.4 0c-10.72,0 -19.16,0.33 -25.4,1 -6.21,0.67 -10.88,2.28 -14.04,4.81 -3.14,2.53 -5.14,6.3 -6.02,11.3 -0.86,5.01 -1.29,11.84 -1.29,20.51l0 2c0,8.67 0.43,15.48 1.29,20.41 0.88,4.93 2.88,8.64 6.02,11.1 3.16,2.47 7.83,4.04 14.04,4.71 6.24,0.67 14.68,1 25.4,1l3.4 0c9.51,0 17.02,-0.24 22.59,-0.71 5.54,-0.46 9.75,-1.43 12.65,-2.89 2.86,-1.47 4.7,-3.47 5.5,-6 0.81,-2.54 1.21,-5.95 1.21,-10.21l0 -1.81 23.82 0 0 5.21c0,7.07 -0.81,12.91 -2.4,17.51 -1.6,4.6 -4.74,8.26 -9.42,11 -4.67,2.74 -11.24,4.67 -19.71,5.81 -8.48,1.13 -19.6,1.69 -33.34,1.69l-5.01 0zm159.98 0c-15.09,0 -27.27,-0.62 -36.55,-1.9 -9.27,-1.26 -16.44,-3.89 -21.52,-7.89 -5.07,-4.01 -8.44,-9.67 -10.1,-17.02 -1.68,-7.34 -2.51,-17.13 -2.51,-29.41l0 -3.2c0,-8.14 0.33,-15.17 1,-21.11 0.66,-5.94 1.94,-10.97 3.8,-15.11 1.87,-4.13 4.44,-7.5 7.71,-10.1 3.28,-2.6 7.51,-4.63 12.72,-6.11 5.2,-1.46 11.54,-2.46 19.02,-3 7.47,-0.53 16.28,-0.79 26.43,-0.79l5 0c13.75,0 24.79,0.5 33.13,1.5 8.35,1 14.78,2.79 19.32,5.4 4.54,2.6 7.55,6.23 9.02,10.9 1.46,4.68 2.19,10.61 2.19,17.81l0 4.4 -24.02 0 0 -2.2c0,-3.73 -0.37,-6.83 -1.1,-9.3 -0.74,-2.47 -2.47,-4.37 -5.21,-5.7 -2.76,-1.33 -6.81,-2.28 -12.14,-2.81 -5.37,-0.52 -12.71,-0.8 -22.1,-0.8l-3.4 0c-10.71,0 -19.15,0.33 -25.39,1 -6.21,0.67 -10.87,2.28 -14.04,4.81 -3.14,2.53 -5.14,6.3 -6.01,11.3 -0.87,5.01 -1.31,11.84 -1.31,20.51l0 2c0,8.67 0.44,15.48 1.31,20.41 0.87,4.93 2.87,8.64 6.01,11.1 3.17,2.47 7.83,4.04 14.04,4.71 6.24,0.67 14.68,1 25.39,1l3.4 0c9.52,0 17.03,-0.24 22.6,-0.71 5.54,-0.46 9.74,-1.43 12.64,-2.89 2.87,-1.47 4.71,-3.47 5.51,-6 0.8,-2.54 1.2,-5.95 1.2,-10.21l0 -1.81 23.83 0 0 5.21c0,7.07 -0.8,12.91 -2.4,17.51 -1.61,4.6 -4.74,8.26 -9.42,11 -4.67,2.74 -11.24,4.67 -19.72,5.81 -8.47,1.13 -19.58,1.69 -33.33,1.69l-5 0z"/>
    <path class="fil2" d="M501.47 380.1c122.98,0 230.32,66.97 287.48,166.41l-44.85 45.5c-44.06,-89.42 -136.15,-150.97 -242.63,-150.97 -149.31,0 -270.33,120.96 -270.33,270.16 0,149.2 121.02,270.16 270.33,270.16 107.4,0 200.18,-62.6 243.79,-153.3l45.57 44.46c-56.65,101.29 -165,169.78 -289.36,169.78 -182.98,0 -331.32,-148.24 -331.32,-331.1 0,-182.86 148.34,-331.1 331.32,-331.1z"/>
    <path class="fil2" d="M428.72 469.32c-225.83,98.08 -242.48,385.04 19.22,487.8 30.86,10.2 52.43,-14.82 36.84,-36.45 -130.01,-136.17 -117.22,-297.43 -8,-413.5 33.58,-30.85 1.69,-56.91 -48.06,-37.85z"/>
   </g>
   <g>
    <path class="fil2" d="M2680.83 505.14c0.75,-0.33 1.55,-0.5 2.4,-0.5l28.91 0 0 -12.74c0,-8.26 0.79,-16.57 2.8,-24.58 1.87,-7.5 5.17,-14.43 10.2,-20.33 5.19,-6.07 11.84,-10.29 19.27,-13.07 8.97,-3.37 19.22,-4.31 28.74,-4.31 5.72,0 11.44,0.12 17.15,0.44 5.15,0.3 10.29,0.74 15.41,1.35 3.05,0.35 5.32,2.9 5.32,5.97l0 15.27c0,1.81 -0.72,3.38 -2.11,4.57 -1.38,1.19 -3.05,1.65 -4.84,1.36 -4.81,-0.75 -9.65,-1.36 -14.51,-1.67 -4.16,-0.28 -8.32,-0.44 -12.49,-0.44 -6.2,0 -13.15,0.36 -19.17,1.99 -3.51,0.94 -7.07,2.55 -9.55,5.28 -2.47,2.72 -3.76,6.45 -4.43,10 -1.16,6.13 -1.42,12.67 -1.42,18.89l0 12.02 52.91 0c3.31,0 6.01,2.7 6.01,6.01l0 14.84c0,3.3 -2.7,6.01 -6.01,6.01l-52.91 0 0 152.33c0,3.31 -2.71,6.01 -6.02,6.01l-18.33 0c-3.32,0 -6.02,-2.7 -6.02,-6.01l0 -152.33 -28.91 0c-0.85,0 -1.65,-0.18 -2.4,-0.5 -0.73,0.32 -1.54,0.5 -2.39,0.5l-52.91 0 0 152.33c0,3.31 -2.71,6.01 -6.02,6.01l-18.33 0c-3.32,0 -6.02,-2.7 -6.02,-6.01l0 -152.33 -28.9 0c-3.32,0 -6.01,-2.71 -6.01,-6.01l0 -14.84c0,-3.31 2.69,-6.01 6.01,-6.01l28.9 0 0 -12.74c0,-8.26 0.79,-16.57 2.8,-24.58 1.88,-7.5 5.17,-14.43 10.21,-20.33 5.18,-6.07 11.83,-10.29 19.26,-13.07 8.98,-3.37 19.22,-4.31 28.75,-4.31 5.71,0 11.43,0.12 17.14,0.44 5.16,0.3 10.3,0.74 15.43,1.35 3.04,0.35 5.3,2.9 5.3,5.97l0 15.27c0,1.81 -0.71,3.38 -2.11,4.57 -1.38,1.19 -3.05,1.65 -4.84,1.36 -4.81,-0.75 -9.65,-1.36 -14.51,-1.67 -4.15,-0.28 -8.32,-0.44 -12.49,-0.44 -6.2,0 -13.14,0.36 -19.16,1.99 -3.51,0.94 -7.06,2.55 -9.56,5.28 -2.47,2.72 -3.76,6.45 -4.43,10 -1.15,6.13 -1.42,12.67 -1.42,18.89l0 12.02 52.91 0c0.85,0 1.66,0.17 2.39,0.5zm-1528.25 -44.31l-120.57 0c-3.31,0 -6.01,-2.7 -6.01,-6.01l0 -16.58c0,-3.31 2.7,-6.01 6.01,-6.01l273.25 0c3.31,0 6.01,2.7 6.01,6.01l0 16.58c0,3.31 -2.7,6.01 -6.01,6.01l-121 0 0 223c0,3.31 -2.71,6.01 -6.02,6.01l-19.65 0c-3.31,0 -6.01,-2.7 -6.01,-6.01l0 -223zm211.51 64.36c0,-0.01 0,-0.01 0,-0.01 4.82,-5.93 11.14,-10.37 17.98,-13.69 8.37,-4.04 17.78,-6.47 26.9,-8.07 12.81,-2.25 26.47,-2.71 39.46,-2.71l6.11 0c15.07,0 30.88,0.57 45.76,3.14 10.82,1.87 21.93,5.43 30.64,12.34 8.26,6.54 13.52,15.3 16.45,25.35 3.52,12.07 4.38,25.65 4.38,38.18l0 104.11c0,3.31 -2.69,6.01 -6.01,6.01l-18.34 0c-3.31,0 -6.01,-2.7 -6.01,-6.01l0 -96.4c0,-10.1 -0.43,-21.28 -2.69,-31.17 -1.42,-6.2 -4.1,-11.97 -8.98,-16.2 -5.44,-4.7 -13.28,-7 -20.23,-8.22 -12.41,-2.15 -25.9,-2.53 -38.46,-2.53l-6.12 0c-12.37,0 -25.01,0.59 -37.24,2.55 -8.69,1.38 -17.53,4.01 -24.92,8.9 -6.39,4.21 -10.94,9.88 -13.92,16.94 -3.76,8.95 -4.76,19.67 -4.76,29.29l0 96.84c0,3.31 -2.71,6.01 -6.02,6.01l-18.33 0c-3.32,0 -6.01,-2.7 -6.01,-6.01l0 -246.03c0,-3.31 2.69,-6.01 6.01,-6.01l18.33 0c3.31,0 6.02,2.7 6.02,6.01l0 87.39zm256.66 78.72c0.06,10.21 0.67,21.33 3.09,31.15 1.72,6.98 4.98,13.13 10.62,17.71 6.47,5.27 15.62,7.74 23.72,8.97 14.5,2.2 30.07,2.55 44.71,2.55l6.55 0c13.49,0 27.55,-0.27 40.94,-1.92 7.22,-0.88 16.07,-2.52 22.5,-6.06 4.16,-2.28 7.39,-5.4 9.04,-9.89 2.14,-5.82 2.69,-12.71 2.69,-18.86l0 -3.05c0,-3.32 2.7,-6.02 6.01,-6.02l17.9 0c3.32,0 6.02,2.7 6.02,6.02l0 3.48c0,10.39 -1.19,21.5 -5.27,31.14 -3.79,8.93 -10.07,15.86 -18.35,20.89 -9.58,5.82 -21.42,8.68 -32.43,10.2 -15.67,2.16 -31.94,2.67 -47.75,2.67l-7.85 0c-18.02,0 -37.19,-0.62 -54.96,-3.79 -12.6,-2.26 -25.39,-6.58 -35.32,-14.91 -9.39,-7.87 -15.05,-18.27 -17.92,-30.09 -3.52,-14.51 -4.32,-30.67 -4.32,-45.55l0 -4.37c0,-15.04 0.82,-31.5 4.55,-46.12 2.98,-11.63 8.61,-21.99 17.91,-29.73 9.74,-8.13 22.17,-12.25 34.53,-14.27 17.07,-2.78 35.21,-3.35 52.48,-3.35l7.41 0c16.76,0 34.35,0.52 50.92,3.13 11.53,1.81 23.6,5.35 33.15,12.27 8.72,6.32 14.46,14.97 17.51,25.26 3.5,11.79 4.4,25.01 4.4,37.26l0 19.26c0,3.32 -2.7,6.02 -6.01,6.02l-186.47 0zm501.16 88.98c-24.72,0 -50.79,-0.6 -75.29,-4.21 -16.53,-2.43 -33.68,-7.63 -46.66,-18.58 -12.43,-10.5 -19.33,-24.93 -22.73,-40.62 -4.49,-20.8 -5.36,-43.95 -5.36,-65.18l0 -6.97c0,-21.03 0.87,-43.95 5.37,-64.53 3.39,-15.55 10.23,-29.87 22.48,-40.37 12.86,-11.02 30.13,-16.38 46.6,-19.04 24.51,-3.95 50.8,-4.65 75.59,-4.65l10.04 0c23.44,0 47.61,0.38 70.92,2.86 14.15,1.51 30.52,4.42 43.21,11.14 10.44,5.54 18.21,13.72 22.07,24.95 4.1,11.9 5.13,25.66 5.13,38.16l0 4.8c0,3.31 -2.69,6.02 -6.01,6.02l-19.21 0c-3.32,0 -6.01,-2.71 -6.01,-6.02l0 -3.92c0,-8.26 -0.53,-17.77 -3,-25.69 -1.93,-6.14 -6.68,-10.17 -12.27,-13.01 -9.37,-4.77 -22.62,-6.68 -32.97,-7.66 -20.5,-1.93 -41.71,-2.16 -62.29,-2.16l-9.17 0c-21.45,0 -44.04,0.39 -65.33,3.22 -11.93,1.59 -25.28,5.06 -34.65,13.02 -8.66,7.36 -12.97,17.85 -15,28.79 -3.3,17.75 -3.83,37.38 -3.83,55.39l0 4.37c0,17.96 0.47,37.49 3.61,55.22 1.93,10.9 6.18,21.22 14.78,28.53 9.39,7.97 22.76,11.55 34.71,13.24 21.33,3.02 44.19,3.43 65.71,3.43l9.17 0c21.32,0 43.25,-0.22 64.49,-2.16 10.62,-0.96 24.44,-2.86 34.08,-7.68 5.78,-2.89 10.63,-7 12.68,-13.27 2.64,-8.08 3.2,-17.84 3.2,-26.28l0 -3.49c0,-3.31 2.71,-6.01 6.02,-6.01l18.77 0c3.32,0 6.01,2.7 6.01,6.01l0 5.24c0,12.65 -1.22,26.52 -5.86,38.39 -4.4,11.27 -12.67,19.33 -23.4,24.77 -13.13,6.65 -29.7,9.57 -44.21,11.09 -23.35,2.44 -47.45,2.86 -70.9,2.86l-10.49 0zm302.49 0c-18.15,0 -37.33,-0.51 -55.27,-3.34 -12.45,-1.96 -25.28,-5.94 -35.17,-14.01 -9.44,-7.69 -14.96,-18.16 -17.76,-29.86 -3.54,-14.75 -4.32,-31.14 -4.32,-46.26l0 -5.67c0,-15.03 0.76,-31.41 4.32,-46.06 2.83,-11.64 8.39,-21.99 17.76,-29.63 9.89,-8.07 22.72,-12.04 35.17,-14 17.94,-2.84 37.12,-3.35 55.27,-3.35l8.3 0c18.15,0 37.32,0.51 55.28,3.35 12.43,1.96 25.27,5.93 35.17,14 9.37,7.65 14.86,18.02 17.55,29.71 3.37,14.67 4.08,30.97 4.08,45.98l0 5.67c0,15.1 -0.73,31.42 -4.08,46.19 -2.67,11.75 -8.13,22.24 -17.55,29.93 -9.9,8.07 -22.74,12.05 -35.17,14.01 -17.96,2.83 -37.13,3.34 -55.28,3.34l-8.3 0zm417.2 -88.98c0.07,10.21 0.66,21.33 3.09,31.15 1.71,6.98 4.97,13.13 10.61,17.71 6.47,5.27 15.62,7.74 23.73,8.97 14.5,2.2 30.06,2.55 44.71,2.55l6.54 0c13.51,0 27.55,-0.27 40.96,-1.92 7.2,-0.88 16.05,-2.52 22.49,-6.06 4.16,-2.28 7.39,-5.4 9.04,-9.89 2.13,-5.82 2.68,-12.71 2.68,-18.86l0 -3.05c0,-3.32 2.71,-6.02 6.02,-6.02l17.89 0c3.32,0 6.02,2.7 6.02,6.02l0 3.48c0,10.39 -1.19,21.5 -5.27,31.14 -3.79,8.93 -10.06,15.86 -18.35,20.89 -9.58,5.82 -21.42,8.68 -32.42,10.2 -15.67,2.16 -31.94,2.67 -47.74,2.67l-7.86 0c-18.02,0 -37.2,-0.62 -54.97,-3.79 -12.6,-2.26 -25.38,-6.58 -35.32,-14.91 -9.39,-7.87 -15.05,-18.27 -17.91,-30.09 -3.53,-14.51 -4.32,-30.67 -4.32,-45.55l0 -4.37c0,-15.04 0.81,-31.5 4.55,-46.12 2.98,-11.63 8.62,-21.99 17.9,-29.73 9.75,-8.13 22.18,-12.25 34.53,-14.27 17.08,-2.78 35.21,-3.35 52.48,-3.35l7.43 0c16.75,0 34.33,0.52 50.9,3.13 11.54,1.81 23.6,5.35 33.16,12.27 8.71,6.32 14.47,14.97 17.52,25.26 3.48,11.79 4.38,25.01 4.38,37.26l0 19.26c0,3.32 -2.7,6.02 -6.01,6.02l-186.46 0zm256.21 0c0.06,10.21 0.67,21.33 3.09,31.15 1.72,6.98 4.98,13.13 10.62,17.71 6.47,5.27 15.62,7.74 23.72,8.97 14.5,2.2 30.07,2.55 44.71,2.55l6.55 0c13.49,0 27.55,-0.27 40.94,-1.92 7.22,-0.88 16.07,-2.52 22.51,-6.06 4.16,-2.28 7.38,-5.4 9.03,-9.89 2.14,-5.82 2.69,-12.71 2.69,-18.86l0 -3.05c0,-3.32 2.71,-6.02 6.01,-6.02l17.9 0c3.31,0 6.02,2.7 6.02,6.02l0 3.48c0,10.39 -1.2,21.5 -5.28,31.14 -3.78,8.93 -10.06,15.86 -18.34,20.89 -9.59,5.82 -21.42,8.68 -32.43,10.2 -15.67,2.16 -31.94,2.67 -47.74,2.67l-7.86 0c-18.02,0 -37.19,-0.62 -54.96,-3.79 -12.6,-2.26 -25.39,-6.58 -35.32,-14.91 -9.39,-7.87 -15.05,-18.27 -17.92,-30.09 -3.52,-14.51 -4.32,-30.67 -4.32,-45.55l0 -4.37c0,-15.04 0.82,-31.5 4.55,-46.12 2.97,-11.63 8.62,-21.99 17.91,-29.73 9.74,-8.13 22.16,-12.25 34.53,-14.27 17.07,-2.78 35.21,-3.35 52.48,-3.35l7.41 0c16.76,0 34.35,0.52 50.92,3.13 11.53,1.81 23.6,5.35 33.15,12.27 8.72,6.32 14.47,14.97 17.51,25.26 3.49,11.79 4.4,25.01 4.4,37.26l0 19.26c0,3.32 -2.7,6.02 -6.02,6.02l-186.46 0zm501.17 88.98c-24.73,0 -50.8,-0.6 -75.3,-4.21 -16.53,-2.43 -33.68,-7.63 -46.66,-18.58 -12.43,-10.5 -19.33,-24.93 -22.72,-40.62 -4.5,-20.8 -5.38,-43.95 -5.38,-65.18l0 -6.97c0,-21.03 0.89,-43.95 5.38,-64.53 3.39,-15.55 10.23,-29.87 22.48,-40.37 12.86,-11.02 30.13,-16.38 46.6,-19.04 24.51,-3.95 50.8,-4.65 75.6,-4.65l10.03 0c23.44,0 47.61,0.38 70.92,2.86 14.15,1.51 30.53,4.42 43.21,11.14 10.44,5.54 18.21,13.72 22.07,24.95 4.1,11.9 5.13,25.66 5.13,38.16l0 4.8c0,3.31 -2.69,6.02 -6.01,6.02l-19.21 0c-3.32,0 -6.01,-2.71 -6.01,-6.02l0 -3.92c0,-8.26 -0.53,-17.77 -3,-25.69 -1.93,-6.14 -6.68,-10.17 -12.26,-13.01 -9.38,-4.77 -22.63,-6.68 -32.98,-7.66 -20.5,-1.93 -41.71,-2.16 -62.29,-2.16l-9.17 0c-21.46,0 -44.04,0.39 -65.33,3.22 -11.93,1.59 -25.28,5.06 -34.65,13.02 -8.66,7.36 -12.97,17.85 -15,28.79 -3.3,17.75 -3.83,37.38 -3.83,55.39l0 4.37c0,17.96 0.47,37.49 3.62,55.22 1.92,10.9 6.18,21.22 14.77,28.53 9.38,7.97 22.76,11.55 34.71,13.24 21.34,3.02 44.19,3.43 65.71,3.43l9.17 0c21.32,0 43.25,-0.22 64.49,-2.16 10.62,-0.96 24.44,-2.86 34.08,-7.68 5.78,-2.89 10.63,-7 12.68,-13.27 2.64,-8.08 3.2,-17.84 3.2,-26.28l0 -3.49c0,-3.31 2.71,-6.01 6.02,-6.01l18.77 0c3.32,0 6.01,2.7 6.01,6.01l0 5.24c0,12.65 -1.22,26.52 -5.86,38.39 -4.4,11.27 -12.67,19.33 -23.4,24.77 -13.12,6.65 -29.7,9.57 -44.21,11.09 -23.35,2.44 -47.45,2.86 -70.91,2.86l-10.47 0zm222.17 -3.05l-18.33 0c-3.32,0 -6.02,-2.7 -6.02,-6.01l0 -246.03c0,-3.31 2.7,-6.01 6.02,-6.01l18.33 0c3.31,0 6.02,2.7 6.02,6.01l0 246.03c0,3.31 -2.71,6.01 -6.02,6.01zm78.56 0l-18.33 0c-3.31,0 -6.01,-2.7 -6.01,-6.01l0 -173.61c0,-3.32 2.7,-6.02 6.01,-6.02l18.33 0c3.32,0 6.02,2.7 6.02,6.02l0 173.61c0,3.31 -2.7,6.01 -6.02,6.01zm0 -218.11l-18.33 0c-3.31,0 -6.01,-2.69 -6.01,-6.01l0 -27.92c0,-3.31 2.7,-6.01 6.01,-6.01l18.33 0c3.32,0 6.02,2.7 6.02,6.01l0 27.92c0,3.32 -2.7,6.01 -6.02,6.01zm241.91 201.1c-0.37,0.39 -0.75,0.77 -1.15,1.14 -5.41,5.24 -12.07,8.94 -19.09,11.57 -8.63,3.23 -18.11,4.88 -27.26,5.8 -12.34,1.23 -24.88,1.55 -37.27,1.55l-6.55 0c-16.55,0 -34.08,-0.62 -50.39,-3.58 -11.91,-2.17 -23.82,-6.4 -33.02,-14.49 -8.97,-7.9 -14.1,-18.49 -16.73,-30 -3.34,-14.61 -4.08,-30.68 -4.08,-45.62l0 -4.8c0,-14.84 0.74,-30.9 4.08,-45.41 2.63,-11.36 7.68,-21.85 16.47,-29.73 9.08,-8.15 20.99,-12.38 32.84,-14.53 16.36,-2.97 34.01,-3.58 50.62,-3.59l5.9 -0.42c0.14,-0.01 0.28,-0.01 0.43,-0.01 12.74,0 25.66,0.31 38.34,1.55 9.17,0.92 18.72,2.51 27.41,5.64 7.08,2.54 13.75,6.22 19.07,11.62 0.27,0.28 0.55,0.57 0.82,0.86l0 -10.16c0,-3.27 2.61,-5.94 5.87,-6.02l17.89 -0.43c1.69,-0.05 3.15,0.53 4.36,1.71 1.2,1.17 1.81,2.62 1.81,4.3l0 235.55c0,3.31 -2.7,6.02 -6.02,6.02l-18.33 0c-3.31,0 -6.02,-2.71 -6.02,-6.02l0 -72.5zm262.77 -4.15c-4.96,5.93 -11.31,10.35 -18.28,13.61 -8.44,3.96 -17.9,6.33 -27.07,7.9 -12.71,2.18 -26.11,2.7 -38.99,2.7l-6.11 0c-15.08,0 -30.98,-0.62 -45.83,-3.36 -10.96,-2.03 -22.01,-5.88 -30.68,-13.07 -8.18,-6.78 -13.42,-15.71 -16.35,-25.87 -3.49,-12.13 -4.38,-25.73 -4.38,-38.3l0 -102.07c0,-3.32 2.7,-6.02 6.01,-6.02l18.33 0c3.32,0 6.03,2.7 6.03,6.02l0 93.35c0,10.48 0.4,21.87 2.5,32.17 1.32,6.51 4.01,12.51 9.02,17 5.54,4.94 13.29,7.47 20.46,8.82 12.43,2.34 26.19,2.73 38.82,2.73l6.11 0c12.28,0 24.87,-0.57 37.01,-2.54 8.62,-1.4 17.38,-3.99 24.79,-8.72 6.43,-4.12 10.91,-9.82 13.82,-16.86 3.8,-9.16 4.79,-20.17 4.79,-29.98l0 -95.97c0,-3.32 2.7,-6.02 6.01,-6.02l18.34 0c3.31,0 6.01,2.7 6.01,6.02l0 173.61c0,3.31 -2.7,6.01 -6.01,6.01l-18.34 0c-3.31,0 -6.01,-2.7 -6.01,-6.01l0 -15.15zm101.08 -64.77c0.07,10.21 0.68,21.33 3.09,31.15 1.73,6.98 4.98,13.13 10.62,17.71 6.47,5.27 15.62,7.74 23.72,8.97 14.51,2.2 30.07,2.55 44.71,2.55l6.55 0c13.5,0 27.55,-0.27 40.95,-1.92 7.22,-0.88 16.06,-2.52 22.5,-6.06 4.15,-2.28 7.38,-5.4 9.04,-9.89 2.14,-5.82 2.68,-12.71 2.68,-18.86l0 -3.05c0,-3.32 2.7,-6.02 6.02,-6.02l17.89 0c3.32,0 6.03,2.7 6.03,6.02l0 3.48c0,10.39 -1.2,21.5 -5.28,31.14 -3.79,8.93 -10.06,15.86 -18.35,20.89 -9.58,5.82 -21.42,8.68 -32.42,10.2 -15.67,2.16 -31.94,2.67 -47.75,2.67l-7.86 0c-18.02,0 -37.19,-0.62 -54.96,-3.79 -12.6,-2.26 -25.39,-6.58 -35.32,-14.91 -9.39,-7.87 -15.04,-18.27 -17.92,-30.09 -3.52,-14.51 -4.31,-30.67 -4.31,-45.55l0 -4.37c0,-15.04 0.81,-31.5 4.55,-46.12 2.97,-11.63 8.61,-21.99 17.91,-29.73 9.73,-8.13 22.16,-12.25 34.53,-14.27 17.06,-2.78 35.2,-3.35 52.47,-3.35l7.42 0c16.76,0 34.34,0.52 50.92,3.13 11.53,1.81 23.59,5.35 33.14,12.27 8.72,6.32 14.47,14.97 17.52,25.26 3.49,11.79 4.39,25.01 4.39,37.26l0 19.26c0,3.32 -2.7,6.02 -6.01,6.02l-186.47 0zm-2722.6 -27.73l0 -0.1c0,-7.92 -0.5,-16.67 -2.62,-24.35 -1.5,-5.41 -4.48,-9.61 -9.14,-12.76 -6.23,-4.21 -15.07,-6.23 -22.39,-7.33 -13.6,-2.01 -28.17,-2.33 -41.9,-2.33l-6.11 0c-14.27,0 -29.31,0.32 -43.45,2.34 -7.59,1.09 -16.76,3.18 -23.13,7.68 -5.08,3.59 -8.08,8.54 -9.66,14.52 -1.86,7.04 -2.69,14.83 -3.07,22.33l161.47 0zm649.38 88.11c15.06,0 30.96,-0.29 45.89,-2.34 7.95,-1.1 17.29,-3.38 23.67,-8.53 5.59,-4.53 8.48,-10.97 9.88,-17.9 2.33,-11.43 2.73,-24.24 2.73,-35.88l0 -5.67c0,-11.64 -0.4,-24.45 -2.73,-35.89 -1.4,-6.93 -4.29,-13.36 -9.88,-17.89 -6.38,-5.15 -15.72,-7.44 -23.67,-8.54 -14.93,-2.05 -30.82,-2.34 -45.89,-2.34l-7.85 0c-15.05,0 -30.95,0.29 -45.88,2.34 -7.95,1.1 -17.29,3.39 -23.66,8.54 -5.59,4.53 -8.49,10.97 -9.9,17.89 -2.32,11.44 -2.7,24.25 -2.7,35.89l0 5.67c0,11.64 0.38,24.45 2.7,35.88 1.41,6.93 4.31,13.37 9.9,17.9 6.37,5.15 15.71,7.43 23.66,8.53 14.93,2.05 30.83,2.34 45.88,2.34l7.85 0zm571.46 -88.11l0 -0.1c0,-7.92 -0.5,-16.67 -2.62,-24.35 -1.5,-5.41 -4.47,-9.61 -9.13,-12.76 -6.24,-4.21 -15.08,-6.23 -22.4,-7.33 -13.6,-2.01 -28.17,-2.33 -41.9,-2.33l-6.11 0c-14.27,0 -29.31,0.32 -43.45,2.34 -7.58,1.09 -16.76,3.18 -23.13,7.68 -5.07,3.59 -8.08,8.54 -9.66,14.52 -1.86,7.04 -2.69,14.83 -3.07,22.33l161.47 0zm256.21 0l0 -0.1c0,-7.92 -0.5,-16.67 -2.61,-24.35 -1.5,-5.41 -4.48,-9.61 -9.14,-12.76 -6.23,-4.21 -15.07,-6.23 -22.39,-7.33 -13.61,-2.01 -28.17,-2.33 -41.9,-2.33l-6.11 0c-14.27,0 -29.31,0.32 -43.45,2.34 -7.59,1.09 -16.76,3.18 -23.13,7.68 -5.07,3.59 -8.08,8.54 -9.66,14.52 -1.86,7.04 -2.7,14.83 -3.07,22.33l161.46 0zm800.86 88.11c14.49,0 29.76,-0.32 44.11,-2.34 8.06,-1.14 17.03,-3.51 23.45,-8.74 5.73,-4.66 8.81,-11.11 10.37,-18.22 2.5,-11.44 2.91,-24.54 2.91,-36.23l0 -4.79c0,-11.58 -0.43,-24.45 -2.91,-35.8 -1.54,-7 -4.58,-13.42 -10.3,-17.93 -6.46,-5.11 -15.5,-7.46 -23.52,-8.59 -14.35,-2.02 -29.62,-2.34 -44.11,-2.34l-7.42 0c-14.02,0 -29.06,0.33 -42.92,2.55 -7.57,1.21 -16.19,3.61 -22.15,8.67 -5.38,4.57 -8.05,11.1 -9.33,17.91 -2.14,11.4 -2.52,23.95 -2.52,35.53l0 4.79c0,11.7 0.36,24.45 2.52,35.98 1.3,6.9 4.01,13.46 9.4,18.17 5.92,5.19 14.47,7.63 22.08,8.84 13.86,2.22 28.9,2.54 42.92,2.54l7.42 0zm606.81 -88.11l0 -0.1c0,-7.92 -0.5,-16.67 -2.62,-24.35 -1.5,-5.41 -4.47,-9.61 -9.14,-12.76 -6.24,-4.21 -15.06,-6.23 -22.39,-7.33 -13.6,-2.01 -28.16,-2.33 -41.89,-2.33l-6.11 0c-14.27,0 -29.32,0.32 -43.46,2.34 -7.59,1.09 -16.76,3.18 -23.12,7.68 -5.08,3.59 -8.08,8.54 -9.66,14.52 -1.87,7.04 -2.7,14.83 -3.07,22.33l161.46 0z"/>
    <path class="fil3" d="M1429.91 920.89c9.95,1.86 17.55,5.77 22.78,11.73 5.24,5.97 7.86,13.72 7.86,23.26 0,11.8 -4.32,20.88 -12.93,27.24 -8.63,6.36 -21.42,9.54 -38.39,9.54l-62.07 0 0 -139.16 58.09 0c15.11,0 26.89,3.08 35.3,9.24 8.43,6.17 12.63,14.94 12.63,26.34 0,7.95 -2.08,14.65 -6.26,20.08 -4.18,5.44 -9.85,9.35 -17.01,11.73zm-72.61 -58.64l0 55.47 47.55 0c12.2,0 21.58,-2.36 28.15,-7.06 6.56,-4.71 9.85,-11.64 9.85,-20.78 0,-9.01 -3.29,-15.87 -9.85,-20.58 -6.57,-4.7 -15.95,-7.05 -28.15,-7.05l-47.55 0zm51.93 121.66c13.52,0 23.77,-2.35 30.73,-7.05 6.96,-4.71 10.44,-11.96 10.44,-21.77 0,-9.81 -3.48,-17.03 -10.44,-21.67 -6.96,-4.64 -17.21,-6.96 -30.73,-6.96l-51.93 0 0 57.45 51.93 0zm172.07 -40.74l-89.32 0c0.27,8.08 2.32,15.26 6.17,21.56 3.84,6.3 9.05,11.17 15.61,14.61 6.57,3.45 13.97,5.17 22.19,5.17 6.76,0 13.03,-1.22 18.8,-3.68 5.76,-2.45 10.57,-6.06 14.42,-10.83l5.77 6.56c-4.51,5.43 -10.18,9.61 -17.01,12.52 -6.83,2.92 -14.23,4.38 -22.18,4.38 -10.35,0 -19.57,-2.25 -27.66,-6.76 -8.09,-4.5 -14.41,-10.73 -18.99,-18.68 -4.58,-7.96 -6.87,-17.04 -6.87,-27.25 0,-10.07 2.16,-19.11 6.47,-27.13 4.31,-8.03 10.24,-14.28 17.8,-18.79 7.57,-4.51 16.05,-6.76 25.46,-6.76 9.43,0 17.88,2.22 25.37,6.66 7.5,4.44 13.39,10.64 17.71,18.59 4.31,7.96 6.46,16.97 6.46,27.04l-0.2 2.79zm-49.34 -46.33c-7.29,0 -13.85,1.63 -19.69,4.87 -5.83,3.25 -10.51,7.82 -14.02,13.72 -3.51,5.9 -5.54,12.55 -6.07,19.98l79.57 0c-0.39,-7.43 -2.38,-14.06 -5.96,-19.88 -3.58,-5.84 -8.29,-10.41 -14.12,-13.72 -5.85,-3.32 -12.41,-4.97 -19.71,-4.97zm112.4 -8.75c12.87,0 22.74,3.28 29.65,9.85 6.89,6.56 10.34,16.2 10.34,28.92l0 65.8 -9.55 0 0 -18.49c-3.31,6.1 -8.16,10.84 -14.52,14.22 -6.37,3.38 -14,5.07 -22.88,5.07 -11.53,0 -20.66,-2.72 -27.35,-8.15 -6.7,-5.44 -10.05,-12.6 -10.05,-21.47 0,-8.62 3.08,-15.61 9.25,-20.98 6.17,-5.36 16.02,-8.05 29.54,-8.05l35.61 0 0 -8.35c0,-9.68 -2.62,-17.03 -7.86,-22.07 -5.23,-5.03 -12.89,-7.55 -22.97,-7.55 -6.9,0 -13.5,1.19 -19.79,3.58 -6.31,2.38 -11.64,5.57 -16.02,9.54l-4.97 -7.16c5.17,-4.64 11.41,-8.25 18.69,-10.83 7.3,-2.59 14.93,-3.88 22.88,-3.88zm-5.57 97.22c8.62,0 15.96,-1.99 21.99,-5.97 6.03,-3.97 10.57,-9.74 13.62,-17.29l0 -19.48 -35.4 0c-10.22,0 -17.62,1.85 -22.19,5.56 -4.58,3.71 -6.86,8.81 -6.86,15.31 0,6.76 2.52,12.1 7.56,16 5.04,3.91 12.13,5.87 21.28,5.87zm138.06 0.79c-2.52,2.39 -5.66,4.22 -9.45,5.47 -3.78,1.26 -7.72,1.89 -11.84,1.89 -9.01,0 -15.97,-2.49 -20.88,-7.46 -4.91,-4.96 -7.36,-11.89 -7.36,-20.77l0 -67.79 -19.1 0 0 -8.56 19.1 0 0 -22.66 9.94 0 0 22.66 33.03 0 0 8.56 -33.03 0 0 66.79c0,6.77 1.63,11.9 4.88,15.42 3.25,3.51 8.06,5.26 14.42,5.26 6.51,0 11.87,-1.92 16.12,-5.76l4.17 6.95zm111.61 -42.93l-89.32 0c0.26,8.08 2.31,15.26 6.16,21.56 3.85,6.3 9.06,11.17 15.62,14.61 6.56,3.45 13.95,5.17 22.18,5.17 6.76,0 13.02,-1.22 18.8,-3.68 5.77,-2.45 10.57,-6.06 14.42,-10.83l5.76 6.56c-4.5,5.43 -10.17,9.61 -17,12.52 -6.83,2.92 -14.22,4.38 -22.19,4.38 -10.33,0 -19.55,-2.25 -27.64,-6.76 -8.09,-4.5 -14.43,-10.73 -19,-18.68 -4.58,-7.96 -6.86,-17.04 -6.86,-27.25 0,-10.07 2.15,-19.11 6.46,-27.13 4.31,-8.03 10.25,-14.28 17.8,-18.79 7.56,-4.51 16.05,-6.76 25.47,-6.76 9.41,0 17.87,2.22 25.36,6.66 7.49,4.44 13.4,10.64 17.71,18.59 4.31,7.96 6.46,16.97 6.46,27.04l-0.19 2.79zm-49.34 -46.33c-7.3,0 -13.86,1.63 -19.69,4.87 -5.84,3.25 -10.52,7.82 -14.03,13.72 -3.52,5.9 -5.54,12.55 -6.07,19.98l79.58 0c-0.41,-7.43 -2.39,-14.06 -5.98,-19.88 -3.58,-5.84 -8.28,-10.41 -14.12,-13.72 -5.83,-3.32 -12.4,-4.97 -19.69,-4.97zm131.1 -8.75c12.99,0 23.27,3.77 30.83,11.34 7.56,7.55 11.34,18.41 11.34,32.59l0 60.64 -9.95 0 0 -59.84c0,-11.66 -2.95,-20.54 -8.85,-26.64 -5.9,-6.1 -14.15,-9.15 -24.76,-9.15 -12.2,0 -21.83,3.65 -28.85,10.94 -7.03,7.29 -10.55,17.1 -10.55,29.43l0 55.26 -9.94 0 0 -103.78 9.55 0 0 22.47c3.58,-7.29 8.91,-12.99 16.01,-17.09 7.09,-4.11 15.49,-6.17 25.17,-6.17zm196.34 105.57c-13.66,0 -25.96,-3.05 -36.9,-9.15 -10.94,-6.09 -19.57,-14.51 -25.86,-25.24 -6.3,-10.74 -9.45,-22.8 -9.45,-36.19 0,-13.39 3.15,-25.45 9.45,-36.18 6.29,-10.74 14.92,-19.15 25.86,-25.25 10.94,-6.1 23.24,-9.15 36.9,-9.15 10.09,0 19.36,1.63 27.86,4.87 8.48,3.25 15.71,8.06 21.68,14.42l-6.37 6.56c-11.14,-11 -25.4,-16.5 -42.77,-16.5 -11.67,0 -22.28,2.65 -31.83,7.95 -9.55,5.3 -17.04,12.62 -22.48,21.97 -5.44,9.34 -8.15,19.78 -8.15,31.31 0,11.53 2.71,21.97 8.15,31.31 5.44,9.35 12.93,16.67 22.48,21.97 9.55,5.31 20.16,7.96 31.83,7.96 17.24,0 31.5,-5.58 42.77,-16.71l6.37 6.56c-5.97,6.37 -13.23,11.2 -21.78,14.52 -8.56,3.31 -17.81,4.97 -27.76,4.97zm116.18 -0.2c-9.81,0 -18.67,-2.25 -26.56,-6.76 -7.89,-4.5 -14.09,-10.77 -18.59,-18.78 -4.52,-8.02 -6.77,-17.08 -6.77,-27.15 0,-10.07 2.25,-19.11 6.77,-27.13 4.5,-8.03 10.7,-14.28 18.59,-18.79 7.89,-4.51 16.75,-6.76 26.56,-6.76 9.81,0 18.67,2.25 26.55,6.76 7.9,4.51 14.1,10.76 18.61,18.79 4.51,8.02 6.76,17.06 6.76,27.13 0,10.07 -2.25,19.13 -6.76,27.15 -4.51,8.01 -10.71,14.28 -18.61,18.78 -7.88,4.51 -16.74,6.76 -26.55,6.76zm0 -8.95c7.96,0 15.08,-1.85 21.39,-5.57 6.29,-3.71 11.26,-8.87 14.91,-15.5 3.65,-6.62 5.47,-14.18 5.47,-22.67 0,-8.48 -1.82,-16.03 -5.47,-22.66 -3.65,-6.63 -8.62,-11.79 -14.91,-15.51 -6.31,-3.7 -13.43,-5.57 -21.39,-5.57 -7.96,0 -15.09,1.87 -21.38,5.57 -6.31,3.72 -11.28,8.88 -14.93,15.51 -3.65,6.63 -5.47,14.18 -5.47,22.66 0,8.49 1.82,16.05 5.47,22.67 3.65,6.63 8.62,11.79 14.93,15.5 6.29,3.72 13.42,5.57 21.38,5.57zm113.98 -131.61c-12.99,0 -19.48,6.96 -19.48,20.88l0 15.1 33.21 0 0 8.56 -33.02 0 0 95.22 -9.94 0 0 -95.22 -19.11 0 0 -8.56 19.11 0 0 -15.89c0,-8.76 2.52,-15.71 7.55,-20.88 5.04,-5.17 12.14,-7.76 21.29,-7.76 3.98,0 7.79,0.57 11.44,1.7 3.64,1.12 6.66,2.81 9.05,5.06l-3.97 7.56c-4.25,-3.85 -9.62,-5.77 -16.13,-5.77zm65.26 0c-13,0 -19.5,6.96 -19.5,20.88l0 15.1 33.23 0 0 8.56 -33.03 0 0 95.22 -9.95 0 0 -95.22 -19.09 0 0 -8.56 19.09 0 0 -15.89c0,-8.76 2.53,-15.71 7.57,-20.88 5.04,-5.17 12.13,-7.76 21.28,-7.76 3.98,0 7.79,0.57 11.44,1.7 3.65,1.12 6.66,2.81 9.05,5.06l-3.98 7.56c-4.24,-3.85 -9.61,-5.77 -16.11,-5.77zm119.96 90.27l-89.32 0c0.26,8.08 2.32,15.26 6.16,21.56 3.85,6.3 9.06,11.17 15.62,14.61 6.57,3.45 13.95,5.17 22.18,5.17 6.77,0 13.03,-1.22 18.8,-3.68 5.77,-2.45 10.57,-6.06 14.42,-10.83l5.77 6.56c-4.51,5.43 -10.18,9.61 -17.01,12.52 -6.83,2.92 -14.22,4.38 -22.18,4.38 -10.34,0 -19.56,-2.25 -27.65,-6.76 -8.09,-4.5 -14.43,-10.73 -19,-18.68 -4.58,-7.96 -6.86,-17.04 -6.86,-27.25 0,-10.07 2.16,-19.11 6.46,-27.13 4.32,-8.03 10.25,-14.28 17.81,-18.79 7.56,-4.51 16.04,-6.76 25.46,-6.76 9.41,0 17.87,2.22 25.36,6.66 7.5,4.44 13.4,10.64 17.71,18.59 4.31,7.96 6.46,16.97 6.46,27.04l-0.19 2.79zm-49.34 -46.33c-7.3,0 -13.86,1.63 -19.69,4.87 -5.84,3.25 -10.52,7.82 -14.03,13.72 -3.52,5.9 -5.54,12.55 -6.07,19.98l79.58 0c-0.4,-7.43 -2.39,-14.06 -5.97,-19.88 -3.58,-5.84 -8.29,-10.41 -14.13,-13.72 -5.83,-3.32 -12.39,-4.97 -19.69,-4.97zm168.1 46.33l-89.32 0c0.26,8.08 2.32,15.26 6.17,21.56 3.84,6.3 9.05,11.17 15.61,14.61 6.57,3.45 13.97,5.17 22.18,5.17 6.77,0 13.04,-1.22 18.8,-3.68 5.77,-2.45 10.58,-6.06 14.43,-10.83l5.77 6.56c-4.52,5.43 -10.18,9.61 -17.01,12.52 -6.83,2.92 -14.23,4.38 -22.18,4.38 -10.35,0 -19.57,-2.25 -27.66,-6.76 -8.09,-4.5 -14.42,-10.73 -18.99,-18.68 -4.58,-7.96 -6.87,-17.04 -6.87,-27.25 0,-10.07 2.16,-19.11 6.46,-27.13 4.32,-8.03 10.25,-14.28 17.81,-18.79 7.56,-4.51 16.05,-6.76 25.46,-6.76 9.42,0 17.88,2.22 25.37,6.66 7.5,4.44 13.39,10.64 17.7,18.59 4.31,7.96 6.47,16.97 6.47,27.04l-0.2 2.79zm-49.34 -46.33c-7.29,0 -13.86,1.63 -19.69,4.87 -5.84,3.25 -10.51,7.82 -14.02,13.72 -3.52,5.9 -5.55,12.55 -6.08,19.98l79.58 0c-0.39,-7.43 -2.38,-14.06 -5.96,-19.88 -3.58,-5.84 -8.29,-10.41 -14.13,-13.72 -5.84,-3.32 -12.4,-4.97 -19.7,-4.97zm79.18 96.62c-2.25,0 -4.21,-0.83 -5.87,-2.49 -1.66,-1.65 -2.48,-3.67 -2.48,-6.06 0,-2.39 0.82,-4.37 2.48,-5.97 1.66,-1.59 3.62,-2.38 5.87,-2.38 2.26,0 4.21,0.79 5.87,2.38 1.66,1.6 2.49,3.58 2.49,5.97 0,2.39 -0.83,4.41 -2.49,6.06 -1.66,1.66 -3.61,2.49 -5.87,2.49zm149.8 0.2c-17.64,0 -31.34,-5.11 -41.09,-15.31 -9.74,-10.21 -14.62,-25.11 -14.62,-44.73l0 -80.12 10.15 0 0 79.72c0,17.09 3.91,29.89 11.74,38.38 7.83,8.47 19.16,12.72 34.02,12.72 14.72,0 25.99,-4.25 33.82,-12.72 7.82,-8.49 11.73,-21.29 11.73,-38.38l0 -79.72 10.15 0 0 80.12c0,19.62 -4.91,34.52 -14.73,44.73 -9.81,10.2 -23.53,15.31 -41.17,15.31zm150.79 -105.57c12.99,0 23.27,3.77 30.83,11.34 7.56,7.55 11.34,18.41 11.34,32.59l0 60.64 -9.95 0 0 -59.84c0,-11.66 -2.95,-20.54 -8.84,-26.64 -5.91,-6.1 -14.16,-9.15 -24.78,-9.15 -12.2,0 -21.81,3.65 -28.84,10.94 -7.03,7.29 -10.54,17.1 -10.54,29.43l0 55.26 -9.95 0 0 -103.78 9.55 0 0 22.47c3.58,-7.29 8.91,-12.99 16.01,-17.09 7.1,-4.11 15.49,-6.17 25.17,-6.17zm135.27 0c9.68,0 18.44,2.22 26.26,6.66 7.82,4.44 13.96,10.67 18.41,18.69 4.44,8.02 6.65,17.13 6.65,27.33 0,10.21 -2.21,19.29 -6.65,27.25 -4.45,7.95 -10.59,14.18 -18.41,18.68 -7.82,4.51 -16.58,6.76 -26.26,6.76 -9.28,0 -17.67,-2.22 -25.16,-6.66 -7.49,-4.45 -13.3,-10.63 -17.41,-18.59l0 24.45 -9.55 0 0 -147.52 9.95 0 0 67.41c4.11,-7.69 9.88,-13.69 17.3,-18 7.43,-4.3 15.72,-6.46 24.87,-6.46zm-0.59 96.42c7.95,0 15.12,-1.85 21.48,-5.57 6.37,-3.71 11.37,-8.87 15.02,-15.5 3.65,-6.62 5.47,-14.18 5.47,-22.67 0,-8.48 -1.82,-16.03 -5.47,-22.66 -3.65,-6.63 -8.65,-11.79 -15.02,-15.51 -6.36,-3.7 -13.53,-5.57 -21.48,-5.57 -7.96,0 -15.09,1.87 -21.39,5.57 -6.3,3.72 -11.27,8.88 -14.92,15.51 -3.65,6.63 -5.47,14.18 -5.47,22.66 0,8.49 1.82,16.05 5.47,22.67 3.65,6.63 8.62,11.79 14.92,15.5 6.3,3.72 13.43,5.57 21.39,5.57zm170.48 -41.34l-89.32 0c0.26,8.08 2.32,15.26 6.17,21.56 3.84,6.3 9.05,11.17 15.61,14.61 6.57,3.45 13.97,5.17 22.18,5.17 6.77,0 13.04,-1.22 18.8,-3.68 5.77,-2.45 10.58,-6.06 14.43,-10.83l5.77 6.56c-4.51,5.43 -10.18,9.61 -17.01,12.52 -6.83,2.92 -14.23,4.38 -22.18,4.38 -10.35,0 -19.57,-2.25 -27.66,-6.76 -8.09,-4.5 -14.41,-10.73 -18.99,-18.68 -4.57,-7.96 -6.87,-17.04 -6.87,-27.25 0,-10.07 2.16,-19.11 6.47,-27.13 4.31,-8.03 10.24,-14.28 17.8,-18.79 7.56,-4.51 16.05,-6.76 25.46,-6.76 9.43,0 17.88,2.22 25.37,6.66 7.5,4.44 13.39,10.64 17.7,18.59 4.32,7.96 6.47,16.97 6.47,27.04l-0.2 2.79zm-49.34 -46.33c-7.28,0 -13.85,1.63 -19.69,4.87 -5.84,3.25 -10.5,7.82 -14.02,13.72 -3.52,5.9 -5.55,12.55 -6.07,19.98l79.57 0c-0.39,-7.43 -2.38,-14.06 -5.96,-19.88 -3.58,-5.84 -8.29,-10.41 -14.13,-13.72 -5.83,-3.32 -12.4,-4.97 -19.7,-4.97zm112.4 -8.75c12.87,0 22.75,3.28 29.65,9.85 6.89,6.56 10.34,16.2 10.34,28.92l0 65.8 -9.55 0 0 -18.49c-3.31,6.1 -8.16,10.84 -14.52,14.22 -6.37,3.38 -13.99,5.07 -22.88,5.07 -11.54,0 -20.66,-2.72 -27.35,-8.15 -6.7,-5.44 -10.05,-12.6 -10.05,-21.47 0,-8.62 3.08,-15.61 9.25,-20.98 6.17,-5.36 16.02,-8.05 29.54,-8.05l35.61 0 0 -8.35c0,-9.68 -2.62,-17.03 -7.86,-22.07 -5.23,-5.03 -12.89,-7.55 -22.97,-7.55 -6.9,0 -13.5,1.19 -19.79,3.58 -6.3,2.38 -11.65,5.57 -16.02,9.54l-4.97 -7.16c5.17,-4.64 11.4,-8.25 18.7,-10.83 7.29,-2.59 14.92,-3.88 22.87,-3.88zm-5.57 97.22c8.62,0 15.96,-1.99 21.99,-5.97 6.03,-3.97 10.57,-9.74 13.62,-17.29l0 -19.48 -35.4 0c-10.22,0 -17.61,1.85 -22.19,5.56 -4.58,3.71 -6.86,8.81 -6.86,15.31 0,6.76 2.52,12.1 7.56,16 5.04,3.91 12.13,5.87 21.28,5.87zm138.06 0.79c-2.52,2.39 -5.67,4.22 -9.45,5.47 -3.78,1.26 -7.72,1.89 -11.84,1.89 -9.01,0 -15.97,-2.49 -20.88,-7.46 -4.91,-4.96 -7.36,-11.89 -7.36,-20.77l0 -67.79 -19.1 0 0 -8.56 19.1 0 0 -22.66 9.94 0 0 22.66 33.03 0 0 8.56 -33.03 0 0 66.79c0,6.77 1.63,11.9 4.88,15.42 3.25,3.51 8.06,5.26 14.42,5.26 6.5,0 11.87,-1.92 16.11,-5.76l4.18 6.95zm111.61 -42.93l-89.33 0c0.27,8.08 2.32,15.26 6.17,21.56 3.85,6.3 9.05,11.17 15.62,14.61 6.56,3.45 13.95,5.17 22.18,5.17 6.77,0 13.02,-1.22 18.8,-3.68 5.77,-2.45 10.57,-6.06 14.41,-10.83l5.78 6.56c-4.51,5.43 -10.18,9.61 -17.01,12.52 -6.83,2.92 -14.22,4.38 -22.19,4.38 -10.33,0 -19.55,-2.25 -27.64,-6.76 -8.09,-4.5 -14.43,-10.73 -19,-18.68 -4.58,-7.96 -6.86,-17.04 -6.86,-27.25 0,-10.07 2.15,-19.11 6.46,-27.13 4.31,-8.03 10.25,-14.28 17.81,-18.79 7.56,-4.51 16.04,-6.76 25.46,-6.76 9.41,0 17.87,2.22 25.36,6.66 7.49,4.44 13.39,10.64 17.71,18.59 4.3,7.96 6.46,16.97 6.46,27.04l-0.19 2.79zm-49.34 -46.33c-7.3,0 -13.86,1.63 -19.7,4.87 -5.83,3.25 -10.51,7.82 -14.02,13.72 -3.52,5.9 -5.54,12.55 -6.07,19.98l79.57 0c-0.4,-7.43 -2.38,-14.06 -5.97,-19.88 -3.58,-5.84 -8.29,-10.41 -14.12,-13.72 -5.84,-3.32 -12.4,-4.97 -19.69,-4.97zm131.1 -8.75c12.99,0 23.27,3.77 30.83,11.34 7.56,7.55 11.34,18.41 11.34,32.59l0 60.64 -9.95 0 0 -59.84c0,-11.66 -2.95,-20.54 -8.85,-26.64 -5.9,-6.1 -14.15,-9.15 -24.77,-9.15 -12.2,0 -21.82,3.65 -28.84,10.94 -7.03,7.29 -10.54,17.1 -10.54,29.43l0 55.26 -9.95 0 0 -103.78 9.55 0 0 22.47c3.58,-7.29 8.91,-12.99 16.01,-17.09 7.09,-4.11 15.49,-6.17 25.17,-6.17zm164.12 -25.45l-50.14 0 0 -9.14 110.41 0 0 9.14 -50.13 0 0 130.02 -10.14 0 0 -130.02zm111.39 25.45c12.87,0 22.75,3.28 29.65,9.85 6.89,6.56 10.35,16.2 10.35,28.92l0 65.8 -9.56 0 0 -18.49c-3.31,6.1 -8.15,10.84 -14.52,14.22 -6.36,3.38 -13.99,5.07 -22.88,5.07 -11.53,0 -20.65,-2.72 -27.35,-8.15 -6.7,-5.44 -10.04,-12.6 -10.04,-21.47 0,-8.62 3.08,-15.61 9.25,-20.98 6.16,-5.36 16.01,-8.05 29.53,-8.05l35.61 0 0 -8.35c0,-9.68 -2.62,-17.03 -7.85,-22.07 -5.24,-5.03 -12.9,-7.55 -22.98,-7.55 -6.89,0 -13.49,1.19 -19.79,3.58 -6.31,2.38 -11.64,5.57 -16.02,9.54l-4.97 -7.16c5.17,-4.64 11.41,-8.25 18.69,-10.83 7.3,-2.59 14.93,-3.88 22.88,-3.88zm-5.57 97.22c8.62,0 15.96,-1.99 21.99,-5.97 6.03,-3.97 10.57,-9.74 13.62,-17.29l0 -19.48 -35.4 0c-10.22,0 -17.61,1.85 -22.18,5.56 -4.58,3.71 -6.87,8.81 -6.87,15.31 0,6.76 2.52,12.1 7.56,16 5.04,3.91 12.13,5.87 21.28,5.87zm112.8 8.15c-8.35,0 -16.32,-1.26 -23.88,-3.78 -7.55,-2.52 -13.45,-5.7 -17.7,-9.54l4.58 -7.96c4.24,3.58 9.71,6.56 16.41,8.96 6.7,2.38 13.69,3.57 20.99,3.57 10.48,0 18.2,-1.72 23.17,-5.17 4.98,-3.44 7.46,-8.21 7.46,-14.31 0,-4.37 -1.35,-7.83 -4.08,-10.34 -2.71,-2.52 -6.06,-4.37 -10.04,-5.57 -3.98,-1.19 -9.48,-2.45 -16.51,-3.77 -8.22,-1.46 -14.85,-3.05 -19.89,-4.78 -5.04,-1.71 -9.36,-4.5 -12.94,-8.34 -3.58,-3.85 -5.36,-9.15 -5.36,-15.91 0,-8.22 3.41,-15.01 10.24,-20.38 6.83,-5.36 16.54,-8.05 29.14,-8.05 6.63,0 13.2,0.93 19.69,2.78 6.51,1.86 11.81,4.31 15.92,7.36l-4.57 7.95c-4.25,-3.05 -9.09,-5.36 -14.52,-6.96 -5.45,-1.59 -11.02,-2.38 -16.71,-2.38 -9.68,0 -16.98,1.79 -21.89,5.36 -4.91,3.58 -7.36,8.29 -7.36,14.12 0,4.64 1.39,8.25 4.18,10.84 2.78,2.58 6.2,4.5 10.25,5.77 4.04,1.25 9.71,2.61 17,4.07 8.09,1.46 14.63,3.02 19.6,4.67 4.97,1.65 9.18,4.34 12.63,8.06 3.45,3.7 5.17,8.8 5.17,15.29 0,8.63 -3.58,15.52 -10.74,20.69 -7.16,5.17 -17.24,7.75 -30.24,7.75zm120.35 -7.36c-2.52,2.39 -5.66,4.22 -9.45,5.47 -3.77,1.26 -7.72,1.89 -11.83,1.89 -9.02,0 -15.98,-2.49 -20.89,-7.46 -4.91,-4.96 -7.36,-11.89 -7.36,-20.77l0 -67.79 -19.09 0 0 -8.56 19.09 0 0 -22.66 9.94 0 0 22.66 33.03 0 0 8.56 -33.03 0 0 66.79c0,6.77 1.63,11.9 4.88,15.42 3.25,3.51 8.06,5.26 14.42,5.26 6.51,0 11.87,-1.92 16.12,-5.76l4.17 6.95zm111.61 -42.93l-89.32 0c0.26,8.08 2.32,15.26 6.16,21.56 3.85,6.3 9.06,11.17 15.62,14.61 6.57,3.45 13.95,5.17 22.18,5.17 6.77,0 13.03,-1.22 18.8,-3.68 5.77,-2.45 10.57,-6.06 14.42,-10.83l5.77 6.56c-4.51,5.43 -10.18,9.61 -17.01,12.52 -6.83,2.92 -14.22,4.38 -22.18,4.38 -10.34,0 -19.56,-2.25 -27.65,-6.76 -8.09,-4.5 -14.43,-10.73 -19,-18.68 -4.58,-7.96 -6.86,-17.04 -6.86,-27.25 0,-10.07 2.16,-19.11 6.46,-27.13 4.32,-8.03 10.25,-14.28 17.81,-18.79 7.56,-4.51 16.04,-6.76 25.46,-6.76 9.41,0 17.87,2.22 25.36,6.66 7.5,4.44 13.4,10.64 17.71,18.59 4.31,7.96 6.46,16.97 6.46,27.04l-0.19 2.79zm-49.34 -46.33c-7.3,0 -13.86,1.63 -19.69,4.87 -5.84,3.25 -10.52,7.82 -14.03,13.72 -3.52,5.9 -5.54,12.55 -6.07,19.98l79.58 0c-0.4,-7.43 -2.39,-14.06 -5.97,-19.88 -3.58,-5.84 -8.29,-10.41 -14.13,-13.72 -5.83,-3.32 -12.39,-4.97 -19.69,-4.97zm79.18 96.62c-2.25,0 -4.22,-0.83 -5.87,-2.49 -1.66,-1.65 -2.48,-3.67 -2.48,-6.06 0,-2.39 0.82,-4.37 2.48,-5.97 1.65,-1.59 3.62,-2.38 5.87,-2.38 2.26,0 4.21,0.79 5.87,2.38 1.65,1.6 2.49,3.58 2.49,5.97 0,2.39 -0.84,4.41 -2.49,6.06 -1.66,1.66 -3.61,2.49 -5.87,2.49z"/>
   </g>
   <path class="fil4" d="M4710.73 412.74l0 12.75 -21.57 0 0 59.34 -15.15 0 0 -59.34 -21.67 0 0 -12.75 58.39 0zm22.59 72.09l-14.05 0 0 -72.09 21.92 0 13.11 56.68 13 -56.68 21.67 0 0 72.09 -14.04 0 0 -48.76c0,-1.41 0.02,-3.38 0.05,-5.9 0.03,-2.52 0.05,-4.47 0.05,-5.84l-13.64 60.5 -14.62 0 -13.55 -60.5c0,1.37 0.01,3.32 0.05,5.84 0.03,2.52 0.05,4.49 0.05,5.9l0 48.76z"/>
  </g>
 </g>
</svg>
