<?xml version="1.0" encoding="UTF-8"?>
<!DOCTYPE svg PUBLIC "-//W3C//DTD SVG 1.1//EN" "http://www.w3.org/Graphics/SVG/1.1/DTD/svg11.dtd">
<!-- Creator: CorelDRAW -->
<svg xmlns="http://www.w3.org/2000/svg" xml:space="preserve" width="50.8mm" height="50.8mm" version="1.1" style="shape-rendering:geometricPrecision; text-rendering:geometricPrecision; image-rendering:optimizeQuality; fill-rule:evenodd; clip-rule:evenodd"
viewBox="0 0 5080 5080"
 xmlns:xlink="http://www.w3.org/1999/xlink"
 xmlns:xodm="http://www.corel.com/coreldraw/odm/2003">
 <defs>
  <style type="text/css">
   <![CDATA[
    .fil0 {fill:none}
    .fil1 {fill:#2856A2}
    .fil9 {fill:#2F5C90}
    .fil8 {fill:#895844}
    .fil4 {fill:#8B5643}
    .fil5 {fill:#8E5543}
    .fil7 {fill:#965242}
    .fil6 {fill:#9D5042}
    .fil3 {fill:#E93338}
    .fil2 {fill:#EC3238}
   ]]>
  </style>
 </defs>
 <g id="Layer_x0020_1">
  <metadata id="CorelCorpID_0Corel-Layer"/>
  <rect class="fil0" width="5080" height="5080"/>
  <g id="_105553526439264">
   <path class="fil1" d="M317.18 3908.79c1.53,25.12 17.95,55.95 25.74,77.29l43.85 115.78c49.51,135.74 115.35,274.55 194.06,381.53 23.05,31.31 71.77,70.47 105.4,87.96 107.41,55.82 363.14,40.12 485.25,40.12l2743.05 0c110.39,0 232.95,4.36 334.91,-6.48 99.73,-10.61 182.58,-32.2 253.17,-125.13 110.72,-145.73 194.64,-393.41 266.22,-578.11 -17.96,6.55 -99.34,123.08 -122.74,148.61l-87.51 98.35c-165.35,168.42 -191.79,167.64 -427.91,167.64l-3159.89 0c-273.57,0 -285.86,5.15 -483.81,-203.73l-169.79 -203.83z"/>
   <path class="fil2" d="M2535.29 3009.33c28.98,0 44.1,-3 70.71,-8.85 79.34,-17.42 146.18,-86.27 195.35,-168.92 14.27,-23.99 21.26,-40.16 31.02,-70.08 33.14,-101.56 23.69,-70.44 35.37,-176.77 6.59,-60.19 -9.01,-138.4 -20.37,-184.19 -38.92,-156.96 -168.83,-290.64 -276.06,-290.64 -76.72,0 -118.09,-1.54 -190.18,49.52 -105.8,74.91 -189.05,269.21 -173.24,418.12 9.43,88.71 0.6,80.22 31.81,174.88 9.32,28.28 16.45,44.25 28.6,66.34 6.54,11.87 11.16,19.02 18.34,31.2 59.83,101.54 151.96,159.39 248.65,159.39z"/>
   <path class="fil1" d="M1572.93 3044.45c-10.33,-6.25 -9.14,-5.24 -23.31,-10.22 -19.97,-7.03 -19,-8.61 -33.32,-3.85l-15.42 0c0.48,-0.04 1.23,0.12 1.33,0.84l50.31 61.32c29.09,34.01 52.92,42.76 76.58,83.93 0.37,0.65 1.07,2.42 1.45,3.03l5.36 7.03c0.53,0.52 1.94,1.5 2.53,2l91.23 106.63c0.53,0.54 1.77,1.79 2.32,2.35 4.49,4.52 11.42,10.2 17.32,16.2 14.57,14.87 19.47,23.24 35.28,37.42 35.45,31.79 44.22,66.66 75.11,101.32l38.68 43.05c0.61,0.56 2,1.55 2.66,2.05l40.74 41.43c0.82,1.01 1.95,2.39 2.79,3.35l14.32 15.11 160.86 -181.93c11.92,-9.75 6.29,-2.33 13.61,-13.77 0.33,-0.51 6.31,-11.51 9.07,-15.72 3.61,-5.49 9.53,-12.87 12.11,-15.28 0.64,-0.6 2.03,-1.77 2.71,-2.34 0.73,-0.64 2.24,-1.62 2.98,-2.23l67.83 -82.28c2.14,-2.75 7.38,-10.14 7.7,-10.55 8.7,-10.94 43.74,-51.42 59.93,-60.24l17.9 -20.14c0.45,-0.67 1.58,-2.29 2.08,-2.94l45.27 -48.56c0.71,-0.65 2.21,-1.69 2.91,-2.32l37.63 -40.65c-257.17,0 -514.79,-6.09 -771.95,0.12 -5.29,0.13 -22.05,1.32 -25.91,0.88 -7.31,-0.79 -8.67,-0.54 -15.63,-3.8 -14.92,-6.97 -4.63,1.98 -15.06,-11.24zm1940.16 0c-1.26,2.07 -3.8,0.92 -5.01,4.29 -7.32,20.79 -194.18,9.75 -205.97,9.75 -209.3,0 -418.6,0 -627.89,0 0.64,9.72 2.48,-0.89 12.6,8.58 5.26,4.92 6.69,7.59 8.23,9.32l41.47 45.58c0.89,0.99 2,2.38 2.88,3.35l5.82 5.86c12.67,13.03 15.61,29.28 23.82,38.69 6.82,7.82 10.79,-5.65 49.7,48.21 5.63,7.82 4.44,6.29 11.9,15.26l44.34 51.29c13.55,16.26 13.78,24.7 31.79,38.27l34.53 31.01c0.97,0.77 2.38,1.63 3.35,2.4l81.45 93.26c0.38,0.54 1.36,2 1.75,2.51l88.98 105.39c18.93,-0.76 26.45,-10.58 38.77,-25.19 2.66,-3.15 6.18,-7.5 8.35,-10.2l8.32 -10.36c36.48,-45.92 17.63,-8.59 47.25,-52.53 7.28,-10.83 2.01,-2.75 8.66,-10.11l5.92 -5.94c0.82,-0.9 1.97,-2.15 2.81,-3.05 0.84,-0.96 1.95,-2.33 2.81,-3.27l54.88 -66.29c0.72,-0.62 2.22,-1.62 2.95,-2.22 1.14,-0.93 4.74,-3.37 5.81,-4.27 0.62,-0.51 1.98,-1.57 2.56,-2.09l67.82 -93.64c0.83,-1.09 1.96,-2.46 2.8,-3.54l28.25 -25.69c1.13,-0.63 2.68,-1.28 3.72,-1.9 13.88,-8.13 17.84,-28.26 28.92,-43.66l45.21 -50.3c0.43,-0.56 1.59,-1.96 2.04,-2.5l43.13 -44.56c0.44,-0.46 1.52,-1.75 1.92,-2.22l62.22 -75.08c6.89,-14.21 6.33,5.85 3.52,-16.55 -12.66,7.68 -23.31,17.98 -38.31,25.01 -17.13,8.04 -29.52,8.3 -44.07,17.13zm-1399.84 -2185.36c9.71,38.08 32.56,30.31 10.34,35.17 32.91,6.31 21.46,21.26 73.6,73.66l8.34 9.72c0.78,1.02 1.84,2.51 2.62,3.56 0.77,1.02 1.79,2.55 2.56,3.59 0.75,1.04 1.79,2.54 2.55,3.58l71.93 93.18c16.18,32.01 3.07,9.7 20.82,26.62l212.17 268.11c0.22,0.38 1.14,1.86 1.67,2.83 21.77,0 40.5,-6.33 56.58,14.03 3.91,10.74 -5.18,-1.37 8.58,9.74 46.33,37.51 49.28,37.51 95.65,100.92 77.64,106.17 653.84,885.6 662.63,908.23l90.69 -101.66c0.78,-1.09 1.75,-2.74 2.57,-3.82 0.8,-1.09 1.84,-2.61 2.68,-3.67 0.83,-1.06 1.97,-2.44 2.85,-3.44 3.56,-4.08 14.12,-13.1 17.8,-17.19 0.77,-0.83 1.89,-2.25 2.63,-3.1l18.87 -22.27c0.78,-0.91 2.01,-2.25 2.76,-3.18 23.11,-28.2 5.86,-17.74 46.74,-57.95l59.67 -78.1c0.82,-1.05 1.89,-2.48 2.69,-3.55 0.85,-1.09 1.84,-2.61 2.66,-3.71 0.84,-1.12 1.79,-2.71 2.62,-3.84l43.59 -53.45c0.27,-0.39 7.68,-10.54 7.86,-10.75l57.09 -66.46c0.43,-0.6 1.56,-2.09 1.99,-2.7l11.42 -15.73c0.43,-0.6 1.57,-2.11 1.99,-2.69 0.41,-0.57 1.5,-2.07 1.91,-2.64 0.39,-0.54 1.45,-2.05 1.85,-2.59 4.15,-5.8 4.58,-7.96 9.95,-13.4l23.98 -15.96c-19.02,-13.75 -158.48,-212.88 -186.57,-251.23 -63.88,-87.22 -123.98,-169.27 -187.85,-256.49 -86.05,-117.51 -461.25,-645.65 -568.14,-763.15 -111.43,-122.48 -225.59,-249.48 -396.45,-142.84 -62.03,38.72 -115.54,98.66 -167.39,157.95 -18.32,20.94 -31.13,43.94 -49.32,66.16l-84.98 109.1c-7.9,13.99 -5.96,6.64 -6.2,19.41zm1646.9 1061.09l-23.98 15.96c-5.37,5.44 -5.8,7.6 -9.95,13.4 -0.4,0.54 -1.46,2.05 -1.85,2.59 -0.41,0.57 -1.5,2.07 -1.91,2.64 -0.42,0.58 -1.56,2.09 -1.99,2.69l-11.42 15.73c-0.43,0.61 -1.56,2.1 -1.99,2.7l-57.09 66.46c-0.18,0.21 -7.59,10.36 -7.86,10.75l-43.59 53.45c-0.83,1.13 -1.78,2.72 -2.62,3.84 -0.82,1.1 -1.81,2.62 -2.66,3.71 -0.8,1.07 -1.87,2.5 -2.69,3.55l-59.67 78.1c-40.88,40.21 -23.63,29.75 -46.74,57.95 -0.75,0.93 -1.98,2.27 -2.76,3.18l-18.87 22.27c-0.74,0.85 -1.86,2.27 -2.63,3.1 -3.68,4.09 -14.24,13.11 -17.8,17.19 -0.88,1 -2.02,2.38 -2.85,3.44 -0.84,1.06 -1.88,2.58 -2.68,3.67 -0.82,1.08 -1.79,2.73 -2.57,3.82l-90.69 101.66 191.69 258.25c58.31,79.61 160.9,227.74 60.49,332.03 2.81,22.4 3.37,2.34 -3.52,16.55l-62.22 75.08c-0.4,0.47 -1.48,1.76 -1.92,2.22l-43.13 44.56c-0.45,0.54 -1.61,1.94 -2.04,2.5l-45.21 50.3c-11.08,15.4 -15.04,35.53 -28.92,43.66 -1.04,0.62 -2.59,1.27 -3.72,1.9l-28.25 25.69c-0.84,1.08 -1.97,2.45 -2.8,3.54l-67.82 93.64c-0.58,0.52 -1.94,1.58 -2.56,2.09 -1.07,0.9 -4.67,3.34 -5.81,4.27 -0.73,0.6 -2.23,1.6 -2.95,2.22l-54.88 66.29c-0.86,0.94 -1.97,2.31 -2.81,3.27 -0.84,0.9 -1.99,2.15 -2.81,3.05l-5.92 5.94c-6.65,7.36 -1.38,-0.72 -8.66,10.11 -29.62,43.94 -10.77,6.61 -47.25,52.53l-8.32 10.36c-2.17,2.7 -5.69,7.05 -8.35,10.2 -12.32,14.61 -19.84,24.43 -38.77,25.19l-88.98 -105.39c-0.39,-0.51 -1.37,-1.97 -1.75,-2.51l-81.45 -93.26c-0.97,-0.77 -2.38,-1.63 -3.35,-2.4l-34.53 -31.01c-18.01,-13.57 -18.24,-22.01 -31.79,-38.27l-44.34 -51.29c-7.46,-8.97 -6.27,-7.44 -11.9,-15.26 -38.91,-53.86 -42.88,-40.39 -49.7,-48.21 -8.21,-9.41 -11.15,-25.66 -23.82,-38.69l-5.82 -5.86c-0.88,-0.97 -1.99,-2.36 -2.88,-3.35l-41.47 -45.58c-1.54,-1.73 -2.97,-4.4 -8.23,-9.32 -10.12,-9.47 -11.96,1.14 -12.6,-8.58 209.29,0 418.59,0 627.89,0 11.79,0 198.65,11.04 205.97,-9.75 1.21,-3.37 3.75,-2.22 5.01,-4.29l-1940.16 0c10.43,13.22 0.14,4.27 15.06,11.24 6.96,3.26 8.32,3.01 15.63,3.8 3.86,0.44 20.62,-0.75 25.91,-0.88 257.16,-6.21 514.78,-0.12 771.95,-0.12l-37.63 40.65c-0.7,0.63 -2.2,1.67 -2.91,2.32l-45.27 48.56c-0.5,0.65 -1.63,2.27 -2.08,2.94l-17.9 20.14c-16.19,8.82 -51.23,49.3 -59.93,60.24 -0.32,0.41 -5.56,7.8 -7.7,10.55l-67.83 82.28c-0.74,0.61 -2.25,1.59 -2.98,2.23 -0.68,0.57 -2.07,1.74 -2.71,2.34 -2.58,2.41 -8.5,9.79 -12.11,15.28 -2.76,4.21 -8.74,15.21 -9.07,15.72 -7.32,11.44 -1.69,4.02 -13.61,13.77l-160.86 181.93 -14.32 -15.11c-0.84,-0.96 -1.97,-2.34 -2.79,-3.35l-40.74 -41.43c-0.66,-0.5 -2.05,-1.49 -2.66,-2.05l-38.68 -43.05c-30.89,-34.66 -39.66,-69.53 -75.11,-101.32 -15.81,-14.18 -20.71,-22.55 -35.28,-37.42 -5.9,-6 -12.83,-11.68 -17.32,-16.2 -0.55,-0.56 -1.79,-1.81 -2.32,-2.35l-91.23 -106.63c-0.59,-0.5 -2,-1.48 -2.53,-2l-5.36 -7.03c-0.38,-0.61 -1.08,-2.38 -1.45,-3.03 -23.66,-41.17 -47.49,-49.92 -76.58,-83.93l-50.31 -61.32c-0.1,-0.72 -0.85,-0.88 -1.33,-0.84l15.42 0c-18.1,-39.3 -58.09,-32.42 -66.59,-113.19 -12.89,-122.35 123.84,-277.65 183.66,-359.34 100.77,-137.59 197.74,-269.99 298.49,-407.56 84.12,-114.84 442.33,-615.8 524.99,-709.65 37.13,-42.15 54.39,-47.5 119.58,-47.5 -16.08,-20.36 -34.81,-14.03 -56.58,-14.03 -0.53,-0.97 -1.45,-2.45 -1.67,-2.83l-212.17 -268.11c-17.75,-16.92 -4.64,5.39 -20.82,-26.62l-71.93 -93.18c-0.76,-1.04 -1.8,-2.54 -2.55,-3.58 -0.77,-1.04 -1.79,-2.57 -2.56,-3.59 -0.78,-1.05 -1.84,-2.54 -2.62,-3.56l-8.34 -9.72c-52.14,-52.4 -40.69,-67.35 -73.6,-73.66 22.22,-4.86 -0.63,2.91 -10.34,-35.17 -17.13,9.52 -2.15,-1.8 -16.41,12.35 -26.64,26.44 -842,1158.54 -984.08,1340.96l-82.97 111.57c-6.38,9.66 -5.75,9.4 -12.19,18.5l-243.68 328.21c-81.48,105.67 -237.04,314 -282.84,414.49 -134.19,294.54 -25.49,580.36 193.87,679.82 112.14,50.85 229.6,31.36 373.31,31.36l910.95 0.11c50.92,0.77 55.69,-4.49 110.87,-94.64 33.98,-55.5 123.83,-173.83 163.17,-226.91l100.33 -144.09c40.27,-54.99 69.86,-89.79 106.53,-149.68l42.72 -61.13c17.92,-24.45 32.51,-50.03 52.76,-68.5 0.85,1.28 2.08,1.68 2.45,4.04l335.86 475.61c53.25,72.79 103.58,136.14 152.16,213.86 47.5,75.96 46.89,51.33 193.99,51.33l926.37 -0.01c103.57,-0.54 159.05,15.74 266.92,-43.07 70.3,-38.35 131.93,-95.66 174.3,-176.63 43.15,-82.46 74.83,-197.2 48.4,-329.39 -42.5,-212.62 -152.22,-328.81 -264.47,-482.12l-463.17 -632.41c-26.44,-36.07 -49.87,-70.88 -77.48,-105.04l-28.81 -37.95c-6.38,-8.36 -4.65,-6.09 -10.93,-13.19 -19.08,-21.51 -23.11,-34.59 -41.03,-56.36z"/>
   <path class="fil2" d="M1366.55 4028.25l0.57 70.26 -66.97 -2.61c-11.63,-14.73 -8.07,-50.36 -2.75,-71.49l58.92 -1.67c9.32,1.78 5.79,2.09 10.23,5.51zm49.03 0c11.08,-10.4 40.62,-5.74 56.76,-3.24 8.35,38.55 3.52,165.82 3.28,214.04 10.26,9.47 28.78,7.03 40.68,7.03l0 -217.83 195.56 0 0 49.19c-55.52,0 -222.28,-27.11 -101.84,76.84 34.42,29.71 29.27,-13.68 29.39,-14.15 6.77,-26.29 -19.02,-27.56 72.45,-27.56 0,94.67 -16,153.81 38.1,130.94l6.73 -4.46c-0.12,-50.9 -6.22,-173.02 3.87,-214.53 31.71,-3.02 141.38,-9.39 161.61,3.73 2.34,61.33 16.87,146.69 -50.62,126.88 -21.98,-6.47 -15.6,-13.75 -15.6,-49.6 17.29,-15.79 22.29,-21.07 51.48,-21.07 -7.79,-45.59 -23.55,-41.02 -55.74,-27.01 -21.41,9.31 -41.36,22.03 -42.45,62.38 -2.3,85.46 63.45,75.73 113.63,70.03l0 56.22c35.77,0 45.47,12.76 46.97,-34.25 0.95,-30.03 -0.66,-68.09 -0.66,-99.26 85.25,-61.59 75.24,52.21 25.73,70.27l0 14.05c13.33,4.86 18.65,12.24 30.88,21.08 81.17,-74.22 53.33,-145.28 8.48,-159.24 -27.98,-8.71 -44.18,2.28 -65.09,4.65l0 -35.13c24.01,0 48.1,-0.26 72.09,0.04 24.3,0.33 56.71,10.19 56.71,-21.14 0,-34.92 -80.81,-21.07 -128.8,-21.07l-720.54 -0.07c-24.31,-0.31 -56.71,-10.17 -56.71,21.14 0,32.16 36.87,21.1 61.9,21.1l0 70.26c-21.67,0 -20.8,-2.95 -36.03,7.02 11.44,29.51 8.29,24.46 28.47,45.45 18.42,19.18 18.13,24.82 48.72,24.82 6.87,-19.53 5.16,-13.6 5.16,-42.15l66.9 0 0 112.43 46.32 0 2.21 -217.83z"/>
   <path class="fil3" d="M3420.47 4049.32c4.24,-21.66 0.82,-21.07 25.73,-21.07 19.77,0 23.7,2.69 25.73,28.09 -13.25,10.18 -13.8,7.04 -36.02,7.04 -14.5,0 -9.53,-3.04 -15.44,-14.06zm-329.34 -56.21l0 28.1c39.2,16.35 110.78,7.04 159.51,7.04l0 28.09c-55.88,0 -132.23,-10.82 -123.56,76.36 6.46,65.07 72.02,78.25 128.7,78.25 3.67,21.48 8.01,26.99 15.44,42.15l46.32 0c-4.44,-22.68 -15.93,-33.78 -25.72,-49.19 6.42,-24.28 52,-70.26 -36.04,-70.26 -9.63,19.64 -8.14,21.41 -15.44,42.15 -23.26,0 -33.48,-4.11 -48.95,-17.52 -10.79,-9.36 -29.43,-31.57 -13.75,-53.01 10.81,-14.75 96.33,-6.76 119.32,-6.76l0 -70.26 82.34 0c0,42 1.24,50.97 23.86,65.79 18.9,12.39 44.16,17.23 63.63,4.47 -6.61,33.75 -38.96,49.01 -77.2,14.06 -7.96,14.82 -14.57,17.91 -25.73,28.1 10.89,22.21 35.16,43.95 52.84,61.37 20.38,20.09 38.72,35.51 65.53,44.04l21.53 -33.91c-19.65,-18.32 -39.66,-24.43 -52.41,-50.41 55.05,-6.26 87.19,-71.16 56.61,-133.51l51.47 0c0,242.14 -15.52,217.83 46.32,217.83l0 -217.83 25.72 0 0 -42.17c-25.86,0 -26.69,-0.78 -46.32,-7.02 -11.52,-67.6 -7.59,-70.27 46.32,-70.27l0 -28.11c-51.09,-16.25 -55.26,-1.37 -87.48,28.11 0,70.02 0.59,36.53 20.58,77.29 -80.95,0 -428.15,-11.85 -473.44,7.03z"/>
   <path class="fil2" d="M2952.15 4091.48l0 -63.23 72.04 0c0,103.38 8.91,105.4 -51.46,105.4 -15.82,0 -20.58,-20.59 -20.58,-42.17zm138.98 -70.27l0 -28.1c1.71,-14.69 2.85,-3.8 -10.81,-6.69l-293.38 -1.11c-22.28,3.22 -19.6,6.58 -20.06,37.35l38.51 2.27c5.63,25.3 7.63,74.36 -2.49,98.09 -12.73,8.95 -86.54,76.96 -118.36,17.65 48.67,0 99.72,-55.63 65.27,-117.12 -13.79,-24.6 -31.26,-36.08 -60.17,-37.96 -42.86,-2.78 -43.95,7.65 -66.86,28.6l0 42.15c27.56,25.21 14.06,28.12 61.76,28.12 -1.18,-71.68 -16.2,-1.5 -20.6,-56.21 15.24,-10 14.37,-7.04 36.04,-7.04 12.92,26.38 25.89,50.46 -2.81,73.37 -20.51,16.38 -49.75,10.95 -79.55,10.95 5.31,87.12 117.14,119.51 185.28,70.27 0,75.79 -9.61,70.28 46.32,70.28l0 -217.83 56.61 0c0,63.19 -6.89,98.59 29.63,128.18 5.99,4.86 6.86,4.92 13.53,9.62 1.39,0.97 5.61,3.93 6.8,4.78 0.87,0.63 2.62,1.98 3.32,2.5 0.71,0.5 2.29,1.49 3.32,2.47 -26.66,3.04 -40.89,19.84 -66.9,28.11 9.94,50.85 32.12,35.28 58.39,16.53 19.22,-13.72 50.92,-38.48 70.27,-44.64 0,75.79 -9.59,70.28 46.32,70.28l0 -217.83c37.52,0 17.77,-0.36 20.62,-7.04z"/>
   <path class="fil3" d="M3636.62 4028.25l138.96 0c0,122.25 9.89,126.47 -46.32,126.47 -11.16,0 -4.77,7.14 -23.56,-24.05 -0.47,-0.78 -1.37,-2.79 -2.17,-4.04 13.11,-33.89 18.93,-42.17 56.61,-42.17 -2.11,-12.34 -5.61,-35.14 -15.44,-35.14 -109.94,0 -110.53,147.57 -5.15,147.57 17.74,0 19.92,-5.2 36.03,-7.03l0 56.22 46.32 0c0,-97.82 -13.25,-154.6 41.16,-154.6 21.96,0 27.31,31.31 18.65,52.68 -7.48,18.51 -24.09,32.34 -34.09,52.73 12.88,4.1 5.56,0.54 15.49,6.96 8.36,5.41 9.5,7.12 15.39,14.12 43.95,-40.19 75.86,-104.65 33.46,-144.06 -33.03,-30.71 -64.07,-13.49 -90.06,-10.53l0 -35.13c74.17,0 128.65,15.58 128.65,-21.1 0,-16.18 -3.58,-21.07 -15.44,-21.07l-298.49 0 0 42.17z"/>
   <path class="fil3" d="M2519.85 4133.65c-53.31,0 -46.32,3.59 -46.32,-105.4l72.05 0c0,29.07 8.85,105.4 -25.73,105.4zm-123.52 -109.97l30.36 1.4 1.33 80.45c6.81,58.8 74.21,84.62 117.56,56.23l0 84.32c61.83,0 46.32,24.31 46.32,-217.83 38.74,-1.19 35.26,-37.95 5.76,-42.76l-155.11 0.46c-30.51,-0.56 -64.44,-10.24 -46.22,37.73z"/>
   <path class="fil3" d="M3976.29 4042.3c0,41.82 -1.74,35.14 56.6,35.14l0 -56.23c-40.47,0 -56.6,-7.6 -56.6,21.09z"/>
   <path class="fil3" d="M2123.58 4175.8l0 35.15 56.6 0c0,-62.73 4.76,-56.23 -41.16,-56.23 -11.87,0 -15.44,4.89 -15.44,21.08z"/>
   <path class="fil3" d="M2123.58 4042.3c0,39.77 -0.51,35.14 41.16,35.14 19.49,0 15.44,-16.4 15.44,-56.23 -40.47,0 -56.6,-7.6 -56.6,21.09z"/>
   <path class="fil3" d="M3976.29 4175.8c0,41.83 -1.74,35.15 56.6,35.15 0,-62.73 4.77,-56.23 -41.16,-56.23 -11.87,0 -15.44,4.89 -15.44,21.08z"/>
   <path class="fil4" d="M1756.69 4239.05c5.53,-9.23 7.03,1.95 6.88,-41.9l-0.25 -168.9 158.85 0c-20.23,-13.12 -129.9,-6.75 -161.61,-3.73 -10.09,41.51 -3.99,163.63 -3.87,214.53z"/>
   <path class="fil5" d="M1475.62 4239.05c0.24,-48.22 5.07,-175.49 -3.28,-214.04 -16.14,-2.5 -45.68,-7.16 -56.76,3.24l54.4 0 -0.09 161.72c-0.3,37.89 -2.4,33.15 5.73,49.08z"/>
   <path class="fil6" d="M1300.15 4095.9l0 -67.65 66.4 0c-4.44,-3.42 -0.91,-3.73 -10.23,-5.51l-58.92 1.67c-5.32,21.13 -8.88,56.76 2.75,71.49z"/>
   <path class="fil7" d="M2802.9 4123.02c10.12,-23.73 8.12,-72.79 2.49,-98.09l-38.51 -2.27c8.21,5.65 0.91,4.21 15.21,5.81 5.29,0.61 15.02,-0.22 20.81,-0.22l0 94.77z"/>
   <path class="fil8" d="M2428.02 4105.53l-1.33 -80.45 -30.36 -1.4 25.71 5.13c0.06,31.92 -4,58.18 5.98,76.72z"/>
   <polygon class="fil9" points="317.18,3908.79 317.18,3901.75 311.17,3907.6 "/>
  </g>
 </g>
</svg>
