<?xml version="1.0" encoding="UTF-8"?>
<!DOCTYPE svg PUBLIC "-//W3C//DTD SVG 1.1//EN" "http://www.w3.org/Graphics/SVG/1.1/DTD/svg11.dtd">
<!-- Creator: CorelDRAW -->
<svg xmlns="http://www.w3.org/2000/svg" xml:space="preserve" width="50.8mm" height="50.8mm" version="1.1" style="shape-rendering:geometricPrecision; text-rendering:geometricPrecision; image-rendering:optimizeQuality; fill-rule:evenodd; clip-rule:evenodd"
viewBox="0 0 5080 5080"
 xmlns:xlink="http://www.w3.org/1999/xlink"
 xmlns:xodm="http://www.corel.com/coreldraw/odm/2003">
 <defs>
  <style type="text/css">
   <![CDATA[
    .fil0 {fill:none}
    .fil6 {fill:#FFFFFD}
    .fil4 {fill:#B4CB29}
    .fil1 {fill:#87BC39}
    .fil2 {fill:#709C3D}
    .fil5 {fill:#429AD3}
    .fil3 {fill:#106E37}
   ]]>
  </style>
 </defs>
 <g id="Layer_x0020_1">
  <metadata id="CorelCorpID_0Corel-Layer"/>
  <rect class="fil0" width="5080" height="5080"/>
  <g id="_105553524274240">
   <path class="fil1" d="M2149.08 3422.38c-4.09,-46.64 20.41,-4.51 -28.5,-32l-13.83 12.82 -320.66 229.13c-52.58,38.63 -103.62,73.32 -160.55,112.72 -48.66,33.66 -110.38,82.05 -159.18,111.48l308.76 785.75c53.79,-49.27 82.83,-183.15 94.37,-274.82 383.86,35.79 609.93,128.85 1068.2,12.54 154.01,-39.1 287.17,-100.31 415.46,-167.03 290.34,-151.01 442.49,-290.93 643.57,-533.49 326.34,-393.62 418.99,-800.2 435.48,-1346.74 -71.42,37.93 -219.59,217.1 -255.36,301.25 -96.56,-27.7 -385,-185.71 -447.03,-184.99 -25.24,489.47 -248.95,797.42 -493.19,1005.45 -115.3,98.22 -317.1,199.27 -501.69,246.68 -167.4,43 -499.75,51.32 -658.5,-13.98l72.65 -264.77z"/>
   <path class="fil2" d="M1680.81 1753.84l46.41 -0.09 -6.55 -44.45 -106.24 -765.65c-91.68,-59.7 -752.12,-103.13 -843.57,-109.06 52.27,115.14 155.51,129.86 196.99,218.01 -117.67,195.46 -290.49,290.52 -449.55,753.24 -219.74,639.27 -59.16,1362.14 332.37,1869.53 52.17,67.6 73.21,99.4 141.01,156.21 57.56,48.26 103.55,100.7 161.08,148.1 78.97,65.04 249.15,215.02 377.4,237.97l-141.7 -369.64c87.82,-94.95 319.33,-202.56 370.66,-287.66 -53.5,-56.23 -146.64,-83.64 -283.15,-237.06 -175.24,-196.93 -300.62,-421.72 -338.15,-704.67 -19.16,-144.49 8.67,-110.2 -73.12,-191.3 -25.18,-24.96 -31.62,-37.15 -62.49,-68.1 -17.38,-17.42 -20.3,-19.04 -37.5,-34.16l-35.22 -36.28c33.41,-65.59 103.13,-124.84 153.36,-168.1 106.23,-91.49 80.78,-45.62 143.56,-189.19 57.21,-130.81 173.2,-340.46 274,-381.35 23.82,22.22 60.59,80.48 131.36,142.65 32.77,28.79 33.64,23.4 49.04,61.05z"/>
   <path class="fil3" d="M2344.35 2058.62c49.49,-56.95 40.33,-252.73 184.53,-500.34 87.15,-149.64 196.98,-267.64 347.14,-348.33 -84.39,84.93 -221.73,255.38 -288.95,394.87 -85.18,176.78 -137.35,342.93 -125.9,568.92 432.65,56.68 757.29,-140.7 891.64,-410.06 110.46,-221.42 217.07,-920.17 73.18,-1142.59 -331.16,3.05 -765.22,284.49 -915.65,431.14 -90.56,88.29 -205.1,244.18 -239.12,428.16 -28.99,156.8 12.07,442.85 73.13,578.23z"/>
   <path class="fil4" d="M3396.85 2186.51l14.78 47.9 582.42 259.16c178.4,83.55 124.11,121.62 426.41,-280.15l188.33 -239.64c34.17,-36.08 38.92,-30.69 52.09,-87.66l-281.19 64.94c-122.66,-224.3 -52.48,-300.66 -334.59,-697.31 -101.32,-142.44 -355.73,-428.22 -534.17,-494.72 1.8,273.65 63.15,417.21 -18.73,763.54 -44.42,187.84 6.36,181.84 80.94,298.28 52.07,81.3 93.95,190.89 113.68,303.5l-289.97 62.16z"/>
   <path class="fil5" d="M2106.75 3403.2l13.83 -12.82c48.91,27.49 24.41,-14.64 28.5,32 91.72,-57.2 394.87,108.57 746.27,-95.29 163.38,-94.79 390.89,-275.54 432.75,-458.66 -132.96,17.36 -216.49,63.3 -377.84,61.84 -492.04,-4.48 -475.66,-462.19 -724.78,-597.15 -89.93,47.83 -78.38,164.65 -289.9,295.7 -181.82,112.65 -268.15,72.81 -483.2,51.95 37.7,249.31 244.2,482.12 430.34,604.5 71.16,46.78 162.91,75.01 224.03,117.93z"/>
   <path class="fil4" d="M1269.9 820.59l395.45 41.09c9.17,83.77 43.93,418.35 72.8,461.73 100.92,-29.93 186,-109.51 389.53,-153.42 323.71,-69.83 182.29,7.71 381.58,-178.38 335.55,-313.29 623.71,-321.95 710.47,-387.85 -179.55,-154.63 -789.72,-190.27 -1071.87,-151.72 -237.04,32.39 -810.05,210.71 -877.96,368.55z"/>
   <path class="fil3" d="M991.52 2264.27c37.6,127.13 386.86,360.16 581.91,390.75 271.27,42.55 556.56,-186.52 596.68,-378.13 -155.2,-153.09 -463.43,-66.11 -688.15,-90.08 26.91,-4.13 101.39,-33.31 146.7,-43.46 240.81,-53.95 332.4,12.7 526.29,46.98 -23.57,-73.79 -154.42,-180.7 -225.64,-223.4 -325.39,-195.1 -739.32,103.52 -937.79,297.34z"/>
   <path class="fil5" d="M3411.63 2234.41l-14.78 -47.9 -84.91 -244.17c-127.37,38.77 -121.37,156.31 -341,224.19 -152.06,46.99 -328.05,58.81 -495.89,63.14 29.03,766.61 1033.52,492.37 936.58,4.74z"/>
   <path class="fil5" d="M1720.67 1709.3l6.55 44.45 -46.41 0.09 -74.53 103.6c534.87,8.79 590.93,343.47 659.39,403.08 29.23,25.44 61.56,39.65 85.85,60.01 -5.7,-276.95 -174.1,-307.91 -123.18,-864.93 -233.91,18.78 -368.73,153.4 -507.67,253.7z"/>
   <path class="fil6" d="M1226.23 3341.92c-323.39,82.03 -241.43,422.63 -24.6,405.54 104.61,-8.24 205.14,-96.35 213.66,-200.14 8.19,-99.67 -104.04,-226.97 -189.06,-205.4z"/>
   <path class="fil6" d="M3349.85 3578.42l262.05 257.14c42.4,-18.56 138.25,-110.52 164.68,-150.05 55.63,-83.25 -12.88,-178.28 -53.02,-220.4 -42.98,-45.11 -131.92,-98.96 -221.1,-54.01 -62.43,31.48 -134.26,90.64 -152.61,167.32z"/>
   <path class="fil6" d="M2168.55 4268.38l100.75 4.69c1.54,-66.14 -3.37,-95.23 24.86,-140.25 135.92,38.31 -6.85,178.07 200.62,149.32 -7.5,-17.44 -58.7,-128.4 -59.56,-142.19 -3.11,-49.52 238.76,-276.85 -231.11,-266.63l-35.56 395.06z"/>
   <path class="fil6" d="M3246.97 3627.5l98.45 181.47c-154.33,-7.81 -133.66,-109.06 -312.25,-62.35 22.46,89.05 162.87,314.56 216.14,346.54l50.08 -30.52 -105.33 -195.44c119.1,15.36 199.35,106.09 302.42,77.85 23.49,-45.18 -46.39,-132.39 -75.08,-177.77 -28.31,-44.79 -71.67,-127.38 -102.38,-170.09l-72.05 30.31z"/>
   <path class="fil6" d="M2743.9 3848.43l110.86 381.66c66.52,-11.24 279.41,-44.14 252.72,-122.11 -34.71,-58.96 -108.38,27.66 -189.22,-3.51l-6.27 -69.48c60.15,-18.35 136.36,-9.18 112.21,-79.95l-18.04 -8.76c-13.53,-2.78 -11.7,-4.62 -28.46,-3.26 -62.86,5.14 -103.27,62.81 -119.71,-38.87 43.52,-32.44 99.55,-31.77 152.55,-58.26l-14.15 -62.24 -252.49 64.78z"/>
   <path class="fil6" d="M629.18 2843.73c5.97,54.65 18.52,113.59 34.21,162.84 18.29,57.46 31.28,103.9 95.68,85.78 28.2,-94.18 -87.41,-191.34 51.94,-186.41 31.11,42.13 18.6,69.46 51.45,115.73l52.85 -16.08c-7.49,-68.65 -68.09,-142.05 38.34,-147.34 35.99,39.49 23.77,49.44 40.3,103.68l19.12 45.06 64.51 -16.87 -71.05 -252.59 -377.35 106.2z"/>
   <path class="fil6" d="M3955.74 2961.15c-152.13,5.42 -198.24,-21.49 -211.8,109.79 76.91,-0.4 131.65,-11.58 205.24,-21.24 113.89,-14.97 122.62,14.48 209.8,19.61l31.62 -94.17c-82.28,-19.08 -143.04,-57.58 -188.5,-97.7 -41.28,-36.42 -95.28,-126.07 -156.12,-135.76 -35.94,187.53 90.43,109.83 109.76,219.47z"/>
   <path class="fil6" d="M1796.01 4174.32l84.52 20.7c25.84,-35.73 39.56,-91.47 55.66,-133.76 34.19,5.45 57.02,13.77 90.25,21.76 32.41,7.78 51.1,15.57 54.54,-24.64 5.67,-66.37 -72.21,-41.03 -124.16,-84.88l16.62 -56.27c74.38,-16.1 92.51,10.2 170.8,18.59l15.38 -70.05c-78.73,-20.48 -162.71,-61.06 -253.11,-68.15l-110.5 376.7z"/>
   <path class="fil6" d="M910.6 3442.38l32.57 -25.44c-16.38,-54.46 -58.54,-84.27 -41.68,-155.9 28.08,-42.81 111.04,-93.81 186.61,-73.75 45.04,33.81 31.22,60.99 79.5,97.57l55.65 -18.47c-42.05,-301.24 -411.33,-173.73 -422.04,10.01 -4.69,80.46 57.87,147.27 109.39,165.98z"/>
   <path class="fil6" d="M3598.8 3296.95c57.95,39.18 290.06,182.13 343.95,195.23 25.16,-42.41 113.05,-154.18 111.95,-215.47l-45.25 -24.98c-41.16,18.66 -52.33,76.22 -96.11,112.59 -88.65,-38.91 -191.39,-122.02 -261.5,-145.45l-53.04 78.08z"/>
   <path class="fil6" d="M2617.73 4262.48l88.02 -5.24c11.82,-98 -19.86,-292.34 -44.25,-383.79l-85.37 0.76c-13.31,76.33 16.22,319.06 41.6,388.27z"/>
   <path class="fil2" d="M1274.58 3441.26c-175.28,-4.52 -218.64,197.27 -119.82,208.18 68.22,7.53 116.56,-38.21 139.53,-69.24 59.47,-80.36 23.54,-90.51 -19.71,-138.94z"/>
   <path class="fil1" d="M3477.07 3561.32c6.25,9.81 2.88,5.28 14.44,17.77 45.48,49.08 101.59,114.78 167.53,131.34 89.13,-114.07 -1.08,-210.94 -131.46,-222.9l-50.51 73.79z"/>
   <path class="fil1" d="M2287.45 4057.78l89.85 0.66c13.52,-49.9 21.63,-93.25 -36.5,-102.51 -68.57,-10.93 -60.2,45.08 -53.35,101.85z"/>
  </g>
 </g>
</svg>
