<?xml version="1.0" encoding="UTF-8"?>
<!DOCTYPE svg PUBLIC "-//W3C//DTD SVG 1.1//EN" "http://www.w3.org/Graphics/SVG/1.1/DTD/svg11.dtd">
<!-- Creator: CorelDRAW -->
<svg xmlns="http://www.w3.org/2000/svg" xml:space="preserve" width="50.8mm" height="50.8mm" version="1.1" style="shape-rendering:geometricPrecision; text-rendering:geometricPrecision; image-rendering:optimizeQuality; fill-rule:evenodd; clip-rule:evenodd"
viewBox="0 0 5080 5080"
 xmlns:xlink="http://www.w3.org/1999/xlink"
 xmlns:xodm="http://www.corel.com/coreldraw/odm/2003">
 <defs>
  <style type="text/css">
   <![CDATA[
    .fil0 {fill:none}
    .fil1 {fill:white}
    .fil3 {fill:#E42527}
    .fil8 {fill:#E31F25}
    .fil6 {fill:#E3EAF6}
    .fil7 {fill:#E1EAF6}
    .fil4 {fill:#DFE8F4}
    .fil10 {fill:#404042}
    .fil5 {fill:#2A2929}
    .fil2 {fill:#2A2A28}
    .fil11 {fill:#404042}
    .fil9 {fill:white;fill-rule:nonzero}
   ]]>
  </style>
   <clipPath id="id0">
    <path d="M865.51 3239.82l-385.88 0.12c10.54,21.68 41.43,54.32 58.55,76.92l187.5 228.92c-8.06,21.09 -101.22,132.78 -122.23,158.59l-124.25 156.91 773.24 0.49 1.5 -228.74 2556.81 -0.97 1.53 229.82 774.25 -0.15 -183.81 -232.06c-17.62,-21.14 -53.39,-59.61 -62.66,-83.89l125.12 -151.89c21.66,-26.97 110.91,-133.36 120.93,-153.99l-385.8 0.05 -0.09 -229.22 -3330.07 -0.54 -4.64 229.63z"/>
   </clipPath>
 </defs>
 <g id="Layer_x0020_1">
  <metadata id="CorelCorpID_0Corel-Layer"/>
  <rect class="fil0" width="5080" height="5080"/>
  <circle class="fil1" cx="2532.86" cy="2379.93" r="1479.26"/>
  <g id="_105553523980640">
   <path class="fil2" d="M1671.93 2299.72c47.92,37.86 355.45,39.75 402.45,0l0.89 -461.79 -536.86 0c0,118.29 -9.09,94.4 45.21,99.09 140.11,12.09 77.47,149.78 88.31,362.7z"/>
   <path class="fil3" d="M1503.78 2017.28c-34.93,19.46 -68.94,39.4 -98.42,62.9 -40.02,31.91 -36.07,51.85 -63.21,94.47l0 2.85c0.11,59.54 3.78,78.09 30.35,114.96 23.81,33.04 46.41,49.02 79.23,70.85 47.04,31.26 148.73,73.55 219.45,81.03 70.2,8.59 127.52,18 202.04,17.59 75.26,-0.41 132.08,-13.05 202.03,-19.17 9.4,-3.33 61.34,-15.75 75.03,-16.05 6.38,-5.91 -10.09,-5.77 17.32,-5.77l18.93 -9.94c10.1,-4.5 11.03,-4.3 20.71,-8.16 61.45,-24.49 134.09,-69.01 166.44,-127.95 19.74,-35.95 19.05,-47.99 19.05,-100.56 -21.99,-33.53 -21.96,-53.7 -50.89,-83.52 -15.3,-15.77 -54.82,-43.34 -76.1,-55.38l-5.78 -7.01 -11.54 -5.78c-34.48,-8.04 -61.66,-33.7 -103.9,-34.63l53.9 26.91c20.19,10.01 34.75,16.8 51,29.81 34.39,27.55 55.27,51.09 64.72,104.91 -25.75,272.5 -868.93,269.91 -881.16,-5.78 8.69,-44.71 31.84,-72.12 60.87,-96.52 30.25,-25.43 54.27,-34.99 87.27,-51.25l15.01 -8.08c-37.32,0.82 -60.35,20.72 -92.35,29.27z"/>
   <path class="fil3" d="M1659.63 1578.16c0,109.35 94.84,207.8 202.04,207.8 182.58,0 268.97,-209.51 160.03,-338.98 -45.34,-53.87 -84.76,-63.64 -136.02,-65.09l-58.65 0c-83.39,0 -167.4,100.91 -167.4,196.27z"/>
   <path class="fil2" d="M2075.25 2442.76c-69.95,6.12 -126.77,18.76 -202.03,19.17 -74.52,0.41 -131.84,-9 -202.04,-17.59 0,217.06 -95.54,139.73 -135.86,163.99 -17.39,10.45 -8.46,71.77 -8.46,95.46l484.89 0c-28.86,-43.1 -45.52,-82.09 -15.55,-148.32 41.74,-92.28 75.43,-65.26 79.05,-112.71z"/>
   <path class="fil2" d="M2404.27 2703.79l352.12 0c19.13,-82.12 31.45,-63.5 -178.94,-63.5 5.9,-5.14 11.53,-9.98 18.92,-15.72l103.44 -75.5c18.13,-12.39 26.01,-19.93 45.03,-30l121.22 184.72 236.68 0c-34.75,-51.89 -69.27,-103.91 -103.91,-155.86l-74.85 -115.65c-51.97,-80.69 -159.23,21.79 -241.48,76.38l-278.23 195.13z"/>
   <path class="fil2" d="M3316.31 2467.12c-4.04,17.37 -15.68,43.04 -23.02,57.78l-80.88 178.89 184.72 0c9.02,-38.75 32.74,-80.55 48.66,-118.75l49.47 -117.92 150.08 0c8.06,-16.82 12.48,-48.51 17.32,-69.27l-456.02 0c-6.22,74.66 -71.59,69.27 109.67,69.27z"/>
   <polygon class="fil3" points="1417.19,2749.95 3720.38,2749.95 3720.38,2721.09 1417.19,2721.09 "/>
   <path class="fil2" d="M2150.28 2426.71c-16.58,11.52 -37.72,13.41 -67.92,41.74 -21.48,20.16 -38.67,37.23 -53.16,62.3 -36.23,62.69 -40.66,112.5 -0.14,173.04l357.9 0c1.27,-15.36 6.27,-35.2 11.54,-46.19 -65.73,0 -152.94,15.47 -219.35,0 -14.8,-30.85 -11.83,-68.6 3.52,-100.39 11.04,-22.84 37.93,-62.86 55.44,-77.32 27.5,-22.69 200.91,-12.77 246.98,-12.77 6.81,-14.19 11.07,-24.99 11.54,-46.18l-329.03 0c-6.37,5.9 10.11,5.77 -17.32,5.77z"/>
   <path class="fil4" d="M2314.14 2149.64c-1.05,1.1 -2.29,1.57 -2.7,3.73 -3.47,18.49 -49.61,69.82 -92.05,94.23 -30.55,17.57 -100.35,51.18 -145.01,52.12 -47,39.75 -354.53,37.86 -402.45,0 -50.59,-1.07 -183.23,-54.71 -219.92,-121.35l-19.03 -34.51c12.23,275.69 855.41,278.28 881.16,5.78z"/>
   <path class="fil5" d="M2513.95 2807.68l-23.09 0 0 86.58 23.09 0c0,-63.82 -5,-61.14 23.09,-63.48 0,-30.53 0.04,-8.61 5.77,-17.33 0.52,23.29 5.82,32.69 11.84,51.67 8.55,26.91 1.71,28.41 34.04,29.14l0.3 0 28.15 -86.81 -28.15 0.23 -17.32 46.18 -6.75 -46.02 -50.97 -0.16z"/>
   <path class="fil5" d="M2311.91 2813.45c0,37.96 52.71,22.15 63.5,51.97 -36.37,20.42 -29.35,-10.79 -63.5,-11.56 1.86,22.28 16.07,35.8 32.46,40.4l25.5 0c15.8,-4.56 28.63,-17.95 28.63,-40.4 0,-26.76 -42.9,-30.53 -63.49,-40.41l16.07 -18.54c42.11,12.15 -9.08,18.54 47.42,18.54 -3.03,-6.32 -8.06,-40.39 -46.18,-40.39 -19.56,0 -40.41,20.83 -40.41,40.39z"/>
   <path class="fil5" d="M3079.65 2894.26l0 -23.09 -57.73 0 0 -28.86 51.95 0c-2.75,-33.11 -14.65,-23.08 -51.95,-23.08l0 -17.31 51.95 0 0 -23.1 -75.04 0 0 115.44 80.82 0z"/>
   <path class="fil6" d="M1342.15 2174.65c27.14,-42.62 23.19,-62.56 63.21,-94.47 29.48,-23.5 63.49,-43.44 98.42,-62.9 8.82,-12.6 20.75,-19.24 36.5,-27.42 9.68,-5.02 13.82,-6.37 23.3,-11.32l21.01 -13.64c-45.88,3.83 -125.61,47.47 -155.96,69.18 -38.06,27.25 -86.48,75.74 -86.48,140.57z"/>
   <path class="fil6" d="M2248.42 2022.64l11.54 5.78c8.21,0 5.78,-1.86 5.78,7.01 21.28,12.04 60.8,39.61 76.1,55.38 28.93,29.82 28.9,49.99 50.89,83.52 0,-63.08 -45.27,-109.42 -83.12,-137.85 -30.24,-22.71 -109.75,-67.92 -153.55,-71.58 13.47,11.72 28.85,13.3 49.61,25.43 17.67,10.33 32.41,16.88 42.75,32.31z"/>
   <path class="fil5" d="M3293.23 2842.31l-23.09 0c6.79,-25.46 16.28,-25.46 23.09,0zm5.77 51.95l-34.65 0c-5.26,-7.86 -7.13,-9.1 -12.18,-16.65l-10.89 -17.97 0 -23.1c9.62,-13.84 15.49,-48.89 69.26,-23.09 4.74,20.37 5.77,18.96 5.77,46.19l-46.17 0 0.16 12.53 46.01 -6.75c-5.64,21.11 -6.09,12.09 -17.31,28.84z"/>
   <path class="fil5" d="M2785.25 2842.31l-23.09 0c6.81,-25.46 16.3,-25.46 23.09,0zm-10.44 51.95l-1.46 0c-47.26,-0.28 -34.64,-54.48 -28.51,-80.81 24.8,-12.28 50.66,-15.96 63.17,12.87 18.6,42.81 -22.95,33.32 -45.85,33.32l0.17 12.53 46.02 -6.75c-1.89,22.63 -10.75,28.67 -33.54,28.84z"/>
   <path class="fil5" d="M1827.03 2876.95c2.4,-21.89 -3.26,-16.95 23.09,-23.09 -5.59,20.95 -3.07,17.16 -23.09,23.09zm46.18 17.31l-0.08 0 -69.19 -5.76c0,-50.09 4.34,-42.21 46.18,-51.96 -19.86,-27.1 -3.81,-0.94 -46.18,0 3.42,-41.11 37.69,-35.46 63.5,-23.09 9.18,39.44 5.77,33.53 5.77,80.81z"/>
   <path class="fil5" d="M2433.13 2842.31l0 -17.31c17.88,1.52 10.92,-0.07 23.1,5.78 -13.44,18.34 3.98,8.7 -23.1,11.53zm19.04 51.95l-19.31 0c-15.43,-4.33 -28.59,-19.41 -28.59,-46.17 0,-57.67 75.04,-57.67 75.04,0 0,16.56 -34.58,11.55 -51.95,11.55 16.94,23.12 18.83,6.51 51.95,5.78 -4.2,15.71 -15,25.48 -27.14,28.84z"/>
   <path class="fil5" d="M3483.72 2825c0,64.66 -5.08,69.05 20.51,69.26l2.57 0c18.57,-38.71 -11.36,-48.25 17.32,-69.26 16.61,11.54 11.55,1.99 11.55,69.26l23.08 0 0 -75.03c-7.33,-4.92 -10.61,-8.93 -17.2,-11.59l-42.01 1.42c-12.29,2.57 -15.82,-1.7 -15.82,15.94z"/>
   <path class="fil5" d="M3697.29 2842.31l-23.08 0c6.79,-25.46 16.28,-25.46 23.08,0zm-3.41 51.95l-15.93 0c-17.12,-3.96 -32.61,-20.39 -32.61,-46.17 0,-49.3 75.04,-72.18 75.04,11.55l-51.95 0c16.94,23.12 18.83,6.51 51.95,5.78 -4.48,16.76 -14.85,26.03 -26.5,28.84z"/>
   <path class="fil5" d="M3449.08 2825l0 17.31 -23.09 0c5.56,-20.79 0.53,-15.43 23.09,-17.31zm-1.2 69.26l-19.08 0c-14.6,-5.16 -25.9,-22.81 -25.9,-51.95 0,-53.8 75.04,-47.05 75.04,5.78 0,16.56 -34.58,11.55 -51.95,11.55l0 11.53c26.11,-0.58 22.94,-5.75 51.95,-5.75 -8.35,15.77 -19.21,25.29 -30.06,28.84z"/>
   <path class="fil5" d="M1665.4 2871.17c-14.03,-24.98 -3.74,-35.93 11.55,-46.17 26.9,18.01 26.71,46.17 -11.55,46.17zm17.14 23.09l-17.36 0c-15.59,-3.75 -28.64,-18.27 -28.64,-46.17 0,-58.59 80.81,-58.59 80.81,0 0,25.39 -16.63,42.04 -34.81,46.17z"/>
   <path class="fil5" d="M1994.43 2871.17c0,-50.48 -1.88,-36.32 11.55,-46.17 17.79,4.75 17.32,0.92 17.32,28.86 0,19.23 -10.37,16.88 -28.87,17.31zm6.58 23.09l-1.09 0c-30.07,-0.3 -42.2,-49.85 -22.49,-74.73 20.82,-26.29 68.95,-12.55 68.95,17.01 0,30.08 6.36,57.44 -45.37,57.72z"/>
   <path class="fil5" d="M2057.93 2807.68l0 86.58 23.09 0c0,-55.21 -6.09,-61.47 23.09,-69.26 6.2,26.61 5.77,35.73 5.77,69.26l0.08 0c26.99,-2.23 23.01,-0.08 23.01,-51.95 0,-51.79 -32.43,-33.68 -75.04,-34.63z"/>
   <path class="fil5" d="M1469.15 2807.68l0 86.58 0.08 0c24.51,-2.03 22.47,-3.15 23.29,-28.56 0.99,-30.78 -7.93,-26.63 11.26,-40.7 16.6,11.54 11.54,1.99 11.54,69.26l23.09 0 0 -75.03c-15.83,-10.6 -12.87,-15.25 -31.6,-13.22l-37.66 1.67z"/>
   <path class="fil5" d="M1555.73 2807.68l0 86.58 0.08 0c24.51,-2.03 22.47,-3.15 23.29,-28.56 0.99,-30.78 -7.92,-26.63 11.27,-40.7 16.6,11.54 11.54,1.99 11.54,69.26l23.09 0 0 -75.03c-32.92,-22.04 -10.73,-12.92 -46.84,-9.75 -8.17,0.71 -6.64,-0.47 -22.43,-1.8z"/>
   <path class="fil5" d="M3108.51 2848.09c-7.1,13.43 -19.34,32.14 -23.09,46.17l0.34 0c21.74,-0.45 20.51,2.08 37.62,-19.75 0.52,-0.67 1.54,-2.29 2.44,-3.34 5.96,22.32 7.79,22.51 34.33,23.09l0.31 0c-4.75,-20.41 -14.37,-29.69 -23.09,-46.17 10.12,-15.12 14.37,-23.93 23.09,-40.41 -33.36,0 -22.83,-4.99 -34.64,17.32 -26.76,-19.61 6.37,-17.32 -40.4,-17.32 8.1,15.32 14.99,25.09 23.09,40.41z"/>
   <path class="fil5" d="M2658.26 2842.31c0,20.93 4.85,32.24 11.55,46.19 7.21,1.73 16.28,4.93 25.4,5.76l8.14 0c12.49,-1.3 24.07,-9.4 29.95,-34.62 -39.76,0.88 -11.66,8.66 -46.18,11.53 -7.67,-32.03 -12.02,-19.59 5.77,-46.17 33.55,8.97 4.54,26.39 32.22,14.86 35.65,-14.84 -66.85,-69.46 -66.85,2.45z"/>
   <path class="fil5" d="M3570.3 2825c0,44.8 -3.54,38.11 17.31,69.26l18.35 0c20.46,-0.51 31.13,-4.86 33.61,-34.62 -33.84,0.75 -46.18,28.32 -46.18,-17.33 0,-22.05 -1.78,-2.1 5.77,-17.31 30.51,8.14 5.92,14.44 40.41,17.31 -0.53,-23.78 -3.41,-33.23 -25.72,-37 -20.67,-3.5 -29.15,10.04 -43.55,19.69z"/>
   <path class="fil5" d="M3241.28 2859.64c-19.6,0 -11.63,-0.32 -25.51,4.46 -6.61,2.27 1.1,14.26 -18.49,4.39 -16.59,-8.36 -5.17,-30.68 -2.19,-43.49 21.12,5.65 12.1,6.1 28.87,17.31 15.28,-4.05 4.74,0.47 17.32,-5.77 -51.28,-96.9 -115.72,45.51 -44.93,57.16 1.74,0.28 3.45,0.46 5.14,0.56l5.29 0c8.36,-0.47 15.66,-3.3 20.81,-7.69 11.65,-9.96 6.68,-12.34 13.69,-26.93z"/>
   <path class="fil3" d="M2871.84 2848.09c0,13.61 11.32,25.69 17.32,34.64l34.63 0c19.68,-29.39 22.21,-11.93 11.54,-57.73 -11.42,-5.47 -23.85,-12.3 -36.87,-8 -11.16,3.69 -26.62,22.72 -26.62,31.09z"/>
   <path class="fil5" d="M1746.53 2894.26c33.36,-0.75 25.97,-3.58 35.21,-33.74 5.13,-16.71 12.01,-33.88 16.43,-52.84 -27.13,0.61 -19.14,-5.78 -28.24,12.17 -2.06,4.07 -6.21,31.73 -6.39,39.79l-11.2 -23.44c-4.14,-12.43 -4.86,-13.35 -6.12,-28.52l-23.09 0c2.77,33.23 20.32,53.37 23.09,86.58l0.31 0z"/>
   <path class="fil3" d="M2184.92 2842.31l5.77 34.64c33.05,7.91 11.96,9.32 51.96,0 21.94,-94.18 -57.73,-60.67 -57.73,-34.64z"/>
   <path class="fil5" d="M1878.98 2807.68l0 17.32c14.51,5.85 9.02,-0.45 11.77,17.09 5.84,37.3 -19.63,51.94 33.16,52.17l1.25 0c-1.71,-20.52 -17.96,-36.1 -11.26,-56.8 5.13,-15.89 -3.66,-6.44 11.26,-12.46l0 -17.32c-15.28,-6.17 -10.76,11.87 -11.54,-23.09l-23.09 0c-0.76,34.11 4.09,17.25 -11.55,23.09z"/>
   <polygon class="fil5" points="3391.36,2894.26 3391.36,2778.82 3368.26,2778.82 3368.26,2894.26 "/>
   <polygon class="fil5" points="1451.83,2894.26 1451.83,2778.82 1428.74,2778.82 1428.74,2894.26 "/>
   <polygon class="fil5" points="3350.95,2894.26 3350.95,2778.82 3327.86,2778.82 3327.86,2894.26 "/>
   <path class="fil5" d="M1930.94 2876.95c0,13.48 5.16,16.69 12.06,17.31l11.03 0c9.7,-17.27 5.77,-39.08 5.77,-69.26 0,-19.2 -10.37,-16.91 -28.86,-17.32l0 69.27z"/>
   <polygon class="fil5" points="2646.72,2894.26 2646.72,2807.68 2623.62,2807.68 2623.62,2894.26 "/>
   <path class="fil5" d="M1942.48 2801.92c17.45,0 15.97,-6.81 17.32,-23.1l-28.86 0c0.93,11.19 -0.28,23.1 11.54,23.1z"/>
   <polygon class="fil5" points="2623.62,2801.92 2646.72,2801.92 2646.72,2778.82 2623.62,2778.82 "/>
   <path class="fil6" d="M2156.06 1964.9c-6.37,-5.89 10.1,-5.75 -17.32,-5.75 6.37,5.88 -10.1,5.75 17.32,5.75z"/>
   <polygon class="fil7" points="2138.74,1959.15 2138.74,1953.37 2132.01,1958.19 "/>
   <polygon class="fil3" points="2144.52,1988.01 2133.26,1981.37 "/>
   <polygon class="fil7" points="1584.59,1964.9 1597,1961.73 "/>
  </g>
  <path class="fil8" d="M865.51 3239.82l-385.88 0.12c10.54,21.68 41.43,54.32 58.55,76.92l187.5 228.92c-8.06,21.09 -101.22,132.78 -122.23,158.59l-124.25 156.91 773.24 0.49 1.5 -228.74 2556.81 -0.97 1.53 229.82 774.25 -0.15 -183.81 -232.06c-17.62,-21.14 -53.39,-59.61 -62.66,-83.89l125.12 -151.89c21.66,-26.97 110.91,-133.36 120.93,-153.99l-385.8 0.05 -0.09 -229.22 -3330.07 -0.54 -4.64 229.63z"/>
  <g style="clip-path:url(#id0)">
   <g id="_105553523979840">
    <path id="1" class="fil9" d="M1349.3 3436.58l-15.2 -39.96 -129.44 0 -15.2 40.78c-5.93,15.94 -10.97,26.69 -15.2,32.25 -4.15,5.56 -11.05,8.37 -20.61,8.37 -8.08,0 -15.27,-2.96 -21.5,-8.89 -6.23,-5.93 -9.34,-12.68 -9.34,-20.17 0,-4.37 0.74,-8.89 2.15,-13.49 1.48,-4.67 3.86,-11.05 7.19,-19.35l81.41 -206.7c2.37,-5.93 5.11,-13.05 8.38,-21.35 3.26,-8.38 6.74,-15.27 10.44,-20.76 3.71,-5.48 8.53,-9.93 14.54,-13.34 6,-3.41 13.42,-5.12 22.24,-5.12 9.04,0 16.53,1.71 22.54,5.12 6,3.41 10.82,7.78 14.53,13.12 3.7,5.33 6.82,11.12 9.34,17.27 2.52,6.16 5.78,14.39 9.64,24.62l83.18 205.43c6.53,15.65 9.79,26.99 9.79,34.11 0,7.34 -3.04,14.16 -9.19,20.31 -6.16,6.15 -13.65,9.19 -22.32,9.19 -5.04,0 -9.41,-0.88 -13.05,-2.74 -3.56,-1.78 -6.6,-4.23 -9.12,-7.34 -2.45,-3.11 -5.04,-7.93 -7.85,-14.31 -2.9,-6.45 -5.27,-12.16 -7.35,-17.05zm-127.66 -88.45l95.12 0 -47.97 -131.22 -47.15 131.22zm417.05 0.45l-59.08 0 0 90.15c0,12.9 -3.04,22.61 -9.12,29.29 -6.08,6.67 -13.79,10 -22.98,10 -9.72,0 -17.57,-3.26 -23.51,-9.85 -5.93,-6.6 -8.89,-16.31 -8.89,-28.99l0 -245.48c0,-14.16 3.26,-24.31 9.78,-30.39 6.53,-6.08 16.83,-9.12 31.07,-9.12l82.73 0c24.47,0 43.31,1.85 56.5,5.63 13.05,3.64 24.32,9.64 33.8,18.02 9.5,8.45 16.69,18.68 21.58,30.84 4.97,12.16 7.41,25.87 7.41,41.07 0,32.47 -10,57.01 -29.95,73.77 -20.02,16.68 -49.74,25.06 -89.34,25.06zm-15.64 -145.9l-43.44 0 0 97.41 43.44 0c15.2,0 27.95,-1.63 38.19,-4.82 10.15,-3.18 17.94,-8.38 23.35,-15.64 5.34,-7.19 8,-16.76 8,-28.47 0,-14.09 -4.15,-25.5 -12.38,-34.33 -9.26,-9.41 -28.32,-14.15 -57.16,-14.15zm362.05 145.9l-59.09 0 0 90.15c0,12.9 -3.04,22.61 -9.11,29.29 -6.09,6.67 -13.79,10 -22.99,10 -9.71,0 -17.57,-3.26 -23.5,-9.85 -5.93,-6.6 -8.9,-16.31 -8.9,-28.99l0 -245.48c0,-14.16 3.27,-24.31 9.79,-30.39 6.52,-6.08 16.83,-9.12 31.06,-9.12l82.74 0c24.47,0 43.3,1.85 56.5,5.63 13.05,3.64 24.31,9.64 33.8,18.02 9.49,8.45 16.69,18.68 21.58,30.84 4.96,12.16 7.41,25.87 7.41,41.07 0,32.47 -10.01,57.01 -29.95,73.77 -20.02,16.68 -49.75,25.06 -89.34,25.06zm-15.64 -145.9l-43.45 0 0 97.41 43.45 0c15.2,0 27.95,-1.63 38.18,-4.82 10.16,-3.18 17.94,-8.38 23.36,-15.64 5.33,-7.19 8,-16.76 8,-28.47 0,-14.09 -4.15,-25.5 -12.38,-34.33 -9.27,-9.41 -28.32,-14.15 -57.16,-14.15zm325.13 133.89l-22.62 0 0 102.16c0,13.5 -2.96,23.35 -8.89,29.73 -5.93,6.38 -13.71,9.56 -23.21,9.56 -10.3,0 -18.31,-3.33 -23.94,-10 -5.64,-6.68 -8.45,-16.39 -8.45,-29.29l0 -245.03c0,-13.86 3.11,-23.94 9.34,-30.17 6.22,-6.23 16.31,-9.34 30.17,-9.34l104.91 0c14.45,0 26.84,0.59 37.14,1.85 10.31,1.26 19.58,3.71 27.8,7.49 10.01,4.23 18.83,10.23 26.54,18.02 7.64,7.85 13.5,16.97 17.43,27.28 4,10.38 6,21.35 6,32.99 0,23.72 -6.67,42.71 -20.09,56.94 -13.42,14.16 -33.73,24.24 -60.94,30.17 11.42,6.08 22.39,15.05 32.84,26.91 10.38,11.87 19.72,24.54 27.88,37.89 8.15,13.42 14.53,25.43 19.13,36.25 4.52,10.75 6.82,18.17 6.82,22.25 0,4.15 -1.34,8.3 -4.01,12.45 -2.66,4.15 -6.3,7.42 -10.97,9.78 -4.59,2.38 -10.01,3.56 -16.09,3.56 -7.19,0 -13.27,-1.7 -18.24,-5.11 -4.89,-3.41 -9.12,-7.71 -12.68,-12.9 -3.55,-5.19 -8.37,-12.9 -14.45,-22.98l-25.88 -43c-9.26,-15.72 -17.57,-27.73 -24.83,-35.96 -7.34,-8.3 -14.75,-13.94 -22.31,-16.98 -7.49,-3.04 -16.98,-4.52 -28.4,-4.52zm36.92 -133.89l-59.54 0 0 87.63 57.76 0c15.49,0 28.54,-1.34 39.15,-4.01 10.52,-2.67 18.6,-7.26 24.16,-13.71 5.56,-6.45 8.38,-15.35 8.38,-26.62 0,-8.9 -2.22,-16.68 -6.75,-23.43 -4.45,-6.74 -10.67,-11.78 -18.68,-15.12 -7.48,-3.19 -22.32,-4.74 -44.48,-4.74zm386.14 -53.83c33.07,0 61.39,6.67 85.04,20.09 23.65,13.35 41.59,32.4 53.75,57.09 12.16,24.69 18.24,53.68 18.24,86.96 0,24.62 -3.34,47 -10.01,67.1 -6.67,20.16 -16.61,37.58 -29.95,52.34 -13.35,14.75 -29.66,26.02 -49.08,33.88 -19.42,7.78 -41.6,11.71 -66.65,11.71 -24.91,0 -47.23,-4 -66.87,-12.08 -19.73,-8.01 -36.11,-19.35 -49.31,-33.95 -13.19,-14.61 -23.13,-32.18 -29.88,-52.79 -6.74,-20.54 -10.08,-42.78 -10.08,-66.65 0,-24.47 3.49,-46.86 10.53,-67.32 7.04,-20.39 17.2,-37.73 30.55,-52.12 13.26,-14.31 29.5,-25.28 48.63,-32.84 19.05,-7.64 40.78,-11.42 65.09,-11.42zm91.64 163.7c0,-23.28 -3.78,-43.52 -11.27,-60.64 -7.56,-17.06 -18.31,-29.96 -32.25,-38.78 -13.94,-8.75 -30.03,-13.12 -48.12,-13.12 -12.82,0 -24.76,2.44 -35.66,7.26 -10.97,4.9 -20.39,11.94 -28.25,21.21 -7.85,9.26 -14.08,21.12 -18.68,35.51 -4.52,14.45 -6.82,30.62 -6.82,48.56 0,18.16 2.3,34.47 6.82,49.15 4.6,14.61 11.05,26.76 19.35,36.4 8.31,9.64 17.87,16.83 28.62,21.58 10.82,4.82 22.61,7.19 35.51,7.19 16.53,0 31.66,-4.15 45.52,-12.38 13.79,-8.23 24.76,-20.98 32.99,-38.26 8.16,-17.2 12.24,-38.47 12.24,-63.68zm205.98 -121.36l72.07 213.44 72.28 -214.93c3.78,-11.34 6.6,-19.2 8.46,-23.57 1.92,-4.45 5.04,-8.38 9.34,-11.94 4.37,-3.56 10.3,-5.34 17.79,-5.34 5.49,0 10.6,1.41 15.35,4.15 4.67,2.74 8.37,6.38 11.05,10.97 2.66,4.53 4,9.12 4,13.8 0,3.11 -0.45,6.59 -1.34,10.3 -0.81,3.63 -1.92,7.27 -3.18,10.83 -1.34,3.55 -2.67,7.19 -3.93,10.97l-77.03 208.03c-2.82,7.93 -5.57,15.49 -8.31,22.69 -2.74,7.11 -5.93,13.41 -9.56,18.9 -3.56,5.41 -8.38,9.86 -14.38,13.35 -6.01,3.48 -13.35,5.18 -22.02,5.18 -8.75,0 -16.09,-1.7 -22.1,-5.11 -6,-3.41 -10.82,-7.86 -14.53,-13.42 -3.63,-5.64 -6.89,-11.93 -9.64,-19.05 -2.74,-7.05 -5.48,-14.61 -8.23,-22.54l-75.76 -206.33c-1.34,-3.7 -2.67,-7.41 -4.01,-11.05 -1.41,-3.63 -2.52,-7.56 -3.48,-11.71 -0.97,-4.23 -1.41,-7.78 -1.41,-10.67 0,-7.34 2.96,-14.09 8.9,-20.17 5.93,-6.08 13.42,-9.12 22.38,-9.12 10.98,0 18.76,3.33 23.29,10.08 4.59,6.75 9.26,17.5 14,32.26zm518.34 12.82l-145.31 0 0 78.29 133.82 0c9.86,0 17.2,2.23 22.02,6.6 4.89,4.37 7.26,10.23 7.26,17.42 0,7.19 -2.37,13.12 -7.12,17.64 -4.81,4.53 -12.16,6.83 -22.16,6.83l-133.82 0 0 90.74 150.28 0c10.15,0 17.79,2.38 22.9,7.04 5.19,4.67 7.79,10.98 7.79,18.76 0,7.49 -2.6,13.64 -7.79,18.31 -5.11,4.67 -12.75,7.05 -22.9,7.05l-175.27 0c-14.01,0 -24.09,-3.12 -30.25,-9.34 -6.15,-6.23 -9.26,-16.31 -9.26,-30.18l0 -239.47c0,-9.26 1.4,-16.83 4.15,-22.68 2.74,-5.86 7.04,-10.16 12.9,-12.83 5.86,-2.67 13.34,-4 22.46,-4l170.3 0c10.3,0 17.94,2.3 22.91,6.82 4.96,4.6 7.49,10.6 7.49,17.94 0,7.56 -2.53,13.64 -7.49,18.24 -4.97,4.52 -12.61,6.82 -22.91,6.82zm176.55 -49.82l84.08 0c21.87,0 40.63,2 56.27,6.08 15.71,4.07 29.88,11.71 42.63,22.83 33.14,28.4 49.74,71.62 49.74,129.52 0,19.13 -1.63,36.55 -4.96,52.34 -3.34,15.79 -8.53,30.03 -15.43,42.71 -6.96,12.68 -15.86,24.02 -26.76,34.03 -8.52,7.63 -17.87,13.79 -28.02,18.39 -10.16,4.67 -21.06,7.93 -32.7,9.78 -11.64,1.85 -24.83,2.82 -39.44,2.82l-84.07 0c-11.71,0 -20.54,-1.78 -26.54,-5.34 -5.93,-3.56 -9.79,-8.53 -11.57,-14.98 -1.85,-6.45 -2.74,-14.83 -2.74,-25.05l0 -233.62c0,-13.86 3.11,-23.94 9.34,-30.17 6.22,-6.23 16.31,-9.34 30.17,-9.34zm24.99 51.15l0 216.19 48.93 0c10.68,0 19.13,-0.3 25.21,-0.89 6.08,-0.59 12.38,-2 18.9,-4.3 6.53,-2.37 12.16,-5.63 16.9,-9.78 21.58,-18.24 32.4,-49.68 32.4,-94.31 0,-31.43 -4.74,-55.01 -14.23,-70.65 -9.49,-15.65 -21.2,-25.58 -35.07,-29.88 -13.93,-4.22 -30.77,-6.38 -50.41,-6.38l-42.63 0z"/>
   </g>
  </g>
  <path class="fil0" d="M865.51 3239.82l-385.88 0.12c10.54,21.68 41.43,54.32 58.55,76.92l187.5 228.92c-8.06,21.09 -101.22,132.78 -122.23,158.59l-124.25 156.91 773.24 0.49 1.5 -228.74 2556.81 -0.97 1.53 229.82 774.25 -0.15 -183.81 -232.06c-17.62,-21.14 -53.39,-59.61 -62.66,-83.89l125.12 -151.89c21.66,-26.97 110.91,-133.36 120.93,-153.99l-385.8 0.05 -0.09 -229.22 -3330.07 -0.54 -4.64 229.63z"/>
  <path class="fil10" d="M1283.21 3014.93l-66.23 -155.7c-158.4,-417.37 -86.47,-898.24 148.45,-1254.67 30.64,-46.48 61.53,-85.61 95.52,-126.34 33.69,-40.38 70.22,-81.77 107.22,-114.84 85.56,-76.48 154.76,-133.05 256.64,-192.56 199.22,-116.37 437.05,-192.14 708.06,-192.21 265.37,-0.08 510.76,76.52 704.8,190.29 390.33,228.84 658.37,636.13 691.41,1100.31 9.96,139.9 -0.26,280.78 -28.79,414.02 -17.5,81.74 -49.04,178.75 -82.25,253.57 -10,22.52 -28.78,57.35 -35.49,78.13l221.97 0.49c14.67,-2.35 37.75,-37.76 85.51,-70 57.85,-39.04 143.19,-60.43 174.79,-135.16 18.64,-44.06 21.53,-90.68 2.12,-135.19 -32.13,-73.68 -91.72,-110.85 -117.41,-197.49 -76.25,-257.24 142.35,-322.24 130.13,-469.87 -15.5,-187.21 -196.66,-110.29 -303.24,-327.84 -50.33,-102.73 -31.64,-151.49 -13.76,-261.29 16.84,-103.43 -26.7,-174.85 -99.06,-204.58 -112.67,-46.29 -205.22,30.91 -357.64,-112.01 -119.27,-111.83 -79.38,-253.51 -163.12,-312.05 -176.05,-123.09 -242.05,102.89 -498.62,13.27 -83.86,-29.3 -121.45,-80.86 -172.08,-142.88 -40.79,-49.96 -138.48,-100.83 -225.52,-45.21 -70.6,45.12 -75.32,94.49 -159.9,155.11 -61.63,44.17 -164.53,68.12 -252.7,47.45 -80.8,-18.93 -153.7,-84.13 -246.03,-60.66 -178.17,45.29 -78.03,225.16 -258.16,371.71 -133.93,108.95 -255.37,33.65 -364,105.88 -127.58,84.83 -23.87,253.65 -50.11,372.78 -8.83,40.1 -27.78,79.33 -45.61,110 -9.9,17.05 -22.55,32.63 -32.13,45.41 -12.88,17.18 -26.03,25.38 -44.2,38.16 -86.82,61.04 -325.39,124.2 -144.27,361.81 50.85,66.71 82.93,119.88 80.13,232.59 -2.57,103.45 -49.65,158.96 -93.79,218.63 -47.38,64.04 -79.68,155.58 -13.07,231.22 53.79,61.09 145.16,83.05 189.48,125.76 51.21,49.35 17.93,44.53 110.91,44.43 52.83,-0.05 107.46,1.39 160.04,-0.47z"/>
  <path class="fil11" d="M3591.63 3628.93l-2114.98 0.03c72.1,442.66 365.95,206.45 488.59,185.84 159.56,-26.82 287.48,49.46 368.69,153.1 126.73,161.75 265.21,159.23 394.72,3.44 86.52,-104.07 201.68,-185.06 371.37,-156.54 130.78,21.98 408.96,256.8 491.61,-185.87z"/>
  <g id="_105553523979136">
   <path class="fil11" d="M2486.23 4260.87l-147.56 0.98c18.36,14.92 36.38,29.13 56.38,43.33 18.85,13.39 41.82,32.62 60.69,42.51l-43.62 142.18c41.56,-21.04 82.98,-59.19 120.75,-82.96 37.75,23.77 79.17,61.92 119.83,83.25l-44.47 -142.07c20.35,-9.95 43.87,-29.71 62.44,-42.91 20.01,-14.22 38.02,-28.39 56.39,-42.35l-148.57 -1.37 -43.53 -137.16 -48.73 136.57z"/>
   <path class="fil11" d="M1603.02 4031.19l-107.57 -54.5 52.37 112.68c-17.83,14.24 -75.43,63.61 -86.13,83.75l120.93 -16.07 50.22 105.51c13.63,-12.1 21.24,-89.82 24.63,-113.82l120.89 -19.94 -105.19 -58.03 19.18 -120.12 -89.33 80.54z"/>
   <path class="fil11" d="M2954.59 4223.13l-116.58 31.13 110 47.14 -7.01 121.81c12.88,-9.21 70.27,-79.3 76.14,-90.88l115.81 43.81c-14.49,-33.98 -51.38,-76.51 -60.08,-105.52 18,-25.79 63.84,-71.4 74.91,-92.86l-121.02 28.59c-6.41,-19.18 -51.3,-92.6 -64.2,-101.87l-7.97 118.65z"/>
   <path class="fil11" d="M3393.44 4068.95l-105.69 57.79 120.76 20.26 13.99 86.01c1.28,6.84 0.72,5.93 2.71,12.96l6.14 15.81 52.02 -104.13 120.59 16.05c-9.34,-18.47 -23.58,-27.9 -41.54,-44.46 -15.33,-14.13 -27.61,-26.42 -42.72,-39.01l51.73 -112.51 -108.33 55.37 -87.97 -83.41 18.31 119.27z"/>
   <path class="fil11" d="M2039.25 4205.18l-121.05 -28.44c10.07,22.15 56.56,67.95 74.67,93.88 -8.7,29.01 -45.6,71.54 -60.38,104.79l115.32 -45.04c6.71,13.67 63.98,83.55 75.46,92.96l-6.39 -123.36 107.77 -44.84 -113.76 -31.13 -7.9 -119.5c-12.72,9.25 -57.61,82.67 -63.74,100.68z"/>
  </g>
 </g>
</svg>
