<?xml version="1.0" encoding="UTF-8"?>
<!DOCTYPE svg PUBLIC "-//W3C//DTD SVG 1.1//EN" "http://www.w3.org/Graphics/SVG/1.1/DTD/svg11.dtd">
<!-- Creator: CorelDRAW -->
<svg xmlns="http://www.w3.org/2000/svg" xml:space="preserve" width="47.498mm" height="11.43mm" version="1.1" style="shape-rendering:geometricPrecision; text-rendering:geometricPrecision; image-rendering:optimizeQuality; fill-rule:evenodd; clip-rule:evenodd"
viewBox="0 0 4749.8 1143"
 xmlns:xlink="http://www.w3.org/1999/xlink"
 xmlns:xodm="http://www.corel.com/coreldraw/odm/2003">
 <defs>
  <style type="text/css">
   <![CDATA[
    .fil1 {fill:#E31F25}
    .fil0 {fill:#5C5C5B;fill-rule:nonzero}
   ]]>
  </style>
 </defs>
 <g id="Layer_x0020_1">
  <metadata id="CorelCorpID_0Corel-Layer"/>
  <g id="_105553261325248">
   <path class="fil0" d="M455.03 589.94l-170.75 0 13.51 -66.62c8.53,-42.05 12.34,-68.32 11.3,-78.84 -1.02,-10.66 -7.55,-15.91 -19.43,-15.91 -10.22,0 -18.18,4.47 -23.76,13.6 -5.55,8.96 -12.08,32.3 -19.66,69.71l-71.36 351.82c-6.65,32.78 -9.27,54.57 -7.64,64.93 1.63,10.35 7.89,15.61 18.94,15.61 12.16,0 21.5,-5.88 28.3,-17.62 6.67,-11.75 13.55,-34.78 20.48,-68.95l17.62 -86.87 -33.16 0 22.57 -111.29 198.93 0 -79.75 393.24 -107.34 0 -5.09 -52.55c-16.21,22.72 -34.31,39.72 -54.17,51.16 -20,11.44 -42.02,17.16 -65.92,17.16 -28.6,0 -53.69,-7.73 -75.53,-23.34 -21.7,-15.61 -36.74,-34.78 -44.92,-57.82 -8.34,-22.87 -11.46,-46.99 -9.67,-72.18 1.93,-25.2 7.96,-63.07 18.18,-113.46l44.2 -217.96c14.2,-70.02 27.83,-120.88 41.03,-152.57 13.22,-31.84 38.46,-60.9 75.73,-87.33 37.28,-26.44 81.25,-39.58 131.95,-39.58 49.87,0 88.85,11.44 117.06,34.47 28.21,23.03 44.24,50.24 47.79,81.77 3.52,31.69 -0.79,77.45 -13.01,137.73l-6.43 31.69zm107.45 313.49l-30.29 149.32 -123.5 0 30.29 -149.32 123.5 0zm166.99 -584.31l120.6 0c80.4,0 134.14,3.4 161.19,10.36 27.05,6.96 46.65,24.73 58.81,53.33 12.19,28.44 11.92,74.04 -0.74,136.49 -11.57,57.04 -25.7,95.38 -42.39,115.01 -16.55,19.63 -43.94,31.38 -82.02,35.24 31.79,9.43 52.05,21.95 60.45,37.72 8.44,15.61 12.68,30.14 12.77,43.28 0.24,13.14 -5.71,49.31 -17.72,108.52l-39.28 193.68 -158.31 0 49.5 -244.08c7.96,-39.26 10.12,-63.53 6.5,-72.96 -3.47,-9.43 -16.9,-14.07 -40.25,-14.07l-67.15 331.11 -170.75 0 148.79 -733.63zm145.36 125.21l-33.11 163.24c19.07,0 32.92,-2.94 41.71,-8.82 8.79,-5.87 16.55,-25.04 23.1,-57.34l8.18 -40.35c4.74,-23.34 4.11,-38.64 -1.74,-45.91 -5.85,-7.26 -18.67,-10.82 -38.14,-10.82zm286.93 459.1l-30.29 149.32 -123.5 0 30.28 -149.32 123.51 0zm166.99 -584.31l127.51 0c82.19,0 137.02,4.17 164.31,12.68 27.28,8.5 46.57,22.41 57.7,41.73 11.14,19.33 16.32,40.81 15.25,64.46 -1.09,23.81 -8.6,70.34 -22.7,139.9l-52.11 256.91c-13.35,65.85 -25.05,109.9 -35.06,132.01 -10.04,22.26 -23.26,39.72 -39.47,52.24 -16.35,12.52 -35.1,21.18 -56.44,26.28 -21.18,4.95 -52.21,7.42 -92.96,7.42l-214.82 0 148.79 -733.63zm145.35 125.21l-97.99 483.21c24.17,0 40.22,-5.56 47.97,-16.53 7.92,-11.14 16.77,-41.12 26.7,-90.13l57.88 -285.35c6.74,-33.23 10.1,-54.56 10.21,-64 -0.02,-9.42 -2.78,-16.22 -8.68,-20.55 -5.72,-4.49 -17.71,-6.65 -36.09,-6.65zm298.68 459.1l-30.28 149.32 -123.51 0 30.28 -149.32 123.51 0zm838.66 -584.31l-148.79 733.63 -149.2 0 100.03 -495.27 -159.7 495.27 -104.44 0 35.6 -484.14 -98.6 484.14 -149.2 0 148.79 -733.63 220.34 0c-2.78,44.37 -6.6,96.61 -11.38,156.28l-13.6 186.27 108.29 -342.55 221.86 0zm370.18 430.04c-14.95,73.73 -27.03,125.83 -36.42,156.43 -9.28,30.76 -24.62,58.74 -46.07,84.1 -21.44,25.35 -47.49,44.82 -78.02,58.42 -30.52,13.61 -64.23,20.41 -101.12,20.41 -35.08,0 -65.13,-6.49 -90.43,-19.32 -25.3,-12.83 -43.93,-32 -55.58,-57.66 -11.79,-25.66 -16.2,-53.64 -13.4,-83.78 2.96,-30.3 12.03,-83.17 27.33,-158.6l25.45 -125.52c14.96,-73.73 27.04,-125.82 36.43,-156.43 9.28,-30.76 24.62,-58.74 46.06,-84.09 21.44,-25.35 47.5,-44.83 78.02,-58.43 30.53,-13.61 64.23,-20.41 101.12,-20.41 35.09,0 65.13,6.49 90.44,19.33 25.3,12.83 43.93,31.99 55.58,57.65 11.79,25.66 16.2,53.64 13.4,83.78 -2.97,30.3 -12.03,83.17 -27.33,158.6l-25.46 125.52zm-121.87 -240.99c6.9,-34.01 9.66,-55.8 8.29,-65.39 -1.41,-9.42 -7.2,-14.21 -17.43,-14.21 -8.7,0 -16.11,3.86 -22.38,11.59 -6.09,7.57 -13.05,30.29 -20.7,68.01l-69.44 342.39c-8.62,42.51 -12.43,68.79 -11.4,78.69 1,10.04 7.05,14.99 18.09,14.99 11.34,0 19.82,-5.72 25.31,-17.16 5.5,-11.44 12.57,-38.8 21.32,-81.93l68.34 -336.98zm616.34 -189.05l-29.71 146.54 -100.3 0 -119.07 587.09 -170.75 0 119.07 -587.09 -101.12 0 29.72 -146.54 372.16 0zm340.49 430.04c-14.95,73.73 -27.04,125.83 -36.42,156.43 -9.28,30.76 -24.63,58.74 -46.07,84.1 -21.44,25.35 -47.5,44.82 -78.02,58.42 -30.53,13.61 -64.24,20.41 -101.12,20.41 -35.09,0 -65.13,-6.49 -90.44,-19.32 -25.3,-12.83 -43.93,-32 -55.58,-57.66 -11.79,-25.66 -16.2,-53.64 -13.4,-83.78 2.97,-30.3 12.03,-83.17 27.33,-158.6l25.46 -125.52c14.95,-73.73 27.04,-125.82 36.42,-156.43 9.28,-30.76 24.62,-58.74 46.07,-84.09 21.44,-25.35 47.49,-44.83 78.02,-58.43 30.53,-13.61 64.23,-20.41 101.11,-20.41 35.09,0 65.14,6.49 90.44,19.33 25.3,12.83 43.93,31.99 55.58,57.65 11.79,25.66 16.2,53.64 13.41,83.78 -2.97,30.3 -12.04,83.17 -27.33,158.6l-25.46 125.52zm-121.87 -240.99c6.89,-34.01 9.66,-55.8 8.28,-65.39 -1.4,-9.42 -7.2,-14.21 -17.42,-14.21 -8.7,0 -16.12,3.86 -22.38,11.59 -6.1,7.57 -13.06,30.29 -20.7,68.01l-69.45 342.39c-8.62,42.51 -12.43,68.79 -11.39,78.69 1,10.04 7.04,14.99 18.09,14.99 11.33,0 19.81,-5.72 25.31,-17.16 5.5,-11.44 12.56,-38.8 21.31,-81.93l68.35 -336.98zm273.18 -189.05l120.6 0c80.4,0 134.15,3.4 161.19,10.36 27.05,6.96 46.65,24.73 58.81,53.33 12.19,28.44 11.92,74.04 -0.74,136.49 -11.57,57.04 -25.7,95.38 -42.39,115.01 -16.55,19.63 -43.94,31.38 -82.02,35.24 31.79,9.43 52.05,21.95 60.45,37.72 8.44,15.61 12.68,30.14 12.78,43.28 0.23,13.14 -5.72,49.31 -17.73,108.52l-39.28 193.68 -158.32 0 49.51 -244.08c7.96,-39.26 10.12,-63.53 6.51,-72.96 -3.48,-9.43 -16.91,-14.07 -40.25,-14.07l-67.16 331.11 -170.74 0 148.78 -733.63zm145.36 125.21l-33.11 163.24c19.07,0 32.92,-2.94 41.71,-8.82 8.79,-5.87 16.55,-25.04 23.1,-57.34l8.18 -40.35c4.74,-23.34 4.11,-38.64 -1.74,-45.91 -5.85,-7.26 -18.66,-10.82 -38.14,-10.82zm616.41 97.38l-158.32 0 11.01 -54.25c5.14,-25.35 6.36,-41.58 3.76,-48.54 -2.59,-6.96 -8.53,-10.35 -17.93,-10.35 -10.22,0 -18.9,4.63 -26.06,14.06 -7.13,9.28 -12.61,23.34 -16.46,42.35 -4.96,24.43 -5.65,42.83 -2.22,55.19 3.33,12.21 16.31,27.21 39.13,44.83 65.31,50.55 104.54,92.13 117.6,124.43 13.21,32.31 12.45,84.4 -2.1,156.13 -10.59,52.25 -23.92,90.74 -39.89,115.62 -15.93,24.74 -41.13,45.45 -75.87,62.14 -34.64,16.85 -72.67,25.2 -114.25,25.2 -45.58,0 -82.43,-9.74 -110.84,-29.06 -28.27,-19.32 -44.28,-43.9 -48.31,-73.73 -3.87,-29.99 -0.22,-72.5 10.91,-127.38l9.75 -48.07 158.31 0 -18.08 89.19c-5.58,27.52 -6.95,45.14 -4.12,53.02 2.82,7.88 9.91,11.75 21.24,11.75 11.32,0 20.75,-4.95 28.32,-14.99 7.53,-9.9 13.3,-24.74 17.25,-44.21 8.75,-43.13 9.23,-71.42 1.4,-84.56 -8.21,-13.29 -30.22,-35.55 -66.17,-66.78 -35.91,-31.38 -59.17,-54.26 -70.1,-68.48 -10.79,-14.22 -18.28,-33.85 -22.18,-58.89 -3.9,-25.04 -1.97,-57.04 5.93,-95.99 11.38,-56.12 26.08,-97.23 44.19,-123.2 18.11,-25.97 42.8,-46.22 74.38,-60.91 31.58,-14.68 67.45,-21.95 107.92,-21.95 44.21,0 80.16,8.04 108.15,23.96 27.82,16.08 44.33,36.17 49.46,60.6 5.16,24.27 1.9,65.54 -9.92,123.81l-5.89 29.06z"/>
   <g>
    <path class="fil1" d="M1799.13 350.47c32.02,0 57.97,25.95 57.97,57.97 0,32.02 -25.95,57.98 -57.97,57.98 -32.02,0 -57.98,-25.96 -57.98,-57.98 0,-32.02 25.96,-57.97 57.98,-57.97z"/>
    <path class="fil1" d="M1710.15 244.87c26.57,0 48.11,21.54 48.11,48.11 0,26.57 -21.54,48.11 -48.11,48.11 -26.56,0 -48.1,-21.54 -48.1,-48.11 0,-26.57 21.54,-48.11 48.1,-48.11z"/>
    <path class="fil1" d="M1606.7 182.7c21.12,0 38.24,17.13 38.24,38.25 0,21.11 -17.12,38.23 -38.24,38.23 -21.12,0 -38.24,-17.12 -38.24,-38.23 0,-21.12 17.12,-38.25 38.24,-38.25z"/>
    <path class="fil1" d="M1848.31 190.6c26.57,0 48.1,21.54 48.1,48.11 0,26.56 -21.53,48.1 -48.1,48.1 -26.57,0 -48.11,-21.54 -48.11,-48.1 0,-26.57 21.54,-48.11 48.11,-48.11z"/>
    <path class="fil1" d="M1741.24 124.81c21.12,0 38.24,17.12 38.24,38.24 0,21.12 -17.12,38.24 -38.24,38.24 -21.12,0 -38.24,-17.12 -38.24,-38.24 0,-21.12 17.12,-38.24 38.24,-38.24z"/>
    <path class="fil1" d="M1864.76 74.48c21.11,0 38.23,17.12 38.23,38.24 0,21.12 -17.12,38.24 -38.23,38.24 -21.12,0 -38.25,-17.12 -38.25,-38.24 0,-21.12 17.13,-38.24 38.25,-38.24z"/>
   </g>
  </g>
 </g>
</svg>
