<?xml version="1.0" encoding="UTF-8"?>
<!DOCTYPE svg PUBLIC "-//W3C//DTD SVG 1.1//EN" "http://www.w3.org/Graphics/SVG/1.1/DTD/svg11.dtd">
<!-- Creator: CorelDRAW X7 -->
<svg xmlns="http://www.w3.org/2000/svg" xml:space="preserve" width="3.4in" height="3.4in" version="1.1" style="shape-rendering:geometricPrecision; text-rendering:geometricPrecision; image-rendering:optimizeQuality; fill-rule:evenodd; clip-rule:evenodd"
viewBox="0 0 3400 3400"
 xmlns:xlink="http://www.w3.org/1999/xlink">
 <defs>
  <style type="text/css">
   <![CDATA[
    .fil0 {fill:none}
    .fil2 {fill:white;fill-rule:nonzero}
    .fil1 {fill:url(#id0);fill-rule:nonzero}
   ]]>
  </style>
  <linearGradient id="id0" gradientUnits="userSpaceOnUse" x1="1700" y1="5.80709" x2="1700" y2="3394.19">
   <stop offset="0" style="stop-opacity:1; stop-color:#60FD7C"/>
   <stop offset="1" style="stop-opacity:1; stop-color:#2AB826"/>
  </linearGradient>
 </defs>
 <g id="Layer_x0020_1">
  <metadata id="CorelCorpID_0Corel-Layer"/>
  <rect class="fil0" width="3400" height="3400"/>
  <g id="_1688102227648">
   <g>
    <g>
     <g>
      <path class="fil1" d="M3394 2534c0,19 -1,59 -2,90 -2,76 -9,174 -18,219 -13,67 -34,131 -61,183 -32,63 -73,119 -121,167 -48,48 -104,89 -166,121 -53,27 -117,47 -185,61 -44,9 -142,15 -217,18 -31,1 -71,1 -90,1l-1668 0c-19,0 -59,-1 -90,-2 -76,-2 -174,-9 -219,-18 -67,-13 -131,-34 -183,-61 -63,-32 -119,-73 -167,-121 -48,-48 -89,-104 -121,-166 -27,-53 -47,-117 -61,-185 -9,-44 -15,-142 -18,-217 -1,-31 -1,-71 -1,-90l0 -1668c0,-19 1,-59 2,-90 2,-76 9,-174 18,-219 13,-67 34,-131 61,-183 32,-63 73,-119 121,-167 48,-48 104,-89 166,-121 53,-27 117,-47 185,-61 44,-9 142,-15 217,-18 31,-1 71,-1 90,-1l1668 0c19,0 59,1 90,2 76,2 174,9 219,18 67,13 131,34 183,61 63,32 119,73 167,121 48,48 89,104 121,166 27,53 47,117 61,185 9,44 15,142 18,217 1,31 1,71 1,90l0 1668z"/>
     </g>
    </g>
   </g>
   <g>
    <g>
     <g>
      <path class="fil2" d="M2598 807c-230,-229 -535,-356 -860,-356 -670,0 -1215,545 -1215,1215 0,214 56,423 162,607l-172 629 644 -168c178,96 377,147 581,147l0 0c0,0 0,0 0,0 670,0 1215,-545 1215,-1214 0,-325 -126,-630 -355,-860zm-860 1869l0 0 0 0c-181,0 -359,-48 -514,-140l-37 -22 -382 100 102 -373 -24 -38c-101,-161 -155,-346 -155,-537 0,-557 454,-1010 1011,-1010 269,0 523,106 714,296 190,191 295,445 295,715 0,556 -453,1009 -1010,1009zm554 -756l0 0c-30,-15 -179,-88 -207,-99 -28,-10 -48,-15 -69,16 -20,30 -78,98 -96,119 -17,20 -35,22 -66,7 -30,-15 -128,-47 -244,-150 -90,-81 -151,-180 -169,-211 -17,-30 -1,-47 14,-62 13,-13 30,-35 45,-53 15,-18 21,-30 31,-50 10,-21 5,-38 -3,-54 -7,-15 -68,-164 -93,-225 -25,-59 -50,-51 -69,-52 -17,-1 -38,-1 -58,-1 -20,0 -53,7 -81,38 -28,30 -106,104 -106,253 0,149 109,294 124,314 15,20 214,327 518,458 73,32 129,50 173,64 73,23 139,20 192,12 58,-8 179,-73 205,-144 25,-71 25,-132 17,-144 -7,-13 -27,-21 -58,-36z"/>
     </g>
    </g>
   </g>
  </g>
 </g>
</svg>
