<?xml version="1.0" encoding="UTF-8"?>
<!DOCTYPE svg PUBLIC "-//W3C//DTD SVG 1.1//EN" "http://www.w3.org/Graphics/SVG/1.1/DTD/svg11.dtd">
<!-- Creator: CorelDRAW -->
<svg xmlns="http://www.w3.org/2000/svg" xml:space="preserve" width="77.6224mm" height="18.3388mm" version="1.1" style="shape-rendering:geometricPrecision; text-rendering:geometricPrecision; image-rendering:optimizeQuality; fill-rule:evenodd; clip-rule:evenodd"
viewBox="0 0 7762.24 1833.88"
 xmlns:xlink="http://www.w3.org/1999/xlink"
 xmlns:xodm="http://www.corel.com/coreldraw/odm/2003">
 <defs>
  <style type="text/css">
   <![CDATA[
    .fil2 {fill:none}
    .fil3 {fill:#CA2526}
    .fil4 {fill:#E84247}
    .fil1 {fill:#FAB73E}
    .fil0 {fill:#FDD07E}
    .fil6 {fill:#2B2B2A;fill-rule:nonzero}
    .fil5 {fill:#1C1B17;fill-rule:nonzero}
   ]]>
  </style>
     <clipPath id="id0">
      <path d="M841.94 886.76c-151.19,115.95 -277.37,152.31 -613.84,102.3 -27.28,-4.54 -53.42,-5.68 -80.71,-4.54 45.47,225.06 245.54,395.57 484.25,395.57 265.99,0 483.1,-211.43 492.2,-476.28 -103.45,-51.15 -200.07,-80.71 -281.91,-17.05l0.01 0z"/>
     </clipPath>
     <clipPath id="id1">
      <path d="M1365.97 1136.83c-29.56,54.56 -76.16,90.94 -143.22,112.54 54.55,-177.33 34.1,-360.34 6.82,-485.37 11.37,0 23.87,0 37.51,1.13 32.97,2.28 78.44,9.1 108,34.11 20.46,18.19 31.83,44.33 31.83,79.57 1.14,86.39 -2.27,184.15 -40.93,258.04l-0.01 -0.02zm147.77 -260.31c-1.14,-34.1 -6.82,-64.79 -20.46,-92.07 -11.37,-26.15 -28.42,-48.88 -50.01,-67.07 -42.07,-35.24 -100.04,-54.56 -171.65,-59.1 -28.42,-1.14 -53.42,0 -70.47,1.13 -10.24,-31.83 -17.06,-50.01 -17.06,-50.01l-95.48 0c48.87,80.71 77.29,176.2 77.29,277.37 0,295.55 -239.85,535.4 -534.26,535.4 -295.56,0 -535.4,-239.85 -535.4,-535.4 0,-101.17 28.42,-196.66 77.29,-277.37l-101.17 0c0,0 -250.08,616.11 179.6,960.54 0,1.14 0,2.27 0,4.55l0 31.83c0,35.24 28.43,63.65 62.52,63.65l622.93 0c34.11,0 62.52,-28.42 62.52,-63.65l0 -31.83c0,0 0,-1.14 0,-1.14 77.3,-60.24 132.99,-130.72 172.78,-203.48 68.2,-11.37 127.32,-31.83 175.06,-61.38 47.74,-30.69 85.25,-71.61 111.4,-121.63 51.15,-95.49 55.7,-210.3 54.56,-310.33l0.01 -0.01z"/>
     </clipPath>
     <clipPath id="id2">
      <path d="M695.3 926.53c0,0 3.41,-2.27 9.1,-7.95 1.13,-1.14 3.41,-3.41 4.54,-4.55 2.28,-2.27 4.55,-3.41 5.69,-5.69 4.55,-4.54 9.09,-9.09 13.64,-14.77 4.55,-5.69 10.23,-11.37 15.92,-18.19 4.55,-6.83 10.23,-14.78 15.91,-22.74 5.69,-9.1 11.37,-18.19 15.92,-27.29 1.14,-2.27 2.27,-5.68 4.55,-7.96 0,-1.13 1.14,-2.27 1.14,-3.41 1.13,-1.13 1.13,-3.41 2.27,-4.54 1.14,-2.28 2.27,-4.55 3.41,-7.96 1.14,-2.28 2.27,-4.55 3.41,-7.96 1.14,-1.14 1.14,-2.27 2.27,-4.55 0,-1.13 1.14,-2.27 1.14,-3.41 1.14,-2.27 1.14,-3.41 1.14,-4.55 1.13,-1.13 1.13,-3.41 2.27,-4.54 1.14,-3.41 2.28,-5.69 2.28,-9.1 1.13,-1.14 1.13,-2.27 2.27,-4.55 0,-1.13 0,-3.41 1.14,-4.54 0,-1.14 1.13,-3.41 1.13,-4.55 0,-1.14 1.14,-3.41 1.14,-4.55 1.14,-3.41 1.14,-6.82 2.27,-10.23 1.14,-2.27 1.14,-5.68 2.28,-9.1 0,-2.27 0,-3.41 1.13,-4.54 0,-2.28 0,-3.41 0,-5.69 1.14,-3.41 1.14,-6.82 2.28,-10.23 0,-3.41 0,-6.82 0,-10.23 1.13,-3.41 1.13,-6.82 1.13,-10.23 0,-1.14 0,-3.41 0,-5.69 1.14,-1.13 1.14,-3.41 1.14,-4.54 0,-3.42 0,-6.83 0,-11.37 0,-3.41 0,-6.82 0,-10.24 0,-2.27 0,-3.41 0,-5.68l0 -2.27 0 -1.14c0,-1.14 0,0 0,0l0 -1.14 0 0c-1.14,-4.54 -1.14,-9.09 -1.14,-11.37l0 -3.41c0,0 0,-1.13 0,-2.27 -1.13,-1.14 -1.13,-3.41 -1.13,-5.68 0,-1.14 0,-3.42 -1.14,-4.55l0 -3.41c0,0 0,-1.14 0,-2.28 -1.14,-6.82 -3.41,-13.64 -4.55,-20.46 -3.41,-13.64 -9.09,-27.29 -15.91,-39.79 -2.28,-5.69 -6.82,-12.51 -10.23,-18.19 -1.14,-1.14 -2.28,-3.41 -3.42,-4.55 -1.13,-1.14 -2.27,-2.27 -3.41,-4.55l-3.41 -4.54 -3.41 -3.41c-9.09,-12.51 -20.46,-23.88 -31.83,-35.25 -12.51,-11.37 -25.01,-23.87 -36.38,-37.51 -6.82,-6.83 -12.51,-14.78 -18.19,-22.74 -5.68,-7.96 -11.37,-15.92 -15.92,-25.01 -4.54,-9.1 -7.95,-18.19 -11.37,-27.29 -3.41,-10.23 -5.68,-19.33 -6.82,-28.42 -2.27,-10.23 -2.27,-19.33 -3.41,-28.42 0,-2.28 0,-4.55 0,-7.96 0,-2.27 0,-4.55 0,-6.82l0 -1.14 0 0 0 -2.27 1.14 -2.28c0,-2.27 0,-4.54 0,-6.82l0 -3.41c0,-1.14 1.14,-2.27 1.14,-3.41 0,-2.27 0,-4.55 0,-6.82 1.13,-2.27 1.13,-4.55 1.13,-6.82 1.14,-2.28 1.14,-4.55 1.14,-6.82 1.14,-4.55 2.27,-9.1 3.41,-13.65 1.14,-1.13 1.14,-3.41 2.27,-5.68l1.14 -3.41 1.14 -3.41c5.68,-15.92 12.5,-31.83 21.6,-45.46 9.09,-13.65 19.33,-26.15 28.42,-36.38 10.23,-11.37 20.46,-20.47 30.7,-29.56 20.46,-17.06 38.65,-30.7 53.42,-43.19 7.96,-6.82 14.78,-13.65 21.6,-19.33 5.68,-6.82 10.23,-12.51 14.78,-18.19 1.14,-1.14 2.27,-2.27 2.27,-4.55 1.14,-1.13 2.28,-2.27 3.41,-3.41 0,-1.14 1.14,-3.41 2.28,-4.55 0,-1.13 1.13,-2.27 1.13,-3.41 2.28,-5.68 4.55,-10.23 5.69,-13.64 0,-1.14 0,-2.27 1.14,-2.27 0,-1.14 0,-2.28 0,-2.28 0,-1.13 0,-2.27 0,-2.27 1.13,-1.14 1.13,-1.14 1.13,-2.27 0,-2.28 0,-2.28 0,-2.28 0,0 0,0 1.14,2.28 0,1.13 0,1.13 0,2.27 0,0 0,1.14 0,2.27 0,0 0,1.14 0,2.28 0,1.13 0,2.27 0,2.27 0,2.27 0,4.55 0,7.96 0,1.14 0,2.27 0,3.41 0,1.14 -1.14,3.41 -1.14,4.55 -1.13,5.68 -2.27,12.5 -5.68,20.46 -5.69,14.78 -14.78,30.7 -28.42,47.74 -13.65,17.05 -29.56,35.24 -45.47,53.42 -7.96,10.23 -14.78,20.46 -22.74,30.7 -6.82,10.23 -13.64,21.6 -19.32,32.97 -3.41,5.68 -5.69,11.36 -7.96,18.19 -2.27,5.68 -3.41,12.5 -5.69,18.19l0 2.27 -1.13 2.27c0,2.28 0,3.41 0,5.69 -1.14,3.41 -1.14,5.68 -2.28,9.09 0,2.28 0,3.41 0,5.69 0,1.13 0,3.41 0,4.54 0,2.28 0,3.41 -1.13,5.69 0,0 0,1.14 0,2.27l0 2.28c0,1.13 0,3.41 0,5.68l0 2.27 0 2.28 1.13 0c0,0 0,0 0,0l0 0c0,2.27 0,3.41 0,5.68 0,1.14 0,3.41 0,4.55 1.14,6.82 2.28,13.64 3.41,20.46 1.14,6.83 3.42,12.51 5.69,19.33 2.27,5.69 5.68,12.51 9.09,18.19 3.41,5.69 6.83,11.37 11.37,17.05 4.55,5.69 9.1,11.37 13.65,17.06 10.23,11.37 22.73,22.73 34.1,34.1 12.51,12.51 25.01,26.15 37.52,40.93l4.55 5.69 3.41 5.68c1.13,2.27 3.41,3.41 4.54,5.68 1.14,2.28 2.28,4.55 3.42,5.69 5.68,9.09 10.23,17.05 14.77,26.15 3.42,7.95 7.96,17.05 10.24,26.14 3.41,9.1 5.68,18.19 6.82,27.29 2.27,9.1 3.41,18.19 4.55,27.29 0,2.27 0,4.54 0,6.82 1.13,2.27 1.13,4.54 1.13,6.82 0,2.27 0,4.55 0,6.82 0,1.14 0,2.27 0,3.41l0 3.41c0,4.55 0,7.96 0,12.51l0 2.27 0 1.14 0 3.41c0,2.27 -1.13,3.41 -1.13,5.68 0,9.1 -1.14,17.05 -2.28,25.01 0,2.28 0,4.55 -1.14,6.82 0,1.14 0,3.41 -1.13,5.69 0,3.41 -1.14,7.96 -2.28,11.37 0,4.54 -1.13,7.96 -2.27,12.5 0,1.14 0,1.14 -1.14,2.28l0 3.41c-1.13,2.27 -1.13,3.41 -2.27,5.68 0,2.28 -1.14,3.41 -1.14,5.69 0,1.13 -1.13,3.41 -2.27,5.68 -1.14,3.41 -2.27,6.82 -3.41,10.23 -1.14,3.41 -2.28,7.96 -3.41,11.37 -1.14,1.14 -2.28,3.41 -2.28,4.55 -1.13,2.27 -2.27,3.41 -2.27,5.68 -5.68,13.65 -12.51,25.01 -20.46,37.52 -1.14,2.27 -3.41,5.68 -4.55,7.96 -2.27,3.41 -4.55,5.68 -5.69,7.96 -1.13,1.13 -2.27,3.41 -3.41,4.54 0,1.14 -1.13,2.28 -2.27,3.41 -1.14,1.14 -2.27,2.28 -3.41,3.42 0,1.13 -1.14,2.27 -2.27,3.41 -2.28,3.41 -4.55,5.68 -5.69,7.95 -1.14,1.14 -2.27,2.28 -3.41,3.41 -1.14,0 -2.27,1.14 -2.27,2.28 -4.55,4.55 -7.96,9.09 -11.37,12.5 -4.55,3.41 -7.96,7.96 -12.51,10.24 -1.13,2.27 -3.41,3.41 -4.54,5.68 -2.28,1.14 -4.55,2.27 -5.69,4.55 -2.27,1.13 -3.41,2.27 -5.68,3.41 -1.14,2.27 -3.41,3.41 -4.55,4.55 -3.41,2.27 -6.82,4.54 -10.23,6.82 -3.41,2.27 -6.82,4.54 -9.1,5.68 -1.14,1.14 -3.41,2.28 -4.55,3.41 -1.13,0 -2.27,1.14 -3.41,2.28 -5.68,2.27 -10.23,4.54 -13.64,6.82 -3.41,1.13 -6.82,2.27 -7.96,3.41 -2.27,1.13 -3.41,1.13 -3.41,1.13z"/>
     </clipPath>
     <clipPath id="id3">
      <path d="M616.86 948.14c0,0 1.13,0 2.27,-1.14 1.14,-1.14 2.28,-2.28 4.55,-3.41 2.27,-2.28 4.55,-4.55 6.82,-6.82 1.14,-1.14 3.41,-3.41 4.55,-4.55 2.27,-1.14 3.41,-3.41 5.68,-4.55 6.82,-6.82 14.78,-15.91 23.88,-26.15 7.95,-11.37 18.19,-22.73 26.14,-37.51 2.28,-3.41 4.55,-6.82 6.83,-10.24 1.13,-2.27 2.27,-4.54 3.41,-5.68 1.13,-2.27 2.27,-4.55 3.41,-5.68 1.13,-2.28 2.27,-4.55 3.41,-5.69 1.13,-2.27 2.27,-4.55 2.27,-6.82 2.28,-3.41 4.55,-7.96 6.82,-12.51 6.82,-17.05 13.65,-35.24 19.33,-55.69 4.55,-19.33 7.96,-39.79 9.1,-61.38 0,-2.28 0,-5.69 0,-7.96l1.13 -3.41 0 -2.27c0,-1.14 0,-1.14 0,-2.28 0,-5.68 0,-10.23 0,-15.91 0,-2.28 0,-5.69 0,-7.96 0,-3.41 0,-5.69 -1.13,-7.96l0 -7.96 -1.14 -7.96c-1.14,-10.23 -3.41,-20.46 -5.69,-30.69 -1.13,-5.69 -2.27,-10.23 -4.54,-14.78 -1.14,-5.69 -3.41,-10.23 -4.55,-14.78 -4.55,-9.1 -9.1,-18.19 -14.78,-27.29 -4.55,-7.95 -11.37,-17.05 -17.05,-25.01 -12.51,-15.91 -26.15,-30.69 -39.79,-45.46 -6.83,-6.82 -13.65,-14.78 -19.33,-21.6 -5.69,-7.96 -11.37,-14.78 -15.92,-22.74 -5.68,-7.96 -9.09,-14.78 -12.5,-22.74 -4.55,-7.96 -6.82,-14.78 -9.1,-21.6 -2.27,-7.96 -3.41,-13.64 -4.55,-20.46 -1.13,-5.69 -1.13,-11.37 -1.13,-17.05 0,-1.14 0,-2.28 0,-3.42 0,-1.13 0,-2.27 0,-3.41 0,-2.27 0,-4.54 0,-6.82 0,-3.41 0,-6.82 0,-10.23 0,-2.27 1.13,-4.55 1.13,-5.68 0,-1.14 0,-2.28 0,-2.28 0,0 1.14,3.41 1.14,7.96 1.14,5.69 2.27,13.64 5.69,22.74 0,1.14 0,2.27 1.13,3.41 0,1.14 0,2.27 1.14,4.55 0,0 0,1.13 0,1.13 0,1.14 1.14,1.14 1.14,2.28 0,1.13 1.13,2.27 1.13,4.54 2.28,4.55 4.55,10.24 7.96,17.06 5.69,11.37 14.78,23.87 25.01,36.38 2.28,2.27 5.69,5.68 7.96,9.09 3.41,2.28 6.82,5.69 10.23,9.1 5.69,5.68 12.51,12.5 20.47,19.33 14.78,12.5 30.69,26.14 45.46,43.19 7.96,9.09 14.78,18.19 21.6,27.28 3.41,5.68 6.82,10.23 10.23,15.92 2.28,4.54 5.69,10.23 7.96,15.91 2.27,5.69 4.55,11.37 6.82,17.06 2.28,5.68 4.55,11.36 5.69,18.19 3.41,11.36 5.68,23.87 6.82,36.38l1.13 9.09 1.14 9.1c0,3.41 0,5.68 0,9.09 0,3.41 0,5.69 0,9.1l0 1.13 0 1.14 0 2.27 0 4.55c0,2.27 0,5.69 0,9.1 0,0 -1.14,1.13 -1.14,2.27l0 1.14 0 4.54c0,3.41 0,6.83 -1.13,9.1 -2.28,23.87 -6.82,46.6 -13.65,68.2 -7.95,21.6 -17.05,42.07 -27.28,59.11 -2.27,4.54 -4.55,9.09 -7.96,13.64 -1.14,1.14 -2.27,3.41 -3.41,5.68 -2.27,2.28 -3.41,4.55 -4.55,5.69 -1.13,2.27 -3.41,4.55 -4.54,5.68 -1.14,2.28 -2.28,4.55 -4.55,5.69 -2.28,4.54 -5.69,7.96 -7.96,11.37 -1.14,0 -2.27,1.13 -2.27,2.27 -1.14,0 -1.14,1.14 -2.28,2.27 -1.13,1.14 -3.41,3.41 -4.54,4.55 -3.42,3.41 -5.69,5.69 -9.1,9.1 -2.27,2.27 -5.68,5.68 -7.96,7.95 -3.41,2.28 -5.68,4.55 -9.09,6.83 -10.23,9.09 -20.47,15.91 -29.56,21.6 -4.55,3.41 -7.96,5.68 -11.37,6.82 -3.41,2.27 -6.82,3.41 -9.1,4.54 -2.27,1.14 -4.54,2.28 -5.68,3.42 -1.14,0 -2.27,0 -2.27,0l0.01 0z"/>
     </clipPath>
     <clipPath id="id4">
      <path d="M107.6 1705.19c0,9.1 6.83,13.65 11.37,19.33 5.69,5.68 11.37,10.23 15.92,15.92 5.68,4.54 10.23,10.23 15.92,15.91 5.68,4.55 11.36,10.24 15.91,15.92 2.28,1.14 2.28,1.14 4.55,3.41 15.92,14.78 32.97,27.29 54.56,31.83 6.82,2.28 19.32,4.55 27.28,4.55l742.28 0c20.47,0 38.66,-5.68 55.7,-14.78l14.78 -10.23c11.37,-9.1 21.6,-21.6 28.42,-26.15 5.68,-5.68 4.55,-4.55 7.96,-7.96 1.14,-2.27 2.27,-2.27 4.55,-4.54l23.87 -23.88c4.55,-4.55 12.51,-10.23 12.51,-19.33 0,-9.09 -7.96,-18.19 -17.06,-18.19l-1001.45 0c-10.23,0 -17.05,10.24 -17.05,18.19l-0.02 0z"/>
     </clipPath>
 </defs>
 <g id="Layer_x0020_1">
  <metadata id="CorelCorpID_0Corel-Layer"/>
  <g id="_105553370431584">
   <g>
    <path class="fil0" d="M841.94 886.76c-151.19,115.95 -277.37,152.31 -613.84,102.3 -27.28,-4.54 -53.42,-5.68 -80.71,-4.54 45.47,225.06 245.54,395.57 484.25,395.57 265.99,0 483.1,-211.43 492.2,-476.28 -103.45,-51.15 -200.07,-80.71 -281.91,-17.05l0.01 0z"/>
    <g>
    </g>
    <g style="clip-path:url(#id0)">
     <g>
      <path id="_1" class="fil1" d="M921.51 761.71c-210.3,161.41 -384.22,212.57 -850.27,142.09 -38.66,-5.69 -75.03,-7.96 -112.54,-5.69 63.65,312.6 339.88,547.91 670.66,547.91 369.44,0 670.67,-293.28 683.18,-660.44 -144.36,-71.61 -277.37,-111.4 -391.03,-23.87z"/>
     </g>
    </g>
    <path class="fil2" d="M841.94 886.76c-151.19,115.95 -277.37,152.31 -613.84,102.3 -27.28,-4.54 -53.42,-5.68 -80.71,-4.54 45.47,225.06 245.54,395.57 484.25,395.57 265.99,0 483.1,-211.43 492.2,-476.28 -103.45,-51.15 -200.07,-80.71 -281.91,-17.05l0.01 0z"/>
    <path class="fil2" d="M841.94 886.76c-151.19,115.95 -277.37,152.31 -613.84,102.3 -27.28,-4.54 -53.42,-5.68 -80.71,-4.54 45.47,225.06 245.54,395.57 484.25,395.57 265.99,0 483.1,-211.43 492.2,-476.28 -103.45,-51.15 -200.07,-80.71 -281.91,-17.05l0.01 0z"/>
    <path class="fil3" d="M1365.97 1136.83c-29.56,54.56 -76.16,90.94 -143.22,112.54 54.55,-177.33 34.1,-360.34 6.82,-485.37 11.37,0 23.87,0 37.51,1.13 32.97,2.28 78.44,9.1 108,34.11 20.46,18.19 31.83,44.33 31.83,79.57 1.14,86.39 -2.27,184.15 -40.93,258.04l-0.01 -0.02zm147.77 -260.31c-1.14,-34.1 -6.82,-64.79 -20.46,-92.07 -11.37,-26.15 -28.42,-48.88 -50.01,-67.07 -42.07,-35.24 -100.04,-54.56 -171.65,-59.1 -28.42,-1.14 -53.42,0 -70.47,1.13 -10.24,-31.83 -17.06,-50.01 -17.06,-50.01l-95.48 0c48.87,80.71 77.29,176.2 77.29,277.37 0,295.55 -239.85,535.4 -534.26,535.4 -295.56,0 -535.4,-239.85 -535.4,-535.4 0,-101.17 28.42,-196.66 77.29,-277.37l-101.17 0c0,0 -250.08,616.11 179.6,960.54 0,1.14 0,2.27 0,4.55l0 31.83c0,35.24 28.43,63.65 62.52,63.65l622.93 0c34.11,0 62.52,-28.42 62.52,-63.65l0 -31.83c0,0 0,-1.14 0,-1.14 77.3,-60.24 132.99,-130.72 172.78,-203.48 68.2,-11.37 127.32,-31.83 175.06,-61.38 47.74,-30.69 85.25,-71.61 111.4,-121.63 51.15,-95.49 55.7,-210.3 54.56,-310.33l0.01 -0.01z"/>
    <g>
    </g>
    <g style="clip-path:url(#id1)">
     <g id="_105553370424192">
      <path id="_1_0" class="fil2" d="M1354.6 1118.64c-29.56,54.56 -35.24,85.26 -103.44,106.86 54.56,-178.47 27.28,-272.82 0,-397.85 11.37,-1.14 -13.65,-38.65 0,-37.52 32.97,1.14 78.43,9.1 107.99,34.11 21.6,18.19 4.55,4.55 4.55,40.93 1.13,86.39 29.56,179.6 -9.1,253.49l0 -0.02zm148.91 -260.31c-1.14,-35.24 -7.96,-65.92 -20.46,-94.35 -12.51,-25.01 -29.56,-47.73 -51.15,-65.92 -42.07,-36.38 -100.04,-55.7 -172.79,-60.25 -28.42,-1.13 -23.87,-5.68 -40.92,-4.54 -9.1,-31.84 -17.06,-50.02 -17.06,-50.02l-125.04 5.69c48.87,81.84 77.3,176.19 77.3,278.5 0,296.69 -240.99,537.67 -537.68,537.67 -296.69,0 -395.58,-240.98 -395.58,-537.67 0,-102.31 97.76,-269.41 -64.79,-278.5l-101.17 0c0,0 -252.35,619.52 180.74,965.08 0,2.28 0,3.41 0,4.55l0 32.97c0,34.11 28.42,62.52 62.52,62.52l626.34 0c34.11,0 62.52,-28.43 62.52,-62.52l0 -32.97c0,0 0,0 0,0 78.43,-61.38 134.13,-131.85 173.92,-205.75 69.33,-10.23 128.45,-30.7 176.19,-61.38 47.74,-30.7 85.25,-71.61 112.54,-122.77 50.01,-94.35 55.7,-210.3 54.56,-310.33l0.01 -0.01z"/>
     </g>
    </g>
    <path class="fil2" d="M1365.97 1136.83c-29.56,54.56 -76.16,90.94 -143.22,112.54 54.55,-177.33 34.1,-360.34 6.82,-485.37 11.37,0 23.87,0 37.51,1.13 32.97,2.28 78.44,9.1 108,34.11 20.46,18.19 31.83,44.33 31.83,79.57 1.14,86.39 -2.27,184.15 -40.93,258.04l-0.01 -0.02zm147.77 -260.31c-1.14,-34.1 -6.82,-64.79 -20.46,-92.07 -11.37,-26.15 -28.42,-48.88 -50.01,-67.07 -42.07,-35.24 -100.04,-54.56 -171.65,-59.1 -28.42,-1.14 -53.42,0 -70.47,1.13 -10.24,-31.83 -17.06,-50.01 -17.06,-50.01l-95.48 0c48.87,80.71 77.29,176.2 77.29,277.37 0,295.55 -239.85,535.4 -534.26,535.4 -295.56,0 -535.4,-239.85 -535.4,-535.4 0,-101.17 28.42,-196.66 77.29,-277.37l-101.17 0c0,0 -250.08,616.11 179.6,960.54 0,1.14 0,2.27 0,4.55l0 31.83c0,35.24 28.43,63.65 62.52,63.65l622.93 0c34.11,0 62.52,-28.42 62.52,-63.65l0 -31.83c0,0 0,-1.14 0,-1.14 77.3,-60.24 132.99,-130.72 172.78,-203.48 68.2,-11.37 127.32,-31.83 175.06,-61.38 47.74,-30.69 85.25,-71.61 111.4,-121.63 51.15,-95.49 55.7,-210.3 54.56,-310.33l0.01 -0.01z"/>
    <path class="fil2" d="M1365.97 1136.83c-29.56,54.56 -76.16,90.94 -143.22,112.54 54.55,-177.33 34.1,-360.34 6.82,-485.37 11.37,0 23.87,0 37.51,1.13 32.97,2.28 78.44,9.1 108,34.11 20.46,18.19 31.83,44.33 31.83,79.57 1.14,86.39 -2.27,184.15 -40.93,258.04l-0.01 -0.02zm147.77 -260.31c-1.14,-34.1 -6.82,-64.79 -20.46,-92.07 -11.37,-26.15 -28.42,-48.88 -50.01,-67.07 -42.07,-35.24 -100.04,-54.56 -171.65,-59.1 -28.42,-1.14 -53.42,0 -70.47,1.13 -10.24,-31.83 -17.06,-50.01 -17.06,-50.01l-95.48 0c48.87,80.71 77.29,176.2 77.29,277.37 0,295.55 -239.85,535.4 -534.26,535.4 -295.56,0 -535.4,-239.85 -535.4,-535.4 0,-101.17 28.42,-196.66 77.29,-277.37l-101.17 0c0,0 -250.08,616.11 179.6,960.54 0,1.14 0,2.27 0,4.55l0 31.83c0,35.24 28.43,63.65 62.52,63.65l622.93 0c34.11,0 62.52,-28.42 62.52,-63.65l0 -31.83c0,0 0,-1.14 0,-1.14 77.3,-60.24 132.99,-130.72 172.78,-203.48 68.2,-11.37 127.32,-31.83 175.06,-61.38 47.74,-30.69 85.25,-71.61 111.4,-121.63 51.15,-95.49 55.7,-210.3 54.56,-310.33l0.01 -0.01z"/>
    <path class="fil1" d="M695.3 926.53c0,0 3.41,-2.27 9.1,-7.95 1.13,-1.14 3.41,-3.41 4.54,-4.55 2.28,-2.27 4.55,-3.41 5.69,-5.69 4.55,-4.54 9.09,-9.09 13.64,-14.77 4.55,-5.69 10.23,-11.37 15.92,-18.19 4.55,-6.83 10.23,-14.78 15.91,-22.74 5.69,-9.1 11.37,-18.19 15.92,-27.29 1.14,-2.27 2.27,-5.68 4.55,-7.96 0,-1.13 1.14,-2.27 1.14,-3.41 1.13,-1.13 1.13,-3.41 2.27,-4.54 1.14,-2.28 2.27,-4.55 3.41,-7.96 1.14,-2.28 2.27,-4.55 3.41,-7.96 1.14,-1.14 1.14,-2.27 2.27,-4.55 0,-1.13 1.14,-2.27 1.14,-3.41 1.14,-2.27 1.14,-3.41 1.14,-4.55 1.13,-1.13 1.13,-3.41 2.27,-4.54 1.14,-3.41 2.28,-5.69 2.28,-9.1 1.13,-1.14 1.13,-2.27 2.27,-4.55 0,-1.13 0,-3.41 1.14,-4.54 0,-1.14 1.13,-3.41 1.13,-4.55 0,-1.14 1.14,-3.41 1.14,-4.55 1.14,-3.41 1.14,-6.82 2.27,-10.23 1.14,-2.27 1.14,-5.68 2.28,-9.1 0,-2.27 0,-3.41 1.13,-4.54 0,-2.28 0,-3.41 0,-5.69 1.14,-3.41 1.14,-6.82 2.28,-10.23 0,-3.41 0,-6.82 0,-10.23 1.13,-3.41 1.13,-6.82 1.13,-10.23 0,-1.14 0,-3.41 0,-5.69 1.14,-1.13 1.14,-3.41 1.14,-4.54 0,-3.42 0,-6.83 0,-11.37 0,-3.41 0,-6.82 0,-10.24 0,-2.27 0,-3.41 0,-5.68l0 -2.27 0 -1.14c0,-1.14 0,0 0,0l0 -1.14 0 0c-1.14,-4.54 -1.14,-9.09 -1.14,-11.37l0 -3.41c0,0 0,-1.13 0,-2.27 -1.13,-1.14 -1.13,-3.41 -1.13,-5.68 0,-1.14 0,-3.42 -1.14,-4.55l0 -3.41c0,0 0,-1.14 0,-2.28 -1.14,-6.82 -3.41,-13.64 -4.55,-20.46 -3.41,-13.64 -9.09,-27.29 -15.91,-39.79 -2.28,-5.69 -6.82,-12.51 -10.23,-18.19 -1.14,-1.14 -2.28,-3.41 -3.42,-4.55 -1.13,-1.14 -2.27,-2.27 -3.41,-4.55l-3.41 -4.54 -3.41 -3.41c-9.09,-12.51 -20.46,-23.88 -31.83,-35.25 -12.51,-11.37 -25.01,-23.87 -36.38,-37.51 -6.82,-6.83 -12.51,-14.78 -18.19,-22.74 -5.68,-7.96 -11.37,-15.92 -15.92,-25.01 -4.54,-9.1 -7.95,-18.19 -11.37,-27.29 -3.41,-10.23 -5.68,-19.33 -6.82,-28.42 -2.27,-10.23 -2.27,-19.33 -3.41,-28.42 0,-2.28 0,-4.55 0,-7.96 0,-2.27 0,-4.55 0,-6.82l0 -1.14 0 0 0 -2.27 1.14 -2.28c0,-2.27 0,-4.54 0,-6.82l0 -3.41c0,-1.14 1.14,-2.27 1.14,-3.41 0,-2.27 0,-4.55 0,-6.82 1.13,-2.27 1.13,-4.55 1.13,-6.82 1.14,-2.28 1.14,-4.55 1.14,-6.82 1.14,-4.55 2.27,-9.1 3.41,-13.65 1.14,-1.13 1.14,-3.41 2.27,-5.68l1.14 -3.41 1.14 -3.41c5.68,-15.92 12.5,-31.83 21.6,-45.46 9.09,-13.65 19.33,-26.15 28.42,-36.38 10.23,-11.37 20.46,-20.47 30.7,-29.56 20.46,-17.06 38.65,-30.7 53.42,-43.19 7.96,-6.82 14.78,-13.65 21.6,-19.33 5.68,-6.82 10.23,-12.51 14.78,-18.19 1.14,-1.14 2.27,-2.27 2.27,-4.55 1.14,-1.13 2.28,-2.27 3.41,-3.41 0,-1.14 1.14,-3.41 2.28,-4.55 0,-1.13 1.13,-2.27 1.13,-3.41 2.28,-5.68 4.55,-10.23 5.69,-13.64 0,-1.14 0,-2.27 1.14,-2.27 0,-1.14 0,-2.28 0,-2.28 0,-1.13 0,-2.27 0,-2.27 1.13,-1.14 1.13,-1.14 1.13,-2.27 0,-2.28 0,-2.28 0,-2.28 0,0 0,0 1.14,2.28 0,1.13 0,1.13 0,2.27 0,0 0,1.14 0,2.27 0,0 0,1.14 0,2.28 0,1.13 0,2.27 0,2.27 0,2.27 0,4.55 0,7.96 0,1.14 0,2.27 0,3.41 0,1.14 -1.14,3.41 -1.14,4.55 -1.13,5.68 -2.27,12.5 -5.68,20.46 -5.69,14.78 -14.78,30.7 -28.42,47.74 -13.65,17.05 -29.56,35.24 -45.47,53.42 -7.96,10.23 -14.78,20.46 -22.74,30.7 -6.82,10.23 -13.64,21.6 -19.32,32.97 -3.41,5.68 -5.69,11.36 -7.96,18.19 -2.27,5.68 -3.41,12.5 -5.69,18.19l0 2.27 -1.13 2.27c0,2.28 0,3.41 0,5.69 -1.14,3.41 -1.14,5.68 -2.28,9.09 0,2.28 0,3.41 0,5.69 0,1.13 0,3.41 0,4.54 0,2.28 0,3.41 -1.13,5.69 0,0 0,1.14 0,2.27l0 2.28c0,1.13 0,3.41 0,5.68l0 2.27 0 2.28 1.13 0c0,0 0,0 0,0l0 0c0,2.27 0,3.41 0,5.68 0,1.14 0,3.41 0,4.55 1.14,6.82 2.28,13.64 3.41,20.46 1.14,6.83 3.42,12.51 5.69,19.33 2.27,5.69 5.68,12.51 9.09,18.19 3.41,5.69 6.83,11.37 11.37,17.05 4.55,5.69 9.1,11.37 13.65,17.06 10.23,11.37 22.73,22.73 34.1,34.1 12.51,12.51 25.01,26.15 37.52,40.93l4.55 5.69 3.41 5.68c1.13,2.27 3.41,3.41 4.54,5.68 1.14,2.28 2.28,4.55 3.42,5.69 5.68,9.09 10.23,17.05 14.77,26.15 3.42,7.95 7.96,17.05 10.24,26.14 3.41,9.1 5.68,18.19 6.82,27.29 2.27,9.1 3.41,18.19 4.55,27.29 0,2.27 0,4.54 0,6.82 1.13,2.27 1.13,4.54 1.13,6.82 0,2.27 0,4.55 0,6.82 0,1.14 0,2.27 0,3.41l0 3.41c0,4.55 0,7.96 0,12.51l0 2.27 0 1.14 0 3.41c0,2.27 -1.13,3.41 -1.13,5.68 0,9.1 -1.14,17.05 -2.28,25.01 0,2.28 0,4.55 -1.14,6.82 0,1.14 0,3.41 -1.13,5.69 0,3.41 -1.14,7.96 -2.28,11.37 0,4.54 -1.13,7.96 -2.27,12.5 0,1.14 0,1.14 -1.14,2.28l0 3.41c-1.13,2.27 -1.13,3.41 -2.27,5.68 0,2.28 -1.14,3.41 -1.14,5.69 0,1.13 -1.13,3.41 -2.27,5.68 -1.14,3.41 -2.27,6.82 -3.41,10.23 -1.14,3.41 -2.28,7.96 -3.41,11.37 -1.14,1.14 -2.28,3.41 -2.28,4.55 -1.13,2.27 -2.27,3.41 -2.27,5.68 -5.68,13.65 -12.51,25.01 -20.46,37.52 -1.14,2.27 -3.41,5.68 -4.55,7.96 -2.27,3.41 -4.55,5.68 -5.69,7.96 -1.13,1.13 -2.27,3.41 -3.41,4.54 0,1.14 -1.13,2.28 -2.27,3.41 -1.14,1.14 -2.27,2.28 -3.41,3.42 0,1.13 -1.14,2.27 -2.27,3.41 -2.28,3.41 -4.55,5.68 -5.69,7.95 -1.14,1.14 -2.27,2.28 -3.41,3.41 -1.14,0 -2.27,1.14 -2.27,2.28 -4.55,4.55 -7.96,9.09 -11.37,12.5 -4.55,3.41 -7.96,7.96 -12.51,10.24 -1.13,2.27 -3.41,3.41 -4.54,5.68 -2.28,1.14 -4.55,2.27 -5.69,4.55 -2.27,1.13 -3.41,2.27 -5.68,3.41 -1.14,2.27 -3.41,3.41 -4.55,4.55 -3.41,2.27 -6.82,4.54 -10.23,6.82 -3.41,2.27 -6.82,4.54 -9.1,5.68 -1.14,1.14 -3.41,2.28 -4.55,3.41 -1.13,0 -2.27,1.14 -3.41,2.28 -5.68,2.27 -10.23,4.54 -13.64,6.82 -3.41,1.13 -6.82,2.27 -7.96,3.41 -2.27,1.13 -3.41,1.13 -3.41,1.13z"/>
    <g>
    </g>
    <g style="clip-path:url(#id2)">
     <g>
      <path id="_1_1" class="fil2" d="M711.21 926.53c0,0 3.41,-2.27 9.09,-7.95 1.14,-1.14 2.28,-3.41 4.55,-4.55 2.27,-2.27 3.41,-3.41 5.68,-5.69 4.55,-4.54 9.1,-9.09 13.65,-14.77 4.54,-5.69 10.23,-11.37 14.78,-18.19 5.68,-6.83 11.36,-14.78 17.05,-22.74 4.55,-9.1 10.23,-18.19 15.92,-27.29 1.13,-2.27 2.27,-5.68 3.41,-7.96 1.13,-1.13 1.13,-2.27 2.27,-3.41 1.14,-1.13 1.14,-3.41 2.27,-4.54 1.14,-2.28 2.28,-4.55 3.41,-7.96 1.14,-2.28 2.28,-4.55 3.42,-7.96 0,-1.14 1.13,-2.27 1.13,-4.55 1.14,-1.13 1.14,-2.27 2.28,-3.41 0,-2.27 1.13,-3.41 1.13,-4.55 1.14,-1.13 1.14,-3.41 2.28,-4.54 0,-3.41 1.13,-5.69 2.27,-9.1 1.14,-1.14 1.14,-2.27 1.14,-4.55 1.13,-1.13 1.13,-3.41 1.13,-4.54 1.14,-1.14 1.14,-3.41 2.28,-4.55 0,-1.14 0,-3.41 1.13,-4.55 0,-3.41 1.14,-6.82 2.28,-10.23 0,-2.27 1.14,-5.68 1.14,-9.1 1.13,-2.27 1.13,-3.41 1.13,-4.54 0,-2.28 1.14,-3.41 1.14,-5.69 0,-3.41 1.14,-6.82 1.14,-10.23 1.13,-3.41 1.13,-6.82 1.13,-10.23 1.14,-3.41 1.14,-6.82 1.14,-10.23 0,-1.14 0,-3.41 0,-5.69 0,-1.13 0,-3.41 0,-4.54 0,-3.42 1.14,-6.83 1.14,-11.37 0,-3.41 0,-6.82 0,-10.24 -1.14,-2.27 -1.14,-3.41 -1.14,-5.68l0 -2.27 0 -1.14c0,-1.14 0,0 0,0l0 -1.14 0 0c0,-4.54 0,-9.09 0,-11.37l-1.14 -3.41c0,0 0,-1.13 0,-2.27 0,-1.14 0,-3.41 0,-5.68 0,-1.14 -1.13,-3.42 -1.13,-4.55l0 -3.41c0,0 -1.14,-1.14 -1.14,-2.28 -1.14,-6.82 -2.27,-13.64 -4.55,-20.46 -3.41,-13.64 -7.96,-27.29 -14.78,-39.79 -3.41,-5.69 -6.82,-12.51 -10.23,-18.19 -1.14,-1.14 -2.27,-3.41 -3.41,-4.55 -1.14,-1.14 -2.27,-2.27 -3.41,-4.55l-3.41 -4.54 -3.41 -3.41c-10.23,-12.51 -20.47,-23.88 -31.84,-35.25 -12.5,-11.37 -25.01,-23.87 -37.51,-37.51 -5.69,-6.83 -11.37,-14.78 -17.06,-22.74 -5.68,-7.96 -11.36,-15.92 -15.91,-25.01 -4.55,-9.1 -9.1,-18.19 -11.37,-27.29 -3.41,-10.23 -5.68,-19.33 -7.96,-28.42 -1.14,-10.23 -2.27,-19.33 -2.27,-28.42 0,-2.28 0,-4.55 0,-7.96 0,-2.27 0,-4.55 0,-6.82l0 -1.14 0 0 0 -2.27 0 -2.28c0,-2.27 1.13,-4.54 1.13,-6.82l0 -3.41c0,-1.14 0,-2.27 0,-3.41 1.14,-2.27 1.14,-4.55 1.14,-6.82 0,-2.27 1.14,-4.55 1.14,-6.82 0,-2.28 1.14,-4.55 1.14,-6.82 1.13,-4.55 2.27,-9.1 3.41,-13.65 0,-1.13 1.13,-3.41 2.27,-5.68l0 -3.41 1.14 -3.41c5.68,-15.92 13.64,-31.83 22.73,-45.46 9.1,-13.65 18.19,-26.15 28.43,-36.38 10.23,-11.37 20.46,-20.47 30.69,-29.56 19.33,-17.06 38.66,-30.7 53.42,-43.19 7.96,-6.82 14.78,-13.65 20.47,-19.33 6.82,-6.82 11.37,-12.51 15.91,-18.19 0,-1.14 1.14,-2.27 2.28,-4.55 1.13,-1.13 2.27,-2.27 2.27,-3.41 1.14,-1.14 2.28,-3.41 2.28,-4.55 1.13,-1.13 2.27,-2.27 2.27,-3.41 2.27,-5.68 4.55,-10.23 5.68,-13.64 0,-1.14 0,-2.27 0,-2.27 0,-1.14 1.14,-2.28 1.14,-2.28 0,-1.13 0,-2.27 0,-2.27 0,-1.14 0,-1.14 0,-2.27 1.14,-2.28 1.14,-2.28 1.14,-2.28 0,0 0,0 0,2.28 0,1.13 0,1.13 1.13,2.27 0,0 0,1.14 0,2.27 0,0 0,1.14 0,2.28 0,1.13 0,2.27 0,2.27 0,2.27 0,4.55 0,7.96 0,1.14 0,2.27 -1.13,3.41 0,1.14 0,3.41 0,4.55 -1.14,5.68 -2.28,12.5 -5.69,20.46 -5.68,14.78 -15.91,30.7 -28.42,47.74 -13.64,17.05 -29.56,35.24 -45.46,53.42 -7.96,10.23 -15.92,20.46 -22.74,30.7 -7.96,10.23 -13.64,21.6 -19.33,32.97 -3.41,5.68 -5.68,11.36 -7.96,18.19 -2.27,5.68 -4.54,12.5 -5.68,18.19l0 2.27 -1.14 2.27c0,2.28 0,3.41 -1.13,5.69 0,3.41 -1.14,5.68 -1.14,9.09 0,2.28 0,3.41 0,5.69 0,1.13 -1.14,3.41 -1.14,4.54 0,2.28 0,3.41 0,5.69 0,0 0,1.14 0,2.27l0 2.28c0,1.13 0,3.41 0,5.68l0 2.27 0 2.28 0 0c0,0 0,0 0,0l0 0c0,2.27 0,3.41 1.14,5.68 0,1.14 0,3.41 0,4.55 0,6.82 1.14,13.64 3.41,20.46 1.14,6.83 3.41,12.51 5.68,19.33 2.28,5.69 4.55,12.51 7.96,18.19 3.41,5.69 7.96,11.37 12.51,17.05 3.41,5.69 7.96,11.37 13.64,17.06 10.23,11.37 21.6,22.73 34.11,34.1 12.5,12.51 25.01,26.15 36.38,40.93l4.54 5.69 4.55 5.68c1.14,2.27 2.28,3.41 4.55,5.68 1.14,2.28 2.27,4.55 3.41,5.69 5.68,9.09 10.23,17.05 13.64,26.15 4.55,7.95 7.96,17.05 11.37,26.14 2.28,9.1 5.69,18.19 6.82,27.29 2.28,9.1 3.41,18.19 4.55,27.29 0,2.27 0,4.54 0,6.82 0,2.27 0,4.54 1.14,6.82 0,2.27 0,4.55 0,6.82 0,1.14 0,2.27 0,3.41l0 3.41c0,4.55 0,7.96 0,12.51l0 2.27 0 1.14 -1.14 3.41c0,2.27 0,3.41 0,5.68 0,9.1 -1.14,17.05 -2.27,25.01 0,2.28 -1.14,4.55 -1.14,6.82 0,1.14 -1.14,3.41 -1.14,5.69 -1.13,3.41 -1.13,7.96 -2.27,11.37 -1.14,4.54 -1.14,7.96 -2.27,12.5 0,1.14 -1.14,1.14 -1.14,2.28l-1.14 3.41c0,2.27 0,3.41 -1.14,5.68 0,2.28 -1.13,3.41 -1.13,5.69 -1.14,1.13 -1.14,3.41 -2.28,5.68 -1.13,3.41 -2.27,6.82 -3.41,10.23 -1.13,3.41 -3.41,7.96 -4.54,11.37 0,1.14 -1.14,3.41 -2.28,4.55 0,2.27 -1.13,3.41 -2.27,5.68 -5.69,13.65 -12.51,25.01 -19.33,37.52 -1.14,2.27 -3.41,5.68 -5.68,7.96 -1.14,3.41 -3.41,5.68 -4.55,7.96 -1.14,1.13 -2.27,3.41 -3.41,4.54 -1.14,1.14 -2.27,2.28 -2.27,3.41 -1.14,1.14 -2.28,2.28 -3.42,3.42 -1.13,1.13 -2.27,2.27 -2.27,3.41 -2.27,3.41 -4.55,5.68 -6.82,7.95 0,1.14 -1.14,2.28 -2.27,3.41 -1.14,0 -2.28,1.14 -3.41,2.28 -3.42,4.55 -6.83,9.09 -11.37,12.5 -3.41,3.41 -6.82,7.96 -11.37,10.24 -1.14,2.27 -3.41,3.41 -5.69,5.68 -1.13,1.14 -3.41,2.27 -5.68,4.55 -1.14,1.13 -3.41,2.27 -4.55,3.41 -2.27,2.27 -3.41,3.41 -5.68,4.55 -3.41,2.27 -6.82,4.54 -9.1,6.82 -3.41,2.27 -6.82,4.54 -9.09,5.68 -2.28,1.14 -3.41,2.28 -4.55,3.41 -1.14,0 -3.41,1.14 -4.55,2.28 -4.55,2.27 -9.09,4.54 -12.5,6.82 -4.55,1.13 -6.83,2.27 -9.1,3.41 -1.14,1.13 -2.27,1.13 -2.27,1.13z"/>
     </g>
    </g>
    <path class="fil2" d="M695.3 926.53c0,0 3.41,-2.27 9.1,-7.95 1.13,-1.14 3.41,-3.41 4.54,-4.55 2.28,-2.27 4.55,-3.41 5.69,-5.69 4.55,-4.54 9.09,-9.09 13.64,-14.77 4.55,-5.69 10.23,-11.37 15.92,-18.19 4.55,-6.83 10.23,-14.78 15.91,-22.74 5.69,-9.1 11.37,-18.19 15.92,-27.29 1.14,-2.27 2.27,-5.68 4.55,-7.96 0,-1.13 1.14,-2.27 1.14,-3.41 1.13,-1.13 1.13,-3.41 2.27,-4.54 1.14,-2.28 2.27,-4.55 3.41,-7.96 1.14,-2.28 2.27,-4.55 3.41,-7.96 1.14,-1.14 1.14,-2.27 2.27,-4.55 0,-1.13 1.14,-2.27 1.14,-3.41 1.14,-2.27 1.14,-3.41 1.14,-4.55 1.13,-1.13 1.13,-3.41 2.27,-4.54 1.14,-3.41 2.28,-5.69 2.28,-9.1 1.13,-1.14 1.13,-2.27 2.27,-4.55 0,-1.13 0,-3.41 1.14,-4.54 0,-1.14 1.13,-3.41 1.13,-4.55 0,-1.14 1.14,-3.41 1.14,-4.55 1.14,-3.41 1.14,-6.82 2.27,-10.23 1.14,-2.27 1.14,-5.68 2.28,-9.1 0,-2.27 0,-3.41 1.13,-4.54 0,-2.28 0,-3.41 0,-5.69 1.14,-3.41 1.14,-6.82 2.28,-10.23 0,-3.41 0,-6.82 0,-10.23 1.13,-3.41 1.13,-6.82 1.13,-10.23 0,-1.14 0,-3.41 0,-5.69 1.14,-1.13 1.14,-3.41 1.14,-4.54 0,-3.42 0,-6.83 0,-11.37 0,-3.41 0,-6.82 0,-10.24 0,-2.27 0,-3.41 0,-5.68l0 -2.27 0 -1.14c0,-1.14 0,0 0,0l0 -1.14 0 0c-1.14,-4.54 -1.14,-9.09 -1.14,-11.37l0 -3.41c0,0 0,-1.13 0,-2.27 -1.13,-1.14 -1.13,-3.41 -1.13,-5.68 0,-1.14 0,-3.42 -1.14,-4.55l0 -3.41c0,0 0,-1.14 0,-2.28 -1.14,-6.82 -3.41,-13.64 -4.55,-20.46 -3.41,-13.64 -9.09,-27.29 -15.91,-39.79 -2.28,-5.69 -6.82,-12.51 -10.23,-18.19 -1.14,-1.14 -2.28,-3.41 -3.42,-4.55 -1.13,-1.14 -2.27,-2.27 -3.41,-4.55l-3.41 -4.54 -3.41 -3.41c-9.09,-12.51 -20.46,-23.88 -31.83,-35.25 -12.51,-11.37 -25.01,-23.87 -36.38,-37.51 -6.82,-6.83 -12.51,-14.78 -18.19,-22.74 -5.68,-7.96 -11.37,-15.92 -15.92,-25.01 -4.54,-9.1 -7.95,-18.19 -11.37,-27.29 -3.41,-10.23 -5.68,-19.33 -6.82,-28.42 -2.27,-10.23 -2.27,-19.33 -3.41,-28.42 0,-2.28 0,-4.55 0,-7.96 0,-2.27 0,-4.55 0,-6.82l0 -1.14 0 0 0 -2.27 1.14 -2.28c0,-2.27 0,-4.54 0,-6.82l0 -3.41c0,-1.14 1.14,-2.27 1.14,-3.41 0,-2.27 0,-4.55 0,-6.82 1.13,-2.27 1.13,-4.55 1.13,-6.82 1.14,-2.28 1.14,-4.55 1.14,-6.82 1.14,-4.55 2.27,-9.1 3.41,-13.65 1.14,-1.13 1.14,-3.41 2.27,-5.68l1.14 -3.41 1.14 -3.41c5.68,-15.92 12.5,-31.83 21.6,-45.46 9.09,-13.65 19.33,-26.15 28.42,-36.38 10.23,-11.37 20.46,-20.47 30.7,-29.56 20.46,-17.06 38.65,-30.7 53.42,-43.19 7.96,-6.82 14.78,-13.65 21.6,-19.33 5.68,-6.82 10.23,-12.51 14.78,-18.19 1.14,-1.14 2.27,-2.27 2.27,-4.55 1.14,-1.13 2.28,-2.27 3.41,-3.41 0,-1.14 1.14,-3.41 2.28,-4.55 0,-1.13 1.13,-2.27 1.13,-3.41 2.28,-5.68 4.55,-10.23 5.69,-13.64 0,-1.14 0,-2.27 1.14,-2.27 0,-1.14 0,-2.28 0,-2.28 0,-1.13 0,-2.27 0,-2.27 1.13,-1.14 1.13,-1.14 1.13,-2.27 0,-2.28 0,-2.28 0,-2.28 0,0 0,0 1.14,2.28 0,1.13 0,1.13 0,2.27 0,0 0,1.14 0,2.27 0,0 0,1.14 0,2.28 0,1.13 0,2.27 0,2.27 0,2.27 0,4.55 0,7.96 0,1.14 0,2.27 0,3.41 0,1.14 -1.14,3.41 -1.14,4.55 -1.13,5.68 -2.27,12.5 -5.68,20.46 -5.69,14.78 -14.78,30.7 -28.42,47.74 -13.65,17.05 -29.56,35.24 -45.47,53.42 -7.96,10.23 -14.78,20.46 -22.74,30.7 -6.82,10.23 -13.64,21.6 -19.32,32.97 -3.41,5.68 -5.69,11.36 -7.96,18.19 -2.27,5.68 -3.41,12.5 -5.69,18.19l0 2.27 -1.13 2.27c0,2.28 0,3.41 0,5.69 -1.14,3.41 -1.14,5.68 -2.28,9.09 0,2.28 0,3.41 0,5.69 0,1.13 0,3.41 0,4.54 0,2.28 0,3.41 -1.13,5.69 0,0 0,1.14 0,2.27l0 2.28c0,1.13 0,3.41 0,5.68l0 2.27 0 2.28 1.13 0c0,0 0,0 0,0l0 0c0,2.27 0,3.41 0,5.68 0,1.14 0,3.41 0,4.55 1.14,6.82 2.28,13.64 3.41,20.46 1.14,6.83 3.42,12.51 5.69,19.33 2.27,5.69 5.68,12.51 9.09,18.19 3.41,5.69 6.83,11.37 11.37,17.05 4.55,5.69 9.1,11.37 13.65,17.06 10.23,11.37 22.73,22.73 34.1,34.1 12.51,12.51 25.01,26.15 37.52,40.93l4.55 5.69 3.41 5.68c1.13,2.27 3.41,3.41 4.54,5.68 1.14,2.28 2.28,4.55 3.42,5.69 5.68,9.09 10.23,17.05 14.77,26.15 3.42,7.95 7.96,17.05 10.24,26.14 3.41,9.1 5.68,18.19 6.82,27.29 2.27,9.1 3.41,18.19 4.55,27.29 0,2.27 0,4.54 0,6.82 1.13,2.27 1.13,4.54 1.13,6.82 0,2.27 0,4.55 0,6.82 0,1.14 0,2.27 0,3.41l0 3.41c0,4.55 0,7.96 0,12.51l0 2.27 0 1.14 0 3.41c0,2.27 -1.13,3.41 -1.13,5.68 0,9.1 -1.14,17.05 -2.28,25.01 0,2.28 0,4.55 -1.14,6.82 0,1.14 0,3.41 -1.13,5.69 0,3.41 -1.14,7.96 -2.28,11.37 0,4.54 -1.13,7.96 -2.27,12.5 0,1.14 0,1.14 -1.14,2.28l0 3.41c-1.13,2.27 -1.13,3.41 -2.27,5.68 0,2.28 -1.14,3.41 -1.14,5.69 0,1.13 -1.13,3.41 -2.27,5.68 -1.14,3.41 -2.27,6.82 -3.41,10.23 -1.14,3.41 -2.28,7.96 -3.41,11.37 -1.14,1.14 -2.28,3.41 -2.28,4.55 -1.13,2.27 -2.27,3.41 -2.27,5.68 -5.68,13.65 -12.51,25.01 -20.46,37.52 -1.14,2.27 -3.41,5.68 -4.55,7.96 -2.27,3.41 -4.55,5.68 -5.69,7.96 -1.13,1.13 -2.27,3.41 -3.41,4.54 0,1.14 -1.13,2.28 -2.27,3.41 -1.14,1.14 -2.27,2.28 -3.41,3.42 0,1.13 -1.14,2.27 -2.27,3.41 -2.28,3.41 -4.55,5.68 -5.69,7.95 -1.14,1.14 -2.27,2.28 -3.41,3.41 -1.14,0 -2.27,1.14 -2.27,2.28 -4.55,4.55 -7.96,9.09 -11.37,12.5 -4.55,3.41 -7.96,7.96 -12.51,10.24 -1.13,2.27 -3.41,3.41 -4.54,5.68 -2.28,1.14 -4.55,2.27 -5.69,4.55 -2.27,1.13 -3.41,2.27 -5.68,3.41 -1.14,2.27 -3.41,3.41 -4.55,4.55 -3.41,2.27 -6.82,4.54 -10.23,6.82 -3.41,2.27 -6.82,4.54 -9.1,5.68 -1.14,1.14 -3.41,2.28 -4.55,3.41 -1.13,0 -2.27,1.14 -3.41,2.28 -5.68,2.27 -10.23,4.54 -13.64,6.82 -3.41,1.13 -6.82,2.27 -7.96,3.41 -2.27,1.13 -3.41,1.13 -3.41,1.13z"/>
    <path class="fil2" d="M695.3 926.53c0,0 3.41,-2.27 9.1,-7.95 1.13,-1.14 3.41,-3.41 4.54,-4.55 2.28,-2.27 4.55,-3.41 5.69,-5.69 4.55,-4.54 9.09,-9.09 13.64,-14.77 4.55,-5.69 10.23,-11.37 15.92,-18.19 4.55,-6.83 10.23,-14.78 15.91,-22.74 5.69,-9.1 11.37,-18.19 15.92,-27.29 1.14,-2.27 2.27,-5.68 4.55,-7.96 0,-1.13 1.14,-2.27 1.14,-3.41 1.13,-1.13 1.13,-3.41 2.27,-4.54 1.14,-2.28 2.27,-4.55 3.41,-7.96 1.14,-2.28 2.27,-4.55 3.41,-7.96 1.14,-1.14 1.14,-2.27 2.27,-4.55 0,-1.13 1.14,-2.27 1.14,-3.41 1.14,-2.27 1.14,-3.41 1.14,-4.55 1.13,-1.13 1.13,-3.41 2.27,-4.54 1.14,-3.41 2.28,-5.69 2.28,-9.1 1.13,-1.14 1.13,-2.27 2.27,-4.55 0,-1.13 0,-3.41 1.14,-4.54 0,-1.14 1.13,-3.41 1.13,-4.55 0,-1.14 1.14,-3.41 1.14,-4.55 1.14,-3.41 1.14,-6.82 2.27,-10.23 1.14,-2.27 1.14,-5.68 2.28,-9.1 0,-2.27 0,-3.41 1.13,-4.54 0,-2.28 0,-3.41 0,-5.69 1.14,-3.41 1.14,-6.82 2.28,-10.23 0,-3.41 0,-6.82 0,-10.23 1.13,-3.41 1.13,-6.82 1.13,-10.23 0,-1.14 0,-3.41 0,-5.69 1.14,-1.13 1.14,-3.41 1.14,-4.54 0,-3.42 0,-6.83 0,-11.37 0,-3.41 0,-6.82 0,-10.24 0,-2.27 0,-3.41 0,-5.68l0 -2.27 0 -1.14c0,-1.14 0,0 0,0l0 -1.14 0 0c-1.14,-4.54 -1.14,-9.09 -1.14,-11.37l0 -3.41c0,0 0,-1.13 0,-2.27 -1.13,-1.14 -1.13,-3.41 -1.13,-5.68 0,-1.14 0,-3.42 -1.14,-4.55l0 -3.41c0,0 0,-1.14 0,-2.28 -1.14,-6.82 -3.41,-13.64 -4.55,-20.46 -3.41,-13.64 -9.09,-27.29 -15.91,-39.79 -2.28,-5.69 -6.82,-12.51 -10.23,-18.19 -1.14,-1.14 -2.28,-3.41 -3.42,-4.55 -1.13,-1.14 -2.27,-2.27 -3.41,-4.55l-3.41 -4.54 -3.41 -3.41c-9.09,-12.51 -20.46,-23.88 -31.83,-35.25 -12.51,-11.37 -25.01,-23.87 -36.38,-37.51 -6.82,-6.83 -12.51,-14.78 -18.19,-22.74 -5.68,-7.96 -11.37,-15.92 -15.92,-25.01 -4.54,-9.1 -7.95,-18.19 -11.37,-27.29 -3.41,-10.23 -5.68,-19.33 -6.82,-28.42 -2.27,-10.23 -2.27,-19.33 -3.41,-28.42 0,-2.28 0,-4.55 0,-7.96 0,-2.27 0,-4.55 0,-6.82l0 -1.14 0 0 0 -2.27 1.14 -2.28c0,-2.27 0,-4.54 0,-6.82l0 -3.41c0,-1.14 1.14,-2.27 1.14,-3.41 0,-2.27 0,-4.55 0,-6.82 1.13,-2.27 1.13,-4.55 1.13,-6.82 1.14,-2.28 1.14,-4.55 1.14,-6.82 1.14,-4.55 2.27,-9.1 3.41,-13.65 1.14,-1.13 1.14,-3.41 2.27,-5.68l1.14 -3.41 1.14 -3.41c5.68,-15.92 12.5,-31.83 21.6,-45.46 9.09,-13.65 19.33,-26.15 28.42,-36.38 10.23,-11.37 20.46,-20.47 30.7,-29.56 20.46,-17.06 38.65,-30.7 53.42,-43.19 7.96,-6.82 14.78,-13.65 21.6,-19.33 5.68,-6.82 10.23,-12.51 14.78,-18.19 1.14,-1.14 2.27,-2.27 2.27,-4.55 1.14,-1.13 2.28,-2.27 3.41,-3.41 0,-1.14 1.14,-3.41 2.28,-4.55 0,-1.13 1.13,-2.27 1.13,-3.41 2.28,-5.68 4.55,-10.23 5.69,-13.64 0,-1.14 0,-2.27 1.14,-2.27 0,-1.14 0,-2.28 0,-2.28 0,-1.13 0,-2.27 0,-2.27 1.13,-1.14 1.13,-1.14 1.13,-2.27 0,-2.28 0,-2.28 0,-2.28 0,0 0,0 1.14,2.28 0,1.13 0,1.13 0,2.27 0,0 0,1.14 0,2.27 0,0 0,1.14 0,2.28 0,1.13 0,2.27 0,2.27 0,2.27 0,4.55 0,7.96 0,1.14 0,2.27 0,3.41 0,1.14 -1.14,3.41 -1.14,4.55 -1.13,5.68 -2.27,12.5 -5.68,20.46 -5.69,14.78 -14.78,30.7 -28.42,47.74 -13.65,17.05 -29.56,35.24 -45.47,53.42 -7.96,10.23 -14.78,20.46 -22.74,30.7 -6.82,10.23 -13.64,21.6 -19.32,32.97 -3.41,5.68 -5.69,11.36 -7.96,18.19 -2.27,5.68 -3.41,12.5 -5.69,18.19l0 2.27 -1.13 2.27c0,2.28 0,3.41 0,5.69 -1.14,3.41 -1.14,5.68 -2.28,9.09 0,2.28 0,3.41 0,5.69 0,1.13 0,3.41 0,4.54 0,2.28 0,3.41 -1.13,5.69 0,0 0,1.14 0,2.27l0 2.28c0,1.13 0,3.41 0,5.68l0 2.27 0 2.28 1.13 0c0,0 0,0 0,0l0 0c0,2.27 0,3.41 0,5.68 0,1.14 0,3.41 0,4.55 1.14,6.82 2.28,13.64 3.41,20.46 1.14,6.83 3.42,12.51 5.69,19.33 2.27,5.69 5.68,12.51 9.09,18.19 3.41,5.69 6.83,11.37 11.37,17.05 4.55,5.69 9.1,11.37 13.65,17.06 10.23,11.37 22.73,22.73 34.1,34.1 12.51,12.51 25.01,26.15 37.52,40.93l4.55 5.69 3.41 5.68c1.13,2.27 3.41,3.41 4.54,5.68 1.14,2.28 2.28,4.55 3.42,5.69 5.68,9.09 10.23,17.05 14.77,26.15 3.42,7.95 7.96,17.05 10.24,26.14 3.41,9.1 5.68,18.19 6.82,27.29 2.27,9.1 3.41,18.19 4.55,27.29 0,2.27 0,4.54 0,6.82 1.13,2.27 1.13,4.54 1.13,6.82 0,2.27 0,4.55 0,6.82 0,1.14 0,2.27 0,3.41l0 3.41c0,4.55 0,7.96 0,12.51l0 2.27 0 1.14 0 3.41c0,2.27 -1.13,3.41 -1.13,5.68 0,9.1 -1.14,17.05 -2.28,25.01 0,2.28 0,4.55 -1.14,6.82 0,1.14 0,3.41 -1.13,5.69 0,3.41 -1.14,7.96 -2.28,11.37 0,4.54 -1.13,7.96 -2.27,12.5 0,1.14 0,1.14 -1.14,2.28l0 3.41c-1.13,2.27 -1.13,3.41 -2.27,5.68 0,2.28 -1.14,3.41 -1.14,5.69 0,1.13 -1.13,3.41 -2.27,5.68 -1.14,3.41 -2.27,6.82 -3.41,10.23 -1.14,3.41 -2.28,7.96 -3.41,11.37 -1.14,1.14 -2.28,3.41 -2.28,4.55 -1.13,2.27 -2.27,3.41 -2.27,5.68 -5.68,13.65 -12.51,25.01 -20.46,37.52 -1.14,2.27 -3.41,5.68 -4.55,7.96 -2.27,3.41 -4.55,5.68 -5.69,7.96 -1.13,1.13 -2.27,3.41 -3.41,4.54 0,1.14 -1.13,2.28 -2.27,3.41 -1.14,1.14 -2.27,2.28 -3.41,3.42 0,1.13 -1.14,2.27 -2.27,3.41 -2.28,3.41 -4.55,5.68 -5.69,7.95 -1.14,1.14 -2.27,2.28 -3.41,3.41 -1.14,0 -2.27,1.14 -2.27,2.28 -4.55,4.55 -7.96,9.09 -11.37,12.5 -4.55,3.41 -7.96,7.96 -12.51,10.24 -1.13,2.27 -3.41,3.41 -4.54,5.68 -2.28,1.14 -4.55,2.27 -5.69,4.55 -2.27,1.13 -3.41,2.27 -5.68,3.41 -1.14,2.27 -3.41,3.41 -4.55,4.55 -3.41,2.27 -6.82,4.54 -10.23,6.82 -3.41,2.27 -6.82,4.54 -9.1,5.68 -1.14,1.14 -3.41,2.28 -4.55,3.41 -1.13,0 -2.27,1.14 -3.41,2.28 -5.68,2.27 -10.23,4.54 -13.64,6.82 -3.41,1.13 -6.82,2.27 -7.96,3.41 -2.27,1.13 -3.41,1.13 -3.41,1.13z"/>
    <path class="fil1" d="M616.86 948.14c0,0 1.13,0 2.27,-1.14 1.14,-1.14 2.28,-2.28 4.55,-3.41 2.27,-2.28 4.55,-4.55 6.82,-6.82 1.14,-1.14 3.41,-3.41 4.55,-4.55 2.27,-1.14 3.41,-3.41 5.68,-4.55 6.82,-6.82 14.78,-15.91 23.88,-26.15 7.95,-11.37 18.19,-22.73 26.14,-37.51 2.28,-3.41 4.55,-6.82 6.83,-10.24 1.13,-2.27 2.27,-4.54 3.41,-5.68 1.13,-2.27 2.27,-4.55 3.41,-5.68 1.13,-2.28 2.27,-4.55 3.41,-5.69 1.13,-2.27 2.27,-4.55 2.27,-6.82 2.28,-3.41 4.55,-7.96 6.82,-12.51 6.82,-17.05 13.65,-35.24 19.33,-55.69 4.55,-19.33 7.96,-39.79 9.1,-61.38 0,-2.28 0,-5.69 0,-7.96l1.13 -3.41 0 -2.27c0,-1.14 0,-1.14 0,-2.28 0,-5.68 0,-10.23 0,-15.91 0,-2.28 0,-5.69 0,-7.96 0,-3.41 0,-5.69 -1.13,-7.96l0 -7.96 -1.14 -7.96c-1.14,-10.23 -3.41,-20.46 -5.69,-30.69 -1.13,-5.69 -2.27,-10.23 -4.54,-14.78 -1.14,-5.69 -3.41,-10.23 -4.55,-14.78 -4.55,-9.1 -9.1,-18.19 -14.78,-27.29 -4.55,-7.95 -11.37,-17.05 -17.05,-25.01 -12.51,-15.91 -26.15,-30.69 -39.79,-45.46 -6.83,-6.82 -13.65,-14.78 -19.33,-21.6 -5.69,-7.96 -11.37,-14.78 -15.92,-22.74 -5.68,-7.96 -9.09,-14.78 -12.5,-22.74 -4.55,-7.96 -6.82,-14.78 -9.1,-21.6 -2.27,-7.96 -3.41,-13.64 -4.55,-20.46 -1.13,-5.69 -1.13,-11.37 -1.13,-17.05 0,-1.14 0,-2.28 0,-3.42 0,-1.13 0,-2.27 0,-3.41 0,-2.27 0,-4.54 0,-6.82 0,-3.41 0,-6.82 0,-10.23 0,-2.27 1.13,-4.55 1.13,-5.68 0,-1.14 0,-2.28 0,-2.28 0,0 1.14,3.41 1.14,7.96 1.14,5.69 2.27,13.64 5.69,22.74 0,1.14 0,2.27 1.13,3.41 0,1.14 0,2.27 1.14,4.55 0,0 0,1.13 0,1.13 0,1.14 1.14,1.14 1.14,2.28 0,1.13 1.13,2.27 1.13,4.54 2.28,4.55 4.55,10.24 7.96,17.06 5.69,11.37 14.78,23.87 25.01,36.38 2.28,2.27 5.69,5.68 7.96,9.09 3.41,2.28 6.82,5.69 10.23,9.1 5.69,5.68 12.51,12.5 20.47,19.33 14.78,12.5 30.69,26.14 45.46,43.19 7.96,9.09 14.78,18.19 21.6,27.28 3.41,5.68 6.82,10.23 10.23,15.92 2.28,4.54 5.69,10.23 7.96,15.91 2.27,5.69 4.55,11.37 6.82,17.06 2.28,5.68 4.55,11.36 5.69,18.19 3.41,11.36 5.68,23.87 6.82,36.38l1.13 9.09 1.14 9.1c0,3.41 0,5.68 0,9.09 0,3.41 0,5.69 0,9.1l0 1.13 0 1.14 0 2.27 0 4.55c0,2.27 0,5.69 0,9.1 0,0 -1.14,1.13 -1.14,2.27l0 1.14 0 4.54c0,3.41 0,6.83 -1.13,9.1 -2.28,23.87 -6.82,46.6 -13.65,68.2 -7.95,21.6 -17.05,42.07 -27.28,59.11 -2.27,4.54 -4.55,9.09 -7.96,13.64 -1.14,1.14 -2.27,3.41 -3.41,5.68 -2.27,2.28 -3.41,4.55 -4.55,5.69 -1.13,2.27 -3.41,4.55 -4.54,5.68 -1.14,2.28 -2.28,4.55 -4.55,5.69 -2.28,4.54 -5.69,7.96 -7.96,11.37 -1.14,0 -2.27,1.13 -2.27,2.27 -1.14,0 -1.14,1.14 -2.28,2.27 -1.13,1.14 -3.41,3.41 -4.54,4.55 -3.42,3.41 -5.69,5.69 -9.1,9.1 -2.27,2.27 -5.68,5.68 -7.96,7.95 -3.41,2.28 -5.68,4.55 -9.09,6.83 -10.23,9.09 -20.47,15.91 -29.56,21.6 -4.55,3.41 -7.96,5.68 -11.37,6.82 -3.41,2.27 -6.82,3.41 -9.1,4.54 -2.27,1.14 -4.54,2.28 -5.68,3.42 -1.14,0 -2.27,0 -2.27,0l0.01 0z"/>
    <g>
    </g>
    <g style="clip-path:url(#id3)">
     <g>
      <path id="_1_2" class="fil2" d="M629.36 948.14c0,0 0,0 1.14,-1.14 1.14,-1.14 3.41,-2.28 4.55,-3.41 2.27,-2.28 4.55,-4.55 7.96,-6.82 1.13,-1.14 2.27,-3.41 4.54,-4.55 1.14,-1.14 3.41,-3.41 4.55,-4.55 6.82,-6.82 15.92,-15.91 23.88,-26.15 9.09,-11.37 18.19,-22.73 27.28,-37.51 2.27,-3.41 4.55,-6.82 6.82,-10.24 1.14,-2.27 2.28,-4.54 3.41,-5.68 1.14,-2.27 2.28,-4.55 3.41,-5.68 1.14,-2.28 1.14,-4.55 2.28,-5.69 1.13,-2.27 2.27,-4.55 3.41,-6.82 2.27,-3.41 4.54,-7.96 5.68,-12.51 7.96,-17.05 14.78,-35.24 19.33,-55.69 5.68,-19.33 7.96,-39.79 10.23,-61.38 0,-2.28 0,-5.69 0,-7.96l0 -3.41 0 -2.27c0,-1.14 0,-1.14 0,-2.28 1.14,-5.68 1.14,-10.23 1.14,-15.91 0,-2.28 -1.14,-5.69 -1.14,-7.96 0,-3.41 0,-5.69 0,-7.96l0 -7.96 -1.14 -7.96c-1.13,-10.23 -3.41,-20.46 -5.68,-30.69 -1.14,-5.69 -3.41,-10.23 -4.55,-14.78 -1.13,-5.69 -3.41,-10.23 -5.68,-14.78 -3.41,-9.1 -7.96,-18.19 -13.65,-27.29 -5.68,-7.95 -11.36,-17.05 -17.05,-25.01 -12.5,-15.91 -27.28,-30.69 -39.79,-45.46 -6.82,-6.82 -13.64,-14.78 -19.33,-21.6 -5.68,-7.96 -11.36,-14.78 -17.05,-22.74 -4.55,-7.96 -9.09,-14.78 -12.5,-22.74 -3.42,-7.96 -5.69,-14.78 -7.96,-21.6 -2.28,-7.96 -3.41,-13.64 -4.55,-20.46 -1.14,-5.69 -1.14,-11.37 -2.27,-17.05 0,-1.14 0,-2.28 0,-3.42 0,-1.13 0,-2.27 0,-3.41 0,-2.27 0,-4.54 0,-6.82 0,-3.41 1.13,-6.82 1.13,-10.23 0,-2.27 0,-4.55 1.14,-5.68 0,-1.14 0,-2.28 0,-2.28 0,0 0,3.41 1.14,7.96 1.13,5.69 2.27,13.64 4.54,22.74 1.14,1.14 1.14,2.27 1.14,3.41 1.14,1.14 1.14,2.27 1.14,4.55 1.13,0 1.13,1.13 1.13,1.13 0,1.14 0,1.14 1.14,2.28 0,1.13 0,2.27 1.14,4.54 2.27,4.55 4.55,10.24 7.96,17.06 5.68,11.37 13.64,23.87 25.01,36.38 2.27,2.27 5.68,5.68 7.96,9.09 3.41,2.28 5.68,5.69 9.09,9.1 6.82,5.68 13.64,12.5 20.46,19.33 14.78,12.5 30.7,26.14 46.61,43.19 6.82,9.09 14.77,18.19 21.6,27.28 3.41,5.68 6.82,10.23 9.09,15.92 3.41,4.54 5.69,10.23 9.1,15.91 2.27,5.69 4.54,11.37 6.82,17.06 2.27,5.68 3.41,11.36 5.68,18.19 3.41,11.36 5.69,23.87 6.82,36.38l1.14 9.09 0 9.1c0,3.41 1.14,5.68 1.14,9.09 0,3.41 0,5.69 0,9.1l0 1.13 0 1.14 0 2.27 -1.14 4.55c0,2.27 0,5.69 0,9.1 0,0 0,1.13 0,2.27l0 1.14 0 4.54c-1.14,3.41 -1.14,6.83 -1.14,9.1 -2.27,23.87 -7.95,46.6 -14.78,68.2 -6.82,21.6 -15.91,42.07 -26.14,59.11 -2.28,4.54 -5.69,9.09 -7.96,13.64 -1.14,1.14 -3.41,3.41 -4.55,5.68 -1.14,2.28 -2.27,4.55 -3.41,5.69 -2.27,2.27 -3.41,4.55 -4.55,5.68 -1.14,2.28 -3.41,4.55 -4.55,5.69 -2.27,4.54 -5.68,7.96 -9.09,11.37 0,0 -1.14,1.13 -2.27,2.27 0,0 -1.14,1.14 -1.14,2.27 -2.28,1.14 -3.41,3.41 -4.55,4.55 -3.41,3.41 -6.82,5.69 -9.09,9.1 -3.41,2.27 -5.69,5.68 -9.1,7.95 -2.27,2.28 -5.68,4.55 -7.96,6.83 -11.37,9.09 -21.6,15.91 -29.56,21.6 -4.54,3.41 -9.09,5.68 -12.5,6.82 -3.41,2.27 -5.69,3.41 -7.96,4.54 -3.41,1.14 -4.55,2.28 -5.68,3.42 -2.28,0 -2.28,0 -2.28,0l0.01 0z"/>
     </g>
    </g>
    <path class="fil2" d="M616.86 948.14c0,0 1.13,0 2.27,-1.14 1.14,-1.14 2.28,-2.28 4.55,-3.41 2.27,-2.28 4.55,-4.55 6.82,-6.82 1.14,-1.14 3.41,-3.41 4.55,-4.55 2.27,-1.14 3.41,-3.41 5.68,-4.55 6.82,-6.82 14.78,-15.91 23.88,-26.15 7.95,-11.37 18.19,-22.73 26.14,-37.51 2.28,-3.41 4.55,-6.82 6.83,-10.24 1.13,-2.27 2.27,-4.54 3.41,-5.68 1.13,-2.27 2.27,-4.55 3.41,-5.68 1.13,-2.28 2.27,-4.55 3.41,-5.69 1.13,-2.27 2.27,-4.55 2.27,-6.82 2.28,-3.41 4.55,-7.96 6.82,-12.51 6.82,-17.05 13.65,-35.24 19.33,-55.69 4.55,-19.33 7.96,-39.79 9.1,-61.38 0,-2.28 0,-5.69 0,-7.96l1.13 -3.41 0 -2.27c0,-1.14 0,-1.14 0,-2.28 0,-5.68 0,-10.23 0,-15.91 0,-2.28 0,-5.69 0,-7.96 0,-3.41 0,-5.69 -1.13,-7.96l0 -7.96 -1.14 -7.96c-1.14,-10.23 -3.41,-20.46 -5.69,-30.69 -1.13,-5.69 -2.27,-10.23 -4.54,-14.78 -1.14,-5.69 -3.41,-10.23 -4.55,-14.78 -4.55,-9.1 -9.1,-18.19 -14.78,-27.29 -4.55,-7.95 -11.37,-17.05 -17.05,-25.01 -12.51,-15.91 -26.15,-30.69 -39.79,-45.46 -6.83,-6.82 -13.65,-14.78 -19.33,-21.6 -5.69,-7.96 -11.37,-14.78 -15.92,-22.74 -5.68,-7.96 -9.09,-14.78 -12.5,-22.74 -4.55,-7.96 -6.82,-14.78 -9.1,-21.6 -2.27,-7.96 -3.41,-13.64 -4.55,-20.46 -1.13,-5.69 -1.13,-11.37 -1.13,-17.05 0,-1.14 0,-2.28 0,-3.42 0,-1.13 0,-2.27 0,-3.41 0,-2.27 0,-4.54 0,-6.82 0,-3.41 0,-6.82 0,-10.23 0,-2.27 1.13,-4.55 1.13,-5.68 0,-1.14 0,-2.28 0,-2.28 0,0 1.14,3.41 1.14,7.96 1.14,5.69 2.27,13.64 5.69,22.74 0,1.14 0,2.27 1.13,3.41 0,1.14 0,2.27 1.14,4.55 0,0 0,1.13 0,1.13 0,1.14 1.14,1.14 1.14,2.28 0,1.13 1.13,2.27 1.13,4.54 2.28,4.55 4.55,10.24 7.96,17.06 5.69,11.37 14.78,23.87 25.01,36.38 2.28,2.27 5.69,5.68 7.96,9.09 3.41,2.28 6.82,5.69 10.23,9.1 5.69,5.68 12.51,12.5 20.47,19.33 14.78,12.5 30.69,26.14 45.46,43.19 7.96,9.09 14.78,18.19 21.6,27.28 3.41,5.68 6.82,10.23 10.23,15.92 2.28,4.54 5.69,10.23 7.96,15.91 2.27,5.69 4.55,11.37 6.82,17.06 2.28,5.68 4.55,11.36 5.69,18.19 3.41,11.36 5.68,23.87 6.82,36.38l1.13 9.09 1.14 9.1c0,3.41 0,5.68 0,9.09 0,3.41 0,5.69 0,9.1l0 1.13 0 1.14 0 2.27 0 4.55c0,2.27 0,5.69 0,9.1 0,0 -1.14,1.13 -1.14,2.27l0 1.14 0 4.54c0,3.41 0,6.83 -1.13,9.1 -2.28,23.87 -6.82,46.6 -13.65,68.2 -7.95,21.6 -17.05,42.07 -27.28,59.11 -2.27,4.54 -4.55,9.09 -7.96,13.64 -1.14,1.14 -2.27,3.41 -3.41,5.68 -2.27,2.28 -3.41,4.55 -4.55,5.69 -1.13,2.27 -3.41,4.55 -4.54,5.68 -1.14,2.28 -2.28,4.55 -4.55,5.69 -2.28,4.54 -5.69,7.96 -7.96,11.37 -1.14,0 -2.27,1.13 -2.27,2.27 -1.14,0 -1.14,1.14 -2.28,2.27 -1.13,1.14 -3.41,3.41 -4.54,4.55 -3.42,3.41 -5.69,5.69 -9.1,9.1 -2.27,2.27 -5.68,5.68 -7.96,7.95 -3.41,2.28 -5.68,4.55 -9.09,6.83 -10.23,9.09 -20.47,15.91 -29.56,21.6 -4.55,3.41 -7.96,5.68 -11.37,6.82 -3.41,2.27 -6.82,3.41 -9.1,4.54 -2.27,1.14 -4.54,2.28 -5.68,3.42 -1.14,0 -2.27,0 -2.27,0l0.01 0z"/>
    <path class="fil2" d="M616.86 948.14c0,0 1.13,0 2.27,-1.14 1.14,-1.14 2.28,-2.28 4.55,-3.41 2.27,-2.28 4.55,-4.55 6.82,-6.82 1.14,-1.14 3.41,-3.41 4.55,-4.55 2.27,-1.14 3.41,-3.41 5.68,-4.55 6.82,-6.82 14.78,-15.91 23.88,-26.15 7.95,-11.37 18.19,-22.73 26.14,-37.51 2.28,-3.41 4.55,-6.82 6.83,-10.24 1.13,-2.27 2.27,-4.54 3.41,-5.68 1.13,-2.27 2.27,-4.55 3.41,-5.68 1.13,-2.28 2.27,-4.55 3.41,-5.69 1.13,-2.27 2.27,-4.55 2.27,-6.82 2.28,-3.41 4.55,-7.96 6.82,-12.51 6.82,-17.05 13.65,-35.24 19.33,-55.69 4.55,-19.33 7.96,-39.79 9.1,-61.38 0,-2.28 0,-5.69 0,-7.96l1.13 -3.41 0 -2.27c0,-1.14 0,-1.14 0,-2.28 0,-5.68 0,-10.23 0,-15.91 0,-2.28 0,-5.69 0,-7.96 0,-3.41 0,-5.69 -1.13,-7.96l0 -7.96 -1.14 -7.96c-1.14,-10.23 -3.41,-20.46 -5.69,-30.69 -1.13,-5.69 -2.27,-10.23 -4.54,-14.78 -1.14,-5.69 -3.41,-10.23 -4.55,-14.78 -4.55,-9.1 -9.1,-18.19 -14.78,-27.29 -4.55,-7.95 -11.37,-17.05 -17.05,-25.01 -12.51,-15.91 -26.15,-30.69 -39.79,-45.46 -6.83,-6.82 -13.65,-14.78 -19.33,-21.6 -5.69,-7.96 -11.37,-14.78 -15.92,-22.74 -5.68,-7.96 -9.09,-14.78 -12.5,-22.74 -4.55,-7.96 -6.82,-14.78 -9.1,-21.6 -2.27,-7.96 -3.41,-13.64 -4.55,-20.46 -1.13,-5.69 -1.13,-11.37 -1.13,-17.05 0,-1.14 0,-2.28 0,-3.42 0,-1.13 0,-2.27 0,-3.41 0,-2.27 0,-4.54 0,-6.82 0,-3.41 0,-6.82 0,-10.23 0,-2.27 1.13,-4.55 1.13,-5.68 0,-1.14 0,-2.28 0,-2.28 0,0 1.14,3.41 1.14,7.96 1.14,5.69 2.27,13.64 5.69,22.74 0,1.14 0,2.27 1.13,3.41 0,1.14 0,2.27 1.14,4.55 0,0 0,1.13 0,1.13 0,1.14 1.14,1.14 1.14,2.28 0,1.13 1.13,2.27 1.13,4.54 2.28,4.55 4.55,10.24 7.96,17.06 5.69,11.37 14.78,23.87 25.01,36.38 2.28,2.27 5.69,5.68 7.96,9.09 3.41,2.28 6.82,5.69 10.23,9.1 5.69,5.68 12.51,12.5 20.47,19.33 14.78,12.5 30.69,26.14 45.46,43.19 7.96,9.09 14.78,18.19 21.6,27.28 3.41,5.68 6.82,10.23 10.23,15.92 2.28,4.54 5.69,10.23 7.96,15.91 2.27,5.69 4.55,11.37 6.82,17.06 2.28,5.68 4.55,11.36 5.69,18.19 3.41,11.36 5.68,23.87 6.82,36.38l1.13 9.09 1.14 9.1c0,3.41 0,5.68 0,9.09 0,3.41 0,5.69 0,9.1l0 1.13 0 1.14 0 2.27 0 4.55c0,2.27 0,5.69 0,9.1 0,0 -1.14,1.13 -1.14,2.27l0 1.14 0 4.54c0,3.41 0,6.83 -1.13,9.1 -2.28,23.87 -6.82,46.6 -13.65,68.2 -7.95,21.6 -17.05,42.07 -27.28,59.11 -2.27,4.54 -4.55,9.09 -7.96,13.64 -1.14,1.14 -2.27,3.41 -3.41,5.68 -2.27,2.28 -3.41,4.55 -4.55,5.69 -1.13,2.27 -3.41,4.55 -4.54,5.68 -1.14,2.28 -2.28,4.55 -4.55,5.69 -2.28,4.54 -5.69,7.96 -7.96,11.37 -1.14,0 -2.27,1.13 -2.27,2.27 -1.14,0 -1.14,1.14 -2.28,2.27 -1.13,1.14 -3.41,3.41 -4.54,4.55 -3.42,3.41 -5.69,5.69 -9.1,9.1 -2.27,2.27 -5.68,5.68 -7.96,7.95 -3.41,2.28 -5.68,4.55 -9.09,6.83 -10.23,9.09 -20.47,15.91 -29.56,21.6 -4.55,3.41 -7.96,5.68 -11.37,6.82 -3.41,2.27 -6.82,3.41 -9.1,4.54 -2.27,1.14 -4.54,2.28 -5.68,3.42 -1.14,0 -2.27,0 -2.27,0l0.01 0z"/>
    <path class="fil4" d="M107.6 1705.19c0,9.1 6.83,13.65 11.37,19.33 5.69,5.68 11.37,10.23 15.92,15.92 5.68,4.54 10.23,10.23 15.92,15.91 5.68,4.55 11.36,10.24 15.91,15.92 2.28,1.14 2.28,1.14 4.55,3.41 15.92,14.78 32.97,27.29 54.56,31.83 6.82,2.28 19.32,4.55 27.28,4.55l742.28 0c20.47,0 38.66,-5.68 55.7,-14.78l14.78 -10.23c11.37,-9.1 21.6,-21.6 28.42,-26.15 5.68,-5.68 4.55,-4.55 7.96,-7.96 1.14,-2.27 2.27,-2.27 4.55,-4.54l23.87 -23.88c4.55,-4.55 12.51,-10.23 12.51,-19.33 0,-9.09 -7.96,-18.19 -17.06,-18.19l-1001.45 0c-10.23,0 -17.05,10.24 -17.05,18.19l-0.02 0z"/>
    <g>
    </g>
    <g style="clip-path:url(#id4)">
     <g>
      <path id="_1_3" class="fil3" d="M-59.49 1821.14c0,-12.5 9.09,-20.46 15.91,-27.28 6.82,-7.96 13.64,-14.78 20.47,-22.74 7.95,-7.96 13.64,-14.78 21.6,-22.74 6.82,-6.82 13.64,-15.91 20.46,-22.73 2.27,-1.14 3.41,-2.28 5.68,-4.55 20.47,-21.6 44.33,-38.66 72.75,-46.6 9.1,-2.28 23.88,-5.69 36.38,-5.69l981.01 0c27.28,0 51.14,9.1 73.88,21.6l19.33 13.65c15.91,12.5 29.56,30.69 37.52,37.51 7.95,7.96 5.68,6.83 10.23,12.51 2.27,2.27 3.41,2.27 5.68,4.55l31.83 34.1c6.83,6.82 17.06,15.92 17.06,28.43 0,12.5 -10.23,26.14 -22.74,26.14l-1325.43 0c-12.51,0 -21.6,-14.78 -21.6,-26.14l-0.02 -0.02z"/>
     </g>
    </g>
    <path class="fil2" d="M107.6 1705.19c0,9.1 6.83,13.65 11.37,19.33 5.69,5.68 11.37,10.23 15.92,15.92 5.68,4.54 10.23,10.23 15.92,15.91 5.68,4.55 11.36,10.24 15.91,15.92 2.28,1.14 2.28,1.14 4.55,3.41 15.92,14.78 32.97,27.29 54.56,31.83 6.82,2.28 19.32,4.55 27.28,4.55l742.28 0c20.47,0 38.66,-5.68 55.7,-14.78l14.78 -10.23c11.37,-9.1 21.6,-21.6 28.42,-26.15 5.68,-5.68 4.55,-4.55 7.96,-7.96 1.14,-2.27 2.27,-2.27 4.55,-4.54l23.87 -23.88c4.55,-4.55 12.51,-10.23 12.51,-19.33 0,-9.09 -7.96,-18.19 -17.06,-18.19l-1001.45 0c-10.23,0 -17.05,10.24 -17.05,18.19l-0.02 0z"/>
    <path class="fil2" d="M107.6 1705.19c0,9.1 6.83,13.65 11.37,19.33 5.69,5.68 11.37,10.23 15.92,15.92 5.68,4.54 10.23,10.23 15.92,15.91 5.68,4.55 11.36,10.24 15.91,15.92 2.28,1.14 2.28,1.14 4.55,3.41 15.92,14.78 32.97,27.29 54.56,31.83 6.82,2.28 19.32,4.55 27.28,4.55l742.28 0c20.47,0 38.66,-5.68 55.7,-14.78l14.78 -10.23c11.37,-9.1 21.6,-21.6 28.42,-26.15 5.68,-5.68 4.55,-4.55 7.96,-7.96 1.14,-2.27 2.27,-2.27 4.55,-4.54l23.87 -23.88c4.55,-4.55 12.51,-10.23 12.51,-19.33 0,-9.09 -7.96,-18.19 -17.06,-18.19l-1001.45 0c-10.23,0 -17.05,10.24 -17.05,18.19l-0.02 0z"/>
   </g>
   <g>
    <g>
     <path class="fil5" d="M2697.9 637.5l-379.41 0 0 1174.56 -154.09 0 0 -1174.56 -377.96 0 0 -138.1 911.45 0 0 138.1 0.01 0zm745.74 742.82l-661.41 0c1.45,104.66 30.53,184.61 84.31,242.76 53.79,55.24 126.47,84.31 220.95,84.31 106.12,0 202.06,-34.89 290.73,-104.66l0 141.01c-81.4,59.59 -190.42,90.12 -325.62,90.12 -133.74,0 -236.95,-42.16 -312.53,-127.92 -75.59,-85.76 -113.39,-204.97 -113.39,-359.06 0,-145.37 40.71,-264.57 123.56,-356.15 82.86,-93.03 186.07,-138.1 308.18,-138.1 122.11,0 216.59,39.25 284.91,119.2 66.86,78.49 100.3,188.97 100.3,329.98l0 78.49 0.01 0.02zm-154.09 -126.47c0,-87.22 -21.81,-154.1 -62.5,-203.51 -40.71,-47.98 -98.85,-71.23 -171.53,-71.23 -71.22,0 -130.83,24.72 -180.25,75.59 -49.43,50.88 -79.94,116.29 -91.57,199.15l505.87 0 -0.02 0zm1052.45 558.21l-151.19 0 0 -146.83 -2.91 0c-65.41,111.93 -161.36,168.62 -287.82,168.62 -94.48,0 -167.16,-24.72 -219.5,-74.13 -53.79,-49.43 -79.95,-114.84 -79.95,-197.7 0,-174.43 103.21,-276.19 309.63,-305.26l280.55 -39.26c0,-158.45 -63.96,-238.4 -191.88,-238.4 -113.39,0 -215.14,37.8 -306.72,114.84l0 -154.09c93.03,-58.14 199.15,-87.22 318.35,-87.22 220.96,0 331.44,116.29 331.44,348.88l0 610.53 0 0.02zm-151.18 -475.36l-225.31 31.99c-69.78,10.18 -122.11,26.17 -157.01,52.34 -36.34,24.71 -53.79,68.31 -53.79,130.83 0,45.07 15.99,82.85 49.43,111.93 31.99,29.08 75.59,43.62 130.83,43.62 74.14,0 135.2,-26.17 183.16,-78.5 49.43,-52.33 72.68,-117.74 72.68,-197.69l0 -94.49 0.01 -0.03zm376.49 441.92l0 -161.37c82.86,59.6 172.98,90.13 270.39,90.13 132.29,0 197.7,-43.62 197.7,-132.29 0,-24.71 -5.82,-46.52 -16,-62.5 -11.63,-17.45 -27.62,-33.44 -46.52,-46.52 -18.9,-13.09 -42.16,-26.17 -68.32,-36.35 -26.17,-10.18 -53.79,-21.81 -82.85,-33.44 -42.16,-17.44 -78.49,-33.44 -110.48,-50.88 -30.53,-15.99 -56.69,-34.89 -78.49,-55.23 -20.36,-21.81 -36.35,-45.07 -46.53,-72.68 -11.63,-26.17 -15.99,-58.14 -15.99,-94.49 0,-43.61 10.18,-82.85 29.08,-116.29 20.35,-33.44 47.98,-62.5 81.4,-85.76 33.44,-21.81 71.22,-39.26 114.84,-50.89 42.16,-11.63 87.22,-17.45 132.29,-17.45 81.4,0 154.09,14.54 218.04,42.17l0 151.18c-68.31,-45.07 -148.27,-66.86 -236.94,-66.86 -29.08,0 -53.8,2.91 -77.04,8.72 -21.81,7.27 -42.17,15.99 -58.14,27.63 -16,11.63 -27.63,24.71 -37.8,40.7 -8.73,17.45 -13.09,34.9 -13.09,53.8 0,24.71 4.36,45.07 13.09,62.5 10.17,15.99 23.26,30.53 39.25,43.61 17.45,13.09 37.8,24.72 62.5,34.9 24.72,10.17 52.34,21.8 84.31,33.43 40.71,16 78.49,31.99 110.48,49.44 33.44,15.99 61.05,34.89 84.31,56.68 23.26,20.35 40.71,45.07 53.79,72.68 13.08,27.62 18.9,59.59 18.9,97.39 0,46.53 -10.18,87.22 -30.53,120.66 -20.35,34.89 -47.98,62.5 -81.4,85.76 -34.89,21.81 -74.13,39.25 -119.2,50.89 -43.62,10.17 -90.13,15.99 -139.56,15.99 -95.94,0 -180.25,-18.9 -251.49,-55.23l0 -0.03zm1244.34 55.24c-138.1,0 -248.58,-43.61 -331.43,-130.83 -82.86,-88.67 -125.02,-204.96 -125.02,-348.88 0,-157 43.62,-280.55 129.38,-369.24 87.22,-88.67 203.51,-132.28 348.88,-132.28 139.56,0 248.58,42.16 327.07,129.38 78.5,85.76 117.75,204.96 117.75,357.6 0,149.73 -42.16,268.94 -126.47,359.06 -84.31,90.12 -197.69,135.19 -340.16,135.19zm11.63 -854.75c-97.39,0 -172.98,31.99 -229.68,97.4 -55.23,66.86 -84.31,157 -84.31,271.84 0,111.93 29.08,199.15 85.77,263.12 56.68,63.95 132.28,95.94 228.22,95.94 95.94,0 171.53,-31.99 223.87,-94.49 52.34,-62.5 77.04,-152.64 77.04,-267.48 0,-117.75 -24.72,-207.87 -77.04,-271.84 -52.34,-63.96 -127.93,-94.49 -223.87,-94.49zm1125.14 -423.02c-29.08,-16 -62.5,-24.72 -100.3,-24.72 -104.66,0 -157,65.41 -157,197.7l0 145.37 219.5 0 0 127.92 -219.5 0 0 809.7 -149.73 0 0 -809.7 -159.91 0 0 -127.92 159.91 0 0 -152.64c0,-97.4 29.07,-175.89 85.76,-232.59 56.68,-56.69 127.92,-85.76 212.23,-85.76 45.07,0 81.4,5.81 109.03,17.44l0 135.2 0.01 0zm591.63 1247.24c-34.89,18.9 -81.4,29.08 -139.55,29.08 -164.27,0 -245.68,-91.58 -245.68,-274.75l0 -555.3 -161.36 0 0 -127.92 161.36 0 0 -228.23 149.74 -49.43 0 277.64 235.49 0 0 127.93 -235.49 0 0 529.13c0,62.5 10.17,106.11 31.98,133.74 20.36,26.17 56.69,40.7 106.12,40.7 37.8,0 69.77,-10.17 97.39,-31.98l0 129.38 0 0.01z"/>
    </g>
    <path class="fil6" d="M7574.96 501.46l0 -97.76 -34.91 0 0 -19.91 93.52 0 0 19.91 -34.83 0 0 97.76 -23.78 0zm73.62 0l0 -117.67 35.57 0 21.34 80.27 21.1 -80.27 35.64 0 0 117.67 -22.05 0 0 -92.63 -23.37 92.63 -22.88 0 -23.29 -92.63 0 92.63 -22.06 0z"/>
   </g>
  </g>
 </g>
</svg>
