<?xml version="1.0" encoding="utf-8"?>
<!-- Generator: Adobe Illustrator 24.3.0, SVG Export Plug-In . SVG Version: 6.00 Build 0)  -->
<svg version="1.1" id="Layer_1" xmlns="http://www.w3.org/2000/svg" xmlns:xlink="http://www.w3.org/1999/xlink" x="0px" y="0px"
	 viewBox="0 0 301 196" style="enable-background:new 0 0 301 196;" xml:space="preserve">
<style type="text/css">
	.st0{fill:#FFFFFF;}
	.st1{fill:#263238;}
	.st2{fill:#007A70;}
	.st3{fill:#ADADAD;}
</style>
<g id="freepik--character-2--inject-4">
	<path class="st0" d="M224.4,104.2l-8.5,16.4c0,0-18.8,4.9-23.8,6c-2.8,0.7-5.7,0.8-8.5,0.4l-7.8-1.1c0,0-7.7,4.5-8.2,4.8
		s-0.4,1.1,0.8,1.1c1.1-0.2,2.2-0.6,3.2-1.2c0,0-3.6,2.1-3.4,2.6c0.4,0.7,1.2,0.9,1.9,0.6l0,0c1.3-0.5,2.7-1,4.1-1.3
		c0,0-4.6,3.9-2.9,4.1s3.4-1.9,3.4-1.9s-1.8,2.8-0.6,2.5c1.3-0.5,2.5-1.2,3.6-2.1c0,0,5.8-0.5,7.9-0.8c1.3-0.2,2.6-0.7,3.7-1.4
		c0,0,13.3-0.4,18.8-1.4s12.4-2.4,13.1-3.2c0.7-0.8,11.8-21.1,11.8-21.1L224.4,104.2z"/>
	<path class="st1" d="M174.1,137.8c-0.2,0-0.5-0.1-0.6-0.3s-0.2-0.5-0.1-0.8c-0.6,0.4-1.3,0.6-2.1,0.5c-0.4,0-0.7-0.3-0.8-0.6
		c-0.2-0.7,0.7-1.9,1.9-3c-0.7,0.2-1.4,0.4-2,0.7c-0.5,0.3-1,0.3-1.5,0.2c-0.5-0.2-0.9-0.5-1.1-1c-0.1-0.2-0.2-0.5,0.5-1.2
		c-0.6,0-1.2-0.3-1.4-0.9c-0.1-0.5,0.1-0.9,0.5-1.1c0.4-0.2,5.5-3.2,8.1-4.8c0.1-0.1,0.2-0.1,0.3-0.1l7.8,1c2.8,0.4,5.6,0.3,8.3-0.4
		c4.7-1,21.5-5.4,23.6-6l8.5-16.2c0.1-0.2,0.4-0.3,0.6-0.2l8.7,3c0.1,0,0.2,0.2,0.3,0.3c0.1,0.1,0.1,0.3,0,0.4
		c-1.1,2.1-11.1,20.4-11.8,21.2c-0.9,1.1-8.8,2.6-13.4,3.4c-5.2,0.9-17.1,1.4-18.7,1.4c-1.1,0.7-2.4,1.2-3.8,1.4
		c-1.8,0.2-6.9,0.7-7.7,0.8c-1.1,0.9-2.4,1.6-3.7,2.1C174.3,137.8,174.2,137.8,174.1,137.8z M174.8,134.3c0.1,0,0.2,0,0.3,0.1
		c0.2,0.1,0.3,0.4,0.1,0.7l0,0c-0.3,0.5-0.6,1.1-0.8,1.6c1.1-0.5,2.2-1.2,3.2-1.9c0.1,0,0.2-0.1,0.2-0.1c0.1,0,5.9-0.5,7.9-0.8
		c1.2-0.2,2.4-0.6,3.4-1.3c0.1-0.1,0.2-0.1,0.3-0.1c0.1,0,13.3-0.4,18.7-1.4c7.8-1.4,12.3-2.6,12.8-3.1c0.5-0.6,7-12.4,11.4-20.5
		l-7.7-2.7l-8.3,16c-0.1,0.1-0.2,0.2-0.3,0.2c-0.2,0-18.9,4.9-23.9,6c-2.8,0.7-5.8,0.8-8.7,0.4l-7.6-1c-1.1,0.6-7.6,4.5-8,4.7
		c0.1,0.1,0.4,0.2,0.6,0.2c1.1-0.2,2.1-0.6,3-1.1c0.2-0.1,0.5,0,0.7,0.2c0.1,0.2,0,0.5-0.2,0.7c-1.1,0.6-2.1,1.3-3.1,2.1
		c0.1,0.1,0.3,0.2,0.4,0.3c0.2,0.1,0.5,0.1,0.7-0.1c1.4-0.5,2.8-1,4.2-1.3c0.3-0.1,0.5,0.1,0.6,0.3s0,0.4-0.2,0.5
		c-1.2,0.9-2.2,2-3.1,3.2c1.2,0,2.5-1.2,2.9-1.7C174.6,134.3,174.7,134.3,174.8,134.3z M215.9,120.6L215.9,120.6z"/>
	<path class="st1" d="M171.8,133.1L171.8,133.1c-1.1,0-1.3-0.5-1.4-0.8c-0.1-0.8,0.2-1.6,0.9-2c0.8-0.6,6.5-3.1,7.2-3.4
		c0.3-0.1,0.5,0,0.7,0.3l0,0c0.1,0.3,0,0.5-0.3,0.7c-2.4,1-6.5,2.9-7,3.3c-0.3,0.2-0.5,0.5-0.5,0.9c0,0,0.1,0.1,0.4,0.1
		c1.1,0.1,4.8-1.1,6.2-1.5c0.2-0.1,0.4,0,0.5,0.1c1.2,1.2,3,1.4,4.5,0.6l2.9-1.6c0.2-0.1,0.5-0.1,0.7,0.2c0.1,0.2,0.1,0.5-0.2,0.7
		l0,0l-2.8,1.6c-1.8,1-4,0.8-5.5-0.5C176,132.3,173.9,132.8,171.8,133.1z"/>
	<path class="st0" d="M228.3,164.3l3.4,13.5c0,0-5.2,3.5-6.5,4.3s-6.4,2-7.7,2.5s-2.1,1.8-0.6,2.6s9.5,1.5,13,1.4s8.8-0.8,8.8-0.8
		s5.2,0,5.7-1.1s0.1-5-0.9-6.3c-1.3-1.7-2.3-3.6-3-5.5c-0.3-1.3-1.4-8.8-1.4-8.8L228.3,164.3z"/>
	<path class="st1" d="M228.8,189.2c-3.8,0-10.7-0.6-12.2-1.5c-0.6-0.3-1-0.9-1-1.6c0.2-0.9,0.9-1.6,1.7-1.9c0.5-0.2,1.5-0.5,2.7-0.9
		c1.7-0.4,3.3-1,4.9-1.6c1.2-0.6,5.1-3.3,6.2-4.1l-3.3-13.2c0-0.2,0-0.3,0.1-0.5c0.1-0.1,0.3-0.2,0.5-0.1l10.7,1.8
		c0.2,0,0.4,0.2,0.4,0.4c0,0.1,1.1,7.6,1.4,8.8c0.7,1.9,1.7,3.7,2.9,5.3c1.1,1.4,1.5,5.5,1,6.8s-4.5,1.4-6.1,1.4
		c0,0-5.3,0.6-8.8,0.8L228.8,189.2z M228.9,165l3.2,12.8c0.1,0.2,0,0.4-0.2,0.5s-5.2,3.5-6.6,4.3c-1.7,0.7-3.4,1.3-5.1,1.7
		c-1.1,0.3-2.2,0.6-2.6,0.8c-0.6,0.2-1.1,0.7-1.1,1.1s0.3,0.5,0.5,0.7c1.3,0.8,8.9,1.5,12.7,1.3c3.5-0.1,8.7-0.8,8.8-0.8
		c2.6,0,5.1-0.4,5.3-0.8c0.4-0.9,0.1-4.6-0.8-5.8c-1.3-1.7-2.4-3.7-3.1-5.8c-0.2-1.1-1.1-7-1.3-8.5L228.9,165z"/>
	<path class="st0" d="M244.3,186.8c0.5-1.1,0.1-5-0.9-6.3c-0.2-0.2-0.4-0.6-0.7-1c-2.9,1.3-9.1,1.6-9.1,1.6
		c-0.3-0.7-0.5-1.5-0.6-2.3s-1.3-1-1.3-1s-5.2,3.5-6.5,4.3s-6.4,2-7.7,2.5s-2.1,1.8-0.6,2.6s9.5,1.5,13,1.4s8.8-0.8,8.8-0.8
		S243.8,187.9,244.3,186.8z"/>
	<path class="st1" d="M228.8,189.2c-3.8,0-10.7-0.6-12.2-1.5c-0.6-0.3-1-0.9-1-1.6c0.2-0.9,0.9-1.6,1.7-1.9c0.5-0.2,1.5-0.5,2.7-0.9
		c1.7-0.4,3.3-1,4.9-1.6c1.4-0.7,6.5-4.2,6.5-4.3c0.1-0.1,0.3-0.1,0.4-0.1s1.5,0.4,1.6,1.4c0.1,0.6,0.3,1.2,0.5,1.8
		c1.4-0.1,6.2-0.5,8.6-1.5c0.2-0.1,0.5,0,0.6,0.2c0.2,0.4,0.5,0.7,0.7,0.9c1.1,1.4,1.5,5.5,1,6.8s-4.5,1.4-6.1,1.4
		c0,0-5.3,0.6-8.8,0.8L228.8,189.2z M231.8,178.4c-1,0.7-5.1,3.5-6.4,4.2c-1.7,0.7-3.4,1.3-5.1,1.7c-1.1,0.3-2.2,0.6-2.6,0.8
		c-0.6,0.2-1.1,0.7-1.1,1.1s0.3,0.5,0.5,0.7c1.3,0.8,8.9,1.5,12.7,1.3c3.5-0.1,8.7-0.8,8.8-0.8c2.6,0,5.1-0.4,5.3-0.8l0.5,0.2
		l-0.5-0.2c0.4-0.9,0.1-4.6-0.8-5.8c-0.1-0.2-0.3-0.4-0.5-0.7c-3.1,1.2-8.7,1.5-8.9,1.5c-0.2,0-0.4-0.1-0.5-0.3
		c-0.3-0.8-0.5-1.5-0.6-2.3C232.4,178.7,232,178.5,231.8,178.4L231.8,178.4z"/>
	<path class="st0" d="M259.3,171.4l7.8,3.3c0,2.3-0.5,4.5-1.5,6.6c-1.6,2.9-2.6,5-4.5,6s-3.9,2.5-2.6,3.5s13.2,0.9,14.6,0.4
		s5.7-7.1,6.7-8.8s2.6-7.2,2-8s-4.2-4.7-4.2-4.7l-1.1-0.6l-14.4-2L259.3,171.4z"/>
	<path class="st1" d="M266.3,192.1c-3.6,0-7.4-0.2-8.2-0.9c-0.4-0.3-0.6-0.8-0.6-1.2c0.1-1.2,1.9-2.4,3.3-3.1s2.5-2.5,3.8-4.8l0.6-1
		c0.9-1.9,1.4-3.9,1.5-6l-7.5-3.1c-0.1-0.1-0.2-0.2-0.3-0.3c0-0.1,0-0.3,0-0.4l2.8-4.3c0.1-0.2,0.3-0.2,0.5-0.2l14.4,2
		c0.1,0,0.1,0,0.2,0.1l1.1,0.6l0.1,0.1c0.1,0.2,3.5,3.9,4.2,4.7c0.9,1.1-1.1,7-2,8.5c-0.5,0.8-5.2,8.4-7,9
		C270.9,192,268.6,192.2,266.3,192.1z M260,171.2l7.3,3c0.2,0.1,0.3,0.2,0.3,0.4c0,2.4-0.5,4.7-1.6,6.8l-0.6,1
		c-1.3,2.4-2.4,4.3-4.2,5.2c-2,1-2.7,1.9-2.8,2.3c0,0,0,0.2,0.2,0.4c1,0.8,12.6,0.9,14.1,0.3c1.1-0.4,5.1-6.3,6.4-8.6
		c1-1.8,2.4-6.7,2-7.4c-0.6-0.7-3.6-4.1-4.1-4.6l-1-0.5l-14-2L260,171.2z"/>
	<path class="st0" d="M281.8,174.4c-0.6-0.8-4.2-4.7-4.2-4.7l-1.1-0.6h-0.1c0,1,0,2.1,0,2.9c0,2.1-2.6,4.7-2.6,4.7
		c-1.5-1-3-1.8-4.7-2.4c-2.5-0.9-1.9,0.4-1.9,0.4c0,2.3-0.5,4.5-1.5,6.6c-1.6,2.9-2.6,5-4.5,6s-3.9,2.5-2.6,3.5s13.2,0.9,14.6,0.4
		s5.7-7.1,6.7-8.8S282.4,175.2,281.8,174.4z"/>
	<path class="st1" d="M266.3,192.1c-3.6,0-7.4-0.2-8.2-0.9c-0.4-0.3-0.6-0.8-0.6-1.2c0.1-1.2,1.9-2.4,3.3-3.1s2.5-2.5,3.8-4.8l0.6-1
		c1-1.9,1.5-4,1.5-6.2c-0.1-0.3-0.1-0.7,0.1-1c0.4-0.4,1.1-0.4,2.4,0c1.6,0.6,3,1.3,4.4,2.2c0.6-0.7,2.2-2.5,2.2-4
		c0-0.8,0-1.9,0-2.9c0-0.1,0.1-0.3,0.2-0.4s0.3-0.1,0.4-0.1s0.2,0,0.3,0.1l1.1,0.6l0.1,0.1c0.1,0.2,3.5,3.9,4.2,4.7
		c0.9,1.1-1.1,7-2,8.5c-0.5,0.8-5.2,8.4-7,9C270.9,192,268.6,192.2,266.3,192.1z M267.6,174.5c0,0.1,0,0.1,0,0.2
		c0,2.4-0.5,4.7-1.6,6.8l-0.6,1c-1.3,2.4-2.4,4.3-4.2,5.2c-2,1-2.7,1.9-2.8,2.3c0,0,0,0.2,0.2,0.4c1,0.8,12.6,0.9,14.1,0.3
		c1.1-0.4,5.1-6.3,6.4-8.6c1-1.8,2.4-6.7,2.1-7.4c-0.6-0.7-3.6-4.1-4.1-4.6l-0.4-0.2c0,0.7,0,1.5,0,2.1c0,2.3-2.7,4.9-2.8,5
		c-0.2,0.2-0.5,0.2-0.6,0c-1.4-1-2.9-1.7-4.5-2.3C268.4,174.6,268,174.5,267.6,174.5z"/>
	<path class="st1" d="M251.7,137.5l-0.8,2.3c0,0-9.7-7.3-19.4-10.7c-9.7-3.4-17-4.2-19.8-0.5c-2.8,3.7-1,11.2,1.8,15
		s9.7,21.8,9.7,21.8l4.2,0.2l4.3,3.5c0,0,13,3,14.5,3.7s9.8,4.8,9.8,4.8c1.8-1.5,3.5-3.2,5-4.9c1-1.6,2-3.3,2.8-5l14.8,1.6
		c0,0,6.9-5.3,7.8-13.4s-0.6-13.6-1.5-15s-2.8-4.4-2.8-4.4l-1.5-1.9L251.7,137.5z"/>
	<path class="st1" d="M256,178.1c-0.1,0-0.2,0-0.2,0c-0.1,0-8.3-4.2-9.8-4.8c-1.2-0.5-10-2.6-14.4-3.6c-0.1,0-0.1-0.1-0.2-0.1
		l-4.1-3.4l-4-0.2c-0.2,0-0.4-0.1-0.4-0.3c-0.1-0.2-7-18-9.6-21.7s-4.8-11.6-1.8-15.6c2.7-3.6,9.4-3.5,20.4,0.3
		c8.4,2.9,16.8,8.8,19,10.4l0.5-1.6c0.1-0.2,0.2-0.3,0.4-0.3l28.9-2.9c0.2,0,0.3,0,0.4,0.2l1.5,1.9c0,0,1.9,3.1,2.8,4.5
		s2.5,7.1,1.6,15.3s-7.7,13.5-8,13.7c-0.1,0.1-0.2,0.1-0.4,0.1l-14.4-1.6c-0.8,1.7-1.7,3.3-2.7,4.8c-1.6,1.8-3.3,3.4-5.1,5
		C256.3,178.1,256.1,178.1,256,178.1z M231.9,168.7c1.4,0.3,13,3,14.5,3.7s8,3.9,9.6,4.6c1.7-1.4,3.3-3,4.7-4.6c1-1.6,1.9-3.2,2.7-5
		c0.1-0.2,0.3-0.3,0.5-0.3l14.5,1.6c1-0.8,6.7-5.8,7.5-12.9c0.9-7.9-0.6-13.4-1.4-14.7s-2.8-4.4-2.8-4.4l-1.3-1.6l-28.3,2.8l-0.7,2
		c0,0.2-0.2,0.3-0.3,0.3c-0.2,0-0.3,0-0.5-0.1c-0.1-0.1-9.8-7.3-19.3-10.6c-10.4-3.6-16.8-3.9-19.2-0.7c-2.4,3.2-1.1,10.6,1.8,14.4
		c2.6,3.6,8.7,19.2,9.6,21.6l3.9,0.2c0.1,0,0.2,0.1,0.3,0.1L231.9,168.7z"/>
	<path class="st0" d="M279,156.1c-0.1,0-0.2,0-0.3-0.1c-1.1-0.7-2.2-1.4-3.4-2c-0.2-0.1-0.3-0.4-0.2-0.7c0.1-0.2,0.4-0.3,0.7-0.2
		l0,0c1.2,0.6,2.4,1.3,3.5,2c0.2,0.2,0.3,0.5,0.1,0.7l0,0C279.3,156,279.2,156.1,279,156.1z"/>
	<path class="st0" d="M226.1,164c-0.2,0-0.3-0.1-0.4-0.2c-0.1-0.2-3.7-4.7-1.8-8.4c2-3.8,23.3-7.8,35.7-6.7
		c4.9,0.3,9.7,1.5,14.2,3.5c0.3,0.1,0.4,0.4,0.3,0.6c-0.1,0.3-0.4,0.4-0.6,0.3h-0.1c-4.4-1.9-9.1-3.1-13.9-3.5
		c-12.4-1.1-33.1,3-34.7,6.2s1.7,7.2,1.7,7.3c0.2,0.2,0.1,0.5-0.1,0.7C226.4,163.9,226.2,164,226.1,164z"/>
	<path class="st0" d="M278.1,149.6H278c-5.4-0.7-10.9-1-16.4-0.8c-0.3,0-0.5-0.2-0.5-0.4l0,0c0-0.3,0.2-0.5,0.5-0.5
		c5.6-0.3,11.1,0,16.6,0.8c0.3,0,0.5,0.3,0.5,0.5S278.4,149.6,278.1,149.6L278.1,149.6z"/>
	<path class="st1" d="M257.3,146.9c-0.2,0-0.4-0.1-0.5-0.3c-1.1-2.1-5.1-5.5-5.2-5.5c-0.2-0.2-0.2-0.5-0.1-0.7
		c0.2-0.2,0.5-0.2,0.7-0.1l0,0c0.2,0.1,4.2,3.5,5.4,5.8c0.1,0.2,0,0.5-0.2,0.7l0,0C257.4,146.9,257.4,146.9,257.3,146.9z"/>
	<path class="st0" d="M234.7,151.5c-0.2,0-0.3-0.1-0.4-0.2c-3.2-4.2-16.5-13.7-16.7-13.8c-0.2-0.2-0.3-0.5-0.1-0.7
		c0.2-0.2,0.5-0.3,0.7-0.1c0.5,0.4,13.6,9.7,16.9,14c0.2,0.2,0.1,0.5-0.1,0.7l0,0C234.9,151.5,234.8,151.5,234.7,151.5z"/>
	<path class="st0" d="M263.8,168.1c-0.1,0-0.1,0-0.2,0s-9.1-4.1-13.9-5.1c-1.7-0.4-2.9-0.5-3.9-0.6c-1.9-0.1-3.7-0.7-5.4-1.6
		c-0.3-0.1-0.4-0.4-0.3-0.7s0.4-0.4,0.7-0.3c0,0,0,0,0.1,0c1.6,0.8,3.3,1.3,5.1,1.5c1,0.1,2.2,0.3,4,0.6c4.9,1,13.7,5,14.1,5.2
		c0.3,0.1,0.4,0.4,0.2,0.7C264.2,168,264,168.1,263.8,168.1z"/>
	<path class="st0" d="M236.8,163.1c-1,0-1.8-0.1-1.9-0.1c-0.3,0-0.5-0.3-0.5-0.5c0-0.3,0.3-0.5,0.5-0.5c0,0,4.6,0.4,7-0.7
		c0.3-0.1,0.5,0,0.6,0.3c0.1,0.2,0,0.5-0.2,0.6C240.6,162.9,238.7,163.2,236.8,163.1z"/>
	<path class="st0" d="M238.9,83.1c0,0-6.6,4.5-8,7.8s-6.5,13.3-6.5,13.3l8.9,4.8c0,0,8.7,14.9,10.9,19.7c1.3,2.9,3.5,5.2,6.3,6.6
		c0,0,0.8,1.8,2,2s28.1-2.6,28.1-2.6c-0.3-1.8-0.7-3.6-1.3-5.3c-0.8-2.1-4.4-6.9-5-9.7s-2.6-17.7-6.2-24.1s-11.6-12-13-13.4
		s-0.8-1.3-2.1-1.8S243.9,79.9,238.9,83.1z"/>
	<path class="st1" d="M252.7,137.7c-0.1,0-0.2,0-0.3,0c-1-0.3-1.9-1.1-2.3-2.1c-2.8-1.5-5.1-3.8-6.4-6.7c-2-4.5-9.9-18.1-10.8-19.5
		l-8.8-4.7c-0.2-0.1-0.3-0.4-0.2-0.7c0-0.1,5.1-10,6.5-13.2s7.9-7.8,8.2-8l0,0c5.1-3.3,13-3.4,14.6-2.8c1,0.4,1.1,0.5,1.5,0.9
		c0.3,0.3,0.5,0.7,0.9,1c0.3,0.3,0.9,0.8,1.7,1.4c3,2.4,8.6,6.9,11.4,12.1s4.7,15.7,5.7,21.4c0.2,1.3,0.4,2.3,0.5,2.9
		c0.7,2.1,1.7,4,3,5.8c0.8,1.2,1.5,2.5,2.1,3.8c0.6,1.8,1,3.6,1.3,5.4c0,0.1,0,0.3-0.1,0.4s-0.2,0.2-0.4,0.2
		C276.4,135.6,255.9,137.7,252.7,137.7z M225.1,104l8.5,4.6c0.1,0,0.1,0.1,0.2,0.2c0.4,0.6,8.7,15,10.9,19.7c1.2,2.7,3.3,5,6,6.3
		c0.1,0.1,0.2,0.1,0.3,0.3c0.2,0.4,0.8,1.6,1.6,1.7c1,0.2,16.8-1.4,27.4-2.6c-0.3-1.6-0.6-3.2-1.1-4.7c-0.6-1.3-1.2-2.5-2-3.6
		c-1.3-1.9-2.3-4-3.1-6.1c-0.1-0.6-0.3-1.6-0.5-2.9c-0.9-5.2-2.8-16-5.6-21s-8.2-9.4-11.2-11.8c-0.8-0.7-1.4-1.1-1.7-1.5
		c-0.3-0.3-0.6-0.6-0.9-1c-0.2-0.3-0.3-0.3-1-0.6c-1.3-0.5-8.9-0.4-13.7,2.7c-0.2,0.1-6.5,4.5-7.8,7.5C230.1,94,226.1,102,225.1,104
		L225.1,104z"/>
	<path class="st1" d="M274.9,135.1h-0.1c-1.9-0.4-14-1.5-19.1-2c-0.3,0-0.5-0.3-0.5-0.5c0-0.3,0.3-0.5,0.5-0.5
		c6.4,0.6,17.4,1.6,19.2,2c0.3,0,0.5,0.3,0.5,0.6C275.4,134.9,275.1,135.1,274.9,135.1L274.9,135.1z"/>
	<path class="st1" d="M254.2,133L254.2,133l-2.1-0.2c-0.3,0-0.5-0.3-0.5-0.5c0-0.3,0.3-0.5,0.5-0.5l0,0l2.1,0.2
		c0.3,0,0.5,0.2,0.5,0.5S254.6,133,254.2,133L254.2,133z"/>
	<path class="st1" d="M277,133.8h-0.1l-2.4-0.5c-0.3-0.1-0.4-0.3-0.4-0.6c0.1-0.3,0.3-0.4,0.6-0.4l0,0l2.4,0.5
		c0.3,0.1,0.4,0.3,0.4,0.6l0,0C277.4,133.6,277.2,133.8,277,133.8z"/>
	<path class="st1" d="M271.2,132.5h-0.1l-9.7-2.1c-0.3-0.1-0.5-0.3-0.4-0.6s0.3-0.5,0.6-0.4l9.6,2.1c0.3,0,0.5,0.3,0.5,0.6
		C271.8,132.3,271.5,132.5,271.2,132.5z"/>
	<path class="st1" d="M270.7,117.4h-0.1c-0.5-0.1-1.6-0.5-3.2-1.1c-0.3-0.1-0.4-0.4-0.3-0.6c0.1-0.3,0.4-0.4,0.6-0.3
		c1.6,0.6,2.6,0.9,3.1,1.1c0.3,0.1,0.4,0.4,0.4,0.6C271.1,117.2,270.9,117.4,270.7,117.4z"/>
	<path class="st1" d="M265.4,115.5c-0.1,0-0.1,0-0.2,0c-3.5-1.3-7.2-2.9-7.2-2.9c-0.3-0.1-0.4-0.4-0.3-0.6l0,0
		c0.1-0.3,0.4-0.4,0.6-0.3l0,0c0,0,3.8,1.5,7.2,2.9c0.3,0.1,0.4,0.4,0.3,0.6l0,0C265.8,115.4,265.6,115.5,265.4,115.5z"/>
	<path class="st0" d="M224.2,60.1c-0.4,1.7-0.8,3.3-1,5c-0.5,3.4,1.4,4.5,1.8,6.7s-2.1,5.2-2,6s2.4,0.9,2.4,0.9s4.5,7.8,5.7,8
		s5.5-3.5,5.5-3.5l4.8,5.3c0,0-0.5,4.2,0.6,3.6c2.2-1.3,4.1-3,5.7-5c1.5-1.8,3.3-3.4,5.3-4.7c0,0-3.2-4-3.8-6.4s2-0.5,2.5-6.3
		S250,58.2,246,55.1s-11.9-4.5-17.4-1.5S223.9,59,224.2,60.1z"/>
	<path class="st1" d="M241.9,92.6c-0.2,0-0.3-0.1-0.5-0.2c-0.7-0.5-0.6-2.6-0.5-3.9l-4.3-4.8c-1.3,1.1-4.3,3.5-5.5,3.3s-4.2-4.9-6-8
		c-0.8,0-2.4-0.2-2.6-1.3c0.1-0.8,0.3-1.5,0.8-2.1c0.6-1.2,1.5-2.8,1.3-3.9c-0.2-0.7-0.4-1.3-0.8-2c-0.9-1.5-1.3-3.2-1-4.9
		c0.2-1.7,0.6-3.3,1-5c-0.6-1.7-0.6-4.2,4.6-7c5.8-3.2,13.8-1.6,18,1.6s6.5,9.2,6,15.1c-0.3,3.6-1.4,4.4-2.2,5
		c-0.5,0.4-0.5,0.4-0.4,1.1c0.6,2.3,3.7,6.2,3.7,6.3c0.1,0.1,0.1,0.3,0.1,0.4s-0.1,0.3-0.2,0.3c-1.9,1.3-3.7,2.8-5.2,4.6
		c-2.5,3-4.7,4.6-5.9,5.2C242.1,92.6,242,92.6,241.9,92.6z M236.6,82.6c0.1,0,0.3,0.1,0.4,0.2l4.8,5.3c0.1,0.1,0.1,0.3,0.1,0.4
		c-0.2,1-0.2,2.1,0,3.1c2.1-1.3,3.9-2.9,5.4-4.9c1.4-1.7,3.1-3.2,5-4.5c-0.8-1.1-3-4.2-3.5-6.2c-0.3-0.8,0-1.7,0.7-2.2
		c0.6-0.5,1.5-1.2,1.8-4.3c0.5-5.6-1.7-11.1-5.6-14.2s-11.4-4.4-16.9-1.5c-5.2,2.9-4.4,5.1-4.1,6c0,0.1,0,0.2,0,0.3
		c-0.4,1.6-0.8,3.3-1,5c-0.2,1.5,0.1,3,0.9,4.3c0.4,0.7,0.7,1.4,0.9,2.2c0.3,1.5-0.6,3.2-1.4,4.6c-0.3,0.5-0.5,1-0.7,1.5
		c0,0.2,0.9,0.5,1.9,0.5c0.2,0,0.3,0.1,0.4,0.2c2,3.5,4.6,7.5,5.4,7.7s3.1-1.7,5.1-3.4C236.3,82.7,236.5,82.6,236.6,82.6z"/>
	<path class="st1" d="M245.9,55c-4-3.2-11.9-4.5-17.4-1.5s-4.7,5.5-4.3,6.6c1.4,0.8,3,1.5,4.5,1.9c1.9,0.4,5-1.1,5.2,2.5
		s4.3,7.3,5.9,5.3s4.2-2.1,4.8,0.1s-1.1,3.9-0.1,5s4.2,0.1,4.2,0.1h0.4c0.2-1.1,2.2-0.6,2.6-5.5C252.2,63.8,250,58.2,245.9,55z"/>
	<path class="st1" d="M246.2,76c-0.8,0.1-1.5-0.2-2.1-0.7c-0.7-0.8-0.4-1.7-0.2-2.6c0.3-0.8,0.4-1.8,0.2-2.6
		c-0.1-0.6-0.6-1.1-1.2-1.3c-1.1-0.1-2.1,0.4-2.7,1.3c-0.6,0.7-1.6,1-2.5,0.6c-2.5-1.1-4.1-3.5-4.3-6.2c0-0.6-0.1-1.2-0.5-1.6
		c-0.7-0.4-1.6-0.5-2.4-0.4c-0.6,0.1-1.2,0-1.8,0c-1.6-0.4-3.2-1.1-4.7-1.9c-0.1-0.1-0.2-0.1-0.2-0.3c-0.6-1.7-0.9-4.2,4.5-7.2
		c5.8-3.2,13.8-1.6,18,1.6l0,0c4.2,3.2,6.5,9.2,6,15.1c-0.3,3.6-1.4,4.4-2.2,5c-0.3,0.2-0.4,0.3-0.4,0.5c-0.1,0.2-0.3,0.4-0.5,0.4
		h-0.4C248,75.8,247.1,76,246.2,76z M242.6,67.7c0.2,0,0.4,0,0.5,0c1,0.2,1.8,1,2,2c0.2,1.1,0.2,2.2-0.2,3.2c-0.2,0.8-0.4,1.3,0,1.6
		c0.6,0.7,2.7,0.3,3.6,0c0.1,0,0.1,0,0.2,0h0.1c0.2-0.3,0.4-0.5,0.6-0.6c0.6-0.5,1.5-1.2,1.8-4.3c0.5-5.6-1.7-11.1-5.6-14.2l0,0
		c-3.9-3-11.4-4.4-16.9-1.5c-4.9,2.7-4.5,4.8-4.1,5.8c1.3,0.8,2.8,1.4,4.2,1.8c0.5,0.1,1.1,0.1,1.6,0c1.1-0.2,2.2,0,3.1,0.6
		c0.6,0.6,0.9,1.5,0.9,2.4c0.2,2.3,1.6,4.3,3.6,5.3c0.5,0.2,1.1,0.1,1.4-0.3C240.3,68.5,241.4,67.8,242.6,67.7z"/>
	<path class="st1" d="M257.5,57.9c0,3.6-2.8,6.5-6.4,6.6c-3.6,0-6.5-2.8-6.6-6.4s2.8-6.5,6.4-6.6c0,0,0,0,0.1,0
		C254.6,51.5,257.5,54.3,257.5,57.9z"/>
	<path class="st1" d="M251,64.8c-3.8,0-6.9-3.2-6.9-7s3.2-6.9,7-6.9s6.9,3.1,6.9,6.9C258,61.7,254.8,64.8,251,64.8z M251,52
		c-3.3,0-5.9,2.7-5.9,6c0,3.3,2.7,5.9,6,5.9c3.2,0,5.9-2.7,5.9-5.9C257,54.6,254.3,52,251,52z"/>
	<path class="st1" d="M228.5,73c0.2,0.7,0.2,1.3-0.2,1.5s-0.9-0.3-1.1-1s-0.2-1.4,0.2-1.5S228.2,72.3,228.5,73z"/>
	<path class="st1" d="M228.1,81.6c-0.3,0-0.5-0.1-0.6-0.4c0-0.3,0.1-0.5,0.4-0.6c0.9-0.3,1.5-1,1.8-1.9c0.1-0.3,0.3-0.4,0.6-0.3l0,0
		c0.3,0.1,0.4,0.4,0.4,0.6C230.3,80.2,229.4,81.2,228.1,81.6C228.3,81.6,228.2,81.6,228.1,81.6z"/>
	<path class="st1" d="M228.8,71.6c-0.1,0-0.3-0.1-0.4-0.1c-0.6-0.7-1.6-0.9-2.4-0.4c-0.2,0.1-0.5,0-0.7-0.2
		c-0.1-0.2-0.1-0.5,0.1-0.6c1.2-0.7,2.7-0.5,3.7,0.6c0.2,0.2,0.2,0.5,0,0.7C229,71.6,228.9,71.7,228.8,71.6z"/>
	<path class="st1" d="M241.4,76.1h-1.1c-0.3,0-0.5-0.2-0.5-0.5s0.2-0.5,0.5-0.5h1.1c0.6,0,1.8-1.1,2.4-1.8c0.2-0.2,0.5-0.2,0.7-0.1
		c0.2,0.2,0.2,0.5,0.1,0.7l0,0C244.3,74.2,242.7,76.1,241.4,76.1z"/>
	<path class="st0" d="M254.3,89.4c0,0-4.9,2.2-6.5,3.6s-10.8,9.4-10.8,9.4l18.1,11.6l12.6-9.4"/>
	<path class="st1" d="M255.1,114.5c-0.1,0-0.2,0-0.3-0.1l-18.1-11.6c-0.1-0.1-0.2-0.2-0.2-0.4s0.1-0.3,0.2-0.4s9.2-8,10.8-9.4
		s6.4-3.6,6.6-3.7c0.3-0.1,0.5,0,0.7,0.2c0.1,0.2,0,0.5-0.2,0.7l0,0c0,0-4.9,2.2-6.4,3.6c-1.4,1.2-8.4,7.2-10.3,8.9l17.3,11
		l12.4-9.2c0.2-0.2,0.5-0.1,0.7,0.1s0.1,0.5-0.1,0.7l0,0l-12.6,9.4C255.3,114.5,255.2,114.5,255.1,114.5z"/>
	<path class="st0" d="M237,102.5l-15.5,6.2c0,0-9.5,1.1-18.1,1.4s-16.8,0.3-17.6,0.1s-8.6-4.5-9.3-4.7s-7.5,2.2-7.5,2.2
		s-1.1,3.5-0.9,4.1s1.4,0.2,1.4,0.2c0.2,0.9,0.5,1.8,0.9,2.6c0.4,0.4,1,1.8,1.6,1.3c0.9-1,1.7-2.2,2.4-3.3c2,0.8,4,1.6,6,2.2
		c1.6,0.4,10.9,1.4,13,1.6s27.1,3.2,27.8,2.6s25-10.9,25-10.9L237,102.5z"/>
	<path class="st1" d="M220.2,119.6c-5.2,0-26.8-2.6-27-2.6l-2-0.2c-3.6-0.4-9.7-1.1-11-1.4c-1.9-0.6-3.8-1.3-5.7-2
		c-0.7,1.1-1.5,2.1-2.3,3.1c-0.2,0.2-0.5,0.3-0.8,0.2c-0.6-0.1-1-0.7-1.3-1.2c-0.1-0.1-0.2-0.3-0.2-0.4c-0.4-0.7-0.7-1.5-0.9-2.4
		c-0.3,0.1-0.7,0-1-0.1c-0.2-0.1-0.4-0.3-0.4-0.6c-0.2-0.6,0.5-3,0.9-4.4c0-0.2,0.2-0.3,0.3-0.3c3.2-1.1,7.1-2.4,7.8-2.2
		c0.3,0.1,1.6,0.8,3.9,2c2,1,4.9,2.6,5.4,2.7c0.7,0.2,8.7,0.1,17.5-0.1c8.1-0.3,17.1-1.3,18-1.4l15.4-6.2c0.1-0.1,0.3-0.1,0.5,0
		l9,5.7c0.2,0.1,0.2,0.3,0.2,0.5s-0.1,0.3-0.3,0.4c-9.6,4.1-24.1,10.3-24.9,10.8C221,119.5,220.6,119.6,220.2,119.6z M174.3,112.1
		c0.1,0,0.1,0,0.2,0c0,0,4.3,1.8,5.9,2.1c1.3,0.3,7.5,1,10.9,1.4l2,0.2c4.5,0.5,25.9,3,27.5,2.7c1.6-0.9,17.8-7.8,24.1-10.5l-8-5.1
		l-15.3,6.1h-0.1c-0.1,0-9.6,1.1-18.1,1.4c-8.4,0.3-16.8,0.3-17.7,0.1c-1.9-0.8-3.8-1.8-5.6-2.8c-1.6-0.9-3.5-1.9-3.8-2
		c-2.4,0.5-4.7,1.2-7,2.1c-0.4,1.2-0.7,2.4-0.9,3.6c0,0,0.4-0.1,0.7-0.2c0.1-0.1,0.3-0.1,0.4,0c0.1,0.1,0.2,0.2,0.2,0.3
		c0.2,0.8,0.4,1.7,0.8,2.4c0.1,0.2,0.2,0.3,0.3,0.5s0.5,0.7,0.6,0.8c0.8-1,1.6-2.1,2.3-3.2C174,112.1,174.1,112.1,174.3,112.1z
		 M221.5,108.7L221.5,108.7z"/>
	<path class="st1" d="M169.4,112.5c-0.1,0-0.2,0-0.2-0.1c-0.2-0.1-0.3-0.4-0.2-0.7l0,0l1.5-2.8c0.1-0.1,0.1-0.2,0.2-0.2l3.2-1.3
		c0.3-0.1,0.6,0,0.7,0.3s0,0.6-0.3,0.7l-3,1.2l-1.4,2.7C169.7,112.4,169.5,112.5,169.4,112.5z"/>
	<path class="st1" d="M170.2,115.1c-0.1,0-0.1,0-0.2,0c-0.3-0.1-0.4-0.4-0.3-0.6l1.4-3.4c0-0.1,0.1-0.2,0.2-0.2l2.9-2.3
		c0.2-0.1,0.6-0.1,0.7,0.2c0.1,0.2,0.1,0.5-0.1,0.6l-2.9,2.2l-1.3,3.3C170.6,115,170.4,115.1,170.2,115.1z"/>
	<path class="st1" d="M171.9,116.4h-0.1c-0.3-0.1-0.4-0.3-0.4-0.6l0.7-3.5c0-0.1,0.1-0.2,0.2-0.3l2.9-2.5c0.2-0.2,0.5-0.2,0.7,0l0,0
		c0.2,0.2,0.2,0.5-0.1,0.7l-2.8,2.4l-0.7,3.4C172.3,116.2,172.1,116.4,171.9,116.4z"/>
</g>
<g id="freepik--Plants--inject-4">
	<path class="st1" d="M168.3,186.4c-0.3,0-0.5-0.2-0.5-0.5v-76.8c0-0.3,0.2-0.5,0.5-0.5s0.5,0.2,0.5,0.5V186
		C168.8,186.2,168.6,186.4,168.3,186.4z"/>
	<path class="st1" d="M168.8,161.4c-0.3,0-0.5-0.2-0.5-0.5c0-0.1,0-0.3,0.1-0.3l21.5-23.5c0.2-0.2,0.5-0.2,0.7,0l0,0
		c0.2,0.2,0.2,0.5,0,0.7l0,0l-21.5,23.5C169.1,161.4,168.9,161.4,168.8,161.4z"/>
	<path class="st1" d="M168.1,138.8c-0.1,0-0.3,0-0.3-0.1L153.4,125c-0.2-0.2-0.2-0.5,0-0.7s0.5-0.2,0.7,0l14.4,13.7
		c0.2,0.2,0.2,0.5,0,0.7l0,0C168.4,138.8,168.3,138.8,168.1,138.8z"/>
	<path class="st1" d="M180.6,148.8L180.6,148.8c-0.3,0-0.5-0.3-0.5-0.5l1.1-14.2c0-0.3,0.3-0.5,0.5-0.5s0.5,0.3,0.5,0.5l-1.1,14.2
		C181.1,148.6,180.8,148.8,180.6,148.8z"/>
	<path class="st1" d="M168.4,175.3c-0.1,0-0.2,0-0.2-0.1l-16.4-9.5c-0.3-0.1-0.4-0.4-0.2-0.7s0.4-0.4,0.7-0.2c0,0,0.1,0,0.1,0.1
		l16.4,9.5c0.2,0.1,0.3,0.4,0.2,0.7C168.7,175.3,168.6,175.4,168.4,175.3z"/>
	<path class="st1" d="M148.7,133.1c-0.3,0-0.5-0.2-0.5-0.5s0.2-0.5,0.5-0.5l0,0l13.1-0.4c0.3,0,0.5,0.2,0.5,0.5s-0.2,0.5-0.5,0.5
		L148.7,133.1L148.7,133.1z"/>
	<path class="st2" d="M171.9,102.4c0,4.5-3.7,8.2-3.7,8.2s-3.7-3.7-3.7-8.2s3.7-8.2,3.7-8.2S171.9,97.9,171.9,102.4z"/>
	<path class="st2" d="M152.4,118.1c3.5,2.8,4.1,8,4.1,8s-5.2,0.6-8.7-2.2s-4-8-4-8S148.9,115.3,152.4,118.1z"/>
	<path class="st2" d="M146.3,128.7c4.5,0,8.2,3.8,8.2,3.8s-3.7,3.7-8.2,3.7s-8.2-3.8-8.2-3.8S141.8,128.6,146.3,128.7z"/>
	<path class="st2" d="M185.8,133.7c-0.5,4.5-4.5,7.8-4.5,7.8s-3.4-4-2.9-8.5s4.5-7.8,4.5-7.8S186.3,129.2,185.8,133.7z"/>
	<path class="st2" d="M161.1,156.7c2.3,3.9,7.4,5.1,7.4,5.1s1.4-5.1-0.9-9s-7.4-5.1-7.4-5.1S158.8,152.8,161.1,156.7z"/>
	<path class="st2" d="M175.7,133.9c-2.3,3.9-7.4,5.1-7.4,5.1s-1.4-5.1,0.9-9c2.3-3.9,7.4-5.1,7.4-5.1S178,130,175.7,133.9z"/>
	<path class="st2" d="M151.5,159.5c3.7,2.6,4.6,7.8,4.6,7.8s-5.1,1-8.9-1.6s-4.6-7.7-4.6-7.7S147.8,156.9,151.5,159.5z"/>
	<path class="st2" d="M196.8,135.7c-3,3.4-8.2,3.6-8.2,3.6s-0.4-5.2,2.7-8.6c3.1-3.4,8.2-3.6,8.2-3.6S199.8,132.3,196.8,135.7z"/>
	<path class="st1" d="M146,186.8c0,0,16.2-6.5,22.8-6.5s21.9,6.9,21.9,6.9L146,186.8z"/>
</g>
<g id="freepik--character-1--inject-4">
	<path class="st3" d="M109.3,138.6c0,0-14.4,20-14,21s6.6,5.3,13.2,8s16.5,1.4,23.1-1.6c0,0,0.3-9.4-9.7-20.1
		C115.7,139.3,109.3,138.6,109.3,138.6z"/>
	<path class="st1" d="M117,169.6c-3,0.1-6-0.5-8.8-1.5c-6.4-2.6-12.9-7-13.4-8.2c-0.1-0.3-0.5-1.3,14-21.5c0.1-0.1,0.3-0.2,0.5-0.2
		c0.3,0,6.6,0.8,12.9,7.4c10,10.7,9.8,20,9.8,20.4c0,0.2-0.1,0.4-0.3,0.4C127,168.5,122.1,169.5,117,169.6z M95.8,159.5
		c0.7,0.9,6.3,5,12.8,7.6s16.2,1.3,22.4-1.5c-0.1-1.7-0.8-10.1-9.5-19.4c-5.2-5.6-10.7-6.9-12-7.1
		C104.4,146.3,96.3,157.9,95.8,159.5L95.8,159.5z"/>
	<path class="st1" d="M126.5,157.6c0,0-3.6-0.8-4.9,0.5s-2.7,4.4-1.9,5.5s1.9,2.7,1.9,2.7s-2.7-0.3-2.7,1.9s-1.6,6,1.6,8.5
		s6-1.1,6.8-1.6s1.1-4.1,1.1-4.1s3.3-0.3,4.4-2.5c1.4-2.5,1.3-5.6-0.3-7.9C130.6,157.6,126.5,157.6,126.5,157.6z"/>
	<path class="st1" d="M130.3,174.2c0,0-5.2,5.2-3.8,6.3c1.5,1.1,3,2.1,4.6,3c0,0,3.3,0,3.8-2.5s1.1-4.4-0.3-5.5
		S133.3,173.4,130.3,174.2z"/>
	<path class="st1" d="M131.2,183.5c-2.3,0.5-4.6,1.1-6.8,1.9c-1.6,0.6-3.2,1.1-4.9,1.4H153c0,0-1.1-3.8-4.1-4.4s-10.1,0.8-10.1,0.8
		s-0.8-1.6-3.8-2.2C133.3,180.8,131.6,181.9,131.2,183.5z"/>
	<path class="st1" d="M122.7,181.8c0,0.7-0.5,1.2-1.2,1.2s-1.2-0.5-1.2-1.2s0.5-1.2,1.2-1.2l0,0
		C122.1,180.5,122.7,181.1,122.7,181.8z"/>
	<path class="st1" d="M118.3,175.1c0,1.2-1,2.2-2.2,2.2s-2.2-1-2.2-2.2s1-2.2,2.2-2.2l0,0C117.3,172.9,118.3,173.9,118.3,175.1z"/>
	<path class="st0" d="M77.6,176.7c0,0,5.2,5,6.7,5.9s4.6,2.3,4.2,4.6s-7.7,3.9-9.3,2.3s-14.2-6.2-14.6-7.4s0.5-3.3,0.5-3.3l11.3-1.7
		L77.6,176.7z"/>
	<path class="st1" d="M81.6,190.6c-1,0.1-2-0.2-2.8-0.8c-0.7-0.7-4.2-2.2-7.3-3.6c-5.4-2.4-7.2-3.2-7.4-3.9
		c-0.5-1.4,0.4-3.5,0.5-3.7s0.2-0.3,0.4-0.3l11.3-1.7l1.1-0.4c0.2-0.1,0.4,0,0.5,0.1c0,0,5.2,5,6.6,5.8c0.2,0.1,0.5,0.3,0.7,0.4
		c1.6,0.9,4,2.3,3.7,4.6c-0.2,1.4-2.2,2.3-3.3,2.7C84.4,190.4,83,190.6,81.6,190.6z M65.5,179.3c-0.4,0.8-0.5,1.8-0.4,2.7
		c0.4,0.5,4.1,2.1,6.9,3.4c3.5,1.5,6.8,3,7.6,3.8s3.5,0.6,5.8-0.1c1.5-0.5,2.6-1.2,2.6-1.9c0.2-1.6-1.8-2.8-3.2-3.6
		c-0.3-0.2-0.6-0.3-0.8-0.5c-1.3-0.8-5.5-4.8-6.5-5.7l-0.9,0.3L65.5,179.3z"/>
	<path class="st1" d="M66.6,82.9c0,0,8.8,39.1,9,47.1s-1.5,35.5-1.5,35.5s3.9,7.4,4,8.1s-0.5,2.5-0.5,3.1c0,0-13.4,3.7-14.8,3.8
		s-3.5,0-3.5,0s-1.2-13.3-2.5-17.7s-6.1-29.9-6.1-29.9l-10.4-27.8c0,0-4.7-15.1-5.5-18.5s0-11.7,0-11.7s20.1,2,23.9,3.2
		S66.6,82.9,66.6,82.9z"/>
	<path class="st1" d="M61.7,181.1c-1.1,0-2.3-0.1-2.3-0.1c-0.2,0-0.4-0.2-0.5-0.5c0-0.1-1.2-13.3-2.5-17.6s-5.9-28.9-6.1-30
		l-10.4-27.7c-0.2-0.6-4.7-15.2-5.5-18.6s0-11.5,0-11.9c0-0.1,0.1-0.3,0.2-0.3c0.1-0.1,0.2-0.1,0.4-0.1c0.8,0.1,20.2,2,24,3.2
		s7.9,4.7,8.1,4.9c0.1,0.1,0.1,0.2,0.2,0.3c0.4,1.6,8.8,39.2,9,47.2c0.2,7.7-1.4,33.2-1.5,35.4c1,1.9,3.9,7.4,4,8.1
		c0,0.7-0.1,1.5-0.3,2.2c-0.1,0.4-0.2,0.7-0.2,1.1c0,0.2-0.2,0.4-0.4,0.5c-1.4,0.4-13.5,3.8-14.9,3.9
		C62.5,181.1,62.1,181.1,61.7,181.1z M59.8,180.1c1,0.1,2,0.1,3,0c0.9-0.1,9-2.2,14.3-3.7c0.1-0.3,0.1-0.6,0.2-0.9
		c0.2-0.6,0.3-1.2,0.3-1.8c-0.1-0.5-2.1-4.4-4-7.9c0-0.1-0.1-0.2-0.1-0.3c0-0.3,1.7-27.5,1.5-35.4c-0.2-7.6-8.3-44.1-9-46.9
		c-0.7-0.6-4.3-3.5-7.6-4.6s-20.1-2.8-23.3-3.1c-0.2,1.8-0.6,8.2,0,11c0.8,3.3,5.4,18.3,5.4,18.5l10.4,27.8c0.1,0.3,4.9,25.6,6.1,30
		C58.5,166.7,59.6,177.7,59.8,180.1L59.8,180.1z"/>
	<path class="st0" d="M65.1,178.8c1.6,1,3.3,1.8,5.1,2.3c2.5,0.6,10,3.1,10.3,4.4c0.1,1.4-0.3,2.8-1.2,3.9
		c-0.7,0.8-7.1,1.4-11.4,1.4s-11.7-2.8-12.8-3.2s-2.9-1.2-2.9-1.2S62.8,178.5,65.1,178.8z"/>
	<path class="st1" d="M68.4,191.3h-0.7c-2.7,0-6.9-1.1-12.6-3.1l-0.4-0.1c-1.1-0.4-2.9-1.1-3-1.2c-0.2-0.1-0.3-0.2-0.3-0.4
		s0.1-0.4,0.2-0.5c1.8-1.3,11.1-8,13.5-7.7c0.1,0,0.1,0,0.2,0.1c1.5,0.9,3.2,1.7,4.9,2.2c0.1,0,10.2,2.8,10.6,4.8
		c0.2,1.6-0.3,3.2-1.4,4.4C78.7,190.9,72.1,191.3,68.4,191.3z M53,186.3c0.6,0.2,1.5,0.6,2.1,0.8l0.4,0.1c5.6,2,9.7,3,12.3,3.1
		c4.6,0.1,10.5-0.6,11-1.2c0.8-1,1.2-2.2,1.1-3.5c-0.3-0.9-6.2-3.1-9.9-4c-1.8-0.5-3.5-1.3-5.1-2.3l0,0
		C63.3,179.3,57.1,183.4,53,186.3L53,186.3z"/>
	<path class="st1" d="M61.1,92.1l-5.1,2l-0.2,2.8l5.7,26.5c0,0,0.3,8.9,1,11.8s1.7,34.2,1.7,34.2s2.6,3.7,2.9,4.2s0.4,5.5,0.4,5.5
		s-9.9,4.3-12.7,6.1s-3.9,0.9-3.9,0.9c-1.4-0.4-2.8-1-4.1-1.6c-0.5-0.4-0.5-3-0.5-3s-6.2-29.1-7.1-34.3s-3.3-21.9-3.3-21.9
		s-8.5-32.5-9.2-35.1s-0.6-15.7-0.6-15.7s17.4,2.7,21,2.9s14.7,3.7,14.7,3.7l1.1,0.9"/>
	<path class="st1" d="M51.7,186.9c-0.4,0-0.8-0.1-1.1-0.3c-1.4-0.4-2.8-1-4.2-1.6c-0.6-0.4-0.7-2-0.7-3.4c-0.3-1.4-6.2-29.2-7-34.3
		s-3.2-21.7-3.3-21.9s-8.5-32.5-9.2-35s-0.6-15.3-0.6-15.9c0-0.1,0.1-0.3,0.2-0.4s0.3-0.1,0.4-0.1c0.2,0,17.4,2.7,21,2.9
		c3.6,0.2,14.3,3.5,14.8,3.7c0.1,0,0.1,0,0.2,0.1l1.1,0.9c0.2,0.2,0.2,0.5,0.1,0.7c-0.2,0.2-0.5,0.2-0.7,0.1l-1-0.8
		c-1.1-0.3-11.1-3.4-14.4-3.6s-17.4-2.3-20.5-2.8c0,2.6,0,12.9,0.6,15c0.7,2.5,9.1,34.8,9.2,35.1s2.4,16.8,3.3,21.9s7,34,7.1,34.3
		v0.1c0,0.9,0.1,1.8,0.3,2.7c1.3,0.6,2.6,1.1,3.9,1.5c0.1,0,0.1,0,0.1,0.1l0,0c0,0,1,0.6,3.3-1c2.5-1.7,10.8-5.3,12.5-6
		c0-1.7-0.1-3.3-0.3-5c-0.2-0.4-2.2-3.1-2.9-4.1c-0.1-0.1-0.1-0.2-0.1-0.3c0-0.3-1.1-31.3-1.7-34.1s-1-11.5-1-11.8l-5.7-26.4v-0.1
		l0.2-2.8c0-0.2,0.1-0.4,0.3-0.4l5.1-2c0.3-0.1,0.5,0,0.6,0.3s0,0.5-0.3,0.6l-4.8,1.9l-0.1,2.5l5.6,26.5c0,0.2,0.3,8.9,1,11.7
		s1.6,31.5,1.7,34.1c0.5,0.7,2.6,3.6,2.9,4.1s0.4,3.9,0.4,5.8c0,0.2-0.1,0.4-0.3,0.5c-0.1,0-9.9,4.3-12.6,6.1
		C54.1,186.4,52.9,186.8,51.7,186.9z"/>
	<path class="st0" d="M62.9,173.5c-0.3,0-0.5-0.2-0.5-0.5l0,0c0-0.4-0.4-35.2-0.4-37.8c0-2-5.8-25.1-8.8-37
		c-0.1-0.2,0.1-0.5,0.3-0.6l6-2.5c0.2-0.1,0.5,0,0.6,0.3l0,0c0.1,0.2,0,0.5-0.3,0.6l0,0l-5.6,2.3c1,4.1,8.6,34.3,8.7,36.8
		s0.4,37.4,0.4,37.8C63.3,173.3,63.1,173.5,62.9,173.5L62.9,173.5z"/>
	<path class="st0" d="M92.9,27.9c0,0-12.8-4-15-4.1s-12.2-0.9-17.6,2.5S38.8,46.9,33.9,53.9s-8.8,21.5-8.8,21.5s11.6,3.3,14.7,3.5
		s10.5,1,10.5,1s7.5,4.7,13.1,5s0.3,2.2,10.6-4.3c5.4-3.5,11.1-6.6,17-9.2l-7.4,11.2c1.6,1.9,3.7,3.3,6.1,4.2c3.4,1,9.8,3.4,9.8,3.4
		s3.9-14.6,5.5-18.6s3.9-11,3.7-14.9s-2.5-13.4-2.5-13.4S96.9,29.3,92.9,27.9z"/>
	<path class="st1" d="M99.5,90.7h-0.2c-0.1,0-6.4-2.4-9.7-3.4c-2.4-0.9-4.6-2.4-6.3-4.4c-0.1-0.2-0.1-0.4,0-0.6l6.4-9.8
		C84.4,75,79.2,77.8,74.3,81c-3.1,2-4.8,3.2-5.8,3.9c-1.4,1-1.6,1.1-2.5,0.9c-0.8-0.2-1.7-0.4-2.6-0.4c-5.5-0.3-12.4-4.5-13.3-5
		c-0.9-0.1-7.6-0.8-10.4-1c-3.1-0.2-14.3-3.4-14.8-3.5c-0.3-0.1-0.4-0.3-0.3-0.6c0.2-0.6,4-14.6,8.8-21.6c5-7.2,21.2-24.5,26.6-27.8
		c3.6-2.2,9.5-3,17.6-2.5h0.3c2.3,0.1,14.6,4,15.2,4.1l0,0c4.1,1.5,13.2,15,13.6,15.6c0,0,0.1,0.1,0.1,0.2c0.1,0.4,2.3,9.6,2.5,13.5
		c0.2,4.3-2.4,11.7-3.7,15.1c-1.6,3.9-5.5,18.4-5.5,18.6c0,0.1-0.1,0.3-0.2,0.3C99.7,90.7,99.6,90.7,99.5,90.7z M84.3,82.5
		c1.5,1.7,3.4,3,5.6,3.8c2.8,0.8,7.7,2.6,9.3,3.2c0.7-2.7,3.9-14.6,5.4-18.1c1.6-3.8,3.9-10.8,3.7-14.6c-0.2-3.6-2.2-12.2-2.5-13.2
		c-3.2-4.8-10-14-13.1-15.2c-4.4-1.4-13.2-4-14.9-4.1h-0.3c-7.9-0.5-13.6,0.3-17,2.4C55.2,29.9,39.2,47,34.2,54.2
		c-4.3,6.2-7.8,18.3-8.6,20.9c2.2,0.6,11.5,3.2,14.1,3.3c3,0.2,10.5,1,10.5,1c0.1,0,0.1,0,0.2,0.1c0.1,0,7.4,4.6,12.9,5
		c0.9,0,1.9,0.2,2.8,0.4c0.5,0.1,0.5,0.1,1.7-0.7c1-0.7,2.7-1.9,5.9-3.9c5.4-3.5,11.2-6.6,17.1-9.2c0.3-0.1,0.5,0,0.6,0.3
		c0.1,0.2,0,0.3,0,0.5L84.3,82.5z"/>
	<path class="st1" d="M52.2,76c-0.1,0-0.3-0.1-0.4-0.2c-1.3-1.6-2.3-3.3-3.1-5.2c-0.1-0.3,0-0.5,0.3-0.7l0,0c0.3-0.1,0.5,0,0.7,0.2
		c0.7,1.8,1.7,3.4,2.9,4.9c0.2,0.2,0.2,0.5,0,0.7C52.5,76,52.4,76,52.2,76z"/>
	<path class="st1" d="M47.9,67.6c-0.2,0-0.4-0.1-0.5-0.3c-1.5-4-2.5-7.8-2.5-7.9c-0.1-0.3,0.1-0.5,0.4-0.6l0,0
		c0.3-0.1,0.5,0.1,0.6,0.4l0,0c0,0,1,3.8,2.4,7.8C48.4,67.3,48.3,67.6,47.9,67.6L47.9,67.6z"/>
	<path class="st1" d="M49.1,79.4c-0.1,0-0.2,0-0.3-0.1c-4.6-4.2-8.9-13.2-9.1-13.6c-0.1-0.3,0.1-0.6,0.3-0.6c0.2-0.1,0.5,0,0.6,0.2
		c0,0.1,4.5,9.3,8.9,13.3c0.2,0.2,0.2,0.5,0,0.7l0,0C49.4,79.3,49.2,79.4,49.1,79.4z"/>
	<path class="st1" d="M96.2,62.3L96.2,62.3l-10.4-0.1c-0.2,0-0.4-0.1-0.4-0.3c-0.1-0.2-0.1-0.4,0-0.5l7.5-10.3l7.2-8.7
		c0.2-0.2,0.5-0.2,0.7,0c0.1,0.1,0.2,0.2,0.2,0.3l0.4,6.9l-0.5,8.4c0,0.3-0.2,0.5-0.5,0.5c-0.1,0-0.2-0.1-0.3-0.1l-2.3-2.1l-1,5.7
		C96.6,62.1,96.4,62.2,96.2,62.3z M86.8,61.2l9,0.1l1.1-6.2c0-0.2,0.2-0.3,0.3-0.4c0.2-0.1,0.4,0,0.5,0.1l2.2,2l0.4-7.2l-0.3-5.5
		l-6.4,7.7L86.8,61.2z"/>
	<path class="st0" d="M96.6,29c0,0,8.2-6.9,13-8.2s11.1,0.9,13,3s3.6,11.6,3.6,14.3s-0.3,5.6-2.1,6.4s-4.4,3.1-5.3,3.3
		c-0.8,0.1-1.6,0.1-2.5,0.1l-1.6,4.8l-4.2-0.9c0,0-8,3.8-9.1,3.5s-4.6-5.8-4.6-5.8s-1.8,7.3-4.1,8.9c-2.2,1.4-4.5,2.5-6.9,3.4
		c0,0,4.6-5.5,6.2-15.5C93.1,40.4,94.6,34.6,96.6,29z"/>
	<path class="st1" d="M85.9,62.2c-0.2,0-0.3-0.1-0.4-0.2c-0.1-0.2-0.1-0.4,0-0.6c0-0.1,4.5-5.6,6.1-15.3c1-5.9,2.5-11.7,4.6-17.3
		c0-0.1,0.1-0.1,0.1-0.2c0.3-0.3,8.4-7,13.2-8.3c5-1.4,11.5,0.9,13.5,3.1s3.7,12,3.8,14.6c0.1,3.8-0.7,6.1-2.4,6.8
		c-1.1,0.5-2.1,1.1-3,1.9c-0.7,0.6-1.6,1.1-2.4,1.5c-0.7,0.1-1.5,0.1-2.2,0.1l-1.5,4.5c-0.1,0.2-0.3,0.4-0.6,0.3l-4-0.9
		c-2.5,1.2-8.2,3.8-9.3,3.5c-1-0.3-3-3.2-4.3-5.1c-0.6,2.1-2.1,6.8-4,8.1c-2.2,1.4-4.6,2.5-7,3.5C86,62.2,85.9,62.2,85.9,62.2z
		 M97.1,29.3c-2,5.5-3.5,11.2-4.5,16.9c-0.8,5.1-2.6,9.9-5.3,14.3c1.8-0.7,3.6-1.6,5.2-2.7c1.8-1.3,3.4-6.6,3.9-8.6
		c0-0.2,0.2-0.3,0.4-0.4c0.2,0,0.4,0.1,0.5,0.2c1.6,2.6,3.7,5.4,4.3,5.6s5-1.7,8.8-3.5c0.1,0,0.2,0,0.3,0l3.8,0.8l1.5-4.4
		c0.1-0.2,0.3-0.4,0.5-0.3c0.8,0,1.6,0,2.3-0.1c0.7-0.3,1.4-0.8,2.1-1.3c1-0.7,2-1.4,3.1-2c1.6-0.7,1.9-3.6,1.9-5.9
		c-0.1-2.9-1.8-12-3.5-14s-7.9-4.1-12.5-2.8C105.4,22.5,98,28.6,97.1,29.3z"/>
	<path class="st1" d="M122.6,23.8c-1.9-2.1-8.2-4.3-13-3s-13,8.2-13,8.2s-1.1,4.2,0.4,4.5l1.6,0.3c0,0,3.8-3.8,5-2s2.5,3.5,1.8,4.6
		s-2,3.2-2,3.2l1.5,0.8l3-2.1l2.4,1.7l4.6-1.5c0,0,4.5,2.9,6.9,4.4c0.9,0.6,2,1,3.1,1c1.2-1.1,1.5-3.6,1.5-5.9
		C126.2,35.4,124.5,25.9,122.6,23.8z"/>
	<path class="st1" d="M124.7,44.5c-1.1-0.1-2.2-0.4-3.2-1.1c-2.1-1.3-5.8-3.7-6.7-4.3l-4.3,1.5c-0.2,0.1-0.3,0-0.5-0.1l-2.1-1.5
		l-2.7,1.9c-0.2,0.1-0.4,0.1-0.5,0l-1.5-0.8c-0.1-0.1-0.2-0.2-0.3-0.3s-0.1-0.3,0-0.4c0.1-0.1,1.3-2.2,2-3.3c0.5-0.7-0.4-2-1.4-3.5
		l-0.4-0.5c-0.1-0.2-0.3-0.3-0.5-0.3c-1-0.1-2.9,1.4-3.8,2.3c-0.1,0.1-0.3,0.2-0.4,0.1l-1.6-0.3c-0.4-0.1-0.7-0.3-0.9-0.6
		c-0.8-1.3,0-4.2,0.1-4.5c0-0.1,0.1-0.2,0.2-0.3c0.3-0.3,8.4-7,13.2-8.3c5-1.4,11.5,0.9,13.5,3.1s3.7,12,3.8,14.6
		c0.1,3.1-0.5,5.2-1.6,6.3c-0.1,0.1-0.2,0.1-0.3,0.1L124.7,44.5z M124.8,44L124.8,44z M114.9,38.1c0.1,0,0.2,0,0.3,0.1
		c0.1,0,4.5,3,6.9,4.4c0.8,0.5,1.7,0.9,2.6,0.9c0.8-0.9,1.2-2.8,1.2-5.4c-0.1-2.9-1.8-12-3.5-14s-7.9-4.1-12.5-2.8
		c-4.3,1.2-11.6,7.1-12.7,8c-0.3,1.1-0.5,2.9-0.1,3.5c0,0.1,0.1,0.1,0.2,0.2l1.3,0.3c0.7-0.6,2.8-2.6,4.4-2.4c0.5,0,0.9,0.3,1.2,0.7
		l0.3,0.5c1.2,1.8,2.3,3.4,1.4,4.6c-0.5,0.8-1.3,2-1.7,2.7l0.8,0.4l2.8-1.9c0.2-0.1,0.4-0.1,0.6,0l2.1,1.5l4.3-1.5
		C114.8,38.1,114.8,38.1,114.9,38.1z"/>
	<path class="st1" d="M116.1,47c-0.2,0-0.3-0.1-0.4-0.2c-0.5-0.8-1.4-1.4-2.3-1.7c-0.3-0.1-0.5-0.3-0.4-0.6s0.3-0.5,0.6-0.4
		c1.2,0.4,2.2,1.1,2.9,2.2c0.1,0.2,0.1,0.5-0.2,0.7C116.3,46.9,116.2,47,116.1,47z"/>
	<path class="st1" d="M113,48.1h-0.2c-0.7-0.4-1.3-1-1.5-1.8c-0.1-0.3,0.1-0.6,0.4-0.6s0.6,0.1,0.6,0.4c0.1,0.4,0.4,0.8,0.7,1.1
		l1.1-0.6c0.2-0.1,0.5,0,0.7,0.2c0.1,0.2,0,0.5-0.2,0.7l-1.3,0.7C113.2,48.1,113.1,48.1,113,48.1z"/>
	<path class="st1" d="M107.1,51.8c-0.2,0-0.3-0.1-0.4-0.2c-0.6-0.7-0.8-1.7-0.7-2.6c0.1-0.3,0.3-0.4,0.6-0.4
		c0.3,0.1,0.4,0.3,0.4,0.6l0,0c-0.1,0.7,0.1,1.3,0.5,1.8c0.2,0.2,0.1,0.5-0.1,0.7C107.3,51.8,107.2,51.8,107.1,51.8z"/>
	<path class="st1" d="M96.8,49.9c-0.3,0-0.5-0.2-0.5-0.5v-5c0-0.3,0.2-0.5,0.5-0.5l0,0l0,0c0.3,0,0.5,0.2,0.5,0.5v5
		C97.3,49.6,97.1,49.8,96.8,49.9L96.8,49.9z"/>
	<path class="st0" d="M98.6,33.8c-0.7,1-1.1,2.1-1.2,3.3c0.1,1.4,1.8,2.3,1.8,2.3"/>
	<path class="st1" d="M99.1,40c-0.1,0-0.2,0-0.2-0.1c-0.1,0-1.9-1.1-2-2.7c0.1-1.3,0.6-2.6,1.3-3.6c0.2-0.2,0.5-0.3,0.7-0.1
		s0.3,0.5,0.1,0.7l0,0c-0.6,0.9-1,1.9-1.1,3c0.1,0.9,1.1,1.7,1.5,1.9c0.2,0.1,0.3,0.4,0.2,0.7C99.5,39.9,99.3,40,99.1,40z"/>
	<polygon class="st0" points="97,27.9 93.6,26.4 83.3,45.3 90.9,50.2 	"/>
	<path class="st1" d="M91,50.7c-0.1,0-0.2,0-0.3-0.1L83,45.7c-0.2-0.1-0.3-0.4-0.2-0.7l10.3-18.9c0.1-0.2,0.4-0.3,0.6-0.2l3.4,1.5
		c0.2,0.1,0.3,0.4,0.3,0.6l-6.1,22.2c0,0.2-0.2,0.3-0.3,0.3C91.1,50.6,91,50.7,91,50.7z M84,45.1l6.7,4.3l5.8-21.2l-2.7-1.1L84,45.1
		z"/>
	<path class="st1" d="M85.9,62.2L85.9,62.2c-0.3,0-0.4-0.2-0.5-0.4L83,54.1c-0.1-0.2,0-0.5,0.2-0.6l7.4-3.8c0.2-0.1,0.3-0.1,0.5,0
		s0.2,0.3,0.2,0.5c-0.2,4-5,11.4-5.2,11.8C86.2,62,86,62.1,85.9,62.2z M84.1,54.2l1.9,6.2c1.2-1.9,3.7-6.4,4.3-9.4L84.1,54.2z"/>
	<path class="st0" d="M40.9,43.1c0,0-14.1,11-15,12.6S14,87.1,14,87.1s-1.9,4-1.5,5.4s2.9,5.5,3.7,5.9s4.3,0,5.6-1.5
		c1.6-1.8,2.5-4,2.6-6.4c-0.1-1.5-0.6-3-1.4-4.4l-0.1-2.2l17.5-24.6l8.4-4L40.9,43.1z"/>
	<path class="st1" d="M17.3,99.1c-0.5,0-0.9-0.1-1.3-0.2c-1-0.5-3.6-4.8-4-6.2s1.4-5.3,1.6-5.7c0.4-1.2,11.1-29.9,12-31.5
		s13.7-11.6,15.1-12.7c0.1-0.1,0.3-0.1,0.4-0.1s0.3,0.1,0.3,0.2l7.8,12.3c0.1,0.1,0.1,0.3,0.1,0.4c0,0.1-0.1,0.3-0.3,0.3l-8.2,3.9
		L23.4,84.1l0.1,2c0.8,1.4,1.3,2.9,1.4,4.5c0.1,2.5-1.4,5.2-2.7,6.7C21.1,98.5,18.8,99.1,17.3,99.1z M40.8,43.8
		c-5.6,4.4-13.8,11-14.4,12.1c-0.7,1.2-8.1,21.1-11.9,31.4c-0.7,1.5-1.7,4.2-1.5,5.1c0.8,2.1,2,4,3.5,5.6c0.5,0.3,3.8,0,5-1.4
		c1.5-1.7,2.4-3.8,2.5-6c-0.1-1.5-0.6-2.9-1.3-4.1c0-0.1-0.1-0.2-0.1-0.2l-0.1-2.2c0-0.1,0-0.2,0.1-0.3L40,59.1
		c0-0.1,0.1-0.1,0.2-0.2l7.9-3.8L40.8,43.8z"/>
	<path class="st0" d="M71.1,25.6c0,0-8.3-0.9-13.6,1.9s-18,15.3-18,15.3s1.1,6,3.2,8.7c2.2,2.6,4.6,4.9,7.1,7.1
		c0,0,17.3-7.8,21.9-13.4"/>
	<path class="st1" d="M49.8,59.1c-0.1,0-0.2,0-0.3-0.1c-2.6-2.2-5-4.6-7.2-7.2c-2.1-2.8-3.2-8.7-3.3-9c0-0.2,0-0.3,0.1-0.4
		c0.5-0.5,12.8-12.6,18.1-15.4s13.5-2,13.8-1.9c0.3,0,0.5,0.3,0.4,0.6c0,0.3-0.3,0.5-0.6,0.4c-0.1,0-8.2-0.8-13.3,1.8
		c-4.8,2.5-16.1,13.4-17.7,15c0.2,1.2,1.3,6,3,8.3c2.1,2.5,4.4,4.7,6.8,6.8c2.3-1,17.3-8,21.5-13.1c0.2-0.2,0.5-0.2,0.7-0.1
		c0.2,0.2,0.2,0.5,0.1,0.7C67.3,51.2,50.5,58.7,49.8,59.1C49.9,59.1,49.9,59.1,49.8,59.1z"/>
	<path class="st1" d="M34.7,103.9h-0.2c-0.3,0-0.8-0.1-1.5-0.1c-3-0.2-6.1-0.6-9.1-1.1c-6.7-1.2-8.4-3.3-8.6-3.5
		c-0.3-0.4-0.3-0.9,0-1.2l9.1-13c0.2-0.3,0.6-0.5,1-0.4c2.3,0.3,6.8,4.3,8.6,7.5c1.6,3.1,3.3,7.2,3.4,7.3c0.1,0.3,0.1,0.6,0,0.9
		l-1.7,3.2C35.5,103.8,35.1,104,34.7,103.9z M17.6,98.2c0.9,0.6,2.8,1.6,6.8,2.3c2.9,0.6,5.9,0.9,8.8,1.1l1,0.1l1.1-2.1
		c-0.5-1.2-1.8-4.3-3.1-6.7c-1.6-2.6-3.8-4.8-6.4-6.3L17.6,98.2z"/>
	<path class="st0" d="M34.8,102.8l70,49.9c0,0,12.6,6,11.4,4.3s-8.3-7.7-9-8.2L36.5,99.7L34.8,102.8z"/>
	<path class="st1" d="M116.1,157.8c-0.9,0-3.4-0.8-11.5-4.6l-70.1-50c-0.2-0.1-0.3-0.4-0.2-0.6l1.7-3.2c0.1-0.2,0.4-0.3,0.7-0.2l0,0
		l70.7,49.1c0.7,0.5,7.9,6.5,9.2,8.4c0.2,0.2,0.2,0.6,0,0.9C116.4,157.7,116.2,157.8,116.1,157.8z M35.4,102.7l69.6,49.7
		c3.3,1.6,6.7,3,10.1,4.3c-2.7-2.6-5.4-5.1-8.4-7.5c-0.8-0.5-63.6-44.2-70.2-48.8L35.4,102.7z"/>
	<path class="st3" d="M95.5,146.2l9.3,6.6c0,0,12.6,6,11.4,4.3s-8.3-7.7-9-8.2l-9.1-6.3L95.5,146.2z"/>
	<path class="st1" d="M116.1,157.8c-0.9,0-3.4-0.8-11.5-4.6l-9.3-6.6c-0.2-0.2-0.3-0.5-0.1-0.7l2.6-3.6c0.2-0.2,0.5-0.3,0.7-0.1
		l9.1,6.3c0.7,0.5,7.9,6.5,9.2,8.4c0.2,0.2,0.2,0.6,0,0.9C116.4,157.7,116.2,157.8,116.1,157.8z M96.2,146l8.9,6.3
		c3.3,1.6,6.7,3,10.1,4.3c-2.7-2.6-5.4-5.1-8.4-7.5l-8.6-6L96.2,146z"/>
	<path class="st0" d="M82.3,137.4c0.3,1.5,1.3,2.9,2.6,3.8c1.2,0.9,2.8,0.8,4-0.1L82.3,137.4z"/>
	<path class="st1" d="M86.8,142.2c-0.8,0-1.6-0.2-2.2-0.7c-1.4-0.9-2.4-2.4-2.8-4.1c0-0.2,0.1-0.4,0.2-0.5c0.2-0.1,0.4-0.1,0.5,0
		l6.5,3.7c0.1,0.1,0.2,0.2,0.2,0.4s0,0.3-0.2,0.4C88.5,142,87.7,142.3,86.8,142.2z M83.2,138.5c0.4,0.9,1.1,1.7,2,2.3
		c0.8,0.6,1.8,0.7,2.7,0.3L83.2,138.5z"/>
	<path class="st0" d="M86.9,120.9l9.6-31.8c-2.1-0.8-4.9-1.8-6.8-2.3c-1.9-0.6-3.6-1.7-5-3.1c-1.2,4.1-4.1,14.5-4.2,16.5
		c-0.1,2.6,0.2,22.3,0.2,22.3s-1.5,3.6-1.2,4.5c0.4,0.8,0.9,1.6,1.5,2.3c-0.1,1.2-0.3,2.5-0.6,3.7c-0.4,1.3-0.2,3.7,0.9,3
		c1.2-0.9,2.4-1.9,3.4-2.9l6.2,4.4c0,0-1.7-7.7-2.1-10.1C88.4,125.2,87.7,123,86.9,120.9z"/>
	<path class="st1" d="M91.1,138c-0.1,0-0.2,0-0.3-0.1l-5.9-4.2c-1,1-2.1,1.9-3.2,2.7c-0.4,0.3-0.9,0.2-1.3,0
		c-0.8-0.6-0.8-2.5-0.4-3.5c0.3-1.1,0.5-2.2,0.5-3.3c-0.6-0.7-1.1-1.5-1.5-2.3c-0.3-1,0.8-3.8,1.2-4.8c0-1.7-0.3-19.8-0.2-22.3
		c0.1-2.1,3-12.3,4.3-16.6c0.1-0.3,0.4-0.4,0.6-0.3c0.1,0,0.1,0.1,0.2,0.1c1.3,1.3,3,2.4,4.8,3c1.9,0.6,4.8,1.6,6.8,2.3
		c0.2,0.1,0.4,0.4,0.3,0.6l-9.6,31.6c0.8,2.1,1.5,4.3,2,6.5c0.4,2.4,2.1,10,2.1,10.1c0,0.2,0,0.4-0.2,0.5
		C91.3,138,91.2,138,91.1,138z M84.9,132.6c0.1,0,0.2,0,0.3,0.1l5.1,3.7c-0.5-2.3-1.6-7-1.9-8.8c-0.5-2.2-1.2-4.4-2-6.5
		c0-0.1,0-0.2,0-0.3l9.5-31.3c-2-0.7-4.6-1.6-6.3-2.1c-1.7-0.6-3.2-1.5-4.6-2.6c-2.4,8.5-3.9,14.3-4,15.6
		c-0.1,2.5,0.2,22.1,0.2,22.3c0,0.1,0,0.1,0,0.2c-0.7,1.7-1.3,3.7-1.2,4.2c0.4,0.8,0.8,1.5,1.4,2.1c0.1,0.1,0.1,0.2,0.1,0.4
		c-0.1,1.3-0.3,2.6-0.6,3.8c-0.3,0.8-0.3,1.7,0.1,2.5h0.1c1.2-0.9,2.3-1.8,3.4-2.9C84.7,132.7,84.8,132.6,84.9,132.6z"/>
	<path class="st0" d="M18.6,92.3c0,0,0.9,5.4,1.9,5.7s3.5,1.6,3.2-0.2L23.4,96c0,0,1.8-3.8,1.1-5.5c-0.5-1.1-1.3-2-2.3-2.7"/>
	<path class="st1" d="M22.9,99.2c-0.8-0.1-1.5-0.3-2.2-0.6l-0.4-0.2c-1-0.4-1.7-3.5-2.2-6.1c0-0.3,0.1-0.5,0.4-0.6
		c0.3,0,0.5,0.1,0.6,0.4l0,0c0.4,2.3,1.1,5,1.6,5.3l0.4,0.2c1.5,0.6,1.9,0.6,2,0.5l0,0c0,0,0-0.1,0-0.3L22.8,96c0-0.1,0-0.2,0-0.3
		c0.7-1.4,1.6-4,1.1-5s-1.2-1.8-2.1-2.5c-0.2-0.2-0.3-0.5-0.1-0.7c0.1-0.2,0.4-0.3,0.7-0.1l0,0c1.1,0.7,1.9,1.7,2.5,2.9
		c0.7,1.7-0.7,4.9-1,5.7l0.3,1.6c0.1,0.5,0,1-0.4,1.3C23.4,99.2,23.2,99.3,22.9,99.2z"/>
</g>
</svg>
