<?xml version="1.0" encoding="utf-8"?>
<!-- Generator: Adobe Illustrator 24.3.0, SVG Export Plug-In . SVG Version: 6.00 Build 0)  -->
<svg version="1.1" id="Layer_1" xmlns="http://www.w3.org/2000/svg" xmlns:xlink="http://www.w3.org/1999/xlink" x="0px" y="0px"
	 viewBox="0 0 281 204" style="enable-background:new 0 0 281 204;" xml:space="preserve">
<style type="text/css">
	.st0{fill:#263238;}
	.st1{fill:#FFFFFF;}
	.st2{fill:#007A70;}
</style>
<g id="freepik--character-3--inject-4">
	<path class="st0" d="M31.5,97.3l-4.4,46.3c0,0-2.5,7.1-2.5,7.5s-2.8,29.2-2.8,29.2s-2.5,1.4-2.2,2.3c0.3,0.9,1.5,6.1,1.5,6.1
		s-2.7,7.8-2.7,8.4c0,0.6,5.3,0.9,6.9,0.8c1.5-0.2,3.9,0.4,4.6-1.7c0.6-2.3,1.1-4.6,1.4-7.1l5-6.7l-1.5-7.3l7.5-39.5l6.7-16.4
		l4.4,0.2L55,156c0,0-3.6,21.5-2.3,23.8c1.3,2.2,2.3,8.1,2.3,8.1v4.6c0,0-0.3,2.2,0.8,3.1c1.1,0.9,10.8,0.8,11.7,0.9
		s6.1,0.9,7.3,0.6s4-1.7,3.4-3s-5.9-3.6-7.3-4.8s-3.3-5-3.3-5s0.9-7.1,1.1-8.3c0.2-1.1-0.2-5.2-0.2-7.1c0-1.9,4.2-24.4,4.2-26.9
		s-0.6-33.7-0.6-33.7L31.5,97.3z"/>
	<path class="st0" d="M24.4,198.4c-1.9,0-5.3-0.2-6-0.8c-0.1-0.1-0.2-0.3-0.2-0.4c0-0.6,2-6.5,2.7-8.4c-0.2-0.8-1.3-5.1-1.5-5.9
		c-0.3-1.1,1.4-2.2,2.2-2.8c0.9-9.9,2.8-28.4,2.8-28.9s1.5-4.9,2.5-7.6l4.4-46.2c0-0.1,0.1-0.3,0.2-0.3c0.1-0.1,0.3-0.1,0.3-0.1
		l40.7,11.2c0.2,0.1,0.3,0.2,0.3,0.4c0,0.3,0.6,31.2,0.6,33.7c0,1.4-1.2,8.4-2.3,15.1c-0.9,5.4-1.9,10.9-1.9,11.8
		c0,0.9,0,1.7,0.1,2.8c0.1,1.4,0.1,2.8,0.1,4.2c-0.2,1-0.9,7.1-1,8.2c0.3,0.6,1.9,3.7,3.1,4.7c0.9,0.7,2,1.4,3.1,1.9
		c2.4,1.3,4,2.2,4.3,3c0.2,0.3,0.2,0.8,0,1.1c-0.5,1.2-2.7,2.2-3.7,2.4c-1.5,0.3-7.5-0.6-7.5-0.6c-0.3,0-1.2-0.1-2.4-0.1
		c-5.6-0.1-8.8-0.3-9.6-0.9c-1.3-1-0.9-3.4-0.9-3.5v-4.6l0,0c0,0-1.1-5.9-2.3-7.9c-1.3-2.2,1.9-21.5,2.2-24l-1.5-36.1l-3.7-0.2
		L43,135.7L35.5,175l1.5,7.2c0,0.1,0,0.3-0.1,0.3l-4.9,6.6c-0.3,2.4-0.8,4.7-1.4,7c-0.7,2-2.6,2-4,2c-0.3,0-0.8,0-1,0
		S24.8,198.4,24.4,198.4z M18.9,197c2.1,0.4,4.2,0.6,6.4,0.5c0.3,0,0.8,0,1.1,0c1.6,0,2.7-0.1,3.2-1.4c0.6-2.2,1.1-4.6,1.4-7
		c0-0.1,0-0.2,0.1-0.2l4.9-6.5l-1.5-7.1c0-0.1,0-0.1,0-0.2l7.5-39.5v-0.1l6.7-16.4c0.1-0.2,0.3-0.3,0.4-0.3l4.4,0.2
		c0.3,0,0.4,0.2,0.4,0.4l1.6,36.5v0.1c-1.4,8.3-3.3,22-2.4,23.4c1.3,2.2,2.3,8,2.4,8.3v4.7c-0.1,0.6-0.1,2.2,0.6,2.8s6.5,0.7,9,0.8
		c1.5,0,2.2,0,2.5,0.1c1.8,0.3,6.1,0.9,7.1,0.6c1-0.3,2.8-1.1,3.1-2c0.1-0.1,0.1-0.3,0-0.4c-0.3-0.6-2.3-1.7-4-2.7
		c-1.1-0.6-2.2-1.3-3.3-2.1c-1.5-1.3-3.3-5-3.4-5.2c-0.1-0.1-0.1-0.2,0-0.3c0,0,0.9-7.1,1.1-8.3c0.1-1.4,0-2.7-0.1-4
		c0-1.1-0.1-2.2-0.1-2.9c0-0.9,0.9-6,1.9-12c1.1-6.4,2.3-13.6,2.3-14.9c0-2.3-0.5-30-0.6-33.4L31.7,97.6l-4.4,45.8v0.1
		c-0.9,2.6-2.4,6.9-2.5,7.4s-2.5,26.3-2.8,29.2c0,0.2-0.1,0.3-0.2,0.3c-1.1,0.6-2.1,1.5-2,1.8c0.3,0.9,1.5,5.9,1.5,6.1
		c0,0.1,0,0.2,0,0.3C20.7,191.6,19.2,196.1,18.9,197L18.9,197z M27.1,143.6L27.1,143.6z"/>
	<path class="st1" d="M21.2,188.8c0,0-2.7,7.8-2.7,8.4s5.3,0.9,6.9,0.8c1.5-0.2,3.9,0.4,4.6-1.7c0.6-2.3,1.1-4.6,1.4-7.1
		c0,0-5.9-2.2-7.4-2.2C22.5,186.9,21.2,188.8,21.2,188.8z"/>
	<path class="st0" d="M24.4,198.4c-1.9,0-5.3-0.2-6-0.8c-0.1-0.1-0.2-0.3-0.2-0.4c0-0.7,2.1-6.7,2.7-8.6c0,0,0-0.1,0.1-0.1
		c0.1-0.1,1.5-2,3.3-2l0,0c1.6,0,7,2.1,7.6,2.3c0.2,0.1,0.3,0.3,0.3,0.4c-0.3,2.4-0.8,4.8-1.5,7.1c-0.7,2-2.6,2-4,2
		c-0.3,0-0.8,0-1,0S24.8,198.4,24.4,198.4z M18.9,197c2.1,0.4,4.2,0.6,6.4,0.5c0.3,0,0.8,0,1.1,0c1.6,0,2.7-0.1,3.2-1.4
		c0.6-2.2,1-4.4,1.4-6.6c-1.8-0.7-5.8-2.2-7-2.2s-2.3,1.3-2.5,1.5C20.7,191.7,19.2,196.1,18.9,197L18.9,197z"/>
	<path class="st1" d="M74.9,197.2c1.3-0.3,4-1.7,3.4-3s-5.9-3.6-7.3-4.8c-0.5-0.5-1-1.1-1.5-1.8l-0.9,0.3c0,0-9,1.8-11.6,2l-2,0.2
		v2.5c0,0-0.3,2.2,0.8,3.1s10.8,0.8,11.7,0.9C68.5,196.8,73.6,197.5,74.9,197.2z"/>
	<path class="st0" d="M73.9,197.7c-2.2-0.1-4.4-0.3-6.5-0.7c-0.3,0-1.2-0.1-2.4-0.1c-5.6-0.1-8.8-0.3-9.6-0.9
		c-1.3-1-0.9-3.4-0.9-3.5V190c0-0.3,0.2-0.4,0.4-0.4l2-0.2c2.5-0.2,11.4-2,11.5-2l0.8-0.3c0.2-0.1,0.4,0,0.5,0.2
		c0.4,0.6,0.9,1.2,1.4,1.7c0.9,0.7,2,1.4,3.1,1.9c2.4,1.3,4,2.2,4.3,3c0.2,0.3,0.2,0.8,0,1.1c-0.5,1.2-2.7,2.2-3.7,2.4l0,0
		C74.6,197.6,74.3,197.7,73.9,197.7z M74.9,197.2L74.9,197.2z M55.5,190.5v2.1c-0.1,0.6-0.1,2.2,0.6,2.8s6.5,0.7,9,0.8
		c1.5,0,2.2,0,2.5,0.1c1.8,0.3,6.1,0.9,7.1,0.6c1-0.3,2.8-1.1,3.1-2c0.1-0.1,0.1-0.3,0-0.4c-0.3-0.6-2.3-1.7-4-2.7
		c-1.1-0.6-2.2-1.3-3.3-2.1c-0.5-0.5-0.9-1-1.3-1.6l-0.5,0.3c-0.4,0.1-9.2,1.8-11.7,2L55.5,190.5z"/>
	<path class="st1" d="M81.7,27.8c-1.3,0.7-2.6,1.5-3.9,2.2c-1,0.8-9,1.3-14.1,1.3s-12.1,6-13.4,9.2S31.5,97.3,31.5,97.3L71.4,110
		l11.4-35.9l1.6-2.9l0.1,8.8c0,0,7.4,1.3,8.6,1c1-0.2,2.2-0.3,3.2-0.3l1.6-17.3c-0.3-3.9-1-7.7-2-11.5c-1.1-3.8-2.6-7.4-4.4-10.9
		l-3.6-6.9l1-6.9C89.1,27.2,84.6,25.5,81.7,27.8z"/>
	<path class="st0" d="M71.4,110.4L71.4,110.4l-40-12.7c-0.1,0-0.2-0.1-0.3-0.2c-0.1-0.1-0.1-0.3,0-0.3c0.7-2.2,17.5-53.6,18.8-56.8
		s8.4-9.5,13.9-9.5c5.4,0,12.9-0.6,13.9-1.2c1.3-0.9,2.6-1.6,3.9-2.2c3.1-2.3,7.7-0.8,7.8-0.7c0.2,0.1,0.3,0.3,0.3,0.5l-1.1,6.8
		l3.5,6.8c1.9,3.5,3.4,7.1,4.4,11c1,3.8,1.6,7.7,2,11.6L96.8,81c0,0.3-0.2,0.4-0.4,0.4c-1,0-2.1,0.1-3.1,0.3c-1.2,0.3-8-0.9-8.8-1
		c-0.2,0-0.3-0.2-0.3-0.4l-0.1-7.1l-0.8,1.5l-11.4,35.6C71.8,110.3,71.6,110.4,71.4,110.4z M32.1,97.1l39.1,12.4L82.5,74l1.6-3
		c0.1-0.2,0.3-0.3,0.5-0.2c0.2,0.1,0.3,0.3,0.3,0.4l0.1,8.4c2.8,0.5,7.3,1.2,8.1,1c0.9-0.2,1.9-0.3,2.9-0.3l1.5-16.9l0,0
		c-0.3-3.9-1-7.7-2-11.4c-1-3.8-2.5-7.4-4.3-10.8l-3.6-6.9c0-0.1,0-0.2,0-0.3l1-6.5c-1-0.3-4.5-1-6.7,0.7h-0.1
		c-1.3,0.7-2.6,1.4-3.8,2.2c-1.3,0.9-9.9,1.4-14.4,1.4c-5,0-11.8,6-13,9S33.7,92.1,32.1,97.1L32.1,97.1z M81.7,27.8L81.7,27.8z"/>
	<path class="st0" d="M81.2,42.8c-0.5,0-0.9,0-1.4-0.1c-4.9-0.9-7.1-9.7-7.5-11.5c0-0.1,0-0.3,0.1-0.3c0.1-0.1,0.2-0.2,0.3-0.2
		c4.1-0.3,4.8-0.8,4.9-0.9c1.3-0.9,2.6-1.6,3.9-2.3c3-2.3,7.6-0.8,7.7-0.7c0.2,0.1,0.3,0.3,0.3,0.5l-1,6.8l2.3,4.4
		c0.1,0.2,0.1,0.4-0.1,0.5C89,40.2,85,42.8,81.2,42.8z M73.2,31.4c0.5,2.2,2.7,9.6,6.7,10.3c3.8,0.7,8.3-2.1,10-3.3l-2.2-4.2
		c0-0.1,0-0.2,0-0.3l1-6.5c-1-0.3-4.5-1-6.7,0.7c-0.1,0.1-2.8,1.5-3.9,2.2C77.9,30.5,77.3,31,73.2,31.4z"/>
	<path class="st0" d="M104.4,26.2c0,0,2-0.4,2.2-1.9s0.3-5.7-5.9-10.1s-10.1-4.8-15.4-1s-5.2,11.7-4.9,12.9c0.3,1.2,0.4,2,1.3,1.7
		c1-0.5,2.1-1.1,2.9-1.9c3,2.3,6.6,3.6,10.3,3.7C101.5,29.9,104.4,26.2,104.4,26.2z"/>
	<path class="st0" d="M95.6,30.1h-0.7c-3.7-0.1-7.3-1.4-10.3-3.6c-0.9,0.7-1.8,1.3-2.8,1.7c-0.3,0.1-0.7,0.1-0.9-0.1
		c-0.5-0.3-0.7-0.9-0.9-1.8v-0.2c-0.3-1-0.5-9.4,5.1-13.3c5.4-3.8,9.6-3.5,15.9,1c3,2.2,6.5,5.7,6,10.5c-0.2,1.5-1.8,2.1-2.3,2.2
		C104.1,27.3,101.2,30.1,95.6,30.1z M84.6,25.5c0.1,0,0.2,0,0.3,0.1c2.9,2.2,6.5,3.5,10.1,3.6c6.2,0.3,9-3.3,9-3.3
		c0.1-0.1,0.2-0.2,0.3-0.2c0,0,1.7-0.3,1.8-1.5c0.4-4.4-2.8-7.7-5.7-9.7c-6-4.4-9.8-4.6-14.9-1s-5,11.4-4.7,12.5v0.2
		c0.1,0.6,0.3,1.2,0.4,1.3c0.1,0,0.2,0,0.3,0c1-0.4,1.9-1,2.8-1.8C84.4,25.5,84.4,25.5,84.6,25.5L84.6,25.5z"/>
	<path class="st1" d="M104.4,26.2c0,0-2,7.3-2.9,7.7s-1.6,0.1-2.2,0.5c-0.5,0.4-1.2,4.6-1.6,4.9C96.8,39.6,96,39.8,95,40
		c0,0-3.6,1.7-3.7,2.2s0,1.6-0.8,1.7c-2.9,0.5-6.5-3.2-7.8-5.6c-0.9-1.7,1-7.8,1-7.8s-1.9-4.1-1-6.6s3-3.4,4-2.4
		c0.9,1,1.3,4.2,1.3,4.2l1,1.3l2.5-0.7c0,0,3.7,1.3,6.5,0.8C100.9,26.7,104.4,26.2,104.4,26.2z"/>
	<path class="st0" d="M90,44.5c-3.2,0-6.5-3.8-7.7-5.9c-0.9-1.7,0.6-6.9,0.9-8c-0.3-0.8-1.7-4.4-1-6.8c0.3-1.5,1.5-2.7,2.9-3.1
		c0.7-0.2,1.4,0,1.8,0.5c0.9,1,1.3,3.7,1.4,4.4l0.8,1l2.2-0.6c0.1,0,0.2,0,0.3,0c0,0,3.6,1.3,6.3,0.8c2.8-0.5,6.2-1,6.3-1
		c0.2,0,0.3,0,0.4,0.2c0.1,0.1,0.2,0.3,0.1,0.4c-0.8,2.8-2.2,7.6-3.2,8c-0.4,0.2-0.9,0.3-1.3,0.3c-0.3,0-0.5,0.1-0.7,0.2
		c-0.3,0.8-0.6,1.6-0.8,2.5c-0.4,1.8-0.6,2.2-0.9,2.4c-0.9,0.3-1.8,0.6-2.8,0.7c-1.2,0.5-2.4,1.2-3.4,2c0,0.1,0,0.2,0,0.3
		c-0.1,0.6-0.2,1.5-1.1,1.6C90.5,44.5,90.2,44.5,90,44.5z M85.7,21.6c-0.1,0-0.2,0-0.3,0c-1.1,0.3-2,1.3-2.2,2.5
		c-0.8,2.3,1,6.3,1,6.4c0,0.1,0,0.2,0,0.3c-0.8,2.3-1.7,6.4-1.1,7.5c1.3,2.5,4.8,5.8,7.4,5.3c0.3,0,0.3-0.3,0.3-0.9
		c0-0.2,0-0.3,0.1-0.5c0-0.2,0.2-0.8,4-2.6H95c0.9-0.1,1.7-0.3,2.5-0.6c0.1-0.2,0.3-1.2,0.5-2c0.4-1.8,0.7-2.7,1-2.9
		s0.8-0.3,1.2-0.3c0.3,0,0.7-0.1,1-0.3c0.4-0.3,1.6-3.6,2.5-6.8c-1.1,0.2-3.5,0.6-5.6,0.9c-2.6,0.5-5.9-0.5-6.6-0.8l-2.4,0.6
		c-0.2,0.1-0.3,0-0.4-0.2l-1-1.3c-0.1-0.1-0.1-0.2-0.1-0.2c-0.1-0.9-0.5-3.3-1.2-4C86.2,21.7,86,21.6,85.7,21.6L85.7,21.6z"/>
	<path class="st0" d="M83.8,30.6l-1.3,5.6c-0.2,0.8-0.1,1.5,0.2,2.2c1.3,2.4,4.9,6,7.8,5.6c0.8-0.2,0.7-1.2,0.8-1.7
		c0.1-0.5,3.7-2.2,3.7-2.2l0.8-0.2l-0.3-0.8c-0.8-1-1.9-1.7-3.2-1.9c-1.9-0.3-3.7-0.9-5.4-1.6l2.2-8.5l-1-1.3L85.9,29L83.8,30.6z"/>
	<path class="st0" d="M90,44.5c-3.2,0-6.5-3.8-7.7-5.9C82,37.8,81.9,37,82,36.1l1.3-5.7c0-0.1,0.1-0.2,0.2-0.3l2.1-1.5l2.1-3.1
		c0.2-0.2,0.4-0.3,0.6-0.1l0.1,0.1l1,1.4c0.1,0.1,0.1,0.3,0.1,0.3l-2.1,8.2c1.6,0.7,3.3,1.1,5,1.4c1.4,0.2,2.7,0.9,3.5,2.1
		c0,0,0,0.1,0.1,0.1l0.3,0.8c0,0.1,0,0.3,0,0.3c-0.1,0.1-0.2,0.2-0.3,0.2l-0.8,0.2c-1.2,0.5-2.4,1.2-3.4,2c0,0.1,0,0.2,0,0.3
		c-0.1,0.6-0.2,1.5-1.1,1.6C90.5,44.5,90.2,44.6,90,44.5z M84.2,30.9L83,36.3c-0.2,0.7-0.1,1.4,0.1,2c1.3,2.5,4.8,5.8,7.4,5.3
		c0.3,0,0.3-0.3,0.3-0.9c0-0.2,0-0.3,0.1-0.5c0-0.2,0.2-0.8,4-2.6H95l0.3-0.1l-0.1-0.3c-0.7-0.9-1.7-1.5-2.8-1.6
		c-1.9-0.3-3.8-0.9-5.6-1.6c-0.2-0.1-0.3-0.3-0.3-0.5l2.1-8.3l-0.5-0.7l-1.8,2.7l-0.1,0.1L84.2,30.9z"/>
	<path class="st0" d="M98.3,33.7c-0.2,0-0.3-0.1-0.3-0.2c-0.6-0.7-1.5-1-2.5-1c-0.3,0-0.4-0.2-0.4-0.4s0.2-0.4,0.4-0.4
		c1.2,0,2.3,0.4,3.1,1.4c0.2,0.2,0.1,0.4-0.1,0.6C98.5,33.6,98.4,33.7,98.3,33.7z"/>
	<path class="st0" d="M96.6,36c-1,0-2-0.5-2.5-1.5c-0.1-0.2,0-0.4,0.2-0.6c0.2-0.1,0.4,0,0.6,0.2c0,0,0,0,0,0.1
		c0.3,0.5,0.9,0.9,1.5,0.9l0.5-0.9c0.1-0.2,0.3-0.3,0.6-0.2l0,0c0.2,0.1,0.3,0.3,0.2,0.6l0,0L97,35.7C96.8,35.9,96.8,36,96.6,36z"/>
	<path class="st1" d="M91.1,40.1c-0.1,0-0.1,0-0.2,0c-1-0.4-1.6-1.5-1.6-2.5c0-0.3,0.2-0.4,0.4-0.4c0.3,0,0.4,0.2,0.4,0.4
		c0,0.8,0.4,1.4,1,1.7c0.3,0.1,0.3,0.3,0.3,0.5l0,0C91.4,40,91.2,40.1,91.1,40.1z"/>
	<path class="st1" d="M84.4,71.2c0,0,5.2-7.4,6-11.3"/>
	<path class="st0" d="M84.4,71.6c-0.1,0-0.2,0-0.3-0.1c-0.2-0.2-0.3-0.4-0.1-0.6c0.1-0.1,5.2-7.4,5.9-11.2c0.1-0.3,0.3-0.4,0.5-0.3
		s0.4,0.3,0.3,0.5c-0.8,3.9-5.9,11.2-6,11.4C84.8,71.5,84.6,71.6,84.4,71.6z"/>
	<path class="st1" d="M85.8,80.5c0,0-0.8,9.8-0.8,17.8c-0.1,5.3-0.9,10.5-2.3,15.6l-0.9,2.2c0,0,1.4,6.3,1.4,8.9
		c-0.1,2.1-0.3,4.2-0.8,6.2c0,0,4-6.9,4.4-9.4c0.3-2.5,0.9-8.4,0.9-8.4S95,89.2,95,87.7v-6.9C95,80.9,87.4,80.5,85.8,80.5z"/>
	<path class="st0" d="M82.4,131.8c-0.1,0-0.1,0-0.2,0c-0.2-0.1-0.3-0.3-0.3-0.5c0.4-2.1,0.7-4,0.8-6.1c0-2.6-1.4-8.7-1.4-8.8
		c0-0.1,0-0.2,0-0.3l0.9-2.2c1.5-5,2.2-10.2,2.3-15.4c0-7.9,0.8-17.7,0.8-17.8c0-0.2,0.2-0.3,0.4-0.4c1.5-0.2,9,0.3,9.3,0.3
		s0.4,0.2,0.4,0.4v6.9c0,1.5-6.6,23.4-7.3,25.9l0,0c0,0-0.6,5.9-0.9,8.4s-4.3,9.2-4.4,9.6C82.6,131.7,82.5,131.8,82.4,131.8z
		 M82.2,116.3c0.2,0.9,1.4,6.4,1.4,8.9c0,1.3-0.2,2.6-0.3,3.8c1.2-2.2,2.9-5.5,3.1-7c0.3-2.5,0.9-8.4,0.9-8.4
		c2.9-9.8,7.3-24.6,7.3-25.7v-6.5c-1.5-0.1-6.6-0.3-8.4-0.3C86,83,85.4,91.5,85.4,98.5c-0.1,5.3-0.9,10.6-2.4,15.7L82.2,116.3z"/>
	<path class="st2" d="M78.6,136.7c-0.3,0-0.5-0.1-0.8-0.3c-0.8-0.4-1-1.4-0.6-2.2l0,0c5.4-9.2,2.2-21.1-7-26.5s-21.1-2.2-26.5,7
		c-2.4,4-3.2,8.9-2.2,13.5c0.2,0.9-0.4,1.7-1.3,1.8c-0.9,0.2-1.6-0.4-1.8-1.2c-0.3-1.5-0.4-2.9-0.4-4.4c0-12.5,10.1-22.6,22.6-22.6
		s22.6,10.1,22.6,22.6c0,4-1,7.9-3.1,11.4C79.7,136.3,79.2,136.7,78.6,136.7z"/>
	<path class="st0" d="M78.6,137.1c-0.3,0-0.7-0.1-1-0.3c-0.9-0.5-1.3-1.8-0.7-2.8l0,0c5.3-9,2.2-20.7-7-25.8c-9-5.3-20.7-2.2-25.8,7
		c-1.6,2.8-2.5,6-2.5,9.3c0,1.2,0.1,2.5,0.3,3.7c0.2,1.1-0.5,2.2-1.5,2.3c-0.5,0.1-1,0-1.5-0.3c-0.4-0.3-0.8-0.8-0.9-1.3
		c-0.3-1.5-0.4-2.9-0.4-4.5c0-12.7,10.3-23,23-23s23,10.3,23,23c0,4-1.1,8.1-3.2,11.6C80,136.7,79.4,137.1,78.6,137.1z M60.5,104.6
		c10.9,0,19.8,8.9,19.8,19.9c0,3.5-0.9,7-2.8,10c-0.3,0.5-0.2,1.3,0.4,1.5c0.5,0.3,1.2,0.1,1.5-0.4c6.2-10.6,2.6-24.1-7.9-30.3
		c-10.6-6.2-24.1-2.6-30.3,7.9c-2.8,4.6-3.6,10.2-2.6,15.4c0.1,0.3,0.3,0.6,0.5,0.8c0.3,0.2,0.6,0.3,0.9,0.2s0.6-0.3,0.8-0.5
		c0.2-0.3,0.3-0.6,0.2-0.9c-0.3-1.3-0.3-2.6-0.3-3.9C40.7,113.5,49.6,104.6,60.5,104.6z"/>
	<path class="st2" d="M57,107.7l-23.1,18.2c-1.1,0.9-1.3,2.4-0.4,3.5L52,153.2c0.9,1,2.3,1.3,3.4,0.5l24-17.6
		c1.1-0.9,1.4-2.4,0.5-3.5c0,0,0-0.1-0.1-0.1l-19.5-24.4C59.6,107.1,58.1,106.9,57,107.7z"/>
	<path class="st0" d="M54,154.7c-0.9,0-1.8-0.4-2.3-1.1l-18.5-23.9c-1-1.3-0.8-3.1,0.5-4.1l23.1-18.2c1.3-1,3.1-0.8,4.1,0.4
		l19.5,24.4c1,1.3,0.8,3.1-0.4,4.1l-0.1,0.1l-24,17.6C55.2,154.5,54.6,154.7,54,154.7z M58.5,107.6c-0.4,0-0.9,0.2-1.3,0.4l0,0
		l-23.1,18.2c-0.9,0.7-1,2-0.3,2.9L52.3,153c0.7,0.9,2,1,2.8,0.4l24-17.6c0.9-0.7,1.1-2,0.4-2.9c0,0,0-0.1-0.1-0.1l-19.5-24.4
		C59.7,107.9,59.1,107.6,58.5,107.6z M57,107.7L57,107.7z"/>
	<path class="st1" d="M61.9,32.3c0,0-5.9-0.5-9.6,2.9S41.8,57.7,41.8,57.7l12.8,5.5l5.8-9.6"/>
	<path class="st0" d="M54.6,63.7c-0.1,0-0.1,0-0.2,0l-12.8-5.4c-0.2-0.1-0.3-0.3-0.3-0.5c0.3-0.8,6.8-19.2,10.6-22.6
		c3.8-3.4,9.7-3.1,10-3.1s0.4,0.3,0.4,0.4c0,0.3-0.3,0.4-0.4,0.4s-5.8-0.4-9.4,2.8c-3.4,3-9.2,19.2-10.2,22l12.1,5.2l5.6-9.4
		c0.1-0.2,0.4-0.3,0.6-0.2s0.3,0.3,0.2,0.6L55,63.5C54.8,63.6,54.7,63.7,54.6,63.7z"/>
	<path class="st1" d="M41.7,57.7l-3.1,14.6l20.5,25.5l1.4,3.6c0,0,3.3,3.9,3.4,4.4s2.2,1.5,3.9,1.5c1.1,0,2.3-0.2,3.4-0.4
		c0,0,0.9,2.3,1.9,1.3s0.9-3.9,0.6-5.8s0.4-3.9-1.4-5.6c-1.8-1.5-3.9-2.7-6.1-3.4c-1.1-0.3-15.9-23.6-15.9-23.6l3-7.5L41.7,57.7z"/>
	<path class="st0" d="M72.6,109h-0.2c-0.7-0.1-1.2-0.9-1.5-1.5c-1,0.3-2.2,0.3-3.2,0.4c-1.7,0-4-1.1-4.3-1.9
		c-0.2-0.3-1.8-2.4-3.4-4.2l-0.1-0.1l-1.4-3.5L38.1,72.7C38,72.6,38,72.4,38,72.4l3.1-14.6c0-0.1,0.1-0.3,0.2-0.3
		c0.1-0.1,0.3-0.1,0.3,0l11.5,4.6c0.1,0,0.2,0.1,0.3,0.3c0,0.1,0,0.3,0,0.3L50.5,70c5.6,8.7,14.6,22.6,15.6,23.2
		c2.2,0.8,4.4,2,6.2,3.5c1.5,1.4,1.5,2.9,1.5,4.3c0,0.5,0,1,0.1,1.6c0.3,1.5,0.4,4.8-0.7,6.1C73.2,108.8,73,109,72.6,109z
		 M71.3,106.5c0.2,0,0.3,0.1,0.4,0.3c0.3,0.6,0.7,1.2,0.9,1.3c0.1,0,0.2-0.1,0.2-0.2c0.8-0.9,0.9-3.4,0.5-5.4
		c-0.1-0.6-0.1-1.1-0.1-1.7c0-1.3,0-2.6-1.2-3.6c-1.7-1.5-3.8-2.6-5.9-3.4C65,93.5,54.4,77.1,49.9,70c-0.1-0.1-0.1-0.3,0-0.4
		l2.8-7.1L42,58.3l-3,13.9l20.3,25.3l0.1,0.1l1.4,3.5c1.2,1.4,2.4,2.9,3.4,4.5c1,0.8,2.2,1.2,3.4,1.3c1.1,0,2.2-0.2,3.4-0.4
		L71.3,106.5z"/>
	<path class="st0" d="M119.9,188.6c-0.2,0-0.3-0.1-0.3-0.3c-0.2-0.5-0.3-1.1-0.5-1.6c0-0.2,0.1-0.3,0.3-0.3s0.3,0,0.3,0.2
		c0.2,0.5,0.3,1.1,0.6,1.6c0.1,0.2-0.1,0.3-0.2,0.4C119.9,188.6,119.9,188.6,119.9,188.6z M118.7,185.4c-0.2,0-0.3-0.1-0.3-0.2
		c-0.2-0.5-0.4-1-0.7-1.5c-0.1-0.2,0-0.3,0.2-0.4l0,0c0.2-0.1,0.3,0,0.4,0.2l0.7,1.6c0.1,0.2,0,0.3-0.2,0.4l0,0L118.7,185.4z
		 M117.3,182.2c-0.1,0-0.3-0.1-0.3-0.2c-0.3-0.5-0.5-1-0.8-1.5c-0.1-0.2,0-0.3,0.2-0.4c0.2-0.1,0.3,0,0.4,0.1l0,0
		c0.3,0.5,0.5,1,0.8,1.5c0.1,0.2,0,0.3-0.2,0.4C117.4,182.2,117.4,182.2,117.3,182.2L117.3,182.2z M115.7,179.2
		c-0.1,0-0.3-0.1-0.3-0.2c-0.3-0.5-0.6-0.9-0.9-1.5c-0.1-0.2-0.1-0.3,0.1-0.4l0,0c0.2-0.1,0.3-0.1,0.4,0.1l0,0
		c0.3,0.5,0.6,0.9,0.9,1.5c0.1,0.2,0.1,0.3-0.1,0.4l0,0C115.9,179.1,115.8,179.2,115.7,179.2L115.7,179.2z M113.9,176.3
		c-0.1,0-0.2-0.1-0.3-0.2c-0.3-0.5-0.7-0.9-0.9-1.4c-0.1-0.2-0.1-0.3,0.1-0.4c0.2-0.1,0.3-0.1,0.4,0.1c0.3,0.4,0.7,0.9,0.9,1.5
		c0.1,0.2,0.1,0.3-0.1,0.4C114.1,176.2,114,176.2,113.9,176.3L113.9,176.3z M111.9,173.4c-0.1,0-0.2,0-0.3-0.1
		c-0.3-0.4-0.7-0.9-1-1.3c-0.2-0.1-0.2-0.3,0-0.4c0.1-0.2,0.3-0.2,0.4,0c0,0,0,0.1,0.1,0.1c0.3,0.4,0.7,0.9,1.1,1.4
		c0.1,0.2,0.1,0.3-0.1,0.4C112.1,173.4,112,173.4,111.9,173.4z M109.7,170.8c-0.1,0-0.2-0.1-0.3-0.1c-0.4-0.4-0.8-0.9-1.2-1.3
		c-0.1-0.1-0.1-0.3,0-0.4c0.1-0.1,0.3-0.1,0.4,0c0.4,0.4,0.8,0.9,1.2,1.3c0.1,0.1,0.1,0.3,0,0.4l0,0
		C109.8,170.8,109.8,170.8,109.7,170.8L109.7,170.8z M107.3,168.3c-0.1,0-0.2,0-0.3-0.1c-0.4-0.4-0.9-0.9-1.3-1.2
		c-0.1-0.2-0.1-0.3,0.1-0.4c0.1-0.1,0.3-0.1,0.3,0c0.4,0.3,0.9,0.8,1.3,1.2c0.1,0.1,0.1,0.3,0,0.4l0,0
		C107.5,168.3,107.4,168.3,107.3,168.3L107.3,168.3z M104.8,166c-0.1,0-0.2,0-0.2-0.1c-0.9-0.7-1.4-1-1.4-1
		c-0.2-0.1-0.2-0.3-0.1-0.4c0.1-0.2,0.3-0.2,0.4-0.1l0,0c0,0,0.5,0.3,1.4,1c0.2,0.1,0.2,0.3,0.1,0.4
		C104.9,165.9,104.8,166,104.8,166L104.8,166z"/>
	<path class="st0" d="M124.9,175.6c-0.1,0-0.3-0.1-0.3-0.2c-0.2-0.3-0.4-0.7-0.6-1c-0.1-0.2-0.1-0.3,0.1-0.4s0.3-0.1,0.4,0.1
		c0.3,0.3,0.4,0.7,0.7,1c0.1,0.2,0,0.3-0.1,0.4l0,0C125,175.6,124.9,175.6,124.9,175.6z M123.3,173.1c-0.1,0-0.2-0.1-0.3-0.1
		c-0.3-0.4-0.7-0.9-1-1.3c-0.2-0.1-0.2-0.3,0-0.4c0.2-0.1,0.3-0.2,0.4,0c0,0,0,0.1,0.1,0.1c0.3,0.4,0.7,0.9,1,1.4
		c0.1,0.2,0.1,0.3-0.1,0.4C123.4,173.1,123.4,173.1,123.3,173.1L123.3,173.1z M121,170.5c-0.1,0-0.2,0-0.3-0.1
		c-0.4-0.4-0.8-0.9-1.2-1.2c-0.1-0.1-0.1-0.3,0-0.4s0.3-0.1,0.4,0c0.4,0.4,0.8,0.9,1.2,1.3c0.1,0.1,0.2,0.3,0,0.4l0,0
		C121.2,170.4,121.1,170.5,121,170.5L121,170.5z M118.6,168c-0.1,0-0.2,0-0.2-0.1c-0.4-0.4-0.9-0.8-1.3-1.1c-0.1-0.1-0.1-0.3,0-0.4
		s0.3-0.1,0.4,0l0,0c0.4,0.3,0.9,0.8,1.3,1.1c0.1,0.1,0.1,0.3,0,0.4l0,0C118.8,168,118.7,168.1,118.6,168L118.6,168z M116,165.9
		c-0.1,0-0.2,0-0.2-0.1c-0.4-0.3-0.9-0.7-1.4-1c-0.2-0.1-0.2-0.3-0.1-0.4c0.1-0.2,0.3-0.2,0.4-0.1l0,0c0.4,0.3,0.9,0.7,1.4,1
		c0.2,0.1,0.2,0.3,0.1,0.4C116.2,165.8,116.1,165.9,116,165.9L116,165.9z M113.2,163.8c-0.1,0-0.2,0-0.2-0.1l-1.5-0.9
		c-0.2-0.1-0.2-0.3-0.1-0.4c0.1-0.2,0.3-0.2,0.4-0.1l0,0c0.4,0.3,0.9,0.6,1.5,0.9c0.2,0.1,0.2,0.3,0.1,0.4l0,0
		C113.4,163.7,113.3,163.8,113.2,163.8z M110.3,161.9c-0.1,0-0.1,0-0.2,0c-0.9-0.5-1.5-0.9-1.5-0.9c-0.2-0.1-0.3-0.3-0.2-0.4
		s0.3-0.3,0.4-0.2l0,0c0,0,0.6,0.3,1.5,0.9c0.2,0.1,0.2,0.3,0.1,0.4C110.5,161.8,110.4,161.9,110.3,161.9L110.3,161.9z"/>
	<path class="st0" d="M123.1,163.1c-0.1,0-0.2-0.1-0.3-0.1c-0.1-0.2-0.2-0.3-0.3-0.4c-0.1-0.2-0.1-0.3,0.1-0.4
		c0.2-0.1,0.3-0.1,0.4,0.1l0,0c0.1,0.2,0.3,0.3,0.3,0.4c0.1,0.2,0.1,0.3-0.1,0.4l0,0C123.2,163.1,123.1,163.2,123.1,163.1z
		 M121.5,161.5c-0.1,0-0.2,0-0.2-0.1c-0.4-0.3-0.9-0.8-1.3-1.1c-0.2-0.1-0.2-0.3-0.1-0.4l0,0c0.1-0.2,0.3-0.2,0.4-0.1l0,0
		c0.5,0.3,0.9,0.8,1.4,1.1c0.1,0.1,0.1,0.3,0,0.4C121.7,161.5,121.6,161.5,121.5,161.5L121.5,161.5z M118.9,159.3
		c-0.1,0-0.1,0-0.2-0.1c-0.4-0.3-0.9-0.6-1.5-0.9c-0.2-0.1-0.2-0.3-0.1-0.4c0.1-0.2,0.3-0.2,0.4-0.1c0.5,0.3,0.9,0.6,1.5,0.9
		c0.2,0.1,0.2,0.3,0.1,0.4l0,0C119,159.3,119,159.3,118.9,159.3L118.9,159.3z M115.9,157.5c-0.1,0-0.1,0-0.2,0
		c-0.5-0.3-1-0.5-1.5-0.8c-0.2-0.1-0.2-0.3-0.2-0.4c0.1-0.2,0.3-0.3,0.4-0.2l0,0c0.5,0.3,1,0.5,1.5,0.8c0.2,0.1,0.3,0.3,0.2,0.4l0,0
		C116.1,157.5,116,157.5,115.9,157.5L115.9,157.5z M112.8,156h-0.2c-0.9-0.4-1.5-0.7-1.5-0.7c-0.2-0.1-0.3-0.3-0.2-0.4
		c0.1-0.2,0.3-0.3,0.4-0.2c0,0,0.6,0.3,1.5,0.7c0.2,0.1,0.3,0.3,0.2,0.4l0,0C113,156,112.9,156,112.8,156L112.8,156z"/>
	<path class="st2" d="M73.5,140.6l5.6,6.7l29.7,4.8c-0.1,2.2-0.7,4.2-1.7,6.1c-1.7,2.8-6.4,5.5-6.4,5.5l-4.4-9L59,151.1L73.5,140.6z
		"/>
	<path class="st0" d="M100.6,164.2L100.6,164.2c-0.2-0.1-0.3-0.2-0.3-0.3L96,155l-37.1-3.5c-0.2,0-0.3-0.2-0.3-0.3
		c-0.1-0.2,0-0.3,0.2-0.4l14.5-10.4c0.2-0.2,0.4-0.1,0.6,0.1l5.5,6.6l29.5,4.8c0.2,0,0.3,0.2,0.3,0.4c-0.1,2.2-0.7,4.4-1.8,6.3
		c-1.7,2.8-6.4,5.5-6.5,5.6C100.8,164.2,100.7,164.2,100.6,164.2z M60.2,150.8l36.2,3.4c0.2,0,0.3,0.1,0.3,0.3l4.1,8.6
		c1.1-0.7,4.5-2.8,5.9-5.1c0.9-1.7,1.5-3.5,1.6-5.5L79,147.8c-0.1,0-0.2-0.1-0.3-0.2l-5.3-6.4L60.2,150.8z"/>
</g>
<g id="freepik--Plants--inject-4">
	<path class="st0" d="M142.7,194.4c-0.3,0-0.5-0.2-0.5-0.5v-76.8c0-0.3,0.2-0.5,0.5-0.5s0.5,0.2,0.5,0.5V194
		C143.2,194.2,143,194.4,142.7,194.4z"/>
	<path class="st0" d="M143.2,169.4c-0.1,0-0.2,0-0.3-0.1c-0.2-0.2-0.2-0.5,0-0.7l0,0l21.5-23.5c0.2-0.2,0.5-0.1,0.7,0.1
		c0.1,0.2,0.2,0.4,0,0.6l-21.5,23.5C143.5,169.4,143.4,169.4,143.2,169.4z"/>
	<path class="st0" d="M142.6,146.8c-0.1,0-0.3,0-0.3-0.1L127.9,133c-0.2-0.2-0.2-0.5,0-0.7l0,0c0.2-0.2,0.5-0.2,0.7,0l0,0L143,146
		c0.2,0.2,0.2,0.5,0,0.7C142.9,146.8,142.7,146.8,142.6,146.8L142.6,146.8z"/>
	<path class="st0" d="M155,156.8L155,156.8c-0.3,0-0.5-0.3-0.5-0.5l1.1-14.1c0-0.3,0.2-0.5,0.5-0.5l0,0c0.3,0,0.5,0.3,0.5,0.5
		l-1.1,14.2C155.5,156.6,155.2,156.8,155,156.8z"/>
	<path class="st0" d="M142.8,183.3c-0.1,0-0.2,0-0.2-0.1l-16.4-9.5c-0.2-0.2-0.3-0.5-0.1-0.7c0.1-0.2,0.4-0.3,0.6-0.2l16.4,9.5
		c0.2,0.1,0.3,0.4,0.2,0.7S143,183.4,142.8,183.3z"/>
	<path class="st0" d="M123.1,141.1c-0.3,0-0.5-0.2-0.5-0.5s0.2-0.5,0.5-0.5l13.1-0.4c0.3,0,0.5,0.2,0.5,0.5s-0.2,0.5-0.5,0.5
		L123.1,141.1L123.1,141.1z"/>
	<path class="st2" d="M146.3,110.4c0,4.5-3.7,8.2-3.7,8.2s-3.7-3.7-3.7-8.2s3.7-8.2,3.7-8.2S146.3,105.9,146.3,110.4z"/>
	<path class="st2" d="M126.8,126.1c3.5,2.8,4.1,8,4.1,8s-5.2,0.6-8.7-2.2s-4.1-8-4.1-8S123.3,123.3,126.8,126.1z"/>
	<path class="st2" d="M120.8,136.7c4.5,0,8.2,3.8,8.2,3.8s-3.7,3.7-8.2,3.7s-8.2-3.8-8.2-3.8S116.2,136.6,120.8,136.7z"/>
	<path class="st2" d="M160.2,141.7c-0.5,4.5-4.6,7.8-4.6,7.8s-3.3-4-2.9-8.5s4.5-7.8,4.5-7.8S160.7,137.2,160.2,141.7z"/>
	<path class="st2" d="M135.6,164.7c2.3,3.9,7.4,5.1,7.4,5.1s1.3-5.1-1-9s-7.4-5.1-7.4-5.1S133.3,160.8,135.6,164.7z"/>
	<path class="st2" d="M150.2,141.9c-2.3,3.9-7.4,5.1-7.4,5.1s-1.3-5.1,1-9s7.4-5.1,7.4-5.1S152.5,138,150.2,141.9z"/>
	<path class="st2" d="M125.9,167.5c3.7,2.6,4.6,7.8,4.6,7.8s-5.1,1-8.9-1.6S117,166,117,166S122.2,164.9,125.9,167.5z"/>
	<path class="st2" d="M171.2,143.7c-3,3.4-8.2,3.6-8.2,3.6s-0.3-5.2,2.7-8.6s8.2-3.6,8.2-3.6S174.2,140.3,171.2,143.7z"/>
	<path class="st0" d="M120.9,194.8c0,0,16.2-6.5,22.8-6.5s21.9,6.9,21.9,6.9L120.9,194.8z"/>
	<path class="st0" d="M238,194.4c-0.3,0-0.5-0.2-0.5-0.5v-76.8c0-0.3,0.2-0.5,0.5-0.5s0.5,0.2,0.5,0.5V194
		C238.5,194.2,238.3,194.4,238,194.4z"/>
	<path class="st0" d="M237.5,187.1c-0.1,0-0.3-0.1-0.4-0.2l-21.5-23.5c-0.2-0.2-0.2-0.5,0-0.7s0.5-0.2,0.7,0l0,0l21.5,23.5
		c0.2,0.2,0.2,0.5,0,0.7C237.7,187.1,237.6,187.1,237.5,187.1z"/>
	<path class="st0" d="M238.1,146.8c-0.3,0-0.5-0.2-0.5-0.5c0-0.1,0.1-0.3,0.2-0.4l14.4-13.7c0.2-0.2,0.5-0.2,0.7,0l0,0
		c0.2,0.2,0.2,0.5,0,0.7l0,0l-14.4,13.7C238.4,146.8,238.3,146.8,238.1,146.8z"/>
	<path class="st0" d="M225.7,174.5c-0.3,0-0.5-0.2-0.5-0.5l-1.1-14.2c0-0.3,0.2-0.5,0.5-0.5s0.5,0.2,0.5,0.5l1.1,14.2
		C226.3,174.2,226.1,174.5,225.7,174.5C225.8,174.5,225.8,174.5,225.7,174.5L225.7,174.5z"/>
	<path class="st0" d="M237.9,183.3c-0.2,0-0.3-0.1-0.4-0.2c-0.1-0.2-0.1-0.5,0.2-0.7l16.4-9.5c0.2-0.2,0.5-0.1,0.7,0.1
		s0.1,0.5-0.1,0.7c0,0-0.1,0-0.1,0.1l-16.4,9.5C238.1,183.3,238,183.4,237.9,183.3z"/>
	<path class="st0" d="M257.6,141.1L257.6,141.1l-13.1-0.4c-0.3,0-0.5-0.2-0.5-0.5s0.2-0.5,0.5-0.5l13.1,0.4c0.3,0,0.5,0.2,0.5,0.5
		S257.9,141.1,257.6,141.1L257.6,141.1z"/>
	<path class="st2" d="M234.4,124.1c0,4.5,3.7,8.2,3.7,8.2s3.7-3.7,3.7-8.2c0-4.5-3.7-8.2-3.7-8.2S234.4,119.6,234.4,124.1z"/>
	<path class="st2" d="M253.9,126.1c-3.5,2.8-4.1,8-4.1,8s5.2,0.6,8.7-2.2s4.1-8,4.1-8S257.4,123.3,253.9,126.1z"/>
	<path class="st2" d="M260,136.7c-4.5,0-8.2,3.8-8.2,3.8s3.7,3.7,8.2,3.7s8.2-3.8,8.2-3.8S264.5,136.6,260,136.7z"/>
	<path class="st0" d="M238.3,152.2c-0.1,0-0.2-0.1-0.3-0.1l-14.4-13.7c-0.2-0.2-0.2-0.5,0-0.7s0.5-0.2,0.7,0l14.4,13.7
		c0.2,0.2,0.2,0.5,0,0.7l0,0C238.6,152.2,238.5,152.2,238.3,152.2z"/>
	<path class="st0" d="M218.8,146.5c-0.3,0-0.5-0.2-0.5-0.5s0.2-0.5,0.5-0.5l0,0l13.1-0.4c0.3,0,0.5,0.2,0.5,0.5l0,0
		c0,0.3-0.2,0.5-0.5,0.5l0,0L218.8,146.5L218.8,146.5z"/>
	<path class="st2" d="M222.6,131.6c3.5,2.8,4.1,8,4.1,8s-5.2,0.6-8.7-2.2s-4-8-4-8S219,128.7,222.6,131.6z"/>
	<path class="st2" d="M216.5,142.1c4.5,0,8.2,3.8,8.2,3.8s-3.7,3.7-8.2,3.7s-8.2-3.8-8.2-3.8S212,142.1,216.5,142.1z"/>
	<path class="st2" d="M220.5,159.4c0.5,4.5,4.6,7.8,4.6,7.8s3.3-4,2.9-8.5s-4.5-7.8-4.5-7.8S220,154.9,220.5,159.4z"/>
	<path class="st2" d="M245.7,154c-4.3,1.4-8.9-1.1-8.9-1.1s2.4-4.7,6.7-6s8.9,1.1,8.9,1.1S250,152.7,245.7,154z"/>
	<path class="st2" d="M254.8,167.5c-3.7,2.6-4.6,7.8-4.6,7.8s5.2,1,8.9-1.6s4.6-7.7,4.6-7.7S258.5,164.9,254.8,167.5z"/>
	<path class="st2" d="M209.5,161.4c3,3.4,8.2,3.6,8.2,3.6s0.3-5.2-2.7-8.6s-8.2-3.6-8.2-3.6S206.5,158,209.5,161.4z"/>
	<path class="st0" d="M214.8,194.8c0,0,16.2-6.5,22.8-6.5s21.9,6.9,21.9,6.9L214.8,194.8z"/>
</g>
</svg>
