<?xml version="1.0" encoding="UTF-8"?>
<!DOCTYPE svg PUBLIC "-//W3C//DTD SVG 1.1//EN" "http://www.w3.org/Graphics/SVG/1.1/DTD/svg11.dtd">
<!-- Creator: CorelDRAW -->
<svg xmlns="http://www.w3.org/2000/svg" xml:space="preserve" width="71.4248mm" height="98.425mm" version="1.1" style="shape-rendering:geometricPrecision; text-rendering:geometricPrecision; image-rendering:optimizeQuality; fill-rule:evenodd; clip-rule:evenodd"
viewBox="0 0 7142.48 9842.5"
 xmlns:xlink="http://www.w3.org/1999/xlink"
 xmlns:xodm="http://www.corel.com/coreldraw/odm/2003">
 <defs>
  <style type="text/css">
   <![CDATA[
    .fil0 {fill:none}
    .fil5 {fill:white;fill-rule:nonzero}
    .fil12 {fill:#F9C4A6;fill-rule:nonzero}
    .fil4 {fill:#FCFCFC;fill-rule:nonzero}
    .fil1 {fill:#F8F9FA;fill-rule:nonzero}
    .fil13 {fill:#EC9D71;fill-rule:nonzero}
    .fil2 {fill:#F0F0F1;fill-rule:nonzero}
    .fil3 {fill:#E8E7E7;fill-rule:nonzero}
    .fil9 {fill:#BDBABA;fill-rule:nonzero}
    .fil15 {fill:#A7CFCB;fill-rule:nonzero}
    .fil10 {fill:#A4A2A1;fill-rule:nonzero}
    .fil8 {fill:#4E5E69;fill-rule:nonzero}
    .fil14 {fill:#313334;fill-rule:nonzero}
    .fil7 {fill:#383E42;fill-rule:nonzero}
    .fil6 {fill:#137B71;fill-rule:nonzero}
    .fil11 {fill:#1E5953;fill-rule:nonzero}
   ]]>
  </style>
 </defs>
 <g id="Layer_x0020_1">
  <metadata id="CorelCorpID_0Corel-Layer"/>
  <rect class="fil0" x="-1.69" y="6.35" width="7142.48" height="9842.5"/>
  <g id="_105553387750304">
   <g>
    <path class="fil1" d="M6094.44 6395.76l-1214.14 -459.08c-83.82,-31.7 -126.07,-125.34 -94.39,-209.17l0.07 -0.17 635.36 -1680.4c31.72,-83.89 125.44,-126.19 209.34,-94.49l770.09 291.15 363.59 839.69 -460.58 1218.65c-32.01,83.62 -125.62,125.59 -209.34,93.82z"/>
    <path class="fil2" d="M6400.77 4243.6l-178.96 472.93c-29.56,78.03 9.73,165.25 87.78,194.8l0.03 0.02 454.74 171.94 -363.59 -839.69z"/>
    <path class="fil3" d="M6212.3 4760.44c0,0 -49.25,112.51 66.77,200.32 4.37,3.27 8.96,6.29 13.69,9.02 55.42,33.38 420.02,250.4 423.35,241.55l48.08 -127.2 -454.74 -171.95c0,0 -111.84,-47.58 -97.15,-151.74z"/>
    <path class="fil3" d="M6127.33 4658.77c-2.34,6.18 -129.89,-36.56 -284.97,-95.16 -155.09,-58.59 -278.95,-111.18 -276.62,-116.85 2.34,-5.68 129.88,36.56 284.97,95.15 155.08,58.6 278.95,110.35 276.62,116.86z"/>
    <path class="fil3" d="M6388.92 5063.43c-2.34,6.01 -211.01,-66.78 -466.26,-163.77 -255.25,-96.99 -460.42,-179.79 -458.08,-185.97 2.34,-6.17 211.01,66.78 466.43,163.94 255.41,97.15 459.74,179.62 457.91,185.8z"/>
    <path class="fil3" d="M6387.75 5318.18c-2.34,6.01 -229.71,-74.29 -507.99,-179.63 -278.29,-105.34 -501.99,-195.48 -499.65,-201.49 2.34,-6.01 229.7,74.28 507.99,179.62 278.29,105.34 502.65,195.32 499.65,201.5z"/>
    <path class="fil3" d="M6308.12 5528.85c-2.34,6.01 -229.71,-74.29 -508,-179.63 -278.28,-105.33 -501.98,-196.15 -499.64,-201.49 2.34,-5.34 229.71,74.29 507.99,179.46 278.29,105.17 501.98,195.48 499.65,201.66z"/>
    <path class="fil3" d="M6228.49 5739.53c-2.34,6.01 -229.88,-74.29 -507.99,-179.63 -278.12,-105.34 -501.99,-195.48 -499.82,-201.49 2.18,-6.01 229.71,74.28 508.17,179.45 278.45,105.17 501.81,195.49 499.64,201.67z"/>
    <path class="fil3" d="M6148.69 5950.2c-2.17,6.01 -229.7,-74.46 -507.82,-179.63 -278.12,-105.17 -502.15,-195.48 -499.82,-201.49 2.34,-6.01 229.71,74.29 508,179.46 278.28,105.17 501.98,195.48 499.64,201.66z"/>
    <path class="fil2" d="M445.86 5211.74l1600.62 -560.53c55.34,-19.38 115.9,9.78 135.29,65.12l803.08 2293.23c19.37,55.34 -9.78,115.9 -65.12,135.3l-1600.62 560.53c-55.34,19.38 -115.92,-9.78 -135.3,-65.13l-803.07 -2293.22c-19.38,-55.34 9.77,-115.93 65.12,-135.3z"/>
    <polygon class="fil3" points="518.7,5335.95 2066.99,4793.76 2862.96,7066.65 1314.64,7608.88 "/>
    <polygon class="fil4" points="490.97,5325.27 2039.28,4783.06 2820.07,7012.65 1271.77,7554.84 "/>
    <path class="fil3" d="M2819.79 7012.59l-782.78 -2228.78 2.84 1.33 -1548.01 542.38 1.5 -3c291.81,837.36 563.41,1610.78 780.27,2229.62l-2.51 -1.17 1548.85 -540.38 -1547.68 544.39 -1.83 0 0 -1.84c-217.02,-618.84 -487.8,-1392.26 -781.27,-2229.45l0 -2.34 2.16 0 1548.19 -541.88 2.17 0 0 2 778.1 2229.12z"/>
    <path class="fil3" d="M2270.72 7204.91c0,0 344.73,-290.81 404.49,-593.64 -69.89,97 -176.4,161.24 -294.8,177.79 0,0 -6.85,317.19 -109.69,415.85z"/>
    <path class="fil2" d="M938.64 5850.59l81.45 -28.53c29.77,-10.42 62.34,5.26 72.77,35.02l28.53 81.45c10.42,29.77 -5.25,62.34 -35.02,72.76l-81.47 28.52c-29.74,10.42 -62.31,-5.26 -72.75,-35l-28.51 -81.47c-10.43,-29.75 5.24,-62.34 35,-72.75z"/>
    <path class="fil5" d="M1010.18 5962.39l-3.67 0 -37.4 -21.7c-2.05,-1.57 -2.45,-4.51 -0.88,-6.55 1.3,-1.7 3.59,-2.3 5.56,-1.47l33.38 19.03 39.4 -83.46c1.19,-2.31 3.94,-3.33 6.35,-2.34 2.33,1.1 3.33,3.89 2.21,6.22l-0.04 0.12 -41.57 88.81 -3.34 1.34z"/>
    <path class="fil3" d="M2079.25 5476.93c0,1.34 -200.33,72.95 -448.9,159.93 -248.57,86.98 -450.73,156.42 -450.73,155.25 0,-1.17 200.33,-72.95 449.06,-159.93 248.74,-86.97 450.23,-156.42 450.57,-155.25z"/>
    <path class="fil3" d="M1607.15 5797.79c0,0 -5.17,2.34 -14.52,6.01l-40.4 15.02c-33.39,12.35 -81.47,29.21 -133.55,47.58 -52.09,18.36 -100.17,34.72 -133.56,46.24l-40.9 13.52c-4.94,1.82 -10.03,3.26 -15.19,4.34 4.68,-2.45 9.53,-4.5 14.53,-6.18l40.4 -14.85c33.38,-12.52 81.46,-29.38 133.55,-47.75 52.08,-18.36 100.16,-34.55 133.55,-46.24l40.9 -13.52c4.92,-1.82 10.02,-3.22 15.19,-4.17z"/>
    <path class="fil3" d="M2100.45 5538.37c0,1.16 -200.32,72.78 -449.06,159.76 -248.74,86.97 -450.73,156.58 -450.73,155.25 0,-1.34 200.32,-72.79 449.22,-159.76 248.91,-86.98 450.57,-156.59 450.57,-155.25z"/>
    <path class="fil2" d="M1054.94 6182.76l81.44 -28.51c29.77,-10.43 62.34,5.24 72.76,34.99l28.53 81.46c10.41,29.77 -5.26,62.34 -35.03,72.77l-81.45 28.52c-29.76,10.43 -62.33,-5.26 -72.75,-35.01l-28.53 -81.47c-10.42,-29.75 5.26,-62.31 35.03,-72.75z"/>
    <path class="fil5" d="M1126.53 6294.59l-3.84 0 -37.22 -21.7c-2.19,-1.18 -2.99,-3.92 -1.81,-6.11l0.14 -0.23c1.18,-2.19 3.92,-2.99 6.11,-1.8l0.23 0.13 33.39 19.03 39.4 -84.31c1.11,-2.26 3.82,-3.3 6.17,-2.33 2.36,1.05 3.41,3.82 2.34,6.18l-41.57 88.98 -3.34 2.16z"/>
    <path class="fil3" d="M2195.6 5809.14c0,1.34 -200.32,72.78 -449.06,159.93 -248.74,87.14 -450.73,156.42 -450.73,155.25 0,-1.17 200.32,-72.95 449.06,-159.93 248.74,-86.97 450.4,-156.42 450.73,-155.25z"/>
    <path class="fil3" d="M1723.51 6130c0,0 -5.18,2.33 -14.7,6.01l-40.23 15.02c-33.39,12.35 -81.46,29.21 -133.55,47.58 -52.09,18.36 -100.16,34.72 -133.55,46.24l-40.9 13.52c-4.96,1.8 -10.03,3.25 -15.19,4.34 4.64,-2.49 9.5,-4.56 14.52,-6.18l40.4 -14.86c33.39,-12.51 81.47,-29.37 133.55,-47.74 52.09,-18.36 100.17,-34.56 133.55,-46.24l40.9 -13.52c4.95,-1.84 10.02,-3.22 15.2,-4.17z"/>
    <path class="fil3" d="M2217.3 5870.9c0,1.17 -200.32,72.79 -449.06,159.76 -248.74,86.98 -450.73,156.59 -450.73,155.26 0,-1.34 200.33,-72.78 449.06,-159.76 248.74,-86.98 450.73,-156.92 450.73,-155.26z"/>
    <path class="fil2" d="M1171.37 6514.94l81.47 -28.53c29.75,-10.42 62.32,5.26 72.73,35.02l28.53 81.45c10.42,29.76 -5.24,62.34 -35,72.75l-81.47 28.53c-29.75,10.42 -62.31,-5.24 -72.73,-35.01l-28.53 -81.45c-10.42,-29.78 5.24,-62.35 35,-72.76z"/>
    <path class="fil5" d="M1242.89 6626.8l-3.84 0 -37.4 -21.37c-2.37,-1 -3.46,-3.75 -2.45,-6.14 1.01,-2.37 3.76,-3.47 6.13,-2.45l1 0.58 33.39 19.03 39.39 -84.3c0.97,-2.41 3.7,-3.56 6.08,-2.61 2.4,0.95 3.56,3.68 2.61,6.08l-0.17 0.37 -41.57 88.97 -3.17 1.84z"/>
    <path class="fil3" d="M2311.96 6141.34c0,1.34 -200.32,72.79 -449.06,159.93 -248.74,87.15 -450.73,156.42 -450.73,155.09 0,-1.34 200.32,-72.79 449.22,-159.76 248.91,-86.98 450.07,-156.42 450.57,-155.26z"/>
    <path class="fil3" d="M1839.86 6462.03c-4.74,2.43 -9.65,4.49 -14.69,6.18l-40.4 15.02c-33.39,12.36 -81.3,29.22 -133.55,47.58 -52.25,18.36 -100.16,34.56 -133.55,46.24l-40.9 13.53c-4.96,1.78 -10.03,3.23 -15.19,4.33 4.64,-2.48 9.52,-4.55 14.52,-6.17l40.4 -15.02c33.39,-12.36 81.47,-29.22 133.55,-47.58 52.09,-18.37 100.16,-34.56 133.55,-46.24l40.74 -13.53c5.09,-1.73 10.26,-3.19 15.52,-4.34z"/>
    <path class="fil3" d="M2334.16 6202.78c0,1.17 -200.32,72.78 -449.06,159.76 -248.74,86.97 -450.73,156.59 -450.73,155.25 0,-1.33 200.32,-72.78 449.06,-159.92 248.74,-87.15 449.56,-156.43 450.73,-155.09z"/>
    <path class="fil2" d="M1287.67 6847.11l81.44 -28.51c29.77,-10.44 62.34,5.24 72.76,34.99l28.52 81.46c10.42,29.75 -5.26,62.33 -35,72.77l-81.47 28.53c-29.75,10.42 -62.33,-5.28 -72.75,-35.02l-28.53 -81.47c-10.42,-29.75 5.26,-62.32 35.03,-72.75z"/>
    <path class="fil5" d="M1359.08 6959.01l-3.67 0 -37.4 -21.7c-2.2,-1.34 -2.92,-4.21 -1.58,-6.43 1.33,-2.22 4.22,-2.94 6.42,-1.59l33.39 19.03 39.4 -83.47c1.07,-2.33 3.82,-3.39 6.17,-2.33 2.29,1.13 3.31,3.82 2.34,6.18l-41.73 88.97 -3.34 1.34z"/>
    <path class="fil3" d="M2428.32 6473.55c0,1.34 -200.33,72.79 -449.07,159.76 -248.74,86.98 -450.73,156.59 -450.73,155.25 0,-1.33 200.33,-72.78 449.07,-159.75 248.73,-86.98 450.23,-156.93 450.73,-155.26z"/>
    <path class="fil3" d="M1956.05 6794.24c-4.64,2.48 -9.52,4.56 -14.52,6.18l-40.41 15.02c-33.38,12.36 -81.46,29.22 -133.54,47.58 -52.09,18.36 -100.17,34.56 -133.55,46.24l-40.9 13.52c-9.69,3.01 -15.19,4.51 -15.19,4.34 4.65,-2.49 9.51,-4.55 14.52,-6.17l40.4 -15.03c33.38,-12.35 81.46,-29.21 133.55,-47.57 52.08,-18.37 100.16,-34.56 133.55,-46.25l40.9 -13.52c4.95,-1.78 10.03,-3.24 15.19,-4.34z"/>
    <path class="fil3" d="M2449.85 6534.98c0,1.17 -200.32,72.79 -449.06,159.76 -248.74,86.98 -450.73,156.43 -450.73,155.26 0,-1.17 200.32,-72.79 449.06,-159.93 248.73,-87.14 450.23,-156.42 450.73,-155.09z"/>
    <path class="fil3" d="M666.29 5108l40.73 116.85c23.72,67.75 97.84,103.46 165.6,79.8l856.39 -300.49c67.63,-23.6 103.32,-97.59 79.7,-165.21l-0.07 -0.22 -40.73 -116.86 -1101.62 386.13z"/>
    <path class="fil3" d="M1163.43 4763.94c-39.18,13.67 -59.83,56.51 -46.16,95.69 13.67,39.16 56.51,59.83 95.67,46.16 39.18,-13.67 59.85,-56.53 46.18,-95.69l-0.04 -0.09c-13.7,-39.11 -56.52,-59.72 -95.65,-46.07zm65.1 185.8c-63.48,22.34 -133.06,-11.02 -155.4,-74.5 -22.33,-63.5 11.02,-133.07 74.51,-155.42 63.5,-22.32 133.06,11.03 155.4,74.52l0.11 0.32c22.13,63.42 -11.24,132.78 -74.62,155.08z"/>
    <path class="fil3" d="M1912.98 5253.24c0,2.16 -225.03,83.47 -504.32,181.12 -279.29,97.66 -506.32,175.29 -507.16,173.12 -0.83,-2.17 225.03,-83.47 504.32,-181.13 279.29,-97.66 506.33,-175.95 507.16,-173.11z"/>
    <path class="fil3" d="M1623.68 5294.14c0,2.16 -98.5,39.06 -221.87,82.3 -123.36,43.23 -224.02,77.12 -224.86,74.12 -0.83,-3.01 98.66,-39.07 222.03,-82.3 123.36,-43.24 224.03,-76.3 224.7,-74.12z"/>
    <path class="fil6" d="M6073.57 8676.8c61.46,-28.85 130.56,-37.23 197.15,-23.87 35.73,5.84 73.12,16.69 97.33,43.4 24.2,26.71 29.04,74.12 1,97.16 -18.11,12.32 -39.98,17.81 -61.77,15.52 -52.25,0 -110.01,-9.85 -151.58,21.54 -23.87,17.86 -39.56,47.57 -67.94,56.42 -29.37,6.85 -59.68,-6.84 -73.95,-33.38 -13.51,-26.11 -16.48,-56.39 -8.35,-84.64 7.09,-39.65 32.29,-73.72 68.11,-92.15z"/>
    <path class="fil6" d="M5935.34 8411.7c36.73,52.25 108.01,35.06 141.07,3 33.05,-32.05 46.91,-78.29 59.59,-122.36 29.05,-100.99 58.43,-206.84 36.9,-309.67 -5.36,-30.9 -19.03,-59.76 -39.56,-83.47 -21.31,-23.94 -53.74,-34.75 -85.14,-28.38 -36.06,9.52 -58.27,44.74 -74.46,78.13 -47.61,98.97 -72.52,207.35 -72.95,317.18 0,51.08 5.84,104.5 34.55,146.74l0 -1.17z"/>
    <path class="fil6" d="M5834.68 8486.82c38.3,-49.98 49.42,-115.64 29.72,-175.45 -20.19,-58.64 -56.11,-110.63 -103.84,-150.24 -54.27,-48.3 -117.44,-85.54 -185.97,-109.68 -26.47,-10.68 -54.96,-15.53 -83.47,-14.19 -28.96,1.64 -55.2,17.51 -70.11,42.4 -19.7,37.4 0,82.63 19.37,119.53 35.73,65.12 76.59,127.32 122.19,185.97 36.56,47.24 78.46,93.82 134.39,115.19 55.92,21.36 113.68,18.69 143.23,-19.87l-5.51 6.34z"/>
    <path class="fil7" d="M5933.01 9201.48c1.82,-7.78 2.9,-15.72 3.17,-23.7 1.84,-16.7 3.84,-39.06 6.34,-64.94 3.21,-32.02 8.12,-63.84 14.7,-95.32 8.48,-38.33 20.03,-75.89 34.55,-112.35 14.26,-36.43 33.59,-70.67 57.43,-101.67 19.41,-25.28 44.22,-45.92 72.61,-60.43 19.23,-9.54 39.85,-15.97 61.1,-19.03 8,-0.28 15.95,-1.4 23.71,-3.34 -8.05,-0.86 -16.16,-0.86 -24.21,0 -22.02,1.79 -43.55,7.43 -63.6,16.7 -29.9,14.06 -56.12,34.85 -76.62,60.76 -24.81,31.5 -44.83,66.49 -59.43,103.84 -14.81,36.96 -26.33,75.17 -34.39,114.18 -6.14,31.87 -10.38,64.11 -12.69,96.5 -2.17,27.54 -2.84,50.07 -3.17,65.26 -0.75,7.84 -0.59,15.75 0.5,23.54z"/>
    <path class="fil7" d="M5937.35 9151.57c0.5,-3.65 0.5,-7.36 0,-11.02l0 -31.05c0,-27.38 0,-66.77 1.34,-116.85 2.5,-98 10.85,-203.33 27.2,-351.91 15.37,-139.73 36.06,-302.33 57.93,-408 4.68,-24.04 9.35,-45.74 13.86,-64.6 4.51,-18.86 7.84,-35.39 11.35,-48.58 3.5,-13.19 5.34,-22.71 7.35,-30.72 0.9,-3.62 1.56,-7.31 2,-11.01 -1.69,3.3 -2.97,6.77 -3.84,10.35 -2.51,8.01 -5.51,18.03 -9.18,30.38 -3.68,12.35 -8.35,29.38 -13.02,48.24 -4.68,18.87 -10.19,40.4 -15.36,64.44 -26.76,125.17 -46.88,251.66 -60.27,378.95 -16.69,148.91 -23.7,283.8 -24.2,382.62 0,49.08 0,88.81 1.67,116.86 0,12.85 1.33,23.37 1.83,31.55 0.15,3.49 0.59,6.96 1.34,10.35z"/>
    <path class="fil7" d="M5938.02 8890.14c0.93,-11.11 0.93,-22.27 0,-33.38 -1.89,-29.92 -5.3,-59.73 -10.19,-89.32 -7.16,-43.93 -16.86,-87.39 -29.05,-130.2 -14.12,-52.69 -32.31,-104.21 -54.41,-154.09 -37.79,-91.93 -91.91,-176.27 -159.76,-248.9 -11.84,-12.43 -24.45,-24.08 -37.73,-34.89 -5.68,-5.01 -10.85,-9.85 -16.7,-13.69l-14.52 -10.02c-8.75,-6.71 -18.08,-12.64 -27.88,-17.69 32.05,25.04 62.45,52.13 90.98,81.13 65.81,73.13 118.54,157.05 155.92,248.07 21.64,49.58 39.93,100.55 54.76,152.58 12.57,42.39 22.87,85.4 30.88,128.87 6.85,37.23 10.85,66.78 13.19,88.48 0.68,11.12 2.18,22.16 4.51,33.05z"/>
    <polygon class="fil7" points="5685.27,9351.4 5711.48,9710.31 6172.73,9710.31 6198.77,9351.4 "/>
    <polygon class="fil7" points="5640.87,9209.83 6254.03,9209.83 6254.03,9351.4 5640.87,9351.4 "/>
    <polygon class="fil8" points="5640.87,9735.68 6243.68,9735.68 6243.68,9696.62 5640.87,9696.62 "/>
    <polygon class="fil8" points="5697.79,9804.8 5669.58,9735.68 6221.81,9735.68 6188.76,9804.8 "/>
    <path class="fil3" d="M6190.43 9468.59c0,0 0,1.33 -2.17,3.33l-6.85 9.19 -26.87 34.39 -1.17 1.5 -1.17 -1.67 -65.94 -91.15 4 0 -65.1 91.98 -2.01 2.84 -2.33 -2.67 -76.96 -91.81 4.34 0 -4.17 5.33 -68.95 86.31 -2.17 3.01 -2.17 -3.01c-23.37,-33.39 -45.24,-64.1 -65.11,-91.98l3.85 0 -79.97 91.15 -1.5 1.67 -1.17 -1.84c-10.52,-17.69 -18.86,-31.89 -25.04,-42.07l-6.34 -11.18 -2.01 -4.01c0,0 1,1 2.67,3.51l7.18 10.85 26.21 41.23 -2.51 0 78.8 -92.32 2.01 -2.33 1.83 2.5 65.61 91.65 -4.51 0 69.28 -86.31 4.34 -5.34 2.17 -2.83 2.17 2.66 76.96 91.99 -4.34 0 65.6 -91.65 1.84 -2.67 2.01 2.67c25.87,37.22 48.07,68.78 64.6,92.31l-2.51 0 28.05 -33.38 7.51 -8.68 2.01 -3.17z"/>
    <path class="fil8" d="M6205.28 9348.89c0,1.67 -115.52,3.01 -258.08,3.01 -142.57,0 -258.09,-1.34 -258.09,-3.01 0,-1.67 115.52,-2.84 258.09,-2.84 142.56,0 258.08,1.34 258.08,2.84z"/>
    <path class="fil7" d="M6228.65 9739.69c0,1.5 -125.7,2.84 -280.45,2.84 -154.75,0 -280.46,-1.34 -280.46,-2.84 0,-1.5 125.54,-3 280.46,-3 154.92,0 280.45,1.33 280.45,3z"/>
    <path class="fil7" d="M1679.77 8594.5c-1.34,1.5 -11.86,-4.84 -23.54,-14.19 -11.69,-9.35 -20.2,-18.2 -18.87,-19.87 1.34,-1.67 11.69,4.84 23.37,14.19 11.69,9.35 20.21,18.2 19.04,19.87z"/>
    <path class="fil8" d="M2000.29 8116.39c4.54,-44.53 0.87,-89.51 -10.86,-132.72 -14.02,-42.57 -46.74,-81.47 -90.47,-90.65 -50.09,-10.34 -101.17,21.2 -129.21,63.94 -28.05,42.74 -37.57,94.49 -45.91,144.74 -56.96,347.21 -77.93,699.37 -62.6,1050.87l204.33 28.72c88.98,-366.77 118.03,-687.45 134.72,-1064.9z"/>
    <path class="fil7" d="M1869.74 7890.86l-1 3.33 -3.34 9.18 -13.69 35.39c-2.84,7.68 -6.68,16.7 -9.68,25.55l-9.85 30.88 -11.52 35.56 -10.51 40.57c-17.15,66.99 -30.37,134.95 -39.57,203.49 -11.02,76.79 -18.19,161.93 -24.04,251.41 -10.35,179.13 -12.02,341.72 -16.69,459.25 -2.17,58.93 -4.18,106.5 -6.34,139.22 -1.17,16.69 -2.01,28.55 -2.68,37.9 0,3.84 0,7.18 0,9.68 0,2.5 0,3.34 0,3.34 0,0 0,-1 0,-3.34 0,-2.34 0,-5.84 0,-9.85 0,-9.18 0,-21.87 1.17,-37.9 1.33,-33.38 2.5,-80.29 4.01,-139.22 3.33,-116.86 4.17,-280.12 14.69,-459.41 5.68,-89.65 13.19,-174.95 24.54,-252.08 9.58,-68.33 23.34,-136.02 41.23,-202.66l11.02 -40.57c4.34,-12.47 8.35,-24.32 12.02,-35.56l10.68 -30.88c3.17,-9.35 7.18,-17.7 10.19,-25.38l15.02 -34.71c1.55,-3.68 2.89,-6.69 4.01,-9.02l0.33 -4.17z"/>
    <path class="fil7" d="M1888.6 7891.69c10.66,12.59 19.12,26.84 25.05,42.23 15.62,42.24 21.93,87.33 18.53,132.22 -5.35,113.02 -15.53,268.6 -28.88,440.55 -13.36,171.94 -28.55,327.2 -40.57,439.55 -6.18,56.09 -11.35,101.5 -15.19,133.55 -2,15.19 -3.51,27.21 -4.68,36.06l-1.33 9.34 0 3.18c0,0 0,-1.01 0,-3.18 0,-2.17 0,-5.67 0,-9.51 0,-8.85 1.83,-20.87 3.17,-36.23 3.17,-32.05 7.51,-77.29 12.86,-133.55 10.68,-112.51 24.87,-267.1 38.39,-439.71 13.52,-172.62 24.37,-327.37 31.05,-440.05 3.64,-44.37 -2.05,-89.01 -16.69,-131.05 -5.94,-15.09 -13.21,-29.61 -21.71,-43.4z"/>
    <path class="fil7" d="M2030.33 8420.71c-13.4,-0.96 -26.52,-4.35 -38.72,-10.01 -12.97,-3.37 -25.24,-9.03 -36.23,-16.69 13.42,0.88 26.56,4.27 38.73,10.01 12.99,3.34 25.26,8.98 36.22,16.69z"/>
    <path class="fil7" d="M2055.04 8212.38c-11.06,8.84 -23.54,15.77 -36.89,20.53 -12.4,6.88 -25.89,11.57 -39.9,13.86 23.41,-15.85 49.4,-27.46 76.79,-34.39z"/>
    <path class="fil7" d="M2042.19 8042.27c-20.18,3.64 -40.95,2.2 -60.44,-4.17 9.87,-2.83 20.29,-3.36 30.39,-1.51 10.32,-0.47 20.6,1.49 30.05,5.68z"/>
    <path class="fil7" d="M1831.18 7933.42c-1.67,1.01 -10.69,-10.18 -19.87,-24.87 -6.67,-8.5 -11.41,-18.37 -13.85,-28.88 1.67,-1 10.68,10.02 20.03,24.87 9.35,14.86 15.86,27.71 13.69,28.88z"/>
    <path class="fil7" d="M1761.57 8036.26c-9.3,3.34 -19.27,4.37 -29.05,3 -9.83,0.94 -19.75,-0.53 -28.88,-4.34 9.3,-3.34 19.26,-4.37 29.05,-3 9.83,-0.94 19.74,0.55 28.88,4.34z"/>
    <path class="fil7" d="M1711.49 8241.42c-10.69,-0.41 -21.14,-3.27 -30.55,-8.34 -10.31,-2.94 -19.84,-8.11 -27.88,-15.19 10.68,0.41 21.13,3.27 30.54,8.34 10.31,2.94 19.84,8.12 27.89,15.19z"/>
    <path class="fil7" d="M1706.14 8414.88c0,2 -11.18,6.17 -26.04,9.18 -14.86,3 -27.04,4.17 -27.54,2.16 -0.5,-2 11.35,-6.17 26.04,-9.18 8.86,-2.98 18.33,-3.74 27.54,-2.16z"/>
    <path class="fil7" d="M1683.11 8698c0,2 -12.02,5.84 -27.72,8.68 -9.38,2.79 -19.28,3.26 -28.88,1.33 8.42,-5 17.93,-7.92 27.71,-8.51 9.35,-2.89 19.29,-3.42 28.89,-1.5z"/>
    <path class="fil7" d="M1666.41 8854.26c1,1.66 -9.35,9.01 -23.04,16.69 -13.68,7.68 -25.54,11.68 -26.37,9.85 -0.84,-1.84 9.35,-9.02 23.04,-16.7 13.69,-7.68 26.37,-11.68 26.37,-9.84z"/>
    <path class="fil7" d="M1794.45 9031.54c-1.67,1 -10.68,-11.35 -20.03,-27.71 -6.76,-9.35 -11.43,-20.07 -13.69,-31.39 1.67,-0.99 10.68,11.36 20.03,27.72 6.77,9.36 11.44,20.06 13.69,31.38z"/>
    <path class="fil7" d="M1831.35 8736.89c1.33,1.34 -8.68,13.53 -22.37,27.05 -13.69,13.52 -26.04,23.2 -27.55,21.7 -1.5,-1.5 8.68,-13.52 22.37,-27.04 13.69,-13.52 26.04,-23.21 27.55,-21.71z"/>
    <path class="fil7" d="M1823.17 8582.15c-1.51,1.5 -10.69,-6.18 -20.7,-16.7 -10.02,-10.51 -16.7,-20.7 -15.36,-22.04 1.33,-1.33 10.68,6.18 20.7,16.7 10.02,10.52 16.86,20.7 15.36,22.04z"/>
    <path class="fil7" d="M1848.54 8384.66c1.5,1.33 -6.85,13.18 -18.7,26.21 -11.85,13.02 -22.53,22.87 -24.03,21.53 -1.51,-1.34 6.84,-13.19 18.53,-26.37 11.68,-13.19 22.7,-22.71 24.2,-21.37z"/>
    <path class="fil7" d="M1862.73 8241.42c-1.5,1.5 -13.02,-7.68 -26.04,-20.36 -13.03,-12.69 -22.21,-24.21 -20.87,-25.71 1.34,-1.5 13.02,7.68 26.04,20.53 13.02,12.86 22.21,24.04 20.87,25.54z"/>
    <path class="fil7" d="M1890.78 8047.44c-2.21,10.54 -6.71,20.45 -13.19,29.05 -8.85,15.02 -17.53,26.37 -19.2,25.38 -1.67,-1.01 4.01,-14.03 13.02,-29.05 9.02,-15.03 17.53,-26.38 19.37,-25.38z"/>
    <path class="fil7" d="M1943.36 7867.82c1.84,1 -3.34,14.02 -11.52,29.05 -8.18,15.02 -16.69,26.54 -18.03,25.7 1.59,-10.41 5.53,-20.37 11.52,-29.04 8.18,-15.19 16.2,-26.55 18.03,-25.71z"/>
    <path class="fil7" d="M2003.12 7949.45c0.84,1.84 -7.34,7.51 -18.36,12.85 -11.02,5.34 -20.53,8.02 -21.37,6.18 -0.83,-1.83 7.35,-7.51 18.36,-12.85 11.03,-5.35 20.54,-8.02 21.37,-6.18z"/>
    <path class="fil7" d="M2004.46 8594.5c-27.73,-2.04 -53.99,-13.24 -74.62,-31.89 13,3.94 25.58,9.13 37.56,15.53 12.89,4.17 25.29,9.65 37.06,16.36z"/>
    <path class="fil7" d="M1980.09 8731.06c0,2 -11.85,6 -27.55,9.01 -9.33,2.99 -19.25,3.62 -28.88,1.84 8.35,-5.13 17.78,-8.22 27.55,-9.02 15.69,-3 28.54,-3.84 28.88,-1.83z"/>
    <path class="fil7" d="M1950.21 8965.27c-1.17,1.67 -16.7,-9.18 -31.06,-27.21 -9.56,-10.31 -16.29,-22.89 -19.53,-36.56 9.34,9.91 17.76,20.65 25.21,32.05 9.41,9.76 17.91,20.4 25.38,31.72z"/>
    <path class="fil7" d="M1621.5 9072.44c-1.33,-1.5 7.02,-10.85 18.54,-20.7 11.51,-9.85 22.03,-16.69 23.37,-15.02 1.33,1.67 -7.02,10.68 -18.53,20.7 -11.52,10.01 -22.04,16.52 -23.38,15.02z"/>
    <path class="fil8" d="M1527.02 8561.28c-13.35,-41.57 -38.23,-89.98 -81.8,-90.65 -26.44,1.44 -50,17.18 -61.44,41.07 -11.98,23.15 -17.74,49.06 -16.69,75.12 5.38,185.04 36.91,368.37 93.66,544.55l159.75 0c-1.93,-193.68 -33.45,-385.92 -93.48,-570.09z"/>
    <path class="fil8" d="M1238.39 8299.69c-16.27,-80.13 -85.23,-138.76 -166.94,-141.9 -70.62,12.35 -98,81.8 -106.34,152.91 -8.35,71.12 13.69,141.9 35.55,210.18 69.9,219.02 139.9,438.11 210.01,657.24l198.66 -21.71c-62.1,-293.48 -98.16,-565.59 -170.94,-856.72z"/>
    <path class="fil7" d="M1445.22 8470.63c-5.16,7.1 -9.68,14.64 -13.52,22.54 -8.23,22.57 -10.82,46.82 -7.51,70.61 3,30.38 6.51,66.77 11.68,106.84 5.18,40.07 12.36,83.47 21.37,129.88 18.03,91.82 38.4,173.95 51.25,233.71 6.51,29.89 11.52,54.26 14.52,71.12 1.34,7.84 2.5,14.19 3.34,19.53 0.83,5.34 1,6.84 0,6.84 -0.87,-2.1 -1.54,-4.28 -2,-6.51l-4.67 -19.19c-4.35,-17.87 -10.02,-41.74 -16.7,-70.62 -14.19,-59.76 -35.39,-141.73 -53.42,-233.71 -9.02,-46.08 -16.7,-90.15 -20.87,-130.55 -2.67,-20.03 -4.34,-39.4 -6.01,-57.26 -1.67,-17.86 -3.33,-34.72 -4.17,-50.08 -2.86,-24.49 0.6,-49.31 10.02,-72.12 3.97,-8.14 9.66,-15.32 16.69,-21.03z"/>
    <path class="fil7" d="M1075.12 8152.11c-8.85,10.09 -16.9,20.87 -24.04,32.22 -18.28,31.74 -28.65,67.41 -30.22,104 -0.83,54.26 7.47,108.27 24.54,159.76 16.7,59.1 36.56,124.04 56.76,191.98 39.57,136.22 75.29,259.42 101.5,349.4l30.05 106.17c3.34,12.02 5.84,21.54 7.85,28.88 1.08,3.31 1.81,6.73 2.16,10.19 -1.53,-3.11 -2.75,-6.34 -3.67,-9.68 -2.17,-7.35 -5.34,-16.7 -9.01,-28.72 -7.85,-25.54 -18.87,-61.43 -32.22,-105.33l-103.67 -348.9c-20.03,-68.28 -38.9,-133.56 -56.26,-192.32 -17.01,-52.23 -24.85,-107.02 -23.2,-161.93 2.15,-37.29 13.62,-73.45 33.39,-105.17 6.94,-11.55 15.72,-21.87 26.04,-30.55z"/>
    <path class="fil7" d="M1366.76 9135.21c-1.69,-3.07 -3.19,-6.26 -4.51,-9.52 -2.51,-6.51 -6.67,-15.69 -11.18,-28.04 -9.52,-24.37 -21.71,-60.27 -33.39,-105.34 -11.69,-45.07 -25.04,-100.16 -37.06,-160.26 -12.02,-60.1 -24.04,-127.37 -37.39,-197.49 -13.36,-70.11 -29.05,-136.05 -46.91,-194.98 -15.5,-52.39 -34.86,-103.55 -57.93,-153.08 -15.68,-33.34 -33.59,-65.56 -53.59,-96.49 -6.84,-11.02 -13.02,-19.2 -16.69,-24.88 -2.09,-2.84 -3.94,-5.85 -5.51,-9.01 2.45,2.47 4.67,5.16 6.67,8.01 4.18,5.68 10.69,13.36 17.87,24.38 21.12,30.43 39.81,62.46 55.92,95.82 23.96,49.39 43.87,100.64 59.6,153.25 18.86,64.37 34.34,129.67 46.41,195.65 13.18,69.94 25.54,136.72 36.89,197.65 11.35,60.93 23.37,114.86 35.39,160.1 12.02,45.23 23.2,81.13 31.89,105.67 4,12.52 7.84,21.86 10.01,28.38 1.55,3.25 2.72,6.66 3.51,10.18z"/>
    <path class="fil7" d="M1005 8488.16c0,1.84 -10.35,6.18 -24.2,9.51 -13.86,3.34 -25.38,4.51 -25.71,2.51 -0.33,-2.01 10.18,-6.18 24.04,-9.52 13.85,-3.34 25.37,-4.51 25.87,-2.5z"/>
    <path class="fil7" d="M983.97 8352.61c-10.85,3.05 -22.14,4.29 -33.39,3.67 -11.1,1.57 -22.4,1.22 -33.39,-1.01 10.41,-4.95 21.91,-7.14 33.39,-6.34 11.25,-1.63 22.76,-0.38 33.39,3.68z"/>
    <path class="fil7" d="M1006.34 8228.74c-1.34,1.67 -12.19,-5.34 -24.04,-15.53 -11.85,-10.18 -20.7,-19.7 -19.37,-21.2 1.34,-1.5 12.02,5.34 24.04,15.53 12.02,10.18 20.71,19.69 19.37,21.2z"/>
    <path class="fil7" d="M1066.94 8114.22c2,0 1.33,10.18 1.17,21.7 -0.17,11.52 0,21.37 -2.51,21.7 -2.5,0.34 -5.17,-9.35 -4.84,-21.87 0.34,-12.52 4.68,-22.03 6.18,-21.53z"/>
    <path class="fil7" d="M1190.64 8168.14c1.67,1.17 -3.17,11.02 -10.85,21.87 -7.68,10.85 -15.19,18.86 -16.7,17.69 -1.5,-1.16 3.18,-10.85 10.69,-21.87 7.51,-11.01 15.19,-18.86 16.86,-17.69z"/>
    <path class="fil7" d="M1270.94 8308.2c0,2 -9.52,7.85 -22.87,13.35 -13.36,5.51 -25.05,8.35 -25.71,6.51 -0.67,-1.83 9.51,-7.84 22.87,-13.18 13.35,-5.35 25.04,-9.02 25.71,-6.68z"/>
    <path class="fil7" d="M1319.68 8451.27c-8.83,7.66 -19.76,12.48 -31.38,13.85 -11.12,3.59 -23.04,4.01 -34.39,1.17 10.71,-4.24 21.93,-7.06 33.39,-8.35 10.48,-3.54 21.35,-5.77 32.38,-6.67z"/>
    <path class="fil7" d="M1095.99 8410.53c-1.84,0 0,-10.51 3.17,-22.2 3.17,-11.69 8.17,-20.53 10.02,-19.87 1.83,0.67 0,10.52 -3.18,22.21 -3.17,11.68 -7.18,20.53 -10.01,19.86z"/>
    <path class="fil7" d="M1127.2 8590.82c0.67,-10.51 3.76,-20.73 9.02,-29.87 6.84,-15.7 13.85,-27.72 15.69,-26.88 -0.67,10.51 -3.76,20.75 -9.01,29.88 -6.85,15.69 -13.86,28.04 -15.7,26.87z"/>
    <path class="fil7" d="M1050.08 8640.24c-9.84,-0.24 -19.53,-2.39 -28.55,-6.34 -15.19,-4.85 -27.54,-9.18 -27.04,-11.19 9.93,-1.27 20.03,0.17 29.21,4.17 15.53,4.84 27.21,11.52 26.38,13.36z"/>
    <path class="fil7" d="M1094.48 8787.14c1.17,1.68 -7.34,9.69 -18.86,18.03 -11.52,8.35 -22.2,13.69 -23.37,12.19 -1.17,-1.5 7.34,-9.85 19.03,-18.2 11.68,-8.34 22.03,-13.69 23.2,-12.02z"/>
    <path class="fil7" d="M1130.21 8933.72c0,1.83 -10.02,6.17 -23.54,9.34 -13.52,3.18 -24.71,4.35 -25.21,2.51 -0.5,-1.84 10.02,-6.18 23.54,-9.52 13.52,-3.34 24.71,-4.34 25.21,-2.33z"/>
    <path class="fil7" d="M1323.69 8573.8c1,1.67 -8.02,8.85 -21.04,13.69 -13.02,4.84 -24.7,5.51 -25.04,3.67 -0.33,-1.84 10.02,-5.68 22.37,-10.52 12.36,-4.84 22.71,-8.68 23.71,-6.84z"/>
    <path class="fil7" d="M1351.23 8801.67c-0.83,1.83 -11.52,-1.34 -23.87,-7.18 -12.35,-5.85 -21.7,-12.02 -20.87,-13.86 0.84,-1.83 11.69,1.51 24.04,7.18 12.35,5.68 21.7,12.02 20.7,13.86z"/>
    <path class="fil7" d="M1400.15 8964.93c-11.06,-0.55 -21.87,-3.45 -31.72,-8.51 -16.7,-6.51 -29.55,-13.36 -28.88,-15.36 11,0.55 21.75,3.47 31.55,8.51 16.69,6.52 29.71,13.36 29.05,15.36z"/>
    <path class="fil7" d="M1138.06 9092.81c-1.01,-1.84 12.01,-10.52 27.04,-22.37 15.02,-11.85 26.71,-22.54 28.21,-21.04 1.5,1.51 -8.01,14.36 -23.71,26.71 -8.73,8.43 -19.66,14.22 -31.54,16.7z"/>
    <path class="fil7" d="M1266.93 9009.34c-2,0 -4.84,-10.68 -9.85,-23.37 -5.01,-12.69 -10.02,-22.87 -8.35,-24.04 1.67,-1.17 10.02,7.51 15.19,21.36 5.18,13.86 5.01,26.05 3.01,26.05z"/>
    <path class="fil7" d="M1232.38 8813.52c-1.17,1.67 -9.52,-2.34 -18.71,-8.85 -9.18,-6.51 -15.52,-13.19 -14.35,-14.86 1.17,-1.66 9.51,2.34 18.7,8.85 9.18,6.51 16.02,13.19 14.36,14.86z"/>
    <path class="fil7" d="M1532.86 8506.02c1.17,1.67 -7.01,9.68 -18.2,17.86 -11.18,8.19 -21.2,13.69 -22.36,12.02 -1.17,-1.67 6.84,-9.51 18.02,-17.86 11.19,-8.35 22.54,-13.69 22.54,-12.02z"/>
    <path class="fil7" d="M1578.77 8629.89c0,2 -12.52,4.67 -28.21,3 -15.69,-1.66 -27.55,-7.01 -27.05,-8.84 0.5,-1.84 12.86,0 27.88,1.5 15.02,1.5 27.21,2.34 27.38,4.34z"/>
    <path class="fil7" d="M1383.95 8657.77c0,1.84 -11.18,6.01 -26.54,7.01 -15.36,1 -27.38,-1.5 -27.21,-3.5 0.17,-2.01 12.19,-2.68 26.88,-3.68 14.68,-1 26.54,-1.84 26.87,0.17z"/>
    <path class="fil7" d="M1400.81 8540.58c0,2 -12.02,2.34 -25.04,-3.84 -13.02,-6.18 -20.53,-15.03 -19.2,-16.69 1.34,-1.67 10.35,4.67 22.21,10.01 11.85,5.34 22.2,8.51 22.03,10.52z"/>
    <path class="fil7" d="M1595.46 8762.94c-1,1.67 -13.18,-4.01 -27.21,-12.86 -14.02,-8.84 -24.37,-16.69 -23.2,-19.02 1.17,-2.34 13.19,4.17 27.21,12.85 14.02,8.68 24.37,17.36 23.2,19.03z"/>
    <polygon class="fil6" points="1031.55,9110.5 2070.74,9110.5 2070.74,9294.63 1031.55,9294.63 "/>
    <polygon class="fil6" points="1109.18,9258.24 1235.55,9808.64 1854.88,9808.64 1993.11,9258.24 "/>
    <path class="fil7" d="M2070.24 9294.97c0,2 -233.72,3.67 -523.52,3.67 -289.81,0 -523.52,-1.67 -523.52,-3.67 0,-2 233.71,-3.67 523.52,-3.67 289.8,0 523.52,1.83 523.52,3.67z"/>
    <path class="fil7" d="M1492.3 8661.77c-1.68,1.01 -8.85,-7.18 -15.86,-18.52 -7.02,-11.36 -11.35,-21.37 -9.68,-22.38 1.66,-1 8.84,7.18 15.85,18.53 7.02,11.36 11.36,21.2 9.69,22.37z"/>
    <path class="fil7" d="M1492.63 8809.85c-0.5,-9.6 1.38,-19.18 5.51,-27.88 4.84,-14.86 10.51,-26.38 12.35,-25.71 0.52,9.67 -1.38,19.3 -5.51,28.05 -5.51,14.69 -10.35,26.21 -12.35,25.54z"/>
    <path class="fil7" d="M1543.38 8965.44c-1.84,0.99 -9.52,-11.53 -16.7,-27.72 -5.76,-9.4 -9.41,-19.93 -10.68,-30.88 1.84,-1 9.51,11.52 16.69,27.71 5.76,9.4 9.4,19.93 10.69,30.89z"/>
    <path class="fil7" d="M1433.7 9090.64c-1.5,-1.34 4.67,-10.85 13.86,-21.54 9.18,-10.68 17.69,-18.03 19.36,-16.69 1.67,1.34 -4.67,11.02 -13.85,21.53 -9.19,10.52 -17.87,18.87 -19.37,16.7z"/>
    <path class="fil7" d="M1410.66 8863.44c0,2 -10.35,1.83 -22.37,0 -12.02,-1.84 -21.37,-5.35 -21.03,-7.35 0.33,-2.01 10.35,-1.83 22.2,0 11.86,1.84 21.54,5.34 21.2,7.35z"/>
    <polygon class="fil3" points="2561.7,7844.78 5026.03,7844.78 5026.03,9809.97 2561.7,9809.97 "/>
    <path class="fil9" d="M4806.9 7844.78l-857.05 0 858 -2.84c-0.32,0.94 -0.64,1.9 -0.95,2.84z"/>
    <path class="fil10" d="M4267.72 8955.67l-306.75 -112.27 -38.18 106.99c-9.83,-26.49 -16.37,-54.17 -19.41,-82.45 -18.25,-122.7 -4.84,-248.02 38.9,-364.09 24.7,-65.61 58.92,-127.87 78.79,-195.15 19.87,-67.28 23.54,-143.57 -11.35,-204.5 -32.05,-55.92 -92.32,-91.48 -154.76,-107.17 -62.43,-15.7 -127.7,-15.53 -192.31,-16.7 -311.34,-5.84 -631.35,-28.04 -921.49,-131.54l1208.69 -4.01 857.05 0c-121.99,363.56 -327.4,741.39 -517.39,1074.41 -6.86,12.04 -14.11,24.31 -21.79,36.48z"/>
    <path class="fil8" d="M3401.4 9799.45c-2.51,0 -4.35,-435.53 -4.35,-972.74 0,-537.21 1.84,-972.91 4.35,-972.91 2.5,0 4.34,435.54 4.34,972.91 0,537.37 -2,972.74 -4.34,972.74z"/>
    <path class="fil6" d="M4411.2 6392.42c-7.34,-49.08 -153.91,-211.01 -153.91,-211.01 0,0 -73.12,-293.98 -95.16,-380.62 -7.33,-25.05 -18.06,-48.98 -31.88,-71.12 -51.84,-86.33 -125.56,-157.45 -213.68,-206.16l-202.84 -114.02 -48.4 -107.84 -487.13 -250.41 -132.05 233.71c0,0 -320.69,101.84 -363.09,174.12 -42.4,72.28 21.03,1048.37 21.03,1048.37 0,0 -133.54,562.91 -162.42,679.44 -28.88,116.52 9.01,255.41 9.01,255.41l238.89 -299.65c74.29,-93.15 237.22,-136.06 354.24,-134.39l1000.12 4.51 -40.23 -280.12 809.15 156.59c0,0 139.06,-271.44 150.25,-276.79 11.18,-5.34 -651.9,-220.02 -651.9,-220.02z"/>
    <path class="fil5" d="M3157.5 5375.94c-7.01,-7.18 56.43,207.33 136.22,425.85 42.94,118.1 64.79,242.78 64.61,368.44l0 791.28 479.44 -32.55 -71.61 -521.18c0,0 -58.44,-336.22 -74.79,-464.09 -15.03,-116.86 -66.78,-434.04 -66.78,-434.04 0,0 -266.26,70.78 -467.09,-133.71z"/>
    <path class="fil7" d="M4221.56 6588.74c-0.73,-4.02 -0.73,-8.16 0,-12.19 1.1,-10.92 3.22,-21.7 6.35,-32.22 10.13,-35.12 28.96,-67.11 54.75,-92.98 25.93,-25.81 57.89,-44.76 92.99,-55.09 10.51,-3.12 21.3,-5.24 32.21,-6.34 3.98,-0.76 8.05,-0.76 12.02,0 0,1.5 -16.69,3.34 -42.4,12.18 -67.61,23.21 -120.69,76.41 -143.73,144.07 -8.85,25.87 -10.69,42.57 -12.19,42.57z"/>
    <path class="fil7" d="M4246.27 6399.1c22.27,-13.07 47.48,-20.37 73.29,-21.2 25.55,-3.54 51.61,-0.44 75.62,9.01 0,2.67 -33.39,-3.84 -74.96,0 -41.55,3.84 -72.95,14.69 -73.95,12.19z"/>
    <path class="fil11" d="M2961.55 7008.62c-59.97,0 -119.8,-6.28 -178.49,-18.73 -64.42,-18.49 -121.81,-55.77 -164.92,-106.97 206.72,46.61 430.52,78.59 430.52,78.59l17.81 -75.24c76.69,15.9 152.8,34.88 228.09,56.88 -0.57,19.41 -13.81,36.17 -32.56,41.23 -8.69,2.19 -17.59,3.29 -26.47,3.29 -9.97,0 -19.93,-1.37 -29.62,-4.12 -18.18,-5.23 -37.01,-7.93 -55.92,-8.01 -28.22,1.66 -53.42,17.02 -80.63,24.87 -22.44,5.44 -45.41,8.18 -68.46,8.18 -4.66,0 -9.34,-0.12 -14.01,-0.34 -8.45,0.26 -16.89,0.37 -25.34,0.37z"/>
    <path class="fil12" d="M4024.74 6891.4l-116.85 -124.87 -242.9 -60.94c0,0 -221.69,66.78 -227.03,66.78 -5.34,0 -192.99,-51.42 -192.99,-51.42l-65.6 240.73 338.05 23.2 385.96 -15.52c0,0 20.2,-18.7 8.18,-31.55 -12.02,-12.86 64.6,21.7 73.62,22.03 9.01,0.34 26.39,7.35 38.39,-7.01 8.19,-10.68 19.2,-42.24 1.17,-61.43z"/>
    <path class="fil13" d="M3911.56 6936.97c-13.12,-2.47 -25.96,-6.18 -38.4,-11.02 -23.37,-7.34 -55.92,-16.69 -92.15,-26.7 -36.22,-10.02 -69.61,-16.7 -93.82,-20.87 -13.23,-1.74 -26.27,-4.81 -38.89,-9.18 13.37,-0.59 26.76,0.41 39.9,3 31.93,4.45 63.58,10.7 94.82,18.7 31.28,7.92 62.04,17.74 92.15,29.38 12.78,3.99 25.02,9.62 36.39,16.69z"/>
    <path class="fil13" d="M4024.74 6891.4c-18.19,-4.6 -36.14,-10.17 -53.75,-16.69 -33.39,-11.03 -78.96,-24.71 -130.21,-38.9 -51.25,-14.19 -96.66,-30.39 -131.21,-32.39 -18.62,-0.95 -37.28,-0.23 -55.76,2.17 4.52,-2.49 9.43,-4.17 14.52,-5.01 13.64,-2.93 27.63,-4.07 41.57,-3.33 35.72,0 83.47,15.19 133.55,30.21 50.08,15.02 97.17,28.88 129.87,41.57 16.7,6.18 29.22,11.85 38.25,15.86 4.67,1.5 9.12,3.7 13.17,6.51z"/>
    <path class="fil6" d="M2683.06 5459.07c0,0 -174.45,121.36 -217.02,295.98 -42.57,174.62 -226.36,888.28 -188.64,994.95 37.73,106.68 771.26,211.51 771.26,211.51l86.97 -367.26 -372.61 -102c0,0 4.85,-339.72 9.52,-480.45 4.68,-140.73 -89.48,-552.73 -89.48,-552.73z"/>
    <polygon class="fil5" points="3130.96,6649.5 3250.98,6679.05 3178.7,6955.84 3060.84,6936.97 "/>
    <path class="fil7" d="M2274.73 6712.27c0,0 0,6.18 1.84,16.7 4.05,16.14 12.97,30.65 25.54,41.56 31.89,29.72 92.82,54.43 169.94,68.28 35.23,11.69 75.46,20.87 118.36,30.55 42.91,9.68 89.31,19.53 138.06,29.38 97.66,20.04 205.67,41.07 320.19,62.44l-5.01 3.17c8.18,-33.39 16.69,-69.95 25.87,-106.51 20.54,-83.46 40.57,-165.6 59.43,-242.89l3.01 5.01 -330.37 -93.66c-45.61,-19.21 -94.97,-27.87 -144.4,-25.37 -37.56,2.09 -74.47,10.8 -109.01,25.71 -21.96,9.5 -42.92,21.13 -62.6,34.72l-15.19 11.02c-1.66,1.35 -3.46,2.52 -5.35,3.51 0,0 1.5,-1.67 4.67,-4.35 3.18,-2.67 8.02,-6.84 14.7,-11.85 19.39,-14.37 40.26,-26.64 62.27,-36.56 34.77,-15.75 72.08,-25.07 110.17,-27.54 50.3,-3.21 100.67,5.14 147.24,24.37l331.37 92.82 4.01 1 -1 4.01c-18.86,77.29 -38.73,158.75 -59.1,243.06 -9.01,36.39 -17.69,72.45 -26.04,106.34l-1 4 -4.01 0c-114.52,-21.53 -222.36,-42.9 -320.02,-63.27 -48.74,-10.18 -94.98,-20.36 -138.05,-30.38 -43.08,-10.01 -83.47,-19.53 -118.87,-31.71 -78.12,-14.86 -139.05,-40.57 -171.27,-71.79 -12.78,-11.49 -21.55,-26.76 -25.04,-43.57 -1.2,-5.99 -1.32,-12.15 -0.34,-18.2z"/>
    <path class="fil7" d="M2783.39 6517.12c-1,1.17 -13.52,-10.35 -35.89,-25.2 -58.58,-39.23 -127.83,-59.45 -198.32,-57.93 -27.04,0 -43.57,3.67 -43.9,2.19 13.98,-5.08 28.69,-7.83 43.56,-8.2 72.44,-5.24 144.34,15.65 202.67,58.92 12.22,8.25 22.98,18.46 31.88,30.22z"/>
    <path class="fil7" d="M2832.31 5919.48c0.6,7.45 0.6,14.93 0,22.37 0,14.53 -1.51,35.23 -3.51,60.94 -4.17,51.25 -11.69,121.86 -25.21,199.32 -10.56,66.28 -26.02,131.66 -46.24,195.65 -4.01,12.19 -8.35,23.21 -11.85,33.39l-10.68 24.04c-3.13,6.84 -7,13.34 -11.53,19.36 2.11,-7.14 4.9,-14.09 8.35,-20.7 2.84,-7.17 5.84,-15.35 9.35,-24.37 3.51,-9.01 6.84,-20.7 10.52,-33.39 18.24,-64.22 32.78,-129.43 43.57,-195.32 13.35,-77.12 21.87,-147.4 27.54,-198.48 2.51,-24.21 4.67,-44.41 6.35,-60.44 0.21,-7.56 1.33,-15.07 3.34,-22.37z"/>
    <path class="fil7" d="M3257.66 5730.35c0,0 -1.67,-4.51 -5.67,-12.36 -5.93,-11.12 -14.61,-20.55 -25.21,-27.38 -15.88,-10.9 -35.91,-13.85 -54.26,-8.01 -23.35,8 -40.74,27.73 -45.74,51.92l-2.33 11.85 -5.18 -11.02c-19.53,-41.9 -36.53,-84.93 -50.91,-128.88 -25.51,-73.18 -38.27,-150.2 -37.73,-227.69 0,-14.86 2,-28.22 2.83,-40.07 0.84,-11.86 3.51,-21.7 5.35,-29.72 1.75,-8.41 4.22,-16.69 7.34,-24.71 -5.69,31.21 -8.88,62.79 -9.51,94.5 1.38,76.64 14.84,152.57 39.89,225.03 14.41,43.58 31.12,86.38 50.08,128.2l-7.51 1.01c5.86,-26.73 25.53,-48.3 51.59,-56.6 20.15,-6.09 41.98,-2.3 58.93,10.19 10.85,7.63 19.39,18.07 24.7,30.21 1.47,3.21 2.53,6.56 3.17,10.02 0.34,2.17 0.51,3.51 0.17,3.51z"/>
    <path class="fil7" d="M3664.66 5767.91c-1.79,-6.52 -3.07,-13.16 -3.84,-19.87 -3.64,-18.4 -4.83,-37.21 -3.51,-55.92 3.76,-28.8 18.1,-55.16 40.24,-73.96 13.68,-11.26 30.84,-17.44 48.57,-17.53 19.55,-0.21 38.23,8.13 51.08,22.88l-7.34 4.33 -15.86 -39.89c-31.22,-78.63 -58.93,-150.25 -78.63,-201.83l-22.87 -61.6c-3.17,-7.36 -5.59,-15.03 -7.17,-22.87 4.1,6.91 7.58,14.17 10.34,21.7 6.68,16.69 15.19,36.23 25.55,60.6 21.2,51.25 50.08,122.2 80.96,200.32l15.69 40.07 10.18 25.71 -16.69 -21.54c-11.16,-12.94 -27.47,-20.28 -44.57,-20.03 -15.89,-0.1 -31.33,5.26 -43.74,15.19 -20.85,17.45 -34.77,41.79 -39.23,68.61 -1.78,18.28 -1.45,36.71 1,54.93 0.79,6.87 0.74,13.83 -0.16,20.7z"/>
    <path class="fil7" d="M3974.33 5809.31c2.33,0 40.06,253.41 84.3,566.75 44.24,313.34 77.96,567.59 75.62,567.59 -2.34,0 -40.06,-253.41 -84.3,-567.59 -44.24,-314.18 -77.96,-566.42 -75.62,-566.75z"/>
    <path class="fil11" d="M3114.93 5797.79c-23.59,-55.42 -37.43,-114.47 -40.93,-174.54 13.12,38.13 28.24,75.54 45.27,112.1l5.18 11.02 2.33 -11.85c5,-24.19 22.39,-43.92 45.74,-51.92 6.2,-1.97 12.57,-2.94 18.93,-2.94 2.81,0 5.62,0.19 8.38,0.57 18.27,4.97 34.54,15.99 45.98,31.59 15.46,21.39 25.74,46.07 30.05,72.11 -21.19,-22.19 -49.63,-40.85 -78.85,-40.85 -5.09,0 -10.19,0.57 -15.3,1.79 -28.38,6.68 -48.58,30.38 -66.78,52.92zm7.34 -75.46c-9.66,-21.79 -18.71,-43.82 -27.15,-66.11l27.64 64.86c-0.17,0.42 -0.31,0.83 -0.49,1.25zm4.33 -9.45c6.09,-14.39 17.66,-25.62 31.9,-31.38 -13.57,7.08 -24.66,18.03 -31.9,31.38z"/>
    <path class="fil14" d="M3124.45 5746.37l-5.18 -11.02c-17.03,-36.56 -32.15,-73.97 -45.27,-112.1 -0.29,-4.69 -0.48,-9.39 -0.64,-14.1l2.17 1.17 19.59 45.9c8.44,22.29 17.49,44.32 27.15,66.11 0.18,-0.42 0.32,-0.83 0.49,-1.25l0.68 1.59c0.77,-3.39 1.84,-6.67 3.16,-9.79 7.24,-13.35 18.33,-24.3 31.9,-31.38 6.4,-2.59 13.32,-4.08 20.54,-4.24 7.11,0.12 14.08,1.13 20.79,2.97 -2.76,-0.38 -5.57,-0.57 -8.38,-0.57 -6.36,0 -12.73,0.97 -18.93,2.94 -23.35,8 -40.74,27.73 -45.74,51.92l-2.33 11.85z"/>
    <path class="fil7" d="M2791.41 5792.61c-1.51,0 -1.01,-17.53 -6.01,-44.74 -6.86,-35.45 -20.65,-69.21 -40.57,-99.33 -11.22,-16.3 -24.02,-31.45 -38.23,-45.24 -11.77,-11.15 -24.57,-21.15 -38.23,-29.88 -23.54,-14.85 -40.06,-20.53 -39.4,-22.03 4.1,0.3 8.12,1.31 11.86,3 4.67,1.25 9.2,2.99 13.52,5.18 5.77,2.48 11.35,5.37 16.69,8.68 14.53,8.19 28.11,17.94 40.57,29.04 14.97,13.94 28.36,29.52 39.9,46.41 20.7,31 34.15,66.26 39.4,103.17 1.67,11.05 2.21,22.22 1.67,33.39 0,8.01 -0.51,12.35 -1.17,12.35z"/>
    <path class="fil12" d="M3760.48 4602.18c-19.77,-185.37 -178.57,-324.48 -364.93,-319.69l-18.53 0c-199.49,16.69 -296.64,195.49 -274.27,394.31l54.75 699.47 23.2 28.38c107.13,131.6 289.44,174.57 444.06,104.67l-15.36 -225.04c0,0 191.31,-34.71 188.64,-226.7 -1.17,-93.15 -19.2,-283.79 -37.56,-455.4z"/>
    <path class="fil13" d="M3610.9 5283.78c-89.06,2.49 -176.97,-20.7 -253.24,-66.77 0,0 62.6,136.72 253.74,114.52l-0.5 -47.75z"/>
    <path class="fil7" d="M3699.71 4760.1c0.41,14.81 -10.91,27.31 -25.71,28.38 -14.49,1.44 -27.4,-9.16 -28.84,-23.66l-0.04 -0.38c-0.48,-14.84 10.89,-27.39 25.71,-28.38 14.39,-1.52 27.3,8.92 28.82,23.32l0.06 0.72z"/>
    <path class="fil7" d="M3711.9 4655.76c-2.17,3.34 -23.87,5.68 -50.08,19.7 -26.21,14.03 -41.57,31.56 -45.07,31.22 -3.51,-0.33 0,-4.84 6.51,-12.69 9.98,-11.07 21.85,-20.28 35.05,-27.21 12.61,-7.04 26.43,-11.63 40.74,-13.52 9.84,-1 14.02,0.84 12.85,2.5z"/>
    <path class="fil7" d="M3422.6 4774.62c0.66,14.91 -10.8,27.58 -25.71,28.38 -14.39,1.53 -27.3,-8.91 -28.82,-23.32l-0.06 -0.72c-0.48,-14.84 10.9,-27.39 25.71,-28.38 14.4,-1.51 27.29,8.92 28.81,23.33l0.07 0.71z"/>
    <path class="fil7" d="M3419.26 4695.99c-3.84,0 -21.71,-11.18 -50.08,-18.19 -28.38,-7.01 -51.92,-5.51 -54.42,-7.85 -2.51,-2.33 3,-3.33 13.18,-4.17 14.88,-0.93 29.8,0.47 44.24,4.17 13.98,3.33 27.3,8.97 39.4,16.7 6.68,5.34 8.68,9.01 7.68,9.34z"/>
    <path class="fil7" d="M3534.11 4925.2c15.48,-5.15 31.5,-8.48 47.75,-9.85 7.51,0 14.52,-2.67 15.69,-7.84 0.47,-7.73 -1.46,-15.43 -5.51,-22.04l-23.87 -56.92c-33.39,-80.8 -57.1,-147.41 -53.76,-148.58 3.34,-1.17 33.39,63.1 65.61,143.9 8.01,20.04 15.69,39.06 22.87,57.26 4.93,8.95 6.59,19.35 4.68,29.38 -2.11,5.46 -6.6,9.63 -12.19,11.35 -4.11,1.29 -8.38,2.02 -12.69,2.17 -16.08,2.47 -32.4,2.88 -48.58,1.17z"/>
    <path class="fil7" d="M3419.26 4582.15c-3.34,7.84 -32.56,2.66 -66.78,5 -34.22,2.34 -63.27,10.69 -66.77,3.18 -2,-3.51 3.34,-10.85 14.86,-18.03 31.4,-17.88 69.31,-20.22 102.66,-6.35 11.02,5.85 17.03,12.36 16.03,16.2z"/>
    <path class="fil7" d="M3711.23 4588.66c-6.51,6.84 -31.88,0 -62.26,0 -30.39,0 -56.26,5.17 -62.27,-1.84 -2.67,-3.34 1.33,-10.18 12.52,-16.69 15.42,-8.08 32.67,-12.06 50.08,-11.52 17.54,-0.12 34.82,4.36 50.08,13.02 11.02,6.84 14.69,13.86 11.85,17.03z"/>
    <path class="fil7" d="M3816.4 4431.57c-3.5,-18.13 -19.96,-30.82 -38.39,-29.55 9.58,-2.74 18.56,-7.33 26.37,-13.52 7.95,-6.39 11.51,-16.8 9.19,-26.71 -5.01,-14.86 -24.04,-18.03 -39.07,-22.21 -19.71,-5.72 -37.19,-17.37 -50.08,-33.38 -18.2,-23.04 -25.21,-53.09 -41.07,-77.96 -37.82,-59.32 -116.57,-76.71 -175.88,-38.88 -7.75,4.94 -14.93,10.7 -21.43,17.18 -51.11,-52.54 -135.14,-53.69 -187.68,-2.59 -10.5,10.2 -19.23,22.08 -25.84,35.14 -78.88,-32.91 -169.49,4.37 -202.4,83.27 -11.35,27.21 -14.69,57.1 -9.61,86.17l119.52 73.29c3.8,-35.48 35.61,-61.17 71.1,-57.4 2.59,0.29 5.16,0.72 7.7,1.31 36.06,10.51 59.1,52.25 96.49,55.08 29.22,2.17 54.09,-20.36 82.3,-27.87 34.22,-9.18 70.45,4.5 101.33,21.86 30.89,17.36 60.43,39.07 94.82,47.75 41.09,8.23 83.72,3.16 121.7,-14.52 16.86,-5.93 32.24,-15.43 45.07,-27.88 12.82,-12.67 18.75,-30.77 15.86,-48.58z"/>
    <path class="fil7" d="M3200.24 4425.39l547.55 -3c-19.75,-36.8 -48.46,-68.03 -83.47,-90.82 -72.72,-53.14 -160.34,-81.93 -250.4,-82.3 -89.31,0 -267.94,114.69 -330.87,177.96 -50.08,50.08 -48.75,93.31 -48.75,93.31 -6.35,71.12 35.56,150.25 53.42,219.86 9.02,35.73 27.88,143.9 27.88,143.9 30.05,-0.83 40.57,-25.2 35.22,-54.92l-8.85 -116.86c60.72,-50.64 80.42,-135.45 48.25,-207.67 -7.51,-10.35 -25.54,-58.59 10.02,-79.46z"/>
    <path class="fil7" d="M3134.13 4704.84c-27.88,-96.82 -53.59,-200.32 -23.87,-297.14l-16.7 0 -6.68 4.84c-40.11,-13.47 -83.55,8.11 -97.04,48.23 -7.94,23.65 -3.89,49.69 10.91,69.79 -33.69,-0.3 -62.32,24.54 -66.78,57.93 0.07,22.48 6.23,44.52 17.86,63.77 11.65,19.3 18.8,40.98 20.87,63.43 1.45,23.08 -13.9,43.86 -36.39,49.25 10.88,23.47 36.74,36.09 61.93,30.22 -7.8,19.03 -20.81,35.47 -37.56,47.41 35.73,24.37 84.64,16.69 123.37,-2.84 24.02,-9.67 43.63,-27.85 55.09,-51.08 10.68,-26.88 2.67,-56.43 -5.01,-83.81z"/>
    <path class="fil12" d="M3125.11 4817.86c-3.34,-1.33 -133.55,-35.56 -125.37,95.49 8.18,131.05 137.73,96.49 137.73,92.65 0,-3.84 -12.36,-188.14 -12.36,-188.14z"/>
    <path class="fil13" d="M3106.08 4958.42c0,0 -2.17,1.67 -6.01,3.68 -5.19,2.56 -11.17,3.05 -16.69,1.33 -14.19,-4.34 -27.04,-25.54 -29.05,-49.25 -1,-11.33 0.54,-22.73 4.51,-33.38 2.17,-8.57 8.41,-15.5 16.69,-18.53 5.34,-1.65 11.12,0.63 13.86,5.5 2,3.51 1.17,6.18 2,6.52 0.84,0.33 2.67,-2.51 1.34,-7.85 -1.07,-3.12 -3.05,-5.84 -5.68,-7.85 -3.74,-2.6 -8.38,-3.57 -12.85,-2.66 -10.8,2.83 -19.38,11.03 -22.71,21.7 -4.81,11.71 -6.81,24.42 -5.84,37.05 2.51,26.38 16.7,50.09 36.73,54.76 7.21,1.59 14.72,-0.13 20.53,-4.67 3.17,-3.18 3.67,-6.18 3.17,-6.35z"/>
    <path class="fil8" d="M2989.06 4709.18c0,0 -3.68,-5 -2.51,-15.35 2.84,-14.23 11.82,-26.45 24.54,-33.39 18.82,-8.95 39.29,-13.9 60.1,-14.52 23.62,0 45.85,-11.29 59.77,-30.38 10.9,-21.24 14.54,-45.47 10.35,-68.95 -3.17,-22.04 -9.02,-41.9 -11.86,-59.1 -5.29,-18.43 -4.99,-37.99 0.84,-56.26 0.11,18.42 2.19,36.78 6.18,54.76 3.67,16.69 10.18,36.22 14.18,59.43 5.05,25.68 1.16,52.3 -11.01,75.45 -7.25,11.98 -18.22,21.24 -31.22,26.38 -11.65,4.32 -23.84,7.01 -36.22,8.02 -19.75,0.11 -39.29,3.97 -57.6,11.35 -11.58,5.94 -20.3,16.29 -24.2,28.71 -0.76,4.59 -1.21,9.22 -1.34,13.85z"/>
    <path class="fil8" d="M2957.34 4652.26c0,0 -2.84,-3.67 -4.01,-11.85 -1.35,-11.54 0.94,-23.21 6.52,-33.39 3.83,-7.23 9.11,-13.61 15.52,-18.7 7.5,-5.63 16.08,-9.6 25.21,-11.68 8.84,-1.91 17.3,-5.41 24.87,-10.35 6.8,-6.08 10.44,-14.95 9.85,-24.04 0,-9.85 -1.17,-20.37 -0.83,-30.89 0.15,-10.05 1.25,-20.05 3.34,-29.88 3.37,-16.59 9.76,-32.45 18.86,-46.74 5.88,-10.65 16.74,-17.63 28.88,-18.53 8.68,0 12.35,4.01 12.02,4.34 -0.33,0.33 -4.34,-1.5 -11.69,0 -10.18,2.17 -18.74,8.97 -23.2,18.36 -7.53,14.01 -12.82,29.1 -15.69,44.74 -1.62,9.27 -2.46,18.65 -2.51,28.05 0,9.68 1.5,20.03 1,31.38 0.5,12.04 -4.62,23.64 -13.85,31.39 -8.62,5.77 -18.33,9.7 -28.55,11.51 -15.37,2.64 -28.88,11.76 -37.06,25.05 -6.86,12.6 -9.88,26.94 -8.68,41.23z"/>
    <path class="fil8" d="M3724.59 4306.2c0.83,0 -9.85,7.18 -27.04,-0.84 -9.69,-5.26 -18.15,-12.47 -24.88,-21.2 -8.28,-10.86 -18.6,-19.98 -30.38,-26.88 -31.32,-17.61 -70.08,-15.06 -98.83,6.51 -16.7,11.69 -30.55,28.22 -50.08,41.91 -9.93,7.36 -21.3,12.53 -33.39,15.19 -12.5,2.18 -25.35,0.98 -37.23,-3.51 -23.7,-8.51 -42.4,-23.04 -62.76,-30.38 -19.67,-7.55 -40.55,-11.33 -61.61,-11.19 -36.25,-0.04 -71.49,12.01 -100.16,34.23 -19.15,14.95 -35.04,33.64 -46.74,54.92 -8.18,15.19 -11.19,24.54 -12.02,24.21 -0.84,-0.34 0,-2.51 1.34,-7.02 1.88,-6.49 4.24,-12.85 7.01,-19.03 10.78,-22.73 26.46,-42.8 45.9,-58.76 29.3,-23.96 65.85,-37.31 103.68,-37.89 22.28,-0.59 44.45,3.22 65.27,11.18 22.03,8.02 41.07,22.54 62.6,30.05 10.2,3.92 21.28,5.02 32.05,3.17 10.45,-2.4 20.28,-6.94 28.88,-13.36 17.53,-12.51 32.22,-29.04 50.08,-41.4 16.51,-12.37 36.63,-18.99 57.26,-18.86 17.6,0.13 34.86,4.84 50.08,13.69 12.19,7.78 22.79,17.79 31.22,29.55 5.84,8.58 13.41,15.86 22.2,21.37 8.28,4.92 18.15,6.47 27.55,4.34z"/>
    <path class="fil7" d="M3461.32 4959.59c4.18,0 8.85,27.05 36.23,42.9 27.38,15.86 56.59,7.85 57.6,11.69 1,3.84 -5.85,6.68 -18.37,9.02 -16.36,3.03 -33.27,0.19 -47.74,-8.02 -13.86,-8.03 -24.14,-21.03 -28.71,-36.39 -3.01,-11.52 -1.01,-19.03 0.99,-19.2z"/>
    <path class="fil6" d="M5188.8 7568c-50.83,-43.67 -116.77,-65.61 -183.63,-61.1l-112.85 358.41c82.63,3.68 165.1,46.25 244.9,24.38 65.07,-20.07 112.54,-76.09 121.7,-143.57 7.04,-67.24 -19.12,-133.73 -70.12,-178.12z"/>
    <path class="fil1" d="M5006.51 7498.72c0,-2.84 12.18,-5.18 33.38,-5.01 31.55,0.57 62.75,6.51 92.32,17.53 45.15,17.61 84.25,47.93 112.51,87.31 17.28,23.35 30,49.74 37.56,77.79 8.18,30.68 9.1,62.87 2.68,93.99 -6.21,31.53 -20.29,60.98 -40.9,85.64 -19.76,22.45 -44.76,39.66 -72.79,50.08 -45.54,16.1 -94.67,19.28 -141.89,9.18 -30.4,-5.95 -60.07,-15.19 -88.49,-27.55 -19.86,-8.51 -30.38,-14.85 -29.37,-17.69 1,-2.84 13.02,-2 33.38,1.5 20.37,3.5 51.25,10.02 87.98,13.36 41.65,4.62 83.8,-1.12 122.7,-16.7 21.33,-9.01 40.21,-22.97 55.09,-40.73 15.59,-19.42 26.26,-42.33 31.05,-66.78 9.26,-48.95 -1.77,-99.57 -30.55,-140.22 -23,-34.84 -54.64,-63.14 -91.82,-82.14 -26.34,-12.43 -53.93,-22.05 -82.3,-28.71 -19.2,-4.34 -30.88,-7.85 -30.54,-10.85z"/>
    <path class="fil6" d="M3960.97 8843.4l-245.39 687.62 851.11 308.67 2.98 0c21.51,-84.98 -357.96,-406.33 -357.96,-406.33l175.29 -434.04 -426.03 -155.92z"/>
    <path class="fil15" d="M3955.03 9370.16c-0.69,0 -1.39,-0.02 -2.07,-0.07 -18.73,-2.69 -32.09,-19.55 -30.38,-38.39 2.93,-18.01 18.49,-31.1 36.56,-31.1 0.66,0 1.33,0.01 2,0.04l-3.51 -0.49c1,-0.14 2.01,-0.21 2.99,-0.21 16.98,0 33.07,19.57 33.07,36.76 -2.8,19.3 -19.36,33.46 -38.66,33.46z"/>
    <path class="fil5" d="M3715.58 9531.02l24.87 -69.28 810.98 323.53c0,0 31.21,29.42 18.56,54.42l-3.3 0 -851.11 -308.67z"/>
    <path class="fil7" d="M4227.24 9434.03c-1.67,4.17 -23.21,-1.5 -48.58,4.51 -25.38,6.01 -42.74,19.53 -45.91,16.69 -3.17,-2.84 11.69,-24.87 42.57,-31.55 30.88,-6.68 54.09,6.85 51.92,10.35z"/>
    <path class="fil7" d="M4304.03 9503.64c0,4.34 -21.19,4.84 -41.74,16.7 -20.53,11.85 -31.38,29.71 -35.55,28.04 -4.18,-1.67 1.85,-26.21 27.71,-41.4 25.87,-15.19 49.58,-7.34 49.58,-3.34z"/>
    <path class="fil7" d="M4315.21 9629.18c-4,0 -2.34,-23.37 16.7,-42.4 19.03,-19.03 41.73,-20.87 42.23,-16.7 0.52,4.18 -15.86,11.85 -31.22,27.72 -15.35,15.85 -23.36,32.55 -27.71,31.38z"/>
    <path class="fil7" d="M4256.12 9330.69c-3.17,3.18 -20.2,-9.51 -44.22,-16.69 -24.06,-7.18 -45.26,-6.18 -46.09,-10.52 -0.84,-4.34 22.03,-12.85 50.08,-4.17 28.04,8.68 43.57,28.88 40.23,31.38z"/>
    <path class="fil7" d="M4272.48 9222.02c-15.34,-1.35 -30.02,-6.76 -42.57,-15.7 -14.47,-8.27 -27.81,-18.38 -39.73,-30.05 -7.13,-6.8 -13.76,-14.12 -19.87,-21.86 -3.84,-4.39 -7.01,-9.35 -9.35,-14.69 -3.44,-8.15 -0.9,-17.58 6.18,-22.87 6.36,-4.36 14.39,-5.48 21.7,-3.01 5.43,1.94 10.54,4.64 15.19,8.02 8.35,5.56 16.18,11.88 23.37,18.86 12.08,11.69 22.21,25.21 30.05,40.06 8.58,13.01 12.94,28.34 12.52,43.91 -2.33,0 -7.34,-15.86 -21.86,-38.4 -8.62,-12.97 -18.84,-24.8 -30.39,-35.22 -6.84,-6.13 -14.15,-11.72 -21.87,-16.69 -8.18,-5.66 -15.86,-8.52 -19.53,-5.35 -3.67,3.17 -1.84,1.84 -0.83,5.18 1.73,3.94 4.04,7.6 6.84,10.85 5.48,7.39 11.45,14.43 17.86,21.04 10.84,11.4 22.76,21.74 35.56,30.88 22.05,15.85 37.73,22.87 36.73,25.04z"/>
    <path class="fil7" d="M4264.97 9226.36c-3.63,-15.14 -2.33,-31.03 3.67,-45.41 5.06,-16.08 12.8,-31.22 22.87,-44.74 6.04,-7.94 12.82,-15.31 20.2,-22.03 8.93,-9.72 22.25,-14.13 35.22,-11.69 7.7,3.07 12.96,10.27 13.53,18.53 0.29,5.61 -0.14,11.2 -1.34,16.69 -5.31,27.38 -21.43,51.47 -44.74,66.78 -24.71,16.69 -43.9,14.69 -43.74,13.19 0.17,-1.5 16.7,-5.35 37.39,-22.04 11.77,-9.58 21.35,-21.6 28.05,-35.22 3.89,-7.93 6.64,-16.36 8.18,-25.04 2,-9.52 1.19,-18.2 -2.51,-18.37 -7.6,-0.28 -14.95,2.82 -20.03,8.52 -6.91,5.86 -13.28,12.33 -19.03,19.36 -9.78,11.97 -17.76,25.29 -23.7,39.57 -10.35,25.2 -11.52,41.9 -14.02,41.9z"/>
    <path class="fil7" d="M3133.79 7007.09c-129.54,3 -252.41,21.2 -341.72,115.18 -118.36,124.7 -264.59,302.16 -272.94,425.19 -12.35,183.64 98.66,238.72 179.63,283.8 35.8,19.36 76.17,28.76 116.85,27.21l1497.1 -11.35 46.91 -253.58 -968.24 -238.72 40.23 -364.43 -297.82 16.7z"/>
    <path class="fil7" d="M3432.44 6990.22l470.94 -21.7c0,0 813.65,45.24 987.1,204.34 173.45,159.09 151.91,339.88 93.99,513.33 -57.93,173.45 -567.59,1283.42 -567.59,1283.42 0,0 41.4,70.61 18.2,141.06 -19.1,62.77 -69.85,110.85 -133.55,126.54l-452.72 -166.94c0,0 -61.45,-21.7 -18.05,-79.63 43.4,-57.93 72.3,-68.61 72.3,-68.61l0 -115.69c0,0 159.08,-289.3 173.43,-329.03 14.37,-39.73 166.94,-628.36 166.94,-628.36l101.33 -174.11c0,0 -244.9,-115.19 -457.24,-198.66l-495.8 -122.2 40.72 -363.76z"/>
    <path class="fil8" d="M4196.36 9049.9c-13.69,-7.97 -26.97,-16.66 -39.74,-26.04 -63.95,-41.43 -136,-68.81 -211.34,-80.3 -15.79,-1.53 -31.52,-3.87 -47.08,-7 15.9,-1.84 31.96,-1.56 47.75,0.83 77.22,8.26 150.99,36.31 214.18,81.47 13.39,8.71 25.56,19.14 36.23,31.04z"/>
    <path class="fil8" d="M4422.56 8970.44c-9.87,-8.08 -18.69,-17.41 -26.22,-27.71 -15.35,-17.86 -35.72,-43.24 -56.92,-72.28 -21.2,-29.05 -39.56,-55.93 -52.08,-75.8 -7.47,-10.38 -13.73,-21.58 -18.7,-33.38 8.96,9.08 16.93,19.08 23.7,29.88l54.09 74.12c20.2,27.38 38.73,52.09 54.76,73.62 8.24,9.7 15.4,20.29 21.37,31.55z"/>
    <path class="fil8" d="M4587.82 7516.58c0,1.34 -16.69,5.01 -42.9,13.69 -68.65,22.65 -130.81,61.47 -181.29,113.18 -9.86,11.36 -20.27,22.24 -31.22,32.56 7.06,-13.49 16.06,-25.86 26.71,-36.73 24.29,-27.43 52.4,-51.22 83.47,-70.62 31.05,-19.55 64.8,-34.45 100.16,-44.23 14.54,-4.88 29.73,-7.52 45.07,-7.85z"/>
    <path class="fil8" d="M4125.4 8302.53c0.21,-3.36 0.82,-6.67 1.84,-9.86l7.01 -27.54 27.05 -101 92.65 -332.37c18.86,-64.94 34.89,-126.71 53.09,-182.8 19.21,-48.74 48.24,-93 85.3,-130.04 24.46,-25.1 51.55,-47.48 80.8,-66.78 10.52,-6.68 18.69,-11.68 24.54,-14.69 2.8,-1.77 5.76,-3.27 8.85,-4.5 0,0 -11.36,7.67 -31.39,21.86 -28.28,20.2 -54.55,43.06 -78.46,68.28 -35.76,36.89 -63.69,80.61 -82.13,128.55 -16.7,55.25 -33.39,117.85 -52.26,182.46l-94.98 331.54c-12.35,41.56 -22.54,75.45 -29.89,100.16 -3.5,11.02 -6.17,20.03 -8.51,27.04 -0.71,3.37 -1.9,6.63 -3.51,9.69z"/>
    <path class="fil8" d="M3708.89 7454.65c-2.5,0 -12.35,-87.81 -22.2,-196.65 -9.85,-108.85 -16.69,-197.33 -13.35,-197.49 3.34,-0.17 12.19,87.8 22.03,196.65 9.85,108.84 15.86,197.32 13.52,197.49z"/>
    <path class="fil8" d="M2924.96 7690.53c-1.34,0 -8.52,-13.52 -23.38,-34.39 -19.18,-27.13 -42.18,-51.38 -68.28,-71.95 -26.3,-20.32 -55.35,-36.77 -86.3,-48.91 -23.87,-9.35 -39.4,-12.85 -39.06,-14.36 14.05,0.65 27.91,3.54 41.06,8.51 65.29,21.54 121.07,65.07 157.76,123.2 8.11,11.55 14.25,24.36 18.2,37.9z"/>
    <path class="fil8" d="M3213.42 7370.01c0,1.33 -20.7,-11.35 -55.25,-27.21 -90.66,-41.18 -191.23,-55.56 -289.81,-41.4 -37.56,5.34 -60.43,12.02 -60.76,10.51 4.86,-2.75 10.08,-4.77 15.52,-6.01 14.51,-4.47 29.28,-8.04 44.24,-10.68 99.72,-17.5 202.4,-2.77 293.15,42.07 13.6,6.71 26.77,14.29 39.39,22.7 4.96,2.69 9.5,6.08 13.52,10.02z"/>
    <path class="fil8" d="M4341.27 7593.04c-4.04,-0.2 -8.01,-0.87 -11.87,-2l-33.39 -7.18 -121.86 -26.88c-103,-23.04 -245.56,-54.09 -403.65,-85.31 -158.09,-31.21 -301.66,-57.09 -405.66,-74.95l-123.37 -21.2 -33.39 -5.85c-3.94,-0.46 -7.81,-1.42 -11.52,-2.83 3.96,0.1 7.93,0.45 11.86,1l33.38 4.34c29.22,4 71.45,10.35 123.7,18.53 104.34,16.69 248.24,41.07 406.5,72.45 158.26,31.38 300.48,63.27 403.32,87.81 51.25,12.35 92.82,22.7 121.36,30.21l33.39 8.69c3.82,0.71 7.56,1.77 11.2,3.17z"/>
    <path class="fil8" d="M3392.21 7397.55c-1.66,0 -5.17,-19.7 -20.7,-47.74 -9.08,-16.2 -20.31,-31.05 -33.39,-44.24 -16.49,-16.24 -33.98,-31.4 -52.41,-45.41 -33.96,-25.07 -69.85,-47.41 -107.34,-66.77 -15.86,-7.55 -31.15,-16.26 -45.75,-26.04 16.8,5.32 33.08,12.18 48.58,20.53 38.75,17.96 75.56,39.85 109.85,65.27 18.68,14.24 36.31,29.82 52.75,46.58 13.41,13.89 24.66,29.7 33.39,46.93 5.99,11.63 10.53,23.95 13.52,36.7 1.39,4.59 1.89,9.4 1.5,14.19z"/>
    <path class="fil7" d="M5059.76 7623.75c1.83,2.01 -23.21,27.21 -42.74,65.78 -19.53,38.56 -25.88,73.29 -28.38,72.78 -0.05,-26.97 7.09,-53.48 20.7,-76.79 11.07,-24.67 28.46,-45.99 50.42,-61.77z"/>
    <path class="fil11" d="M4100.75 6679.67c-11.94,-87.83 -26.36,-191.96 -42.12,-303.61 -25.88,-183.32 -49.53,-346.11 -65.17,-449.66 95.05,238.95 131.86,497.16 107.29,753.27z"/>
    <path class="fil14" d="M4100.7 6680.22l-5.35 -12.02 -107.17 -754.89c1.79,4.36 3.54,8.71 5.28,13.09 15.64,103.55 39.29,266.34 65.17,449.66 15.76,111.65 30.18,215.78 42.12,303.61 -0.02,0.17 -0.03,0.37 -0.05,0.55z"/>
    <path class="fil3" d="M4565.28 6347.01l-348.39 608.99 -858.56 18.7 -2.18 38.9 831.36 -6.18 26.37 -1 877.76 1.83 177.46 -305.99 226.7 -324.87c9.95,-14.64 6.16,-34.57 -8.47,-44.51 -5.32,-3.64 -11.61,-5.58 -18.07,-5.57l-876.26 3.34c-11.5,0.09 -22.09,6.33 -27.72,16.36z"/>
    <path class="fil12" d="M5269.1 6702.76c0,0 45.07,41.4 38.06,76.46 -7.01,35.05 -4.84,61.26 -38.06,63.6 1.28,26.64 -18.53,49.63 -45.07,52.25 0,0 10.17,55.09 -53.93,64.6 0,0 -19.7,58.93 -60.09,44.58 -23.29,-7.92 -45.66,-18.26 -66.78,-30.89l-11.85 -21.37c0,0 -59.6,-22.36 -44.91,-55.92 9.01,-20.37 39.73,-25.7 39.73,-25.7 -7.18,-16.97 -5.74,-36.35 3.84,-52.09 14.19,-19.2 60.6,-3.34 60.6,-3.34 -0.95,-16.43 4.29,-32.64 14.69,-45.41 16.7,-18.86 89.81,32.05 89.81,32.05l40.23 -48.07 33.73 -50.75z"/>
    <path class="fil13" d="M5170.1 6959.67c-26.04,-11.08 -50.86,-24.79 -74.12,-40.89 -24.77,-13.68 -48.05,-29.9 -69.44,-48.41 26,11.18 50.83,24.93 74.11,41.06 24.71,13.7 47.98,29.87 69.45,48.24z"/>
    <path class="fil13" d="M5224.03 6895.07c-24.23,-9.53 -47.3,-21.72 -68.79,-36.39 -22.97,-12.15 -44.52,-26.83 -64.27,-43.74 24.26,9.43 47.35,21.65 68.78,36.39 22.97,12.17 44.52,26.85 64.28,43.74z"/>
    <path class="fil13" d="M5150.57 6774.21c1.34,-2.51 28.88,12.02 60.93,32.38 19.87,11.47 38.98,24.18 57.26,38.07 -1.17,2.83 -29.88,-10.19 -61.93,-30.72 -20.1,-11.22 -38.97,-24.54 -56.26,-39.73z"/>
    <path class="fil7" d="M5495.8 6350.69l-63.94 0 -174.28 1.33 -575.11 1.34 -41.89 0c-12.59,-1.21 -24.81,4.55 -31.89,15.02 -13.36,23.82 -26.37,47.29 -39.06,70.45l-74.12 133.55 -125.71 225.87c-35.72,63.77 -64.94,115.52 -85.47,152.08 -9.83,16.69 -17.86,31.05 -23.54,41.06l-6.34 10.52 -2.34 3.51c0,0 0,-1.51 1.52,-4.01l5.66 -11.02 22.2 -41.73 83.47 -153.42 124.2 -226.87c23.38,-42.57 48.08,-87.3 73.46,-133.55l39.22 -70.94c8.7,-12.94 23.69,-20.21 39.24,-19.04l41.9 0 575.1 1.17 174.28 1.51 47.41 0.83 12.36 0 3.67 2.34z"/>
    <path class="fil5" d="M4878.13 6657.02c-11.64,16.84 -7.41,39.93 9.43,51.55 16.85,11.63 39.93,7.41 51.55,-9.44 10.6,-15.34 8.14,-36.17 -5.73,-48.62 -17.09,-13.32 -41.73,-10.44 -55.25,6.51z"/>
    <path class="fil11" d="M2710.63 6470.41c-55.41,-21.35 -106.46,-35.7 -160.87,-36.44 2.27,-0.05 4.55,-0.06 6.81,-0.06 53.66,0 106.39,12.56 154.06,36.5zm13.72 -1.48c-46.51,-27.3 -99.51,-41.73 -153.57,-41.73 -7.29,0 -14.62,0.25 -21.94,0.78 -14.87,0.37 -29.58,3.12 -43.56,8.2 0.01,0.08 0.11,0.16 0.26,0.21 -10.68,1.32 -21.55,3.17 -32.65,5.61 -11.49,4.57 -23.49,7.78 -35.73,9.52 -6.59,-0.99 -11.63,-6.38 -12.18,-13.02 0,-8.69 8.51,-13.69 15.85,-16.7 34.19,-13.92 75.43,-20.92 115.99,-20.92 72.84,0 143.52,22.54 167.53,68.05z"/>
    <path class="fil14" d="M2723.29 6475.39c-4.25,-1.69 -8.48,-3.36 -12.66,-4.98 -47.67,-23.94 -100.4,-36.5 -154.06,-36.5 -2.26,0 -4.54,0.01 -6.81,0.06 -1.46,-0.02 -2.94,-0.03 -4.4,-0.03 -13.03,0 -26.28,0.78 -39.82,2.45 -0.15,-0.05 -0.25,-0.13 -0.26,-0.21 13.98,-5.08 28.69,-7.83 43.56,-8.2 7.32,-0.53 14.65,-0.78 21.94,-0.78 54.06,0 107.06,14.43 153.57,41.73 0.14,0.28 0.3,0.58 0.45,0.88 -0.54,1.57 -1.04,3.16 -1.51,4.74 0.79,-1.03 1.56,-2.1 2.29,-3.17 0.18,0.39 0.37,0.78 0.55,1.17l-2.84 2.84z"/>
    <path class="fil14" d="M2723.29 6474.55c0.47,-1.58 0.97,-3.17 1.51,-4.74 0.26,0.52 0.53,1.04 0.78,1.57 -0.73,1.07 -1.5,2.14 -2.29,3.17z"/>
   </g>
   <g>
    <path class="fil8" d="M970 3813.97c4.83,4.82 948.76,-319.48 948.76,-319.48l-363.82 -832.79 -839.32 322.03 462.15 265.47 -207.77 564.77z"/>
    <path class="fil8" d="M1412.83 2912.39l0 -1133.79c0,0 1302.06,-238.18 2240.3,-223.97 938.24,14.21 1904.33,167.98 1904.33,167.98l0 1088.6c0,0 -2940.63,-262.63 -4144.63,101.18z"/>
    <path class="fil7" d="M1406.01 2913.53l511.62 585.79 0 -688.11c0,0 -427.78,51.16 -511.62,102.32z"/>
    <path class="fil7" d="M1412.83 1778.31c4.26,0 5.97,255.81 4.26,568.46 -1.7,312.65 -6.81,568.46 -10.8,568.46 -3.98,0 -5.97,-254.1 -4.26,-568.46 1.7,-314.35 6.54,-568.46 10.8,-568.46z"/>
    <path class="fil8" d="M5998.01 3726.99c-4.82,4.83 -948.75,-319.48 -948.75,-319.48l362.96 -833.07 840.18 321.46 -462.44 265.48 208.05 565.61z"/>
    <path class="fil7" d="M5562.58 2826.55l-511.61 585.8 0 -638.38c171.53,5.89 342.46,23.42 511.61,52.58z"/>
    <path class="fil7" d="M5556.89 1722.61c3.98,0 8.53,246.99 9.95,551.97 1.42,304.97 0,551.97 -4.83,551.97 -4.83,0 -8.53,-247 -9.94,-551.97 -1.43,-304.98 0.56,-551.97 4.82,-551.97z"/>
    <path class="fil5" d="M2147 2275.71c-7.54,-91.68 60.68,-172.09 152.35,-179.63 43.25,-3.55 86.17,9.89 119.66,37.52l-39.8 47.75c-21.69,-19.81 -51.08,-28.88 -80.15,-24.73 -53.04,7.39 -90.11,56.37 -82.72,109.43 7.4,53.07 56.37,90.1 109.43,82.71 29.28,-3.86 55.2,-20.81 70.49,-46.04l50.03 34.96c-52.02,75.69 -155.53,94.84 -231.22,42.83 -35.79,-24.58 -60.52,-62.22 -68.93,-104.8l0.86 0z"/>
    <path class="fil5" d="M2716.02 2206.37c-6.48,-51.88 -53.8,-88.66 -105.67,-82.15 -51.88,6.48 -88.66,53.8 -82.15,105.68 6.34,50.65 51.73,87.14 102.55,82.48 50.91,-3.35 89.48,-47.33 86.13,-98.25 -0.18,-2.59 -0.46,-5.18 -0.86,-7.76zm-258.93 26.71c-14.58,-90.5 46.96,-175.71 137.45,-190.29 90.5,-14.61 175.71,46.93 190.3,137.46 14.6,90.49 -46.93,175.68 -137.46,190.28 -3.15,0.52 -6.33,0.94 -9.52,1.25 -85.58,13.65 -165.99,-44.65 -179.67,-130.23 -0.42,-2.81 -0.78,-5.63 -1.1,-8.47z"/>
    <polygon class="fil5" points="3127.01,2327.73 3114.8,2146.39 3035.5,2301.58 3004.23,2303.57 2906.17,2163.73 2917.82,2341.09 2852.17,2345.35 2833.98,2043.22 2890.83,2039.53 3015.88,2220.01 3115.08,2025.31 3171.92,2021.61 3192.39,2323.47 "/>
    <path class="fil5" d="M3447.35 2122.8c0,-33.26 -23.03,-52.01 -65.95,-50.88l-56.84 1.71 3.13 105.17 56.84 -1.71c42.64,-1.14 63.66,-21.32 62.82,-54.29zm71.05 -1.99c1.71,67.65 -47.75,110.85 -128.47,113.69l-61.11 1.71 2.56 83.56 -70.2 1.99 -8.54 -304.41 131.03 -3.7c81.01,-1.13 132.46,39.52 134.73,107.16z"/>
    <polygon class="fil5" points="3572.97,2010.81 3642.9,2010.81 3642.9,2256.38 3794.67,2256.38 3794.67,2313.23 3572.97,2313.23 "/>
    <polygon class="fil5" points="4066.11,2265.2 4066.11,2322.05 3831.62,2315.22 3840.44,2012.52 4067.82,2019.34 4066.11,2076.18 3906.94,2071.36 3905.24,2137.3 4045.64,2141.28 4043.94,2195.84 3903.53,2191.58 3901.54,2261.79 "/>
    <polygon class="fil5" points="4195.72,2082.73 4099.09,2077.04 4102.49,2020.2 4365.69,2036.11 4362.28,2092.96 4265.64,2086.99 4250.86,2332.28 4180.94,2328.01 "/>
    <polygon class="fil5" points="4620.64,2306.7 4615.52,2363.54 4381.89,2341.94 4410.32,2040.66 4637.7,2061.69 4632.58,2118.54 4473.98,2102.62 4468.01,2168.27 4607.85,2181.07 4603.02,2235.36 4462.89,2222.56 4456.64,2292.2 "/>
    <path class="fil5" d="M4808.52 2328.86c51.16,8.22 99.28,-26.6 107.46,-77.73 8.22,-51.16 -26.6,-99.28 -77.73,-107.49l-5 -0.66 -63.39 -8.53 -24.72 185.89 63.38 8.52zm-100.33 -260.63l136.17 18.19c98.03,13.07 157.44,81.01 145.5,170.54 -11.94,89.53 -87.54,142.11 -185.6,127.9l-136.15 -18.19 40.08 -298.44z"/>
    <polygon class="fil8" points="6139.28,1825.78 6213.75,1913.04 6423.51,1825.78 6362.11,1733.98 "/>
    <path class="fil6" d="M6043.21 1410.52c0,60.28 -48.89,109.14 -109.14,109.14 -60.29,0 -109.15,-48.86 -109.15,-109.14 0,-60.29 48.86,-109.14 109.15,-109.14 60.22,0.17 108.97,48.91 109.14,109.14z"/>
    <path class="fil6" d="M3598.27 3038.59c-0.17,30.12 -24.73,54.43 -54.86,54.29 -30.16,-0.17 -54.46,-24.73 -54.29,-54.89 0.18,-30.13 24.74,-54.43 54.89,-54.26l0.54 0c29.93,0.46 53.89,24.96 53.72,54.86z"/>
    <path class="fil6" d="M1055.84 2218.3c0,22.91 -18.59,41.5 -41.5,41.5 -22.93,0 -41.5,-18.59 -41.5,-41.5 0,-22.94 18.59,-41.49 41.5,-41.49l0.57 0c22.68,0.31 40.93,18.81 40.93,41.49z"/>
    <polygon class="fil8" points="901.79,1761.55 1024,1768.93 1081.99,1528.48 967.73,1533.31 "/>
    <polygon class="fil6" points="4721.83,3680.95 4763.04,3796.34 5006.91,3755.41 4957.74,3652.24 "/>
    <polygon class="fil8" points="2255.29,3015 2179.97,3111.63 2345.1,3295.53 2405.93,3198.61 "/>
    <polygon class="fil6" points="1963.38,744.85 2251.87,1039.04 2658.04,885.55 2674.24,986.45 2498.3,1346.57 2660.6,1615.45 2646.95,1695.89 2253.86,1629.66 2021.37,1884.62 1966.8,1843.4 1918.76,1519.1 1552.1,1328.09 1535.9,1253.91 1905.11,1153.01 "/>
    <polygon class="fil11" points="2021.37,1884.62 1966.8,1843.4 1918.76,1519.1 1552.1,1328.09 1535.9,1253.91 1905.11,1153.01 1963.38,744.85 2251.87,1039.04 2658.04,885.55 2674.24,986.45 2498.3,1346.57 2660.6,1615.45 2646.95,1695.89 2253.86,1629.66 "/>
    <polygon class="fil6" points="1963.38,662.14 2251.87,956.61 2658.04,885.55 2467.32,1251.07 2660.6,1615.45 2253.86,1547.23 1966.8,1843.4 1906.25,1435.53 1535.9,1253.91 1905.11,1070.3 "/>
    <polygon class="fil6" points="4954.9,744.85 4666.12,1039.04 4259.96,885.55 4243.76,986.45 4419.69,1346.57 4257.4,1615.45 4271.04,1695.89 4664.13,1629.66 4896.63,1884.62 4951.2,1843.4 4999.23,1519.1 5365.9,1328.09 5382.09,1253.91 5012.88,1153.01 "/>
    <polygon class="fil11" points="4896.63,1884.62 4664.13,1629.66 4271.04,1695.89 4257.4,1615.45 4419.69,1346.57 4243.76,986.45 4259.96,885.55 4666.12,1039.04 4954.9,744.85 5012.88,1153.01 5382.09,1253.91 5365.9,1328.09 4999.23,1519.1 4951.2,1843.4 "/>
    <polygon class="fil6" points="4954.9,662.14 4666.12,956.61 4259.96,885.55 4450.67,1251.07 4257.4,1615.45 4664.13,1547.23 4951.2,1843.4 5011.74,1435.53 5382.09,1253.91 5012.88,1070.3 "/>
    <polygon class="fil6" points="3449.62,228.42 3689.79,697.67 4243.76,664.99 4225.02,794.03 3873.12,1166.65 3968.34,1556.33 3921.44,1649.27 3466.96,1418.77 3086.37,1641.6 3035.5,1570.26 3100.3,1156.13 2725.68,783.51 2734.22,687.16 3223.08,704.5 "/>
    <polygon class="fil11" points="3921.44,1649.27 3466.96,1418.77 3086.37,1641.6 3035.5,1570.26 3100.3,1156.13 2725.68,783.51 2734.22,687.16 3223.08,704.5 3449.62,228.42 3689.79,697.67 4243.76,664.99 4225.02,794.03 3873.12,1166.65 3968.34,1556.33 "/>
    <polygon class="fil6" points="3480.88,127.79 3721.06,596.78 4243.76,664.99 3871.7,1038.46 3968.34,1556.33 3498.51,1318.15 3035.5,1570.26 3117.07,1049.55 2734.22,687.16 3254.63,603.59 "/>
   </g>
  </g>
 </g>
</svg>
