<?xml version="1.0" encoding="utf-8"?>
<!-- Generator: Adobe Illustrator 24.3.0, SVG Export Plug-In . SVG Version: 6.00 Build 0)  -->
<svg version="1.1" id="Layer_1" xmlns="http://www.w3.org/2000/svg" xmlns:xlink="http://www.w3.org/1999/xlink" x="0px" y="0px"
	 viewBox="0 0 750 204" style="enable-background:new 0 0 750 204;" xml:space="preserve">
<style type="text/css">
	.st0{fill:#263238;}
	.st1{fill:#FFFFFF;}
	.st2{fill:#007A70;}
	.st3{fill:#ADADAD;}
</style>
<g id="freepik--character-3--inject-4">
	<path class="st0" d="M427.5,97.3l-4.4,46.3c0,0-2.5,7.1-2.5,7.5c0,0.4-2.8,29.2-2.8,29.2s-2.5,1.4-2.2,2.3c0.3,0.9,1.5,6.1,1.5,6.1
		s-2.7,7.8-2.7,8.4c0,0.6,5.3,0.9,6.9,0.8c1.5-0.2,3.9,0.4,4.6-1.7c0.6-2.3,1.1-4.6,1.4-7.1l5-6.7l-1.5-7.3l7.5-39.5l6.7-16.4
		l4.4,0.2L451,156c0,0-3.6,21.5-2.3,23.8c1.3,2.2,2.3,8.1,2.3,8.1v4.6c0,0-0.3,2.2,0.8,3.1c1.1,0.9,10.8,0.8,11.7,0.9
		s6.1,0.9,7.3,0.6s4-1.7,3.4-3c-0.6-1.3-5.9-3.6-7.3-4.8c-1.4-1.2-3.3-5-3.3-5s0.9-7.1,1.1-8.3c0.2-1.1-0.2-5.2-0.2-7.1
		c0-1.9,4.2-24.4,4.2-26.9s-0.6-33.7-0.6-33.7L427.5,97.3z"/>
	<path class="st0" d="M420.4,198.4c-1.9,0-5.3-0.2-6-0.8c-0.1-0.1-0.2-0.3-0.2-0.4c0-0.6,2-6.5,2.7-8.4c-0.2-0.8-1.3-5.1-1.5-5.9
		c-0.3-1.1,1.4-2.2,2.2-2.8c0.9-9.9,2.8-28.4,2.8-28.9s1.5-4.9,2.5-7.6l4.4-46.2c0-0.1,0.1-0.3,0.2-0.3c0.1-0.1,0.3-0.1,0.3-0.1
		l40.7,11.2c0.2,0.1,0.3,0.2,0.3,0.4c0,0.3,0.6,31.2,0.6,33.7c0,1.4-1.2,8.4-2.3,15.1c-0.9,5.4-1.9,10.9-1.9,11.8
		c0,0.9,0,1.7,0.1,2.8c0.1,1.4,0.1,2.8,0.1,4.2c-0.2,1-0.9,7.1-1,8.2c0.3,0.6,1.9,3.7,3.1,4.7c0.9,0.7,2,1.4,3.1,1.9
		c2.4,1.3,4,2.2,4.3,3c0.2,0.3,0.2,0.8,0,1.1c-0.5,1.2-2.7,2.2-3.7,2.4c-1.5,0.3-7.5-0.6-7.5-0.6c-0.3,0-1.2-0.1-2.4-0.1
		c-5.6-0.1-8.8-0.3-9.6-0.9c-1.3-1-0.9-3.4-0.9-3.5v-4.6l0,0c0,0-1.1-5.9-2.3-7.9c-1.3-2.2,1.9-21.5,2.2-24l-1.5-36.1l-3.7-0.2
		l-6.5,16.1l-7.5,39.3l1.5,7.2c0,0.1,0,0.3-0.1,0.3l-4.9,6.6c-0.3,2.4-0.8,4.7-1.4,7c-0.7,2-2.6,2-4,2c-0.3,0-0.8,0-1,0
		S420.8,198.4,420.4,198.4z M414.9,197c2.1,0.4,4.2,0.6,6.4,0.5c0.3,0,0.8,0,1.1,0c1.6,0,2.7-0.1,3.2-1.4c0.6-2.2,1.1-4.6,1.4-7
		c0-0.1,0-0.2,0.1-0.2l4.9-6.5l-1.5-7.1c0-0.1,0-0.1,0-0.2l7.5-39.5v-0.1l6.7-16.4c0.1-0.2,0.3-0.3,0.4-0.3l4.4,0.2
		c0.3,0,0.4,0.2,0.4,0.4l1.6,36.5v0.1c-1.4,8.3-3.3,22-2.4,23.4c1.3,2.2,2.3,8,2.4,8.3v4.7c-0.1,0.6-0.1,2.2,0.6,2.8s6.5,0.7,9,0.8
		c1.5,0,2.2,0,2.5,0.1c1.8,0.3,6.1,0.9,7.1,0.6c1-0.3,2.8-1.1,3.1-2c0.1-0.1,0.1-0.3,0-0.4c-0.3-0.6-2.3-1.7-4-2.7
		c-1.1-0.6-2.2-1.3-3.3-2.1c-1.5-1.3-3.3-5-3.4-5.2c-0.1-0.1-0.1-0.2,0-0.3c0,0,0.9-7.1,1.1-8.3c0.1-1.4,0-2.7-0.1-4
		c0-1.1-0.1-2.2-0.1-2.9c0-0.9,0.9-6,1.9-12c1.1-6.4,2.3-13.6,2.3-14.9c0-2.3-0.5-30-0.6-33.4l-39.9-10.9l-4.4,45.8v0.1
		c-0.9,2.6-2.4,6.9-2.5,7.4s-2.5,26.3-2.8,29.2c0,0.2-0.1,0.3-0.2,0.3c-1.1,0.6-2.1,1.5-2,1.8c0.3,0.9,1.5,5.9,1.5,6.1
		c0,0.1,0,0.2,0,0.3C416.7,191.6,415.2,196.1,414.9,197L414.9,197z M423.1,143.6L423.1,143.6z"/>
	<path class="st1" d="M417.2,188.8c0,0-2.7,7.8-2.7,8.4s5.3,0.9,6.9,0.8c1.5-0.2,3.9,0.4,4.6-1.7c0.6-2.3,1.1-4.6,1.4-7.1
		c0,0-5.9-2.2-7.4-2.2C418.5,186.9,417.2,188.8,417.2,188.8z"/>
	<path class="st0" d="M420.4,198.4c-1.9,0-5.3-0.2-6-0.8c-0.1-0.1-0.2-0.3-0.2-0.4c0-0.7,2.1-6.7,2.7-8.6c0,0,0-0.1,0.1-0.1
		c0.1-0.1,1.5-2,3.3-2l0,0c1.6,0,7,2.1,7.6,2.3c0.2,0.1,0.3,0.3,0.3,0.4c-0.3,2.4-0.8,4.8-1.5,7.1c-0.7,2-2.6,2-4,2
		c-0.3,0-0.8,0-1,0S420.8,198.4,420.4,198.4z M414.9,197c2.1,0.4,4.2,0.6,6.4,0.5c0.3,0,0.8,0,1.1,0c1.6,0,2.7-0.1,3.2-1.4
		c0.6-2.2,1-4.4,1.4-6.6c-1.8-0.7-5.8-2.2-7-2.2s-2.3,1.3-2.5,1.5C416.7,191.7,415.2,196.1,414.9,197L414.9,197z"/>
	<path class="st1" d="M470.9,197.2c1.3-0.3,4-1.7,3.4-3c-0.6-1.3-5.9-3.6-7.3-4.8c-0.5-0.5-1-1.1-1.5-1.8l-0.9,0.3c0,0-9,1.8-11.6,2
		l-2,0.2v2.5c0,0-0.3,2.2,0.8,3.1s10.8,0.8,11.7,0.9C464.5,196.8,469.6,197.5,470.9,197.2z"/>
	<path class="st0" d="M469.9,197.7c-2.2-0.1-4.4-0.3-6.5-0.7c-0.3,0-1.2-0.1-2.4-0.1c-5.6-0.1-8.8-0.3-9.6-0.9
		c-1.3-1-0.9-3.4-0.9-3.5V190c0-0.3,0.2-0.4,0.4-0.4l2-0.2c2.5-0.2,11.4-2,11.5-2l0.8-0.3c0.2-0.1,0.4,0,0.5,0.2
		c0.4,0.6,0.9,1.2,1.4,1.7c0.9,0.7,2,1.4,3.1,1.9c2.4,1.3,4,2.2,4.3,3c0.2,0.3,0.2,0.8,0,1.1c-0.5,1.2-2.7,2.2-3.7,2.4l0,0
		C470.6,197.6,470.3,197.7,469.9,197.7z M470.9,197.2L470.9,197.2z M451.5,190.5v2.1c-0.1,0.6-0.1,2.2,0.6,2.8
		c0.7,0.6,6.5,0.7,9,0.8c1.5,0,2.2,0,2.5,0.1c1.8,0.3,6.1,0.9,7.1,0.6c1-0.3,2.8-1.1,3.1-2c0.1-0.1,0.1-0.3,0-0.4
		c-0.3-0.6-2.3-1.7-4-2.7c-1.1-0.6-2.2-1.3-3.3-2.1c-0.5-0.5-0.9-1-1.3-1.6l-0.5,0.3c-0.4,0.1-9.2,1.8-11.7,2L451.5,190.5z"/>
	<path class="st1" d="M477.7,27.8c-1.3,0.7-2.6,1.5-3.9,2.2c-1,0.8-9,1.3-14.1,1.3c-5.1,0-12.1,6-13.4,9.2
		c-1.3,3.2-18.8,56.8-18.8,56.8l39.9,12.7l11.4-35.9l1.6-2.9l0.1,8.8c0,0,7.4,1.3,8.6,1c1-0.2,2.2-0.3,3.2-0.3l1.6-17.3
		c-0.3-3.9-1-7.7-2-11.5c-1.1-3.8-2.6-7.4-4.4-10.9l-3.6-6.9l1-6.9C485.1,27.2,480.6,25.5,477.7,27.8z"/>
	<path class="st0" d="M467.4,110.4L467.4,110.4l-40-12.7c-0.1,0-0.2-0.1-0.3-0.2c-0.1-0.1-0.1-0.3,0-0.3
		c0.7-2.2,17.5-53.6,18.8-56.8s8.4-9.5,13.9-9.5c5.4,0,12.9-0.6,13.9-1.2c1.3-0.9,2.6-1.6,3.9-2.2c3.1-2.3,7.7-0.8,7.8-0.7
		c0.2,0.1,0.3,0.3,0.3,0.5l-1.1,6.8l3.5,6.8c1.9,3.5,3.4,7.1,4.4,11c1,3.8,1.6,7.7,2,11.6L492.8,81c0,0.3-0.2,0.4-0.4,0.4
		c-1,0-2.1,0.1-3.1,0.3c-1.2,0.3-8-0.9-8.8-1c-0.2,0-0.3-0.2-0.3-0.4l-0.1-7.1l-0.8,1.5l-11.4,35.6
		C467.8,110.3,467.6,110.4,467.4,110.4z M428.1,97.1l39.1,12.4L478.5,74l1.6-3c0.1-0.2,0.3-0.3,0.5-0.2c0.2,0.1,0.3,0.3,0.3,0.4
		l0.1,8.4c2.8,0.5,7.3,1.2,8.1,1c0.9-0.2,1.9-0.3,2.9-0.3l1.5-16.9l0,0c-0.3-3.9-1-7.7-2-11.4c-1-3.8-2.5-7.4-4.3-10.8l-3.6-6.9
		c0-0.1,0-0.2,0-0.3l1-6.5c-1-0.3-4.5-1-6.7,0.7h-0.1c-1.3,0.7-2.6,1.4-3.8,2.2c-1.3,0.9-9.9,1.4-14.4,1.4c-5,0-11.8,6-13,9
		S429.7,92.1,428.1,97.1L428.1,97.1z M477.7,27.8L477.7,27.8z"/>
	<path class="st0" d="M477.2,42.8c-0.5,0-0.9,0-1.4-0.1c-4.9-0.9-7.1-9.7-7.5-11.5c0-0.1,0-0.3,0.1-0.3c0.1-0.1,0.2-0.2,0.3-0.2
		c4.1-0.3,4.8-0.8,4.9-0.9c1.3-0.9,2.6-1.6,3.9-2.3c3-2.3,7.6-0.8,7.7-0.7c0.2,0.1,0.3,0.3,0.3,0.5l-1,6.8l2.3,4.4
		c0.1,0.2,0.1,0.4-0.1,0.5C485,40.2,481,42.8,477.2,42.8z M469.2,31.4c0.5,2.2,2.7,9.6,6.7,10.3c3.8,0.7,8.3-2.1,10-3.3l-2.2-4.2
		c0-0.1,0-0.2,0-0.3l1-6.5c-1-0.3-4.5-1-6.7,0.7c-0.1,0.1-2.8,1.5-3.9,2.2C473.9,30.5,473.3,31,469.2,31.4z"/>
	<path class="st0" d="M500.4,26.2c0,0,2-0.4,2.2-1.9s0.3-5.7-5.9-10.1s-10.1-4.8-15.4-1c-5.3,3.8-5.2,11.7-4.9,12.9
		c0.3,1.2,0.4,2,1.3,1.7c1-0.5,2.1-1.1,2.9-1.9c3,2.3,6.6,3.6,10.3,3.7C497.5,29.9,500.4,26.2,500.4,26.2z"/>
	<path class="st0" d="M491.6,30.1h-0.7c-3.7-0.1-7.3-1.4-10.3-3.6c-0.9,0.7-1.8,1.3-2.8,1.7c-0.3,0.1-0.7,0.1-0.9-0.1
		c-0.5-0.3-0.7-0.9-0.9-1.8v-0.2c-0.3-1-0.5-9.4,5.1-13.3c5.4-3.8,9.6-3.5,15.9,1c3,2.2,6.5,5.7,6,10.5c-0.2,1.5-1.8,2.1-2.3,2.2
		C500.1,27.3,497.2,30.1,491.6,30.1z M480.6,25.5c0.1,0,0.2,0,0.3,0.1c2.9,2.2,6.5,3.5,10.1,3.6c6.2,0.3,9-3.3,9-3.3
		c0.1-0.1,0.2-0.2,0.3-0.2c0,0,1.7-0.3,1.8-1.5c0.4-4.4-2.8-7.7-5.7-9.7c-6-4.4-9.8-4.6-14.9-1s-5,11.4-4.7,12.5v0.2
		c0.1,0.6,0.3,1.2,0.4,1.3c0.1,0,0.2,0,0.3,0c1-0.4,1.9-1,2.8-1.8C480.4,25.5,480.4,25.5,480.6,25.5L480.6,25.5z"/>
	<path class="st1" d="M500.4,26.2c0,0-2,7.3-2.9,7.7c-0.9,0.4-1.6,0.1-2.2,0.5c-0.5,0.4-1.2,4.6-1.6,4.9c-0.9,0.3-1.7,0.5-2.7,0.7
		c0,0-3.6,1.7-3.7,2.2s0,1.6-0.8,1.7c-2.9,0.5-6.5-3.2-7.8-5.6c-0.9-1.7,1-7.8,1-7.8s-1.9-4.1-1-6.6s3-3.4,4-2.4
		c0.9,1,1.3,4.2,1.3,4.2l1,1.3l2.5-0.7c0,0,3.7,1.3,6.5,0.8C496.9,26.7,500.4,26.2,500.4,26.2z"/>
	<path class="st0" d="M486,44.5c-3.2,0-6.5-3.8-7.7-5.9c-0.9-1.7,0.6-6.9,0.9-8c-0.3-0.8-1.7-4.4-1-6.8c0.3-1.5,1.5-2.7,2.9-3.1
		c0.7-0.2,1.4,0,1.8,0.5c0.9,1,1.3,3.7,1.4,4.4l0.8,1l2.2-0.6c0.1,0,0.2,0,0.3,0c0,0,3.6,1.3,6.3,0.8c2.8-0.5,6.2-1,6.3-1
		c0.2,0,0.3,0,0.4,0.2c0.1,0.1,0.2,0.3,0.1,0.4c-0.8,2.8-2.2,7.6-3.2,8c-0.4,0.2-0.9,0.3-1.3,0.3c-0.3,0-0.5,0.1-0.7,0.2
		c-0.3,0.8-0.6,1.6-0.8,2.5c-0.4,1.8-0.6,2.2-0.9,2.4c-0.9,0.3-1.8,0.6-2.8,0.7c-1.2,0.5-2.4,1.2-3.4,2c0,0.1,0,0.2,0,0.3
		c-0.1,0.6-0.2,1.5-1.1,1.6C486.5,44.5,486.2,44.5,486,44.5z M481.7,21.6c-0.1,0-0.2,0-0.3,0c-1.1,0.3-2,1.3-2.2,2.5
		c-0.8,2.3,1,6.3,1,6.4c0,0.1,0,0.2,0,0.3c-0.8,2.3-1.7,6.4-1.1,7.5c1.3,2.5,4.8,5.8,7.4,5.3c0.3,0,0.3-0.3,0.3-0.9
		c0-0.2,0-0.3,0.1-0.5c0-0.2,0.2-0.8,4-2.6h0.1c0.9-0.1,1.7-0.3,2.5-0.6c0.1-0.2,0.3-1.2,0.5-2c0.4-1.8,0.7-2.7,1-2.9
		s0.8-0.3,1.2-0.3c0.3,0,0.7-0.1,1-0.3c0.4-0.3,1.6-3.6,2.5-6.8c-1.1,0.2-3.5,0.6-5.6,0.9c-2.6,0.5-5.9-0.5-6.6-0.8l-2.4,0.6
		c-0.2,0.1-0.3,0-0.4-0.2l-1-1.3c-0.1-0.1-0.1-0.2-0.1-0.2c-0.1-0.9-0.5-3.3-1.2-4C482.2,21.7,482,21.6,481.7,21.6L481.7,21.6z"/>
	<path class="st0" d="M479.8,30.6l-1.3,5.6c-0.2,0.8-0.1,1.5,0.2,2.2c1.3,2.4,4.9,6,7.8,5.6c0.8-0.2,0.7-1.2,0.8-1.7
		c0.1-0.5,3.7-2.2,3.7-2.2l0.8-0.2l-0.3-0.8c-0.8-1-1.9-1.7-3.2-1.9c-1.9-0.3-3.7-0.9-5.4-1.6l2.2-8.5l-1-1.3l-2.2,3.2L479.8,30.6z"
		/>
	<path class="st0" d="M486,44.5c-3.2,0-6.5-3.8-7.7-5.9c-0.3-0.8-0.4-1.6-0.3-2.5l1.3-5.7c0-0.1,0.1-0.2,0.2-0.3l2.1-1.5l2.1-3.1
		c0.2-0.2,0.4-0.3,0.6-0.1l0.1,0.1l1,1.4c0.1,0.1,0.1,0.3,0.1,0.3l-2.1,8.2c1.6,0.7,3.3,1.1,5,1.4c1.4,0.2,2.7,0.9,3.5,2.1
		c0,0,0,0.1,0.1,0.1l0.3,0.8c0,0.1,0,0.3,0,0.3c-0.1,0.1-0.2,0.2-0.3,0.2l-0.8,0.2c-1.2,0.5-2.4,1.2-3.4,2c0,0.1,0,0.2,0,0.3
		c-0.1,0.6-0.2,1.5-1.1,1.6C486.5,44.5,486.2,44.6,486,44.5z M480.2,30.9l-1.2,5.4c-0.2,0.7-0.1,1.4,0.1,2c1.3,2.5,4.8,5.8,7.4,5.3
		c0.3,0,0.3-0.3,0.3-0.9c0-0.2,0-0.3,0.1-0.5c0-0.2,0.2-0.8,4-2.6h0.1l0.3-0.1l-0.1-0.3c-0.7-0.9-1.7-1.5-2.8-1.6
		c-1.9-0.3-3.8-0.9-5.6-1.6c-0.2-0.1-0.3-0.3-0.3-0.5l2.1-8.3l-0.5-0.7l-1.8,2.7l-0.1,0.1L480.2,30.9z"/>
	<path class="st0" d="M494.3,33.7c-0.2,0-0.3-0.1-0.3-0.2c-0.6-0.7-1.5-1-2.5-1c-0.3,0-0.4-0.2-0.4-0.4s0.2-0.4,0.4-0.4
		c1.2,0,2.3,0.4,3.1,1.4c0.2,0.2,0.1,0.4-0.1,0.6C494.5,33.6,494.4,33.7,494.3,33.7z"/>
	<path class="st0" d="M492.6,36c-1,0-2-0.5-2.5-1.5c-0.1-0.2,0-0.4,0.2-0.6c0.2-0.1,0.4,0,0.6,0.2c0,0,0,0,0,0.1
		c0.3,0.5,0.9,0.9,1.5,0.9l0.5-0.9c0.1-0.2,0.3-0.3,0.6-0.2l0,0c0.2,0.1,0.3,0.3,0.2,0.6l0,0l-0.7,1.1C492.8,35.9,492.8,36,492.6,36
		z"/>
	<path class="st1" d="M487.1,40.1c-0.1,0-0.1,0-0.2,0c-1-0.4-1.6-1.5-1.6-2.5c0-0.3,0.2-0.4,0.4-0.4c0.3,0,0.4,0.2,0.4,0.4
		c0,0.8,0.4,1.4,1,1.7c0.3,0.1,0.3,0.3,0.3,0.5l0,0C487.4,40,487.2,40.1,487.1,40.1z"/>
	<path class="st1" d="M480.4,71.2c0,0,5.2-7.4,6-11.3"/>
	<path class="st0" d="M480.4,71.6c-0.1,0-0.2,0-0.3-0.1c-0.2-0.2-0.3-0.4-0.1-0.6c0.1-0.1,5.2-7.4,5.9-11.2c0.1-0.3,0.3-0.4,0.5-0.3
		s0.4,0.3,0.3,0.5c-0.8,3.9-5.9,11.2-6,11.4C480.8,71.5,480.6,71.6,480.4,71.6z"/>
	<path class="st1" d="M481.8,80.5c0,0-0.8,9.8-0.8,17.8c-0.1,5.3-0.9,10.5-2.3,15.6l-0.9,2.2c0,0,1.4,6.3,1.4,8.9
		c-0.1,2.1-0.3,4.2-0.8,6.2c0,0,4-6.9,4.4-9.4c0.3-2.5,0.9-8.4,0.9-8.4s7.3-24.2,7.3-25.7v-6.9C491,80.9,483.4,80.5,481.8,80.5z"/>
	<path class="st0" d="M478.4,131.8c-0.1,0-0.1,0-0.2,0c-0.2-0.1-0.3-0.3-0.3-0.5c0.4-2.1,0.7-4,0.8-6.1c0-2.6-1.4-8.7-1.4-8.8
		c0-0.1,0-0.2,0-0.3l0.9-2.2c1.5-5,2.2-10.2,2.3-15.4c0-7.9,0.8-17.7,0.8-17.8c0-0.2,0.2-0.3,0.4-0.4c1.5-0.2,9,0.3,9.3,0.3
		c0.3,0,0.4,0.2,0.4,0.4v6.9c0,1.5-6.6,23.4-7.3,25.9l0,0c0,0-0.6,5.9-0.9,8.4c-0.3,2.5-4.3,9.2-4.4,9.6
		C478.6,131.7,478.5,131.8,478.4,131.8z M478.2,116.3c0.2,0.9,1.4,6.4,1.4,8.9c0,1.3-0.2,2.6-0.3,3.8c1.2-2.2,2.9-5.5,3.1-7
		c0.3-2.5,0.9-8.4,0.9-8.4c2.9-9.8,7.3-24.6,7.3-25.7v-6.5c-1.5-0.1-6.6-0.3-8.4-0.3c-0.2,1.9-0.8,10.4-0.8,17.4
		c-0.1,5.3-0.9,10.6-2.4,15.7L478.2,116.3z"/>
	<path class="st2" d="M474.6,136.7c-0.3,0-0.5-0.1-0.8-0.3c-0.8-0.4-1-1.4-0.6-2.2l0,0c5.4-9.2,2.2-21.1-7-26.5
		c-9.2-5.4-21.1-2.2-26.5,7c-2.4,4-3.2,8.9-2.2,13.5c0.2,0.9-0.4,1.7-1.3,1.8c-0.9,0.2-1.6-0.4-1.8-1.2c-0.3-1.5-0.4-2.9-0.4-4.4
		c0-12.5,10.1-22.6,22.6-22.6c12.5,0,22.6,10.1,22.6,22.6c0,4-1,7.9-3.1,11.4C475.7,136.3,475.2,136.7,474.6,136.7z"/>
	<path class="st0" d="M474.6,137.1c-0.3,0-0.7-0.1-1-0.3c-0.9-0.5-1.3-1.8-0.7-2.8l0,0c5.3-9,2.2-20.7-7-25.8
		c-9-5.3-20.7-2.2-25.8,7c-1.6,2.8-2.5,6-2.5,9.3c0,1.2,0.1,2.5,0.3,3.7c0.2,1.1-0.5,2.2-1.5,2.3c-0.5,0.1-1,0-1.5-0.3
		c-0.4-0.3-0.8-0.8-0.9-1.3c-0.3-1.5-0.4-2.9-0.4-4.5c0-12.7,10.3-23,23-23c12.7,0,23,10.3,23,23c0,4-1.1,8.1-3.2,11.6
		C476,136.7,475.4,137.1,474.6,137.1z M456.5,104.6c10.9,0,19.8,8.9,19.8,19.9c0,3.5-0.9,7-2.8,10c-0.3,0.5-0.2,1.3,0.4,1.5
		c0.5,0.3,1.2,0.1,1.5-0.4c6.2-10.6,2.6-24.1-7.9-30.3c-10.6-6.2-24.1-2.6-30.3,7.9c-2.8,4.6-3.6,10.2-2.6,15.4
		c0.1,0.3,0.3,0.6,0.5,0.8c0.3,0.2,0.6,0.3,0.9,0.2c0.3-0.1,0.6-0.3,0.8-0.5c0.2-0.3,0.3-0.6,0.2-0.9c-0.3-1.3-0.3-2.6-0.3-3.9
		C436.7,113.5,445.6,104.6,456.5,104.6z"/>
	<path class="st2" d="M453,107.7l-23.1,18.2c-1.1,0.9-1.3,2.4-0.4,3.5l18.5,23.8c0.9,1,2.3,1.3,3.4,0.5l24-17.6
		c1.1-0.9,1.4-2.4,0.5-3.5c0,0,0-0.1-0.1-0.1l-19.5-24.4C455.6,107.1,454.1,106.9,453,107.7z"/>
	<path class="st0" d="M450,154.7c-0.9,0-1.8-0.4-2.3-1.1l-18.5-23.9c-1-1.3-0.8-3.1,0.5-4.1l23.1-18.2c1.3-1,3.1-0.8,4.1,0.4
		l19.5,24.4c1,1.3,0.8,3.1-0.4,4.1l-0.1,0.1l-24,17.6C451.2,154.5,450.6,154.7,450,154.7z M454.5,107.6c-0.4,0-0.9,0.2-1.3,0.4l0,0
		l-23.1,18.2c-0.9,0.7-1,2-0.3,2.9l18.5,23.9c0.7,0.9,2,1,2.8,0.4l24-17.6c0.9-0.7,1.1-2,0.4-2.9c0,0,0-0.1-0.1-0.1l-19.5-24.4
		C455.7,107.9,455.1,107.6,454.5,107.6z M453,107.7L453,107.7z"/>
	<path class="st1" d="M457.9,32.3c0,0-5.9-0.5-9.6,2.9c-3.7,3.4-10.5,22.5-10.5,22.5l12.8,5.5l5.8-9.6"/>
	<path class="st0" d="M450.6,63.7c-0.1,0-0.1,0-0.2,0l-12.8-5.4c-0.2-0.1-0.3-0.3-0.3-0.5c0.3-0.8,6.8-19.2,10.6-22.6
		c3.8-3.4,9.7-3.1,10-3.1c0.3,0,0.4,0.3,0.4,0.4c0,0.3-0.3,0.4-0.4,0.4c-0.1,0-5.8-0.4-9.4,2.8c-3.4,3-9.2,19.2-10.2,22l12.1,5.2
		l5.6-9.4c0.1-0.2,0.4-0.3,0.6-0.2c0.2,0.1,0.3,0.3,0.2,0.6l-5.8,9.6C450.8,63.6,450.7,63.7,450.6,63.7z"/>
	<path class="st1" d="M437.7,57.7l-3.1,14.6l20.5,25.5l1.4,3.6c0,0,3.3,3.9,3.4,4.4s2.2,1.5,3.9,1.5c1.1,0,2.3-0.2,3.4-0.4
		c0,0,0.9,2.3,1.9,1.3s0.9-3.9,0.6-5.8c-0.3-1.9,0.4-3.9-1.4-5.6c-1.8-1.5-3.9-2.7-6.1-3.4c-1.1-0.3-15.9-23.6-15.9-23.6l3-7.5
		L437.7,57.7z"/>
	<path class="st0" d="M468.6,109h-0.2c-0.7-0.1-1.2-0.9-1.5-1.5c-1,0.3-2.2,0.3-3.2,0.4c-1.7,0-4-1.1-4.3-1.9
		c-0.2-0.3-1.8-2.4-3.4-4.2l-0.1-0.1l-1.4-3.5l-20.4-25.5c-0.1-0.1-0.1-0.3-0.1-0.3l3.1-14.6c0-0.1,0.1-0.3,0.2-0.3
		c0.1-0.1,0.3-0.1,0.3,0l11.5,4.6c0.1,0,0.2,0.1,0.3,0.3c0,0.1,0,0.3,0,0.3l-2.9,7.3c5.6,8.7,14.6,22.6,15.6,23.2
		c2.2,0.8,4.4,2,6.2,3.5c1.5,1.4,1.5,2.9,1.5,4.3c0,0.5,0,1,0.1,1.6c0.3,1.5,0.4,4.8-0.7,6.1C469.2,108.8,469,109,468.6,109z
		 M467.3,106.5c0.2,0,0.3,0.1,0.4,0.3c0.3,0.6,0.7,1.2,0.9,1.3c0.1,0,0.2-0.1,0.2-0.2c0.8-0.9,0.9-3.4,0.5-5.4
		c-0.1-0.6-0.1-1.1-0.1-1.7c0-1.3,0-2.6-1.2-3.6c-1.7-1.5-3.8-2.6-5.9-3.4c-1.1-0.3-11.7-16.7-16.2-23.8c-0.1-0.1-0.1-0.3,0-0.4
		l2.8-7.1l-10.7-4.2l-3,13.9l20.3,25.3l0.1,0.1l1.4,3.5c1.2,1.4,2.4,2.9,3.4,4.5c1,0.8,2.2,1.2,3.4,1.3c1.1,0,2.2-0.2,3.4-0.4
		L467.3,106.5z"/>
	<path class="st0" d="M515.9,188.6c-0.2,0-0.3-0.1-0.3-0.3c-0.2-0.5-0.3-1.1-0.5-1.6c0-0.2,0.1-0.3,0.3-0.3s0.3,0,0.3,0.2
		c0.2,0.5,0.3,1.1,0.6,1.6c0.1,0.2-0.1,0.3-0.2,0.4C515.9,188.6,515.9,188.6,515.9,188.6z M514.7,185.4c-0.2,0-0.3-0.1-0.3-0.2
		c-0.2-0.5-0.4-1-0.7-1.5c-0.1-0.2,0-0.3,0.2-0.4l0,0c0.2-0.1,0.3,0,0.4,0.2l0.7,1.6c0.1,0.2,0,0.3-0.2,0.4l0,0L514.7,185.4z
		 M513.3,182.2c-0.1,0-0.3-0.1-0.3-0.2c-0.3-0.5-0.5-1-0.8-1.5c-0.1-0.2,0-0.3,0.2-0.4c0.2-0.1,0.3,0,0.4,0.1l0,0
		c0.3,0.5,0.5,1,0.8,1.5c0.1,0.2,0,0.3-0.2,0.4C513.4,182.2,513.4,182.2,513.3,182.2L513.3,182.2z M511.7,179.2
		c-0.1,0-0.3-0.1-0.3-0.2c-0.3-0.5-0.6-0.9-0.9-1.5c-0.1-0.2-0.1-0.3,0.1-0.4l0,0c0.2-0.1,0.3-0.1,0.4,0.1l0,0
		c0.3,0.5,0.6,0.9,0.9,1.5c0.1,0.2,0.1,0.3-0.1,0.4l0,0C511.9,179.1,511.8,179.2,511.7,179.2L511.7,179.2z M509.9,176.3
		c-0.1,0-0.2-0.1-0.3-0.2c-0.3-0.5-0.7-0.9-0.9-1.4c-0.1-0.2-0.1-0.3,0.1-0.4c0.2-0.1,0.3-0.1,0.4,0.1c0.3,0.4,0.7,0.9,0.9,1.5
		c0.1,0.2,0.1,0.3-0.1,0.4C510.1,176.2,510,176.2,509.9,176.3L509.9,176.3z M507.9,173.4c-0.1,0-0.2,0-0.3-0.1
		c-0.3-0.4-0.7-0.9-1-1.3c-0.2-0.1-0.2-0.3,0-0.4c0.1-0.2,0.3-0.2,0.4,0c0,0,0,0.1,0.1,0.1c0.3,0.4,0.7,0.9,1.1,1.4
		c0.1,0.2,0.1,0.3-0.1,0.4C508.1,173.4,508,173.4,507.9,173.4z M505.7,170.8c-0.1,0-0.2-0.1-0.3-0.1c-0.4-0.4-0.8-0.9-1.2-1.3
		c-0.1-0.1-0.1-0.3,0-0.4c0.1-0.1,0.3-0.1,0.4,0c0.4,0.4,0.8,0.9,1.2,1.3c0.1,0.1,0.1,0.3,0,0.4l0,0
		C505.8,170.8,505.8,170.8,505.7,170.8L505.7,170.8z M503.3,168.3c-0.1,0-0.2,0-0.3-0.1c-0.4-0.4-0.9-0.9-1.3-1.2
		c-0.1-0.2-0.1-0.3,0.1-0.4c0.1-0.1,0.3-0.1,0.3,0c0.4,0.3,0.9,0.8,1.3,1.2c0.1,0.1,0.1,0.3,0,0.4l0,0
		C503.5,168.3,503.4,168.3,503.3,168.3L503.3,168.3z M500.8,166c-0.1,0-0.2,0-0.2-0.1c-0.9-0.7-1.4-1-1.4-1
		c-0.2-0.1-0.2-0.3-0.1-0.4c0.1-0.2,0.3-0.2,0.4-0.1l0,0c0,0,0.5,0.3,1.4,1c0.2,0.1,0.2,0.3,0.1,0.4
		C500.9,165.9,500.8,166,500.8,166L500.8,166z"/>
	<path class="st0" d="M520.9,175.6c-0.1,0-0.3-0.1-0.3-0.2c-0.2-0.3-0.4-0.7-0.6-1c-0.1-0.2-0.1-0.3,0.1-0.4s0.3-0.1,0.4,0.1
		c0.3,0.3,0.4,0.7,0.7,1c0.1,0.2,0,0.3-0.1,0.4l0,0C521,175.6,520.9,175.6,520.9,175.6z M519.3,173.1c-0.1,0-0.2-0.1-0.3-0.1
		c-0.3-0.4-0.7-0.9-1-1.3c-0.2-0.1-0.2-0.3,0-0.4c0.2-0.1,0.3-0.2,0.4,0c0,0,0,0.1,0.1,0.1c0.3,0.4,0.7,0.9,1,1.4
		c0.1,0.2,0.1,0.3-0.1,0.4C519.4,173.1,519.4,173.1,519.3,173.1L519.3,173.1z M517,170.5c-0.1,0-0.2,0-0.3-0.1
		c-0.4-0.4-0.8-0.9-1.2-1.2c-0.1-0.1-0.1-0.3,0-0.4s0.3-0.1,0.4,0c0.4,0.4,0.8,0.9,1.2,1.3c0.1,0.1,0.2,0.3,0,0.4l0,0
		C517.2,170.4,517.1,170.5,517,170.5L517,170.5z M514.6,168c-0.1,0-0.2,0-0.2-0.1c-0.4-0.4-0.9-0.8-1.3-1.1c-0.1-0.1-0.1-0.3,0-0.4
		s0.3-0.1,0.4,0l0,0c0.4,0.3,0.9,0.8,1.3,1.1c0.1,0.1,0.1,0.3,0,0.4l0,0C514.8,168,514.7,168.1,514.6,168L514.6,168z M512,165.9
		c-0.1,0-0.2,0-0.2-0.1c-0.4-0.3-0.9-0.7-1.4-1c-0.2-0.1-0.2-0.3-0.1-0.4c0.1-0.2,0.3-0.2,0.4-0.1l0,0c0.4,0.3,0.9,0.7,1.4,1
		c0.2,0.1,0.2,0.3,0.1,0.4C512.2,165.8,512.1,165.9,512,165.9L512,165.9z M509.2,163.8c-0.1,0-0.2,0-0.2-0.1l-1.5-0.9
		c-0.2-0.1-0.2-0.3-0.1-0.4c0.1-0.2,0.3-0.2,0.4-0.1l0,0c0.4,0.3,0.9,0.6,1.5,0.9c0.2,0.1,0.2,0.3,0.1,0.4l0,0
		C509.4,163.7,509.3,163.8,509.2,163.8z M506.3,161.9c-0.1,0-0.1,0-0.2,0c-0.9-0.5-1.5-0.9-1.5-0.9c-0.2-0.1-0.3-0.3-0.2-0.4
		s0.3-0.3,0.4-0.2l0,0c0,0,0.6,0.3,1.5,0.9c0.2,0.1,0.2,0.3,0.1,0.4C506.5,161.8,506.4,161.9,506.3,161.9L506.3,161.9z"/>
	<path class="st0" d="M519.1,163.1c-0.1,0-0.2-0.1-0.3-0.1c-0.1-0.2-0.2-0.3-0.3-0.4c-0.1-0.2-0.1-0.3,0.1-0.4
		c0.2-0.1,0.3-0.1,0.4,0.1l0,0c0.1,0.2,0.3,0.3,0.3,0.4c0.1,0.2,0.1,0.3-0.1,0.4l0,0C519.2,163.1,519.1,163.2,519.1,163.1z
		 M517.5,161.5c-0.1,0-0.2,0-0.2-0.1c-0.4-0.3-0.9-0.8-1.3-1.1c-0.2-0.1-0.2-0.3-0.1-0.4l0,0c0.1-0.2,0.3-0.2,0.4-0.1l0,0
		c0.5,0.3,0.9,0.8,1.4,1.1c0.1,0.1,0.1,0.3,0,0.4C517.7,161.5,517.6,161.5,517.5,161.5L517.5,161.5z M514.9,159.3
		c-0.1,0-0.1,0-0.2-0.1c-0.4-0.3-0.9-0.6-1.5-0.9c-0.2-0.1-0.2-0.3-0.1-0.4c0.1-0.2,0.3-0.2,0.4-0.1c0.5,0.3,0.9,0.6,1.5,0.9
		c0.2,0.1,0.2,0.3,0.1,0.4l0,0C515,159.3,515,159.3,514.9,159.3L514.9,159.3z M511.9,157.5c-0.1,0-0.1,0-0.2,0
		c-0.5-0.3-1-0.5-1.5-0.8c-0.2-0.1-0.2-0.3-0.2-0.4c0.1-0.2,0.3-0.3,0.4-0.2l0,0c0.5,0.3,1,0.5,1.5,0.8c0.2,0.1,0.3,0.3,0.2,0.4l0,0
		C512.1,157.5,512,157.5,511.9,157.5L511.9,157.5z M508.8,156h-0.2c-0.9-0.4-1.5-0.7-1.5-0.7c-0.2-0.1-0.3-0.3-0.2-0.4
		c0.1-0.2,0.3-0.3,0.4-0.2c0,0,0.6,0.3,1.5,0.7c0.2,0.1,0.3,0.3,0.2,0.4l0,0C509,156,508.9,156,508.8,156L508.8,156z"/>
	<path class="st2" d="M469.5,140.6l5.6,6.7l29.7,4.8c-0.1,2.2-0.7,4.2-1.7,6.1c-1.7,2.8-6.4,5.5-6.4,5.5l-4.4-9l-37.3-3.6
		L469.5,140.6z"/>
	<path class="st0" d="M496.6,164.2L496.6,164.2c-0.2-0.1-0.3-0.2-0.3-0.3l-4.3-8.9l-37.1-3.5c-0.2,0-0.3-0.2-0.3-0.3
		c-0.1-0.2,0-0.3,0.2-0.4l14.5-10.4c0.2-0.2,0.4-0.1,0.6,0.1l5.5,6.6l29.5,4.8c0.2,0,0.3,0.2,0.3,0.4c-0.1,2.2-0.7,4.4-1.8,6.3
		c-1.7,2.8-6.4,5.5-6.5,5.6C496.8,164.2,496.7,164.2,496.6,164.2z M456.2,150.8l36.2,3.4c0.2,0,0.3,0.1,0.3,0.3l4.1,8.6
		c1.1-0.7,4.5-2.8,5.9-5.1c0.9-1.7,1.5-3.5,1.6-5.5l-29.3-4.7c-0.1,0-0.2-0.1-0.3-0.2l-5.3-6.4L456.2,150.8z"/>
</g>
<g id="freepik--character-2--inject-4">
	<path class="st1" d="M304.4,112.2l-8.5,16.4c0,0-18.8,4.9-23.8,6c-2.8,0.7-5.7,0.8-8.5,0.4l-7.8-1.1c0,0-7.7,4.5-8.2,4.8
		s-0.4,1.1,0.8,1.1c1.1-0.2,2.2-0.6,3.2-1.2c0,0-3.6,2.1-3.4,2.6c0.4,0.7,1.2,0.9,1.9,0.6l0,0c1.3-0.5,2.7-1,4.1-1.3
		c0,0-4.6,3.9-2.9,4.1s3.4-1.9,3.4-1.9s-1.8,2.8-0.6,2.5c1.3-0.5,2.5-1.2,3.6-2.1c0,0,5.8-0.5,7.9-0.8c1.3-0.2,2.6-0.7,3.7-1.4
		c0,0,13.3-0.4,18.8-1.4s12.4-2.4,13.1-3.2s11.8-21.1,11.8-21.1L304.4,112.2z"/>
	<path class="st0" d="M254.1,145.8c-0.2,0-0.5-0.1-0.6-0.3c-0.1-0.2-0.2-0.5-0.1-0.8c-0.6,0.4-1.3,0.6-2.1,0.5
		c-0.4,0-0.7-0.3-0.8-0.6c-0.2-0.7,0.7-1.9,1.9-3c-0.7,0.2-1.4,0.4-2,0.7c-0.5,0.3-1,0.3-1.5,0.2c-0.5-0.2-0.9-0.5-1.1-1
		c-0.1-0.2-0.2-0.5,0.5-1.2c-0.6,0-1.2-0.3-1.4-0.9c-0.1-0.5,0.1-0.9,0.5-1.1c0.4-0.2,5.5-3.2,8.1-4.8c0.1-0.1,0.2-0.1,0.3-0.1
		l7.8,1c2.8,0.4,5.6,0.3,8.3-0.4c4.7-1,21.5-5.4,23.6-6l8.5-16.2c0.1-0.2,0.4-0.3,0.6-0.2l8.7,3c0.1,0,0.2,0.2,0.3,0.3
		c0.1,0.1,0.1,0.3,0,0.4c-1.1,2.1-11.1,20.4-11.8,21.2c-0.9,1.1-8.8,2.6-13.4,3.4c-5.2,0.9-17.1,1.4-18.7,1.4
		c-1.1,0.7-2.4,1.2-3.8,1.4c-1.8,0.2-6.9,0.7-7.7,0.8c-1.1,0.9-2.4,1.6-3.7,2.1C254.3,145.8,254.2,145.8,254.1,145.8z M254.8,142.3
		c0.1,0,0.2,0,0.3,0.1c0.2,0.1,0.3,0.4,0.1,0.7l0,0c-0.3,0.5-0.6,1.1-0.8,1.6c1.1-0.5,2.2-1.2,3.2-1.9c0.1,0,0.2-0.1,0.2-0.1
		c0.1,0,5.9-0.5,7.9-0.8c1.2-0.2,2.4-0.6,3.4-1.3c0.1-0.1,0.2-0.1,0.3-0.1c0.1,0,13.3-0.4,18.7-1.4c7.8-1.4,12.3-2.6,12.8-3.1
		c0.5-0.6,7-12.4,11.4-20.5l-7.7-2.7l-8.3,16c-0.1,0.1-0.2,0.2-0.3,0.2c-0.2,0-18.9,4.9-23.9,6c-2.8,0.7-5.8,0.8-8.7,0.4l-7.6-1
		c-1.1,0.6-7.6,4.5-8,4.7c0.1,0.1,0.4,0.2,0.6,0.2c1.1-0.2,2.1-0.6,3-1.1c0.2-0.1,0.5,0,0.7,0.2c0.1,0.2,0,0.5-0.2,0.7
		c-1.1,0.6-2.1,1.3-3.1,2.1c0.1,0.1,0.3,0.2,0.4,0.3c0.2,0.1,0.5,0.1,0.7-0.1c1.4-0.5,2.8-1,4.2-1.3c0.3-0.1,0.5,0.1,0.6,0.3
		c0.1,0.2,0,0.4-0.2,0.5c-1.2,0.9-2.2,2-3.1,3.2c1.2,0,2.5-1.2,2.9-1.7C254.6,142.3,254.7,142.3,254.8,142.3z M295.9,128.6
		L295.9,128.6z"/>
	<path class="st0" d="M251.8,141.1L251.8,141.1c-1.1,0-1.3-0.5-1.4-0.8c-0.1-0.8,0.2-1.6,0.9-2c0.8-0.6,6.5-3.1,7.2-3.4
		c0.3-0.1,0.5,0,0.7,0.3l0,0c0.1,0.3,0,0.5-0.3,0.7c-2.4,1-6.5,2.9-7,3.3c-0.3,0.2-0.5,0.5-0.5,0.9c0,0,0.1,0.1,0.4,0.1
		c1.1,0.1,4.8-1.1,6.2-1.5c0.2-0.1,0.4,0,0.5,0.1c1.2,1.2,3,1.4,4.5,0.6l2.9-1.6c0.2-0.1,0.5-0.1,0.7,0.2c0.1,0.2,0.1,0.5-0.2,0.7
		l0,0l-2.8,1.6c-1.8,1-4,0.8-5.5-0.5C256,140.3,253.9,140.8,251.8,141.1z"/>
	<path class="st1" d="M308.3,172.3l3.4,13.5c0,0-5.2,3.5-6.5,4.3s-6.4,2-7.7,2.5s-2.1,1.8-0.6,2.6s9.5,1.5,13,1.4s8.8-0.8,8.8-0.8
		s5.2,0,5.7-1.1s0.1-5-0.9-6.3c-1.3-1.7-2.3-3.6-3-5.5c-0.3-1.3-1.4-8.8-1.4-8.8L308.3,172.3z"/>
	<path class="st0" d="M308.8,197.2c-3.8,0-10.7-0.6-12.2-1.5c-0.6-0.3-1-0.9-1-1.6c0.2-0.9,0.9-1.6,1.7-1.9c0.5-0.2,1.5-0.5,2.7-0.9
		c1.7-0.4,3.3-1,4.9-1.6c1.2-0.6,5.1-3.3,6.2-4.1l-3.3-13.2c0-0.2,0-0.3,0.1-0.5c0.1-0.1,0.3-0.2,0.5-0.1l10.7,1.8
		c0.2,0,0.4,0.2,0.4,0.4c0,0.1,1.1,7.6,1.4,8.8c0.7,1.9,1.7,3.7,2.9,5.3c1.1,1.4,1.5,5.5,1,6.8s-4.5,1.4-6.1,1.4
		c0,0-5.3,0.6-8.8,0.8L308.8,197.2z M308.9,173l3.2,12.8c0.1,0.2,0,0.4-0.2,0.5s-5.2,3.5-6.6,4.3c-1.7,0.7-3.4,1.3-5.1,1.7
		c-1.1,0.3-2.2,0.6-2.6,0.8c-0.6,0.2-1.1,0.7-1.1,1.1s0.3,0.5,0.5,0.7c1.3,0.8,8.9,1.5,12.7,1.3c3.5-0.1,8.7-0.8,8.8-0.8
		c2.6,0,5.1-0.4,5.3-0.8c0.4-0.9,0.1-4.6-0.8-5.8c-1.3-1.7-2.4-3.7-3.1-5.8c-0.2-1.1-1.1-7-1.3-8.5L308.9,173z"/>
	<path class="st1" d="M324.3,194.8c0.5-1.1,0.1-5-0.9-6.3c-0.2-0.2-0.4-0.6-0.7-1c-2.9,1.3-9.1,1.6-9.1,1.6
		c-0.3-0.7-0.5-1.5-0.6-2.3s-1.3-1-1.3-1s-5.2,3.5-6.5,4.3s-6.4,2-7.7,2.5s-2.1,1.8-0.6,2.6s9.5,1.5,13,1.4s8.8-0.8,8.8-0.8
		S323.8,195.9,324.3,194.8z"/>
	<path class="st0" d="M308.8,197.2c-3.8,0-10.7-0.6-12.2-1.5c-0.6-0.3-1-0.9-1-1.6c0.2-0.9,0.9-1.6,1.7-1.9c0.5-0.2,1.5-0.5,2.7-0.9
		c1.7-0.4,3.3-1,4.9-1.6c1.4-0.7,6.5-4.2,6.5-4.3c0.1-0.1,0.3-0.1,0.4-0.1s1.5,0.4,1.6,1.4c0.1,0.6,0.3,1.2,0.5,1.8
		c1.4-0.1,6.2-0.5,8.6-1.5c0.2-0.1,0.5,0,0.6,0.2c0.2,0.4,0.5,0.7,0.7,0.9c1.1,1.4,1.5,5.5,1,6.8s-4.5,1.4-6.1,1.4
		c0,0-5.3,0.6-8.8,0.8L308.8,197.2z M311.8,186.4c-1,0.7-5.1,3.5-6.4,4.2c-1.7,0.7-3.4,1.3-5.1,1.7c-1.1,0.3-2.2,0.6-2.6,0.8
		c-0.6,0.2-1.1,0.7-1.1,1.1s0.3,0.5,0.5,0.7c1.3,0.8,8.9,1.5,12.7,1.3c3.5-0.1,8.7-0.8,8.8-0.8c2.6,0,5.1-0.4,5.3-0.8l0.5,0.2
		l-0.5-0.2c0.4-0.9,0.1-4.6-0.8-5.8c-0.1-0.2-0.3-0.4-0.5-0.7c-3.1,1.2-8.7,1.5-8.9,1.5c-0.2,0-0.4-0.1-0.5-0.3
		c-0.3-0.8-0.5-1.5-0.6-2.3C312.4,186.7,312,186.5,311.8,186.4L311.8,186.4z"/>
	<path class="st1" d="M339.3,179.4l7.8,3.3c0,2.3-0.5,4.5-1.5,6.6c-1.6,2.9-2.6,5-4.5,6s-3.9,2.5-2.6,3.5s13.2,0.9,14.6,0.4
		s5.7-7.1,6.7-8.8s2.6-7.2,2-8s-4.2-4.7-4.2-4.7l-1.1-0.6l-14.4-2L339.3,179.4z"/>
	<path class="st0" d="M346.3,200.1c-3.6,0-7.4-0.2-8.2-0.9c-0.4-0.3-0.6-0.8-0.6-1.2c0.1-1.2,1.9-2.4,3.3-3.1s2.5-2.5,3.8-4.8l0.6-1
		c0.9-1.9,1.4-3.9,1.5-6l-7.5-3.1c-0.1-0.1-0.2-0.2-0.3-0.3c0-0.1,0-0.3,0-0.4l2.8-4.3c0.1-0.2,0.3-0.2,0.5-0.2l14.4,2
		c0.1,0,0.1,0,0.2,0.1l1.1,0.6l0.1,0.1c0.1,0.2,3.5,3.9,4.2,4.7c0.9,1.1-1.1,7-2,8.5c-0.5,0.8-5.2,8.4-7,9
		C350.9,200,348.6,200.2,346.3,200.1z M340,179.2l7.3,3c0.2,0.1,0.3,0.2,0.3,0.4c0,2.4-0.5,4.7-1.6,6.8l-0.6,1
		c-1.3,2.4-2.4,4.3-4.2,5.2c-2,1-2.7,1.9-2.8,2.3c0,0,0,0.2,0.2,0.4c1,0.8,12.6,0.9,14.1,0.3c1.1-0.4,5.1-6.3,6.4-8.6
		c1-1.8,2.4-6.7,2-7.4c-0.6-0.7-3.6-4.1-4.1-4.6l-1-0.5l-14-2L340,179.2z"/>
	<path class="st1" d="M361.8,182.4c-0.6-0.8-4.2-4.7-4.2-4.7l-1.1-0.6h-0.1c0,1,0,2.1,0,2.9c0,2.1-2.6,4.7-2.6,4.7
		c-1.5-1-3-1.8-4.7-2.4c-2.5-0.9-1.9,0.4-1.9,0.4c0,2.3-0.5,4.5-1.5,6.6c-1.6,2.9-2.6,5-4.5,6s-3.9,2.5-2.6,3.5s13.2,0.9,14.6,0.4
		s5.7-7.1,6.7-8.8S362.4,183.2,361.8,182.4z"/>
	<path class="st0" d="M346.3,200.1c-3.6,0-7.4-0.2-8.2-0.9c-0.4-0.3-0.6-0.8-0.6-1.2c0.1-1.2,1.9-2.4,3.3-3.1s2.5-2.5,3.8-4.8l0.6-1
		c1-1.9,1.5-4,1.5-6.2c-0.1-0.3-0.1-0.7,0.1-1c0.4-0.4,1.1-0.4,2.4,0c1.6,0.6,3,1.3,4.4,2.2c0.6-0.7,2.2-2.5,2.2-4
		c0-0.8,0-1.9,0-2.9c0-0.1,0.1-0.3,0.2-0.4s0.3-0.1,0.4-0.1s0.2,0,0.3,0.1l1.1,0.6l0.1,0.1c0.1,0.2,3.5,3.9,4.2,4.7
		c0.9,1.1-1.1,7-2,8.5c-0.5,0.8-5.2,8.4-7,9C350.9,200,348.6,200.2,346.3,200.1z M347.6,182.5c0,0.1,0,0.1,0,0.2
		c0,2.4-0.5,4.7-1.6,6.8l-0.6,1c-1.3,2.4-2.4,4.3-4.2,5.2c-2,1-2.7,1.9-2.8,2.3c0,0,0,0.2,0.2,0.4c1,0.8,12.6,0.9,14.1,0.3
		c1.1-0.4,5.1-6.3,6.4-8.6c1-1.8,2.4-6.7,2.1-7.4c-0.6-0.7-3.6-4.1-4.1-4.6l-0.4-0.2c0,0.7,0,1.5,0,2.1c0,2.3-2.7,4.9-2.8,5
		c-0.2,0.2-0.5,0.2-0.6,0c-1.4-1-2.9-1.7-4.5-2.3C348.4,182.6,348,182.5,347.6,182.5z"/>
	<path class="st0" d="M331.7,145.5l-0.8,2.3c0,0-9.7-7.3-19.4-10.7s-17-4.2-19.8-0.5s-1,11.2,1.8,15s9.7,21.8,9.7,21.8l4.2,0.2
		l4.3,3.5c0,0,13,3,14.5,3.7s9.8,4.8,9.8,4.8c1.8-1.5,3.5-3.2,5-4.9c1-1.6,2-3.3,2.8-5l14.8,1.6c0,0,6.9-5.3,7.8-13.4
		s-0.6-13.6-1.5-15s-2.8-4.4-2.8-4.4l-1.5-1.9L331.7,145.5z"/>
	<path class="st0" d="M336,186.1c-0.1,0-0.2,0-0.2,0c-0.1,0-8.3-4.2-9.8-4.8c-1.2-0.5-10-2.6-14.4-3.6c-0.1,0-0.1-0.1-0.2-0.1
		l-4.1-3.4l-4-0.2c-0.2,0-0.4-0.1-0.4-0.3c-0.1-0.2-7-18-9.6-21.7s-4.8-11.6-1.8-15.6c2.7-3.6,9.4-3.5,20.4,0.3
		c8.4,2.9,16.8,8.8,19,10.4l0.5-1.6c0.1-0.2,0.2-0.3,0.4-0.3l28.9-2.9c0.2,0,0.3,0,0.4,0.2l1.5,1.9c0,0,1.9,3.1,2.8,4.5
		s2.5,7.1,1.6,15.3s-7.7,13.5-8,13.7c-0.1,0.1-0.2,0.1-0.4,0.1l-14.4-1.6c-0.8,1.7-1.7,3.3-2.7,4.8c-1.6,1.8-3.3,3.4-5.1,5
		C336.3,186.1,336.1,186.1,336,186.1z M311.9,176.7c1.4,0.3,13,3,14.5,3.7s8,3.9,9.6,4.6c1.7-1.4,3.3-3,4.7-4.6c1-1.6,1.9-3.2,2.7-5
		c0.1-0.2,0.3-0.3,0.5-0.3l14.5,1.6c1-0.8,6.7-5.8,7.5-12.9c0.9-7.9-0.6-13.4-1.4-14.7s-2.8-4.4-2.8-4.4l-1.3-1.6l-28.3,2.8l-0.7,2
		c0,0.2-0.2,0.3-0.3,0.3c-0.2,0-0.3,0-0.5-0.1c-0.1-0.1-9.8-7.3-19.3-10.6c-10.4-3.6-16.8-3.9-19.2-0.7s-1.1,10.6,1.8,14.4
		c2.6,3.6,8.7,19.2,9.6,21.6l3.9,0.2c0.1,0,0.2,0.1,0.3,0.1L311.9,176.7z"/>
	<path class="st1" d="M359,164.1c-0.1,0-0.2,0-0.3-0.1c-1.1-0.7-2.2-1.4-3.4-2c-0.2-0.1-0.3-0.4-0.2-0.7c0.1-0.2,0.4-0.3,0.7-0.2
		l0,0c1.2,0.6,2.4,1.3,3.5,2c0.2,0.2,0.3,0.5,0.1,0.7l0,0C359.3,164,359.2,164.1,359,164.1z"/>
	<path class="st1" d="M306.1,172c-0.2,0-0.3-0.1-0.4-0.2c-0.1-0.2-3.7-4.7-1.8-8.4c2-3.8,23.3-7.8,35.7-6.7
		c4.9,0.3,9.7,1.5,14.2,3.5c0.3,0.1,0.4,0.4,0.3,0.6c-0.1,0.3-0.4,0.4-0.6,0.3h-0.1c-4.4-1.9-9.1-3.1-13.9-3.5
		c-12.4-1.1-33.1,3-34.7,6.2s1.7,7.2,1.7,7.3c0.2,0.2,0.1,0.5-0.1,0.7C306.4,171.9,306.2,172,306.1,172z"/>
	<path class="st1" d="M358.1,157.6H358c-5.4-0.7-10.9-1-16.4-0.8c-0.3,0-0.5-0.2-0.5-0.4l0,0c0-0.3,0.2-0.5,0.5-0.5
		c5.6-0.3,11.1,0,16.6,0.8c0.3,0,0.5,0.3,0.5,0.5S358.4,157.6,358.1,157.6L358.1,157.6z"/>
	<path class="st0" d="M337.3,154.9c-0.2,0-0.4-0.1-0.5-0.3c-1.1-2.1-5.1-5.5-5.2-5.5c-0.2-0.2-0.2-0.5-0.1-0.7
		c0.2-0.2,0.5-0.2,0.7-0.1l0,0c0.2,0.1,4.2,3.5,5.4,5.8c0.1,0.2,0,0.5-0.2,0.7l0,0C337.4,154.9,337.4,154.9,337.3,154.9z"/>
	<path class="st1" d="M314.7,159.5c-0.2,0-0.3-0.1-0.4-0.2c-3.2-4.2-16.5-13.7-16.7-13.8c-0.2-0.2-0.3-0.5-0.1-0.7
		c0.2-0.2,0.5-0.3,0.7-0.1c0.5,0.4,13.6,9.7,16.9,14c0.2,0.2,0.1,0.5-0.1,0.7l0,0C314.9,159.5,314.8,159.5,314.7,159.5z"/>
	<path class="st1" d="M343.8,176.1c-0.1,0-0.1,0-0.2,0s-9.1-4.1-13.9-5.1c-1.7-0.4-2.9-0.5-3.9-0.6c-1.9-0.1-3.7-0.7-5.4-1.6
		c-0.3-0.1-0.4-0.4-0.3-0.7c0.1-0.3,0.4-0.4,0.7-0.3c0,0,0,0,0.1,0c1.6,0.8,3.3,1.3,5.1,1.5c1,0.1,2.2,0.3,4,0.6
		c4.9,1,13.7,5,14.1,5.2c0.3,0.1,0.4,0.4,0.2,0.7C344.2,176,344,176.1,343.8,176.1z"/>
	<path class="st1" d="M316.8,171.1c-1,0-1.8-0.1-1.9-0.1c-0.3,0-0.5-0.3-0.5-0.5c0-0.3,0.3-0.5,0.5-0.5c0,0,4.6,0.4,7-0.7
		c0.3-0.1,0.5,0,0.6,0.3c0.1,0.2,0,0.5-0.2,0.6C320.6,170.9,318.7,171.2,316.8,171.1z"/>
	<path class="st1" d="M318.9,91.1c0,0-6.6,4.5-8,7.8s-6.5,13.3-6.5,13.3l8.9,4.8c0,0,8.7,14.9,10.9,19.7c1.3,2.9,3.5,5.2,6.3,6.6
		c0,0,0.8,1.8,2,2s28.1-2.6,28.1-2.6c-0.3-1.8-0.7-3.6-1.3-5.3c-0.8-2.1-4.4-6.9-5-9.7s-2.6-17.7-6.2-24.1s-11.6-12-13-13.4
		s-0.8-1.3-2.1-1.8S323.9,87.9,318.9,91.1z"/>
	<path class="st0" d="M332.7,145.7c-0.1,0-0.2,0-0.3,0c-1-0.3-1.9-1.1-2.3-2.1c-2.8-1.5-5.1-3.8-6.4-6.7c-2-4.5-9.9-18.1-10.8-19.5
		l-8.8-4.7c-0.2-0.1-0.3-0.4-0.2-0.7c0-0.1,5.1-10,6.5-13.2s7.9-7.8,8.2-8l0,0c5.1-3.3,13-3.4,14.6-2.8c1,0.4,1.1,0.5,1.5,0.9
		c0.3,0.3,0.5,0.7,0.9,1c0.3,0.3,0.9,0.8,1.7,1.4c3,2.4,8.6,6.9,11.4,12.1s4.7,15.7,5.7,21.4c0.2,1.3,0.4,2.3,0.5,2.9
		c0.7,2.1,1.7,4,3,5.8c0.8,1.2,1.5,2.5,2.1,3.8c0.6,1.8,1,3.6,1.3,5.4c0,0.1,0,0.3-0.1,0.4s-0.2,0.2-0.4,0.2
		C356.4,143.6,335.9,145.7,332.7,145.7z M305.1,112l8.5,4.6c0.1,0,0.1,0.1,0.2,0.2c0.4,0.6,8.7,15,10.9,19.7c1.2,2.7,3.3,5,6,6.3
		c0.1,0.1,0.2,0.1,0.3,0.3c0.2,0.4,0.8,1.6,1.6,1.7c1,0.2,16.8-1.4,27.4-2.6c-0.3-1.6-0.6-3.2-1.1-4.7c-0.6-1.3-1.2-2.5-2-3.6
		c-1.3-1.9-2.3-4-3.1-6.1c-0.1-0.6-0.3-1.6-0.5-2.9c-0.9-5.2-2.8-16-5.6-21s-8.2-9.4-11.2-11.8c-0.8-0.7-1.4-1.1-1.7-1.5
		c-0.3-0.3-0.6-0.6-0.9-1c-0.2-0.3-0.3-0.3-1-0.6c-1.3-0.5-8.9-0.4-13.7,2.7c-0.2,0.1-6.5,4.5-7.8,7.5
		C310.1,102,306.1,110,305.1,112L305.1,112z"/>
	<path class="st0" d="M354.9,143.1h-0.1c-1.9-0.4-14-1.5-19.1-2c-0.3,0-0.5-0.3-0.5-0.5c0-0.3,0.3-0.5,0.5-0.5
		c6.4,0.6,17.4,1.6,19.2,2c0.3,0,0.5,0.3,0.5,0.6C355.4,142.9,355.1,143.1,354.9,143.1L354.9,143.1z"/>
	<path class="st0" d="M334.2,141L334.2,141l-2.1-0.2c-0.3,0-0.5-0.3-0.5-0.5c0-0.3,0.3-0.5,0.5-0.5l0,0l2.1,0.2
		c0.3,0,0.5,0.2,0.5,0.5S334.6,141,334.2,141L334.2,141z"/>
	<path class="st0" d="M357,141.8h-0.1l-2.4-0.5c-0.3-0.1-0.4-0.3-0.4-0.6c0.1-0.3,0.3-0.4,0.6-0.4l0,0l2.4,0.5
		c0.3,0.1,0.4,0.3,0.4,0.6l0,0C357.4,141.6,357.2,141.8,357,141.8z"/>
	<path class="st0" d="M351.2,140.5h-0.1l-9.7-2.1c-0.3-0.1-0.5-0.3-0.4-0.6s0.3-0.5,0.6-0.4l9.6,2.1c0.3,0,0.5,0.3,0.5,0.6
		C351.8,140.3,351.5,140.5,351.2,140.5z"/>
	<path class="st0" d="M350.7,125.4h-0.1c-0.5-0.1-1.6-0.5-3.2-1.1c-0.3-0.1-0.4-0.4-0.3-0.6c0.1-0.3,0.4-0.4,0.6-0.3
		c1.6,0.6,2.6,0.9,3.1,1.1c0.3,0.1,0.4,0.4,0.4,0.6C351.1,125.2,350.9,125.4,350.7,125.4z"/>
	<path class="st0" d="M345.4,123.5c-0.1,0-0.1,0-0.2,0c-3.5-1.3-7.2-2.9-7.2-2.9c-0.3-0.1-0.4-0.4-0.3-0.6l0,0
		c0.1-0.3,0.4-0.4,0.6-0.3l0,0c0,0,3.8,1.5,7.2,2.9c0.3,0.1,0.4,0.4,0.3,0.6l0,0C345.8,123.4,345.6,123.5,345.4,123.5z"/>
	<path class="st1" d="M304.2,68.1c-0.4,1.7-0.8,3.3-1,5c-0.5,3.4,1.4,4.5,1.8,6.7s-2.1,5.2-2,6s2.4,0.9,2.4,0.9s4.5,7.8,5.7,8
		s5.5-3.5,5.5-3.5l4.8,5.3c0,0-0.5,4.2,0.6,3.6c2.2-1.3,4.1-3,5.7-5c1.5-1.8,3.3-3.4,5.3-4.7c0,0-3.2-4-3.8-6.4s2-0.5,2.5-6.3
		S330,66.2,326,63.1s-11.9-4.5-17.4-1.5S303.9,67,304.2,68.1z"/>
	<path class="st0" d="M321.9,100.6c-0.2,0-0.3-0.1-0.5-0.2c-0.7-0.5-0.6-2.6-0.5-3.9l-4.3-4.8c-1.3,1.1-4.3,3.5-5.5,3.3
		s-4.2-4.9-6-8c-0.8,0-2.4-0.2-2.6-1.3c0.1-0.8,0.3-1.5,0.8-2.1c0.6-1.2,1.5-2.8,1.3-3.9c-0.2-0.7-0.4-1.3-0.8-2
		c-0.9-1.5-1.3-3.2-1-4.9c0.2-1.7,0.6-3.3,1-5c-0.6-1.7-0.6-4.2,4.6-7c5.8-3.2,13.8-1.6,18,1.6s6.5,9.2,6,15.1
		c-0.3,3.6-1.4,4.4-2.2,5c-0.5,0.4-0.5,0.4-0.4,1.1c0.6,2.3,3.7,6.2,3.7,6.3c0.1,0.1,0.1,0.3,0.1,0.4c0,0.1-0.1,0.3-0.2,0.3
		c-1.9,1.3-3.7,2.8-5.2,4.6c-2.5,3-4.7,4.6-5.9,5.2C322.1,100.6,322,100.6,321.9,100.6z M316.6,90.6c0.1,0,0.3,0.1,0.4,0.2l4.8,5.3
		c0.1,0.1,0.1,0.3,0.1,0.4c-0.2,1-0.2,2.1,0,3.1c2.1-1.3,3.9-2.9,5.4-4.9c1.4-1.7,3.1-3.2,5-4.5c-0.8-1.1-3-4.2-3.5-6.2
		c-0.3-0.8,0-1.7,0.7-2.2c0.6-0.5,1.5-1.2,1.8-4.3c0.5-5.6-1.7-11.1-5.6-14.2s-11.4-4.4-16.9-1.5c-5.2,2.9-4.4,5.1-4.1,6
		c0,0.1,0,0.2,0,0.3c-0.4,1.6-0.8,3.3-1,5c-0.2,1.5,0.1,3,0.9,4.3c0.4,0.7,0.7,1.4,0.9,2.2c0.3,1.5-0.6,3.2-1.4,4.6
		c-0.3,0.5-0.5,1-0.7,1.5c0,0.2,0.9,0.5,1.9,0.5c0.2,0,0.3,0.1,0.4,0.2c2,3.5,4.6,7.5,5.4,7.7s3.1-1.7,5.1-3.4
		C316.3,90.7,316.5,90.6,316.6,90.6z"/>
	<path class="st0" d="M325.9,63c-4-3.2-11.9-4.5-17.4-1.5s-4.7,5.5-4.3,6.6c1.4,0.8,3,1.5,4.5,1.9c1.9,0.4,5-1.1,5.2,2.5
		s4.3,7.3,5.9,5.3s4.2-2.1,4.8,0.1s-1.1,3.9-0.1,5s4.2,0.1,4.2,0.1h0.4c0.2-1.1,2.2-0.6,2.6-5.5C332.2,71.8,330,66.2,325.9,63z"/>
	<path class="st0" d="M326.2,84c-0.8,0.1-1.5-0.2-2.1-0.7c-0.7-0.8-0.4-1.7-0.2-2.6c0.3-0.8,0.4-1.8,0.2-2.6
		c-0.1-0.6-0.6-1.1-1.2-1.3c-1.1-0.1-2.1,0.4-2.7,1.3c-0.6,0.7-1.6,1-2.5,0.6c-2.5-1.1-4.1-3.5-4.3-6.2c0-0.6-0.1-1.2-0.5-1.6
		c-0.7-0.4-1.6-0.5-2.4-0.4c-0.6,0.1-1.2,0-1.8,0c-1.6-0.4-3.2-1.1-4.7-1.9c-0.1-0.1-0.2-0.1-0.2-0.3c-0.6-1.7-0.9-4.2,4.5-7.2
		c5.8-3.2,13.8-1.6,18,1.6l0,0c4.2,3.2,6.5,9.2,6,15.1c-0.3,3.6-1.4,4.4-2.2,5c-0.3,0.2-0.4,0.3-0.4,0.5c-0.1,0.2-0.3,0.4-0.5,0.4
		h-0.4C328,83.8,327.1,84,326.2,84z M322.6,75.7c0.2,0,0.4,0,0.5,0c1,0.2,1.8,1,2,2c0.2,1.1,0.2,2.2-0.2,3.2c-0.2,0.8-0.4,1.3,0,1.6
		c0.6,0.7,2.7,0.3,3.6,0c0.1,0,0.1,0,0.2,0h0.1c0.2-0.3,0.4-0.5,0.6-0.6c0.6-0.5,1.5-1.2,1.8-4.3c0.5-5.6-1.7-11.1-5.6-14.2l0,0
		c-3.9-3-11.4-4.4-16.9-1.5c-4.9,2.7-4.5,4.8-4.1,5.8c1.3,0.8,2.8,1.4,4.2,1.8c0.5,0.1,1.1,0.1,1.6,0c1.1-0.2,2.2,0,3.1,0.6
		c0.6,0.6,0.9,1.5,0.9,2.4c0.2,2.3,1.6,4.3,3.6,5.3c0.5,0.2,1.1,0.1,1.4-0.3C320.3,76.5,321.4,75.8,322.6,75.7z"/>
	<path class="st0" d="M337.5,65.9c0,3.6-2.8,6.5-6.4,6.6c-3.6,0-6.5-2.8-6.6-6.4s2.8-6.5,6.4-6.6c0,0,0,0,0.1,0
		C334.6,59.5,337.5,62.3,337.5,65.9z"/>
	<path class="st0" d="M331,72.8c-3.8,0-6.9-3.2-6.9-7s3.2-6.9,7-6.9s6.9,3.1,6.9,6.9C338,69.7,334.8,72.8,331,72.8z M331,60
		c-3.3,0-5.9,2.7-5.9,6s2.7,5.9,6,5.9c3.2,0,5.9-2.7,5.9-5.9C337,62.6,334.3,60,331,60z"/>
	<path class="st0" d="M308.5,81c0.2,0.7,0.2,1.3-0.2,1.5s-0.9-0.3-1.1-1s-0.2-1.4,0.2-1.5S308.2,80.3,308.5,81z"/>
	<path class="st0" d="M308.1,89.6c-0.3,0-0.5-0.1-0.6-0.4c0-0.3,0.1-0.5,0.4-0.6c0.9-0.3,1.5-1,1.8-1.9c0.1-0.3,0.3-0.4,0.6-0.3l0,0
		c0.3,0.1,0.4,0.4,0.4,0.6C310.3,88.2,309.4,89.2,308.1,89.6C308.3,89.6,308.2,89.6,308.1,89.6z"/>
	<path class="st0" d="M308.8,79.6c-0.1,0-0.3-0.1-0.4-0.1c-0.6-0.7-1.6-0.9-2.4-0.4c-0.2,0.1-0.5,0-0.7-0.2
		c-0.1-0.2-0.1-0.5,0.1-0.6c1.2-0.7,2.7-0.5,3.7,0.6c0.2,0.2,0.2,0.5,0,0.7C309,79.6,308.9,79.7,308.8,79.6z"/>
	<path class="st0" d="M321.4,84.1h-1.1c-0.3,0-0.5-0.2-0.5-0.5s0.2-0.5,0.5-0.5h1.1c0.6,0,1.8-1.1,2.4-1.8c0.2-0.2,0.5-0.2,0.7-0.1
		c0.2,0.2,0.2,0.5,0.1,0.7l0,0C324.3,82.2,322.7,84.1,321.4,84.1z"/>
	<path class="st1" d="M334.3,97.4c0,0-4.9,2.2-6.5,3.6s-10.8,9.4-10.8,9.4l18.1,11.6l12.6-9.4"/>
	<path class="st0" d="M335.1,122.5c-0.1,0-0.2,0-0.3-0.1l-18.1-11.6c-0.1-0.1-0.2-0.2-0.2-0.4s0.1-0.3,0.2-0.4
		c0.1-0.1,9.2-8,10.8-9.4s6.4-3.6,6.6-3.7c0.3-0.1,0.5,0,0.7,0.2c0.1,0.2,0,0.5-0.2,0.7l0,0c0,0-4.9,2.2-6.4,3.6
		c-1.4,1.2-8.4,7.2-10.3,8.9l17.3,11l12.4-9.2c0.2-0.2,0.5-0.1,0.7,0.1c0.2,0.2,0.1,0.5-0.1,0.7l0,0l-12.6,9.4
		C335.3,122.5,335.2,122.5,335.1,122.5z"/>
	<path class="st1" d="M317,110.5l-15.5,6.2c0,0-9.5,1.1-18.1,1.4s-16.8,0.3-17.6,0.1s-8.6-4.5-9.3-4.7s-7.5,2.2-7.5,2.2
		s-1.1,3.5-0.9,4.1s1.4,0.2,1.4,0.2c0.2,0.9,0.5,1.8,0.9,2.6c0.4,0.4,1,1.8,1.6,1.3c0.9-1,1.7-2.2,2.4-3.3c2,0.8,4,1.6,6,2.2
		c1.6,0.4,10.9,1.4,13,1.6s27.1,3.2,27.8,2.6s25-10.9,25-10.9L317,110.5z"/>
	<path class="st0" d="M300.2,127.6c-5.2,0-26.8-2.6-27-2.6l-2-0.2c-3.6-0.4-9.7-1.1-11-1.4c-1.9-0.6-3.8-1.3-5.7-2
		c-0.7,1.1-1.5,2.1-2.3,3.1c-0.2,0.2-0.5,0.3-0.8,0.2c-0.6-0.1-1-0.7-1.3-1.2c-0.1-0.1-0.2-0.3-0.2-0.4c-0.4-0.7-0.7-1.5-0.9-2.4
		c-0.3,0.1-0.7,0-1-0.1c-0.2-0.1-0.4-0.3-0.4-0.6c-0.2-0.6,0.5-3,0.9-4.4c0-0.2,0.2-0.3,0.3-0.3c3.2-1.1,7.1-2.4,7.8-2.2
		c0.3,0.1,1.6,0.8,3.9,2c2,1,4.9,2.6,5.4,2.7c0.7,0.2,8.7,0.1,17.5-0.1c8.1-0.3,17.1-1.3,18-1.4l15.4-6.2c0.1-0.1,0.3-0.1,0.5,0
		l9,5.7c0.2,0.1,0.2,0.3,0.2,0.5s-0.1,0.3-0.3,0.4c-9.6,4.1-24.1,10.3-24.9,10.8C301,127.5,300.6,127.6,300.2,127.6z M254.3,120.1
		c0.1,0,0.1,0,0.2,0c0,0,4.3,1.8,5.9,2.1c1.3,0.3,7.5,1,10.9,1.4l2,0.2c4.5,0.5,25.9,3,27.5,2.7c1.6-0.9,17.8-7.8,24.1-10.5l-8-5.1
		l-15.3,6.1h-0.1c-0.1,0-9.6,1.1-18.1,1.4c-8.4,0.3-16.8,0.3-17.7,0.1c-1.9-0.8-3.8-1.8-5.6-2.8c-1.6-0.9-3.5-1.9-3.8-2
		c-2.4,0.5-4.7,1.2-7,2.1c-0.4,1.2-0.7,2.4-0.9,3.6c0,0,0.4-0.1,0.7-0.2c0.1-0.1,0.3-0.1,0.4,0c0.1,0.1,0.2,0.2,0.2,0.3
		c0.2,0.8,0.4,1.7,0.8,2.4c0.1,0.2,0.2,0.3,0.3,0.5s0.5,0.7,0.6,0.8c0.8-1,1.6-2.1,2.3-3.2C254,120.1,254.1,120.1,254.3,120.1z
		 M301.5,116.7L301.5,116.7z"/>
	<path class="st0" d="M249.4,120.5c-0.1,0-0.2,0-0.2-0.1c-0.2-0.1-0.3-0.4-0.2-0.7l0,0l1.5-2.8c0.1-0.1,0.1-0.2,0.2-0.2l3.2-1.3
		c0.3-0.1,0.6,0,0.7,0.3s0,0.6-0.3,0.7l-3,1.2l-1.4,2.7C249.7,120.4,249.5,120.5,249.4,120.5z"/>
	<path class="st0" d="M250.2,123.1c-0.1,0-0.1,0-0.2,0c-0.3-0.1-0.4-0.4-0.3-0.6l1.4-3.4c0-0.1,0.1-0.2,0.2-0.2l2.9-2.3
		c0.2-0.1,0.6-0.1,0.7,0.2c0.1,0.2,0.1,0.5-0.1,0.6l-2.9,2.2l-1.3,3.3C250.6,123,250.4,123.1,250.2,123.1z"/>
	<path class="st0" d="M251.9,124.4h-0.1c-0.3-0.1-0.4-0.3-0.4-0.6l0.7-3.5c0-0.1,0.1-0.2,0.2-0.3l2.9-2.5c0.2-0.2,0.5-0.2,0.7,0l0,0
		c0.2,0.2,0.2,0.5-0.1,0.7l-2.8,2.4l-0.7,3.4C252.3,124.2,252.1,124.4,251.9,124.4z"/>
</g>
<g id="freepik--Plants--inject-4">
	<path class="st0" d="M538.7,194.4c-0.3,0-0.5-0.2-0.5-0.5v-76.8c0-0.3,0.2-0.5,0.5-0.5s0.5,0.2,0.5,0.5V194
		C539.2,194.2,539,194.4,538.7,194.4z"/>
	<path class="st0" d="M539.2,169.4c-0.1,0-0.2,0-0.3-0.1c-0.2-0.2-0.2-0.5,0-0.7l0,0l21.5-23.5c0.2-0.2,0.5-0.1,0.7,0.1
		c0.1,0.2,0.2,0.4,0,0.6l-21.5,23.5C539.5,169.4,539.4,169.4,539.2,169.4z"/>
	<path class="st0" d="M538.6,146.8c-0.1,0-0.3,0-0.3-0.1L523.9,133c-0.2-0.2-0.2-0.5,0-0.7l0,0c0.2-0.2,0.5-0.2,0.7,0l0,0L539,146
		c0.2,0.2,0.2,0.5,0,0.7C538.9,146.8,538.7,146.8,538.6,146.8L538.6,146.8z"/>
	<path class="st0" d="M551,156.8L551,156.8c-0.3,0-0.5-0.3-0.5-0.5l1.1-14.1c0-0.3,0.2-0.5,0.5-0.5l0,0c0.3,0,0.5,0.3,0.5,0.5
		l-1.1,14.2C551.5,156.6,551.2,156.8,551,156.8z"/>
	<path class="st0" d="M538.8,183.3c-0.1,0-0.2,0-0.2-0.1l-16.4-9.5c-0.2-0.2-0.3-0.5-0.1-0.7c0.1-0.2,0.4-0.3,0.6-0.2l16.4,9.5
		c0.2,0.1,0.3,0.4,0.2,0.7S539,183.4,538.8,183.3z"/>
	<path class="st0" d="M519.1,141.1c-0.3,0-0.5-0.2-0.5-0.5s0.2-0.5,0.5-0.5l13.1-0.4c0.3,0,0.5,0.2,0.5,0.5c0,0.3-0.2,0.5-0.5,0.5
		L519.1,141.1L519.1,141.1z"/>
	<path class="st2" d="M542.3,110.4c0,4.5-3.7,8.2-3.7,8.2s-3.7-3.7-3.7-8.2s3.7-8.2,3.7-8.2S542.3,105.9,542.3,110.4z"/>
	<path class="st2" d="M522.8,126.1c3.5,2.8,4.1,8,4.1,8s-5.2,0.6-8.7-2.2s-4.1-8-4.1-8S519.3,123.3,522.8,126.1z"/>
	<path class="st2" d="M516.8,136.7c4.5,0,8.2,3.8,8.2,3.8s-3.7,3.7-8.2,3.7s-8.2-3.8-8.2-3.8S512.2,136.6,516.8,136.7z"/>
	<path class="st2" d="M556.2,141.7c-0.5,4.5-4.6,7.8-4.6,7.8s-3.3-4-2.9-8.5s4.5-7.8,4.5-7.8S556.7,137.2,556.2,141.7z"/>
	<path class="st2" d="M531.6,164.7c2.3,3.9,7.4,5.1,7.4,5.1s1.3-5.1-1-9s-7.4-5.1-7.4-5.1S529.3,160.8,531.6,164.7z"/>
	<path class="st2" d="M546.2,141.9c-2.3,3.9-7.4,5.1-7.4,5.1s-1.3-5.1,1-9s7.4-5.1,7.4-5.1S548.5,138,546.2,141.9z"/>
	<path class="st2" d="M521.9,167.5c3.7,2.6,4.6,7.8,4.6,7.8s-5.1,1-8.9-1.6S513,166,513,166S518.2,164.9,521.9,167.5z"/>
	<path class="st2" d="M567.2,143.7c-3,3.4-8.2,3.6-8.2,3.6s-0.3-5.2,2.7-8.6s8.2-3.6,8.2-3.6S570.2,140.3,567.2,143.7z"/>
	<path class="st0" d="M516.9,194.8c0,0,16.2-6.5,22.8-6.5s21.9,6.9,21.9,6.9L516.9,194.8z"/>
	<path class="st0" d="M634,194.4c-0.3,0-0.5-0.2-0.5-0.5v-76.8c0-0.3,0.2-0.5,0.5-0.5s0.5,0.2,0.5,0.5V194
		C634.5,194.2,634.3,194.4,634,194.4z"/>
	<path class="st0" d="M633.5,187.1c-0.1,0-0.3-0.1-0.4-0.2l-21.5-23.5c-0.2-0.2-0.2-0.5,0-0.7s0.5-0.2,0.7,0l0,0l21.5,23.5
		c0.2,0.2,0.2,0.5,0,0.7C633.7,187.1,633.6,187.1,633.5,187.1z"/>
	<path class="st0" d="M634.1,146.8c-0.3,0-0.5-0.2-0.5-0.5c0-0.1,0.1-0.3,0.2-0.4l14.4-13.7c0.2-0.2,0.5-0.2,0.7,0l0,0
		c0.2,0.2,0.2,0.5,0,0.7l0,0l-14.4,13.7C634.4,146.8,634.3,146.8,634.1,146.8z"/>
	<path class="st0" d="M621.7,174.5c-0.3,0-0.5-0.2-0.5-0.5l-1.1-14.2c0-0.3,0.2-0.5,0.5-0.5s0.5,0.2,0.5,0.5l1.1,14.2
		C622.3,174.2,622.1,174.5,621.7,174.5C621.8,174.5,621.8,174.5,621.7,174.5L621.7,174.5z"/>
	<path class="st0" d="M633.9,183.3c-0.2,0-0.3-0.1-0.4-0.2c-0.1-0.2-0.1-0.5,0.2-0.7l16.4-9.5c0.2-0.2,0.5-0.1,0.7,0.1
		s0.1,0.5-0.1,0.7c0,0-0.1,0-0.1,0.1l-16.4,9.5C634.1,183.3,634,183.4,633.9,183.3z"/>
	<path class="st0" d="M653.6,141.1L653.6,141.1l-13.1-0.4c-0.3,0-0.5-0.2-0.5-0.5c0-0.3,0.2-0.5,0.5-0.5l13.1,0.4
		c0.3,0,0.5,0.2,0.5,0.5S653.9,141.1,653.6,141.1L653.6,141.1z"/>
	<path class="st2" d="M630.4,124.1c0,4.5,3.7,8.2,3.7,8.2s3.7-3.7,3.7-8.2s-3.7-8.2-3.7-8.2S630.4,119.6,630.4,124.1z"/>
	<path class="st2" d="M649.9,126.1c-3.5,2.8-4.1,8-4.1,8s5.2,0.6,8.7-2.2s4.1-8,4.1-8S653.4,123.3,649.9,126.1z"/>
	<path class="st2" d="M656,136.7c-4.5,0-8.2,3.8-8.2,3.8s3.7,3.7,8.2,3.7s8.2-3.8,8.2-3.8S660.5,136.6,656,136.7z"/>
	<path class="st0" d="M634.3,152.2c-0.1,0-0.2-0.1-0.3-0.1l-14.4-13.7c-0.2-0.2-0.2-0.5,0-0.7s0.5-0.2,0.7,0l14.4,13.7
		c0.2,0.2,0.2,0.5,0,0.7l0,0C634.6,152.2,634.5,152.2,634.3,152.2z"/>
	<path class="st0" d="M614.8,146.5c-0.3,0-0.5-0.2-0.5-0.5s0.2-0.5,0.5-0.5l0,0l13.1-0.4c0.3,0,0.5,0.2,0.5,0.5l0,0
		c0,0.3-0.2,0.5-0.5,0.5l0,0L614.8,146.5L614.8,146.5z"/>
	<path class="st2" d="M618.6,131.6c3.5,2.8,4.1,8,4.1,8s-5.2,0.6-8.7-2.2s-4-8-4-8S615,128.7,618.6,131.6z"/>
	<path class="st2" d="M612.5,142.1c4.5,0,8.2,3.8,8.2,3.8s-3.7,3.7-8.2,3.7s-8.2-3.8-8.2-3.8S608,142.1,612.5,142.1z"/>
	<path class="st2" d="M616.5,159.4c0.5,4.5,4.6,7.8,4.6,7.8s3.3-4,2.9-8.5s-4.5-7.8-4.5-7.8S616,154.9,616.5,159.4z"/>
	<path class="st2" d="M641.7,154c-4.3,1.4-8.9-1.1-8.9-1.1s2.4-4.7,6.7-6s8.9,1.1,8.9,1.1S646,152.7,641.7,154z"/>
	<path class="st2" d="M650.8,167.5c-3.7,2.6-4.6,7.8-4.6,7.8s5.2,1,8.9-1.6s4.6-7.7,4.6-7.7S654.5,164.9,650.8,167.5z"/>
	<path class="st2" d="M605.5,161.4c3,3.4,8.2,3.6,8.2,3.6s0.3-5.2-2.7-8.6s-8.2-3.6-8.2-3.6S602.5,158,605.5,161.4z"/>
	<path class="st0" d="M610.8,194.8c0,0,16.2-6.5,22.8-6.5s21.9,6.9,21.9,6.9L610.8,194.8z"/>
	<path class="st0" d="M248.3,194.4c-0.3,0-0.5-0.2-0.5-0.5v-76.8c0-0.3,0.2-0.5,0.5-0.5s0.5,0.2,0.5,0.5V194
		C248.8,194.2,248.6,194.4,248.3,194.4z"/>
	<path class="st0" d="M248.8,169.4c-0.3,0-0.5-0.2-0.5-0.5c0-0.1,0-0.3,0.1-0.3l21.5-23.5c0.2-0.2,0.5-0.2,0.7,0l0,0
		c0.2,0.2,0.2,0.5,0,0.7l0,0l-21.5,23.5C249.1,169.4,248.9,169.4,248.8,169.4z"/>
	<path class="st0" d="M248.1,146.8c-0.1,0-0.3,0-0.3-0.1L233.4,133c-0.2-0.2-0.2-0.5,0-0.7s0.5-0.2,0.7,0l14.4,13.7
		c0.2,0.2,0.2,0.5,0,0.7l0,0C248.4,146.8,248.3,146.8,248.1,146.8z"/>
	<path class="st0" d="M260.6,156.8L260.6,156.8c-0.3,0-0.5-0.3-0.5-0.5l1.1-14.2c0-0.3,0.3-0.5,0.5-0.5s0.5,0.3,0.5,0.5l-1.1,14.2
		C261.1,156.6,260.8,156.8,260.6,156.8z"/>
	<path class="st0" d="M248.4,183.3c-0.1,0-0.2,0-0.2-0.1l-16.4-9.5c-0.3-0.1-0.4-0.4-0.2-0.7s0.4-0.4,0.7-0.2c0,0,0.1,0,0.1,0.1
		l16.4,9.5c0.2,0.1,0.3,0.4,0.2,0.7C248.7,183.3,248.6,183.4,248.4,183.3z"/>
	<path class="st0" d="M228.7,141.1c-0.3,0-0.5-0.2-0.5-0.5s0.2-0.5,0.5-0.5l0,0l13.1-0.4c0.3,0,0.5,0.2,0.5,0.5
		c0,0.3-0.2,0.5-0.5,0.5L228.7,141.1L228.7,141.1z"/>
	<path class="st2" d="M251.9,110.4c0,4.5-3.7,8.2-3.7,8.2s-3.7-3.7-3.7-8.2s3.7-8.2,3.7-8.2S251.9,105.9,251.9,110.4z"/>
	<path class="st2" d="M232.4,126.1c3.5,2.8,4.1,8,4.1,8s-5.2,0.6-8.7-2.2s-4-8-4-8S228.9,123.3,232.4,126.1z"/>
	<path class="st2" d="M226.3,136.7c4.5,0,8.2,3.8,8.2,3.8s-3.7,3.7-8.2,3.7s-8.2-3.8-8.2-3.8S221.8,136.6,226.3,136.7z"/>
	<path class="st2" d="M265.8,141.7c-0.5,4.5-4.5,7.8-4.5,7.8s-3.4-4-2.9-8.5s4.5-7.8,4.5-7.8S266.3,137.2,265.8,141.7z"/>
	<path class="st2" d="M241.1,164.7c2.3,3.9,7.4,5.1,7.4,5.1s1.4-5.1-0.9-9s-7.4-5.1-7.4-5.1S238.8,160.8,241.1,164.7z"/>
	<path class="st2" d="M255.7,141.9c-2.3,3.9-7.4,5.1-7.4,5.1s-1.4-5.1,0.9-9s7.4-5.1,7.4-5.1S258,138,255.7,141.9z"/>
	<path class="st2" d="M231.5,167.5c3.7,2.6,4.6,7.8,4.6,7.8s-5.1,1-8.9-1.6s-4.6-7.7-4.6-7.7S227.8,164.9,231.5,167.5z"/>
	<path class="st2" d="M276.8,143.7c-3,3.4-8.2,3.6-8.2,3.6s-0.4-5.2,2.7-8.6s8.2-3.6,8.2-3.6S279.8,140.3,276.8,143.7z"/>
	<path class="st0" d="M226,194.8c0,0,16.2-6.5,22.8-6.5s21.9,6.9,21.9,6.9L226,194.8z"/>
</g>
<g id="freepik--character-1--inject-4">
	<path class="st3" d="M189.3,146.6c0,0-14.4,20-14,21s6.6,5.3,13.2,8s16.5,1.4,23.1-1.6c0,0,0.3-9.4-9.7-20.1
		C195.7,147.3,189.3,146.6,189.3,146.6z"/>
	<path class="st0" d="M197,177.6c-3,0.1-6-0.5-8.8-1.5c-6.4-2.6-12.9-7-13.4-8.2c-0.1-0.3-0.5-1.3,14-21.5c0.1-0.1,0.3-0.2,0.5-0.2
		c0.3,0,6.6,0.8,12.9,7.4c10,10.7,9.8,20,9.8,20.4c0,0.2-0.1,0.4-0.3,0.4C207,176.5,202.1,177.5,197,177.6z M175.8,167.5
		c0.7,0.9,6.3,5,12.8,7.6s16.2,1.3,22.4-1.5c-0.1-1.7-0.8-10.1-9.5-19.4c-5.2-5.6-10.7-6.9-12-7.1
		C184.4,154.3,176.3,165.9,175.8,167.5L175.8,167.5z"/>
	<path class="st0" d="M206.5,165.6c0,0-3.6-0.8-4.9,0.5s-2.7,4.4-1.9,5.5s1.9,2.7,1.9,2.7s-2.7-0.3-2.7,1.9s-1.6,6,1.6,8.5
		s6-1.1,6.8-1.6s1.1-4.1,1.1-4.1s3.3-0.3,4.4-2.5c1.4-2.5,1.3-5.6-0.3-7.9C210.6,165.6,206.5,165.6,206.5,165.6z"/>
	<path class="st0" d="M210.3,182.2c0,0-5.2,5.2-3.8,6.3c1.5,1.1,3,2.1,4.6,3c0,0,3.3,0,3.8-2.5s1.1-4.4-0.3-5.5
		S213.3,181.4,210.3,182.2z"/>
	<path class="st0" d="M211.2,191.5c-2.3,0.5-4.6,1.1-6.8,1.9c-1.6,0.6-3.2,1.1-4.9,1.4H233c0,0-1.1-3.8-4.1-4.4s-10.1,0.8-10.1,0.8
		s-0.8-1.6-3.8-2.2C213.3,188.8,211.6,189.9,211.2,191.5z"/>
	<path class="st0" d="M202.7,189.8c0,0.7-0.5,1.2-1.2,1.2s-1.2-0.5-1.2-1.2s0.5-1.2,1.2-1.2l0,0
		C202.1,188.5,202.7,189.1,202.7,189.8z"/>
	<path class="st0" d="M198.3,183.1c0,1.2-1,2.2-2.2,2.2s-2.2-1-2.2-2.2s1-2.2,2.2-2.2l0,0C197.3,180.9,198.3,181.9,198.3,183.1z"/>
	<path class="st1" d="M157.6,184.7c0,0,5.2,5,6.7,5.9s4.6,2.3,4.2,4.6s-7.7,3.9-9.3,2.3s-14.2-6.2-14.6-7.4s0.5-3.3,0.5-3.3
		l11.3-1.7L157.6,184.7z"/>
	<path class="st0" d="M161.6,198.6c-1,0.1-2-0.2-2.8-0.8c-0.7-0.7-4.2-2.2-7.3-3.6c-5.4-2.4-7.2-3.2-7.4-3.9
		c-0.5-1.4,0.4-3.5,0.5-3.7s0.2-0.3,0.4-0.3l11.3-1.7l1.1-0.4c0.2-0.1,0.4,0,0.5,0.1c0,0,5.2,5,6.6,5.8c0.2,0.1,0.5,0.3,0.7,0.4
		c1.6,0.9,4,2.3,3.7,4.6c-0.2,1.4-2.2,2.3-3.3,2.7C164.4,198.4,163,198.6,161.6,198.6z M145.5,187.3c-0.4,0.8-0.5,1.8-0.4,2.7
		c0.4,0.5,4.1,2.1,6.9,3.4c3.5,1.5,6.8,3,7.6,3.8s3.5,0.6,5.8-0.1c1.5-0.5,2.6-1.2,2.6-1.9c0.2-1.6-1.8-2.8-3.2-3.6
		c-0.3-0.2-0.6-0.3-0.8-0.5c-1.3-0.8-5.5-4.8-6.5-5.7l-0.9,0.3L145.5,187.3z"/>
	<path class="st0" d="M146.6,90.9c0,0,8.8,39.1,9,47.1s-1.5,35.5-1.5,35.5s3.9,7.4,4,8.1s-0.5,2.5-0.5,3.1c0,0-13.4,3.7-14.8,3.8
		s-3.5,0-3.5,0s-1.2-13.3-2.5-17.7s-6.1-29.9-6.1-29.9l-10.4-27.8c0,0-4.7-15.1-5.5-18.5s0-11.7,0-11.7s20.1,2,23.9,3.2
		S146.6,90.9,146.6,90.9z"/>
	<path class="st0" d="M141.7,189.1c-1.1,0-2.3-0.1-2.3-0.1c-0.2,0-0.4-0.2-0.5-0.5c0-0.1-1.2-13.3-2.5-17.6s-5.9-28.9-6.1-30
		l-10.4-27.7c-0.2-0.6-4.7-15.2-5.5-18.6s0-11.5,0-11.9c0-0.1,0.1-0.3,0.2-0.3c0.1-0.1,0.2-0.1,0.4-0.1c0.8,0.1,20.2,2,24,3.2
		s7.9,4.7,8.1,4.9c0.1,0.1,0.1,0.2,0.2,0.3c0.4,1.6,8.8,39.2,9,47.2c0.2,7.7-1.4,33.2-1.5,35.4c1,1.9,3.9,7.4,4,8.1
		c0,0.7-0.1,1.5-0.3,2.2c-0.1,0.4-0.2,0.7-0.2,1.1c0,0.2-0.2,0.4-0.4,0.5c-1.4,0.4-13.5,3.8-14.9,3.9
		C142.5,189.1,142.1,189.1,141.7,189.1z M139.8,188.1c1,0.1,2,0.1,3,0c0.9-0.1,9-2.2,14.3-3.7c0.1-0.3,0.1-0.6,0.2-0.9
		c0.2-0.6,0.3-1.2,0.3-1.8c-0.1-0.5-2.1-4.4-4-7.9c0-0.1-0.1-0.2-0.1-0.3c0-0.3,1.7-27.5,1.5-35.4c-0.2-7.6-8.3-44.1-9-46.9
		c-0.7-0.6-4.3-3.5-7.6-4.6s-20.1-2.8-23.3-3.1c-0.2,1.8-0.6,8.2,0,11c0.8,3.3,5.4,18.3,5.4,18.5l10.4,27.8c0.1,0.3,4.9,25.6,6.1,30
		C138.5,174.7,139.6,185.7,139.8,188.1L139.8,188.1z"/>
	<path class="st1" d="M145.1,186.8c1.6,1,3.3,1.8,5.1,2.3c2.5,0.6,10,3.1,10.3,4.4c0.1,1.4-0.3,2.8-1.2,3.9
		c-0.7,0.8-7.1,1.4-11.4,1.4s-11.7-2.8-12.8-3.2s-2.9-1.2-2.9-1.2S142.8,186.5,145.1,186.8z"/>
	<path class="st0" d="M148.4,199.3h-0.7c-2.7,0-6.9-1.1-12.6-3.1l-0.4-0.1c-1.1-0.4-2.9-1.1-3-1.2c-0.2-0.1-0.3-0.2-0.3-0.4
		c0-0.2,0.1-0.4,0.2-0.5c1.8-1.3,11.1-8,13.5-7.7c0.1,0,0.1,0,0.2,0.1c1.5,0.9,3.2,1.7,4.9,2.2c0.1,0,10.2,2.8,10.6,4.8
		c0.2,1.6-0.3,3.2-1.4,4.4C158.7,198.9,152.1,199.3,148.4,199.3z M133,194.3c0.6,0.2,1.5,0.6,2.1,0.8l0.4,0.1c5.6,2,9.7,3,12.3,3.1
		c4.6,0.1,10.5-0.6,11-1.2c0.8-1,1.2-2.2,1.1-3.5c-0.3-0.9-6.2-3.1-9.9-4c-1.8-0.5-3.5-1.3-5.1-2.3l0,0
		C143.3,187.3,137.1,191.4,133,194.3L133,194.3z"/>
	<path class="st0" d="M141.1,100.1l-5.1,2l-0.2,2.8l5.7,26.5c0,0,0.3,8.9,1,11.8s1.7,34.2,1.7,34.2s2.6,3.7,2.9,4.2s0.4,5.5,0.4,5.5
		s-9.9,4.3-12.7,6.1s-3.9,0.9-3.9,0.9c-1.4-0.4-2.8-1-4.1-1.6c-0.5-0.4-0.5-3-0.5-3s-6.2-29.1-7.1-34.3s-3.3-21.9-3.3-21.9
		s-8.5-32.5-9.2-35.1s-0.6-15.7-0.6-15.7s17.4,2.7,21,2.9s14.7,3.7,14.7,3.7l1.1,0.9"/>
	<path class="st0" d="M131.7,194.9c-0.4,0-0.8-0.1-1.1-0.3c-1.4-0.4-2.8-1-4.2-1.6c-0.6-0.4-0.7-2-0.7-3.4c-0.3-1.4-6.2-29.2-7-34.3
		s-3.2-21.7-3.3-21.9s-8.5-32.5-9.2-35s-0.6-15.3-0.6-15.9c0-0.1,0.1-0.3,0.2-0.4c0.1-0.1,0.3-0.1,0.4-0.1c0.2,0,17.4,2.7,21,2.9
		c3.6,0.2,14.3,3.5,14.8,3.7c0.1,0,0.1,0,0.2,0.1l1.1,0.9c0.2,0.2,0.2,0.5,0.1,0.7c-0.2,0.2-0.5,0.2-0.7,0.1l-1-0.8
		c-1.1-0.3-11.1-3.4-14.4-3.6s-17.4-2.3-20.5-2.8c0,2.6,0,12.9,0.6,15c0.7,2.5,9.1,34.8,9.2,35.1s2.4,16.8,3.3,21.9s7,34,7.1,34.3
		v0.1c0,0.9,0.1,1.8,0.3,2.7c1.3,0.6,2.6,1.1,3.9,1.5c0.1,0,0.1,0,0.1,0.1l0,0c0,0,1,0.6,3.3-1c2.5-1.7,10.8-5.3,12.5-6
		c0-1.7-0.1-3.3-0.3-5c-0.2-0.4-2.2-3.1-2.9-4.1c-0.1-0.1-0.1-0.2-0.1-0.3c0-0.3-1.1-31.3-1.7-34.1s-1-11.5-1-11.8l-5.7-26.4v-0.1
		l0.2-2.8c0-0.2,0.1-0.4,0.3-0.4l5.1-2c0.3-0.1,0.5,0,0.6,0.3s0,0.5-0.3,0.6l-4.8,1.9l-0.1,2.5l5.6,26.5c0,0.2,0.3,8.9,1,11.7
		s1.6,31.5,1.7,34.1c0.5,0.7,2.6,3.6,2.9,4.1s0.4,3.9,0.4,5.8c0,0.2-0.1,0.4-0.3,0.5c-0.1,0-9.9,4.3-12.6,6.1
		C134.1,194.4,132.9,194.8,131.7,194.9z"/>
	<path class="st1" d="M142.9,181.5c-0.3,0-0.5-0.2-0.5-0.5l0,0c0-0.4-0.4-35.2-0.4-37.8c0-2-5.8-25.1-8.8-37
		c-0.1-0.2,0.1-0.5,0.3-0.6l6-2.5c0.2-0.1,0.5,0,0.6,0.3l0,0c0.1,0.2,0,0.5-0.3,0.6l0,0l-5.6,2.3c1,4.1,8.6,34.3,8.7,36.8
		s0.4,37.4,0.4,37.8C143.3,181.3,143.1,181.5,142.9,181.5L142.9,181.5z"/>
	<path class="st1" d="M172.9,35.9c0,0-12.8-4-15-4.1s-12.2-0.9-17.6,2.5s-21.5,20.6-26.4,27.6s-8.8,21.5-8.8,21.5s11.6,3.3,14.7,3.5
		s10.5,1,10.5,1s7.5,4.7,13.1,5s0.3,2.2,10.6-4.3c5.4-3.5,11.1-6.6,17-9.2l-7.4,11.2c1.6,1.9,3.7,3.3,6.1,4.2c3.4,1,9.8,3.4,9.8,3.4
		s3.9-14.6,5.5-18.6s3.9-11,3.7-14.9s-2.5-13.4-2.5-13.4S176.9,37.3,172.9,35.9z"/>
	<path class="st0" d="M179.5,98.7h-0.2c-0.1,0-6.4-2.4-9.7-3.4c-2.4-0.9-4.6-2.4-6.3-4.4c-0.1-0.2-0.1-0.4,0-0.6l6.4-9.8
		c-5.3,2.5-10.5,5.3-15.4,8.5c-3.1,2-4.8,3.2-5.8,3.9c-1.4,1-1.6,1.1-2.5,0.9c-0.8-0.2-1.7-0.4-2.6-0.4c-5.5-0.3-12.4-4.5-13.3-5
		c-0.9-0.1-7.6-0.8-10.4-1c-3.1-0.2-14.3-3.4-14.8-3.5c-0.3-0.1-0.4-0.3-0.3-0.6c0.2-0.6,4-14.6,8.8-21.6c5-7.2,21.2-24.5,26.6-27.8
		c3.6-2.2,9.5-3,17.6-2.5h0.3c2.3,0.1,14.6,4,15.2,4.1l0,0c4.1,1.5,13.2,15,13.6,15.6c0,0,0.1,0.1,0.1,0.2c0.1,0.4,2.3,9.6,2.5,13.5
		c0.2,4.3-2.4,11.7-3.7,15.1c-1.6,3.9-5.5,18.4-5.5,18.6c0,0.1-0.1,0.3-0.2,0.3C179.7,98.7,179.6,98.7,179.5,98.7z M164.3,90.5
		c1.5,1.7,3.4,3,5.6,3.8c2.8,0.8,7.7,2.6,9.3,3.2c0.7-2.7,3.9-14.6,5.4-18.1c1.6-3.8,3.9-10.8,3.7-14.6c-0.2-3.6-2.2-12.2-2.5-13.2
		c-3.2-4.8-10-14-13.1-15.2c-4.4-1.4-13.2-4-14.9-4.1h-0.3c-7.9-0.5-13.6,0.3-17,2.4c-5.3,3.2-21.3,20.3-26.3,27.5
		c-4.3,6.2-7.8,18.3-8.6,20.9c2.2,0.6,11.5,3.2,14.1,3.3c3,0.2,10.5,1,10.5,1c0.1,0,0.1,0,0.2,0.1c0.1,0,7.4,4.6,12.9,5
		c0.9,0,1.9,0.2,2.8,0.4c0.5,0.1,0.5,0.1,1.7-0.7c1-0.7,2.7-1.9,5.9-3.9c5.4-3.5,11.2-6.6,17.1-9.2c0.3-0.1,0.5,0,0.6,0.3
		c0.1,0.2,0,0.3,0,0.5L164.3,90.5z"/>
	<path class="st0" d="M132.2,84c-0.1,0-0.3-0.1-0.4-0.2c-1.3-1.6-2.3-3.3-3.1-5.2c-0.1-0.3,0-0.5,0.3-0.7l0,0c0.3-0.1,0.5,0,0.7,0.2
		c0.7,1.8,1.7,3.4,2.9,4.9c0.2,0.2,0.2,0.5,0,0.7C132.5,84,132.4,84,132.2,84z"/>
	<path class="st0" d="M127.9,75.6c-0.2,0-0.4-0.1-0.5-0.3c-1.5-4-2.5-7.8-2.5-7.9c-0.1-0.3,0.1-0.5,0.4-0.6l0,0
		c0.3-0.1,0.5,0.1,0.6,0.4l0,0c0,0,1,3.8,2.4,7.8C128.4,75.3,128.3,75.6,127.9,75.6L127.9,75.6z"/>
	<path class="st0" d="M129.1,87.4c-0.1,0-0.2,0-0.3-0.1c-4.6-4.2-8.9-13.2-9.1-13.6c-0.1-0.3,0.1-0.6,0.3-0.6c0.2-0.1,0.5,0,0.6,0.2
		c0,0.1,4.5,9.3,8.9,13.3c0.2,0.2,0.2,0.5,0,0.7l0,0C129.4,87.3,129.2,87.4,129.1,87.4z"/>
	<path class="st0" d="M176.2,70.3L176.2,70.3l-10.4-0.1c-0.2,0-0.4-0.1-0.4-0.3c-0.1-0.2-0.1-0.4,0-0.5l7.5-10.3l7.2-8.7
		c0.2-0.2,0.5-0.2,0.7,0c0.1,0.1,0.2,0.2,0.2,0.3l0.4,6.9l-0.5,8.4c0,0.3-0.2,0.5-0.5,0.5c-0.1,0-0.2-0.1-0.3-0.1l-2.3-2.1l-1,5.7
		C176.6,70.1,176.4,70.2,176.2,70.3z M166.8,69.2l9,0.1l1.1-6.2c0-0.2,0.2-0.3,0.3-0.4c0.2-0.1,0.4,0,0.5,0.1l2.2,2l0.4-7.2
		l-0.3-5.5l-6.4,7.7L166.8,69.2z"/>
	<path class="st1" d="M176.6,37c0,0,8.2-6.9,13-8.2s11.1,0.9,13,3s3.6,11.6,3.6,14.3s-0.3,5.6-2.1,6.4s-4.4,3.1-5.3,3.3
		c-0.8,0.1-1.6,0.1-2.5,0.1l-1.6,4.8l-4.2-0.9c0,0-8,3.8-9.1,3.5s-4.6-5.8-4.6-5.8s-1.8,7.3-4.1,8.9c-2.2,1.4-4.5,2.5-6.9,3.4
		c0,0,4.6-5.5,6.2-15.5C173.1,48.4,174.6,42.6,176.6,37z"/>
	<path class="st0" d="M165.9,70.2c-0.2,0-0.3-0.1-0.4-0.2c-0.1-0.2-0.1-0.4,0-0.6c0-0.1,4.5-5.6,6.1-15.3c1-5.9,2.5-11.7,4.6-17.3
		c0-0.1,0.1-0.1,0.1-0.2c0.3-0.3,8.4-7,13.2-8.3c5-1.4,11.5,0.9,13.5,3.1s3.7,12,3.8,14.6c0.1,3.8-0.7,6.1-2.4,6.8
		c-1.1,0.5-2.1,1.1-3,1.9c-0.7,0.6-1.6,1.1-2.4,1.5c-0.7,0.1-1.5,0.1-2.2,0.1l-1.5,4.5c-0.1,0.2-0.3,0.4-0.6,0.3l-4-0.9
		c-2.5,1.2-8.2,3.8-9.3,3.5c-1-0.3-3-3.2-4.3-5.1c-0.6,2.1-2.1,6.8-4,8.1c-2.2,1.4-4.6,2.5-7,3.5C166,70.2,165.9,70.2,165.9,70.2z
		 M177.1,37.3c-2,5.5-3.5,11.2-4.5,16.9c-0.8,5.1-2.6,9.9-5.3,14.3c1.8-0.7,3.6-1.6,5.2-2.7c1.8-1.3,3.4-6.6,3.9-8.6
		c0-0.2,0.2-0.3,0.4-0.4c0.2,0,0.4,0.1,0.5,0.2c1.6,2.6,3.7,5.4,4.3,5.6s5-1.7,8.8-3.5c0.1,0,0.2,0,0.3,0l3.8,0.8l1.5-4.4
		c0.1-0.2,0.3-0.4,0.5-0.3c0.8,0,1.6,0,2.3-0.1c0.7-0.3,1.4-0.8,2.1-1.3c1-0.7,2-1.4,3.1-2c1.6-0.7,1.9-3.6,1.9-5.9
		c-0.1-2.9-1.8-12-3.5-14s-7.9-4.1-12.5-2.8C185.4,30.5,178,36.6,177.1,37.3z"/>
	<path class="st0" d="M202.6,31.8c-1.9-2.1-8.2-4.3-13-3s-13,8.2-13,8.2s-1.1,4.2,0.4,4.5l1.6,0.3c0,0,3.8-3.8,5-2s2.5,3.5,1.8,4.6
		s-2,3.2-2,3.2l1.5,0.8l3-2.1l2.4,1.7l4.6-1.5c0,0,4.5,2.9,6.9,4.4c0.9,0.6,2,1,3.1,1c1.2-1.1,1.5-3.6,1.5-5.9
		C206.2,43.4,204.5,33.9,202.6,31.8z"/>
	<path class="st0" d="M204.7,52.5c-1.1-0.1-2.2-0.4-3.2-1.1c-2.1-1.3-5.8-3.7-6.7-4.3l-4.3,1.5c-0.2,0.1-0.3,0-0.5-0.1l-2.1-1.5
		l-2.7,1.9c-0.2,0.1-0.4,0.1-0.5,0l-1.5-0.8c-0.1-0.1-0.2-0.2-0.3-0.3s-0.1-0.3,0-0.4c0.1-0.1,1.3-2.2,2-3.3c0.5-0.7-0.4-2-1.4-3.5
		l-0.4-0.5c-0.1-0.2-0.3-0.3-0.5-0.3c-1-0.1-2.9,1.4-3.8,2.3c-0.1,0.1-0.3,0.2-0.4,0.1l-1.6-0.3c-0.4-0.1-0.7-0.3-0.9-0.6
		c-0.8-1.3,0-4.2,0.1-4.5c0-0.1,0.1-0.2,0.2-0.3c0.3-0.3,8.4-7,13.2-8.3c5-1.4,11.5,0.9,13.5,3.1s3.7,12,3.8,14.6
		c0.1,3.1-0.5,5.2-1.6,6.3c-0.1,0.1-0.2,0.1-0.3,0.1L204.7,52.5z M204.8,52L204.8,52z M194.9,46.1c0.1,0,0.2,0,0.3,0.1
		c0.1,0,4.5,3,6.9,4.4c0.8,0.5,1.7,0.9,2.6,0.9c0.8-0.9,1.2-2.8,1.2-5.4c-0.1-2.9-1.8-12-3.5-14s-7.9-4.1-12.5-2.8
		c-4.3,1.2-11.6,7.1-12.7,8c-0.3,1.1-0.5,2.9-0.1,3.5c0,0.1,0.1,0.1,0.2,0.2l1.3,0.3c0.7-0.6,2.8-2.6,4.4-2.4c0.5,0,0.9,0.3,1.2,0.7
		l0.3,0.5c1.2,1.8,2.3,3.4,1.4,4.6c-0.5,0.8-1.3,2-1.7,2.7l0.8,0.4l2.8-1.9c0.2-0.1,0.4-0.1,0.6,0l2.1,1.5l4.3-1.5
		C194.8,46.1,194.8,46.1,194.9,46.1z"/>
	<path class="st0" d="M196.1,55c-0.2,0-0.3-0.1-0.4-0.2c-0.5-0.8-1.4-1.4-2.3-1.7c-0.3-0.1-0.5-0.3-0.4-0.6s0.3-0.5,0.6-0.4
		c1.2,0.4,2.2,1.1,2.9,2.2c0.1,0.2,0.1,0.5-0.2,0.7C196.3,54.9,196.2,55,196.1,55z"/>
	<path class="st0" d="M193,56.1h-0.2c-0.7-0.4-1.3-1-1.5-1.8c-0.1-0.3,0.1-0.6,0.4-0.6s0.6,0.1,0.6,0.4c0.1,0.4,0.4,0.8,0.7,1.1
		l1.1-0.6c0.2-0.1,0.5,0,0.7,0.2c0.1,0.2,0,0.5-0.2,0.7l-1.3,0.7C193.2,56.1,193.1,56.1,193,56.1z"/>
	<path class="st0" d="M187.1,59.8c-0.2,0-0.3-0.1-0.4-0.2c-0.6-0.7-0.8-1.7-0.7-2.6c0.1-0.3,0.3-0.4,0.6-0.4
		c0.3,0.1,0.4,0.3,0.4,0.6l0,0c-0.1,0.7,0.1,1.3,0.5,1.8c0.2,0.2,0.1,0.5-0.1,0.7C187.3,59.8,187.2,59.8,187.1,59.8z"/>
	<path class="st0" d="M176.8,57.9c-0.3,0-0.5-0.2-0.5-0.5v-5c0-0.3,0.2-0.5,0.5-0.5l0,0l0,0c0.3,0,0.5,0.2,0.5,0.5v5
		C177.3,57.6,177.1,57.8,176.8,57.9L176.8,57.9z"/>
	<path class="st1" d="M178.6,41.8c-0.7,1-1.1,2.1-1.2,3.3c0.1,1.4,1.8,2.3,1.8,2.3"/>
	<path class="st0" d="M179.1,48c-0.1,0-0.2,0-0.2-0.1c-0.1,0-1.9-1.1-2-2.7c0.1-1.3,0.6-2.6,1.3-3.6c0.2-0.2,0.5-0.3,0.7-0.1
		s0.3,0.5,0.1,0.7l0,0c-0.6,0.9-1,1.9-1.1,3c0.1,0.9,1.1,1.7,1.5,1.9c0.2,0.1,0.3,0.4,0.2,0.7C179.5,47.9,179.3,48,179.1,48z"/>
	<polygon class="st1" points="177,35.9 173.6,34.4 163.3,53.3 170.9,58.2 	"/>
	<path class="st0" d="M171,58.7c-0.1,0-0.2,0-0.3-0.1l-7.7-4.9c-0.2-0.1-0.3-0.4-0.2-0.7l10.3-18.9c0.1-0.2,0.4-0.3,0.6-0.2l3.4,1.5
		c0.2,0.1,0.3,0.4,0.3,0.6l-6.1,22.2c0,0.2-0.2,0.3-0.3,0.3C171.1,58.6,171,58.7,171,58.7z M164,53.1l6.7,4.3l5.8-21.2l-2.7-1.1
		L164,53.1z"/>
	<path class="st0" d="M165.9,70.2L165.9,70.2c-0.3,0-0.4-0.2-0.5-0.4l-2.4-7.7c-0.1-0.2,0-0.5,0.2-0.6l7.4-3.8
		c0.2-0.1,0.3-0.1,0.5,0s0.2,0.3,0.2,0.5c-0.2,4-5,11.4-5.2,11.8C166.2,70,166,70.1,165.9,70.2z M164.1,62.2l1.9,6.2
		c1.2-1.9,3.7-6.4,4.3-9.4L164.1,62.2z"/>
	<path class="st1" d="M120.9,51.1c0,0-14.1,11-15,12.6S94,95.1,94,95.1s-1.9,4-1.5,5.4s2.9,5.5,3.7,5.9s4.3,0,5.6-1.5
		c1.6-1.8,2.5-4,2.6-6.4c-0.1-1.5-0.6-3-1.4-4.4l-0.1-2.2l17.5-24.6l8.4-4L120.9,51.1z"/>
	<path class="st0" d="M97.3,107.1c-0.5,0-0.9-0.1-1.3-0.2c-1-0.5-3.6-4.8-4-6.2s1.4-5.3,1.6-5.7c0.4-1.2,11.1-29.9,12-31.5
		s13.7-11.6,15.1-12.7c0.1-0.1,0.3-0.1,0.4-0.1s0.3,0.1,0.3,0.2l7.8,12.3c0.1,0.1,0.1,0.3,0.1,0.4c0,0.1-0.1,0.3-0.3,0.3l-8.2,3.9
		l-17.4,24.3l0.1,2c0.8,1.4,1.3,2.9,1.4,4.5c0.1,2.5-1.4,5.2-2.7,6.7C101.1,106.5,98.8,107.1,97.3,107.1z M120.8,51.8
		c-5.6,4.4-13.8,11-14.4,12.1c-0.7,1.2-8.1,21.1-11.9,31.4c-0.7,1.5-1.7,4.2-1.5,5.1c0.8,2.1,2,4,3.5,5.6c0.5,0.3,3.8,0,5-1.4
		c1.5-1.7,2.4-3.8,2.5-6c-0.1-1.5-0.6-2.9-1.3-4.1c0-0.1-0.1-0.2-0.1-0.2l-0.1-2.2c0-0.1,0-0.2,0.1-0.3L120,67.1
		c0-0.1,0.1-0.1,0.2-0.2l7.9-3.8L120.8,51.8z"/>
	<path class="st1" d="M151.1,33.6c0,0-8.3-0.9-13.6,1.9s-18,15.3-18,15.3s1.1,6,3.2,8.7c2.2,2.6,4.6,4.9,7.1,7.1
		c0,0,17.3-7.8,21.9-13.4"/>
	<path class="st0" d="M129.8,67.1c-0.1,0-0.2,0-0.3-0.1c-2.6-2.2-5-4.6-7.2-7.2c-2.1-2.8-3.2-8.7-3.3-9c0-0.2,0-0.3,0.1-0.4
		c0.5-0.5,12.8-12.6,18.1-15.4s13.5-2,13.8-1.9c0.3,0,0.5,0.3,0.4,0.6c0,0.3-0.3,0.5-0.6,0.4c-0.1,0-8.2-0.8-13.3,1.8
		c-4.8,2.5-16.1,13.4-17.7,15c0.2,1.2,1.3,6,3,8.3c2.1,2.5,4.4,4.7,6.8,6.8c2.3-1,17.3-8,21.5-13.1c0.2-0.2,0.5-0.2,0.7-0.1
		c0.2,0.2,0.2,0.5,0.1,0.7C147.3,59.2,130.5,66.7,129.8,67.1C129.9,67.1,129.9,67.1,129.8,67.1z"/>
	<path class="st0" d="M114.7,111.9h-0.2c-0.3,0-0.8-0.1-1.5-0.1c-3-0.2-6.1-0.6-9.1-1.1c-6.7-1.2-8.4-3.3-8.6-3.5
		c-0.3-0.4-0.3-0.9,0-1.2l9.1-13c0.2-0.3,0.6-0.5,1-0.4c2.3,0.3,6.8,4.3,8.6,7.5c1.6,3.1,3.3,7.2,3.4,7.3c0.1,0.3,0.1,0.6,0,0.9
		l-1.7,3.2C115.5,111.8,115.1,112,114.7,111.9z M97.6,106.2c0.9,0.6,2.8,1.6,6.8,2.3c2.9,0.6,5.9,0.9,8.8,1.1l1,0.1l1.1-2.1
		c-0.5-1.2-1.8-4.3-3.1-6.7c-1.6-2.6-3.8-4.8-6.4-6.3L97.6,106.2z"/>
	<path class="st1" d="M114.8,110.8l70,49.9c0,0,12.6,6,11.4,4.3s-8.3-7.7-9-8.2l-70.7-49.1L114.8,110.8z"/>
	<path class="st0" d="M196.1,165.8c-0.9,0-3.4-0.8-11.5-4.6l-70.1-50c-0.2-0.1-0.3-0.4-0.2-0.6l1.7-3.2c0.1-0.2,0.4-0.3,0.7-0.2l0,0
		l70.7,49.1c0.7,0.5,7.9,6.5,9.2,8.4c0.2,0.2,0.2,0.6,0,0.9C196.4,165.7,196.2,165.8,196.1,165.8z M115.4,110.7l69.6,49.7
		c3.3,1.6,6.7,3,10.1,4.3c-2.7-2.6-5.4-5.1-8.4-7.5c-0.8-0.5-63.6-44.2-70.2-48.8L115.4,110.7z"/>
	<path class="st3" d="M175.5,154.2l9.3,6.6c0,0,12.6,6,11.4,4.3s-8.3-7.7-9-8.2l-9.1-6.3L175.5,154.2z"/>
	<path class="st0" d="M196.1,165.8c-0.9,0-3.4-0.8-11.5-4.6l-9.3-6.6c-0.2-0.2-0.3-0.5-0.1-0.7l2.6-3.6c0.2-0.2,0.5-0.3,0.7-0.1
		l9.1,6.3c0.7,0.5,7.9,6.5,9.2,8.4c0.2,0.2,0.2,0.6,0,0.9C196.4,165.7,196.2,165.8,196.1,165.8z M176.2,154l8.9,6.3
		c3.3,1.6,6.7,3,10.1,4.3c-2.7-2.6-5.4-5.1-8.4-7.5l-8.6-6L176.2,154z"/>
	<path class="st1" d="M162.3,145.4c0.3,1.5,1.3,2.9,2.6,3.8c1.2,0.9,2.8,0.8,4-0.1L162.3,145.4z"/>
	<path class="st0" d="M166.8,150.2c-0.8,0-1.6-0.2-2.2-0.7c-1.4-0.9-2.4-2.4-2.8-4.1c0-0.2,0.1-0.4,0.2-0.5c0.2-0.1,0.4-0.1,0.5,0
		l6.5,3.7c0.1,0.1,0.2,0.2,0.2,0.4c0,0.2,0,0.3-0.2,0.4C168.5,150,167.7,150.3,166.8,150.2z M163.2,146.5c0.4,0.9,1.1,1.7,2,2.3
		c0.8,0.6,1.8,0.7,2.7,0.3L163.2,146.5z"/>
	<path class="st1" d="M166.9,128.9l9.6-31.8c-2.1-0.8-4.9-1.8-6.8-2.3c-1.9-0.6-3.6-1.7-5-3.1c-1.2,4.1-4.1,14.5-4.2,16.5
		c-0.1,2.6,0.2,22.3,0.2,22.3s-1.5,3.6-1.2,4.5c0.4,0.8,0.9,1.6,1.5,2.3c-0.1,1.2-0.3,2.5-0.6,3.7c-0.4,1.3-0.2,3.7,0.9,3
		c1.2-0.9,2.4-1.9,3.4-2.9l6.2,4.4c0,0-1.7-7.7-2.1-10.1C168.4,133.2,167.7,131,166.9,128.9z"/>
	<path class="st0" d="M171.1,146c-0.1,0-0.2,0-0.3-0.1l-5.9-4.2c-1,1-2.1,1.9-3.2,2.7c-0.4,0.3-0.9,0.2-1.3,0
		c-0.8-0.6-0.8-2.5-0.4-3.5c0.3-1.1,0.5-2.2,0.5-3.3c-0.6-0.7-1.1-1.5-1.5-2.3c-0.3-1,0.8-3.8,1.2-4.8c0-1.7-0.3-19.8-0.2-22.3
		c0.1-2.1,3-12.3,4.3-16.6c0.1-0.3,0.4-0.4,0.6-0.3c0.1,0,0.1,0.1,0.2,0.1c1.3,1.3,3,2.4,4.8,3c1.9,0.6,4.8,1.6,6.8,2.3
		c0.2,0.1,0.4,0.4,0.3,0.6l-9.6,31.6c0.8,2.1,1.5,4.3,2,6.5c0.4,2.4,2.1,10,2.1,10.1c0,0.2,0,0.4-0.2,0.5
		C171.3,146,171.2,146,171.1,146z M164.9,140.6c0.1,0,0.2,0,0.3,0.1l5.1,3.7c-0.5-2.3-1.6-7-1.9-8.8c-0.5-2.2-1.2-4.4-2-6.5
		c0-0.1,0-0.2,0-0.3l9.5-31.3c-2-0.7-4.6-1.6-6.3-2.1c-1.7-0.6-3.2-1.5-4.6-2.6c-2.4,8.5-3.9,14.3-4,15.6
		c-0.1,2.5,0.2,22.1,0.2,22.3c0,0.1,0,0.1,0,0.2c-0.7,1.7-1.3,3.7-1.2,4.2c0.4,0.8,0.8,1.5,1.4,2.1c0.1,0.1,0.1,0.2,0.1,0.4
		c-0.1,1.3-0.3,2.6-0.6,3.8c-0.3,0.8-0.3,1.7,0.1,2.5h0.1c1.2-0.9,2.3-1.8,3.4-2.9C164.7,140.7,164.8,140.6,164.9,140.6z"/>
	<path class="st1" d="M98.6,100.3c0,0,0.9,5.4,1.9,5.7s3.5,1.6,3.2-0.2l-0.3-1.8c0,0,1.8-3.8,1.1-5.5c-0.5-1.1-1.3-2-2.3-2.7"/>
	<path class="st0" d="M102.9,107.2c-0.8-0.1-1.5-0.3-2.2-0.6l-0.4-0.2c-1-0.4-1.7-3.5-2.2-6.1c0-0.3,0.1-0.5,0.4-0.6
		c0.3,0,0.5,0.1,0.6,0.4l0,0c0.4,2.3,1.1,5,1.6,5.3l0.4,0.2c1.5,0.6,1.9,0.6,2,0.5l0,0c0,0,0-0.1,0-0.3l-0.3-1.8c0-0.1,0-0.2,0-0.3
		c0.7-1.4,1.6-4,1.1-5s-1.2-1.8-2.1-2.5c-0.2-0.2-0.3-0.5-0.1-0.7c0.1-0.2,0.4-0.3,0.7-0.1l0,0c1.1,0.7,1.9,1.7,2.5,2.9
		c0.7,1.7-0.7,4.9-1,5.7l0.3,1.6c0.1,0.5,0,1-0.4,1.3C103.4,107.2,103.2,107.3,102.9,107.2z"/>
</g>
</svg>
