<?xml version="1.0" encoding="utf-8"?>
<!-- Generator: Adobe Illustrator 24.3.0, SVG Export Plug-In . SVG Version: 6.00 Build 0)  -->
<svg version="1.1" id="Layer_1" xmlns="http://www.w3.org/2000/svg" xmlns:xlink="http://www.w3.org/1999/xlink" x="0px" y="0px"
	 viewBox="0 0 500 422" style="enable-background:new 0 0 500 422;" xml:space="preserve">
<style type="text/css">
	.st0{fill:#FFFFFF;stroke:#263238;stroke-width:0.75;stroke-linecap:round;stroke-linejoin:round;}
	.st1{fill:#263238;stroke:#263238;stroke-width:0.75;stroke-linecap:round;stroke-linejoin:round;}
	.st2{fill:#007A70;}
	.st3{opacity:0.6;fill:#FFFFFF;enable-background:new    ;}
	.st4{fill:#FFFFFF;}
	.st5{fill:#263238;}
	.st6{opacity:0.4;fill:#FFFFFF;enable-background:new    ;}
	.st7{opacity:0.1;enable-background:new    ;}
	.st8{fill:none;stroke:#007A70;stroke-width:1.727;stroke-linecap:round;stroke-linejoin:round;}
	.st9{fill:none;stroke:#263238;stroke-width:0.75;stroke-linecap:round;stroke-linejoin:round;}
	.st10{fill:#007A70;stroke:#263238;stroke-width:0.7477;stroke-linecap:round;stroke-linejoin:round;stroke-miterlimit:3.9876;}
	.st11{clip-path:url(#SVGID_2_);}
	.st12{opacity:0.5;fill:#007A70;enable-background:new    ;}
	.st13{fill:none;stroke:#263238;stroke-width:0.5;stroke-linecap:round;stroke-linejoin:round;}
	.st14{clip-path:url(#SVGID_4_);}
	.st15{fill:none;stroke:#FFFFFF;stroke-width:0.5;stroke-linecap:round;stroke-linejoin:round;}
	.st16{clip-path:url(#SVGID_6_);}
	.st17{fill:#007A70;stroke:#263238;stroke-width:0.75;stroke-linecap:round;stroke-linejoin:round;}
	.st18{fill:none;stroke:#FFFFFF;stroke-miterlimit:10;}
</style>
<g>
	<g id="freepik--Windows--inject-1--inject-1--inject-1--inject-2">
		<rect x="61.8" y="19.2" class="st0" width="216.2" height="274.2"/>
		<rect x="61.8" y="19.2" class="st1" width="216.2" height="16.4"/>
		<rect x="68" y="210.5" class="st2" width="36.5" height="77.6"/>
		<rect x="68" y="210.5" class="st3" width="36.5" height="77.6"/>
		<rect x="107.8" y="210.5" class="st2" width="36.5" height="77.6"/>
		<rect x="107.8" y="210.5" class="st3" width="36.5" height="77.6"/>
		<rect x="150.2" y="210.5" class="st2" width="36.5" height="77.6"/>
		<rect x="150.2" y="210.5" class="st3" width="36.5" height="77.6"/>
		<rect x="192.5" y="210.5" class="st2" width="36.5" height="77.6"/>
		<rect x="192.5" y="210.5" class="st3" width="36.5" height="77.6"/>
		<rect x="235.9" y="210.5" class="st0" width="36.5" height="77.6"/>
		<rect x="68" y="25.7" class="st2" width="203.8" height="18.8"/>
		<rect x="68" y="25.7" class="st3" width="203.8" height="18.8"/>
		<rect x="71.7" y="29.3" class="st4" width="197.3" height="8.3"/>
		<rect x="246.6" y="29.3" class="st1" width="22.3" height="8.3"/>
		<path class="st5" d="M158.7,61.3H117c-0.9,0-1.6-0.7-1.6-1.6c0-0.9,0.7-1.6,1.6-1.6h41.8c0.9,0,1.6,0.7,1.6,1.6
			C160.3,60.6,159.6,61.3,158.7,61.3z"/>
		<path class="st5" d="M158.7,72.5H117c-0.9,0.1-1.7-0.6-1.7-1.5c-0.1-0.9,0.6-1.7,1.5-1.7c0.1,0,0.2,0,0.3,0h41.8
			c0.9,0.1,1.5,0.9,1.5,1.7C160.1,71.8,159.5,72.5,158.7,72.5z"/>
		<path class="st5" d="M158.7,83.8H117c-0.9,0-1.6-0.7-1.6-1.6s0.7-1.6,1.6-1.6l0,0h41.8c0.9,0,1.6,0.7,1.6,1.6
			C160.3,83.1,159.6,83.8,158.7,83.8z"/>
		<path class="st5" d="M158.7,95H72c-0.9-0.1-1.5-0.9-1.5-1.7c0.1-0.8,0.7-1.4,1.5-1.5h86.7c0.9,0.1,1.5,0.9,1.5,1.7
			C160.1,94.3,159.5,94.9,158.7,95z"/>
		<path class="st5" d="M158.7,106.3H72c-0.9,0-1.6-0.7-1.6-1.6s0.7-1.6,1.6-1.6h86.7c0.9,0,1.6,0.7,1.6,1.6
			C160.3,105.5,159.6,106.2,158.7,106.3z"/>
		<path class="st5" d="M158.7,117.5H72c-0.9,0-1.6-0.7-1.6-1.6s0.7-1.6,1.6-1.6h86.7c0.9,0,1.6,0.7,1.6,1.6S159.6,117.5,158.7,117.5
			z"/>
		<path class="st5" d="M158.7,128.7H72c-0.9-0.1-1.5-0.9-1.5-1.7c0.1-0.8,0.7-1.4,1.5-1.5h86.7c0.9,0.1,1.5,0.9,1.5,1.7
			C160.1,128,159.5,128.7,158.7,128.7z"/>
		<path class="st5" d="M158.7,138.7H72c-0.9-0.1-1.5-0.9-1.5-1.7c0.1-0.8,0.7-1.4,1.5-1.5h86.7c0.9,0.1,1.5,0.9,1.5,1.7
			C160.1,138,159.5,138.6,158.7,138.7z"/>
		<path class="st5" d="M158.7,150H72c-0.9,0-1.6-0.7-1.6-1.6c0-0.9,0.7-1.6,1.6-1.6h86.7c0.9,0,1.6,0.7,1.6,1.6S159.6,150,158.7,150
			z"/>
		<path class="st5" d="M158.7,161.2H72c-0.9-0.1-1.5-0.9-1.5-1.7c0.1-0.8,0.7-1.4,1.5-1.5h86.7c0.9,0.1,1.5,0.9,1.5,1.7
			C160.1,160.5,159.5,161.1,158.7,161.2z"/>
		<path class="st5" d="M158.7,172.4H72c-0.9,0-1.6-0.7-1.6-1.6c0-0.9,0.7-1.6,1.6-1.6h86.7c0.9,0,1.6,0.7,1.6,1.6
			S159.6,172.4,158.7,172.4z"/>
		<path class="st5" d="M158.7,183.7H72c-0.9-0.1-1.5-0.9-1.5-1.7c0.1-0.8,0.7-1.4,1.5-1.5h86.7c0.9,0.1,1.5,0.9,1.5,1.7
			C160.1,183,159.5,183.6,158.7,183.7z"/>
		<path class="st5" d="M158.7,194.9H72c-0.9-0.1-1.5-0.9-1.5-1.7c0.1-0.8,0.7-1.4,1.5-1.5h86.7c0.9,0.1,1.5,0.9,1.5,1.7
			C160.1,194.2,159.5,194.8,158.7,194.9z"/>
		<path class="st5" d="M270.3,61.3h-86.7c-0.9,0-1.6-0.7-1.6-1.6c0-0.9,0.7-1.6,1.6-1.6h86.7c0.9,0,1.6,0.7,1.6,1.6
			S271.2,61.3,270.3,61.3L270.3,61.3z"/>
		<path class="st5" d="M270.3,72.5h-86.7c-0.9,0.1-1.7-0.6-1.7-1.5c-0.1-0.9,0.6-1.7,1.5-1.7c0.1,0,0.2,0,0.3,0h86.7
			c0.9-0.1,1.7,0.6,1.7,1.5c0.1,0.9-0.6,1.7-1.5,1.7C270.5,72.5,270.4,72.5,270.3,72.5z"/>
		<path class="st5" d="M270.3,83.8h-86.7c-0.9,0-1.6-0.7-1.6-1.6s0.7-1.6,1.6-1.6l0,0h86.7c0.9,0,1.6,0.7,1.6,1.6
			C271.9,83.1,271.2,83.8,270.3,83.8L270.3,83.8z"/>
		<path class="st5" d="M270.3,95h-86.7c-0.9,0.1-1.7-0.6-1.7-1.5c-0.1-0.9,0.6-1.7,1.5-1.7c0.1,0,0.2,0,0.3,0h86.7
			c0.9-0.1,1.7,0.6,1.7,1.5c0.1,0.9-0.6,1.7-1.5,1.7C270.5,95,270.4,95,270.3,95z"/>
		<path class="st5" d="M270.3,106.3h-86.7c-0.9,0-1.6-0.7-1.6-1.6s0.7-1.6,1.6-1.6h86.7c0.9,0,1.6,0.7,1.6,1.6
			C271.9,105.5,271.2,106.2,270.3,106.3L270.3,106.3z"/>
		<path class="st5" d="M270.3,117.5h-86.7c-0.9,0-1.6-0.7-1.6-1.6s0.7-1.6,1.6-1.6l0,0h86.7c0.9,0,1.6,0.7,1.6,1.6
			S271.2,117.5,270.3,117.5L270.3,117.5z"/>
		<path class="st5" d="M270.3,128.7h-86.7c-0.9,0.1-1.7-0.6-1.7-1.5c-0.1-0.9,0.6-1.7,1.5-1.7c0.1,0,0.2,0,0.3,0h86.7
			c0.9-0.1,1.7,0.6,1.7,1.5c0.1,0.9-0.6,1.7-1.5,1.7C270.5,128.7,270.4,128.7,270.3,128.7z"/>
		<rect x="183.6" y="136.3" class="st2" width="88.3" height="61.6"/>
		<rect x="183.6" y="136.3" class="st3" width="88.3" height="61.6"/>
		<path class="st5" d="M102.3,64.5c0.2-0.7,0.4-1.5,0.4-2.3c0-2.9-2.9-3-5.8-3h-0.7v-0.7h12.5v0.7c-3.2,0-4.4,2.1-5.4,5.2l-6.6,19.9
			c-0.5,1.5-0.9,2.6-2.5,2.6h-0.1l-5.9-19l-5.5,16.4c-0.5,1.5-0.9,2.6-2.5,2.6H80l-8.5-27.6h-3v-0.7h11v0.7h-3.1l6.3,21.8H83
			l4.8-14.5l-2.2-7.3h-3v-0.7h11v0.7h-3.1l6.3,21.8h0.3L102.3,64.5z"/>
		<rect x="212.7" y="51.4" class="st2" width="90" height="241.4"/>
		<rect x="212.7" y="51.4" class="st6" width="90" height="241.4"/>
		<rect x="219.5" y="42.4" class="st0" width="216.2" height="274.2"/>
		<rect x="219.5" y="42.4" class="st1" width="216.2" height="16.4"/>
		<rect x="292.3" y="81.2" class="st2" width="75.9" height="141.9"/>
		<rect x="292.3" y="81.2" class="st3" width="75.9" height="141.9"/>
		<rect x="225.7" y="233.6" class="st2" width="203.8" height="77.6"/>
		<rect x="225.7" y="233.6" class="st3" width="203.8" height="77.6"/>
		<rect x="225.7" y="48.8" class="st2" width="203.8" height="18.8"/>
		<rect x="225.7" y="48.8" class="st3" width="203.8" height="18.8"/>
		<rect x="229.3" y="52.5" class="st4" width="197.3" height="8.3"/>
		<rect x="404.3" y="52.5" class="st1" width="22.3" height="8.3"/>
		<path class="st5" d="M279.5,84.5h-52c-0.9,0.1-1.7-0.6-1.7-1.5c-0.1-0.9,0.6-1.7,1.5-1.7c0.1,0,0.2,0,0.3,0h52
			c0.9-0.1,1.7,0.6,1.7,1.5c0.1,0.9-0.6,1.7-1.5,1.7C279.7,84.5,279.6,84.5,279.5,84.5z"/>
		<path class="st5" d="M279.5,95.7h-52c-0.9,0-1.6-0.7-1.6-1.6s0.7-1.6,1.6-1.6h52c0.9,0,1.6,0.7,1.6,1.6S280.4,95.7,279.5,95.7z"/>
		<path class="st5" d="M279.5,107h-52c-0.9,0.1-1.7-0.6-1.7-1.5c-0.1-0.9,0.6-1.7,1.5-1.7c0.1,0,0.2,0,0.3,0h52
			c0.9-0.1,1.7,0.6,1.7,1.5c0.1,0.9-0.6,1.7-1.5,1.7C279.7,107,279.6,107,279.5,107z"/>
		<path class="st5" d="M279.5,118.2h-52c-0.9,0-1.6-0.7-1.6-1.6s0.7-1.6,1.6-1.6l0,0h52c0.9,0,1.6,0.7,1.6,1.6
			S280.4,118.2,279.5,118.2z"/>
		<path class="st5" d="M279.5,129.4h-52c-0.9,0.1-1.7-0.6-1.7-1.5c-0.1-0.9,0.6-1.7,1.5-1.7c0.1,0,0.2,0,0.3,0h52
			c0.9-0.1,1.7,0.6,1.7,1.5c0.1,0.9-0.6,1.7-1.5,1.7C279.7,129.4,279.6,129.4,279.5,129.4z"/>
		<path class="st5" d="M279.5,140.7h-52c-0.9,0.1-1.7-0.6-1.7-1.5c-0.1-0.9,0.6-1.7,1.5-1.7c0.1,0,0.2,0,0.3,0h52
			c0.9-0.1,1.7,0.6,1.7,1.5s-0.6,1.7-1.5,1.7C279.7,140.7,279.6,140.7,279.5,140.7z"/>
		<path class="st5" d="M279.5,151.9h-52c-0.9,0-1.6-0.7-1.6-1.6c0-0.9,0.7-1.6,1.6-1.6l0,0h52c0.9,0,1.6,0.7,1.6,1.6
			S280.4,151.9,279.5,151.9z"/>
		<path class="st5" d="M279.5,161.9h-52c-0.9,0-1.6-0.7-1.6-1.6c0-0.9,0.7-1.6,1.6-1.6h52c0.9,0,1.6,0.7,1.6,1.6
			S280.4,161.9,279.5,161.9z"/>
		<path class="st5" d="M279.5,173.1h-52c-0.9,0.1-1.7-0.6-1.7-1.5c-0.1-0.9,0.6-1.7,1.5-1.7c0.1,0,0.2,0,0.3,0h52
			c0.9-0.1,1.7,0.6,1.7,1.5c0.1,0.9-0.6,1.7-1.5,1.7C279.7,173.1,279.6,173.1,279.5,173.1z"/>
		<path class="st5" d="M279.5,184.4h-52c-0.9,0-1.6-0.7-1.6-1.6c0-0.9,0.7-1.6,1.6-1.6l0,0h52c0.9,0,1.6,0.7,1.6,1.6
			S280.4,184.4,279.5,184.4z"/>
		<path class="st5" d="M279.5,195.6h-52c-0.9,0.1-1.7-0.6-1.7-1.5c-0.1-0.9,0.6-1.7,1.5-1.7c0.1,0,0.2,0,0.3,0h52
			c0.9-0.1,1.7,0.6,1.7,1.5c0.1,0.9-0.6,1.7-1.5,1.7C279.7,195.6,279.6,195.6,279.5,195.6z"/>
		<path class="st5" d="M279.5,206.8h-52c-0.9,0-1.6-0.7-1.6-1.6c0-0.9,0.7-1.6,1.6-1.6l0,0h52c0.9,0,1.6,0.7,1.6,1.6
			S280.4,206.8,279.5,206.8z"/>
		<path class="st5" d="M279.5,218.1h-52c-0.9,0.1-1.7-0.6-1.7-1.5c-0.1-0.9,0.6-1.7,1.5-1.7c0.1,0,0.2,0,0.3,0h52
			c0.9-0.1,1.7,0.6,1.7,1.5s-0.6,1.7-1.5,1.7C279.7,218.1,279.6,218.1,279.5,218.1z"/>
		<path class="st5" d="M279.5,229.3h-52c-0.9,0.1-1.7-0.6-1.7-1.5c-0.1-0.9,0.6-1.7,1.5-1.7c0.1,0,0.2,0,0.3,0h52
			c0.9-0.1,1.7,0.6,1.7,1.5s-0.6,1.7-1.5,1.7C279.7,229.3,279.6,229.3,279.5,229.3z"/>
		<path class="st5" d="M429.1,84.5h-52c-0.9,0.1-1.7-0.6-1.7-1.5c-0.1-0.9,0.6-1.7,1.5-1.7c0.1,0,0.2,0,0.3,0h52
			c0.9-0.1,1.7,0.6,1.7,1.5c0.1,0.9-0.6,1.7-1.5,1.7C429.3,84.5,429.3,84.5,429.1,84.5L429.1,84.5z"/>
		<path class="st5" d="M429.1,95.7h-52c-0.9,0-1.6-0.7-1.6-1.6s0.7-1.6,1.6-1.6l0,0h52c0.9,0,1.6,0.7,1.6,1.6
			C430.8,95,430.1,95.7,429.1,95.7L429.1,95.7z"/>
		<path class="st5" d="M429.1,107h-52c-0.9,0.1-1.7-0.6-1.7-1.5c-0.1-0.9,0.6-1.7,1.5-1.7c0.1,0,0.2,0,0.3,0h52
			c0.9-0.1,1.7,0.6,1.7,1.5c0.1,0.9-0.6,1.7-1.5,1.7C429.3,107,429.3,107,429.1,107L429.1,107z"/>
		<path class="st5" d="M429.1,118.2h-52c-0.9,0-1.6-0.7-1.6-1.6s0.7-1.6,1.6-1.6l0,0h52c0.9,0,1.6,0.7,1.6,1.6
			C430.8,117.5,430.1,118.2,429.1,118.2L429.1,118.2z"/>
		<path class="st5" d="M429.1,129.4h-52c-0.9,0.1-1.7-0.6-1.7-1.5c-0.1-0.9,0.6-1.7,1.5-1.7c0.1,0,0.2,0,0.3,0h52
			c0.9-0.1,1.7,0.6,1.7,1.5c0.1,0.9-0.6,1.7-1.5,1.7C429.3,129.4,429.3,129.4,429.1,129.4L429.1,129.4z"/>
		<path class="st5" d="M429.1,140.7h-52c-0.9,0.1-1.7-0.6-1.7-1.5c-0.1-0.9,0.6-1.7,1.5-1.7c0.1,0,0.2,0,0.3,0h52
			c0.9-0.1,1.7,0.6,1.7,1.5c0.1,0.9-0.6,1.7-1.5,1.7C429.3,140.7,429.3,140.7,429.1,140.7L429.1,140.7z"/>
		<path class="st5" d="M429.1,151.9h-52c-0.9,0-1.6-0.7-1.6-1.6c0-0.9,0.7-1.6,1.6-1.6l0,0h52c0.9,0,1.6,0.7,1.6,1.6
			C430.8,151.2,430.1,151.9,429.1,151.9L429.1,151.9z"/>
		<rect x="375.8" y="159.5" class="st2" width="53.7" height="61.6"/>
		<rect x="375.8" y="159.5" class="st3" width="53.7" height="61.6"/>
	</g>
	<g id="freepik--Plant--inject-1--inject-1--inject-1--inject-2">
		<path class="st2" d="M456.3,271c-0.3-12.1,0.6-32.8-10-41.3c-9.3-7.5-16.6,2.7-19.2,10.9c-6.4,19.9-5.7,94.7-4,109.7
			c0,0-1.6-15.1-13.5-8.6s6,40.4,6,40.4s-14-10.2-20.5-1.6s8.1,18.3,8.1,18.3s-13.5-3.8-13.5,0s4.3,7,16.7,8.6h66.8
			c0,0,10.7-6,8.6-12.4s-13.5-2.7-13.5-2.7s17.2-21,16.2-30.2c-1.1-9.2-23.2,1.6-23.2,1.6s17.3-43.7,14-63.1
			c-2.6-15.3-14.4-4.8-20.9,1.1C455.9,291.5,456.6,281.3,456.3,271z"/>
		<path class="st7" d="M456.3,271c-0.3-12.1,0.6-32.8-10-41.3c-9.3-7.5-16.6,2.7-19.2,10.9c-6.4,19.9-5.7,94.7-4,109.7
			c0,0-1.6-15.1-13.5-8.6s6,40.4,6,40.4s-14-10.2-20.5-1.6s8.1,18.3,8.1,18.3s-13.5-3.8-13.5,0s4.3,7,16.7,8.6h66.8
			c0,0,10.7-6,8.6-12.4s-13.5-2.7-13.5-2.7s17.2-21,16.2-30.2c-1.1-9.2-23.2,1.6-23.2,1.6s17.3-43.7,14-63.1
			c-2.6-15.3-14.4-4.8-20.9,1.1C455.9,291.5,456.6,281.3,456.3,271z"/>
		<line class="st8" x1="434.8" y1="405.9" x2="439.7" y2="258.6"/>
		<line class="st8" x1="437.6" y1="344.8" x2="462.9" y2="321.1"/>
		<line class="st8" x1="449.4" y1="334.1" x2="454.8" y2="319"/>
		<line class="st8" x1="416.5" y1="363.2" x2="435.6" y2="383.5"/>
		<line class="st8" x1="468.3" y1="375" x2="436" y2="391.7"/>
		<line class="st8" x1="452" y1="383.3" x2="462.9" y2="384.2"/>
	</g>
	<g id="freepik--Character--inject-1--inject-1--inject-1--inject-2">
		<path class="st1" d="M71.6,260.2c0,0,7.3-3.7,10.5-0.5s1.9,37.1,2.9,47.9c0.6,6.4,1.8,12.8,3.5,19c0,0-10.5-1.9-18.4-6
			C70.1,320.7,63.1,286.8,71.6,260.2z"/>
		<path class="st0" d="M217,337.1c-2.1,0-3.8-1.7-3.8-3.8c0-1.4,0.8-2.8,2.1-3.4l34.5-15.5l26.8-30.8c1.4-1.6,3.8-1.8,5.4-0.5
			c1.6,1.4,1.8,3.8,0.5,5.4l-27.3,31.4c-0.3,0.4-0.7,0.7-1.2,1l-35.2,15.9C218.2,337,217.6,337.1,217,337.1z"/>
		<line class="st9" x1="240.6" y1="323.7" x2="244.4" y2="322"/>
		<line class="st9" x1="223.2" y1="331.6" x2="238.1" y2="324.8"/>
		<line class="st9" x1="274.3" y1="293.6" x2="264.4" y2="304.9"/>
		<line class="st9" x1="262.7" y1="306.5" x2="260.5" y2="309.1"/>
		<circle class="st10" cx="189.4" cy="343.2" r="33.1"/>
		<path class="st4" d="M106.6,220.6c0,0,4.8,11.2,5.8,13.4s2,2.8,1.7,3.5c-0.2,0.7-2.7,1.5-2.7,1.5c0.3,3.4-0.3,6.9-1.7,10
			c-2.4,4.8-7,7.3-7.5,10.3c-0.3,2.9-0.3,5.8-0.1,8.7l-7-5.8c0,0,2-5.7,0.2-9.8c-1.5-3.4-4.1-6.2-7.4-7.8c-4.1-2.7-7-6.9-8.2-11.7
			c-1-5.5,2.2-11.4,6.5-15.6c4.3-4.2,12.7-3.3,13.6-3s-2.3-2.4,0.6-3s4.6,3.6,4.8,4.3c0.2,0.7,1-3,2-0.6
			C108.1,217.3,106.6,220.6,106.6,220.6z"/>
		<g>
			<g>
				<defs>
					<path id="SVGID_1_" d="M106.6,220.6c0,0,4.8,11.2,5.8,13.4s2,2.8,1.7,3.5c-0.2,0.7-2.7,1.5-2.7,1.5c0.3,3.4-0.3,6.9-1.7,10
						c-2.4,4.8-7,7.3-7.5,10.3c-0.3,2.9-0.3,5.8-0.1,8.7l-7-5.8c0,0,2-5.7,0.2-9.8c-1.5-3.4-4.1-6.2-7.4-7.8
						c-4.1-2.7-7-6.9-8.2-11.7c-1-5.5,2.2-11.4,6.5-15.6c4.3-4.2,12.7-3.3,13.6-3s-2.3-2.4,0.6-3s4.6,3.6,4.8,4.3c0.2,0.7,1-3,2-0.6
						C108.1,217.3,106.6,220.6,106.6,220.6z"/>
				</defs>
				<clipPath id="SVGID_2_">
					<use xlink:href="#SVGID_1_"  style="overflow:visible;"/>
				</clipPath>
				<g class="st11">
					<path class="st12" d="M98,264.6c0-0.8-0.1-1.6-0.3-2.4c-0.5-2.1,2.4-8.6,3.3-16.3s-5.1-18.5-5.1-18.5l-4.4-12.8
						c-2,0.4-3.8,1.4-5.3,2.7c-4.3,4.2-7.5,10-6.5,15.6c1.1,4.8,4.1,9,8.2,11.7c3.3,1.7,5.9,4.4,7.4,7.8c1.7,4.2-0.2,9.8-0.2,9.8
						L98,264.6z"/>
				</g>
			</g>
		</g>
		<path class="st9" d="M106.6,220.6c0,0,4.8,11.2,5.8,13.4s2,2.8,1.7,3.5c-0.2,0.7-2.7,1.5-2.7,1.5c0.3,3.4-0.3,6.9-1.7,10
			c-2.4,4.8-7,7.3-7.5,10.3c-0.3,2.9-0.3,5.8-0.1,8.7l-7-5.8c0,0,2-5.7,0.2-9.8c-1.5-3.4-4.1-6.2-7.4-7.8c-4.1-2.7-7-6.9-8.2-11.7
			c-1-5.5,2.2-11.4,6.5-15.6c4.3-4.2,12.7-3.3,13.6-3s-2.3-2.4,0.6-3s4.6,3.6,4.8,4.3c0.2,0.7,1-3,2-0.6
			C108.1,217.3,106.6,220.6,106.6,220.6z"/>
		<path class="st9" d="M107.1,226.5c0,0-2.1-0.6-2.8,1.2c-0.4,0.8-0.5,1.8-0.1,2.6"/>
		<path class="st9" d="M109.5,244.1c0,0-2.1,1-3.4-0.3"/>
		<line class="st9" x1="105.4" y1="234.4" x2="95.8" y2="238.6"/>
		<path class="st9" d="M91.8,243.7c-1.3,1.9-1.9,4.2-1.7,6.5c0.3,3.9,0.2,9.3-1.8,8.8s1-6.5,1-9c-0.1-1.9-0.6-3.8-1.3-5.5"/>
		<line class="st9" x1="112.5" y1="231.4" x2="110.2" y2="232.4"/>
		<path class="st5" d="M108.7,233.7c0.3,1,0.3,1.9,0,2s-0.8-0.7-1.1-1.7c-0.3-1-0.3-1.9,0-2S108.5,232.6,108.7,233.7z"/>
		<path class="st9" d="M110,233.7c0.8,2.4,0.6,4.6-0.5,5s-2.6-1.3-3.4-3.7s-0.6-4.6,0.5-5C107.6,229.6,109.2,231.3,110,233.7z"/>
		<path class="st13" d="M94,242.9c0,0-1.9-2.3-0.2-2.1c1.1,0.2,2,1,2.3,2.1"/>
		<polygon class="st0" points="147.4,282.1 140.7,286.8 141.7,292.4 149.3,289.4 		"/>
		<path class="st0" d="M141.4,285.4l3,11.2c0,0-20.2,9.2-24.2,12.1s-7.2,2.1-7.2,2.1l-2.6-12.9c0,0,2.9,1.4,9-1.3
			S141.4,285.4,141.4,285.4z"/>
		<path class="st1" d="M151.3,314.6c-0.8-0.1-1.5-0.8-1.5-1.6l-2.7-44.3c-0.1-0.9,0.6-1.8,1.5-1.9s1.8,0.6,1.9,1.5
			c0,0.1,0,0.2,0,0.2l2.7,44.3c0,0.9-0.7,1.8-1.6,1.8l0,0H151.3z"/>
		<path class="st0" d="M146.2,281c-0.9,0-1.7-0.8-1.6-1.8c0-0.8,0.6-1.5,1.4-1.6l6.7-0.8c0.9-0.2,1.8,0.4,2,1.3s-0.4,1.8-1.3,2
			c-0.1,0-0.2,0-0.3,0l-6.7,0.8L146.2,281z"/>
		<path class="st0" d="M146.6,284.5c-0.9,0-1.7-0.8-1.6-1.8c0-0.8,0.6-1.5,1.4-1.6l6.7-0.8c0.9-0.1,1.8,0.6,1.9,1.5
			c0.1,0.9-0.6,1.8-1.5,1.9l0,0l-6.7,0.8H146.6z"/>
		<path class="st0" d="M146.9,287.6c-0.9,0-1.6-0.7-1.6-1.7c0-0.8,0.6-1.5,1.4-1.6l6.4-0.8c0.9-0.1,1.7,0.5,1.8,1.4
			s-0.5,1.7-1.4,1.8l0,0l-6.4,0.8L146.9,287.6z"/>
		<path class="st0" d="M148,290.7c-0.7-0.1-1.2-0.6-1.2-1.3c-0.1-0.7,0.3-1.5,1-1.7l4.5-0.7c0.6-0.1,1.2,0.5,1.3,1.3
			c0.1,0.7-0.3,1.5-1,1.7l-4.5,0.7H148z"/>
		<path class="st0" d="M145.5,285.2c0,0.7-0.6,1.2-1.3,1.3c-0.7,0.2-1.5-0.2-1.8-0.9l-1.1-4.5c-0.1-0.6,0.4-1.3,1.2-1.4
			c0.7-0.2,1.5,0.2,1.8,0.9l1.1,4.5C145.5,285.1,145.5,285.2,145.5,285.2z"/>
		<path class="st4" d="M92.5,258.7c0,0,8.2,5,12,11.2s7,15.5,8.9,23.7c1.8,8.2,3.3,29.4,4.5,33.8c0.6,2.3,1.4,4.6,2.5,6.7
			c-6.7,2.5-13.8,3.7-20.9,3.5c-11.3-0.5-13-3.2-13-3.2s-3.8-25.2-3.5-45.1C83.4,269.1,92.5,258.7,92.5,258.7z"/>
		<g>
			<g>
				<defs>
					<path id="SVGID_3_" d="M92.5,258.7c0,0,8.2,5,12,11.2s7,15.5,8.9,23.7c1.8,8.2,3.3,29.4,4.5,33.8c0.6,2.3,1.4,4.6,2.5,6.7
						c-6.7,2.5-13.8,3.7-20.9,3.5c-11.3-0.5-13-3.2-13-3.2s-3.8-25.2-3.5-45.1C83.4,269.1,92.5,258.7,92.5,258.7z"/>
				</defs>
				<clipPath id="SVGID_4_">
					<use xlink:href="#SVGID_3_"  style="overflow:visible;"/>
				</clipPath>
				<g class="st14">
					<path class="st12" d="M87.7,281.3c0,0-1.2,1.9-0.2-3c0.8-3.4,2-6.7,3.7-9.8l5.6,6.3l3.5,0.2l-0.9,1.6l6.8,4.2L103,277l0.2-5.8
						l-5.4,1.7c0,0-3.5-6.3-4.4-8.4c-0.6-1.4,1.5-2.6,2.9-3.2c-1.2-0.9-2.4-1.8-3.7-2.6c0,0-9.1,10.5-9.5,30.5
						c-0.3,15.8,2.1,34.9,3,42.2l17.9-1L87.7,281.3z"/>
				</g>
			</g>
		</g>
		<path class="st9" d="M92.5,258.7c0,0,8.2,5,12,11.2s7,15.5,8.9,23.7c1.8,8.2,3.3,29.4,4.5,33.8c0.6,2.3,1.4,4.6,2.5,6.7
			c-6.7,2.5-13.8,3.7-20.9,3.5c-11.3-0.5-13-3.2-13-3.2s-3.8-25.2-3.5-45.1C83.4,269.1,92.5,258.7,92.5,258.7z"/>
		<polyline class="st9" points="90.1,262.7 98.7,273 103.2,271.2 102.9,277 109.7,285.2 		"/>
		<path class="st13" d="M84.9,284.5c0,0,1,9.5,3.8,11.8"/>
		<path class="st13" d="M85.4,294.8c0,0,1.2,3.6,4.2,4.8"/>
		<polyline class="st13" points="110.2,289.6 105.3,291.5 106,293.6 110.6,291.9 		"/>
		<path class="st1" d="M143.6,325.6c-0.8,0-1.6-0.6-1.7-1.5l-6.2-40.1c-0.1-0.9,0.5-1.8,1.4-2c0.9-0.1,1.8,0.5,2,1.4l6.2,40.1
			c0.1,0.9-0.5,1.8-1.4,2L143.6,325.6z"/>
		<path class="st1" d="M106.6,220.6c0,0,1.4-3.2,0.5-5.7s-1.8,1.3-2,0.6c-0.1-0.7-1.8-4.8-4.8-4.3c-2.9,0.6,0.3,3.4-0.6,3
			c-0.9-0.3-9.4-1.2-13.6,3s-7.5,10-6.5,15.6c1.1,4.8,4.1,9,8.2,11.7c2.2,1.1,4,2.7,5.5,4.6c1.2-1,2.4-2.1,3.4-3.4
			c-1.2,0.4-2.5,0.2-3.6-0.6c-1.8-1.3-2.8-5-0.5-6.8s4.5,2.4,4.5,2.4c2.4,1.3,1.5-2.1,0.6-3.6s0.3-3.1,0.7-5.3
			c0.3-2.2-2.6-3-2.3-5.2C96.6,224.4,106.6,220.6,106.6,220.6z"/>
		<path class="st15" d="M101.1,222.1c0,0-4.2-2.1-6.9,1.2c-2.7,3.3-2.1,8.8-4.2,12c-1,1.8-2.7,3.1-4.8,3.4"/>
		<path class="st15" d="M82.8,233c2.6,0.3,5-1.6,5.3-4.2c1-4.8,6.3-11.6,11.6-11.8c5.3-0.2,5,3.6,5,3.6"/>
		<path class="st0" d="M128.9,299.4l3.3-2.2c0,0,2.9-5.3,3.1-5.7c0.2-0.3,7.3-3.8,7.9-3.3c0.7,0.6,1,1.4,0.9,2.3
			c-0.2,0.6-1,1.2-1,1.7s0.9,5,0.9,6.1s-4.8,3.1-6.7,3.7s-4.5,0.6-5.1,1l-1.6,1.3L128.9,299.4z"/>
		<path class="st4" d="M90.1,276.1c0,0-3,0.8-2,9.2c1,8.4,9.5,36.8,12.5,40.3s32.2-15.9,32.2-15.9l-3.6-11.1c0,0-19.7,7.7-21.4,8.1
			s-6.2-24.8-7.9-27.9"/>
		<g>
			<g>
				<defs>
					<path id="SVGID_5_" d="M90.1,276.1c0,0-3,0.8-2,9.2c1,8.4,9.5,36.8,12.5,40.3s32.2-15.9,32.2-15.9l-3.6-11.1
						c0,0-19.7,7.7-21.4,8.1s-6.2-24.8-7.9-27.9"/>
				</defs>
				<clipPath id="SVGID_6_">
					<use xlink:href="#SVGID_5_"  style="overflow:visible;"/>
				</clipPath>
				<g class="st16">
					<path class="st12" d="M132.3,308.1c-6.1,1.9-20.1,6.3-22,6.1c-2.4-0.2-3-1.6-4.4-3.5s-3.5,5.6-5.4,6.3
						c-1.9,0.7-0.5-8.4,0.2-10.3s-1.6,0.9-1.6,0.9s-4.7-9.5-7-16.1c-1.5-4.3-2.7-8.7-3.5-13.1l-0.5,1.3c-0.3,1.8-0.3,3.7,0,5.6
						c1,8.4,9.5,36.8,12.5,40.3s32.2-15.9,32.2-15.9L132.3,308.1z"/>
				</g>
			</g>
		</g>
		<path class="st9" d="M90.1,276.1c0,0-3,0.8-2,9.2c1,8.4,9.5,36.8,12.5,40.3s32.2-15.9,32.2-15.9l-3.6-11.1c0,0-19.7,7.7-21.4,8.1
			s-6.2-24.8-7.9-27.9"/>
		<path class="st13" d="M107.9,306.7c-2.4,1.5-4,4-4.5,6.8"/>
		<path class="st13" d="M103.5,309.2c-1.6,1.6-2.5,3.8-2.5,6.1"/>
		<path class="st17" d="M73.8,318.6c0,0-3.2-10.6-2.8-32.6s1.7-24.1,0.6-25.8c-1.1-1.7-20.3,9.6-34.6,26.1
			c-9.1,10.6-20.8,26.2-21.5,50.8c-0.6,19.7,8.7,35.6,14.6,40c10.2,7.6,24,7.1,25.5,7.1h141.7c0,0,9.1-3.2,11.2-11.4
			c2.1-8.2,9.3-31.7-5.7-59.9c-9.9-18.5-27.5-38.3-30.5-36.8s-14.1,22.7-29.2,36C128.9,324.6,101.7,333.8,73.8,318.6z"/>
		<path class="st0" d="M202.9,312.9c-2.1-3.9-4.6-7.9-7.2-11.8c-8.3,2.9-29,11.4-40.6,28.4c-9.9,14.6-3.3,37.8,17.3,54.7h24.9
			c0,0,9.1-3.2,11.2-11.4S217.9,341,202.9,312.9z"/>
		<path class="st9" d="M207.4,357.4c-0.2,2.1-0.6,4.2-1,6.4"/>
		<path class="st9" d="M200.3,316.5c0,0,8.6,14.8,7.5,36.4"/>
		<path class="st0" d="M70.4,381.2V360c-11-3.6-18.2-7.8-24.8-11.8c-9.5-5.7-16.2-21.1-11.7-31.1c4.1-9.2,15.5-13.3,21.6-9.2
			c5.9,3.9,12,7.5,18.3,10.7c0,0-3.2-10.6-2.8-32.6c0.4-22,1.7-24.1,0.6-25.8c-1.1-1.7-20.3,9.6-34.6,26.1
			c-9.1,10.5-20.7,26.1-21.5,50.7c-0.6,19.7,8.7,35.6,14.6,40c10.2,7.6,24,7.1,25.5,7.1h14.8C70.4,383.1,70.4,382.1,70.4,381.2z"/>
		<path class="st9" d="M20,341.3c0.1,2.6,0.4,5.2,0.8,7.8"/>
		<path class="st9" d="M54.1,276.2c-3.4,3.1-8.6,6.7-11.8,10.4c-9.1,10.6-21.6,25.6-22.4,50.2"/>
		<path class="st17" d="M103.4,381.7c0,11.6-17.9,12.7-40.1,12.7s-40.1-0.4-40.1-12.7c0-16.9,17.9-33.4,40.1-33.4
			S103.4,364.7,103.4,381.7z"/>
		<path class="st1" d="M63.3,348.2c-20.5,0-37.4,14.1-39.8,29.6c2.4,9.8,19.3,10.1,39.8,10.1s37.3-0.9,39.8-10.2
			C100.6,362.3,83.8,348.2,63.3,348.2z"/>
		<path class="st17" d="M207.1,382.9c0,10.5-16.3,11.5-36.3,11.5s-36.3-0.4-36.3-11.5c0-15.3,16.3-30.3,36.3-30.3
			S207.1,367.6,207.1,382.9z"/>
		<path class="st1" d="M170.8,352.6c-18.6,0-33.8,12.8-36,26.9c2.2,8.8,17.5,9.2,36,9.2s33.8-0.8,36-9.2
			C204.6,365.4,189.3,352.6,170.8,352.6z"/>
		<path class="st0" d="M312.1,257.4c-3-1.1-4.5-4.4-3.4-7.4l16.1-43.1c1.1-3,4.4-4.5,7.4-3.4s4.5,4.4,3.4,7.4L319.5,254
			C318.4,257,315.1,258.5,312.1,257.4C312.2,257.4,312.2,257.4,312.1,257.4z"/>
		<line class="st9" x1="330.7" y1="214.7" x2="321.6" y2="238.5"/>
		<path class="st1" d="M287.6,323c-5.3-2-7.9-7.8-6-13.1l0,0l23-61.5c2-5.3,7.8-7.9,13.1-5.9c5.3,2,7.9,7.8,5.9,13.1l0,0l-23,61.4
			C298.7,322.3,292.9,325,287.6,323z"/>
		<path class="st1" d="M373,96.5c-32-12-67.7,4.3-79.7,36.3s4.3,67.7,36.3,79.7s67.7-4.3,79.7-36.3C421.3,144.1,405,108.5,373,96.5z
			 M333.4,202.4c-26.5-9.9-39.9-39.4-30-65.9s39.4-39.9,65.9-30s39.9,39.4,30,65.9C389.3,198.9,359.9,212.3,333.4,202.4L333.4,202.4
			z"/>
		<path class="st9" d="M309.8,135.7c5-11.1,14.2-19.7,25.6-23.9"/>
		<path class="st9" d="M305.7,154.6c0-4.6,0.7-9.3,2.1-13.7"/>
		<path class="st18" d="M292.6,167.2c-7-32.4,13.5-64.4,45.9-71.4c26.4-5.7,53.3,6.8,65.9,30.7"/>
		<path class="st18" d="M411,147.3c4,32.9-19.4,62.9-52.3,66.9c-26.3,3.2-51.6-11.2-62.3-35.4"/>
		<path class="st18" d="M406.9,131.7c1.6,3.8,2.7,7.7,3.5,11.8"/>
		<circle class="st5" cx="111" cy="348.2" r="17.2"/>
		<circle class="st0" cx="111" cy="348.2" r="14.5"/>
		<path class="st5" d="M106.6,352.5c-0.3-0.3-0.3-0.7,0-1l3.9-3.9c0.3-0.3,0.7-0.3,1,0s0.3,0.7,0,1l0,0l-3.9,3.9
			C107.3,352.8,106.9,352.8,106.6,352.5C106.6,352.6,106.6,352.6,106.6,352.5z"/>
		<path class="st5" d="M100.6,358.5c-0.5-0.5-0.5-1.2,0-1.7l0,0l5.6-5.6c0.5-0.5,1.2-0.5,1.7-0.1c0,0,0,0,0.1,0.1
			c0.5,0.5,0.5,1.2,0,1.7l0,0l-5.6,5.6C101.9,359,101.1,359,100.6,358.5C100.6,358.6,100.6,358.6,100.6,358.5z"/>
		<path class="st5" d="M121.3,348.5c2.9-2.9,2.9-7.7,0-10.6s-7.7-2.9-10.6,0s-2.9,7.7,0,10.6l0,0
			C113.7,351.4,118.4,351.4,121.3,348.5z"/>
		<path class="st4" d="M119.9,347c2.1-2.1,2.1-5.6,0-7.7s-5.6-2.1-7.7,0s-2.1,5.6,0,7.7C114.3,349.2,117.8,349.2,119.9,347
			C119.9,347.1,119.9,347,119.9,347z"/>
		<path class="st17" d="M324.6,286.8c0,3.2-2.6,5.7-5.7,5.7l0,0h-40.3c-3.2,0.1-5.8-2.3-6-5.4c-0.1-3.2,2.3-5.8,5.4-6
			c0.2,0,0.3,0,0.5,0h40.3C322.1,281.1,324.6,283.7,324.6,286.8z"/>
		<circle class="st0" cx="300.5" cy="287.6" r="3.2"/>
		<circle class="st17" cx="252.3" cy="317.1" r="7.7"/>
		<path class="st0" d="M255.2,317.1c0-1.6-1.3-2.9-2.9-2.9c-1.6,0-2.9,1.3-2.9,2.9s1.3,2.9,2.9,2.9l0,0
			C253.9,320,255.2,318.7,255.2,317.1z"/>
		<circle class="st17" cx="278.6" cy="287" r="7.7"/>
		<circle class="st0" cx="278.6" cy="287" r="3"/>
	</g>
</g>
<g>
	<g>
		<path class="st2" d="M348.7,32.4v-12h1.9c0.6,1.9,2.1,8,2.2,8.8h0c-0.1-1.5-0.1-3.2-0.1-5.2v-3.6h1.5v12h-1.8
			c-0.5-1.8-2.1-8.4-2.3-9.1h0c0.1,1.5,0.1,3.2,0.1,5.4v3.7H348.7z"/>
		<path class="st2" d="M360.8,25.9v3.7c0,2-1,3-2.6,3c-1.7,0-2.6-1-2.6-2.9v-3.8c0-1.9,1.1-2.8,2.6-2.8
			C359.9,23.1,360.8,24.1,360.8,25.9z M357.2,25.9v3.8c0,0.9,0.3,1.4,1,1.4c0.7,0,1-0.5,1-1.5v-3.8c0-0.8-0.2-1.4-1-1.4
			C357.5,24.5,357.2,25,357.2,25.9z"/>
		<path class="st2" d="M366.2,27v5.5h-1.6v-12h2.4c1.8,0,2.8,0.8,2.8,2.8v0.5c0,1.8-0.7,2.3-1.2,2.5c0.7,0.3,1.1,0.8,1.1,2.5
			c0,1,0,3,0.1,3.7h-1.6c-0.2-0.7-0.1-2.7-0.1-3.6c0-1.5-0.2-1.9-1.3-1.9H366.2z M366.2,25.6h0.6c1,0,1.4-0.5,1.4-1.8v-0.5
			c0-1-0.2-1.6-1.4-1.6h-0.6V25.6z"/>
		<path class="st2" d="M372.4,28.2v1.4c0,0.8,0.2,1.6,1,1.6c0.8,0,0.9-0.7,0.9-1.4v-0.1h1.6v0.1c0,1-0.2,2.8-2.5,2.8
			c-2.2,0-2.6-1.4-2.6-3.3v-3.2c0-1.3,0.4-3.1,2.6-3.1c1.9,0,2.5,1.3,2.5,3.1c0,0.5,0,1.6,0,2.1H372.4z M374.3,26.9v-1
			c0-0.9-0.2-1.5-0.9-1.5c-0.7,0-1,0.5-1,1.5v1H374.3z"/>
		<path class="st2" d="M378.3,29.6V30c0,0.7,0.2,1.2,0.9,1.2c0.6,0,0.8-0.4,0.8-1.1c0-0.7-0.2-1.1-1.3-1.9c-1.3-0.8-1.9-1.5-1.9-2.8
			c0-1.5,0.8-2.5,2.3-2.5c1.7,0,2.3,1,2.3,2.6V26h-1.6v-0.5c0-0.7-0.2-1-0.8-1c-0.5,0-0.7,0.4-0.7,1c0,0.6,0.2,0.9,1.1,1.4
			c1.5,1,2.1,1.6,2.1,3.1c0,1.7-0.8,2.6-2.5,2.6c-2,0-2.4-1.3-2.4-2.6v-0.4H378.3z"/>
		<path class="st2" d="M387.9,29.8c0,1.3,0,2.2,0,2.6h-1.5c0-0.2-0.1-0.6-0.1-0.9c-0.3,0.8-0.9,1.1-1.7,1.1c-0.8,0-1.8-0.4-1.8-2.4
			v-7h1.6v6.6c0,1,0.3,1.4,0.9,1.4c0.6,0,1-0.4,1-1.8v-6.1h1.6V29.8z"/>
		<path class="st2" d="M389.5,32.4V19.9h1.6v12.6H389.5z"/>
		<path class="st2" d="M391.9,23.2h1V21h1.6v2.2h1.2v1.4h-1.2v5.8c0,0.5,0.1,0.8,0.6,0.8c0.2,0,0.4,0,0.5-0.1v1.2
			c-0.3,0.1-0.7,0.2-1.1,0.2c-1,0-1.7-0.4-1.7-1.9v-6.1h-1V23.2z"/>
		<path class="st2" d="M397.7,29.6V30c0,0.7,0.2,1.2,0.9,1.2c0.6,0,0.8-0.4,0.8-1.1c0-0.7-0.2-1.1-1.3-1.9c-1.3-0.8-1.9-1.5-1.9-2.8
			c0-1.5,0.8-2.5,2.3-2.5c1.7,0,2.3,1,2.3,2.6V26h-1.6v-0.5c0-0.7-0.2-1-0.8-1c-0.5,0-0.7,0.4-0.7,1c0,0.6,0.2,0.9,1.1,1.4
			c1.5,1,2.1,1.6,2.1,3.1c0,1.7-0.8,2.6-2.5,2.6c-2,0-2.4-1.3-2.4-2.6v-0.4H397.7z"/>
		<path class="st2" d="M404.7,20.4h4.5v1.5h-2.9v3.5h2.7v1.5h-2.7v5.6h-1.6V20.4z"/>
		<path class="st2" d="M415.1,25.9v3.7c0,2-1,3-2.6,3c-1.7,0-2.6-1-2.6-2.9v-3.8c0-1.9,1.1-2.8,2.6-2.8
			C414.1,23.1,415.1,24.1,415.1,25.9z M411.5,25.9v3.8c0,0.9,0.3,1.4,1,1.4c0.7,0,1-0.5,1-1.5v-3.8c0-0.8-0.2-1.4-1-1.4
			C411.8,24.5,411.5,25,411.5,25.9z"/>
		<path class="st2" d="M421.5,29.8c0,1.3,0,2.2,0,2.6H420c0-0.2-0.1-0.6-0.1-0.9c-0.3,0.8-0.9,1.1-1.7,1.1c-0.8,0-1.8-0.4-1.8-2.4
			v-7h1.6v6.6c0,1,0.3,1.4,0.9,1.4c0.6,0,1-0.4,1-1.8v-6.1h1.6V29.8z"/>
		<path class="st2" d="M423.1,26c0-1.9,0-2.4,0-2.8h1.5c0,0.2,0.1,0.6,0.1,0.9c0.3-0.6,0.8-1,1.7-1c1.1,0,1.9,0.6,1.9,2.4v7h-1.6
			v-6.7c0-0.9-0.3-1.2-0.9-1.2c-0.7,0-1.1,0.4-1.1,1.8v6.1h-1.6V26z"/>
		<path class="st2" d="M434.8,19.9V30c0,1.3,0,2,0,2.5h-1.5c0-0.2-0.1-0.7-0.1-0.9c-0.3,0.6-0.7,1-1.6,1c-1.6,0-2-1.3-2-3.1v-3.7
			c0-1.6,0.6-2.8,2.1-2.8c0.7,0,1.2,0.2,1.5,0.7v-3.8H434.8z M431.3,25.9v3.7c0,1,0.2,1.5,0.9,1.5c0.8,0,1-0.8,1-1.9v-2.9
			c0-1-0.1-1.8-1-1.8C431.5,24.5,431.3,25.1,431.3,25.9z"/>
	</g>
</g>
</svg>
