<?xml version="1.0" encoding="utf-8"?>
<!-- Generator: Adobe Illustrator 24.3.0, SVG Export Plug-In . SVG Version: 6.00 Build 0)  -->
<svg version="1.1" id="Layer_1" xmlns="http://www.w3.org/2000/svg" xmlns:xlink="http://www.w3.org/1999/xlink" x="0px" y="0px"
	 viewBox="0 0 750 454.5" style="enable-background:new 0 0 750 454.5;" xml:space="preserve">
<style type="text/css">
	.st0{fill:#E0E0E0;}
	.st1{fill:#F5F5F5;}
	.st2{fill:#FFFFFF;}
	.st3{fill:#EBEBEB;}
	.st4{fill:#FAFAFA;}
	.st5{fill:#263238;}
	.st6{fill:#455A64;}
	.st7{fill:#FFBDA7;}
	.st8{fill:#007A70;}
	.st9{opacity:0.4;}
	.st10{opacity:0.3;}
	.st11{fill:#AA6550;}
	.st12{opacity:0.2;}
	.st13{enable-background:new    ;}
</style>
<g id="freepik--background-complete--inject-32">
	<rect x="610.8" y="23" class="st0" width="95.8" height="138.8"/>
	<rect x="606" y="23" class="st1" width="95.8" height="138.8"/>
	<rect x="617.9" y="38.1" class="st2" width="72" height="108.7"/>
	<path class="st0" d="M689.9,146.8c0,0,0-0.2,0-0.5s0-0.9,0-1.6c0-1.4,0-3.4,0-6c0-5.2,0-12.8-0.1-22.4c0-19.2-0.1-46.3-0.1-78.3
		l0.2,0.2h-72l0,0l0.3-0.3c0,41,0,78.8,0,108.7l-0.2-0.2l52.4,0.1h14.5h3.8h1.3h-1.3h-3.8l-14.4,0.1l-52.5,0.1h-0.2v-0.2
		c0-29.9,0-67.7,0-108.7v-0.3h0.3h72h0.2v0.2c0,32-0.1,59.2-0.1,78.4c0,9.6,0,17.1-0.1,22.3c0,2.6,0,4.6,0,5.9c0,0.7,0,1.2,0,1.5
		S689.9,146.8,689.9,146.8z"/>
	<path class="st0" d="M702,23c-0.5,0.9-1,1.7-1.7,2.4c-1.1,1.5-2.7,3.5-4.5,5.7s-3.5,4.1-4.7,5.5c-0.6,0.8-1.3,1.5-2.1,2.2
		c0.5-0.8,1.1-1.6,1.8-2.4l4.6-5.6l4.6-5.6C700.6,24.5,701.3,23.7,702,23z"/>
	<path class="st2" d="M690.2,146.5c3.6,5.7,7.8,10.9,12.5,15.7"/>
	<path class="st0" d="M702.8,162.1c-0.8-0.6-1.5-1.3-2.2-2c-1.7-1.7-3.3-3.5-4.7-5.3c-1.7-2.2-3.2-4.2-4.2-5.8
		c-0.6-0.8-1.1-1.7-1.5-2.6c0.7,0.7,1.2,1.5,1.8,2.4c1,1.5,2.5,3.5,4.3,5.7s3.4,4.1,4.6,5.4C701.6,160.6,702.2,161.3,702.8,162.1z"
		/>
	<path class="st2" d="M606,161.7l12.5-15.5"/>
	<path class="st0" d="M618.5,146.2c-1.9,2.7-3.9,5.4-6.1,7.9c-2,2.6-4.2,5.2-6.5,7.6c1.9-2.7,3.9-5.4,6.1-7.9
		C614.1,151.2,616.3,148.6,618.5,146.2z"/>
	<path class="st0" d="M606,23c2.2,2.3,4.2,4.7,6.1,7.3c2,2.4,3.9,5,5.7,7.6c-2.2-2.3-4.2-4.7-6.1-7.3C609.6,28.2,607.8,25.7,606,23z
		"/>
	<rect x="643.4" y="60.1" class="st0" width="24.1" height="68.4"/>
	<polygon class="st1" points="256.6,404.6 256.6,439.6 307.8,439.6 364.3,439.6 364.3,404.6 	"/>
	<polygon class="st0" points="252.1,394.8 252.1,404.6 368.1,404.6 368.1,394.8 307.8,394.8 	"/>
	<polygon class="st0" points="310.1,439.6 364.3,439.6 364.3,404.6 368.1,404.6 368.1,394.8 307.8,394.8 307.8,403.7 	"/>
	<rect x="271.6" y="410.2" class="st0" width="21.9" height="5.3"/>
	<rect x="268.8" y="422.1" class="st2" width="28" height="11.1"/>
	<polygon class="st1" points="280.5,358.7 280.5,393.8 331.8,393.8 388.3,393.8 388.3,358.7 	"/>
	<polygon class="st0" points="276,348.9 276,358.7 392,358.7 392,348.9 331.8,348.9 	"/>
	<polygon class="st0" points="334,393.8 388.3,393.8 388.3,358.7 392,358.7 392,348.9 331.8,348.9 331.8,357.8 	"/>
	<rect x="295.6" y="364.4" class="st0" width="21.9" height="5.3"/>
	<rect x="292.8" y="376.2" class="st2" width="28" height="11.1"/>
	
		<rect x="149.9" y="47.9" transform="matrix(1 -5.410336e-03 5.410336e-03 1 -0.3727 0.8353)" class="st0" width="8.6" height="42.8"/>
	
		<rect x="75.3" y="48" transform="matrix(1 -5.410336e-03 5.410336e-03 1 -0.3223 0.4686)" class="st3" width="22.3" height="23.6"/>
	
		<rect x="97.5" y="47.9" transform="matrix(1 -5.410336e-03 5.410336e-03 1 -0.3214 0.5887)" class="st1" width="22.3" height="23.6"/>
	<path class="st0" d="M75.3,54.6c14.8,0.1,29.6,0,44.4-0.2c0.1,0,0.2-0.2,0.2-0.3s-0.1-0.2-0.2-0.2c-14.8-0.1-29.6,0-44.4,0.3
		c-0.1,0-0.2,0.1-0.2,0.3C75.2,54.6,75.2,54.6,75.3,54.6z"/>
	
		<rect x="61.5" y="71.3" transform="matrix(1 -5.410336e-03 5.410336e-03 1 -0.4365 0.4432)" class="st3" width="40.4" height="19.2"/>
	
		<rect x="101.7" y="71.1" transform="matrix(1 -5.410336e-03 5.410336e-03 1 -0.4348 0.6607)" class="st1" width="40.4" height="19.2"/>
	<path class="st0" d="M61.4,76.8c26.9,0.3,53.8,0,80.7-0.4c0.1,0,0.2-0.2,0.2-0.3c0-0.1-0.1-0.2-0.2-0.2
		c-26.9-0.1-53.8-0.1-80.7,0.5c-0.1,0-0.2,0.1-0.2,0.2C61.2,76.7,61.3,76.8,61.4,76.8L61.4,76.8z"/>
	<rect x="46.3" y="90.7" class="st0" width="156.7" height="6.9"/>
	<rect x="72" y="94" class="st0" width="6.4" height="23.5"/>
	<rect x="166.9" y="94" class="st0" width="6.4" height="23.5"/>
	
		<rect x="158.7" y="31.2" transform="matrix(0.9999 -1.000050e-02 1.000050e-02 0.9999 -0.5978 1.633)" class="st3" width="8.6" height="58.8"/>
	
		<rect x="167.4" y="42.1" transform="matrix(0.9999 -1.000050e-02 1.000050e-02 0.9999 -0.6508 1.7443)" class="st1" width="13.4" height="47.7"/>
	<path class="st0" d="M180.1,52.1c-2.2,0.2-4.4,0.3-6.7,0.2c-2.2,0.1-4.5,0-6.7-0.2c2.2-0.2,4.5-0.3,6.7-0.2
		C175.6,51.8,177.8,51.8,180.1,52.1z"/>
	<path class="st0" d="M180.1,50.1c-2.2,0.2-4.4,0.3-6.7,0.2c-2.2,0.1-4.5,0-6.7-0.2c2.2-0.2,4.5-0.3,6.7-0.2
		C175.6,49.8,177.8,49.8,180.1,50.1z"/>
	<path class="st0" d="M180.1,83.4c-2.2,0.2-4.4,0.3-6.7,0.2c-2.2,0.1-4.5,0-6.7-0.2c2.2-0.2,4.5-0.3,6.7-0.2
		C175.6,83.1,177.8,83.1,180.1,83.4z"/>
	<path class="st0" d="M180.1,81.4c-2.2,0.2-4.4,0.3-6.7,0.2c-2.2,0.1-4.5,0-6.7-0.2c2.2-0.2,4.5-0.3,6.7-0.2
		C175.6,81.1,177.8,81.1,180.1,81.4z"/>
	<path class="st0" d="M173.6,77c-0.1,0-0.2-4.8-0.2-10.7s0.1-10.7,0.2-10.7s0.2,4.8,0.2,10.7S173.7,77,173.6,77z"/>
	<rect x="180.2" y="54.6" class="st3" width="14.5" height="36"/>
	<circle class="st0" cx="162.3" cy="42" r="2.5"/>
	<rect x="161.5" y="48.8" class="st0" width="1.5" height="35"/>
	<rect x="128.9" y="179.5" class="st0" width="156.7" height="7"/>
	<rect x="154.5" y="182.9" class="st0" width="6.4" height="23.8"/>
	<rect x="249.5" y="182.9" class="st0" width="6.4" height="23.8"/>
	<path class="st3" d="M226.2,119.4c0.3-0.2,2,1,4.3,3.6c1.3,1.5,2.5,3.2,3.6,4.9c1.3,2.1,2.5,4.3,3.5,6.6s1.8,4.7,2.4,7.1
		c0.5,2,0.8,4,1,6c0.3,3.5,0,5.6-0.3,5.6c-0.8,0.1-1.6-8.4-5.6-17.7S225.6,119.9,226.2,119.4z"/>
	<path class="st3" d="M243.4,160.3c-0.4,0.1-1.4-4.6-2.3-12.1s-1.7-18-2-29.6s-0.2-22,0-29.6s0.6-12.3,1-12.3s0.7,4.7,1,12.2
		s0.4,18,0.8,29.6s0.8,21.9,1.2,29.5S243.8,160.2,243.4,160.3z"/>
	<path class="st3" d="M260.1,94.5c0.4,0.2-1.1,3.4-3,8.8s-4.3,12.9-6.6,21.2s-4.1,16.1-5.1,21.7s-1.5,9.1-1.9,9.1s-0.6-3.6,0-9.4
		c1.9-14.9,5.9-29.5,11.9-43.4C257.7,97.3,259.8,94.3,260.1,94.5z"/>
	<path class="st0" d="M221.9,150.7v9.2c-0.1,10.8,8.6,19.6,19.4,19.7l0,0l0,0c10.8-0.1,19.5-8.9,19.4-19.6l0,0v-9.2L221.9,150.7
		L221.9,150.7z"/>
	<path class="st4" d="M261.1,158.5c0,0.2-8.8,0.3-19.6,0.3s-19.6-0.1-19.6-0.3s8.8-0.3,19.6-0.3S261.1,158.3,261.1,158.5z"/>
	<path class="st4" d="M261.1,161c0,0.1-8.8,0.3-19.6,0.3s-19.6-0.1-19.6-0.3s8.8-0.3,19.6-0.3S261.1,160.9,261.1,161z"/>
	
		<rect x="148.6" y="148.3" transform="matrix(1 -5.235873e-03 5.235873e-03 1 -0.7969 0.8922)" class="st0" width="42.8" height="8.7"/>
	
		<rect x="148.9" y="166.1" transform="matrix(1 -5.235873e-03 5.235873e-03 1 -0.9027 0.9069)" class="st1" width="47.7" height="13.5"/>
	<path class="st0" d="M187.4,179.4c-0.2-2.2-0.3-4.5-0.2-6.8c-0.1-2.3,0-4.5,0.2-6.8c0.2,2.2,0.3,4.5,0.2,6.8
		C187.7,174.9,187.6,177.2,187.4,179.4z"/>
	<path class="st0" d="M189.4,179.4c-0.2-2.2-0.3-4.5-0.2-6.8c-0.1-2.3,0-4.5,0.2-6.8c0.2,2.2,0.3,4.5,0.2,6.8
		C189.7,174.9,189.6,177.2,189.4,179.4z"/>
	<path class="st0" d="M156.1,179.4c-0.2-2.2-0.3-4.5-0.2-6.8c-0.1-2.3,0-4.5,0.2-6.8c0.2,2.2,0.3,4.5,0.2,6.8
		C156.4,174.9,156.3,177.2,156.1,179.4z"/>
	<path class="st0" d="M158.1,179.4c-0.2-2.2-0.3-4.5-0.2-6.8c-0.1-2.3,0-4.5,0.2-6.8c0.2,2.2,0.3,4.5,0.2,6.8
		C158.4,174.9,158.3,177.2,158.1,179.4z"/>
	<path class="st0" d="M162.4,172.9c0-0.1,4.8-0.2,10.7-0.2s10.8,0.1,10.8,0.2s-4.8,0.2-10.8,0.2S162.4,173,162.4,172.9z"/>
	
		<rect x="155.6" y="156.9" transform="matrix(1 -5.235873e-03 5.235873e-03 1 -0.8418 0.9709)" class="st3" width="58.8" height="8.7"/>
	<path class="st0" d="M206.1,164.3c-1.6,0-2.8-1.2-2.9-2.8c0-1.6,1.2-2.8,2.8-2.9s2.8,1.2,2.9,2.8l0,0
		C208.9,163.1,207.6,164.3,206.1,164.3L206.1,164.3z"/>
	<rect x="159" y="160.7" class="st0" width="39.4" height="1.7"/>
</g>
<g id="freepik--Character--inject-32">
	<rect x="529.1" y="304.1" class="st5" width="64.5" height="6.2"/>
	<rect x="522.2" y="346.3" class="st5" width="64.5" height="6.2"/>
	<rect x="540.9" y="258.7" class="st5" width="64.5" height="6.2"/>
	<rect x="548.8" y="216" class="st5" width="64.5" height="6.2"/>
	<rect x="508.4" y="388.7" class="st5" width="64.4" height="6.2"/>
	<polygon class="st5" points="550.3,178.4 492.7,441.5 503.5,441.5 561.2,178.8 	"/>
	<polygon class="st5" points="617.7,178.4 560.1,441.5 570.9,441.5 628.6,178.8 	"/>
	<polygon class="st6" points="556.1,175 616.3,441.5 626.3,441.5 566.6,175 	"/>
	<polygon class="st6" points="621.2,175 681.4,441.5 691.4,441.5 631.7,175 	"/>
	<polygon class="st6" points="547,174 547,179.6 639.1,179.6 639.1,173.2 	"/>
	<rect x="582.9" y="260" class="st6" width="64.5" height="6.2"/>
	<rect x="595.5" y="303.9" class="st6" width="64.5" height="6.2"/>
	<rect x="602.8" y="346.3" class="st6" width="64.5" height="6.2"/>
	<rect x="613.6" y="391.8" class="st6" width="64.5" height="6.2"/>
	<rect x="571.5" y="216" class="st6" width="64.5" height="6.2"/>
	<path class="st7" d="M623.3,75.2l0.1,38.4l-15,0.7l-0.6-9.2c0,0-7.2,1.1-8.7-4.3c-1-3.5-0.7-30.3-0.7-30.3L623.3,75.2z"/>
	<path class="st5" d="M594.7,74.3c1.1,2.3,6.4,6.5,6.4,6.5l2.4,6.4c2.1-1.6,4.8-1.5,5.4,2.1c0.4,2.6-2.9,3.2-2.9,3.2
		c1.9,3.2,3.2,5.9,6,8.9c3,3.3,4.7,3.7,7.9,3.7h3.6c0,0,7.3-6.1,5.9-22.3s-16-11.4-19.5-15.5C604.2,60.7,591,66.6,594.7,74.3z"/>
	<path class="st6" d="M604.3,65.6c-0.9,0.3-1.8,0.6-2.6,1.1c-3.8,2.1-5.2,6.9-3.1,10.7c0.2,0.3,0.4,0.7,0.6,1c0.6,0.7,1.3,1.4,2,2.1
		c-0.2-0.1-0.5-0.2-0.7-0.4c-0.6-0.4-1.1-0.9-1.6-1.5c-2.8-3.4-2.3-8.5,1.1-11.3c0.5-0.4,1-0.7,1.5-1c0.6-0.3,1.3-0.6,2-0.7
		C603.8,65.6,604.1,65.6,604.3,65.6z"/>
	<path class="st6" d="M606.1,72.4c-0.4,0.3-0.8,0.6-1.2,0.8c-1,0.7-1.7,1.5-2.3,2.5s-0.9,2.1-1,3.3c0,0.5,0,1-0.1,1.5
		c-0.2-0.5-0.3-1-0.3-1.5c-0.1-2.5,1.3-4.9,3.5-6.1C605.1,72.6,605.6,72.4,606.1,72.4z"/>
	<circle class="st8" cx="534.5" cy="158.8" r="5.8"/>
	<path class="st7" d="M580.8,143.4l-7.2,18.5l-29,2.4l0,0l-0.6-0.2c-0.5-0.4-1.2-0.8-1.9-1.4c-0.6-0.5-1.2-1.1-1.6-1.7
		c-0.5-0.7-0.9-1.5-1.3-2.3c0-0.1,0-0.1,0-0.2c0-0.1-0.1-0.2-0.1-0.4c-0.2-0.4-0.8-0.6-1.2-0.4c-0.2,0.1-0.3,0.2-0.4,0.4
		c-0.3,0.7,0.2,2.8,1.6,4.9c0,0,0,0.1,0.1,0.1c1.4,2.2-2.4,0.9-3.9,0.5s-5.9-1.6-6.3-1.2c-0.7,0.5-0.3,1.3,1.1,1.7s5.6,1.9,5.4,2.7
		s-7.5-1.6-7.5-1.6s-1.5-0.7-1.8,0.1c-0.6,1.5,7.3,3.4,8,3.6c0.5,0.1,0.3,0.9-0.3,0.8s-7.1-2.5-7.7-0.9c-0.5,1.2,6.4,1.6,7.5,2.9
		s-5.2-0.9-5.6,0.3c-0.2,0.4-0.2,0.8,3.6,1.5c3,0.4,6,0.6,9,0.7l0,0l0.8,0.1v-0.1l34.9-0.4c5.1,0,9.3-0.8,11-5.7l6-18L580.8,143.4z"
		/>
	<path class="st8" d="M678.6,308.5l-5.9-5.4l10-11l8.7,7.8l-0.6,0.7c-2.6,3.2-13.4,16.1-15.9,17.6
		C672.2,319.8,678.6,308.5,678.6,308.5z"/>
	<g class="st9">
		<path class="st2" d="M675.6,314.2c0,0-2,4.1-1.1,4.2s12.3-12.5,16.9-18.5l-0.3-0.2l-13.2,14.8
			C677.9,314.5,676.2,313.6,675.6,314.2z"/>
	</g>
	<path class="st5" d="M691.3,299.5c0,0.1-0.1,0.1-0.2,0.2l-0.5,0.6l-1.7,2.1c-1.5,1.8-3.5,4.1-5.9,6.7s-4.5,4.9-6.1,6.5l-1.9,1.9
		l-0.5,0.5l-0.2,0.2c0-0.1,0.1-0.1,0.2-0.2l0.5-0.5l1.9-2c1.6-1.7,3.7-4,6.1-6.6s4.4-5,5.9-6.7l1.8-2l0.5-0.6L691.3,299.5z"/>
	<path class="st5" d="M678.1,314.7c-0.4-0.2-0.9-0.4-1.3-0.5c-0.5,0-0.9,0-1.4,0c0.4-0.2,0.9-0.3,1.4-0.2
		C677.3,314.1,677.8,314.3,678.1,314.7z"/>
	<path class="st5" d="M679.4,309.9c-0.2,0.1-0.5,0.1-0.7,0c-0.4-0.1-0.7-0.2-0.7-0.2c0.2-0.1,0.5-0.1,0.7,0
		C679.1,309.8,679.4,309.9,679.4,309.9z"/>
	<path class="st5" d="M679.7,308.6c0,0-0.3,0.1-0.6,0.1c-0.2,0.1-0.4,0.1-0.6,0c0,0,0.3-0.1,0.6-0.2S679.7,308.5,679.7,308.6z"/>
	<path class="st5" d="M679.2,307.1c0,0-0.2,0.3-0.5,0.6s-0.5,0.6-0.6,0.5s0.2-0.3,0.5-0.6S679.2,307,679.2,307.1z"/>
	<path class="st5" d="M678.7,306.2c0,0.3-0.2,0.6-0.4,0.8c-0.3,0.4-0.7,0.6-0.7,0.6s0.2-0.3,0.5-0.7S678.6,306.2,678.7,306.2z"/>
	<path class="st5" d="M678.1,309.4c-0.2,0.3-0.4,0.5-0.7,0.7s-0.6,0.4-0.8,0.6c-0.2,0.1-0.4,0.2-0.6,0.3c-0.1,0-0.3,0-0.4,0
		c-0.1-0.1-0.2-0.2-0.2-0.4c0.2-0.8,1-1.3,1.8-1.3c0.2,0,0.5,0.1,0.7,0.2s0.2,0.1,0.2,0.1c-0.3-0.1-0.6-0.2-0.9-0.2
		c-0.3,0-0.7,0.1-0.9,0.2c-0.3,0.2-0.6,0.5-0.7,0.9c0,0.2,0.2,0.3,0.3,0.2c0.2-0.1,0.4-0.1,0.5-0.2c0.3-0.2,0.6-0.4,0.8-0.6
		C677.8,309.7,678.1,309.4,678.1,309.4z"/>
	<path class="st5" d="M678,309.6c-0.2-0.1-0.4-0.2-0.6-0.4c-0.2-0.2-0.3-0.4-0.3-0.7c-0.1-0.3,0-0.7,0.2-0.9
		c0.2-0.1,0.4-0.1,0.5,0.1c0.1,0.1,0.2,0.3,0.2,0.4c0.1,0.2,0.1,0.5,0.1,0.7C678.2,309.1,678.1,309.3,678,309.6
		c0.1-0.1,0.1-0.3,0.1-0.7c0-0.2-0.1-0.5-0.2-0.7c-0.1-0.2-0.3-0.5-0.5-0.4c-0.2,0.2-0.2,0.5-0.1,0.7c0,0.2,0.1,0.4,0.3,0.6
		C677.8,309.5,678,309.6,678,309.6z"/>
	<path class="st5" d="M688,297c0,0-0.3,0.3-0.7,0.8c-0.5,0.7-0.8,1.6-0.9,2.5c-0.1,0.9,0.1,1.8,0.6,2.5c0.3,0.6,0.6,0.9,0.6,0.9
		c-0.1-0.1-0.2-0.1-0.2-0.2c-0.2-0.2-0.3-0.4-0.5-0.7c-0.5-0.8-0.7-1.7-0.6-2.6c0.1-0.9,0.4-1.8,1-2.5c0.2-0.2,0.4-0.4,0.6-0.6
		C687.9,297.1,687.9,297,688,297z"/>
	<path class="st5" d="M682.4,294c0.8,0.6,1.6,1.3,2.3,2c0.8,0.7,1.5,1.3,2.2,2.1c-0.8-0.6-1.6-1.3-2.4-2
		C683.9,295.4,683.1,294.7,682.4,294z"/>
	<path class="st5" d="M685.3,304.2c-0.4,0.6-0.8,1.2-1.3,1.8c-0.5,0.6-1,1.1-1.6,1.5c0,0,0.7-0.7,1.5-1.6S685.3,304.2,685.3,304.2z"
		/>
	<path class="st5" d="M687.3,302.1c0,0,0.1,0.2,0.2,0.4s0.2,0.4,0.2,0.4s-0.2-0.1-0.3-0.4S687.2,302.1,687.3,302.1z"/>
	<path class="st5" d="M687,300.3c0,0,0.1,0.2,0.1,0.4s0,0.4-0.1,0.4s-0.1-0.2-0.1-0.4S687,300.3,687,300.3z"/>
	<path class="st5" d="M687.6,298.7c0,0-0.1,0.2-0.2,0.4s-0.1,0.4-0.2,0.4s-0.1-0.2,0-0.5S687.6,298.7,687.6,298.7z"/>
	<path class="st5" d="M688.1,297.7c0,0,0,0.1,0,0.2s-0.1,0.2-0.2,0.2s0-0.1,0-0.3S688.1,297.7,688.1,297.7z"/>
	<g class="st10">
		<polygon points="687.3,296.5 676.1,306.3 674.7,305 684.9,293.9 		"/>
	</g>
	<path class="st8" d="M631.2,340.9l-1.3-7.8l14.7-2.6l2,11.5l-0.9,0.2c-4,0.9-20.5,4.4-23.3,4.1
		C619.2,345.9,631.2,340.9,631.2,340.9z"/>
	<g class="st9">
		<path class="st2" d="M625.4,343.5c0,0-4.2,2-3.5,2.6s17.4-2.3,24.7-4.2l-0.1-0.3l-19.5,3.6C627,345.2,626.2,343.5,625.4,343.5z"/>
	</g>
	<path class="st5" d="M646.8,341.6l-0.2,0.1l-0.7,0.2l-2.6,0.6c-2.2,0.5-5.3,1.1-8.8,1.7s-6.6,1.1-8.8,1.4L623,346l-0.7,0.1
		c-0.1,0-0.2,0-0.2,0h0.2l0.7-0.1l2.7-0.4c2.3-0.4,5.4-0.8,8.8-1.4s6.5-1.2,8.8-1.6l2.7-0.5l0.7-0.1
		C646.6,341.6,646.7,341.6,646.8,341.6z"/>
	<path class="st5" d="M627,345.5c-0.2-0.4-0.4-0.8-0.7-1.2c-0.3-0.3-0.7-0.6-1.1-0.9c0.5,0.1,0.9,0.4,1.2,0.8
		C626.8,344.5,627,345,627,345.5z"/>
	<path class="st5" d="M631,342.5c0,0-0.3-0.2-0.6-0.5s-0.5-0.6-0.4-0.6s0.3,0.2,0.6,0.5S631,342.5,631,342.5z"/>
	<path class="st5" d="M632.1,341.7c0,0-0.3-0.1-0.6-0.3S631,341,631,341s0.3,0.1,0.6,0.3S632.1,341.6,632.1,341.7z"/>
	<path class="st5" d="M632.6,340.1c-0.2,0.1-0.5,0.2-0.8,0.2c-0.3,0.1-0.5,0.1-0.8,0c0.2-0.1,0.5-0.2,0.8-0.2
		S632.3,340.1,632.6,340.1z"/>
	<path class="st5" d="M632.7,339.1c-0.2,0.2-0.5,0.3-0.8,0.4s-0.6,0.1-0.9,0c0.3-0.1,0.6-0.2,0.9-0.2
		C632.1,339.2,632.4,339.1,632.7,339.1z"/>
	<path class="st5" d="M630.3,341.3c-0.3,0.1-0.6,0.2-0.9,0.2c-0.4,0-0.7,0-1,0c-0.2,0-0.4-0.1-0.6-0.1c-0.1,0-0.2-0.1-0.3-0.2
		s0-0.3,0.1-0.4c0.7-0.5,1.6-0.4,2.2,0.1c0.2,0.2,0.3,0.4,0.4,0.6c0,0.1,0.1,0.2,0.1,0.2c-0.1-0.3-0.3-0.5-0.6-0.7s-0.6-0.3-0.9-0.4
		c-0.4-0.1-0.8,0-1.1,0.3c-0.1,0.1,0,0.3,0.1,0.4c0.2,0.1,0.4,0.1,0.6,0.1c0.3,0.1,0.7,0.1,1,0.1
		C629.9,341.3,630.3,341.3,630.3,341.3z"/>
	<path class="st5" d="M630,341.4c-0.2-0.2-0.2-0.4-0.2-0.6c0-0.3,0-0.5,0.1-0.7c0.1-0.3,0.4-0.5,0.7-0.6c0.2,0,0.4,0.2,0.4,0.4
		c0,0.2,0,0.3-0.1,0.5s-0.2,0.5-0.3,0.6C630.4,341.1,630.3,341.2,630,341.4c0.1,0,0.2-0.2,0.4-0.6c0.1-0.2,0.2-0.4,0.3-0.6
		s0.1-0.6-0.1-0.6s-0.4,0.3-0.5,0.5s-0.2,0.4-0.2,0.7C629.9,341,629.9,341.2,630,341.4z"/>
	<path class="st5" d="M645.8,337.6c0,0-0.4,0-1.1,0.2c-0.8,0.3-1.6,0.7-2.2,1.4c-0.6,0.7-1,1.5-1.1,2.4c-0.1,0.7-0.1,1.1-0.1,1.1
		c0-0.1,0-0.2,0-0.3c0-0.3,0-0.5,0-0.8c0.2-1.9,1.6-3.4,3.4-3.8c0.3-0.1,0.5-0.1,0.8-0.1C645.6,337.6,645.7,337.6,645.8,337.6z"/>
	<path class="st5" d="M643.2,331.8c0.3,1,0.5,2,0.7,3s0.4,2,0.5,3c-0.3-1-0.5-2-0.7-3C643.4,333.8,643.3,332.8,643.2,331.8z"/>
	<path class="st5" d="M639.2,341.7c-0.7,0.3-1.4,0.5-2.1,0.6c-0.7,0.2-1.4,0.2-2.2,0.2c0,0,1-0.2,2.1-0.4S639.2,341.6,639.2,341.7z"
		/>
	<path class="st5" d="M642,341.2c0,0,0,0.2-0.1,0.5s-0.1,0.4-0.1,0.5s-0.1-0.2,0-0.5S642,341.1,642,341.2z"/>
	<path class="st5" d="M642.9,339.6c0,0,0,0.2-0.2,0.4s-0.3,0.3-0.3,0.3s0-0.2,0.2-0.4S642.8,339.6,642.9,339.6z"/>
	<path class="st5" d="M644.3,338.7c0,0-0.2,0.1-0.4,0.2s-0.3,0.3-0.4,0.2s0-0.2,0.3-0.4S644.3,338.7,644.3,338.7z"/>
	<path class="st5" d="M645.4,338.2c0,0,0,0.1-0.2,0.2s-0.2,0.1-0.2,0s0-0.1,0.2-0.2S645.4,338.2,645.4,338.2z"/>
	<g class="st10">
		<polygon points="645.5,336.8 630.6,337.6 630.3,335.8 645.1,333.2 		"/>
	</g>
	<path class="st7" d="M587.2,117.2l-27.6-28l-0.6-3c-0.1-0.6-0.2-1.2-0.3-1.9c-0.1-0.8-0.1-1.6,0-2.5c0.1-1,0.4-2,0.8-2.9
		c0.5-0.8-0.3-1.8-1-1.4s-2.1,2.5-2.4,5.6s-2.9-1-3.8-2.4s-4.2-5.8-4.8-5.8c-1-0.1-1.2,1-0.2,2.4s3.7,5.9,2.9,6.4l0,0
		c-1.5-0.3-3.1,0.5-3.8,1.9c-0.7,1.3-1.5,3.2-0.8,4.1c1.4,1.6,2.8,3.2,4.4,4.7l0.9,0.8c0,0,23.8,34.6,29,35.7
		c3.2,0.7,53.2,4.8,53.2,4.8l3.8-13.8L587.2,117.2z"/>
	<path class="st7" d="M545.3,88.9l2.5,2.4c0.3,0.3,0.6,0.5,1,0.7s0.8,0.1,1.1-0.2c0.2-0.3,0.3-0.7,0.2-1s-0.3-0.6-0.6-0.9l-2.5-3"/>
	<path class="st11" d="M547,87c0,0,0.5,0.4,1.3,1.2c0.4,0.5,0.8,0.9,1.3,1.4c0.3,0.3,0.5,0.6,0.7,0.9c0.2,0.4,0.2,1-0.1,1.4
		c-0.4,0.4-0.9,0.5-1.4,0.3c-0.4-0.2-0.7-0.4-1-0.7l-1.3-1.4c-0.8-0.8-1.2-1.3-1.1-1.3c0.5,0.3,1,0.7,1.4,1.1l1.4,1.3
		c0.2,0.2,0.5,0.4,0.8,0.6c0.3,0.1,0.6,0.1,0.8-0.2c0.2-0.3,0.2-0.6,0-0.9s-0.4-0.6-0.6-0.9l-1.1-1.4C547.6,88,547.3,87.5,547,87z"
		/>
	<path class="st7" d="M547.1,87.1l2.5,2.4c0.3,0.3,0.6,0.5,1,0.7s1,0.1,1.2-0.3c0.1-0.3,0.2-0.6,0-0.9c-0.1-0.3-0.3-0.6-0.6-0.9
		l-2.5-3"/>
	<path class="st11" d="M548.8,85.2c0.5,0.4,0.9,0.8,1.3,1.2l1.3,1.4c0.3,0.3,0.5,0.6,0.7,1s0.2,1-0.1,1.4c-0.4,0.4-0.9,0.5-1.4,0.3
		c-0.4-0.2-0.7-0.4-1-0.7l-1.3-1.4c-0.4-0.4-0.8-0.8-1.1-1.3c0.5,0.3,1,0.7,1.4,1.1l1.4,1.3c0.2,0.2,0.5,0.4,0.8,0.6
		c0.3,0.1,0.6,0,0.8-0.2c0.2-0.3,0.2-0.6,0-0.9s-0.4-0.6-0.6-0.9l-1.2-1.5C549.4,86.2,549.1,85.7,548.8,85.2z"/>
	<path class="st7" d="M549.1,85.7l2.5,2.4c0.3,0.3,0.6,0.5,1,0.7s1,0.1,1.2-0.3c0.1-0.3,0.2-0.6,0-0.9c-0.1-0.3-0.3-0.6-0.6-0.9
		c-0.8-1-1.7-2-2.5-3"/>
	<path class="st11" d="M550.8,83.7c0.5,0.4,0.9,0.8,1.3,1.2l1.3,1.4c0.3,0.3,0.5,0.6,0.7,0.9c0.3,0.4,0.2,1-0.1,1.4
		s-0.9,0.5-1.4,0.3c-0.4-0.2-0.7-0.4-1-0.7l-1.3-1.4c-0.4-0.4-0.8-0.8-1.1-1.3c0.5,0.3,1,0.7,1.4,1.1l1.4,1.3
		c0.2,0.2,0.5,0.4,0.8,0.6c0.3,0.1,0.6,0.1,0.8-0.2c0.2-0.3,0.2-0.6,0-0.9s-0.4-0.6-0.6-0.9l-1.2-1.5
		C551.4,84.8,551.1,84.3,550.8,83.7z"/>
	<path class="st11" d="M553.1,89.9c0-0.1,0.6-0.2,1.5,0.1l-0.3,0.2c-0.1-0.6-0.2-1.2-0.1-1.8c0.1-0.8,0.5-1.5,1-2.1
		c0.4-0.5,0.7-0.6,0.8-0.6c-0.6,0.9-1,1.8-1.2,2.8c-0.1,0.5-0.1,1.1,0,1.6v0.4l-0.3-0.1C553.7,90.1,553.1,90,553.1,89.9z"/>
	<path class="st8" d="M596.2,146l-2.5,8.6l-16.2-7.3c0.6-1.8,3.3-9.9,8.4-22.7c2.8-7.1,9.2-12.3,16.8-13.5
		c5.1-0.9,10.3-1.4,15.5-1.5c9.1,0.1,22.5,5.8,24.2,14.7c1.4,6.8-3.1,49.3-3.1,49.3l2.7,16.1l-47.2-2.6L596.2,146z"/>
	<path class="st5" d="M595,115.8c0,0,0.5,0.1,1.2,0.4c1.1,0.5,2,1.2,2.7,2.2c1,1.4,1.5,3.1,1.6,4.9c0.1,2.1-0.1,4.3-0.5,6.4
		c-0.7,3.8-1.5,7.7-2.6,11.4c-0.4,1.4-0.7,2.6-0.9,3.4c-0.1,0.4-0.2,0.8-0.3,1.3c0.2-0.4,0.3-0.8,0.5-1.2c0.3-0.8,0.6-1.9,1.1-3.4
		c1.2-3.7,2.1-7.6,2.7-11.4c0.4-2.1,0.5-4.3,0.5-6.5c-0.1-1.8-0.7-3.5-1.7-5c-0.7-1-1.7-1.7-2.9-2.1c-0.3-0.1-0.6-0.2-1-0.2
		C595.1,115.8,595,115.8,595,115.8z"/>
	<path class="st1" d="M638.9,117.7c0,0.1-10.9,0.1-24.4,0.1s-24.4,0-24.4-0.1s10.9-0.1,24.4-0.1S638.9,117.6,638.9,117.7z"/>
	<path class="st1" d="M642.5,125.8c0,0.1-12.8,0.1-28.6,0.1s-28.6,0-28.6-0.1s12.8-0.1,28.6-0.1S642.5,125.7,642.5,125.8z"/>
	<path class="st1" d="M642.5,134.2c0,0.1-13.5,0.1-30.1,0.1s-30.1,0-30.1-0.1s13.5-0.1,30.1-0.1S642.5,134.1,642.5,134.2z"/>
	<path class="st1" d="M641.6,141.4c0,0.1-14,0.1-31.2,0.1s-31.2,0-31.2-0.1s13.9-0.1,31.2-0.1S641.6,141.3,641.6,141.4z"/>
	<path class="st1" d="M641.5,149.5c0,0.1-10.2,0.1-22.8,0.1s-22.8-0.1-22.8-0.1s10.2-0.1,22.8-0.1S641.5,149.4,641.5,149.5z"/>
	<path class="st1" d="M641,155.7c0,0.1-10.1,0.1-22.6,0.1s-22.6-0.1-22.6-0.1s10.1-0.1,22.6-0.1S641,155.6,641,155.7z"/>
	<path class="st1" d="M639.7,161.9c0,0.1-10,0.1-22.2,0.1s-22.2-0.1-22.2-0.1s10-0.1,22.2-0.1S639.7,161.8,639.7,161.9z"/>
	<path class="st1" d="M639.7,168.6h-0.4h-6c-4,0-9.5-0.1-15.5-0.2l-15.5-0.3l-4.7-0.1h-1.3h-0.5h0.5h1.3h4.7c4,0,9.5,0.1,15.5,0.2
		l15.5,0.3l4.7,0.1h1.3C639.4,168.6,639.6,168.6,639.7,168.6z"/>
	<path class="st1" d="M638.8,174.3c0,0.1-9.8,0.1-21.8,0.1s-21.8-0.1-21.8-0.1s9.8-0.1,21.8-0.1S638.8,174.2,638.8,174.3z"/>
	<path class="st1" d="M640.4,180.5c0,0.1-10.1,0.1-22.6,0.1s-22.6-0.1-22.6-0.1s10.1-0.1,22.6-0.1S640.4,180.5,640.4,180.5z"/>
	<path class="st1" d="M641.4,186.8c0,0.1-10.5,0.2-23.4,0.3s-23.4,0.1-23.4,0.1s10.5-0.2,23.4-0.3S641.4,186.7,641.4,186.8z"/>
	<path class="st1" d="M595.3,149.1c0,0.1-3.7-0.1-8.1-0.4s-8.1-0.5-8.1-0.6s3.7,0.1,8.1,0.4S595.3,149.1,595.3,149.1z"/>
	<path class="st5" d="M631.9,171.4c-0.1,0-0.3,0.1-0.4,0.1c-0.3,0-0.7,0.1-1.3,0.1c-1.6,0.1-3.1,0-4.7-0.3
		c-10.5-1.5-19.2-8.9-22.3-19c-0.5-1.5-0.8-3-1-4.6c-0.1-0.5-0.1-1-0.1-1.3c0-0.1,0-0.3,0-0.4c0.1,0.6,0.2,1.1,0.3,1.7
		c0.3,1.5,0.6,3,1.1,4.5c3.3,9.9,11.8,17.1,22,18.7c1.5,0.3,3.1,0.4,4.6,0.4C630.7,171.3,631.3,171.3,631.9,171.4z"/>
	<g class="st12">
		<path d="M595.8,149.4c6.2-6.2,8.3-15.3,5.4-23.6C599.2,133.6,597.3,141.5,595.8,149.4"/>
	</g>
	<g class="st12">
		<path d="M603.5,153c2.5,5.1,7.2,8.7,12.8,9.9c2.1,0.4,4.2,0.5,6.2,1c2.1,0.4,4,1.5,5.3,3.2c0.7,1,1,2.5,0.1,3.4s-2.4,0.8-3.6,0.4
			c-9.3-2.5-17.1-9-21.3-17.7"/>
	</g>
	<polygon class="st5" points="594.7,187.1 628.1,336.1 647,336.1 628.5,206.8 632,195.8 629.9,188.5 	"/>
	<path class="st5" d="M620.4,206.3c1.6,1.7,0.6,55.9,0.6,55.9l53,44.5l12.8-11.2l-43.5-41.4l1.3-50l-2.7-15.2l-23.8-1.1L620.4,206.3
		z"/>
	<path class="st6" d="M634.5,193.6c0.1,0.3,0.2,0.7,0.2,1.1c0.1,1.1-0.1,2.1-0.5,3.1c-0.6,1.5-1.4,3-2.5,4.3
		c-1.4,1.7-2.4,3.6-3.1,5.7c-0.5,2.6-0.5,5.2,0.1,7.8l1.6,9c1.1,6.3,2.2,13.3,3.3,20.6c2.2,14.7,4.2,27.9,5.6,37.6
		c0.8,4.8,1.3,8.6,1.8,11.4c0.2,1.3,0.4,2.4,0.5,3.1c0,0.3,0.1,0.6,0.1,0.8c0,0.1,0,0.2,0,0.3c0-0.1-0.1-0.2-0.1-0.3
		c0-0.2-0.1-0.5-0.2-0.8c-0.1-0.7-0.3-1.8-0.6-3.1c-0.5-2.7-1.2-6.5-1.9-11.4c-1.6-9.6-3.6-22.9-5.8-37.5
		c-1.1-7.3-2.2-14.3-3.2-20.6c-0.5-3.2-1-6.2-1.5-9c-0.6-2.6-0.6-5.4,0-8c0.7-2.1,1.8-4,3.2-5.7c1-1.3,1.9-2.7,2.5-4.2
		C634.6,196.4,634.7,195,634.5,193.6z"/>
	<path class="st6" d="M643.6,254.3c0,0.1-1.3,0.5-2.9,1.3c-1.6,0.8-2.7,1.7-2.8,1.5C639.4,255.5,641.4,254.5,643.6,254.3
		L643.6,254.3z"/>
</g>
<g id="freepik--Plant--inject-32">
	<path class="st8" d="M162.9,397.1c2-5.1,4.5-10,7.6-14.5c0.9-1.6,2.3-2.9,3.9-3.7c2.9-1.1,6,0.7,8.5,2.4l5.9,3.9
		c0.4,0.2,0.7,0.5,0.8,0.9c0.1,0.7-0.8,1.2-1.5,1.2c-2.5,0.3-5.1-0.3-7.2-1.8c-1.6-1.1-3.1-2.7-5.1-2.5c-2.4,0.2-3.5,3-4.4,5.3
		c-2,4.8-5.6,8.8-10.1,11.4"/>
	<path class="st8" d="M162.8,398c0.5-11.9,0.9-23.9,3.8-35.4s8.3-22.8,17.2-30.6c-1.2,10-4.8,19.5-8.4,29
		c-4.9,12.7-9.7,25.3-14.6,38"/>
	<path class="st8" d="M160.8,402.4c-1.7-10.8-4.7-21.4-9-31.5c-0.5-1.5-1.4-2.9-2.7-3.9c-2-1.2-4.6-0.4-6.8,0.5
		c-5.2,2.3-10,5.4-14.2,9.1c-0.4,0.3-0.6,0.6-0.8,1.1c0,0.7,0.4,1.3,1.1,1.4c0.7,0.1,1.4,0.1,2-0.1l11.9-2.8
		c1.2-0.4,2.4-0.4,3.6-0.1c1.4,0.5,2.2,2,2.9,3.4l11.7,23.5"/>
	<g class="st9">
		<path d="M162.9,397.1c2-5.1,4.5-10,7.6-14.5c0.9-1.6,2.3-2.9,3.9-3.7c2.9-1.1,6,0.7,8.5,2.4l5.9,3.9c0.4,0.2,0.7,0.5,0.8,0.9
			c0.1,0.7-0.8,1.2-1.5,1.2c-2.5,0.3-5.1-0.3-7.2-1.8c-1.6-1.1-3.1-2.7-5.1-2.5c-2.4,0.2-3.5,3-4.4,5.3c-2,4.8-5.6,8.8-10.1,11.4"/>
	</g>
	<g class="st9">
		<path d="M162.8,398c0.5-11.9,0.9-23.9,3.8-35.4s8.3-22.8,17.2-30.6c-1.2,10-4.8,19.5-8.4,29c-4.9,12.7-9.7,25.3-14.6,38"/>
	</g>
	<g class="st10">
		<path d="M160.8,402.4c-1.7-10.8-4.7-21.4-9-31.5c-0.5-1.5-1.4-2.9-2.7-3.9c-2-1.2-4.6-0.4-6.8,0.5c-5.2,2.3-10,5.4-14.2,9.1
			c-0.4,0.3-0.6,0.6-0.8,1.1c0,0.7,0.4,1.3,1.1,1.4c0.7,0.1,1.4,0.1,2-0.1l11.9-2.8c1.2-0.4,2.4-0.4,3.6-0.1c1.4,0.5,2.2,2,2.9,3.4
			l11.7,23.5"/>
	</g>
	<path class="st8" d="M178.8,312.8c-9.9,11.8-15.7,26.5-16.6,41.9c-1.1,25.3-2.6,43.5-2.6,43.5h2.8c0,0,5.6-51,9.3-59.9
		S181.2,316.7,178.8,312.8z"/>
	<path class="st5" d="M178.8,312.8c-0.1,0.3-0.2,0.6-0.4,0.8l-1.1,2.3c-0.9,2-2.2,4.9-3.6,8.5s-3,8-4.5,13
		c-1.6,5.4-2.9,10.8-3.9,16.3c-0.5,2.9-0.7,5.8-1,8.6s-0.4,5.5-0.5,8.1c-0.3,5.2-0.6,9.8-1.1,13.7s-0.9,7-1.4,9.2
		c-0.2,1.1-0.4,1.9-0.5,2.5c-0.1,0.3-0.1,0.6-0.2,0.8c0-0.3,0.1-0.6,0.1-0.9c0.1-0.6,0.3-1.4,0.4-2.5c0.4-2.1,0.8-5.3,1.2-9.2
		s0.6-8.5,0.9-13.7c0.1-2.6,0.3-5.3,0.5-8.1s0.4-5.7,0.9-8.7c1-5.5,2.3-11,4-16.4c1.5-5,3.1-9.4,4.6-13s2.8-6.5,3.8-8.5
		c0.5-1,0.9-1.7,1.2-2.2C178.5,313.2,178.6,313,178.8,312.8z"/>
	<path class="st8" d="M189.2,336.5c0,0-18.8,18-21,35s-3.2,26-3.2,26h1.9c0,0,4.5-24.2,10.2-31.8S190.5,338.5,189.2,336.5z"/>
	<path class="st5" d="M189,337.6c-0.1,0.2-0.2,0.4-0.3,0.6l-0.9,1.6l-3.3,5.8c-2.8,4.9-6.6,11.7-10,19.5c-3,6.7-5.3,13.7-6.7,20.9
		c-0.5,2.8-0.9,5-1,6.6c-0.1,0.8-0.1,1.4-0.2,1.8c0,0.2,0,0.4-0.1,0.6c0-0.2,0-0.4,0-0.6c0-0.4,0-1,0.1-1.8c0.2-2.2,0.5-4.4,0.9-6.6
		c1.4-7.2,3.6-14.3,6.6-21s6.4-13.2,10.2-19.5c1.4-2.4,2.6-4.4,3.4-5.7l1-1.5C188.8,338,188.9,337.8,189,337.6z"/>
	<path class="st8" d="M152.8,339.6c0,0-2.8,35.5,3.7,56.7h2.2C158.7,396.3,160.2,350.4,152.8,339.6z"/>
	<path class="st5" d="M154.3,346.3c0.1,0.2,0.1,0.3,0.1,0.5l0.1,1.4c0.1,1.3,0.3,3.1,0.5,5.3c0.4,4.5,0.8,10.7,1.3,17.5
		s0.9,13,1.2,17.5c0.1,2.2,0.2,4,0.3,5.3c0,0.6,0,1,0,1.4c0,0.2,0,0.3,0,0.5c-0.1-0.2-0.1-0.3-0.1-0.5l-0.1-1.4
		c-0.1-1.3-0.3-3.1-0.5-5.3c-0.4-4.5-0.8-10.7-1.3-17.5s-0.9-13-1.2-17.5c-0.1-2.2-0.2-4-0.3-5.3c0-0.6,0-1.1-0.1-1.5
		C154.3,346.7,154.3,346.5,154.3,346.3z"/>
	<path class="st5" d="M148.4,394.3c0,0,6.8,4.9,6.5,7.2S138,416,139.1,425.7s8.9,16.3,22.4,15.8s22.6-8.9,21.4-17.5
		s-14.6-22.2-14.8-22.9c-0.4-1.9,6-6.7,6-6.7L148.4,394.3z"/>
	<path class="st4" d="M172.9,406.7c0,0.1-5,0.3-11.1,0.3s-11.1-0.1-11.1-0.3s5-0.3,11.1-0.3S172.9,406.6,172.9,406.7z"/>
	<path class="st4" d="M174.5,409.1c0,0.1-5.9,0.3-13.1,0.3s-13.1-0.1-13.1-0.3s5.9-0.3,13.1-0.3S174.5,408.9,174.5,409.1z"/>
	<path class="st4" d="M176.8,411.7c0,0.1-6.9,0.3-15.5,0.3s-15.5-0.1-15.5-0.3s6.9-0.3,15.5-0.3S176.8,411.5,176.8,411.7z"/>
	<path class="st4" d="M178.9,415.1c0,0.1-8,0.3-17.8,0.3s-17.8-0.1-17.8-0.3s8-0.3,17.8-0.3S178.9,414.9,178.9,415.1z"/>
</g>
<g id="freepik--Box--inject-32">
	<rect x="361.3" y="370.8" class="st2" width="107.4" height="43.6"/>
	<path class="st5" d="M468.7,414.5c0,0,0-0.3,0-0.8s0-1.3,0-2.3c0-2,0-4.9,0-8.7c0-7.5,0-18.4-0.1-31.9l0.1,0.1H361.4l0,0l0.2-0.2
		v43.7l-0.2-0.2l77,0.1h22.3h6l0,0h-6h-22.3l-77.1,0.1h-0.2l0,0c0-13.6,0-28.4,0-43.6v-0.2h0.2h107.4h0.1v0.1c0,13.5,0,24.4-0.1,32
		c0,3.8,0,6.7,0,8.7c0,1,0,1.7,0,2.2S468.7,414.5,468.7,414.5z"/>
	<path class="st5" d="M361.4,376.7c0-0.1,24-0.2,53.6-0.2s53.6,0.1,53.6,0.2s-24,0.2-53.6,0.2S361.4,376.8,361.4,376.7z"/>
	<g class="st10">
		<path class="st5" d="M365.9,374.1c0,0.4-0.4,0.8-0.8,0.8s-0.8-0.3-0.8-0.8c0-0.4,0.4-0.8,0.8-0.8
			C365.6,373.3,365.9,373.7,365.9,374.1z"/>
	</g>
	<g class="st10">
		<path class="st5" d="M368.6,374.1c0,0.4-0.4,0.8-0.8,0.8s-0.8-0.3-0.8-0.8c0-0.4,0.4-0.8,0.8-0.8
			C368.2,373.3,368.6,373.7,368.6,374.1z"/>
	</g>
	<g class="st10">
		<path class="st5" d="M371.2,374.1c0,0.4-0.4,0.8-0.8,0.8s-0.8-0.3-0.8-0.8c0-0.4,0.4-0.8,0.8-0.8
			C370.9,373.3,371.2,373.7,371.2,374.1z"/>
	</g>
	<rect x="370.4" y="383.8" class="st6" width="25.9" height="25.9"/>
	<path class="st5" d="M461.3,390.8c0,0.1-13.4,0.2-29.8,0.2s-29.8-0.1-29.8-0.2s13.4-0.2,29.8-0.2S461.3,390.7,461.3,390.8z"/>
	<path class="st5" d="M461.3,396c0,0.1-13.4,0.2-29.8,0.2s-29.8-0.1-29.8-0.2s13.4-0.2,29.8-0.2S461.3,396,461.3,396z"/>
	<path class="st5" d="M440,401.3h-0.4h-1.1l-4.1,0.1h-13.6h-13.6l-4.1-0.1H402h-0.4c0.1,0,0.3,0,0.4,0h1.1h4.1h13.6h13.6h4.1h1.1
		C439.7,401.3,439.9,401.3,440,401.3z"/>
	<rect x="440.4" y="400.2" class="st8" width="46" height="41.3"/>
	<g class="st12">
		<rect x="440.4" y="400.2" width="46" height="41.3"/>
	</g>
	<rect x="351.3" y="367.2" class="st2" width="107.4" height="43.6"/>
	<path class="st5" d="M458.7,410.8c0,0,0-0.3,0-0.8s0-1.3,0-2.3c0-2,0-4.9,0-8.7c0-7.5,0-18.4-0.1-31.9l0.1,0.1H351.3l0,0l0.2-0.2
		c0,15.3,0,30,0,43.6l-0.2-0.2l77,0.1h22.3h6l0,0h-5.9h-22.3l-77.1,0.1h-0.2V367h0.2h107.4h0.1v0.1c0,13.5,0,24.4-0.1,32
		c0,3.8,0,6.7,0,8.6c0,1,0,1.7,0,2.2S458.7,410.8,458.7,410.8z"/>
	<path class="st5" d="M351.4,373.1c0-0.1,24-0.2,53.6-0.2s53.6,0.1,53.6,0.2s-24,0.2-53.6,0.2S351.4,373.2,351.4,373.1z"/>
	<g class="st10">
		<circle class="st5" cx="355.1" cy="370.4" r="0.8"/>
	</g>
	<g class="st10">
		<path class="st5" d="M358.6,370.5c0,0.4-0.3,0.8-0.8,0.8s-0.8-0.3-0.8-0.8s0.3-0.8,0.8-0.8l0,0C358.2,369.7,358.6,370,358.6,370.5
			z"/>
	</g>
	<g class="st10">
		<path class="st5" d="M361.2,370.5c0,0.4-0.3,0.8-0.8,0.8s-0.8-0.3-0.8-0.8s0.3-0.8,0.8-0.8l0,0C360.9,369.7,361.2,370,361.2,370.5
			z"/>
	</g>
	<rect x="360.4" y="380.2" class="st6" width="25.9" height="25.9"/>
	<path class="st5" d="M451.3,387.1c0,0.1-13.4,0.2-29.8,0.2s-29.8-0.1-29.8-0.2s13.3-0.2,29.8-0.2S451.3,387,451.3,387.1z"/>
	<path class="st5" d="M451.3,392.4c0,0.1-13.4,0.2-29.8,0.2s-29.8-0.1-29.8-0.2s13.3-0.2,29.8-0.2S451.3,392.3,451.3,392.4z"/>
	<path class="st5" d="M430,397.7h-0.4h-1.1h-4.1h-13.6h-13.6h-4.1H392c-0.1,0-0.3,0-0.4,0h0.4h1.1h4.1h13.6h13.6h4.1h1.1H430z"/>
	<rect x="344" y="376.2" class="st2" width="107.4" height="43.6"/>
	<path class="st5" d="M451.4,419.9c0,0,0-0.3,0-0.8s0-1.3,0-2.3c0-2,0-4.9,0-8.7c0-7.5,0-18.4-0.1-31.9l0.1,0.1H344l0,0l0.2-0.2
		c0,15.3,0,30,0,43.6l-0.2-0.2l77,0.1h22.3h6l0,0h-5.9h-22.3l-77.1,0.1h-0.2v-0.2c0-13.6,0-28.4,0-43.6v0.1h0.2h107.4h0.1v0.1
		c0,13.5,0,24.4-0.1,32c0,3.8,0,6.7,0,8.6c0,1,0,1.7,0,2.2S451.4,419.9,451.4,419.9z"/>
	<path class="st5" d="M344.1,382.1c0-0.1,24-0.2,53.6-0.2s53.6,0.1,53.6,0.2s-24,0.2-53.6,0.2S344.1,382.2,344.1,382.1z"/>
	<g class="st10">
		<path class="st5" d="M348.6,379.5c0,0.4-0.3,0.8-0.8,0.8s-0.8-0.3-0.8-0.8s0.3-0.8,0.8-0.8l0,0C348.3,378.7,348.6,379,348.6,379.5
			z"/>
	</g>
	<g class="st10">
		<circle class="st5" cx="350.5" cy="379.5" r="0.8"/>
	</g>
	<g class="st10">
		<path class="st5" d="M353.9,379.5c0,0.4-0.3,0.8-0.8,0.8s-0.8-0.3-0.8-0.8s0.3-0.8,0.8-0.8l0,0C353.6,378.7,353.9,379,353.9,379.5
			L353.9,379.5z"/>
	</g>
	<rect x="353.1" y="389.2" class="st6" width="25.9" height="25.9"/>
	<path class="st5" d="M444,396.2c0,0.1-13.4,0.2-29.8,0.2s-29.8-0.1-29.8-0.2s13.3-0.2,29.8-0.2S444,396.1,444,396.2z"/>
	<path class="st5" d="M444,401.5c0,0.1-13.4,0.2-29.8,0.2s-29.8-0.1-29.8-0.2s13.3-0.2,29.8-0.2S444,401.4,444,401.5z"/>
	<path class="st5" d="M422.7,406.7h-0.4h-1.1h-4.1h-13.6H390h-4.1h-1.1h-0.4h0.4h1.1h4.1h13.6h13.6h4.1h1.1H422.7z"/>
	<path class="st8" d="M333.3,400.2v41.3H463v-41.3H333.3z M402.7,416.5h-19.6c-2.3,0-4.2-1.9-4.2-4.2c0-2.3,1.9-4.2,4.2-4.2h19.6
		c2.3,0,4.2,1.9,4.2,4.2C406.9,414.6,405,416.5,402.7,416.5z"/>
</g>
<g id="freepik--Chart--inject-32">
	<path class="st8" d="M250,350.2c-3.2,0-5.8-2.6-5.8-5.8c0-3.2,2.6-5.8,5.8-5.8s5.8,2.6,5.8,5.8l0,0
		C255.8,347.6,253.2,350.2,250,350.2L250,350.2z"/>
	
		<ellipse transform="matrix(0.2745 -0.9616 0.9616 0.2745 -354.9525 375.3154)" class="st8" cx="71.2" cy="422.9" rx="5.8" ry="5.8"/>
	<circle class="st8" cx="364" cy="171.6" r="5.8"/>
	<circle class="st8" cx="448.2" cy="260" r="5.8"/>
	<circle class="st8" cx="547.5" cy="74.7" r="5.8"/>
	<circle class="st8" cx="161.4" cy="278" r="5.8"/>
	<path class="st8" d="M547.5,74.7l-0.5,0.9l-1.4,2.6c-1.2,2.3-3,5.7-5.3,10.1l-20.3,38c-17.5,32.8-42.6,79.5-72.5,135.4l-0.1,0.3
		l-0.2-0.2l-84.6-90.4h0.4L320.2,237l-71.4,109.5l-0.1,0.2l-0.2-0.2l-87-69.6h0.3L95.7,383.2l-18.3,29.4c-2.1,3.4-3.7,6-4.8,7.7
		l-1.7,2.6c0,0,0.5-0.9,1.6-2.7l4.8-7.7c4.2-6.8,10.3-16.8,18.2-29.5l65.9-106.5l0.1-0.2l0.2,0.1l87.1,69.6l-0.4,0.1l71.4-109.5
		l42.8-65.6l0.2-0.3l0.2,0.2l84.5,90.5h-0.4c30-55.8,55-102.5,72.6-135.3l20.5-38l5.4-10c0.6-1.1,1.1-2,1.4-2.6
		S547.5,74.7,547.5,74.7z"/>
</g>
<g id="freepik--speech-bubble--inject-32">
	<path class="st8" d="M347.8,97.9c0-0.1,30.7-0.2,68.6-0.2s68.6,0.1,68.6,0.2s-30.7,0.2-68.6,0.2S347.8,98,347.8,97.9z"/>
	<g class="st10">
		<path class="st8" d="M353.5,94.5c0,0.6-0.4,1-1,1s-1-0.4-1-1s0.4-1,1-1S353.5,94,353.5,94.5z"/>
	</g>
	<g class="st10">
		<path class="st8" d="M356.9,94.5c0,0.6-0.4,1-1,1s-1-0.4-1-1s0.4-1,1-1S356.9,94,356.9,94.5z"/>
	</g>
	<g class="st10">
		<path class="st8" d="M360.3,94.5c0,0.6-0.4,1-1,1s-1-0.4-1-1s0.4-1,1-1S360.3,94,360.3,94.5z"/>
	</g>
	<g class="st10">
		<rect x="359.3" y="107" class="st8" width="33.2" height="33.2"/>
	</g>
	<path class="st8" d="M475.5,115.8c0,0.1-17.1,0.2-38.1,0.2s-38.1-0.1-38.1-0.2s17.1-0.2,38.1-0.2S475.5,115.7,475.5,115.8z"/>
	<path class="st8" d="M475.5,122.6c0,0.1-17.1,0.2-38.1,0.2s-38.1-0.1-38.1-0.2s17.1-0.2,38.1-0.2S475.5,122.5,475.5,122.6z"/>
	<path class="st8" d="M448.3,129.4c-0.2,0-0.3,0-0.5,0h-1.4l-5.3,0.1l-17.4,0.1h-17.3l-5.3-0.1h-1.4c-0.2,0-0.3,0-0.5,0
		c0.2,0,0.3,0,0.5,0h1.4l5.3-0.1l17.4-0.1l17.4,0.1l5.3,0.1h1.4C448,129.4,448.2,129.4,448.3,129.4z"/>
	<path class="st8" d="M425.3,146.3h-0.8h-2.3l-9-0.1l-33.7-0.4h0.1l-16.4,15.7l-0.3,0.3v-0.5c0-4.7,0-9.8,0-15.1l0.2,0.2h-15.5
		l-0.1-0.1l-0.2-0.2l-0.1-0.1v-0.1c0-17,0-35.9,0-56v-0.2h49.3l88.7,0.1h0.2V90c-0.1,20.9-0.1,39.8-0.2,56v0.2H485h-43.7h-11.9h-3.1
		C425.6,146.4,425.3,146.4,425.3,146.3l1,0.1h3.1l11.9-0.1l43.7-0.2l-0.2,0.2c0-16.2,0.1-35,0.1-55.9l0.2,0.2h-88.7h-49l0.3-0.2
		c0,20.1,0,39,0,56l-0.1-0.2l0.2,0.2l-0.2-0.1h15.6v0.2c0,5.3,0,10.3,0,15.1l-0.3-0.1l16.4-15.7v-0.1h0.1l33.7,0.5l9,0.2l2.3,0.1
		L425.3,146.3z"/>
</g>
<g class="st13">
	<path class="st8" d="M212.2,50.3V36h4.9c1.1,0,2,0.1,2.6,0.2c0.8,0.2,1.5,0.5,2.1,1c0.8,0.6,1.3,1.5,1.7,2.5c0.4,1,0.6,2.1,0.6,3.4
		c0,1.1-0.1,2.1-0.4,2.9c-0.3,0.8-0.6,1.5-1,2.1c-0.4,0.6-0.8,1-1.3,1.3c-0.5,0.3-1,0.6-1.7,0.7s-1.4,0.2-2.3,0.2H212.2z
		 M214.1,48.6h3.1c0.9,0,1.7-0.1,2.2-0.3c0.5-0.2,1-0.4,1.3-0.7c0.5-0.5,0.8-1.1,1.1-1.8s0.4-1.7,0.4-2.8c0-1.5-0.2-2.7-0.7-3.5
		c-0.5-0.8-1.1-1.3-1.8-1.6c-0.5-0.2-1.3-0.3-2.5-0.3h-3V48.6z"/>
	<path class="st8" d="M225.8,45.1c0-1.9,0.5-3.4,1.6-4.3c0.9-0.8,2-1.2,3.3-1.2c1.4,0,2.6,0.5,3.5,1.4c0.9,0.9,1.4,2.2,1.4,3.9
		c0,1.3-0.2,2.4-0.6,3.2c-0.4,0.8-1,1.4-1.8,1.8c-0.8,0.4-1.6,0.6-2.5,0.6c-1.5,0-2.6-0.5-3.5-1.4C226.2,48.2,225.8,46.9,225.8,45.1
		z M227.6,45.1c0,1.3,0.3,2.3,0.9,3c0.6,0.7,1.3,1,2.2,1c0.9,0,1.6-0.3,2.2-1c0.6-0.7,0.9-1.7,0.9-3c0-1.3-0.3-2.3-0.9-2.9
		c-0.6-0.7-1.3-1-2.2-1c-0.9,0-1.6,0.3-2.2,1C227.9,42.8,227.6,43.8,227.6,45.1z"/>
	<path class="st8" d="M243.2,38v-2h1.8v2H243.2z M243.2,50.3V39.9h1.8v10.4H243.2z"/>
	<path class="st8" d="M251.5,48.7l0.3,1.6c-0.5,0.1-0.9,0.2-1.3,0.2c-0.6,0-1.1-0.1-1.5-0.3s-0.6-0.5-0.7-0.8
		c-0.1-0.3-0.2-1-0.2-2.1v-6h-1.3v-1.4h1.3v-2.6l1.8-1.1v3.6h1.8v1.4h-1.8v6.1c0,0.5,0,0.8,0.1,1s0.2,0.3,0.3,0.3
		c0.1,0.1,0.3,0.1,0.6,0.1C250.9,48.8,251.2,48.8,251.5,48.7z"/>
	<path class="st8" d="M258.8,50.3V39.9h1.6v1.5c0.8-1.1,1.9-1.7,3.3-1.7c0.6,0,1.2,0.1,1.7,0.3c0.5,0.2,0.9,0.5,1.2,0.9
		c0.3,0.4,0.4,0.8,0.5,1.3c0.1,0.3,0.1,0.9,0.1,1.7v6.4h-1.8V44c0-0.7-0.1-1.3-0.2-1.6s-0.4-0.6-0.7-0.9c-0.3-0.2-0.8-0.3-1.2-0.3
		c-0.8,0-1.4,0.2-1.9,0.7c-0.5,0.5-0.8,1.4-0.8,2.7v5.7H258.8z"/>
	<path class="st8" d="M269.3,45.1c0-1.9,0.5-3.4,1.6-4.3c0.9-0.8,2-1.2,3.3-1.2c1.4,0,2.6,0.5,3.5,1.4c0.9,0.9,1.4,2.2,1.4,3.9
		c0,1.3-0.2,2.4-0.6,3.2c-0.4,0.8-1,1.4-1.8,1.8c-0.8,0.4-1.6,0.6-2.5,0.6c-1.5,0-2.6-0.5-3.5-1.4C269.7,48.2,269.3,46.9,269.3,45.1
		z M271.1,45.1c0,1.3,0.3,2.3,0.9,3c0.6,0.7,1.3,1,2.2,1c0.9,0,1.6-0.3,2.2-1c0.6-0.7,0.9-1.7,0.9-3c0-1.3-0.3-2.3-0.9-2.9
		c-0.6-0.7-1.3-1-2.2-1c-0.9,0-1.6,0.3-2.2,1C271.4,42.8,271.1,43.8,271.1,45.1z"/>
	<path class="st8" d="M283,50.3l-3.2-10.4h1.8l1.7,6l0.6,2.2c0-0.1,0.2-0.8,0.5-2.1l1.7-6.1h1.8l1.6,6l0.5,2l0.6-2l1.8-6h1.7
		l-3.3,10.4H289l-1.7-6.2l-0.4-1.8l-2.1,8H283z"/>
	<path class="st8" d="M294.9,50.3v-2h2v2c0,0.7-0.1,1.3-0.4,1.8c-0.3,0.5-0.7,0.8-1.2,1.1l-0.5-0.8c0.4-0.2,0.6-0.4,0.8-0.7
		c0.2-0.3,0.3-0.8,0.3-1.4H294.9z"/>
	<path class="st8" d="M304.9,47.2l1.7-0.3c0.1,0.7,0.4,1.2,0.8,1.6s1.1,0.6,1.9,0.6c0.8,0,1.4-0.2,1.8-0.5c0.4-0.3,0.6-0.7,0.6-1.2
		c0-0.4-0.2-0.7-0.5-0.9c-0.2-0.2-0.8-0.4-1.8-0.6c-1.3-0.3-2.2-0.6-2.7-0.8s-0.9-0.6-1.1-1c-0.3-0.4-0.4-0.9-0.4-1.4
		c0-0.5,0.1-0.9,0.3-1.3c0.2-0.4,0.5-0.7,0.9-1c0.3-0.2,0.6-0.4,1.1-0.5c0.5-0.1,1-0.2,1.5-0.2c0.8,0,1.5,0.1,2.1,0.4
		c0.6,0.2,1.1,0.6,1.4,1c0.3,0.4,0.5,0.9,0.6,1.6l-1.7,0.2c-0.1-0.5-0.3-1-0.7-1.3c-0.4-0.3-0.9-0.5-1.6-0.5c-0.8,0-1.4,0.1-1.7,0.4
		c-0.3,0.3-0.5,0.6-0.5,0.9c0,0.2,0.1,0.4,0.2,0.6c0.1,0.2,0.4,0.3,0.7,0.5c0.2,0.1,0.7,0.2,1.6,0.5c1.2,0.3,2.1,0.6,2.6,0.8
		c0.5,0.2,0.9,0.5,1.2,0.9s0.4,0.9,0.4,1.5c0,0.6-0.2,1.1-0.5,1.7s-0.8,0.9-1.5,1.2s-1.4,0.4-2.2,0.4c-1.4,0-2.4-0.3-3.1-0.8
		C305.5,49.1,305.1,48.3,304.9,47.2z"/>
	<path class="st8" d="M315,45.1c0-1.9,0.5-3.4,1.6-4.3c0.9-0.8,2-1.2,3.3-1.2c1.4,0,2.6,0.5,3.5,1.4c0.9,0.9,1.4,2.2,1.4,3.9
		c0,1.3-0.2,2.4-0.6,3.2c-0.4,0.8-1,1.4-1.8,1.8c-0.8,0.4-1.6,0.6-2.5,0.6c-1.5,0-2.6-0.5-3.5-1.4C315.4,48.2,315,46.9,315,45.1z
		 M316.8,45.1c0,1.3,0.3,2.3,0.9,3c0.6,0.7,1.3,1,2.2,1c0.9,0,1.6-0.3,2.2-1c0.6-0.7,0.9-1.7,0.9-3c0-1.3-0.3-2.3-0.9-2.9
		c-0.6-0.7-1.3-1-2.2-1c-0.9,0-1.6,0.3-2.2,1C317.1,42.8,316.8,43.8,316.8,45.1z"/>
	<path class="st8" d="M326.8,50.3V39.9h1.6v1.5c0.3-0.5,0.8-0.9,1.3-1.2s1.2-0.5,1.9-0.5c0.8,0,1.4,0.2,1.9,0.5
		c0.5,0.3,0.8,0.8,1,1.3c0.8-1.2,1.9-1.8,3.2-1.8c1,0,1.8,0.3,2.4,0.9c0.6,0.6,0.8,1.5,0.8,2.6v7.1h-1.8v-6.6c0-0.7-0.1-1.2-0.2-1.5
		c-0.1-0.3-0.3-0.6-0.6-0.7s-0.7-0.3-1.1-0.3c-0.7,0-1.3,0.2-1.8,0.7c-0.5,0.5-0.7,1.3-0.7,2.3v6H333v-6.8c0-0.8-0.1-1.4-0.4-1.8
		c-0.3-0.4-0.8-0.6-1.4-0.6c-0.5,0-1,0.1-1.4,0.4c-0.4,0.3-0.7,0.6-0.9,1.1c-0.2,0.5-0.3,1.2-0.3,2.2v5.4H326.8z"/>
	<path class="st8" d="M350.6,47l1.8,0.2c-0.3,1.1-0.8,1.9-1.6,2.5c-0.8,0.6-1.8,0.9-3,0.9c-1.5,0-2.7-0.5-3.6-1.4
		c-0.9-0.9-1.3-2.3-1.3-3.9c0-1.7,0.5-3.1,1.4-4.1s2.1-1.4,3.5-1.4c1.4,0,2.5,0.5,3.4,1.4s1.3,2.3,1.3,4c0,0.1,0,0.3,0,0.5h-7.8
		c0.1,1.1,0.4,2,1,2.6c0.6,0.6,1.3,0.9,2.2,0.9c0.6,0,1.2-0.2,1.7-0.5C350,48.2,350.3,47.7,350.6,47z M344.8,44.1h5.8
		c-0.1-0.9-0.3-1.5-0.7-2c-0.6-0.7-1.3-1-2.2-1c-0.8,0-1.5,0.3-2,0.8C345.2,42.5,344.9,43.2,344.8,44.1z"/>
	<path class="st8" d="M358.5,48.7l0.3,1.6c-0.5,0.1-0.9,0.2-1.3,0.2c-0.6,0-1.1-0.1-1.5-0.3s-0.6-0.5-0.7-0.8
		c-0.1-0.3-0.2-1-0.2-2.1v-6h-1.3v-1.4h1.3v-2.6l1.8-1.1v3.6h1.8v1.4h-1.8v6.1c0,0.5,0,0.8,0.1,1s0.2,0.3,0.3,0.3
		c0.1,0.1,0.3,0.1,0.6,0.1C357.9,48.8,358.2,48.8,358.5,48.7z"/>
	<path class="st8" d="M360.2,38v-2h1.8v2H360.2z M360.2,50.3V39.9h1.8v10.4H360.2z"/>
	<path class="st8" d="M364.7,50.3V39.9h1.6v1.5c0.3-0.5,0.8-0.9,1.3-1.2s1.2-0.5,1.9-0.5c0.8,0,1.4,0.2,1.9,0.5
		c0.5,0.3,0.8,0.8,1,1.3c0.8-1.2,1.9-1.8,3.2-1.8c1,0,1.8,0.3,2.4,0.9c0.6,0.6,0.8,1.5,0.8,2.6v7.1H377v-6.6c0-0.7-0.1-1.2-0.2-1.5
		c-0.1-0.3-0.3-0.6-0.6-0.7c-0.3-0.2-0.7-0.3-1.1-0.3c-0.7,0-1.3,0.2-1.8,0.7c-0.5,0.5-0.7,1.3-0.7,2.3v6h-1.8v-6.8
		c0-0.8-0.1-1.4-0.4-1.8c-0.3-0.4-0.8-0.6-1.4-0.6c-0.5,0-1,0.1-1.4,0.4c-0.4,0.3-0.7,0.6-0.9,1.1c-0.2,0.5-0.3,1.2-0.3,2.2v5.4
		H364.7z"/>
	<path class="st8" d="M388.5,47l1.8,0.2c-0.3,1.1-0.8,1.9-1.6,2.5c-0.8,0.6-1.8,0.9-3,0.9c-1.5,0-2.7-0.5-3.6-1.4
		c-0.9-0.9-1.3-2.3-1.3-3.9c0-1.7,0.5-3.1,1.4-4.1s2.1-1.4,3.5-1.4c1.4,0,2.5,0.5,3.4,1.4s1.3,2.3,1.3,4c0,0.1,0,0.3,0,0.5h-7.8
		c0.1,1.1,0.4,2,1,2.6c0.6,0.6,1.3,0.9,2.2,0.9c0.6,0,1.2-0.2,1.7-0.5S388.2,47.7,388.5,47z M382.7,44.1h5.8c-0.1-0.9-0.3-1.5-0.7-2
		c-0.6-0.7-1.3-1-2.2-1c-0.8,0-1.5,0.3-2,0.8S382.8,43.2,382.7,44.1z"/>
	<path class="st8" d="M391.8,47.2l1.7-0.3c0.1,0.7,0.4,1.2,0.8,1.6s1.1,0.6,1.9,0.6c0.8,0,1.4-0.2,1.8-0.5s0.6-0.7,0.6-1.2
		c0-0.4-0.2-0.7-0.5-0.9c-0.2-0.2-0.8-0.4-1.8-0.6c-1.3-0.3-2.2-0.6-2.7-0.8s-0.9-0.6-1.1-1c-0.3-0.4-0.4-0.9-0.4-1.4
		c0-0.5,0.1-0.9,0.3-1.3c0.2-0.4,0.5-0.7,0.9-1c0.3-0.2,0.6-0.4,1.1-0.5c0.5-0.1,1-0.2,1.5-0.2c0.8,0,1.5,0.1,2.1,0.4
		c0.6,0.2,1.1,0.6,1.4,1s0.5,0.9,0.6,1.6l-1.7,0.2c-0.1-0.5-0.3-1-0.7-1.3c-0.4-0.3-0.9-0.5-1.6-0.5c-0.8,0-1.4,0.1-1.7,0.4
		c-0.3,0.3-0.5,0.6-0.5,0.9c0,0.2,0.1,0.4,0.2,0.6c0.1,0.2,0.4,0.3,0.7,0.5c0.2,0.1,0.7,0.2,1.6,0.5c1.2,0.3,2.1,0.6,2.6,0.8
		c0.5,0.2,0.9,0.5,1.2,0.9c0.3,0.4,0.4,0.9,0.4,1.5c0,0.6-0.2,1.1-0.5,1.7s-0.8,0.9-1.5,1.2s-1.4,0.4-2.2,0.4
		c-1.4,0-2.4-0.3-3.1-0.8C392.5,49.1,392,48.3,391.8,47.2z"/>
	<path class="st8" d="M408.1,50.3V36h1.8v14.4H408.1z"/>
	<path class="st8" d="M419.4,49c-0.7,0.6-1.3,0.9-1.9,1.2s-1.3,0.3-1.9,0.3c-1.1,0-2-0.3-2.6-0.8c-0.6-0.6-0.9-1.3-0.9-2.1
		c0-0.5,0.1-1,0.3-1.4c0.2-0.4,0.5-0.8,0.9-1c0.4-0.3,0.8-0.4,1.3-0.6c0.3-0.1,0.9-0.2,1.6-0.3c1.4-0.2,2.5-0.4,3.1-0.6
		c0-0.2,0-0.4,0-0.5c0-0.7-0.2-1.2-0.5-1.5c-0.5-0.4-1.1-0.6-2-0.6c-0.8,0-1.4,0.1-1.8,0.4c-0.4,0.3-0.7,0.8-0.9,1.5l-1.7-0.2
		c0.2-0.7,0.4-1.3,0.8-1.8s0.9-0.8,1.6-1c0.7-0.2,1.5-0.4,2.4-0.4c0.9,0,1.6,0.1,2.2,0.3c0.6,0.2,1,0.5,1.2,0.8
		c0.3,0.3,0.4,0.7,0.5,1.2c0.1,0.3,0.1,0.8,0.1,1.6V46c0,1.6,0,2.7,0.1,3.1c0.1,0.4,0.2,0.9,0.4,1.2h-1.8
		C419.6,49.9,419.4,49.5,419.4,49z M419.2,45.1c-0.6,0.3-1.6,0.5-2.9,0.7c-0.7,0.1-1.2,0.2-1.5,0.4c-0.3,0.1-0.5,0.3-0.7,0.6
		s-0.2,0.5-0.2,0.8c0,0.5,0.2,0.9,0.5,1.2c0.4,0.3,0.9,0.5,1.6,0.5c0.7,0,1.3-0.1,1.8-0.4c0.5-0.3,0.9-0.7,1.2-1.2
		c0.2-0.4,0.3-1,0.3-1.8V45.1z"/>
	<path class="st8" d="M427.6,48.7l0.3,1.6c-0.5,0.1-0.9,0.2-1.3,0.2c-0.6,0-1.1-0.1-1.5-0.3s-0.6-0.5-0.7-0.8
		c-0.1-0.3-0.2-1-0.2-2.1v-6h-1.3v-1.4h1.3v-2.6l1.8-1.1v3.6h1.8v1.4h-1.8v6.1c0,0.5,0,0.8,0.1,1s0.2,0.3,0.3,0.3
		c0.1,0.1,0.3,0.1,0.6,0.1C427,48.8,427.3,48.8,427.6,48.7z"/>
	<path class="st8" d="M436.4,47l1.8,0.2c-0.3,1.1-0.8,1.9-1.6,2.5c-0.8,0.6-1.8,0.9-3,0.9c-1.5,0-2.7-0.5-3.6-1.4
		c-0.9-0.9-1.3-2.3-1.3-3.9c0-1.7,0.5-3.1,1.4-4.1s2.1-1.4,3.5-1.4c1.4,0,2.5,0.5,3.4,1.4s1.3,2.3,1.3,4c0,0.1,0,0.3,0,0.5h-7.8
		c0.1,1.1,0.4,2,1,2.6c0.6,0.6,1.3,0.9,2.2,0.9c0.6,0,1.2-0.2,1.7-0.5S436.2,47.7,436.4,47z M430.7,44.1h5.8c-0.1-0.9-0.3-1.5-0.7-2
		c-0.6-0.7-1.3-1-2.2-1c-0.8,0-1.5,0.3-2,0.8S430.7,43.2,430.7,44.1z"/>
	<path class="st8" d="M440.5,50.3V39.9h1.6v1.6c0.4-0.7,0.8-1.2,1.1-1.5c0.3-0.2,0.7-0.4,1.1-0.4c0.6,0,1.2,0.2,1.8,0.6l-0.6,1.6
		c-0.4-0.3-0.9-0.4-1.3-0.4c-0.4,0-0.7,0.1-1,0.3c-0.3,0.2-0.5,0.6-0.7,1c-0.2,0.6-0.3,1.3-0.3,2.1v5.4H440.5z"/>
	<path class="st8" d="M454.4,50.3h-1.6V36h1.8v5.1c0.7-0.9,1.7-1.4,2.8-1.4c0.6,0,1.2,0.1,1.8,0.4s1,0.6,1.4,1.1
		c0.4,0.5,0.7,1,0.9,1.7c0.2,0.7,0.3,1.4,0.3,2.1c0,1.8-0.4,3.2-1.3,4.1c-0.9,1-1.9,1.5-3.2,1.5c-1.2,0-2.2-0.5-2.9-1.5V50.3z
		 M454.3,45c0,1.2,0.2,2.1,0.5,2.7c0.6,0.9,1.3,1.4,2.3,1.4c0.8,0,1.4-0.3,2-1c0.6-0.7,0.8-1.7,0.8-3c0-1.4-0.3-2.4-0.8-3
		c-0.5-0.6-1.2-1-2-1c-0.8,0-1.4,0.3-2,1C454.6,42.8,454.3,43.8,454.3,45z"/>
	<path class="st8" d="M471,47l1.8,0.2c-0.3,1.1-0.8,1.9-1.6,2.5c-0.8,0.6-1.8,0.9-3,0.9c-1.5,0-2.7-0.5-3.6-1.4
		c-0.9-0.9-1.3-2.3-1.3-3.9c0-1.7,0.5-3.1,1.4-4.1s2.1-1.4,3.5-1.4c1.4,0,2.5,0.5,3.4,1.4s1.3,2.3,1.3,4c0,0.1,0,0.3,0,0.5h-7.8
		c0.1,1.1,0.4,2,1,2.6c0.6,0.6,1.3,0.9,2.2,0.9c0.6,0,1.2-0.2,1.7-0.5S470.7,47.7,471,47z M465.2,44.1h5.8c-0.1-0.9-0.3-1.5-0.7-2
		c-0.6-0.7-1.3-1-2.2-1c-0.8,0-1.5,0.3-2,0.8S465.3,43.2,465.2,44.1z"/>
	<path class="st8" d="M481.8,46.5l1.7,0.2c-0.2,1.2-0.7,2.1-1.5,2.8c-0.8,0.7-1.7,1-2.9,1c-1.4,0-2.6-0.5-3.4-1.4
		c-0.9-0.9-1.3-2.3-1.3-4c0-1.1,0.2-2.1,0.6-2.9s0.9-1.5,1.7-1.9c0.8-0.4,1.6-0.6,2.5-0.6c1.1,0,2.1,0.3,2.8,0.9
		c0.7,0.6,1.2,1.4,1.4,2.4l-1.7,0.3c-0.2-0.7-0.5-1.2-0.9-1.6c-0.4-0.4-0.9-0.5-1.5-0.5c-0.9,0-1.6,0.3-2.2,1
		c-0.6,0.6-0.8,1.6-0.8,3c0,1.4,0.3,2.4,0.8,3c0.5,0.6,1.2,1,2.1,1c0.7,0,1.3-0.2,1.7-0.6C481.4,48,481.7,47.4,481.8,46.5z"/>
	<path class="st8" d="M484.4,45.1c0-1.9,0.5-3.4,1.6-4.3c0.9-0.8,2-1.2,3.3-1.2c1.4,0,2.6,0.5,3.5,1.4c0.9,0.9,1.4,2.2,1.4,3.9
		c0,1.3-0.2,2.4-0.6,3.2c-0.4,0.8-1,1.4-1.8,1.8c-0.8,0.4-1.6,0.6-2.5,0.6c-1.5,0-2.6-0.5-3.5-1.4C484.9,48.2,484.4,46.9,484.4,45.1
		z M486.2,45.1c0,1.3,0.3,2.3,0.9,3c0.6,0.7,1.3,1,2.2,1c0.9,0,1.6-0.3,2.2-1s0.9-1.7,0.9-3c0-1.3-0.3-2.3-0.9-2.9
		c-0.6-0.7-1.3-1-2.2-1c-0.9,0-1.6,0.3-2.2,1C486.5,42.8,486.2,43.8,486.2,45.1z"/>
	<path class="st8" d="M496.2,50.3V39.9h1.6v1.5c0.3-0.5,0.8-0.9,1.3-1.2s1.2-0.5,1.9-0.5c0.8,0,1.4,0.2,1.9,0.5
		c0.5,0.3,0.8,0.8,1,1.3c0.8-1.2,1.9-1.8,3.2-1.8c1,0,1.8,0.3,2.4,0.9c0.6,0.6,0.8,1.5,0.8,2.6v7.1h-1.8v-6.6c0-0.7-0.1-1.2-0.2-1.5
		c-0.1-0.3-0.3-0.6-0.6-0.7c-0.3-0.2-0.7-0.3-1.1-0.3c-0.7,0-1.3,0.2-1.8,0.7s-0.7,1.3-0.7,2.3v6h-1.8v-6.8c0-0.8-0.1-1.4-0.4-1.8
		c-0.3-0.4-0.8-0.6-1.4-0.6c-0.5,0-1,0.1-1.4,0.4c-0.4,0.3-0.7,0.6-0.9,1.1c-0.2,0.5-0.3,1.2-0.3,2.2v5.4H496.2z"/>
	<path class="st8" d="M520,47l1.8,0.2c-0.3,1.1-0.8,1.9-1.6,2.5c-0.8,0.6-1.8,0.9-3,0.9c-1.5,0-2.7-0.5-3.6-1.4
		c-0.9-0.9-1.3-2.3-1.3-3.9c0-1.7,0.5-3.1,1.4-4.1s2.1-1.4,3.5-1.4c1.4,0,2.5,0.5,3.4,1.4s1.3,2.3,1.3,4c0,0.1,0,0.3,0,0.5h-7.8
		c0.1,1.1,0.4,2,1,2.6c0.6,0.6,1.3,0.9,2.2,0.9c0.6,0,1.2-0.2,1.7-0.5S519.8,47.7,520,47z M514.3,44.1h5.8c-0.1-0.9-0.3-1.5-0.7-2
		c-0.6-0.7-1.3-1-2.2-1c-0.8,0-1.5,0.3-2,0.8S514.3,43.2,514.3,44.1z"/>
	<path class="st8" d="M523.4,47.2l1.7-0.3c0.1,0.7,0.4,1.2,0.8,1.6s1.1,0.6,1.9,0.6c0.8,0,1.4-0.2,1.8-0.5s0.6-0.7,0.6-1.2
		c0-0.4-0.2-0.7-0.5-0.9c-0.2-0.2-0.8-0.4-1.8-0.6c-1.3-0.3-2.2-0.6-2.7-0.8s-0.9-0.6-1.1-1c-0.3-0.4-0.4-0.9-0.4-1.4
		c0-0.5,0.1-0.9,0.3-1.3c0.2-0.4,0.5-0.7,0.9-1c0.3-0.2,0.6-0.4,1.1-0.5c0.5-0.1,1-0.2,1.5-0.2c0.8,0,1.5,0.1,2.1,0.4
		c0.6,0.2,1.1,0.6,1.4,1s0.5,0.9,0.6,1.6l-1.7,0.2c-0.1-0.5-0.3-1-0.7-1.3c-0.4-0.3-0.9-0.5-1.6-0.5c-0.8,0-1.4,0.1-1.7,0.4
		c-0.3,0.3-0.5,0.6-0.5,0.9c0,0.2,0.1,0.4,0.2,0.6c0.1,0.2,0.4,0.3,0.7,0.5c0.2,0.1,0.7,0.2,1.6,0.5c1.2,0.3,2.1,0.6,2.6,0.8
		c0.5,0.2,0.9,0.5,1.2,0.9c0.3,0.4,0.4,0.9,0.4,1.5c0,0.6-0.2,1.1-0.5,1.7s-0.8,0.9-1.5,1.2s-1.4,0.4-2.2,0.4
		c-1.4,0-2.4-0.3-3.1-0.8C524,49.1,523.6,48.3,523.4,47.2z"/>
	<path class="st8" d="M539.7,50.3V39.9h1.6v1.5c0.8-1.1,1.9-1.7,3.3-1.7c0.6,0,1.2,0.1,1.7,0.3c0.5,0.2,0.9,0.5,1.2,0.9
		c0.3,0.4,0.4,0.8,0.5,1.3c0.1,0.3,0.1,0.9,0.1,1.7v6.4h-1.8V44c0-0.7-0.1-1.3-0.2-1.6c-0.1-0.4-0.4-0.6-0.7-0.9
		c-0.3-0.2-0.8-0.3-1.2-0.3c-0.8,0-1.4,0.2-1.9,0.7c-0.5,0.5-0.8,1.4-0.8,2.7v5.7H539.7z"/>
	<path class="st8" d="M558,47l1.8,0.2c-0.3,1.1-0.8,1.9-1.6,2.5c-0.8,0.6-1.8,0.9-3,0.9c-1.5,0-2.7-0.5-3.6-1.4
		c-0.9-0.9-1.3-2.3-1.3-3.9c0-1.7,0.5-3.1,1.4-4.1s2.1-1.4,3.5-1.4c1.4,0,2.5,0.5,3.4,1.4s1.3,2.3,1.3,4c0,0.1,0,0.3,0,0.5h-7.8
		c0.1,1.1,0.4,2,1,2.6c0.6,0.6,1.3,0.9,2.2,0.9c0.6,0,1.2-0.2,1.7-0.5S557.7,47.7,558,47z M552.2,44.1h5.8c-0.1-0.9-0.3-1.5-0.7-2
		c-0.6-0.7-1.3-1-2.2-1c-0.8,0-1.5,0.3-2,0.8S552.2,43.2,552.2,44.1z"/>
	<path class="st8" d="M564.9,50.3l-4-10.4h1.9l2.2,6.2c0.2,0.7,0.5,1.4,0.7,2.1c0.2-0.5,0.4-1.2,0.7-2l2.3-6.3h1.8l-3.9,10.4H564.9z
		"/>
	<path class="st8" d="M579.1,47l1.8,0.2c-0.3,1.1-0.8,1.9-1.6,2.5c-0.8,0.6-1.8,0.9-3,0.9c-1.5,0-2.7-0.5-3.6-1.4
		c-0.9-0.9-1.3-2.3-1.3-3.9c0-1.7,0.5-3.1,1.4-4.1s2.1-1.4,3.5-1.4c1.4,0,2.5,0.5,3.4,1.4s1.3,2.3,1.3,4c0,0.1,0,0.3,0,0.5h-7.8
		c0.1,1.1,0.4,2,1,2.6c0.6,0.6,1.3,0.9,2.2,0.9c0.6,0,1.2-0.2,1.7-0.5S578.9,47.7,579.1,47z M573.4,44.1h5.8c-0.1-0.9-0.3-1.5-0.7-2
		c-0.6-0.7-1.3-1-2.2-1c-0.8,0-1.5,0.3-2,0.8S573.4,43.2,573.4,44.1z"/>
	<path class="st8" d="M583.2,50.3V39.9h1.6v1.6c0.4-0.7,0.8-1.2,1.1-1.5c0.3-0.2,0.7-0.4,1.1-0.4c0.6,0,1.2,0.2,1.8,0.6l-0.6,1.6
		c-0.4-0.3-0.9-0.4-1.3-0.4c-0.4,0-0.7,0.1-1,0.3c-0.3,0.2-0.5,0.6-0.7,1c-0.2,0.6-0.3,1.3-0.3,2.1v5.4H583.2z"/>
	<path class="st8" d="M589.2,50.3v-2h2v2H589.2z"/>
</g>
</svg>
